<?xml version="1.0" encoding="utf-8" standalone="no"?>
<!DOCTYPE svg PUBLIC "-//W3C//DTD SVG 1.1//EN"
  "http://www.w3.org/Graphics/SVG/1.1/DTD/svg11.dtd">
<svg xmlns:xlink="http://www.w3.org/1999/xlink" width="576pt" height="432pt" viewBox="0 0 576 432" xmlns="http://www.w3.org/2000/svg" version="1.1">
 <metadata>
  <rdf:RDF xmlns:dc="http://purl.org/dc/elements/1.1/" xmlns:cc="http://creativecommons.org/ns#" xmlns:rdf="http://www.w3.org/1999/02/22-rdf-syntax-ns#">
   <cc:Work>
    <dc:type rdf:resource="http://purl.org/dc/dcmitype/StillImage"/>
    <dc:date>2023-01-15T23:56:30.409637</dc:date>
    <dc:format>image/svg+xml</dc:format>
    <dc:creator>
     <cc:Agent>
      <dc:title>Matplotlib v3.5.0, https://matplotlib.org/</dc:title>
     </cc:Agent>
    </dc:creator>
   </cc:Work>
  </rdf:RDF>
 </metadata>
 <defs>
  <style type="text/css">*{stroke-linejoin: round; stroke-linecap: butt}</style>
 </defs>
 <g id="figure_1">
  <g id="patch_1">
   <path d="M 0 432 
L 576 432 
L 576 0 
L 0 0 
z
" style="fill: #ffffff"/>
  </g>
  <g id="axes_1">
   <g id="patch_2">
    <path d="M 52.94 288.132273 
L 560.274083 288.132273 
L 560.274083 26.88 
L 52.94 26.88 
z
" style="fill: #ffffff"/>
   </g>
   <g id="matplotlib.axis_1">
    <g id="xtick_1">
     <g id="line2d_1">
      <defs>
       <path id="me320bedd24" d="M 0 0 
L 0 3.5 
" style="stroke: #000000; stroke-width: 0.8"/>
      </defs>
      <g>
       <use xlink:href="#me320bedd24" x="78.541758" y="288.132273" style="stroke: #000000; stroke-width: 0.8"/>
      </g>
     </g>
    </g>
    <g id="xtick_2">
     <g id="line2d_2">
      <g>
       <use xlink:href="#me320bedd24" x="153.50472" y="288.132273" style="stroke: #000000; stroke-width: 0.8"/>
      </g>
     </g>
    </g>
    <g id="xtick_3">
     <g id="line2d_3">
      <g>
       <use xlink:href="#me320bedd24" x="231.0088" y="288.132273" style="stroke: #000000; stroke-width: 0.8"/>
      </g>
     </g>
    </g>
    <g id="xtick_4">
     <g id="line2d_4">
      <g>
       <use xlink:href="#me320bedd24" x="308.51288" y="288.132273" style="stroke: #000000; stroke-width: 0.8"/>
      </g>
     </g>
    </g>
    <g id="xtick_5">
     <g id="line2d_5">
      <g>
       <use xlink:href="#me320bedd24" x="387.287518" y="288.132273" style="stroke: #000000; stroke-width: 0.8"/>
      </g>
     </g>
    </g>
    <g id="xtick_6">
     <g id="line2d_6">
      <g>
       <use xlink:href="#me320bedd24" x="464.791598" y="288.132273" style="stroke: #000000; stroke-width: 0.8"/>
      </g>
     </g>
    </g>
    <g id="xtick_7">
     <g id="line2d_7">
      <g>
       <use xlink:href="#me320bedd24" x="542.295678" y="288.132273" style="stroke: #000000; stroke-width: 0.8"/>
      </g>
     </g>
    </g>
   </g>
   <g id="matplotlib.axis_2">
    <g id="ytick_1">
     <g id="line2d_8">
      <defs>
       <path id="m625ab305f9" d="M 0 0 
L -3.5 0 
" style="stroke: #000000; stroke-width: 0.8"/>
      </defs>
      <g>
       <use xlink:href="#m625ab305f9" x="52.94" y="269.661502" style="stroke: #000000; stroke-width: 0.8"/>
      </g>
     </g>
     <g id="text_1">
      <!-- −25 -->
      <g transform="translate(24.835313 273.460721)scale(0.1 -0.1)">
       <defs>
        <path id="DejaVuSans-2212" d="M 678 2272 
L 4684 2272 
L 4684 1741 
L 678 1741 
L 678 2272 
z
" transform="scale(0.015625)"/>
        <path id="DejaVuSans-32" d="M 1228 531 
L 3431 531 
L 3431 0 
L 469 0 
L 469 531 
Q 828 903 1448 1529 
Q 2069 2156 2228 2338 
Q 2531 2678 2651 2914 
Q 2772 3150 2772 3378 
Q 2772 3750 2511 3984 
Q 2250 4219 1831 4219 
Q 1534 4219 1204 4116 
Q 875 4013 500 3803 
L 500 4441 
Q 881 4594 1212 4672 
Q 1544 4750 1819 4750 
Q 2544 4750 2975 4387 
Q 3406 4025 3406 3419 
Q 3406 3131 3298 2873 
Q 3191 2616 2906 2266 
Q 2828 2175 2409 1742 
Q 1991 1309 1228 531 
z
" transform="scale(0.015625)"/>
        <path id="DejaVuSans-35" d="M 691 4666 
L 3169 4666 
L 3169 4134 
L 1269 4134 
L 1269 2991 
Q 1406 3038 1543 3061 
Q 1681 3084 1819 3084 
Q 2600 3084 3056 2656 
Q 3513 2228 3513 1497 
Q 3513 744 3044 326 
Q 2575 -91 1722 -91 
Q 1428 -91 1123 -41 
Q 819 9 494 109 
L 494 744 
Q 775 591 1075 516 
Q 1375 441 1709 441 
Q 2250 441 2565 725 
Q 2881 1009 2881 1497 
Q 2881 1984 2565 2268 
Q 2250 2553 1709 2553 
Q 1456 2553 1204 2497 
Q 953 2441 691 2322 
L 691 4666 
z
" transform="scale(0.015625)"/>
       </defs>
       <use xlink:href="#DejaVuSans-2212"/>
       <use xlink:href="#DejaVuSans-32" x="83.789062"/>
       <use xlink:href="#DejaVuSans-35" x="147.412109"/>
      </g>
     </g>
    </g>
    <g id="ytick_2">
     <g id="line2d_9">
      <g>
       <use xlink:href="#m625ab305f9" x="52.94" y="236.7154" style="stroke: #000000; stroke-width: 0.8"/>
      </g>
     </g>
     <g id="text_2">
      <!-- −20 -->
      <g transform="translate(24.835313 240.514619)scale(0.1 -0.1)">
       <defs>
        <path id="DejaVuSans-30" d="M 2034 4250 
Q 1547 4250 1301 3770 
Q 1056 3291 1056 2328 
Q 1056 1369 1301 889 
Q 1547 409 2034 409 
Q 2525 409 2770 889 
Q 3016 1369 3016 2328 
Q 3016 3291 2770 3770 
Q 2525 4250 2034 4250 
z
M 2034 4750 
Q 2819 4750 3233 4129 
Q 3647 3509 3647 2328 
Q 3647 1150 3233 529 
Q 2819 -91 2034 -91 
Q 1250 -91 836 529 
Q 422 1150 422 2328 
Q 422 3509 836 4129 
Q 1250 4750 2034 4750 
z
" transform="scale(0.015625)"/>
       </defs>
       <use xlink:href="#DejaVuSans-2212"/>
       <use xlink:href="#DejaVuSans-32" x="83.789062"/>
       <use xlink:href="#DejaVuSans-30" x="147.412109"/>
      </g>
     </g>
    </g>
    <g id="ytick_3">
     <g id="line2d_10">
      <g>
       <use xlink:href="#m625ab305f9" x="52.94" y="203.769298" style="stroke: #000000; stroke-width: 0.8"/>
      </g>
     </g>
     <g id="text_3">
      <!-- −15 -->
      <g transform="translate(24.835313 207.568517)scale(0.1 -0.1)">
       <defs>
        <path id="DejaVuSans-31" d="M 794 531 
L 1825 531 
L 1825 4091 
L 703 3866 
L 703 4441 
L 1819 4666 
L 2450 4666 
L 2450 531 
L 3481 531 
L 3481 0 
L 794 0 
L 794 531 
z
" transform="scale(0.015625)"/>
       </defs>
       <use xlink:href="#DejaVuSans-2212"/>
       <use xlink:href="#DejaVuSans-31" x="83.789062"/>
       <use xlink:href="#DejaVuSans-35" x="147.412109"/>
      </g>
     </g>
    </g>
    <g id="ytick_4">
     <g id="line2d_11">
      <g>
       <use xlink:href="#m625ab305f9" x="52.94" y="170.823197" style="stroke: #000000; stroke-width: 0.8"/>
      </g>
     </g>
     <g id="text_4">
      <!-- −10 -->
      <g transform="translate(24.835313 174.622416)scale(0.1 -0.1)">
       <use xlink:href="#DejaVuSans-2212"/>
       <use xlink:href="#DejaVuSans-31" x="83.789062"/>
       <use xlink:href="#DejaVuSans-30" x="147.412109"/>
      </g>
     </g>
    </g>
    <g id="ytick_5">
     <g id="line2d_12">
      <g>
       <use xlink:href="#m625ab305f9" x="52.94" y="137.877095" style="stroke: #000000; stroke-width: 0.8"/>
      </g>
     </g>
     <g id="text_5">
      <!-- −5 -->
      <g transform="translate(31.197813 141.676314)scale(0.1 -0.1)">
       <use xlink:href="#DejaVuSans-2212"/>
       <use xlink:href="#DejaVuSans-35" x="83.789062"/>
      </g>
     </g>
    </g>
    <g id="ytick_6">
     <g id="line2d_13">
      <g>
       <use xlink:href="#m625ab305f9" x="52.94" y="104.930993" style="stroke: #000000; stroke-width: 0.8"/>
      </g>
     </g>
     <g id="text_6">
      <!-- 0 -->
      <g transform="translate(39.5775 108.730212)scale(0.1 -0.1)">
       <use xlink:href="#DejaVuSans-30"/>
      </g>
     </g>
    </g>
    <g id="ytick_7">
     <g id="line2d_14">
      <g>
       <use xlink:href="#m625ab305f9" x="52.94" y="71.984892" style="stroke: #000000; stroke-width: 0.8"/>
      </g>
     </g>
     <g id="text_7">
      <!-- 5 -->
      <g transform="translate(39.5775 75.78411)scale(0.1 -0.1)">
       <use xlink:href="#DejaVuSans-35"/>
      </g>
     </g>
    </g>
    <g id="ytick_8">
     <g id="line2d_15">
      <g>
       <use xlink:href="#m625ab305f9" x="52.94" y="39.03879" style="stroke: #000000; stroke-width: 0.8"/>
      </g>
     </g>
     <g id="text_8">
      <!-- 10 -->
      <g transform="translate(33.215 42.838009)scale(0.1 -0.1)">
       <use xlink:href="#DejaVuSans-31"/>
       <use xlink:href="#DejaVuSans-30" x="63.623047"/>
      </g>
     </g>
    </g>
    <g id="text_9">
     <!-- Return [%] -->
     <g transform="translate(18.755625 184.338949)rotate(-90)scale(0.1 -0.1)">
      <defs>
       <path id="DejaVuSans-52" d="M 2841 2188 
Q 3044 2119 3236 1894 
Q 3428 1669 3622 1275 
L 4263 0 
L 3584 0 
L 2988 1197 
Q 2756 1666 2539 1819 
Q 2322 1972 1947 1972 
L 1259 1972 
L 1259 0 
L 628 0 
L 628 4666 
L 2053 4666 
Q 2853 4666 3247 4331 
Q 3641 3997 3641 3322 
Q 3641 2881 3436 2590 
Q 3231 2300 2841 2188 
z
M 1259 4147 
L 1259 2491 
L 2053 2491 
Q 2509 2491 2742 2702 
Q 2975 2913 2975 3322 
Q 2975 3731 2742 3939 
Q 2509 4147 2053 4147 
L 1259 4147 
z
" transform="scale(0.015625)"/>
       <path id="DejaVuSans-65" d="M 3597 1894 
L 3597 1613 
L 953 1613 
Q 991 1019 1311 708 
Q 1631 397 2203 397 
Q 2534 397 2845 478 
Q 3156 559 3463 722 
L 3463 178 
Q 3153 47 2828 -22 
Q 2503 -91 2169 -91 
Q 1331 -91 842 396 
Q 353 884 353 1716 
Q 353 2575 817 3079 
Q 1281 3584 2069 3584 
Q 2775 3584 3186 3129 
Q 3597 2675 3597 1894 
z
M 3022 2063 
Q 3016 2534 2758 2815 
Q 2500 3097 2075 3097 
Q 1594 3097 1305 2825 
Q 1016 2553 972 2059 
L 3022 2063 
z
" transform="scale(0.015625)"/>
       <path id="DejaVuSans-74" d="M 1172 4494 
L 1172 3500 
L 2356 3500 
L 2356 3053 
L 1172 3053 
L 1172 1153 
Q 1172 725 1289 603 
Q 1406 481 1766 481 
L 2356 481 
L 2356 0 
L 1766 0 
Q 1100 0 847 248 
Q 594 497 594 1153 
L 594 3053 
L 172 3053 
L 172 3500 
L 594 3500 
L 594 4494 
L 1172 4494 
z
" transform="scale(0.015625)"/>
       <path id="DejaVuSans-75" d="M 544 1381 
L 544 3500 
L 1119 3500 
L 1119 1403 
Q 1119 906 1312 657 
Q 1506 409 1894 409 
Q 2359 409 2629 706 
Q 2900 1003 2900 1516 
L 2900 3500 
L 3475 3500 
L 3475 0 
L 2900 0 
L 2900 538 
Q 2691 219 2414 64 
Q 2138 -91 1772 -91 
Q 1169 -91 856 284 
Q 544 659 544 1381 
z
M 1991 3584 
L 1991 3584 
z
" transform="scale(0.015625)"/>
       <path id="DejaVuSans-72" d="M 2631 2963 
Q 2534 3019 2420 3045 
Q 2306 3072 2169 3072 
Q 1681 3072 1420 2755 
Q 1159 2438 1159 1844 
L 1159 0 
L 581 0 
L 581 3500 
L 1159 3500 
L 1159 2956 
Q 1341 3275 1631 3429 
Q 1922 3584 2338 3584 
Q 2397 3584 2469 3576 
Q 2541 3569 2628 3553 
L 2631 2963 
z
" transform="scale(0.015625)"/>
       <path id="DejaVuSans-6e" d="M 3513 2113 
L 3513 0 
L 2938 0 
L 2938 2094 
Q 2938 2591 2744 2837 
Q 2550 3084 2163 3084 
Q 1697 3084 1428 2787 
Q 1159 2491 1159 1978 
L 1159 0 
L 581 0 
L 581 3500 
L 1159 3500 
L 1159 2956 
Q 1366 3272 1645 3428 
Q 1925 3584 2291 3584 
Q 2894 3584 3203 3211 
Q 3513 2838 3513 2113 
z
" transform="scale(0.015625)"/>
       <path id="DejaVuSans-20" transform="scale(0.015625)"/>
       <path id="DejaVuSans-5b" d="M 550 4863 
L 1875 4863 
L 1875 4416 
L 1125 4416 
L 1125 -397 
L 1875 -397 
L 1875 -844 
L 550 -844 
L 550 4863 
z
" transform="scale(0.015625)"/>
       <path id="DejaVuSans-25" d="M 4653 2053 
Q 4381 2053 4226 1822 
Q 4072 1591 4072 1178 
Q 4072 772 4226 539 
Q 4381 306 4653 306 
Q 4919 306 5073 539 
Q 5228 772 5228 1178 
Q 5228 1588 5073 1820 
Q 4919 2053 4653 2053 
z
M 4653 2450 
Q 5147 2450 5437 2106 
Q 5728 1763 5728 1178 
Q 5728 594 5436 251 
Q 5144 -91 4653 -91 
Q 4153 -91 3862 251 
Q 3572 594 3572 1178 
Q 3572 1766 3864 2108 
Q 4156 2450 4653 2450 
z
M 1428 4353 
Q 1159 4353 1004 4120 
Q 850 3888 850 3481 
Q 850 3069 1003 2837 
Q 1156 2606 1428 2606 
Q 1700 2606 1854 2837 
Q 2009 3069 2009 3481 
Q 2009 3884 1853 4118 
Q 1697 4353 1428 4353 
z
M 4250 4750 
L 4750 4750 
L 1831 -91 
L 1331 -91 
L 4250 4750 
z
M 1428 4750 
Q 1922 4750 2215 4408 
Q 2509 4066 2509 3481 
Q 2509 2891 2217 2550 
Q 1925 2209 1428 2209 
Q 931 2209 642 2551 
Q 353 2894 353 3481 
Q 353 4063 643 4406 
Q 934 4750 1428 4750 
z
" transform="scale(0.015625)"/>
       <path id="DejaVuSans-5d" d="M 1947 4863 
L 1947 -844 
L 622 -844 
L 622 -397 
L 1369 -397 
L 1369 4416 
L 622 4416 
L 622 4863 
L 1947 4863 
z
" transform="scale(0.015625)"/>
      </defs>
      <use xlink:href="#DejaVuSans-52"/>
      <use xlink:href="#DejaVuSans-65" x="64.982422"/>
      <use xlink:href="#DejaVuSans-74" x="126.505859"/>
      <use xlink:href="#DejaVuSans-75" x="165.714844"/>
      <use xlink:href="#DejaVuSans-72" x="229.09375"/>
      <use xlink:href="#DejaVuSans-6e" x="268.457031"/>
      <use xlink:href="#DejaVuSans-20" x="331.835938"/>
      <use xlink:href="#DejaVuSans-5b" x="363.623047"/>
      <use xlink:href="#DejaVuSans-25" x="402.636719"/>
      <use xlink:href="#DejaVuSans-5d" x="497.65625"/>
     </g>
    </g>
   </g>
   <g id="line2d_16">
    <path d="M 76.00064 110.326292 
L 81.082875 98.291496 
L 82.353434 104.495524 
L 83.623992 112.458396 
L 86.16511 108.131978 
L 89.976786 112.000305 
L 91.247344 99.699703 
L 92.517903 99.846745 
L 93.788462 99.660115 
L 95.05902 100.310491 
L 98.870697 102.431285 
L 100.141255 96.911567 
L 101.411814 110.286704 
L 102.682373 121.156477 
L 103.952931 113.001319 
L 107.764607 114.188964 
L 109.035166 111.955061 
L 110.305725 99.988131 
L 111.576283 104.591666 
L 112.846842 112.458396 
L 116.658518 115.048592 
L 117.929077 115.291776 
L 119.199635 124.549746 
L 120.470194 119.855724 
L 121.740753 119.522052 
L 125.552429 118.849054 
L 126.822988 123.186783 
L 128.093546 122.055693 
L 129.364105 126.48391 
L 130.634664 119.148793 
L 134.44634 122.496818 
L 135.716898 127.134287 
L 136.987457 125.918365 
L 138.258016 135.707948 
L 139.528574 132.009284 
L 143.340251 133.847305 
L 144.610809 134.769143 
L 145.881368 142.845124 
L 147.151927 140.452869 
L 148.422485 132.258124 
L 152.234161 125.545105 
L 153.50472 130.917782 
L 154.775279 139.712006 
L 156.045837 135.645738 
L 157.316396 134.752177 
L 161.128072 131.585125 
L 162.398631 128.8083 
L 163.66919 126.721439 
L 164.939748 131.013925 
L 166.210307 140.498113 
L 170.021983 146.526822 
L 171.292542 161.773913 
L 172.5631 166.948649 
L 173.833659 155.705616 
L 175.104218 146.634275 
L 178.915894 137.840052 
L 180.186452 138.394286 
L 181.457011 134.248842 
L 182.72757 126.438666 
L 183.998128 126.427356 
L 187.809805 123.503488 
L 189.080363 124.385738 
L 190.350922 120.228983 
L 191.621481 122.033072 
L 192.892039 115.964775 
L 196.703715 112.758135 
L 197.974274 113.968401 
L 199.244833 109.789024 
L 200.515391 115.987396 
L 201.78595 112.70158 
L 205.597626 114.217241 
L 206.868185 123.814538 
L 208.138744 120.336437 
L 209.409302 124.855141 
L 210.679861 128.287998 
L 214.491537 137.913573 
L 215.762096 132.229846 
L 217.032654 118.80381 
L 218.303213 118.49276 
L 224.656006 111.519592 
L 225.926565 110.948391 
L 227.197124 106.995232 
L 228.467682 106.21478 
L 232.279359 105.864142 
L 233.549917 111.287718 
L 234.820476 114.245518 
L 236.091035 114.138065 
L 237.361593 109.04816 
L 241.173269 109.444042 
L 242.443828 103.562375 
L 243.714387 100.022064 
L 244.984945 104.12792 
L 246.255504 104.122264 
L 250.06718 100.197382 
L 251.337739 109.132992 
L 252.608298 108.918085 
L 253.878856 104.342827 
L 255.149415 103.822525 
L 258.961091 120.438235 
L 260.23165 121.976517 
L 261.502208 112.390531 
L 262.772767 118.905608 
L 264.043326 113.974057 
L 267.855002 115.506683 
L 269.12556 112.707236 
L 270.396119 108.120667 
L 272.937237 122.711725 
L 278.019471 125.431996 
L 279.29003 140.07961 
L 280.560589 134.825698 
L 281.831147 144.191121 
L 285.642823 147.454315 
L 286.913382 138.083236 
L 288.183941 147.75971 
L 289.454499 153.912838 
L 290.725058 151.119046 
L 294.536734 160.246941 
L 295.807293 146.238394 
L 298.34841 167.067413 
L 304.701204 157.385284 
L 305.971762 141.736656 
L 307.242321 133.140374 
L 308.51288 131.545537 
L 312.324556 127.100354 
L 313.595114 126.336868 
L 314.865673 131.087446 
L 316.136232 121.874719 
L 317.406791 130.114708 
L 321.218467 139.836425 
L 322.489025 142.211714 
L 323.759584 137.155743 
L 325.030143 146.492889 
L 326.300701 153.268117 
L 330.112377 166.569733 
L 331.382936 154.925164 
L 332.653495 145.378766 
L 333.924053 148.449674 
L 335.194612 146.843527 
L 339.006288 149.456344 
L 341.547406 158.437198 
L 342.817964 159.404279 
L 344.088523 160.999116 
L 347.900199 176.223585 
L 349.170758 191.125694 
L 350.441316 208.765039 
L 351.711875 232.45006 
L 352.982434 227.840869 
L 356.79411 253.691927 
L 358.064668 237.879292 
L 359.335227 252.27241 
L 360.605786 233.541562 
L 361.876345 222.292874 
L 365.688021 216.64308 
L 366.958579 222.417294 
L 368.229138 222.326806 
L 369.499697 258.776176 
L 370.770255 267.626954 
L 374.581931 261.733976 
L 375.85249 251.655966 
L 377.123049 245.666845 
L 378.393607 253.047206 
L 379.664166 252.419451 
L 383.475842 239.383641 
L 384.746401 237.822737 
L 386.01696 223.966887 
L 387.287518 220.053316 
L 388.558077 236.708614 
L 392.369753 261.982816 
L 393.640312 262.061992 
L 394.91087 244.671486 
L 396.181429 244.21905 
L 397.451988 263.571997 
L 401.263664 276.025296 
L 402.534223 267.078375 
L 403.804781 260.133484 
L 405.07534 240.93889 
L 406.345899 239.508061 
L 410.157575 257.452801 
L 411.428133 244.252983 
L 412.698692 251.243118 
L 413.969251 276.257169 
L 415.239809 276.155371 
L 419.051485 270.143629 
L 420.322044 239.440196 
L 421.592603 252.402485 
L 422.863161 237.692662 
L 424.13372 249.111014 
L 427.945396 253.324323 
L 429.215955 273.514277 
L 430.486514 254.998336 
L 431.757072 243.268935 
L 433.027631 244.524444 
L 436.839307 227.552441 
L 438.109866 228.406414 
L 439.380424 222.208042 
L 440.650983 234.378569 
L 441.921542 222.971528 
L 445.733218 232.580136 
L 447.003777 229.113345 
L 448.274335 230.985299 
L 449.544894 235.605801 
L 450.815453 217.989077 
L 454.627129 210.704859 
L 455.897687 212.067822 
L 457.168246 207.877134 
L 458.438805 181.715026 
L 459.709363 183.762299 
L 463.521039 203.714723 
L 464.791598 228.926716 
L 466.062157 218.15874 
L 467.332716 209.743432 
L 468.603274 205.569711 
L 472.41495 216.184989 
L 473.685509 215.019966 
L 474.956068 228.440347 
L 476.226626 228.904094 
L 477.497185 211.592764 
L 481.308861 219.284175 
L 482.57942 221.30317 
L 483.849978 220.268223 
L 485.120537 228.021844 
L 486.391096 231.533878 
L 490.202772 250.677573 
L 491.473331 251.605067 
L 492.743889 261.191053 
L 494.014448 262.491806 
L 495.285007 260.95918 
L 499.096683 239.502406 
L 500.367241 237.081873 
L 501.6378 209.980961 
L 502.908359 216.795777 
L 504.178917 212.74082 
L 507.990593 204.693116 
L 509.261152 211.055496 
L 510.531711 210.286355 
L 511.80227 222.86973 
L 513.072828 219.09189 
L 516.884504 231.194551 
L 518.155063 223.124225 
L 519.425622 232.63669 
L 520.69618 228.462969 
L 521.966739 233.547218 
L 525.778415 235.481381 
L 527.048974 221.11654 
L 528.319532 221.156129 
L 530.86065 208.442679 
L 535.942885 211.372202 
L 537.213443 215.63641 
L 537.213443 215.63641 
" clip-path="url(#p66f23509d1)" style="fill: none; stroke: #008000; stroke-width: 1.5; stroke-linecap: square"/>
   </g>
   <g id="line2d_17">
    <path d="M 76.00064 103.75415 
L 81.082875 101.229939 
L 82.353434 93.688742 
L 83.623992 93.858035 
L 86.16511 89.186557 
L 89.976786 88.571681 
L 91.247344 88.925331 
L 92.517903 83.873972 
L 93.788462 83.45333 
L 95.05902 85.800877 
L 98.870697 84.605929 
L 100.141255 84.077551 
L 101.411814 86.043275 
L 102.682373 96.429772 
L 103.952931 101.998425 
L 107.764607 99.791491 
L 109.035166 105.632984 
L 110.305725 102.454075 
L 111.576283 98.322829 
L 112.846842 98.243882 
L 116.658518 101.592623 
L 117.929077 103.686235 
L 119.199635 106.345656 
L 121.740753 106.345656 
L 125.552429 105.544776 
L 126.822988 95.989514 
L 128.093546 94.377826 
L 129.364105 94.60132 
L 130.634664 103.798333 
L 134.44634 103.798333 
L 135.716898 111.278613 
L 153.50472 111.278613 
L 154.775279 101.220185 
L 156.045837 101.220185 
L 157.316396 98.718897 
L 161.128072 95.305575 
L 162.398631 95.934269 
L 163.66919 93.890813 
L 164.939748 95.80456 
L 166.210307 97.509566 
L 170.021983 112.679205 
L 171.292542 116.217836 
L 175.104218 116.217836 
L 178.915894 109.701716 
L 180.186452 106.81209 
L 183.998128 106.81209 
L 187.809805 105.988032 
L 189.080363 103.69689 
L 190.350922 99.250366 
L 191.621481 93.246646 
L 192.892039 91.628324 
L 196.703715 89.909267 
L 197.974274 86.231343 
L 199.244833 84.424361 
L 200.515391 85.493961 
L 201.78595 89.180508 
L 205.597626 89.235326 
L 206.868185 91.70276 
L 208.138744 93.099206 
L 209.409302 93.785341 
L 210.679861 91.926906 
L 214.491537 87.398977 
L 215.762096 97.296105 
L 218.303213 87.627459 
L 224.656006 85.220535 
L 225.926565 85.007099 
L 227.197124 80.686887 
L 228.467682 81.167427 
L 232.279359 79.101067 
L 233.549917 78.05659 
L 234.820476 78.025881 
L 236.091035 84.570545 
L 237.361593 84.724418 
L 241.173269 82.079291 
L 242.443828 81.807691 
L 246.255504 81.807691 
L 250.06718 83.042112 
L 307.242321 83.042112 
L 308.51288 81.283238 
L 312.324556 86.096588 
L 313.595114 86.754434 
L 314.865673 82.556046 
L 316.136232 84.741089 
L 317.406791 79.029428 
L 321.218467 91.878356 
L 322.489025 99.491482 
L 323.759584 96.066525 
L 325.030143 92.020036 
L 326.300701 99.400213 
L 374.581931 99.400213 
L 375.85249 90.330145 
L 377.123049 84.208438 
L 378.393607 81.637532 
L 379.664166 88.875525 
L 383.475842 88.302464 
L 384.746401 84.95471 
L 387.287518 70.482076 
L 388.558077 73.742392 
L 392.369753 88.392121 
L 393.640312 104.478257 
L 394.91087 94.749746 
L 396.181429 86.492401 
L 397.451988 87.878029 
L 412.698692 87.878029 
L 413.969251 102.563923 
L 422.863161 102.563923 
L 424.13372 88.041058 
L 427.945396 96.173246 
L 436.839307 96.173246 
L 438.109866 81.399873 
L 439.380424 82.455997 
L 440.650983 78.341103 
L 441.921542 86.113523 
L 445.733218 71.048518 
L 447.003777 80.51363 
L 448.274335 73.363651 
L 449.544894 82.092547 
L 450.815453 80.626954 
L 454.627129 67.880358 
L 455.897687 60.096846 
L 457.168246 61.466713 
L 458.438805 48.455961 
L 459.709363 38.755103 
L 463.521039 40.634574 
L 464.791598 62.539077 
L 466.062157 72.430769 
L 467.332716 66.898691 
L 468.603274 45.648462 
L 472.41495 46.16512 
L 473.685509 52.342793 
L 474.956068 50.41173 
L 476.226626 75.044402 
L 477.497185 63.567099 
L 481.308861 42.736877 
L 482.57942 55.150965 
L 485.120537 55.150965 
L 486.391096 62.570579 
L 510.531711 62.570579 
L 511.80227 67.233218 
L 513.072828 67.233218 
L 516.884504 68.290408 
L 518.155063 75.39899 
L 519.425622 67.531078 
L 520.69618 67.531078 
L 521.966739 67.154091 
L 530.86065 67.154091 
L 535.942885 67.456775 
L 537.213443 64.043907 
L 537.213443 64.043907 
" clip-path="url(#p66f23509d1)" style="fill: none; stroke: #0000ff; stroke-width: 1.5; stroke-linecap: square"/>
   </g>
   <g id="line2d_18">
    <path d="M 76.00064 103.75415 
L 81.082875 101.229939 
L 82.353434 93.688742 
L 83.623992 93.688742 
L 86.16511 89.186557 
L 89.976786 88.571681 
L 91.247344 88.571681 
L 92.517903 83.873972 
L 93.788462 83.45333 
L 225.926565 83.45333 
L 227.197124 80.686887 
L 228.467682 80.686887 
L 232.279359 79.101067 
L 233.549917 78.05659 
L 237.361593 78.025881 
L 384.746401 78.025881 
L 386.01696 77.389801 
L 387.287518 70.482076 
L 450.815453 70.482076 
L 454.627129 67.880358 
L 455.897687 60.096846 
L 457.168246 60.096846 
L 458.438805 48.455961 
L 459.709363 38.755103 
L 537.213443 38.755103 
L 537.213443 38.755103 
" clip-path="url(#p66f23509d1)" style="fill: none; stroke: #ff0000; stroke-width: 1.5; stroke-linecap: square"/>
   </g>
   <g id="patch_3">
    <path d="M 52.94 288.132273 
L 52.94 26.88 
" style="fill: none; stroke: #000000; stroke-width: 0.8; stroke-linejoin: miter; stroke-linecap: square"/>
   </g>
   <g id="patch_4">
    <path d="M 560.274083 288.132273 
L 560.274083 26.88 
" style="fill: none; stroke: #000000; stroke-width: 0.8; stroke-linejoin: miter; stroke-linecap: square"/>
   </g>
   <g id="patch_5">
    <path d="M 52.94 288.132273 
L 560.274083 288.132273 
" style="fill: none; stroke: #000000; stroke-width: 0.8; stroke-linejoin: miter; stroke-linecap: square"/>
   </g>
   <g id="patch_6">
    <path d="M 52.94 26.88 
L 560.274083 26.88 
" style="fill: none; stroke: #000000; stroke-width: 0.8; stroke-linejoin: miter; stroke-linecap: square"/>
   </g>
   <g id="text_10">
    <!-- Performance of AVAN-strategy year 2011 -->
    <g transform="translate(183.293917 20.88)scale(0.12 -0.12)">
     <defs>
      <path id="DejaVuSans-50" d="M 1259 4147 
L 1259 2394 
L 2053 2394 
Q 2494 2394 2734 2622 
Q 2975 2850 2975 3272 
Q 2975 3691 2734 3919 
Q 2494 4147 2053 4147 
L 1259 4147 
z
M 628 4666 
L 2053 4666 
Q 2838 4666 3239 4311 
Q 3641 3956 3641 3272 
Q 3641 2581 3239 2228 
Q 2838 1875 2053 1875 
L 1259 1875 
L 1259 0 
L 628 0 
L 628 4666 
z
" transform="scale(0.015625)"/>
      <path id="DejaVuSans-66" d="M 2375 4863 
L 2375 4384 
L 1825 4384 
Q 1516 4384 1395 4259 
Q 1275 4134 1275 3809 
L 1275 3500 
L 2222 3500 
L 2222 3053 
L 1275 3053 
L 1275 0 
L 697 0 
L 697 3053 
L 147 3053 
L 147 3500 
L 697 3500 
L 697 3744 
Q 697 4328 969 4595 
Q 1241 4863 1831 4863 
L 2375 4863 
z
" transform="scale(0.015625)"/>
      <path id="DejaVuSans-6f" d="M 1959 3097 
Q 1497 3097 1228 2736 
Q 959 2375 959 1747 
Q 959 1119 1226 758 
Q 1494 397 1959 397 
Q 2419 397 2687 759 
Q 2956 1122 2956 1747 
Q 2956 2369 2687 2733 
Q 2419 3097 1959 3097 
z
M 1959 3584 
Q 2709 3584 3137 3096 
Q 3566 2609 3566 1747 
Q 3566 888 3137 398 
Q 2709 -91 1959 -91 
Q 1206 -91 779 398 
Q 353 888 353 1747 
Q 353 2609 779 3096 
Q 1206 3584 1959 3584 
z
" transform="scale(0.015625)"/>
      <path id="DejaVuSans-6d" d="M 3328 2828 
Q 3544 3216 3844 3400 
Q 4144 3584 4550 3584 
Q 5097 3584 5394 3201 
Q 5691 2819 5691 2113 
L 5691 0 
L 5113 0 
L 5113 2094 
Q 5113 2597 4934 2840 
Q 4756 3084 4391 3084 
Q 3944 3084 3684 2787 
Q 3425 2491 3425 1978 
L 3425 0 
L 2847 0 
L 2847 2094 
Q 2847 2600 2669 2842 
Q 2491 3084 2119 3084 
Q 1678 3084 1418 2786 
Q 1159 2488 1159 1978 
L 1159 0 
L 581 0 
L 581 3500 
L 1159 3500 
L 1159 2956 
Q 1356 3278 1631 3431 
Q 1906 3584 2284 3584 
Q 2666 3584 2933 3390 
Q 3200 3197 3328 2828 
z
" transform="scale(0.015625)"/>
      <path id="DejaVuSans-61" d="M 2194 1759 
Q 1497 1759 1228 1600 
Q 959 1441 959 1056 
Q 959 750 1161 570 
Q 1363 391 1709 391 
Q 2188 391 2477 730 
Q 2766 1069 2766 1631 
L 2766 1759 
L 2194 1759 
z
M 3341 1997 
L 3341 0 
L 2766 0 
L 2766 531 
Q 2569 213 2275 61 
Q 1981 -91 1556 -91 
Q 1019 -91 701 211 
Q 384 513 384 1019 
Q 384 1609 779 1909 
Q 1175 2209 1959 2209 
L 2766 2209 
L 2766 2266 
Q 2766 2663 2505 2880 
Q 2244 3097 1772 3097 
Q 1472 3097 1187 3025 
Q 903 2953 641 2809 
L 641 3341 
Q 956 3463 1253 3523 
Q 1550 3584 1831 3584 
Q 2591 3584 2966 3190 
Q 3341 2797 3341 1997 
z
" transform="scale(0.015625)"/>
      <path id="DejaVuSans-63" d="M 3122 3366 
L 3122 2828 
Q 2878 2963 2633 3030 
Q 2388 3097 2138 3097 
Q 1578 3097 1268 2742 
Q 959 2388 959 1747 
Q 959 1106 1268 751 
Q 1578 397 2138 397 
Q 2388 397 2633 464 
Q 2878 531 3122 666 
L 3122 134 
Q 2881 22 2623 -34 
Q 2366 -91 2075 -91 
Q 1284 -91 818 406 
Q 353 903 353 1747 
Q 353 2603 823 3093 
Q 1294 3584 2113 3584 
Q 2378 3584 2631 3529 
Q 2884 3475 3122 3366 
z
" transform="scale(0.015625)"/>
      <path id="DejaVuSans-41" d="M 2188 4044 
L 1331 1722 
L 3047 1722 
L 2188 4044 
z
M 1831 4666 
L 2547 4666 
L 4325 0 
L 3669 0 
L 3244 1197 
L 1141 1197 
L 716 0 
L 50 0 
L 1831 4666 
z
" transform="scale(0.015625)"/>
      <path id="DejaVuSans-56" d="M 1831 0 
L 50 4666 
L 709 4666 
L 2188 738 
L 3669 4666 
L 4325 4666 
L 2547 0 
L 1831 0 
z
" transform="scale(0.015625)"/>
      <path id="DejaVuSans-4e" d="M 628 4666 
L 1478 4666 
L 3547 763 
L 3547 4666 
L 4159 4666 
L 4159 0 
L 3309 0 
L 1241 3903 
L 1241 0 
L 628 0 
L 628 4666 
z
" transform="scale(0.015625)"/>
      <path id="DejaVuSans-2d" d="M 313 2009 
L 1997 2009 
L 1997 1497 
L 313 1497 
L 313 2009 
z
" transform="scale(0.015625)"/>
      <path id="DejaVuSans-73" d="M 2834 3397 
L 2834 2853 
Q 2591 2978 2328 3040 
Q 2066 3103 1784 3103 
Q 1356 3103 1142 2972 
Q 928 2841 928 2578 
Q 928 2378 1081 2264 
Q 1234 2150 1697 2047 
L 1894 2003 
Q 2506 1872 2764 1633 
Q 3022 1394 3022 966 
Q 3022 478 2636 193 
Q 2250 -91 1575 -91 
Q 1294 -91 989 -36 
Q 684 19 347 128 
L 347 722 
Q 666 556 975 473 
Q 1284 391 1588 391 
Q 1994 391 2212 530 
Q 2431 669 2431 922 
Q 2431 1156 2273 1281 
Q 2116 1406 1581 1522 
L 1381 1569 
Q 847 1681 609 1914 
Q 372 2147 372 2553 
Q 372 3047 722 3315 
Q 1072 3584 1716 3584 
Q 2034 3584 2315 3537 
Q 2597 3491 2834 3397 
z
" transform="scale(0.015625)"/>
      <path id="DejaVuSans-67" d="M 2906 1791 
Q 2906 2416 2648 2759 
Q 2391 3103 1925 3103 
Q 1463 3103 1205 2759 
Q 947 2416 947 1791 
Q 947 1169 1205 825 
Q 1463 481 1925 481 
Q 2391 481 2648 825 
Q 2906 1169 2906 1791 
z
M 3481 434 
Q 3481 -459 3084 -895 
Q 2688 -1331 1869 -1331 
Q 1566 -1331 1297 -1286 
Q 1028 -1241 775 -1147 
L 775 -588 
Q 1028 -725 1275 -790 
Q 1522 -856 1778 -856 
Q 2344 -856 2625 -561 
Q 2906 -266 2906 331 
L 2906 616 
Q 2728 306 2450 153 
Q 2172 0 1784 0 
Q 1141 0 747 490 
Q 353 981 353 1791 
Q 353 2603 747 3093 
Q 1141 3584 1784 3584 
Q 2172 3584 2450 3431 
Q 2728 3278 2906 2969 
L 2906 3500 
L 3481 3500 
L 3481 434 
z
" transform="scale(0.015625)"/>
      <path id="DejaVuSans-79" d="M 2059 -325 
Q 1816 -950 1584 -1140 
Q 1353 -1331 966 -1331 
L 506 -1331 
L 506 -850 
L 844 -850 
Q 1081 -850 1212 -737 
Q 1344 -625 1503 -206 
L 1606 56 
L 191 3500 
L 800 3500 
L 1894 763 
L 2988 3500 
L 3597 3500 
L 2059 -325 
z
" transform="scale(0.015625)"/>
     </defs>
     <use xlink:href="#DejaVuSans-50"/>
     <use xlink:href="#DejaVuSans-65" x="56.677734"/>
     <use xlink:href="#DejaVuSans-72" x="118.201172"/>
     <use xlink:href="#DejaVuSans-66" x="159.314453"/>
     <use xlink:href="#DejaVuSans-6f" x="194.519531"/>
     <use xlink:href="#DejaVuSans-72" x="255.701172"/>
     <use xlink:href="#DejaVuSans-6d" x="295.064453"/>
     <use xlink:href="#DejaVuSans-61" x="392.476562"/>
     <use xlink:href="#DejaVuSans-6e" x="453.755859"/>
     <use xlink:href="#DejaVuSans-63" x="517.134766"/>
     <use xlink:href="#DejaVuSans-65" x="572.115234"/>
     <use xlink:href="#DejaVuSans-20" x="633.638672"/>
     <use xlink:href="#DejaVuSans-6f" x="665.425781"/>
     <use xlink:href="#DejaVuSans-66" x="726.607422"/>
     <use xlink:href="#DejaVuSans-20" x="761.8125"/>
     <use xlink:href="#DejaVuSans-41" x="793.599609"/>
     <use xlink:href="#DejaVuSans-56" x="855.632812"/>
     <use xlink:href="#DejaVuSans-41" x="917.666016"/>
     <use xlink:href="#DejaVuSans-4e" x="986.074219"/>
     <use xlink:href="#DejaVuSans-2d" x="1060.878906"/>
     <use xlink:href="#DejaVuSans-73" x="1096.962891"/>
     <use xlink:href="#DejaVuSans-74" x="1149.0625"/>
     <use xlink:href="#DejaVuSans-72" x="1188.271484"/>
     <use xlink:href="#DejaVuSans-61" x="1229.384766"/>
     <use xlink:href="#DejaVuSans-74" x="1290.664062"/>
     <use xlink:href="#DejaVuSans-65" x="1329.873047"/>
     <use xlink:href="#DejaVuSans-67" x="1391.396484"/>
     <use xlink:href="#DejaVuSans-79" x="1454.873047"/>
     <use xlink:href="#DejaVuSans-20" x="1514.052734"/>
     <use xlink:href="#DejaVuSans-79" x="1545.839844"/>
     <use xlink:href="#DejaVuSans-65" x="1605.019531"/>
     <use xlink:href="#DejaVuSans-61" x="1666.542969"/>
     <use xlink:href="#DejaVuSans-72" x="1727.822266"/>
     <use xlink:href="#DejaVuSans-20" x="1768.935547"/>
     <use xlink:href="#DejaVuSans-32" x="1800.722656"/>
     <use xlink:href="#DejaVuSans-30" x="1864.345703"/>
     <use xlink:href="#DejaVuSans-31" x="1927.96875"/>
     <use xlink:href="#DejaVuSans-31" x="1991.591797"/>
    </g>
   </g>
   <g id="legend_1">
    <g id="patch_7">
     <path d="M 59.94 78.914375 
L 186.019688 78.914375 
Q 188.019688 78.914375 188.019688 76.914375 
L 188.019688 33.88 
Q 188.019688 31.88 186.019688 31.88 
L 59.94 31.88 
Q 57.94 31.88 57.94 33.88 
L 57.94 76.914375 
Q 57.94 78.914375 59.94 78.914375 
z
" style="fill: #ffffff; opacity: 0.8; stroke: #cccccc; stroke-linejoin: miter"/>
    </g>
    <g id="line2d_19">
     <path d="M 61.94 39.978438 
L 71.94 39.978438 
L 81.94 39.978438 
" style="fill: none; stroke: #008000; stroke-width: 1.5; stroke-linecap: square"/>
    </g>
    <g id="text_11">
     <!-- -16.8% return omx -->
     <g transform="translate(89.94 43.478438)scale(0.1 -0.1)">
      <defs>
       <path id="DejaVuSans-36" d="M 2113 2584 
Q 1688 2584 1439 2293 
Q 1191 2003 1191 1497 
Q 1191 994 1439 701 
Q 1688 409 2113 409 
Q 2538 409 2786 701 
Q 3034 994 3034 1497 
Q 3034 2003 2786 2293 
Q 2538 2584 2113 2584 
z
M 3366 4563 
L 3366 3988 
Q 3128 4100 2886 4159 
Q 2644 4219 2406 4219 
Q 1781 4219 1451 3797 
Q 1122 3375 1075 2522 
Q 1259 2794 1537 2939 
Q 1816 3084 2150 3084 
Q 2853 3084 3261 2657 
Q 3669 2231 3669 1497 
Q 3669 778 3244 343 
Q 2819 -91 2113 -91 
Q 1303 -91 875 529 
Q 447 1150 447 2328 
Q 447 3434 972 4092 
Q 1497 4750 2381 4750 
Q 2619 4750 2861 4703 
Q 3103 4656 3366 4563 
z
" transform="scale(0.015625)"/>
       <path id="DejaVuSans-2e" d="M 684 794 
L 1344 794 
L 1344 0 
L 684 0 
L 684 794 
z
" transform="scale(0.015625)"/>
       <path id="DejaVuSans-38" d="M 2034 2216 
Q 1584 2216 1326 1975 
Q 1069 1734 1069 1313 
Q 1069 891 1326 650 
Q 1584 409 2034 409 
Q 2484 409 2743 651 
Q 3003 894 3003 1313 
Q 3003 1734 2745 1975 
Q 2488 2216 2034 2216 
z
M 1403 2484 
Q 997 2584 770 2862 
Q 544 3141 544 3541 
Q 544 4100 942 4425 
Q 1341 4750 2034 4750 
Q 2731 4750 3128 4425 
Q 3525 4100 3525 3541 
Q 3525 3141 3298 2862 
Q 3072 2584 2669 2484 
Q 3125 2378 3379 2068 
Q 3634 1759 3634 1313 
Q 3634 634 3220 271 
Q 2806 -91 2034 -91 
Q 1263 -91 848 271 
Q 434 634 434 1313 
Q 434 1759 690 2068 
Q 947 2378 1403 2484 
z
M 1172 3481 
Q 1172 3119 1398 2916 
Q 1625 2713 2034 2713 
Q 2441 2713 2670 2916 
Q 2900 3119 2900 3481 
Q 2900 3844 2670 4047 
Q 2441 4250 2034 4250 
Q 1625 4250 1398 4047 
Q 1172 3844 1172 3481 
z
" transform="scale(0.015625)"/>
       <path id="DejaVuSans-78" d="M 3513 3500 
L 2247 1797 
L 3578 0 
L 2900 0 
L 1881 1375 
L 863 0 
L 184 0 
L 1544 1831 
L 300 3500 
L 978 3500 
L 1906 2253 
L 2834 3500 
L 3513 3500 
z
" transform="scale(0.015625)"/>
      </defs>
      <use xlink:href="#DejaVuSans-2d"/>
      <use xlink:href="#DejaVuSans-31" x="36.083984"/>
      <use xlink:href="#DejaVuSans-36" x="99.707031"/>
      <use xlink:href="#DejaVuSans-2e" x="163.330078"/>
      <use xlink:href="#DejaVuSans-38" x="195.117188"/>
      <use xlink:href="#DejaVuSans-25" x="258.740234"/>
      <use xlink:href="#DejaVuSans-20" x="353.759766"/>
      <use xlink:href="#DejaVuSans-72" x="385.546875"/>
      <use xlink:href="#DejaVuSans-65" x="424.410156"/>
      <use xlink:href="#DejaVuSans-74" x="485.933594"/>
      <use xlink:href="#DejaVuSans-75" x="525.142578"/>
      <use xlink:href="#DejaVuSans-72" x="588.521484"/>
      <use xlink:href="#DejaVuSans-6e" x="627.884766"/>
      <use xlink:href="#DejaVuSans-20" x="691.263672"/>
      <use xlink:href="#DejaVuSans-6f" x="723.050781"/>
      <use xlink:href="#DejaVuSans-6d" x="784.232422"/>
      <use xlink:href="#DejaVuSans-78" x="881.644531"/>
     </g>
    </g>
    <g id="line2d_20">
     <path d="M 61.94 54.656563 
L 71.94 54.656563 
L 81.94 54.656563 
" style="fill: none; stroke: #0000ff; stroke-width: 1.5; stroke-linecap: square"/>
    </g>
    <g id="text_12">
     <!-- 6.2% return AVAN -->
     <g transform="translate(89.94 58.156563)scale(0.1 -0.1)">
      <use xlink:href="#DejaVuSans-36"/>
      <use xlink:href="#DejaVuSans-2e" x="63.623047"/>
      <use xlink:href="#DejaVuSans-32" x="95.410156"/>
      <use xlink:href="#DejaVuSans-25" x="159.033203"/>
      <use xlink:href="#DejaVuSans-20" x="254.052734"/>
      <use xlink:href="#DejaVuSans-72" x="285.839844"/>
      <use xlink:href="#DejaVuSans-65" x="324.703125"/>
      <use xlink:href="#DejaVuSans-74" x="386.226562"/>
      <use xlink:href="#DejaVuSans-75" x="425.435547"/>
      <use xlink:href="#DejaVuSans-72" x="488.814453"/>
      <use xlink:href="#DejaVuSans-6e" x="528.177734"/>
      <use xlink:href="#DejaVuSans-20" x="591.556641"/>
      <use xlink:href="#DejaVuSans-41" x="623.34375"/>
      <use xlink:href="#DejaVuSans-56" x="685.376953"/>
      <use xlink:href="#DejaVuSans-41" x="747.410156"/>
      <use xlink:href="#DejaVuSans-4e" x="815.818359"/>
     </g>
    </g>
    <g id="line2d_21">
     <path d="M 61.94 69.334688 
L 71.94 69.334688 
L 81.94 69.334688 
" style="fill: none; stroke: #ff0000; stroke-width: 1.5; stroke-linecap: square"/>
    </g>
    <g id="text_13">
     <!-- cummax -->
     <g transform="translate(89.94 72.834688)scale(0.1 -0.1)">
      <use xlink:href="#DejaVuSans-63"/>
      <use xlink:href="#DejaVuSans-75" x="54.980469"/>
      <use xlink:href="#DejaVuSans-6d" x="118.359375"/>
      <use xlink:href="#DejaVuSans-6d" x="215.771484"/>
      <use xlink:href="#DejaVuSans-61" x="313.183594"/>
      <use xlink:href="#DejaVuSans-78" x="374.462891"/>
     </g>
    </g>
   </g>
  </g>
  <g id="axes_2">
   <g id="patch_8">
    <path d="M 52.94 390.04 
L 560.274083 390.04 
L 560.274083 302.955909 
L 52.94 302.955909 
z
" style="fill: #ffffff"/>
   </g>
   <g id="matplotlib.axis_3">
    <g id="xtick_8">
     <g id="line2d_22">
      <g>
       <use xlink:href="#me320bedd24" x="78.541758" y="390.04" style="stroke: #000000; stroke-width: 0.8"/>
      </g>
     </g>
     <g id="text_14">
      <!-- 2011-01 -->
      <g transform="translate(57.650351 404.638438)scale(0.1 -0.1)">
       <use xlink:href="#DejaVuSans-32"/>
       <use xlink:href="#DejaVuSans-30" x="63.623047"/>
       <use xlink:href="#DejaVuSans-31" x="127.246094"/>
       <use xlink:href="#DejaVuSans-31" x="190.869141"/>
       <use xlink:href="#DejaVuSans-2d" x="254.492188"/>
       <use xlink:href="#DejaVuSans-30" x="290.576172"/>
       <use xlink:href="#DejaVuSans-31" x="354.199219"/>
      </g>
     </g>
    </g>
    <g id="xtick_9">
     <g id="line2d_23">
      <g>
       <use xlink:href="#me320bedd24" x="153.50472" y="390.04" style="stroke: #000000; stroke-width: 0.8"/>
      </g>
     </g>
     <g id="text_15">
      <!-- 2011-03 -->
      <g transform="translate(132.613314 404.638438)scale(0.1 -0.1)">
       <defs>
        <path id="DejaVuSans-33" d="M 2597 2516 
Q 3050 2419 3304 2112 
Q 3559 1806 3559 1356 
Q 3559 666 3084 287 
Q 2609 -91 1734 -91 
Q 1441 -91 1130 -33 
Q 819 25 488 141 
L 488 750 
Q 750 597 1062 519 
Q 1375 441 1716 441 
Q 2309 441 2620 675 
Q 2931 909 2931 1356 
Q 2931 1769 2642 2001 
Q 2353 2234 1838 2234 
L 1294 2234 
L 1294 2753 
L 1863 2753 
Q 2328 2753 2575 2939 
Q 2822 3125 2822 3475 
Q 2822 3834 2567 4026 
Q 2313 4219 1838 4219 
Q 1578 4219 1281 4162 
Q 984 4106 628 3988 
L 628 4550 
Q 988 4650 1302 4700 
Q 1616 4750 1894 4750 
Q 2613 4750 3031 4423 
Q 3450 4097 3450 3541 
Q 3450 3153 3228 2886 
Q 3006 2619 2597 2516 
z
" transform="scale(0.015625)"/>
       </defs>
       <use xlink:href="#DejaVuSans-32"/>
       <use xlink:href="#DejaVuSans-30" x="63.623047"/>
       <use xlink:href="#DejaVuSans-31" x="127.246094"/>
       <use xlink:href="#DejaVuSans-31" x="190.869141"/>
       <use xlink:href="#DejaVuSans-2d" x="254.492188"/>
       <use xlink:href="#DejaVuSans-30" x="290.576172"/>
       <use xlink:href="#DejaVuSans-33" x="354.199219"/>
      </g>
     </g>
    </g>
    <g id="xtick_10">
     <g id="line2d_24">
      <g>
       <use xlink:href="#me320bedd24" x="231.0088" y="390.04" style="stroke: #000000; stroke-width: 0.8"/>
      </g>
     </g>
     <g id="text_16">
      <!-- 2011-05 -->
      <g transform="translate(210.117394 404.638438)scale(0.1 -0.1)">
       <use xlink:href="#DejaVuSans-32"/>
       <use xlink:href="#DejaVuSans-30" x="63.623047"/>
       <use xlink:href="#DejaVuSans-31" x="127.246094"/>
       <use xlink:href="#DejaVuSans-31" x="190.869141"/>
       <use xlink:href="#DejaVuSans-2d" x="254.492188"/>
       <use xlink:href="#DejaVuSans-30" x="290.576172"/>
       <use xlink:href="#DejaVuSans-35" x="354.199219"/>
      </g>
     </g>
    </g>
    <g id="xtick_11">
     <g id="line2d_25">
      <g>
       <use xlink:href="#me320bedd24" x="308.51288" y="390.04" style="stroke: #000000; stroke-width: 0.8"/>
      </g>
     </g>
     <g id="text_17">
      <!-- 2011-07 -->
      <g transform="translate(287.621473 404.638438)scale(0.1 -0.1)">
       <defs>
        <path id="DejaVuSans-37" d="M 525 4666 
L 3525 4666 
L 3525 4397 
L 1831 0 
L 1172 0 
L 2766 4134 
L 525 4134 
L 525 4666 
z
" transform="scale(0.015625)"/>
       </defs>
       <use xlink:href="#DejaVuSans-32"/>
       <use xlink:href="#DejaVuSans-30" x="63.623047"/>
       <use xlink:href="#DejaVuSans-31" x="127.246094"/>
       <use xlink:href="#DejaVuSans-31" x="190.869141"/>
       <use xlink:href="#DejaVuSans-2d" x="254.492188"/>
       <use xlink:href="#DejaVuSans-30" x="290.576172"/>
       <use xlink:href="#DejaVuSans-37" x="354.199219"/>
      </g>
     </g>
    </g>
    <g id="xtick_12">
     <g id="line2d_26">
      <g>
       <use xlink:href="#me320bedd24" x="387.287518" y="390.04" style="stroke: #000000; stroke-width: 0.8"/>
      </g>
     </g>
     <g id="text_18">
      <!-- 2011-09 -->
      <g transform="translate(366.396112 404.638438)scale(0.1 -0.1)">
       <defs>
        <path id="DejaVuSans-39" d="M 703 97 
L 703 672 
Q 941 559 1184 500 
Q 1428 441 1663 441 
Q 2288 441 2617 861 
Q 2947 1281 2994 2138 
Q 2813 1869 2534 1725 
Q 2256 1581 1919 1581 
Q 1219 1581 811 2004 
Q 403 2428 403 3163 
Q 403 3881 828 4315 
Q 1253 4750 1959 4750 
Q 2769 4750 3195 4129 
Q 3622 3509 3622 2328 
Q 3622 1225 3098 567 
Q 2575 -91 1691 -91 
Q 1453 -91 1209 -44 
Q 966 3 703 97 
z
M 1959 2075 
Q 2384 2075 2632 2365 
Q 2881 2656 2881 3163 
Q 2881 3666 2632 3958 
Q 2384 4250 1959 4250 
Q 1534 4250 1286 3958 
Q 1038 3666 1038 3163 
Q 1038 2656 1286 2365 
Q 1534 2075 1959 2075 
z
" transform="scale(0.015625)"/>
       </defs>
       <use xlink:href="#DejaVuSans-32"/>
       <use xlink:href="#DejaVuSans-30" x="63.623047"/>
       <use xlink:href="#DejaVuSans-31" x="127.246094"/>
       <use xlink:href="#DejaVuSans-31" x="190.869141"/>
       <use xlink:href="#DejaVuSans-2d" x="254.492188"/>
       <use xlink:href="#DejaVuSans-30" x="290.576172"/>
       <use xlink:href="#DejaVuSans-39" x="354.199219"/>
      </g>
     </g>
    </g>
    <g id="xtick_13">
     <g id="line2d_27">
      <g>
       <use xlink:href="#me320bedd24" x="464.791598" y="390.04" style="stroke: #000000; stroke-width: 0.8"/>
      </g>
     </g>
     <g id="text_19">
      <!-- 2011-11 -->
      <g transform="translate(443.900192 404.638438)scale(0.1 -0.1)">
       <use xlink:href="#DejaVuSans-32"/>
       <use xlink:href="#DejaVuSans-30" x="63.623047"/>
       <use xlink:href="#DejaVuSans-31" x="127.246094"/>
       <use xlink:href="#DejaVuSans-31" x="190.869141"/>
       <use xlink:href="#DejaVuSans-2d" x="254.492188"/>
       <use xlink:href="#DejaVuSans-31" x="290.576172"/>
       <use xlink:href="#DejaVuSans-31" x="354.199219"/>
      </g>
     </g>
    </g>
    <g id="xtick_14">
     <g id="line2d_28">
      <g>
       <use xlink:href="#me320bedd24" x="542.295678" y="390.04" style="stroke: #000000; stroke-width: 0.8"/>
      </g>
     </g>
     <g id="text_20">
      <!-- 2012-01 -->
      <g transform="translate(521.404272 404.638438)scale(0.1 -0.1)">
       <use xlink:href="#DejaVuSans-32"/>
       <use xlink:href="#DejaVuSans-30" x="63.623047"/>
       <use xlink:href="#DejaVuSans-31" x="127.246094"/>
       <use xlink:href="#DejaVuSans-32" x="190.869141"/>
       <use xlink:href="#DejaVuSans-2d" x="254.492188"/>
       <use xlink:href="#DejaVuSans-30" x="290.576172"/>
       <use xlink:href="#DejaVuSans-31" x="354.199219"/>
      </g>
     </g>
    </g>
    <g id="text_21">
     <!-- Time -->
     <g transform="translate(294.373448 418.316562)scale(0.1 -0.1)">
      <defs>
       <path id="DejaVuSans-54" d="M -19 4666 
L 3928 4666 
L 3928 4134 
L 2272 4134 
L 2272 0 
L 1638 0 
L 1638 4134 
L -19 4134 
L -19 4666 
z
" transform="scale(0.015625)"/>
       <path id="DejaVuSans-69" d="M 603 3500 
L 1178 3500 
L 1178 0 
L 603 0 
L 603 3500 
z
M 603 4863 
L 1178 4863 
L 1178 4134 
L 603 4134 
L 603 4863 
z
" transform="scale(0.015625)"/>
      </defs>
      <use xlink:href="#DejaVuSans-54"/>
      <use xlink:href="#DejaVuSans-69" x="57.958984"/>
      <use xlink:href="#DejaVuSans-6d" x="85.742188"/>
      <use xlink:href="#DejaVuSans-65" x="183.154297"/>
     </g>
    </g>
   </g>
   <g id="matplotlib.axis_4">
    <g id="ytick_9">
     <g id="line2d_29">
      <g>
       <use xlink:href="#m625ab305f9" x="52.94" y="369.575845" style="stroke: #000000; stroke-width: 0.8"/>
      </g>
     </g>
     <g id="text_22">
      <!-- −4 -->
      <g transform="translate(31.197813 373.375064)scale(0.1 -0.1)">
       <defs>
        <path id="DejaVuSans-34" d="M 2419 4116 
L 825 1625 
L 2419 1625 
L 2419 4116 
z
M 2253 4666 
L 3047 4666 
L 3047 1625 
L 3713 1625 
L 3713 1100 
L 3047 1100 
L 3047 0 
L 2419 0 
L 2419 1100 
L 313 1100 
L 313 1709 
L 2253 4666 
z
" transform="scale(0.015625)"/>
       </defs>
       <use xlink:href="#DejaVuSans-2212"/>
       <use xlink:href="#DejaVuSans-34" x="83.789062"/>
      </g>
     </g>
    </g>
    <g id="ytick_10">
     <g id="line2d_30">
      <g>
       <use xlink:href="#m625ab305f9" x="52.94" y="338.245061" style="stroke: #000000; stroke-width: 0.8"/>
      </g>
     </g>
     <g id="text_23">
      <!-- −2 -->
      <g transform="translate(31.197813 342.04428)scale(0.1 -0.1)">
       <use xlink:href="#DejaVuSans-2212"/>
       <use xlink:href="#DejaVuSans-32" x="83.789062"/>
      </g>
     </g>
    </g>
    <g id="ytick_11">
     <g id="line2d_31">
      <g>
       <use xlink:href="#m625ab305f9" x="52.94" y="306.914277" style="stroke: #000000; stroke-width: 0.8"/>
      </g>
     </g>
     <g id="text_24">
      <!-- 0 -->
      <g transform="translate(39.5775 310.713496)scale(0.1 -0.1)">
       <use xlink:href="#DejaVuSans-30"/>
      </g>
     </g>
    </g>
    <g id="text_25">
     <!-- DD % -->
     <g transform="translate(25.118125 360.537798)rotate(-90)scale(0.1 -0.1)">
      <defs>
       <path id="DejaVuSans-44" d="M 1259 4147 
L 1259 519 
L 2022 519 
Q 2988 519 3436 956 
Q 3884 1394 3884 2338 
Q 3884 3275 3436 3711 
Q 2988 4147 2022 4147 
L 1259 4147 
z
M 628 4666 
L 1925 4666 
Q 3281 4666 3915 4102 
Q 4550 3538 4550 2338 
Q 4550 1131 3912 565 
Q 3275 0 1925 0 
L 628 0 
L 628 4666 
z
" transform="scale(0.015625)"/>
      </defs>
      <use xlink:href="#DejaVuSans-44"/>
      <use xlink:href="#DejaVuSans-44" x="77.001953"/>
      <use xlink:href="#DejaVuSans-20" x="154.003906"/>
      <use xlink:href="#DejaVuSans-25" x="185.791016"/>
     </g>
    </g>
   </g>
   <g id="line2d_32">
    <path d="M 76.00064 306.914277 
L 82.353434 306.914277 
L 83.623992 307.310006 
L 86.16511 306.914277 
L 89.976786 306.914277 
L 91.247344 307.734686 
L 92.517903 306.914277 
L 93.788462 306.914277 
L 95.05902 312.319224 
L 98.870697 309.567998 
L 100.141255 308.351471 
L 101.411814 312.877317 
L 102.682373 336.790988 
L 103.952931 349.612147 
L 107.764607 344.530946 
L 109.035166 357.980287 
L 110.305725 350.661226 
L 111.576283 341.149526 
L 112.846842 340.96776 
L 116.658518 348.677836 
L 117.929077 353.498128 
L 119.199635 359.621129 
L 121.740753 359.621129 
L 125.552429 357.777198 
L 126.822988 335.777346 
L 128.093546 332.066627 
L 129.364105 332.581195 
L 130.634664 353.756221 
L 134.44634 353.756221 
L 135.716898 370.978673 
L 153.50472 370.978673 
L 154.775279 347.820342 
L 156.045837 347.820342 
L 157.316396 342.061425 
L 161.128072 334.202657 
L 162.398631 335.650152 
L 163.66919 330.945337 
L 164.939748 335.351511 
L 166.210307 339.277085 
L 170.021983 374.20337 
L 171.292542 382.350647 
L 175.104218 382.350647 
L 178.915894 367.348057 
L 180.186452 360.695036 
L 183.998128 360.695036 
L 187.809805 358.797741 
L 189.080363 353.522662 
L 190.350922 343.28507 
L 191.621481 329.462219 
L 192.892039 325.736225 
L 196.703715 321.778301 
L 197.974274 313.31032 
L 199.244833 309.149959 
L 200.515391 311.612586 
L 201.78595 320.100421 
L 205.597626 320.226632 
L 206.868185 325.907606 
L 208.138744 329.122755 
L 209.409302 330.702501 
L 210.679861 326.423676 
L 214.491537 315.998659 
L 215.762096 338.785616 
L 218.303213 316.52471 
L 224.656006 310.983056 
L 225.926565 310.491644 
L 227.197124 306.914277 
L 228.467682 308.016183 
L 232.279359 306.914277 
L 234.820476 306.914277 
L 236.091035 321.863339 
L 237.361593 322.214811 
L 241.173269 316.172917 
L 242.443828 315.552539 
L 246.255504 315.552539 
L 250.06718 318.372153 
L 307.242321 318.372153 
L 308.51288 314.354603 
L 312.324556 325.349068 
L 313.595114 326.851693 
L 314.865673 317.261901 
L 316.136232 322.252891 
L 317.406791 309.206539 
L 321.218467 338.555553 
L 322.489025 355.945154 
L 323.759584 348.122001 
L 325.030143 338.879173 
L 326.300701 355.73668 
L 374.581931 355.73668 
L 375.85249 335.019191 
L 377.123049 321.03623 
L 378.393607 315.163868 
L 379.664166 331.696606 
L 383.475842 330.387641 
L 384.746401 322.740834 
L 386.01696 306.914277 
L 387.287518 306.914277 
L 388.558077 314.280338 
L 392.369753 347.378603 
L 393.640312 383.722155 
L 394.91087 361.742441 
L 396.181429 343.086549 
L 397.451988 346.217109 
L 412.698692 346.217109 
L 413.969251 379.397083 
L 422.863161 379.397083 
L 424.13372 346.585444 
L 427.945396 364.958567 
L 436.839307 364.958567 
L 438.109866 331.580953 
L 439.380424 333.967063 
L 440.650983 324.670247 
L 441.921542 342.230546 
L 445.733218 308.194044 
L 447.003777 329.578656 
L 448.274335 313.424644 
L 449.544894 333.145918 
L 450.815453 329.834692 
L 454.627129 306.914277 
L 455.897687 306.914277 
L 457.168246 309.96356 
L 458.438805 306.914277 
L 459.709363 306.914277 
L 463.521039 310.974784 
L 464.791598 358.298409 
L 466.062157 379.668935 
L 467.332716 367.717145 
L 468.603274 321.807047 
L 472.41495 322.923263 
L 473.685509 336.269828 
L 474.956068 332.097858 
L 476.226626 385.315563 
L 477.497185 360.519401 
L 481.308861 315.516708 
L 482.57942 342.336749 
L 485.120537 342.336749 
L 486.391096 358.366468 
L 510.531711 358.366468 
L 511.80227 368.439875 
L 513.072828 368.439875 
L 516.884504 370.723883 
L 518.155063 386.081632 
L 519.425622 369.083388 
L 520.69618 369.083388 
L 521.966739 368.268926 
L 530.86065 368.268926 
L 535.942885 368.922858 
L 537.213443 361.549521 
L 537.213443 361.549521 
" clip-path="url(#pee82bdc083)" style="fill: none; stroke: #0000ff; stroke-width: 1.5; stroke-linecap: square"/>
   </g>
   <g id="patch_9">
    <path d="M 52.94 390.04 
L 52.94 302.955909 
" style="fill: none; stroke: #000000; stroke-width: 0.8; stroke-linejoin: miter; stroke-linecap: square"/>
   </g>
   <g id="patch_10">
    <path d="M 560.274083 390.04 
L 560.274083 302.955909 
" style="fill: none; stroke: #000000; stroke-width: 0.8; stroke-linejoin: miter; stroke-linecap: square"/>
   </g>
   <g id="patch_11">
    <path d="M 52.94 390.04 
L 560.274083 390.04 
" style="fill: none; stroke: #000000; stroke-width: 0.8; stroke-linejoin: miter; stroke-linecap: square"/>
   </g>
   <g id="patch_12">
    <path d="M 52.94 302.955909 
L 560.274083 302.955909 
" style="fill: none; stroke: #000000; stroke-width: 0.8; stroke-linejoin: miter; stroke-linecap: square"/>
   </g>
  </g>
 </g>
 <defs>
  <clipPath id="p66f23509d1">
   <rect x="52.94" y="26.88" width="507.334083" height="261.252273"/>
  </clipPath>
  <clipPath id="pee82bdc083">
   <rect x="52.94" y="302.955909" width="507.334083" height="87.084091"/>
  </clipPath>
 </defs>
</svg>
