<?xml version="1.0" encoding="utf-8" standalone="no"?>
<!DOCTYPE svg PUBLIC "-//W3C//DTD SVG 1.1//EN"
  "http://www.w3.org/Graphics/SVG/1.1/DTD/svg11.dtd">
<svg xmlns:xlink="http://www.w3.org/1999/xlink" width="720pt" height="504pt" viewBox="0 0 720 504" xmlns="http://www.w3.org/2000/svg" version="1.1">
 <metadata>
  <rdf:RDF xmlns:dc="http://purl.org/dc/elements/1.1/" xmlns:cc="http://creativecommons.org/ns#" xmlns:rdf="http://www.w3.org/1999/02/22-rdf-syntax-ns#">
   <cc:Work>
    <dc:type rdf:resource="http://purl.org/dc/dcmitype/StillImage"/>
    <dc:date>2023-01-01T22:56:33.821692</dc:date>
    <dc:format>image/svg+xml</dc:format>
    <dc:creator>
     <cc:Agent>
      <dc:title>Matplotlib v3.5.0, https://matplotlib.org/</dc:title>
     </cc:Agent>
    </dc:creator>
   </cc:Work>
  </rdf:RDF>
 </metadata>
 <defs>
  <style type="text/css">*{stroke-linejoin: round; stroke-linecap: butt}</style>
 </defs>
 <g id="figure_1">
  <g id="patch_1">
   <path d="M 0 504 
L 720 504 
L 720 0 
L 0 0 
z
" style="fill: #ffffff"/>
  </g>
  <g id="axes_1">
   <g id="patch_2">
    <path d="M 90 448.56 
L 648 448.56 
L 648 60.48 
L 90 60.48 
z
" style="fill: #ffffff"/>
   </g>
   <g id="matplotlib.axis_1">
    <g id="xtick_1">
     <g id="line2d_1">
      <defs>
       <path id="m6ad6e9ee07" d="M 0 0 
L 0 3.5 
" style="stroke: #000000; stroke-width: 0.8"/>
      </defs>
      <g>
       <use xlink:href="#m6ad6e9ee07" x="118.270643" y="448.56" style="stroke: #000000; stroke-width: 0.8"/>
      </g>
     </g>
     <g id="text_1">
      <!-- 2009-01 -->
      <g transform="translate(97.379237 463.158437)scale(0.1 -0.1)">
       <defs>
        <path id="DejaVuSans-32" d="M 1228 531 
L 3431 531 
L 3431 0 
L 469 0 
L 469 531 
Q 828 903 1448 1529 
Q 2069 2156 2228 2338 
Q 2531 2678 2651 2914 
Q 2772 3150 2772 3378 
Q 2772 3750 2511 3984 
Q 2250 4219 1831 4219 
Q 1534 4219 1204 4116 
Q 875 4013 500 3803 
L 500 4441 
Q 881 4594 1212 4672 
Q 1544 4750 1819 4750 
Q 2544 4750 2975 4387 
Q 3406 4025 3406 3419 
Q 3406 3131 3298 2873 
Q 3191 2616 2906 2266 
Q 2828 2175 2409 1742 
Q 1991 1309 1228 531 
z
" transform="scale(0.015625)"/>
        <path id="DejaVuSans-30" d="M 2034 4250 
Q 1547 4250 1301 3770 
Q 1056 3291 1056 2328 
Q 1056 1369 1301 889 
Q 1547 409 2034 409 
Q 2525 409 2770 889 
Q 3016 1369 3016 2328 
Q 3016 3291 2770 3770 
Q 2525 4250 2034 4250 
z
M 2034 4750 
Q 2819 4750 3233 4129 
Q 3647 3509 3647 2328 
Q 3647 1150 3233 529 
Q 2819 -91 2034 -91 
Q 1250 -91 836 529 
Q 422 1150 422 2328 
Q 422 3509 836 4129 
Q 1250 4750 2034 4750 
z
" transform="scale(0.015625)"/>
        <path id="DejaVuSans-39" d="M 703 97 
L 703 672 
Q 941 559 1184 500 
Q 1428 441 1663 441 
Q 2288 441 2617 861 
Q 2947 1281 2994 2138 
Q 2813 1869 2534 1725 
Q 2256 1581 1919 1581 
Q 1219 1581 811 2004 
Q 403 2428 403 3163 
Q 403 3881 828 4315 
Q 1253 4750 1959 4750 
Q 2769 4750 3195 4129 
Q 3622 3509 3622 2328 
Q 3622 1225 3098 567 
Q 2575 -91 1691 -91 
Q 1453 -91 1209 -44 
Q 966 3 703 97 
z
M 1959 2075 
Q 2384 2075 2632 2365 
Q 2881 2656 2881 3163 
Q 2881 3666 2632 3958 
Q 2384 4250 1959 4250 
Q 1534 4250 1286 3958 
Q 1038 3666 1038 3163 
Q 1038 2656 1286 2365 
Q 1534 2075 1959 2075 
z
" transform="scale(0.015625)"/>
        <path id="DejaVuSans-2d" d="M 313 2009 
L 1997 2009 
L 1997 1497 
L 313 1497 
L 313 2009 
z
" transform="scale(0.015625)"/>
        <path id="DejaVuSans-31" d="M 794 531 
L 1825 531 
L 1825 4091 
L 703 3866 
L 703 4441 
L 1819 4666 
L 2450 4666 
L 2450 531 
L 3481 531 
L 3481 0 
L 794 0 
L 794 531 
z
" transform="scale(0.015625)"/>
       </defs>
       <use xlink:href="#DejaVuSans-32"/>
       <use xlink:href="#DejaVuSans-30" x="63.623047"/>
       <use xlink:href="#DejaVuSans-30" x="127.246094"/>
       <use xlink:href="#DejaVuSans-39" x="190.869141"/>
       <use xlink:href="#DejaVuSans-2d" x="254.492188"/>
       <use xlink:href="#DejaVuSans-30" x="290.576172"/>
       <use xlink:href="#DejaVuSans-31" x="354.199219"/>
      </g>
     </g>
    </g>
    <g id="xtick_2">
     <g id="line2d_2">
      <g>
       <use xlink:href="#m6ad6e9ee07" x="204.027351" y="448.56" style="stroke: #000000; stroke-width: 0.8"/>
      </g>
     </g>
     <g id="text_2">
      <!-- 2009-03 -->
      <g transform="translate(183.135945 463.158437)scale(0.1 -0.1)">
       <defs>
        <path id="DejaVuSans-33" d="M 2597 2516 
Q 3050 2419 3304 2112 
Q 3559 1806 3559 1356 
Q 3559 666 3084 287 
Q 2609 -91 1734 -91 
Q 1441 -91 1130 -33 
Q 819 25 488 141 
L 488 750 
Q 750 597 1062 519 
Q 1375 441 1716 441 
Q 2309 441 2620 675 
Q 2931 909 2931 1356 
Q 2931 1769 2642 2001 
Q 2353 2234 1838 2234 
L 1294 2234 
L 1294 2753 
L 1863 2753 
Q 2328 2753 2575 2939 
Q 2822 3125 2822 3475 
Q 2822 3834 2567 4026 
Q 2313 4219 1838 4219 
Q 1578 4219 1281 4162 
Q 984 4106 628 3988 
L 628 4550 
Q 988 4650 1302 4700 
Q 1616 4750 1894 4750 
Q 2613 4750 3031 4423 
Q 3450 4097 3450 3541 
Q 3450 3153 3228 2886 
Q 3006 2619 2597 2516 
z
" transform="scale(0.015625)"/>
       </defs>
       <use xlink:href="#DejaVuSans-32"/>
       <use xlink:href="#DejaVuSans-30" x="63.623047"/>
       <use xlink:href="#DejaVuSans-30" x="127.246094"/>
       <use xlink:href="#DejaVuSans-39" x="190.869141"/>
       <use xlink:href="#DejaVuSans-2d" x="254.492188"/>
       <use xlink:href="#DejaVuSans-30" x="290.576172"/>
       <use xlink:href="#DejaVuSans-33" x="354.199219"/>
      </g>
     </g>
    </g>
    <g id="xtick_3">
     <g id="line2d_3">
      <g>
       <use xlink:href="#m6ad6e9ee07" x="292.691065" y="448.56" style="stroke: #000000; stroke-width: 0.8"/>
      </g>
     </g>
     <g id="text_3">
      <!-- 2009-05 -->
      <g transform="translate(271.799659 463.158437)scale(0.1 -0.1)">
       <defs>
        <path id="DejaVuSans-35" d="M 691 4666 
L 3169 4666 
L 3169 4134 
L 1269 4134 
L 1269 2991 
Q 1406 3038 1543 3061 
Q 1681 3084 1819 3084 
Q 2600 3084 3056 2656 
Q 3513 2228 3513 1497 
Q 3513 744 3044 326 
Q 2575 -91 1722 -91 
Q 1428 -91 1123 -41 
Q 819 9 494 109 
L 494 744 
Q 775 591 1075 516 
Q 1375 441 1709 441 
Q 2250 441 2565 725 
Q 2881 1009 2881 1497 
Q 2881 1984 2565 2268 
Q 2250 2553 1709 2553 
Q 1456 2553 1204 2497 
Q 953 2441 691 2322 
L 691 4666 
z
" transform="scale(0.015625)"/>
       </defs>
       <use xlink:href="#DejaVuSans-32"/>
       <use xlink:href="#DejaVuSans-30" x="63.623047"/>
       <use xlink:href="#DejaVuSans-30" x="127.246094"/>
       <use xlink:href="#DejaVuSans-39" x="190.869141"/>
       <use xlink:href="#DejaVuSans-2d" x="254.492188"/>
       <use xlink:href="#DejaVuSans-30" x="290.576172"/>
       <use xlink:href="#DejaVuSans-35" x="354.199219"/>
      </g>
     </g>
    </g>
    <g id="xtick_4">
     <g id="line2d_4">
      <g>
       <use xlink:href="#m6ad6e9ee07" x="381.35478" y="448.56" style="stroke: #000000; stroke-width: 0.8"/>
      </g>
     </g>
     <g id="text_4">
      <!-- 2009-07 -->
      <g transform="translate(360.463374 463.158437)scale(0.1 -0.1)">
       <defs>
        <path id="DejaVuSans-37" d="M 525 4666 
L 3525 4666 
L 3525 4397 
L 1831 0 
L 1172 0 
L 2766 4134 
L 525 4134 
L 525 4666 
z
" transform="scale(0.015625)"/>
       </defs>
       <use xlink:href="#DejaVuSans-32"/>
       <use xlink:href="#DejaVuSans-30" x="63.623047"/>
       <use xlink:href="#DejaVuSans-30" x="127.246094"/>
       <use xlink:href="#DejaVuSans-39" x="190.869141"/>
       <use xlink:href="#DejaVuSans-2d" x="254.492188"/>
       <use xlink:href="#DejaVuSans-30" x="290.576172"/>
       <use xlink:href="#DejaVuSans-37" x="354.199219"/>
      </g>
     </g>
    </g>
    <g id="xtick_5">
     <g id="line2d_5">
      <g>
       <use xlink:href="#m6ad6e9ee07" x="471.471998" y="448.56" style="stroke: #000000; stroke-width: 0.8"/>
      </g>
     </g>
     <g id="text_5">
      <!-- 2009-09 -->
      <g transform="translate(450.580592 463.158437)scale(0.1 -0.1)">
       <use xlink:href="#DejaVuSans-32"/>
       <use xlink:href="#DejaVuSans-30" x="63.623047"/>
       <use xlink:href="#DejaVuSans-30" x="127.246094"/>
       <use xlink:href="#DejaVuSans-39" x="190.869141"/>
       <use xlink:href="#DejaVuSans-2d" x="254.492188"/>
       <use xlink:href="#DejaVuSans-30" x="290.576172"/>
       <use xlink:href="#DejaVuSans-39" x="354.199219"/>
      </g>
     </g>
    </g>
    <g id="xtick_6">
     <g id="line2d_6">
      <g>
       <use xlink:href="#m6ad6e9ee07" x="560.135712" y="448.56" style="stroke: #000000; stroke-width: 0.8"/>
      </g>
     </g>
     <g id="text_6">
      <!-- 2009-11 -->
      <g transform="translate(539.244306 463.158437)scale(0.1 -0.1)">
       <use xlink:href="#DejaVuSans-32"/>
       <use xlink:href="#DejaVuSans-30" x="63.623047"/>
       <use xlink:href="#DejaVuSans-30" x="127.246094"/>
       <use xlink:href="#DejaVuSans-39" x="190.869141"/>
       <use xlink:href="#DejaVuSans-2d" x="254.492188"/>
       <use xlink:href="#DejaVuSans-31" x="290.576172"/>
       <use xlink:href="#DejaVuSans-31" x="354.199219"/>
      </g>
     </g>
    </g>
    <g id="text_7">
     <!-- Time -->
     <g transform="translate(356.766406 476.836563)scale(0.1 -0.1)">
      <defs>
       <path id="DejaVuSans-54" d="M -19 4666 
L 3928 4666 
L 3928 4134 
L 2272 4134 
L 2272 0 
L 1638 0 
L 1638 4134 
L -19 4134 
L -19 4666 
z
" transform="scale(0.015625)"/>
       <path id="DejaVuSans-69" d="M 603 3500 
L 1178 3500 
L 1178 0 
L 603 0 
L 603 3500 
z
M 603 4863 
L 1178 4863 
L 1178 4134 
L 603 4134 
L 603 4863 
z
" transform="scale(0.015625)"/>
       <path id="DejaVuSans-6d" d="M 3328 2828 
Q 3544 3216 3844 3400 
Q 4144 3584 4550 3584 
Q 5097 3584 5394 3201 
Q 5691 2819 5691 2113 
L 5691 0 
L 5113 0 
L 5113 2094 
Q 5113 2597 4934 2840 
Q 4756 3084 4391 3084 
Q 3944 3084 3684 2787 
Q 3425 2491 3425 1978 
L 3425 0 
L 2847 0 
L 2847 2094 
Q 2847 2600 2669 2842 
Q 2491 3084 2119 3084 
Q 1678 3084 1418 2786 
Q 1159 2488 1159 1978 
L 1159 0 
L 581 0 
L 581 3500 
L 1159 3500 
L 1159 2956 
Q 1356 3278 1631 3431 
Q 1906 3584 2284 3584 
Q 2666 3584 2933 3390 
Q 3200 3197 3328 2828 
z
" transform="scale(0.015625)"/>
       <path id="DejaVuSans-65" d="M 3597 1894 
L 3597 1613 
L 953 1613 
Q 991 1019 1311 708 
Q 1631 397 2203 397 
Q 2534 397 2845 478 
Q 3156 559 3463 722 
L 3463 178 
Q 3153 47 2828 -22 
Q 2503 -91 2169 -91 
Q 1331 -91 842 396 
Q 353 884 353 1716 
Q 353 2575 817 3079 
Q 1281 3584 2069 3584 
Q 2775 3584 3186 3129 
Q 3597 2675 3597 1894 
z
M 3022 2063 
Q 3016 2534 2758 2815 
Q 2500 3097 2075 3097 
Q 1594 3097 1305 2825 
Q 1016 2553 972 2059 
L 3022 2063 
z
" transform="scale(0.015625)"/>
      </defs>
      <use xlink:href="#DejaVuSans-54"/>
      <use xlink:href="#DejaVuSans-69" x="57.958984"/>
      <use xlink:href="#DejaVuSans-6d" x="85.742188"/>
      <use xlink:href="#DejaVuSans-65" x="183.154297"/>
     </g>
    </g>
   </g>
   <g id="matplotlib.axis_2">
    <g id="ytick_1">
     <g id="line2d_7">
      <defs>
       <path id="me4c457164c" d="M 0 0 
L -3.5 0 
" style="stroke: #000000; stroke-width: 0.8"/>
      </defs>
      <g>
       <use xlink:href="#me4c457164c" x="90" y="398.869238" style="stroke: #000000; stroke-width: 0.8"/>
      </g>
     </g>
     <g id="text_8">
      <!-- 0 -->
      <g transform="translate(76.6375 402.668457)scale(0.1 -0.1)">
       <use xlink:href="#DejaVuSans-30"/>
      </g>
     </g>
    </g>
    <g id="ytick_2">
     <g id="line2d_8">
      <g>
       <use xlink:href="#me4c457164c" x="90" y="333.11678" style="stroke: #000000; stroke-width: 0.8"/>
      </g>
     </g>
     <g id="text_9">
      <!-- 20 -->
      <g transform="translate(70.275 336.915999)scale(0.1 -0.1)">
       <use xlink:href="#DejaVuSans-32"/>
       <use xlink:href="#DejaVuSans-30" x="63.623047"/>
      </g>
     </g>
    </g>
    <g id="ytick_3">
     <g id="line2d_9">
      <g>
       <use xlink:href="#me4c457164c" x="90" y="267.364322" style="stroke: #000000; stroke-width: 0.8"/>
      </g>
     </g>
     <g id="text_10">
      <!-- 40 -->
      <g transform="translate(70.275 271.163541)scale(0.1 -0.1)">
       <defs>
        <path id="DejaVuSans-34" d="M 2419 4116 
L 825 1625 
L 2419 1625 
L 2419 4116 
z
M 2253 4666 
L 3047 4666 
L 3047 1625 
L 3713 1625 
L 3713 1100 
L 3047 1100 
L 3047 0 
L 2419 0 
L 2419 1100 
L 313 1100 
L 313 1709 
L 2253 4666 
z
" transform="scale(0.015625)"/>
       </defs>
       <use xlink:href="#DejaVuSans-34"/>
       <use xlink:href="#DejaVuSans-30" x="63.623047"/>
      </g>
     </g>
    </g>
    <g id="ytick_4">
     <g id="line2d_10">
      <g>
       <use xlink:href="#me4c457164c" x="90" y="201.611864" style="stroke: #000000; stroke-width: 0.8"/>
      </g>
     </g>
     <g id="text_11">
      <!-- 60 -->
      <g transform="translate(70.275 205.411083)scale(0.1 -0.1)">
       <defs>
        <path id="DejaVuSans-36" d="M 2113 2584 
Q 1688 2584 1439 2293 
Q 1191 2003 1191 1497 
Q 1191 994 1439 701 
Q 1688 409 2113 409 
Q 2538 409 2786 701 
Q 3034 994 3034 1497 
Q 3034 2003 2786 2293 
Q 2538 2584 2113 2584 
z
M 3366 4563 
L 3366 3988 
Q 3128 4100 2886 4159 
Q 2644 4219 2406 4219 
Q 1781 4219 1451 3797 
Q 1122 3375 1075 2522 
Q 1259 2794 1537 2939 
Q 1816 3084 2150 3084 
Q 2853 3084 3261 2657 
Q 3669 2231 3669 1497 
Q 3669 778 3244 343 
Q 2819 -91 2113 -91 
Q 1303 -91 875 529 
Q 447 1150 447 2328 
Q 447 3434 972 4092 
Q 1497 4750 2381 4750 
Q 2619 4750 2861 4703 
Q 3103 4656 3366 4563 
z
" transform="scale(0.015625)"/>
       </defs>
       <use xlink:href="#DejaVuSans-36"/>
       <use xlink:href="#DejaVuSans-30" x="63.623047"/>
      </g>
     </g>
    </g>
    <g id="ytick_5">
     <g id="line2d_11">
      <g>
       <use xlink:href="#me4c457164c" x="90" y="135.859406" style="stroke: #000000; stroke-width: 0.8"/>
      </g>
     </g>
     <g id="text_12">
      <!-- 80 -->
      <g transform="translate(70.275 139.658625)scale(0.1 -0.1)">
       <defs>
        <path id="DejaVuSans-38" d="M 2034 2216 
Q 1584 2216 1326 1975 
Q 1069 1734 1069 1313 
Q 1069 891 1326 650 
Q 1584 409 2034 409 
Q 2484 409 2743 651 
Q 3003 894 3003 1313 
Q 3003 1734 2745 1975 
Q 2488 2216 2034 2216 
z
M 1403 2484 
Q 997 2584 770 2862 
Q 544 3141 544 3541 
Q 544 4100 942 4425 
Q 1341 4750 2034 4750 
Q 2731 4750 3128 4425 
Q 3525 4100 3525 3541 
Q 3525 3141 3298 2862 
Q 3072 2584 2669 2484 
Q 3125 2378 3379 2068 
Q 3634 1759 3634 1313 
Q 3634 634 3220 271 
Q 2806 -91 2034 -91 
Q 1263 -91 848 271 
Q 434 634 434 1313 
Q 434 1759 690 2068 
Q 947 2378 1403 2484 
z
M 1172 3481 
Q 1172 3119 1398 2916 
Q 1625 2713 2034 2713 
Q 2441 2713 2670 2916 
Q 2900 3119 2900 3481 
Q 2900 3844 2670 4047 
Q 2441 4250 2034 4250 
Q 1625 4250 1398 4047 
Q 1172 3844 1172 3481 
z
" transform="scale(0.015625)"/>
       </defs>
       <use xlink:href="#DejaVuSans-38"/>
       <use xlink:href="#DejaVuSans-30" x="63.623047"/>
      </g>
     </g>
    </g>
    <g id="ytick_6">
     <g id="line2d_12">
      <g>
       <use xlink:href="#me4c457164c" x="90" y="70.106948" style="stroke: #000000; stroke-width: 0.8"/>
      </g>
     </g>
     <g id="text_13">
      <!-- 100 -->
      <g transform="translate(63.9125 73.906167)scale(0.1 -0.1)">
       <use xlink:href="#DejaVuSans-31"/>
       <use xlink:href="#DejaVuSans-30" x="63.623047"/>
       <use xlink:href="#DejaVuSans-30" x="127.246094"/>
      </g>
     </g>
    </g>
    <g id="text_14">
     <!-- Return [%] -->
     <g transform="translate(57.832812 281.352813)rotate(-90)scale(0.1 -0.1)">
      <defs>
       <path id="DejaVuSans-52" d="M 2841 2188 
Q 3044 2119 3236 1894 
Q 3428 1669 3622 1275 
L 4263 0 
L 3584 0 
L 2988 1197 
Q 2756 1666 2539 1819 
Q 2322 1972 1947 1972 
L 1259 1972 
L 1259 0 
L 628 0 
L 628 4666 
L 2053 4666 
Q 2853 4666 3247 4331 
Q 3641 3997 3641 3322 
Q 3641 2881 3436 2590 
Q 3231 2300 2841 2188 
z
M 1259 4147 
L 1259 2491 
L 2053 2491 
Q 2509 2491 2742 2702 
Q 2975 2913 2975 3322 
Q 2975 3731 2742 3939 
Q 2509 4147 2053 4147 
L 1259 4147 
z
" transform="scale(0.015625)"/>
       <path id="DejaVuSans-74" d="M 1172 4494 
L 1172 3500 
L 2356 3500 
L 2356 3053 
L 1172 3053 
L 1172 1153 
Q 1172 725 1289 603 
Q 1406 481 1766 481 
L 2356 481 
L 2356 0 
L 1766 0 
Q 1100 0 847 248 
Q 594 497 594 1153 
L 594 3053 
L 172 3053 
L 172 3500 
L 594 3500 
L 594 4494 
L 1172 4494 
z
" transform="scale(0.015625)"/>
       <path id="DejaVuSans-75" d="M 544 1381 
L 544 3500 
L 1119 3500 
L 1119 1403 
Q 1119 906 1312 657 
Q 1506 409 1894 409 
Q 2359 409 2629 706 
Q 2900 1003 2900 1516 
L 2900 3500 
L 3475 3500 
L 3475 0 
L 2900 0 
L 2900 538 
Q 2691 219 2414 64 
Q 2138 -91 1772 -91 
Q 1169 -91 856 284 
Q 544 659 544 1381 
z
M 1991 3584 
L 1991 3584 
z
" transform="scale(0.015625)"/>
       <path id="DejaVuSans-72" d="M 2631 2963 
Q 2534 3019 2420 3045 
Q 2306 3072 2169 3072 
Q 1681 3072 1420 2755 
Q 1159 2438 1159 1844 
L 1159 0 
L 581 0 
L 581 3500 
L 1159 3500 
L 1159 2956 
Q 1341 3275 1631 3429 
Q 1922 3584 2338 3584 
Q 2397 3584 2469 3576 
Q 2541 3569 2628 3553 
L 2631 2963 
z
" transform="scale(0.015625)"/>
       <path id="DejaVuSans-6e" d="M 3513 2113 
L 3513 0 
L 2938 0 
L 2938 2094 
Q 2938 2591 2744 2837 
Q 2550 3084 2163 3084 
Q 1697 3084 1428 2787 
Q 1159 2491 1159 1978 
L 1159 0 
L 581 0 
L 581 3500 
L 1159 3500 
L 1159 2956 
Q 1366 3272 1645 3428 
Q 1925 3584 2291 3584 
Q 2894 3584 3203 3211 
Q 3513 2838 3513 2113 
z
" transform="scale(0.015625)"/>
       <path id="DejaVuSans-20" transform="scale(0.015625)"/>
       <path id="DejaVuSans-5b" d="M 550 4863 
L 1875 4863 
L 1875 4416 
L 1125 4416 
L 1125 -397 
L 1875 -397 
L 1875 -844 
L 550 -844 
L 550 4863 
z
" transform="scale(0.015625)"/>
       <path id="DejaVuSans-25" d="M 4653 2053 
Q 4381 2053 4226 1822 
Q 4072 1591 4072 1178 
Q 4072 772 4226 539 
Q 4381 306 4653 306 
Q 4919 306 5073 539 
Q 5228 772 5228 1178 
Q 5228 1588 5073 1820 
Q 4919 2053 4653 2053 
z
M 4653 2450 
Q 5147 2450 5437 2106 
Q 5728 1763 5728 1178 
Q 5728 594 5436 251 
Q 5144 -91 4653 -91 
Q 4153 -91 3862 251 
Q 3572 594 3572 1178 
Q 3572 1766 3864 2108 
Q 4156 2450 4653 2450 
z
M 1428 4353 
Q 1159 4353 1004 4120 
Q 850 3888 850 3481 
Q 850 3069 1003 2837 
Q 1156 2606 1428 2606 
Q 1700 2606 1854 2837 
Q 2009 3069 2009 3481 
Q 2009 3884 1853 4118 
Q 1697 4353 1428 4353 
z
M 4250 4750 
L 4750 4750 
L 1831 -91 
L 1331 -91 
L 4250 4750 
z
M 1428 4750 
Q 1922 4750 2215 4408 
Q 2509 4066 2509 3481 
Q 2509 2891 2217 2550 
Q 1925 2209 1428 2209 
Q 931 2209 642 2551 
Q 353 2894 353 3481 
Q 353 4063 643 4406 
Q 934 4750 1428 4750 
z
" transform="scale(0.015625)"/>
       <path id="DejaVuSans-5d" d="M 1947 4863 
L 1947 -844 
L 622 -844 
L 622 -397 
L 1369 -397 
L 1369 4416 
L 622 4416 
L 622 4863 
L 1947 4863 
z
" transform="scale(0.015625)"/>
      </defs>
      <use xlink:href="#DejaVuSans-52"/>
      <use xlink:href="#DejaVuSans-65" x="64.982422"/>
      <use xlink:href="#DejaVuSans-74" x="126.505859"/>
      <use xlink:href="#DejaVuSans-75" x="165.714844"/>
      <use xlink:href="#DejaVuSans-72" x="229.09375"/>
      <use xlink:href="#DejaVuSans-6e" x="268.457031"/>
      <use xlink:href="#DejaVuSans-20" x="331.835938"/>
      <use xlink:href="#DejaVuSans-5b" x="363.623047"/>
      <use xlink:href="#DejaVuSans-25" x="402.636719"/>
      <use xlink:href="#DejaVuSans-5d" x="497.65625"/>
     </g>
    </g>
   </g>
   <g id="line2d_13">
    <path d="M 115.363636 398.869238 
L 119.724147 383.258328 
L 124.084657 383.268256 
L 126.991664 379.471007 
L 128.445168 382.1812 
L 129.898672 387.204488 
L 134.259182 396.069698 
L 135.712686 401.703524 
L 137.166189 418.595075 
L 138.619693 419.72184 
L 140.073196 415.567204 
L 144.433707 418.987209 
L 145.88721 430.92 
L 147.340714 422.30794 
L 148.794217 425.474795 
L 150.247721 427.763072 
L 154.608231 418.267469 
L 156.061735 417.870371 
L 157.515238 410.305657 
L 158.968742 421.816531 
L 160.422245 421.181175 
L 164.782756 428.775672 
L 167.689763 407.615319 
L 169.143266 408.364841 
L 170.59677 394.794021 
L 174.957281 385.918884 
L 176.410784 391.84557 
L 177.864288 391.910098 
L 179.317791 393.642437 
L 180.771295 391.239995 
L 185.131805 389.29918 
L 186.585309 406.061673 
L 188.038812 403.381263 
L 189.492316 398.809673 
L 190.945819 411.86923 
L 195.30633 420.312523 
L 196.759833 420.898243 
L 198.213337 421.171247 
L 199.66684 407.997525 
L 201.120344 409.759647 
L 205.480854 420.243031 
L 206.934358 427.668761 
L 208.387861 414.80279 
L 209.841365 425.350702 
L 211.294868 426.110152 
L 215.655379 422.089536 
L 217.108883 404.686722 
L 218.562386 396.759656 
L 220.01589 396.228537 
L 221.469393 400.368283 
L 225.829904 392.138429 
L 227.283407 398.015478 
L 228.736911 398.655798 
L 230.190414 390.306815 
L 231.643918 399.236554 
L 236.004428 396.064734 
L 237.457932 402.944455 
L 238.911435 397.166681 
L 240.364939 396.536288 
L 241.818442 402.214788 
L 246.178953 413.383165 
L 247.632456 403.480537 
L 249.08596 390.341561 
L 250.539463 373.320954 
L 251.992967 374.631377 
L 256.353477 375.420609 
L 257.806981 379.088801 
L 259.260485 376.537447 
L 260.713988 371.404957 
L 267.981506 358.25109 
L 269.435009 365.46338 
L 270.888513 357.561132 
L 272.342016 346.541666 
L 276.702527 364.733713 
L 278.15603 359.601223 
L 279.609534 346.362972 
L 281.063037 344.03995 
L 282.516541 340.878058 
L 286.877051 339.145719 
L 288.330555 354.716919 
L 289.784058 346.020475 
L 291.237562 348.457664 
L 298.505079 338.957097 
L 299.958583 330.821554 
L 301.412086 334.271342 
L 302.86559 329.526023 
L 307.226101 338.778403 
L 308.679604 345.752434 
L 310.133108 356.295383 
L 311.586611 351.550063 
L 313.040115 348.020856 
L 317.400625 340.515706 
L 318.854129 335.899443 
L 320.307632 338.6146 
L 323.214639 345.722652 
L 327.57515 345.305699 
L 329.028653 343.588251 
L 330.482157 343.598178 
L 331.93566 344.521431 
L 333.389164 342.198408 
L 337.749674 329.754354 
L 339.203178 332.891427 
L 340.656681 345.122041 
L 342.110185 346.134641 
L 343.563688 345.18657 
L 347.924199 345.265989 
L 349.377703 345.588631 
L 352.28471 327.62988 
L 353.738213 330.707389 
L 358.098724 338.232393 
L 359.552227 335.884552 
L 361.005731 343.444303 
L 362.459234 341.409176 
L 368.273248 353.108672 
L 369.726752 353.396568 
L 371.180255 338.733729 
L 372.633759 340.897913 
L 374.087262 337.075846 
L 378.447773 328.384366 
L 379.901276 332.618422 
L 381.35478 323.733357 
L 382.808283 334.28127 
L 384.261787 335.274014 
L 388.622297 338.803222 
L 390.075801 338.197647 
L 391.529305 341.711964 
L 392.982808 341.463777 
L 394.436312 343.379775 
L 398.796822 337.487835 
L 400.250326 333.362981 
L 401.703829 320.144585 
L 403.157333 318.953292 
L 404.610836 309.611564 
L 407.517843 309.611564 
L 408.971347 308.951389 
L 410.42485 304.59324 
L 411.878354 304.275562 
L 413.331857 294.849451 
L 414.785361 295.30115 
L 416.238864 295.30115 
L 419.145871 303.421801 
L 420.599375 304.469147 
L 422.052878 301.719244 
L 423.506382 291.220969 
L 424.959885 289.806308 
L 429.320396 283.308794 
L 430.773899 291.096876 
L 432.227403 293.573774 
L 433.680906 293.86167 
L 435.13441 284.773093 
L 439.494921 289.265262 
L 440.948424 298.750938 
L 443.855431 286.421049 
L 445.308935 292.442045 
L 449.669445 301.669607 
L 451.122949 294.248841 
L 452.576452 296.169802 
L 454.029956 287.617306 
L 455.483459 274.026632 
L 459.84397 270.159891 
L 461.297473 272.924685 
L 462.750977 279.511546 
L 464.20448 279.928499 
L 465.657984 271.013652 
L 470.018494 278.493983 
L 472.925501 294.124748 
L 474.379005 291.18126 
L 475.832508 285.170191 
L 480.193019 279.099557 
L 481.646523 278.07703 
L 483.100026 270.234347 
L 484.55353 272.69139 
L 486.007033 271.867412 
L 491.821047 274.408838 
L 494.728054 269.072836 
L 496.181558 270.854812 
L 500.542068 274.418766 
L 501.995572 269.857104 
L 503.449075 269.484825 
L 504.902579 279.968208 
L 506.356082 280.960953 
L 510.716593 274.17058 
L 512.170096 279.496655 
L 513.6236 282.504671 
L 515.077103 291.652813 
L 516.530607 296.859759 
L 520.891117 292.595921 
L 522.344621 284.926968 
L 523.798125 288.12857 
L 525.251628 283.204556 
L 526.705132 281.045336 
L 531.065642 275.540567 
L 532.519146 279.392417 
L 533.972649 266.70514 
L 535.426153 267.469553 
L 536.879656 267.117129 
L 541.240167 260.212589 
L 542.69367 259.716217 
L 544.147174 260.932329 
L 545.600677 267.261077 
L 547.054181 264.868562 
L 551.414691 271.842593 
L 552.868195 266.233586 
L 554.321698 268.849468 
L 555.775202 261.130878 
L 557.228705 258.723472 
L 561.589216 264.982728 
L 563.042719 271.33133 
L 564.496223 262.322172 
L 565.949726 258.94684 
L 567.40323 260.3069 
L 571.763741 250.885753 
L 573.217244 252.116757 
L 574.670748 248.85559 
L 576.124251 245.971667 
L 577.577755 247.421074 
L 581.938265 243.663536 
L 583.391769 248.870482 
L 584.845272 248.195415 
L 586.298776 255.363032 
L 587.752279 255.298503 
L 592.11279 243.435204 
L 593.566293 248.364182 
L 595.019797 245.445512 
L 596.4733 261.20037 
L 597.926804 254.821986 
L 602.287314 262.93271 
L 603.740818 254.151883 
L 605.194321 252.553564 
L 606.647825 253.77464 
L 608.101328 247.654369 
L 612.461839 248.066358 
L 613.915343 254.350432 
L 615.368846 258.584488 
L 618.275853 256.157227 
L 622.636364 252.975481 
L 622.636364 252.975481 
" clip-path="url(#pbf6d3658db)" style="fill: none; stroke: #1f77b4; stroke-width: 1.5; stroke-linecap: square"/>
   </g>
   <g id="line2d_14">
    <path d="M 115.363636 398.869238 
L 119.724147 398.869238 
L 124.084657 394.543681 
L 126.991664 391.969716 
L 128.445168 384.905911 
L 129.898672 384.837615 
L 134.259182 385.853909 
L 135.712686 384.804363 
L 137.166189 386.587278 
L 138.619693 388.114006 
L 140.073196 384.095355 
L 144.433707 387.691045 
L 145.88721 392.24244 
L 147.340714 398.332862 
L 148.794217 395.822099 
L 150.247721 397.440317 
L 154.608231 403.760367 
L 156.061735 396.105688 
L 157.515238 383.707022 
L 158.968742 387.567552 
L 160.422245 393.026481 
L 164.782756 390.66508 
L 166.236259 388.593878 
L 167.689763 384.394284 
L 169.143266 377.947576 
L 170.59677 377.050913 
L 176.410784 362.289893 
L 177.864288 360.596235 
L 179.317791 359.102515 
L 180.771295 361.266569 
L 185.131805 356.230769 
L 186.585309 346.73112 
L 188.038812 352.149903 
L 189.492316 346.154501 
L 190.945819 351.813707 
L 195.30633 355.193146 
L 196.759833 361.442408 
L 220.01589 361.442408 
L 221.469393 346.890318 
L 225.829904 341.748407 
L 227.283407 338.319759 
L 228.736911 339.245798 
L 230.190414 341.270832 
L 231.643918 346.103201 
L 236.004428 348.95594 
L 237.457932 348.753266 
L 238.911435 352.346995 
L 240.364939 350.695432 
L 241.818442 349.961806 
L 246.178953 349.232166 
L 247.632456 347.712067 
L 249.08596 349.022444 
L 250.539463 345.143466 
L 251.992967 339.528796 
L 256.353477 336.570817 
L 257.806981 336.42174 
L 259.260485 334.144701 
L 260.713988 317.200484 
L 267.981506 303.629857 
L 269.435009 286.362953 
L 270.888513 288.787744 
L 272.342016 279.477588 
L 276.702527 264.150227 
L 278.15603 279.215682 
L 281.063037 266.622341 
L 282.516541 264.729198 
L 286.877051 269.990033 
L 288.330555 278.896496 
L 289.784058 274.52797 
L 291.237562 273.753067 
L 297.051576 270.176756 
L 298.505079 257.355202 
L 299.958583 243.005995 
L 301.412086 233.863115 
L 302.86559 233.171513 
L 307.226101 239.539535 
L 308.679604 244.178428 
L 310.133108 245.253745 
L 311.586611 253.245284 
L 313.040115 249.557889 
L 317.400625 244.207984 
L 318.854129 230.726764 
L 320.307632 226.094742 
L 323.214639 228.89927 
L 327.57515 227.177392 
L 329.028653 231.737903 
L 330.482157 225.284699 
L 331.93566 232.52702 
L 333.389164 228.680423 
L 337.749674 228.003385 
L 339.203178 224.828387 
L 340.656681 225.809684 
L 342.110185 229.742634 
L 343.563688 231.190838 
L 347.924199 231.011563 
L 349.377703 231.88195 
L 350.831206 231.671103 
L 352.28471 223.307824 
L 353.738213 224.197333 
L 358.098724 221.862038 
L 359.552227 224.025602 
L 361.005731 228.80853 
L 374.087262 228.80853 
L 378.447773 230.204513 
L 379.901276 227.08324 
L 391.529305 227.08324 
L 392.982808 232.446755 
L 394.436312 228.079666 
L 401.703829 228.079666 
L 403.157333 223.24089 
L 404.610836 224.811595 
L 407.517843 224.811595 
L 408.971347 220.259766 
L 410.42485 221.100964 
L 411.878354 220.176231 
L 413.331857 217.908284 
L 414.785361 209.558839 
L 416.238864 209.558839 
L 419.145871 211.058988 
L 420.599375 224.249411 
L 422.052878 227.168291 
L 423.506382 224.389665 
L 424.959885 215.576971 
L 429.320396 211.488153 
L 430.773899 201.458802 
L 432.227403 210.235292 
L 433.680906 196.996416 
L 435.13441 196.910181 
L 439.494921 181.945122 
L 440.948424 181.06139 
L 442.401928 186.561737 
L 443.855431 175.775035 
L 445.308935 161.314561 
L 449.669445 186.731167 
L 451.122949 173.552375 
L 452.576452 157.65715 
L 454.029956 149.992871 
L 455.483459 147.102815 
L 459.84397 137.200985 
L 461.297473 139.963793 
L 462.750977 137.00188 
L 464.20448 139.63517 
L 465.657984 138.744115 
L 470.018494 138.914669 
L 471.471998 146.893142 
L 472.925501 160.234767 
L 474.379005 163.216222 
L 475.832508 157.935848 
L 480.193019 144.139109 
L 481.646523 131.125472 
L 483.100026 130.629713 
L 484.55353 125.384591 
L 486.007033 123.790681 
L 490.367544 121.951419 
L 491.821047 118.040815 
L 493.274551 110.470421 
L 496.181558 114.917515 
L 500.542068 114.375703 
L 501.995572 114.909944 
L 503.449075 107.473415 
L 504.902579 98.98084 
L 506.356082 104.334325 
L 510.716593 108.279505 
L 512.170096 98.092623 
L 513.6236 98.817469 
L 515.077103 107.808839 
L 516.530607 120.9298 
L 520.891117 130.698823 
L 522.344621 120.975946 
L 523.798125 113.787279 
L 525.251628 116.600394 
L 526.705132 116.162212 
L 531.065642 108.181158 
L 532.519146 107.216202 
L 533.972649 104.329227 
L 535.426153 99.452923 
L 536.879656 103.557944 
L 541.240167 102.816897 
L 542.69367 95.515691 
L 544.147174 102.238201 
L 545.600677 106.159932 
L 547.054181 101.69015 
L 551.414691 104.034489 
L 555.775202 104.034489 
L 557.228705 97.475544 
L 561.589216 102.567064 
L 564.496223 102.567064 
L 565.949726 95.976274 
L 567.40323 96.015968 
L 571.763741 95.796618 
L 573.217244 89.343668 
L 574.670748 89.855074 
L 576.124251 81.376338 
L 577.577755 79.360029 
L 581.938265 78.12 
L 583.391769 79.29486 
L 584.845272 79.034982 
L 586.298776 84.801973 
L 587.752279 86.19666 
L 592.11279 84.218602 
L 593.566293 79.764825 
L 595.019797 80.866729 
L 596.4733 82.794299 
L 597.926804 99.814952 
L 602.287314 91.798988 
L 603.740818 97.287717 
L 605.194321 93.95038 
L 606.647825 91.588798 
L 608.101328 94.23108 
L 612.461839 91.529794 
L 613.915343 91.454358 
L 615.368846 93.235336 
L 616.82235 100.131777 
L 618.275853 94.439625 
L 622.636364 91.650718 
L 622.636364 91.650718 
" clip-path="url(#pbf6d3658db)" style="fill: none; stroke: #ff7f0e; stroke-width: 1.5; stroke-linecap: square"/>
   </g>
   <g id="patch_3">
    <path d="M 90 448.56 
L 90 60.48 
" style="fill: none; stroke: #000000; stroke-width: 0.8; stroke-linejoin: miter; stroke-linecap: square"/>
   </g>
   <g id="patch_4">
    <path d="M 648 448.56 
L 648 60.48 
" style="fill: none; stroke: #000000; stroke-width: 0.8; stroke-linejoin: miter; stroke-linecap: square"/>
   </g>
   <g id="patch_5">
    <path d="M 90 448.56 
L 648 448.56 
" style="fill: none; stroke: #000000; stroke-width: 0.8; stroke-linejoin: miter; stroke-linecap: square"/>
   </g>
   <g id="patch_6">
    <path d="M 90 60.48 
L 648 60.48 
" style="fill: none; stroke: #000000; stroke-width: 0.8; stroke-linejoin: miter; stroke-linecap: square"/>
   </g>
   <g id="text_15">
    <!-- Performance of AVAN-strategy year 2009 -->
    <g transform="translate(245.686875 54.48)scale(0.12 -0.12)">
     <defs>
      <path id="DejaVuSans-50" d="M 1259 4147 
L 1259 2394 
L 2053 2394 
Q 2494 2394 2734 2622 
Q 2975 2850 2975 3272 
Q 2975 3691 2734 3919 
Q 2494 4147 2053 4147 
L 1259 4147 
z
M 628 4666 
L 2053 4666 
Q 2838 4666 3239 4311 
Q 3641 3956 3641 3272 
Q 3641 2581 3239 2228 
Q 2838 1875 2053 1875 
L 1259 1875 
L 1259 0 
L 628 0 
L 628 4666 
z
" transform="scale(0.015625)"/>
      <path id="DejaVuSans-66" d="M 2375 4863 
L 2375 4384 
L 1825 4384 
Q 1516 4384 1395 4259 
Q 1275 4134 1275 3809 
L 1275 3500 
L 2222 3500 
L 2222 3053 
L 1275 3053 
L 1275 0 
L 697 0 
L 697 3053 
L 147 3053 
L 147 3500 
L 697 3500 
L 697 3744 
Q 697 4328 969 4595 
Q 1241 4863 1831 4863 
L 2375 4863 
z
" transform="scale(0.015625)"/>
      <path id="DejaVuSans-6f" d="M 1959 3097 
Q 1497 3097 1228 2736 
Q 959 2375 959 1747 
Q 959 1119 1226 758 
Q 1494 397 1959 397 
Q 2419 397 2687 759 
Q 2956 1122 2956 1747 
Q 2956 2369 2687 2733 
Q 2419 3097 1959 3097 
z
M 1959 3584 
Q 2709 3584 3137 3096 
Q 3566 2609 3566 1747 
Q 3566 888 3137 398 
Q 2709 -91 1959 -91 
Q 1206 -91 779 398 
Q 353 888 353 1747 
Q 353 2609 779 3096 
Q 1206 3584 1959 3584 
z
" transform="scale(0.015625)"/>
      <path id="DejaVuSans-61" d="M 2194 1759 
Q 1497 1759 1228 1600 
Q 959 1441 959 1056 
Q 959 750 1161 570 
Q 1363 391 1709 391 
Q 2188 391 2477 730 
Q 2766 1069 2766 1631 
L 2766 1759 
L 2194 1759 
z
M 3341 1997 
L 3341 0 
L 2766 0 
L 2766 531 
Q 2569 213 2275 61 
Q 1981 -91 1556 -91 
Q 1019 -91 701 211 
Q 384 513 384 1019 
Q 384 1609 779 1909 
Q 1175 2209 1959 2209 
L 2766 2209 
L 2766 2266 
Q 2766 2663 2505 2880 
Q 2244 3097 1772 3097 
Q 1472 3097 1187 3025 
Q 903 2953 641 2809 
L 641 3341 
Q 956 3463 1253 3523 
Q 1550 3584 1831 3584 
Q 2591 3584 2966 3190 
Q 3341 2797 3341 1997 
z
" transform="scale(0.015625)"/>
      <path id="DejaVuSans-63" d="M 3122 3366 
L 3122 2828 
Q 2878 2963 2633 3030 
Q 2388 3097 2138 3097 
Q 1578 3097 1268 2742 
Q 959 2388 959 1747 
Q 959 1106 1268 751 
Q 1578 397 2138 397 
Q 2388 397 2633 464 
Q 2878 531 3122 666 
L 3122 134 
Q 2881 22 2623 -34 
Q 2366 -91 2075 -91 
Q 1284 -91 818 406 
Q 353 903 353 1747 
Q 353 2603 823 3093 
Q 1294 3584 2113 3584 
Q 2378 3584 2631 3529 
Q 2884 3475 3122 3366 
z
" transform="scale(0.015625)"/>
      <path id="DejaVuSans-41" d="M 2188 4044 
L 1331 1722 
L 3047 1722 
L 2188 4044 
z
M 1831 4666 
L 2547 4666 
L 4325 0 
L 3669 0 
L 3244 1197 
L 1141 1197 
L 716 0 
L 50 0 
L 1831 4666 
z
" transform="scale(0.015625)"/>
      <path id="DejaVuSans-56" d="M 1831 0 
L 50 4666 
L 709 4666 
L 2188 738 
L 3669 4666 
L 4325 4666 
L 2547 0 
L 1831 0 
z
" transform="scale(0.015625)"/>
      <path id="DejaVuSans-4e" d="M 628 4666 
L 1478 4666 
L 3547 763 
L 3547 4666 
L 4159 4666 
L 4159 0 
L 3309 0 
L 1241 3903 
L 1241 0 
L 628 0 
L 628 4666 
z
" transform="scale(0.015625)"/>
      <path id="DejaVuSans-73" d="M 2834 3397 
L 2834 2853 
Q 2591 2978 2328 3040 
Q 2066 3103 1784 3103 
Q 1356 3103 1142 2972 
Q 928 2841 928 2578 
Q 928 2378 1081 2264 
Q 1234 2150 1697 2047 
L 1894 2003 
Q 2506 1872 2764 1633 
Q 3022 1394 3022 966 
Q 3022 478 2636 193 
Q 2250 -91 1575 -91 
Q 1294 -91 989 -36 
Q 684 19 347 128 
L 347 722 
Q 666 556 975 473 
Q 1284 391 1588 391 
Q 1994 391 2212 530 
Q 2431 669 2431 922 
Q 2431 1156 2273 1281 
Q 2116 1406 1581 1522 
L 1381 1569 
Q 847 1681 609 1914 
Q 372 2147 372 2553 
Q 372 3047 722 3315 
Q 1072 3584 1716 3584 
Q 2034 3584 2315 3537 
Q 2597 3491 2834 3397 
z
" transform="scale(0.015625)"/>
      <path id="DejaVuSans-67" d="M 2906 1791 
Q 2906 2416 2648 2759 
Q 2391 3103 1925 3103 
Q 1463 3103 1205 2759 
Q 947 2416 947 1791 
Q 947 1169 1205 825 
Q 1463 481 1925 481 
Q 2391 481 2648 825 
Q 2906 1169 2906 1791 
z
M 3481 434 
Q 3481 -459 3084 -895 
Q 2688 -1331 1869 -1331 
Q 1566 -1331 1297 -1286 
Q 1028 -1241 775 -1147 
L 775 -588 
Q 1028 -725 1275 -790 
Q 1522 -856 1778 -856 
Q 2344 -856 2625 -561 
Q 2906 -266 2906 331 
L 2906 616 
Q 2728 306 2450 153 
Q 2172 0 1784 0 
Q 1141 0 747 490 
Q 353 981 353 1791 
Q 353 2603 747 3093 
Q 1141 3584 1784 3584 
Q 2172 3584 2450 3431 
Q 2728 3278 2906 2969 
L 2906 3500 
L 3481 3500 
L 3481 434 
z
" transform="scale(0.015625)"/>
      <path id="DejaVuSans-79" d="M 2059 -325 
Q 1816 -950 1584 -1140 
Q 1353 -1331 966 -1331 
L 506 -1331 
L 506 -850 
L 844 -850 
Q 1081 -850 1212 -737 
Q 1344 -625 1503 -206 
L 1606 56 
L 191 3500 
L 800 3500 
L 1894 763 
L 2988 3500 
L 3597 3500 
L 2059 -325 
z
" transform="scale(0.015625)"/>
     </defs>
     <use xlink:href="#DejaVuSans-50"/>
     <use xlink:href="#DejaVuSans-65" x="56.677734"/>
     <use xlink:href="#DejaVuSans-72" x="118.201172"/>
     <use xlink:href="#DejaVuSans-66" x="159.314453"/>
     <use xlink:href="#DejaVuSans-6f" x="194.519531"/>
     <use xlink:href="#DejaVuSans-72" x="255.701172"/>
     <use xlink:href="#DejaVuSans-6d" x="295.064453"/>
     <use xlink:href="#DejaVuSans-61" x="392.476562"/>
     <use xlink:href="#DejaVuSans-6e" x="453.755859"/>
     <use xlink:href="#DejaVuSans-63" x="517.134766"/>
     <use xlink:href="#DejaVuSans-65" x="572.115234"/>
     <use xlink:href="#DejaVuSans-20" x="633.638672"/>
     <use xlink:href="#DejaVuSans-6f" x="665.425781"/>
     <use xlink:href="#DejaVuSans-66" x="726.607422"/>
     <use xlink:href="#DejaVuSans-20" x="761.8125"/>
     <use xlink:href="#DejaVuSans-41" x="793.599609"/>
     <use xlink:href="#DejaVuSans-56" x="855.632812"/>
     <use xlink:href="#DejaVuSans-41" x="917.666016"/>
     <use xlink:href="#DejaVuSans-4e" x="986.074219"/>
     <use xlink:href="#DejaVuSans-2d" x="1060.878906"/>
     <use xlink:href="#DejaVuSans-73" x="1096.962891"/>
     <use xlink:href="#DejaVuSans-74" x="1149.0625"/>
     <use xlink:href="#DejaVuSans-72" x="1188.271484"/>
     <use xlink:href="#DejaVuSans-61" x="1229.384766"/>
     <use xlink:href="#DejaVuSans-74" x="1290.664062"/>
     <use xlink:href="#DejaVuSans-65" x="1329.873047"/>
     <use xlink:href="#DejaVuSans-67" x="1391.396484"/>
     <use xlink:href="#DejaVuSans-79" x="1454.873047"/>
     <use xlink:href="#DejaVuSans-20" x="1514.052734"/>
     <use xlink:href="#DejaVuSans-79" x="1545.839844"/>
     <use xlink:href="#DejaVuSans-65" x="1605.019531"/>
     <use xlink:href="#DejaVuSans-61" x="1666.542969"/>
     <use xlink:href="#DejaVuSans-72" x="1727.822266"/>
     <use xlink:href="#DejaVuSans-20" x="1768.935547"/>
     <use xlink:href="#DejaVuSans-32" x="1800.722656"/>
     <use xlink:href="#DejaVuSans-30" x="1864.345703"/>
     <use xlink:href="#DejaVuSans-30" x="1927.96875"/>
     <use xlink:href="#DejaVuSans-39" x="1991.591797"/>
    </g>
   </g>
   <g id="legend_1">
    <g id="patch_7">
     <path d="M 97 97.83625 
L 238.559375 97.83625 
Q 240.559375 97.83625 240.559375 95.83625 
L 240.559375 67.48 
Q 240.559375 65.48 238.559375 65.48 
L 97 65.48 
Q 95 65.48 95 67.48 
L 95 95.83625 
Q 95 97.83625 97 97.83625 
z
" style="fill: #ffffff; opacity: 0.8; stroke: #cccccc; stroke-linejoin: miter"/>
    </g>
    <g id="line2d_15">
     <path d="M 99 73.578438 
L 109 73.578438 
L 119 73.578438 
" style="fill: none; stroke: #1f77b4; stroke-width: 1.5; stroke-linecap: square"/>
    </g>
    <g id="text_16">
     <!-- 44.3767% return omx -->
     <g transform="translate(127 77.078438)scale(0.1 -0.1)">
      <defs>
       <path id="DejaVuSans-2e" d="M 684 794 
L 1344 794 
L 1344 0 
L 684 0 
L 684 794 
z
" transform="scale(0.015625)"/>
       <path id="DejaVuSans-78" d="M 3513 3500 
L 2247 1797 
L 3578 0 
L 2900 0 
L 1881 1375 
L 863 0 
L 184 0 
L 1544 1831 
L 300 3500 
L 978 3500 
L 1906 2253 
L 2834 3500 
L 3513 3500 
z
" transform="scale(0.015625)"/>
      </defs>
      <use xlink:href="#DejaVuSans-34"/>
      <use xlink:href="#DejaVuSans-34" x="63.623047"/>
      <use xlink:href="#DejaVuSans-2e" x="127.246094"/>
      <use xlink:href="#DejaVuSans-33" x="159.033203"/>
      <use xlink:href="#DejaVuSans-37" x="222.65625"/>
      <use xlink:href="#DejaVuSans-36" x="286.279297"/>
      <use xlink:href="#DejaVuSans-37" x="349.902344"/>
      <use xlink:href="#DejaVuSans-25" x="413.525391"/>
      <use xlink:href="#DejaVuSans-20" x="508.544922"/>
      <use xlink:href="#DejaVuSans-72" x="540.332031"/>
      <use xlink:href="#DejaVuSans-65" x="579.195312"/>
      <use xlink:href="#DejaVuSans-74" x="640.71875"/>
      <use xlink:href="#DejaVuSans-75" x="679.927734"/>
      <use xlink:href="#DejaVuSans-72" x="743.306641"/>
      <use xlink:href="#DejaVuSans-6e" x="782.669922"/>
      <use xlink:href="#DejaVuSans-20" x="846.048828"/>
      <use xlink:href="#DejaVuSans-6f" x="877.835938"/>
      <use xlink:href="#DejaVuSans-6d" x="939.017578"/>
      <use xlink:href="#DejaVuSans-78" x="1036.429688"/>
     </g>
    </g>
    <g id="line2d_16">
     <path d="M 99 88.256563 
L 109 88.256563 
L 119 88.256563 
" style="fill: none; stroke: #ff7f0e; stroke-width: 1.5; stroke-linecap: square"/>
    </g>
    <g id="text_17">
     <!-- 93.447% return AVAN -->
     <g transform="translate(127 91.756563)scale(0.1 -0.1)">
      <use xlink:href="#DejaVuSans-39"/>
      <use xlink:href="#DejaVuSans-33" x="63.623047"/>
      <use xlink:href="#DejaVuSans-2e" x="127.246094"/>
      <use xlink:href="#DejaVuSans-34" x="159.033203"/>
      <use xlink:href="#DejaVuSans-34" x="222.65625"/>
      <use xlink:href="#DejaVuSans-37" x="286.279297"/>
      <use xlink:href="#DejaVuSans-25" x="349.902344"/>
      <use xlink:href="#DejaVuSans-20" x="444.921875"/>
      <use xlink:href="#DejaVuSans-72" x="476.708984"/>
      <use xlink:href="#DejaVuSans-65" x="515.572266"/>
      <use xlink:href="#DejaVuSans-74" x="577.095703"/>
      <use xlink:href="#DejaVuSans-75" x="616.304688"/>
      <use xlink:href="#DejaVuSans-72" x="679.683594"/>
      <use xlink:href="#DejaVuSans-6e" x="719.046875"/>
      <use xlink:href="#DejaVuSans-20" x="782.425781"/>
      <use xlink:href="#DejaVuSans-41" x="814.212891"/>
      <use xlink:href="#DejaVuSans-56" x="876.246094"/>
      <use xlink:href="#DejaVuSans-41" x="938.279297"/>
      <use xlink:href="#DejaVuSans-4e" x="1006.6875"/>
     </g>
    </g>
   </g>
  </g>
 </g>
 <defs>
  <clipPath id="pbf6d3658db">
   <rect x="90" y="60.48" width="558" height="388.08"/>
  </clipPath>
 </defs>
</svg>
