<?xml version="1.0" encoding="utf-8" standalone="no"?>
<!DOCTYPE svg PUBLIC "-//W3C//DTD SVG 1.1//EN"
  "http://www.w3.org/Graphics/SVG/1.1/DTD/svg11.dtd">
<svg xmlns:xlink="http://www.w3.org/1999/xlink" width="720pt" height="504pt" viewBox="0 0 720 504" xmlns="http://www.w3.org/2000/svg" version="1.1">
 <metadata>
  <rdf:RDF xmlns:dc="http://purl.org/dc/elements/1.1/" xmlns:cc="http://creativecommons.org/ns#" xmlns:rdf="http://www.w3.org/1999/02/22-rdf-syntax-ns#">
   <cc:Work>
    <dc:type rdf:resource="http://purl.org/dc/dcmitype/StillImage"/>
    <dc:date>2022-12-23T00:42:33.536893</dc:date>
    <dc:format>image/svg+xml</dc:format>
    <dc:creator>
     <cc:Agent>
      <dc:title>Matplotlib v3.5.0, https://matplotlib.org/</dc:title>
     </cc:Agent>
    </dc:creator>
   </cc:Work>
  </rdf:RDF>
 </metadata>
 <defs>
  <style type="text/css">*{stroke-linejoin: round; stroke-linecap: butt}</style>
 </defs>
 <g id="figure_1">
  <g id="patch_1">
   <path d="M 0 504 
L 720 504 
L 720 0 
L 0 0 
z
" style="fill: #ffffff"/>
  </g>
  <g id="axes_1">
   <g id="patch_2">
    <path d="M 90 448.56 
L 648 448.56 
L 648 60.48 
L 90 60.48 
z
" style="fill: #ffffff"/>
   </g>
   <g id="matplotlib.axis_1">
    <g id="xtick_1">
     <g id="line2d_1">
      <defs>
       <path id="mcc0351433d" d="M 0 0 
L 0 3.5 
" style="stroke: #000000; stroke-width: 0.8"/>
      </defs>
      <g>
       <use xlink:href="#mcc0351433d" x="113.89753" y="448.56" style="stroke: #000000; stroke-width: 0.8"/>
      </g>
     </g>
     <g id="text_1">
      <!-- 2007-01 -->
      <g transform="translate(93.006124 463.158437)scale(0.1 -0.1)">
       <defs>
        <path id="DejaVuSans-32" d="M 1228 531 
L 3431 531 
L 3431 0 
L 469 0 
L 469 531 
Q 828 903 1448 1529 
Q 2069 2156 2228 2338 
Q 2531 2678 2651 2914 
Q 2772 3150 2772 3378 
Q 2772 3750 2511 3984 
Q 2250 4219 1831 4219 
Q 1534 4219 1204 4116 
Q 875 4013 500 3803 
L 500 4441 
Q 881 4594 1212 4672 
Q 1544 4750 1819 4750 
Q 2544 4750 2975 4387 
Q 3406 4025 3406 3419 
Q 3406 3131 3298 2873 
Q 3191 2616 2906 2266 
Q 2828 2175 2409 1742 
Q 1991 1309 1228 531 
z
" transform="scale(0.015625)"/>
        <path id="DejaVuSans-30" d="M 2034 4250 
Q 1547 4250 1301 3770 
Q 1056 3291 1056 2328 
Q 1056 1369 1301 889 
Q 1547 409 2034 409 
Q 2525 409 2770 889 
Q 3016 1369 3016 2328 
Q 3016 3291 2770 3770 
Q 2525 4250 2034 4250 
z
M 2034 4750 
Q 2819 4750 3233 4129 
Q 3647 3509 3647 2328 
Q 3647 1150 3233 529 
Q 2819 -91 2034 -91 
Q 1250 -91 836 529 
Q 422 1150 422 2328 
Q 422 3509 836 4129 
Q 1250 4750 2034 4750 
z
" transform="scale(0.015625)"/>
        <path id="DejaVuSans-37" d="M 525 4666 
L 3525 4666 
L 3525 4397 
L 1831 0 
L 1172 0 
L 2766 4134 
L 525 4134 
L 525 4666 
z
" transform="scale(0.015625)"/>
        <path id="DejaVuSans-2d" d="M 313 2009 
L 1997 2009 
L 1997 1497 
L 313 1497 
L 313 2009 
z
" transform="scale(0.015625)"/>
        <path id="DejaVuSans-31" d="M 794 531 
L 1825 531 
L 1825 4091 
L 703 3866 
L 703 4441 
L 1819 4666 
L 2450 4666 
L 2450 531 
L 3481 531 
L 3481 0 
L 794 0 
L 794 531 
z
" transform="scale(0.015625)"/>
       </defs>
       <use xlink:href="#DejaVuSans-32"/>
       <use xlink:href="#DejaVuSans-30" x="63.623047"/>
       <use xlink:href="#DejaVuSans-30" x="127.246094"/>
       <use xlink:href="#DejaVuSans-37" x="190.869141"/>
       <use xlink:href="#DejaVuSans-2d" x="254.492188"/>
       <use xlink:href="#DejaVuSans-30" x="290.576172"/>
       <use xlink:href="#DejaVuSans-31" x="354.199219"/>
      </g>
     </g>
    </g>
    <g id="xtick_2">
     <g id="line2d_2">
      <g>
       <use xlink:href="#mcc0351433d" x="200.397793" y="448.56" style="stroke: #000000; stroke-width: 0.8"/>
      </g>
     </g>
     <g id="text_2">
      <!-- 2007-03 -->
      <g transform="translate(179.506387 463.158437)scale(0.1 -0.1)">
       <defs>
        <path id="DejaVuSans-33" d="M 2597 2516 
Q 3050 2419 3304 2112 
Q 3559 1806 3559 1356 
Q 3559 666 3084 287 
Q 2609 -91 1734 -91 
Q 1441 -91 1130 -33 
Q 819 25 488 141 
L 488 750 
Q 750 597 1062 519 
Q 1375 441 1716 441 
Q 2309 441 2620 675 
Q 2931 909 2931 1356 
Q 2931 1769 2642 2001 
Q 2353 2234 1838 2234 
L 1294 2234 
L 1294 2753 
L 1863 2753 
Q 2328 2753 2575 2939 
Q 2822 3125 2822 3475 
Q 2822 3834 2567 4026 
Q 2313 4219 1838 4219 
Q 1578 4219 1281 4162 
Q 984 4106 628 3988 
L 628 4550 
Q 988 4650 1302 4700 
Q 1616 4750 1894 4750 
Q 2613 4750 3031 4423 
Q 3450 4097 3450 3541 
Q 3450 3153 3228 2886 
Q 3006 2619 2597 2516 
z
" transform="scale(0.015625)"/>
       </defs>
       <use xlink:href="#DejaVuSans-32"/>
       <use xlink:href="#DejaVuSans-30" x="63.623047"/>
       <use xlink:href="#DejaVuSans-30" x="127.246094"/>
       <use xlink:href="#DejaVuSans-37" x="190.869141"/>
       <use xlink:href="#DejaVuSans-2d" x="254.492188"/>
       <use xlink:href="#DejaVuSans-30" x="290.576172"/>
       <use xlink:href="#DejaVuSans-33" x="354.199219"/>
      </g>
     </g>
    </g>
    <g id="xtick_3">
     <g id="line2d_3">
      <g>
       <use xlink:href="#mcc0351433d" x="289.830268" y="448.56" style="stroke: #000000; stroke-width: 0.8"/>
      </g>
     </g>
     <g id="text_3">
      <!-- 2007-05 -->
      <g transform="translate(268.938862 463.158437)scale(0.1 -0.1)">
       <defs>
        <path id="DejaVuSans-35" d="M 691 4666 
L 3169 4666 
L 3169 4134 
L 1269 4134 
L 1269 2991 
Q 1406 3038 1543 3061 
Q 1681 3084 1819 3084 
Q 2600 3084 3056 2656 
Q 3513 2228 3513 1497 
Q 3513 744 3044 326 
Q 2575 -91 1722 -91 
Q 1428 -91 1123 -41 
Q 819 9 494 109 
L 494 744 
Q 775 591 1075 516 
Q 1375 441 1709 441 
Q 2250 441 2565 725 
Q 2881 1009 2881 1497 
Q 2881 1984 2565 2268 
Q 2250 2553 1709 2553 
Q 1456 2553 1204 2497 
Q 953 2441 691 2322 
L 691 4666 
z
" transform="scale(0.015625)"/>
       </defs>
       <use xlink:href="#DejaVuSans-32"/>
       <use xlink:href="#DejaVuSans-30" x="63.623047"/>
       <use xlink:href="#DejaVuSans-30" x="127.246094"/>
       <use xlink:href="#DejaVuSans-37" x="190.869141"/>
       <use xlink:href="#DejaVuSans-2d" x="254.492188"/>
       <use xlink:href="#DejaVuSans-30" x="290.576172"/>
       <use xlink:href="#DejaVuSans-35" x="354.199219"/>
      </g>
     </g>
    </g>
    <g id="xtick_4">
     <g id="line2d_4">
      <g>
       <use xlink:href="#mcc0351433d" x="379.262743" y="448.56" style="stroke: #000000; stroke-width: 0.8"/>
      </g>
     </g>
     <g id="text_4">
      <!-- 2007-07 -->
      <g transform="translate(358.371337 463.158437)scale(0.1 -0.1)">
       <use xlink:href="#DejaVuSans-32"/>
       <use xlink:href="#DejaVuSans-30" x="63.623047"/>
       <use xlink:href="#DejaVuSans-30" x="127.246094"/>
       <use xlink:href="#DejaVuSans-37" x="190.869141"/>
       <use xlink:href="#DejaVuSans-2d" x="254.492188"/>
       <use xlink:href="#DejaVuSans-30" x="290.576172"/>
       <use xlink:href="#DejaVuSans-37" x="354.199219"/>
      </g>
     </g>
    </g>
    <g id="xtick_5">
     <g id="line2d_5">
      <g>
       <use xlink:href="#mcc0351433d" x="470.161324" y="448.56" style="stroke: #000000; stroke-width: 0.8"/>
      </g>
     </g>
     <g id="text_5">
      <!-- 2007-09 -->
      <g transform="translate(449.269918 463.158437)scale(0.1 -0.1)">
       <defs>
        <path id="DejaVuSans-39" d="M 703 97 
L 703 672 
Q 941 559 1184 500 
Q 1428 441 1663 441 
Q 2288 441 2617 861 
Q 2947 1281 2994 2138 
Q 2813 1869 2534 1725 
Q 2256 1581 1919 1581 
Q 1219 1581 811 2004 
Q 403 2428 403 3163 
Q 403 3881 828 4315 
Q 1253 4750 1959 4750 
Q 2769 4750 3195 4129 
Q 3622 3509 3622 2328 
Q 3622 1225 3098 567 
Q 2575 -91 1691 -91 
Q 1453 -91 1209 -44 
Q 966 3 703 97 
z
M 1959 2075 
Q 2384 2075 2632 2365 
Q 2881 2656 2881 3163 
Q 2881 3666 2632 3958 
Q 2384 4250 1959 4250 
Q 1534 4250 1286 3958 
Q 1038 3666 1038 3163 
Q 1038 2656 1286 2365 
Q 1534 2075 1959 2075 
z
" transform="scale(0.015625)"/>
       </defs>
       <use xlink:href="#DejaVuSans-32"/>
       <use xlink:href="#DejaVuSans-30" x="63.623047"/>
       <use xlink:href="#DejaVuSans-30" x="127.246094"/>
       <use xlink:href="#DejaVuSans-37" x="190.869141"/>
       <use xlink:href="#DejaVuSans-2d" x="254.492188"/>
       <use xlink:href="#DejaVuSans-30" x="290.576172"/>
       <use xlink:href="#DejaVuSans-39" x="354.199219"/>
      </g>
     </g>
    </g>
    <g id="xtick_6">
     <g id="line2d_6">
      <g>
       <use xlink:href="#mcc0351433d" x="559.593799" y="448.56" style="stroke: #000000; stroke-width: 0.8"/>
      </g>
     </g>
     <g id="text_6">
      <!-- 2007-11 -->
      <g transform="translate(538.702393 463.158437)scale(0.1 -0.1)">
       <use xlink:href="#DejaVuSans-32"/>
       <use xlink:href="#DejaVuSans-30" x="63.623047"/>
       <use xlink:href="#DejaVuSans-30" x="127.246094"/>
       <use xlink:href="#DejaVuSans-37" x="190.869141"/>
       <use xlink:href="#DejaVuSans-2d" x="254.492188"/>
       <use xlink:href="#DejaVuSans-31" x="290.576172"/>
       <use xlink:href="#DejaVuSans-31" x="354.199219"/>
      </g>
     </g>
    </g>
    <g id="text_7">
     <!-- Time -->
     <g transform="translate(356.766406 476.836563)scale(0.1 -0.1)">
      <defs>
       <path id="DejaVuSans-54" d="M -19 4666 
L 3928 4666 
L 3928 4134 
L 2272 4134 
L 2272 0 
L 1638 0 
L 1638 4134 
L -19 4134 
L -19 4666 
z
" transform="scale(0.015625)"/>
       <path id="DejaVuSans-69" d="M 603 3500 
L 1178 3500 
L 1178 0 
L 603 0 
L 603 3500 
z
M 603 4863 
L 1178 4863 
L 1178 4134 
L 603 4134 
L 603 4863 
z
" transform="scale(0.015625)"/>
       <path id="DejaVuSans-6d" d="M 3328 2828 
Q 3544 3216 3844 3400 
Q 4144 3584 4550 3584 
Q 5097 3584 5394 3201 
Q 5691 2819 5691 2113 
L 5691 0 
L 5113 0 
L 5113 2094 
Q 5113 2597 4934 2840 
Q 4756 3084 4391 3084 
Q 3944 3084 3684 2787 
Q 3425 2491 3425 1978 
L 3425 0 
L 2847 0 
L 2847 2094 
Q 2847 2600 2669 2842 
Q 2491 3084 2119 3084 
Q 1678 3084 1418 2786 
Q 1159 2488 1159 1978 
L 1159 0 
L 581 0 
L 581 3500 
L 1159 3500 
L 1159 2956 
Q 1356 3278 1631 3431 
Q 1906 3584 2284 3584 
Q 2666 3584 2933 3390 
Q 3200 3197 3328 2828 
z
" transform="scale(0.015625)"/>
       <path id="DejaVuSans-65" d="M 3597 1894 
L 3597 1613 
L 953 1613 
Q 991 1019 1311 708 
Q 1631 397 2203 397 
Q 2534 397 2845 478 
Q 3156 559 3463 722 
L 3463 178 
Q 3153 47 2828 -22 
Q 2503 -91 2169 -91 
Q 1331 -91 842 396 
Q 353 884 353 1716 
Q 353 2575 817 3079 
Q 1281 3584 2069 3584 
Q 2775 3584 3186 3129 
Q 3597 2675 3597 1894 
z
M 3022 2063 
Q 3016 2534 2758 2815 
Q 2500 3097 2075 3097 
Q 1594 3097 1305 2825 
Q 1016 2553 972 2059 
L 3022 2063 
z
" transform="scale(0.015625)"/>
      </defs>
      <use xlink:href="#DejaVuSans-54"/>
      <use xlink:href="#DejaVuSans-69" x="57.958984"/>
      <use xlink:href="#DejaVuSans-6d" x="85.742188"/>
      <use xlink:href="#DejaVuSans-65" x="183.154297"/>
     </g>
    </g>
   </g>
   <g id="matplotlib.axis_2">
    <g id="ytick_1">
     <g id="line2d_7">
      <defs>
       <path id="mf194f0392f" d="M 0 0 
L -3.5 0 
" style="stroke: #000000; stroke-width: 0.8"/>
      </defs>
      <g>
       <use xlink:href="#mf194f0392f" x="90" y="436.891637" style="stroke: #000000; stroke-width: 0.8"/>
      </g>
     </g>
     <g id="text_8">
      <!-- −10 -->
      <g transform="translate(61.895313 440.690855)scale(0.1 -0.1)">
       <defs>
        <path id="DejaVuSans-2212" d="M 678 2272 
L 4684 2272 
L 4684 1741 
L 678 1741 
L 678 2272 
z
" transform="scale(0.015625)"/>
       </defs>
       <use xlink:href="#DejaVuSans-2212"/>
       <use xlink:href="#DejaVuSans-31" x="83.789062"/>
       <use xlink:href="#DejaVuSans-30" x="147.412109"/>
      </g>
     </g>
    </g>
    <g id="ytick_2">
     <g id="line2d_8">
      <g>
       <use xlink:href="#mf194f0392f" x="90" y="378.296713" style="stroke: #000000; stroke-width: 0.8"/>
      </g>
     </g>
     <g id="text_9">
      <!-- −5 -->
      <g transform="translate(68.257812 382.095932)scale(0.1 -0.1)">
       <use xlink:href="#DejaVuSans-2212"/>
       <use xlink:href="#DejaVuSans-35" x="83.789062"/>
      </g>
     </g>
    </g>
    <g id="ytick_3">
     <g id="line2d_9">
      <g>
       <use xlink:href="#mf194f0392f" x="90" y="319.70179" style="stroke: #000000; stroke-width: 0.8"/>
      </g>
     </g>
     <g id="text_10">
      <!-- 0 -->
      <g transform="translate(76.6375 323.501009)scale(0.1 -0.1)">
       <use xlink:href="#DejaVuSans-30"/>
      </g>
     </g>
    </g>
    <g id="ytick_4">
     <g id="line2d_10">
      <g>
       <use xlink:href="#mf194f0392f" x="90" y="261.106866" style="stroke: #000000; stroke-width: 0.8"/>
      </g>
     </g>
     <g id="text_11">
      <!-- 5 -->
      <g transform="translate(76.6375 264.906085)scale(0.1 -0.1)">
       <use xlink:href="#DejaVuSans-35"/>
      </g>
     </g>
    </g>
    <g id="ytick_5">
     <g id="line2d_11">
      <g>
       <use xlink:href="#mf194f0392f" x="90" y="202.511943" style="stroke: #000000; stroke-width: 0.8"/>
      </g>
     </g>
     <g id="text_12">
      <!-- 10 -->
      <g transform="translate(70.275 206.311162)scale(0.1 -0.1)">
       <use xlink:href="#DejaVuSans-31"/>
       <use xlink:href="#DejaVuSans-30" x="63.623047"/>
      </g>
     </g>
    </g>
    <g id="ytick_6">
     <g id="line2d_12">
      <g>
       <use xlink:href="#mf194f0392f" x="90" y="143.917019" style="stroke: #000000; stroke-width: 0.8"/>
      </g>
     </g>
     <g id="text_13">
      <!-- 15 -->
      <g transform="translate(70.275 147.716238)scale(0.1 -0.1)">
       <use xlink:href="#DejaVuSans-31"/>
       <use xlink:href="#DejaVuSans-35" x="63.623047"/>
      </g>
     </g>
    </g>
    <g id="ytick_7">
     <g id="line2d_13">
      <g>
       <use xlink:href="#mf194f0392f" x="90" y="85.322096" style="stroke: #000000; stroke-width: 0.8"/>
      </g>
     </g>
     <g id="text_14">
      <!-- 20 -->
      <g transform="translate(70.275 89.121315)scale(0.1 -0.1)">
       <use xlink:href="#DejaVuSans-32"/>
       <use xlink:href="#DejaVuSans-30" x="63.623047"/>
      </g>
     </g>
    </g>
    <g id="text_15">
     <!-- Return [%] -->
     <g transform="translate(55.815625 281.352813)rotate(-90)scale(0.1 -0.1)">
      <defs>
       <path id="DejaVuSans-52" d="M 2841 2188 
Q 3044 2119 3236 1894 
Q 3428 1669 3622 1275 
L 4263 0 
L 3584 0 
L 2988 1197 
Q 2756 1666 2539 1819 
Q 2322 1972 1947 1972 
L 1259 1972 
L 1259 0 
L 628 0 
L 628 4666 
L 2053 4666 
Q 2853 4666 3247 4331 
Q 3641 3997 3641 3322 
Q 3641 2881 3436 2590 
Q 3231 2300 2841 2188 
z
M 1259 4147 
L 1259 2491 
L 2053 2491 
Q 2509 2491 2742 2702 
Q 2975 2913 2975 3322 
Q 2975 3731 2742 3939 
Q 2509 4147 2053 4147 
L 1259 4147 
z
" transform="scale(0.015625)"/>
       <path id="DejaVuSans-74" d="M 1172 4494 
L 1172 3500 
L 2356 3500 
L 2356 3053 
L 1172 3053 
L 1172 1153 
Q 1172 725 1289 603 
Q 1406 481 1766 481 
L 2356 481 
L 2356 0 
L 1766 0 
Q 1100 0 847 248 
Q 594 497 594 1153 
L 594 3053 
L 172 3053 
L 172 3500 
L 594 3500 
L 594 4494 
L 1172 4494 
z
" transform="scale(0.015625)"/>
       <path id="DejaVuSans-75" d="M 544 1381 
L 544 3500 
L 1119 3500 
L 1119 1403 
Q 1119 906 1312 657 
Q 1506 409 1894 409 
Q 2359 409 2629 706 
Q 2900 1003 2900 1516 
L 2900 3500 
L 3475 3500 
L 3475 0 
L 2900 0 
L 2900 538 
Q 2691 219 2414 64 
Q 2138 -91 1772 -91 
Q 1169 -91 856 284 
Q 544 659 544 1381 
z
M 1991 3584 
L 1991 3584 
z
" transform="scale(0.015625)"/>
       <path id="DejaVuSans-72" d="M 2631 2963 
Q 2534 3019 2420 3045 
Q 2306 3072 2169 3072 
Q 1681 3072 1420 2755 
Q 1159 2438 1159 1844 
L 1159 0 
L 581 0 
L 581 3500 
L 1159 3500 
L 1159 2956 
Q 1341 3275 1631 3429 
Q 1922 3584 2338 3584 
Q 2397 3584 2469 3576 
Q 2541 3569 2628 3553 
L 2631 2963 
z
" transform="scale(0.015625)"/>
       <path id="DejaVuSans-6e" d="M 3513 2113 
L 3513 0 
L 2938 0 
L 2938 2094 
Q 2938 2591 2744 2837 
Q 2550 3084 2163 3084 
Q 1697 3084 1428 2787 
Q 1159 2491 1159 1978 
L 1159 0 
L 581 0 
L 581 3500 
L 1159 3500 
L 1159 2956 
Q 1366 3272 1645 3428 
Q 1925 3584 2291 3584 
Q 2894 3584 3203 3211 
Q 3513 2838 3513 2113 
z
" transform="scale(0.015625)"/>
       <path id="DejaVuSans-20" transform="scale(0.015625)"/>
       <path id="DejaVuSans-5b" d="M 550 4863 
L 1875 4863 
L 1875 4416 
L 1125 4416 
L 1125 -397 
L 1875 -397 
L 1875 -844 
L 550 -844 
L 550 4863 
z
" transform="scale(0.015625)"/>
       <path id="DejaVuSans-25" d="M 4653 2053 
Q 4381 2053 4226 1822 
Q 4072 1591 4072 1178 
Q 4072 772 4226 539 
Q 4381 306 4653 306 
Q 4919 306 5073 539 
Q 5228 772 5228 1178 
Q 5228 1588 5073 1820 
Q 4919 2053 4653 2053 
z
M 4653 2450 
Q 5147 2450 5437 2106 
Q 5728 1763 5728 1178 
Q 5728 594 5436 251 
Q 5144 -91 4653 -91 
Q 4153 -91 3862 251 
Q 3572 594 3572 1178 
Q 3572 1766 3864 2108 
Q 4156 2450 4653 2450 
z
M 1428 4353 
Q 1159 4353 1004 4120 
Q 850 3888 850 3481 
Q 850 3069 1003 2837 
Q 1156 2606 1428 2606 
Q 1700 2606 1854 2837 
Q 2009 3069 2009 3481 
Q 2009 3884 1853 4118 
Q 1697 4353 1428 4353 
z
M 4250 4750 
L 4750 4750 
L 1831 -91 
L 1331 -91 
L 4250 4750 
z
M 1428 4750 
Q 1922 4750 2215 4408 
Q 2509 4066 2509 3481 
Q 2509 2891 2217 2550 
Q 1925 2209 1428 2209 
Q 931 2209 642 2551 
Q 353 2894 353 3481 
Q 353 4063 643 4406 
Q 934 4750 1428 4750 
z
" transform="scale(0.015625)"/>
       <path id="DejaVuSans-5d" d="M 1947 4863 
L 1947 -844 
L 622 -844 
L 622 -397 
L 1369 -397 
L 1369 4416 
L 622 4416 
L 622 4863 
L 1947 4863 
z
" transform="scale(0.015625)"/>
      </defs>
      <use xlink:href="#DejaVuSans-52"/>
      <use xlink:href="#DejaVuSans-65" x="64.982422"/>
      <use xlink:href="#DejaVuSans-74" x="126.505859"/>
      <use xlink:href="#DejaVuSans-75" x="165.714844"/>
      <use xlink:href="#DejaVuSans-72" x="229.09375"/>
      <use xlink:href="#DejaVuSans-6e" x="268.457031"/>
      <use xlink:href="#DejaVuSans-20" x="331.835938"/>
      <use xlink:href="#DejaVuSans-5b" x="363.623047"/>
      <use xlink:href="#DejaVuSans-25" x="402.636719"/>
      <use xlink:href="#DejaVuSans-5d" x="497.65625"/>
     </g>
    </g>
   </g>
   <g id="line2d_14">
    <path d="M 115.363636 319.70179 
L 116.829743 325.480144 
L 118.295849 334.338944 
L 119.761955 336.714713 
L 124.160273 339.473021 
L 125.626379 340.872309 
L 127.092486 350.979395 
L 128.558592 323.809052 
L 130.024698 324.392927 
L 134.423016 309.886642 
L 135.889122 313.148291 
L 137.355229 307.843078 
L 138.821335 310.168513 
L 140.287441 303.141873 
L 144.685759 302.356662 
L 146.151865 308.618223 
L 147.617972 305.839781 
L 149.084078 297.856794 
L 150.550184 306.383389 
L 154.948502 304.843166 
L 156.414609 293.387126 
L 157.880715 297.695725 
L 159.346821 291.927438 
L 160.812927 296.578308 
L 165.211245 290.991224 
L 166.677352 282.545163 
L 168.143458 277.52182 
L 169.609564 290.004675 
L 171.07567 282.424361 
L 175.473988 296.548107 
L 176.940095 293.548195 
L 178.406201 271.260259 
L 179.872307 263.075936 
L 181.338413 268.44155 
L 185.736731 261.98872 
L 187.202838 272.035404 
L 188.668944 276.273535 
L 190.13505 275.800395 
L 191.601156 265.139634 
L 195.999475 253.733928 
L 197.465581 300.625169 
L 198.931687 326.023752 
L 200.397793 332.728253 
L 201.863899 324.302326 
L 206.262218 335.999969 
L 207.728324 335.355692 
L 209.19443 319.379652 
L 210.660536 296.427306 
L 212.126642 294.776347 
L 216.524961 292.10864 
L 217.991067 307.99408 
L 219.457173 347.174137 
L 220.923279 317.07435 
L 222.389385 316.82268 
L 228.25381 287.347035 
L 229.719916 278.880841 
L 231.186022 259.854554 
L 232.652128 261.586047 
L 237.050447 277.280217 
L 238.516553 268.85429 
L 239.982659 282.434428 
L 241.448765 269.206628 
L 242.914871 269.07576 
L 247.31319 257.428451 
L 248.779296 237.707554 
L 250.245402 241.875216 
L 251.711508 241.120205 
L 259.042039 227.479666 
L 260.508145 234.063365 
L 261.974251 230.016504 
L 263.440357 219.627548 
L 267.838676 205.423267 
L 269.304782 204.789057 
L 270.770888 211.352623 
L 272.236994 215.751822 
L 273.7031 200.852931 
L 278.101419 204.627988 
L 279.567525 222.184519 
L 281.033631 218.419529 
L 282.499737 208.282243 
L 283.965843 218.540331 
L 288.364162 209.258725 
L 291.296374 215.339083 
L 292.76248 226.45285 
L 294.228586 218.963138 
L 298.626905 210.47681 
L 300.093011 242.720829 
L 301.559117 243.616776 
L 303.025223 261.747116 
L 304.491329 242.922165 
L 308.889648 228.768219 
L 310.355754 225.597171 
L 311.82186 223.916012 
L 314.754073 213.657924 
L 319.152391 219.859084 
L 320.618497 227.72127 
L 322.084603 203.883044 
L 323.550709 210.003669 
L 325.016816 214.080731 
L 329.415134 207.990305 
L 330.88124 212.097567 
L 332.347346 221.902649 
L 335.279559 190.947182 
L 339.677877 198.195291 
L 341.143983 202.000548 
L 344.076195 250.562881 
L 345.542302 244.412055 
L 349.94062 233.549958 
L 351.406726 245.932144 
L 352.872832 238.855171 
L 354.338939 215.399484 
L 355.805045 207.044025 
L 360.203363 194.903441 
L 361.669469 206.460149 
L 363.135575 204.537387 
L 364.601682 230.348709 
L 370.466106 233.086884 
L 371.932212 238.814904 
L 373.398318 242.08662 
L 374.864425 225.254899 
L 376.330531 228.355479 
L 380.728849 228.727951 
L 382.194955 208.594315 
L 383.661061 203.560905 
L 385.127168 209.017121 
L 386.593274 204.678322 
L 390.991592 189.708963 
L 392.457698 198.034222 
L 393.923805 198.436895 
L 395.389911 175.565083 
L 396.856017 174.095328 
L 401.254335 170.964547 
L 402.720441 182.63199 
L 404.186548 191.218986 
L 405.652654 179.934082 
L 407.11876 199.856316 
L 411.517078 189.789498 
L 414.449291 227.962873 
L 415.915397 271.159591 
L 417.381503 268.018744 
L 421.779821 255.002348 
L 423.245927 239.418913 
L 424.712034 262.361192 
L 426.17814 247.482434 
L 427.644246 262.68333 
L 432.042564 279.716387 
L 433.508671 266.901327 
L 434.974777 239.801452 
L 436.440883 273.585694 
L 437.906989 313.701966 
L 442.305307 278.095629 
L 443.771414 289.853673 
L 445.23752 300.24263 
L 446.703626 338.516673 
L 448.169732 320.61787 
L 452.56805 307.520939 
L 454.034157 313.53083 
L 455.500263 291.645567 
L 456.966369 285.776612 
L 458.432475 273.706496 
L 462.830793 282.827034 
L 464.2969 312.886554 
L 465.763006 296.397105 
L 467.229112 282.474695 
L 468.695218 270.253578 
L 473.093537 261.122973 
L 474.559643 257.327783 
L 476.025749 285.957814 
L 477.491855 292.974387 
L 478.957961 323.899653 
L 483.35628 336.734847 
L 484.822386 311.34633 
L 486.288492 303.111673 
L 487.754598 286.974563 
L 489.220704 303.957286 
L 493.619023 323.094308 
L 495.085129 304.752564 
L 496.551235 261.666581 
L 498.017341 275.206452 
L 499.483447 270.958255 
L 503.881766 285.092068 
L 505.347872 299.195681 
L 506.813978 286.944363 
L 508.280084 266.22685 
L 509.74619 261.898118 
L 514.144509 254.086267 
L 515.610615 247.472367 
L 517.076721 241.532945 
L 518.542827 239.650449 
L 520.008933 225.496503 
L 524.407252 231.445992 
L 525.873358 224.600556 
L 527.339464 222.778462 
L 528.80557 215.429684 
L 530.271676 222.87913 
L 534.669995 233.600292 
L 536.136101 279.605652 
L 537.602207 276.676208 
L 539.068313 296.306504 
L 540.534419 314.094572 
L 544.932738 338.073733 
L 546.398844 308.356485 
L 547.86495 325.027137 
L 549.331056 311.28593 
L 550.797162 310.450384 
L 555.195481 307.118267 
L 556.661587 313.430162 
L 558.127693 300.4943 
L 561.059905 330.674622 
L 565.458224 326.31569 
L 566.92433 320.61787 
L 568.390436 333.533598 
L 569.856542 338.456273 
L 571.322648 369.059401 
L 575.720967 358.076502 
L 577.187073 363.824655 
L 578.653179 362.536102 
L 580.119285 381.642924 
L 581.585391 387.582347 
L 585.98371 418.73915 
L 587.449816 407.454246 
L 588.915922 425.443651 
L 590.382028 430.92 
L 596.246453 421.849797 
L 597.712559 425.896658 
L 599.178665 389.927915 
L 600.644771 385.146177 
L 602.110878 377.495394 
L 606.509196 381.84426 
L 607.975302 403.155715 
L 609.441408 382.367735 
L 610.907514 378.985284 
L 612.373621 364.418597 
L 616.771939 353.143761 
L 618.238045 352.459217 
L 619.704151 354.170576 
L 621.170257 382.116064 
L 622.636364 386.575665 
L 622.636364 386.575665 
" clip-path="url(#pcf32eafa58)" style="fill: none; stroke: #1f77b4; stroke-width: 1.5; stroke-linecap: square"/>
   </g>
   <g id="line2d_15">
    <path d="M 115.363636 319.70179 
L 116.829743 301.222653 
L 118.295849 305.579198 
L 119.761955 314.287178 
L 124.160273 312.842141 
L 125.626379 306.362199 
L 127.092486 311.39432 
L 128.558592 306.556343 
L 130.024698 295.523637 
L 134.423016 286.670813 
L 135.889122 264.00965 
L 137.355229 259.264532 
L 138.821335 245.710316 
L 140.287441 245.277458 
L 144.685759 236.09361 
L 146.151865 236.98599 
L 147.617972 242.745224 
L 149.084078 231.205201 
L 150.550184 240.361068 
L 154.948502 244.66431 
L 156.414609 245.775726 
L 157.880715 242.090863 
L 159.346821 246.270119 
L 160.812927 235.400089 
L 165.211245 228.792915 
L 166.677352 215.071677 
L 168.143458 209.002844 
L 169.609564 218.354905 
L 171.07567 232.088852 
L 175.473988 225.823438 
L 176.940095 229.770355 
L 178.406201 202.784875 
L 179.872307 191.424613 
L 181.338413 189.480682 
L 185.736731 186.511858 
L 187.202838 180.495418 
L 188.668944 196.243725 
L 190.13505 196.721649 
L 191.601156 199.420318 
L 195.999475 195.670906 
L 197.465581 195.670906 
L 198.931687 263.924004 
L 228.25381 263.924004 
L 229.719916 239.850117 
L 231.186022 226.20052 
L 232.652128 215.324657 
L 237.050447 197.211546 
L 238.516553 180.199517 
L 239.982659 185.008561 
L 241.448765 162.635182 
L 242.914871 155.370404 
L 247.31319 141.440242 
L 248.779296 130.084268 
L 250.245402 105.401734 
L 251.711508 121.875501 
L 259.042039 113.136952 
L 260.508145 94.612866 
L 261.974251 113.938752 
L 263.440357 107.59082 
L 267.838676 107.352873 
L 269.304782 112.492337 
L 270.770888 112.963031 
L 272.236994 141.471032 
L 273.7031 137.346895 
L 278.101419 116.796892 
L 279.567525 122.528053 
L 281.033631 133.589571 
L 282.499737 125.071404 
L 288.364162 139.241968 
L 291.296374 134.649856 
L 292.76248 121.996785 
L 294.228586 123.84325 
L 298.626905 113.377188 
L 300.093011 120.594774 
L 301.559117 135.833272 
L 303.025223 144.248671 
L 304.491329 144.498245 
L 322.084603 144.498245 
L 323.550709 133.211003 
L 325.016816 144.076772 
L 329.415134 130.454514 
L 330.88124 136.903418 
L 332.347346 152.705941 
L 333.813452 143.854399 
L 335.279559 136.905096 
L 339.677877 135.561774 
L 341.143983 140.329549 
L 344.076195 159.828112 
L 345.542302 186.724589 
L 349.94062 165.905466 
L 351.406726 168.178863 
L 352.872832 180.387309 
L 354.338939 174.595107 
L 355.805045 164.515551 
L 360.203363 157.270179 
L 361.669469 155.808195 
L 363.135575 166.160187 
L 364.601682 174.597192 
L 373.398318 174.597192 
L 374.864425 165.665356 
L 376.330531 166.412713 
L 380.728849 161.777782 
L 382.194955 156.370119 
L 383.661061 155.785619 
L 385.127168 151.044301 
L 386.593274 147.897657 
L 390.991592 147.897657 
L 392.457698 144.435075 
L 393.923805 161.055978 
L 395.389911 147.888512 
L 396.856017 117.876823 
L 401.254335 117.072964 
L 402.720441 131.973608 
L 404.186548 139.680093 
L 405.652654 138.994212 
L 407.11876 137.698753 
L 411.517078 144.214279 
L 412.983184 136.491796 
L 414.449291 155.583756 
L 456.966369 155.583756 
L 458.432475 137.709182 
L 462.830793 113.667958 
L 464.2969 123.631404 
L 465.763006 149.001624 
L 467.229112 111.809254 
L 468.695218 92.115109 
L 473.093537 84.030292 
L 474.559643 87.583843 
L 476.025749 87.858633 
L 477.491855 98.034862 
L 478.957961 115.147822 
L 483.35628 155.437941 
L 484.822386 156.665532 
L 486.288492 152.008906 
L 487.754598 153.807001 
L 489.220704 136.480272 
L 493.619023 150.612434 
L 495.085129 168.853302 
L 496.551235 120.703475 
L 498.017341 120.703475 
L 499.483447 124.201947 
L 503.881766 124.201947 
L 505.347872 122.647482 
L 506.813978 120.268034 
L 508.280084 111.518679 
L 509.74619 107.262589 
L 514.144509 108.628599 
L 515.610615 90.225353 
L 517.076721 97.943586 
L 518.542827 106.390483 
L 520.008933 104.916609 
L 524.407252 86.107363 
L 525.873358 102.141427 
L 527.339464 99.551915 
L 528.80557 88.602524 
L 530.271676 81.653215 
L 534.669995 78.12 
L 536.136101 115.080568 
L 537.602207 119.869875 
L 539.068313 100.424091 
L 540.534419 93.303232 
L 544.932738 148.174477 
L 610.907514 148.174477 
L 612.373621 151.622299 
L 616.771939 143.7609 
L 618.238045 149.653096 
L 619.704151 160.685749 
L 621.170257 173.02777 
L 622.636364 192.847974 
L 622.636364 192.847974 
" clip-path="url(#pcf32eafa58)" style="fill: none; stroke: #ff7f0e; stroke-width: 1.5; stroke-linecap: square"/>
   </g>
   <g id="patch_3">
    <path d="M 90 448.56 
L 90 60.48 
" style="fill: none; stroke: #000000; stroke-width: 0.8; stroke-linejoin: miter; stroke-linecap: square"/>
   </g>
   <g id="patch_4">
    <path d="M 648 448.56 
L 648 60.48 
" style="fill: none; stroke: #000000; stroke-width: 0.8; stroke-linejoin: miter; stroke-linecap: square"/>
   </g>
   <g id="patch_5">
    <path d="M 90 448.56 
L 648 448.56 
" style="fill: none; stroke: #000000; stroke-width: 0.8; stroke-linejoin: miter; stroke-linecap: square"/>
   </g>
   <g id="patch_6">
    <path d="M 90 60.48 
L 648 60.48 
" style="fill: none; stroke: #000000; stroke-width: 0.8; stroke-linejoin: miter; stroke-linecap: square"/>
   </g>
   <g id="text_16">
    <!-- Performance of AVAN-strategy year 2007 -->
    <g transform="translate(245.686875 54.48)scale(0.12 -0.12)">
     <defs>
      <path id="DejaVuSans-50" d="M 1259 4147 
L 1259 2394 
L 2053 2394 
Q 2494 2394 2734 2622 
Q 2975 2850 2975 3272 
Q 2975 3691 2734 3919 
Q 2494 4147 2053 4147 
L 1259 4147 
z
M 628 4666 
L 2053 4666 
Q 2838 4666 3239 4311 
Q 3641 3956 3641 3272 
Q 3641 2581 3239 2228 
Q 2838 1875 2053 1875 
L 1259 1875 
L 1259 0 
L 628 0 
L 628 4666 
z
" transform="scale(0.015625)"/>
      <path id="DejaVuSans-66" d="M 2375 4863 
L 2375 4384 
L 1825 4384 
Q 1516 4384 1395 4259 
Q 1275 4134 1275 3809 
L 1275 3500 
L 2222 3500 
L 2222 3053 
L 1275 3053 
L 1275 0 
L 697 0 
L 697 3053 
L 147 3053 
L 147 3500 
L 697 3500 
L 697 3744 
Q 697 4328 969 4595 
Q 1241 4863 1831 4863 
L 2375 4863 
z
" transform="scale(0.015625)"/>
      <path id="DejaVuSans-6f" d="M 1959 3097 
Q 1497 3097 1228 2736 
Q 959 2375 959 1747 
Q 959 1119 1226 758 
Q 1494 397 1959 397 
Q 2419 397 2687 759 
Q 2956 1122 2956 1747 
Q 2956 2369 2687 2733 
Q 2419 3097 1959 3097 
z
M 1959 3584 
Q 2709 3584 3137 3096 
Q 3566 2609 3566 1747 
Q 3566 888 3137 398 
Q 2709 -91 1959 -91 
Q 1206 -91 779 398 
Q 353 888 353 1747 
Q 353 2609 779 3096 
Q 1206 3584 1959 3584 
z
" transform="scale(0.015625)"/>
      <path id="DejaVuSans-61" d="M 2194 1759 
Q 1497 1759 1228 1600 
Q 959 1441 959 1056 
Q 959 750 1161 570 
Q 1363 391 1709 391 
Q 2188 391 2477 730 
Q 2766 1069 2766 1631 
L 2766 1759 
L 2194 1759 
z
M 3341 1997 
L 3341 0 
L 2766 0 
L 2766 531 
Q 2569 213 2275 61 
Q 1981 -91 1556 -91 
Q 1019 -91 701 211 
Q 384 513 384 1019 
Q 384 1609 779 1909 
Q 1175 2209 1959 2209 
L 2766 2209 
L 2766 2266 
Q 2766 2663 2505 2880 
Q 2244 3097 1772 3097 
Q 1472 3097 1187 3025 
Q 903 2953 641 2809 
L 641 3341 
Q 956 3463 1253 3523 
Q 1550 3584 1831 3584 
Q 2591 3584 2966 3190 
Q 3341 2797 3341 1997 
z
" transform="scale(0.015625)"/>
      <path id="DejaVuSans-63" d="M 3122 3366 
L 3122 2828 
Q 2878 2963 2633 3030 
Q 2388 3097 2138 3097 
Q 1578 3097 1268 2742 
Q 959 2388 959 1747 
Q 959 1106 1268 751 
Q 1578 397 2138 397 
Q 2388 397 2633 464 
Q 2878 531 3122 666 
L 3122 134 
Q 2881 22 2623 -34 
Q 2366 -91 2075 -91 
Q 1284 -91 818 406 
Q 353 903 353 1747 
Q 353 2603 823 3093 
Q 1294 3584 2113 3584 
Q 2378 3584 2631 3529 
Q 2884 3475 3122 3366 
z
" transform="scale(0.015625)"/>
      <path id="DejaVuSans-41" d="M 2188 4044 
L 1331 1722 
L 3047 1722 
L 2188 4044 
z
M 1831 4666 
L 2547 4666 
L 4325 0 
L 3669 0 
L 3244 1197 
L 1141 1197 
L 716 0 
L 50 0 
L 1831 4666 
z
" transform="scale(0.015625)"/>
      <path id="DejaVuSans-56" d="M 1831 0 
L 50 4666 
L 709 4666 
L 2188 738 
L 3669 4666 
L 4325 4666 
L 2547 0 
L 1831 0 
z
" transform="scale(0.015625)"/>
      <path id="DejaVuSans-4e" d="M 628 4666 
L 1478 4666 
L 3547 763 
L 3547 4666 
L 4159 4666 
L 4159 0 
L 3309 0 
L 1241 3903 
L 1241 0 
L 628 0 
L 628 4666 
z
" transform="scale(0.015625)"/>
      <path id="DejaVuSans-73" d="M 2834 3397 
L 2834 2853 
Q 2591 2978 2328 3040 
Q 2066 3103 1784 3103 
Q 1356 3103 1142 2972 
Q 928 2841 928 2578 
Q 928 2378 1081 2264 
Q 1234 2150 1697 2047 
L 1894 2003 
Q 2506 1872 2764 1633 
Q 3022 1394 3022 966 
Q 3022 478 2636 193 
Q 2250 -91 1575 -91 
Q 1294 -91 989 -36 
Q 684 19 347 128 
L 347 722 
Q 666 556 975 473 
Q 1284 391 1588 391 
Q 1994 391 2212 530 
Q 2431 669 2431 922 
Q 2431 1156 2273 1281 
Q 2116 1406 1581 1522 
L 1381 1569 
Q 847 1681 609 1914 
Q 372 2147 372 2553 
Q 372 3047 722 3315 
Q 1072 3584 1716 3584 
Q 2034 3584 2315 3537 
Q 2597 3491 2834 3397 
z
" transform="scale(0.015625)"/>
      <path id="DejaVuSans-67" d="M 2906 1791 
Q 2906 2416 2648 2759 
Q 2391 3103 1925 3103 
Q 1463 3103 1205 2759 
Q 947 2416 947 1791 
Q 947 1169 1205 825 
Q 1463 481 1925 481 
Q 2391 481 2648 825 
Q 2906 1169 2906 1791 
z
M 3481 434 
Q 3481 -459 3084 -895 
Q 2688 -1331 1869 -1331 
Q 1566 -1331 1297 -1286 
Q 1028 -1241 775 -1147 
L 775 -588 
Q 1028 -725 1275 -790 
Q 1522 -856 1778 -856 
Q 2344 -856 2625 -561 
Q 2906 -266 2906 331 
L 2906 616 
Q 2728 306 2450 153 
Q 2172 0 1784 0 
Q 1141 0 747 490 
Q 353 981 353 1791 
Q 353 2603 747 3093 
Q 1141 3584 1784 3584 
Q 2172 3584 2450 3431 
Q 2728 3278 2906 2969 
L 2906 3500 
L 3481 3500 
L 3481 434 
z
" transform="scale(0.015625)"/>
      <path id="DejaVuSans-79" d="M 2059 -325 
Q 1816 -950 1584 -1140 
Q 1353 -1331 966 -1331 
L 506 -1331 
L 506 -850 
L 844 -850 
Q 1081 -850 1212 -737 
Q 1344 -625 1503 -206 
L 1606 56 
L 191 3500 
L 800 3500 
L 1894 763 
L 2988 3500 
L 3597 3500 
L 2059 -325 
z
" transform="scale(0.015625)"/>
     </defs>
     <use xlink:href="#DejaVuSans-50"/>
     <use xlink:href="#DejaVuSans-65" x="56.677734"/>
     <use xlink:href="#DejaVuSans-72" x="118.201172"/>
     <use xlink:href="#DejaVuSans-66" x="159.314453"/>
     <use xlink:href="#DejaVuSans-6f" x="194.519531"/>
     <use xlink:href="#DejaVuSans-72" x="255.701172"/>
     <use xlink:href="#DejaVuSans-6d" x="295.064453"/>
     <use xlink:href="#DejaVuSans-61" x="392.476562"/>
     <use xlink:href="#DejaVuSans-6e" x="453.755859"/>
     <use xlink:href="#DejaVuSans-63" x="517.134766"/>
     <use xlink:href="#DejaVuSans-65" x="572.115234"/>
     <use xlink:href="#DejaVuSans-20" x="633.638672"/>
     <use xlink:href="#DejaVuSans-6f" x="665.425781"/>
     <use xlink:href="#DejaVuSans-66" x="726.607422"/>
     <use xlink:href="#DejaVuSans-20" x="761.8125"/>
     <use xlink:href="#DejaVuSans-41" x="793.599609"/>
     <use xlink:href="#DejaVuSans-56" x="855.632812"/>
     <use xlink:href="#DejaVuSans-41" x="917.666016"/>
     <use xlink:href="#DejaVuSans-4e" x="986.074219"/>
     <use xlink:href="#DejaVuSans-2d" x="1060.878906"/>
     <use xlink:href="#DejaVuSans-73" x="1096.962891"/>
     <use xlink:href="#DejaVuSans-74" x="1149.0625"/>
     <use xlink:href="#DejaVuSans-72" x="1188.271484"/>
     <use xlink:href="#DejaVuSans-61" x="1229.384766"/>
     <use xlink:href="#DejaVuSans-74" x="1290.664062"/>
     <use xlink:href="#DejaVuSans-65" x="1329.873047"/>
     <use xlink:href="#DejaVuSans-67" x="1391.396484"/>
     <use xlink:href="#DejaVuSans-79" x="1454.873047"/>
     <use xlink:href="#DejaVuSans-20" x="1514.052734"/>
     <use xlink:href="#DejaVuSans-79" x="1545.839844"/>
     <use xlink:href="#DejaVuSans-65" x="1605.019531"/>
     <use xlink:href="#DejaVuSans-61" x="1666.542969"/>
     <use xlink:href="#DejaVuSans-72" x="1727.822266"/>
     <use xlink:href="#DejaVuSans-20" x="1768.935547"/>
     <use xlink:href="#DejaVuSans-32" x="1800.722656"/>
     <use xlink:href="#DejaVuSans-30" x="1864.345703"/>
     <use xlink:href="#DejaVuSans-30" x="1927.96875"/>
     <use xlink:href="#DejaVuSans-37" x="1991.591797"/>
    </g>
   </g>
   <g id="legend_1">
    <g id="patch_7">
     <path d="M 97 97.83625 
L 243.509375 97.83625 
Q 245.509375 97.83625 245.509375 95.83625 
L 245.509375 67.48 
Q 245.509375 65.48 243.509375 65.48 
L 97 65.48 
Q 95 65.48 95 67.48 
L 95 95.83625 
Q 95 97.83625 97 97.83625 
z
" style="fill: #ffffff; opacity: 0.8; stroke: #cccccc; stroke-linejoin: miter"/>
    </g>
    <g id="line2d_16">
     <path d="M 99 73.578438 
L 109 73.578438 
L 119 73.578438 
" style="fill: none; stroke: #1f77b4; stroke-width: 1.5; stroke-linecap: square"/>
    </g>
    <g id="text_17">
     <!-- -5.7065% return omx -->
     <g transform="translate(127 77.078438)scale(0.1 -0.1)">
      <defs>
       <path id="DejaVuSans-2e" d="M 684 794 
L 1344 794 
L 1344 0 
L 684 0 
L 684 794 
z
" transform="scale(0.015625)"/>
       <path id="DejaVuSans-36" d="M 2113 2584 
Q 1688 2584 1439 2293 
Q 1191 2003 1191 1497 
Q 1191 994 1439 701 
Q 1688 409 2113 409 
Q 2538 409 2786 701 
Q 3034 994 3034 1497 
Q 3034 2003 2786 2293 
Q 2538 2584 2113 2584 
z
M 3366 4563 
L 3366 3988 
Q 3128 4100 2886 4159 
Q 2644 4219 2406 4219 
Q 1781 4219 1451 3797 
Q 1122 3375 1075 2522 
Q 1259 2794 1537 2939 
Q 1816 3084 2150 3084 
Q 2853 3084 3261 2657 
Q 3669 2231 3669 1497 
Q 3669 778 3244 343 
Q 2819 -91 2113 -91 
Q 1303 -91 875 529 
Q 447 1150 447 2328 
Q 447 3434 972 4092 
Q 1497 4750 2381 4750 
Q 2619 4750 2861 4703 
Q 3103 4656 3366 4563 
z
" transform="scale(0.015625)"/>
       <path id="DejaVuSans-78" d="M 3513 3500 
L 2247 1797 
L 3578 0 
L 2900 0 
L 1881 1375 
L 863 0 
L 184 0 
L 1544 1831 
L 300 3500 
L 978 3500 
L 1906 2253 
L 2834 3500 
L 3513 3500 
z
" transform="scale(0.015625)"/>
      </defs>
      <use xlink:href="#DejaVuSans-2d"/>
      <use xlink:href="#DejaVuSans-35" x="36.083984"/>
      <use xlink:href="#DejaVuSans-2e" x="99.707031"/>
      <use xlink:href="#DejaVuSans-37" x="131.494141"/>
      <use xlink:href="#DejaVuSans-30" x="195.117188"/>
      <use xlink:href="#DejaVuSans-36" x="258.740234"/>
      <use xlink:href="#DejaVuSans-35" x="322.363281"/>
      <use xlink:href="#DejaVuSans-25" x="385.986328"/>
      <use xlink:href="#DejaVuSans-20" x="481.005859"/>
      <use xlink:href="#DejaVuSans-72" x="512.792969"/>
      <use xlink:href="#DejaVuSans-65" x="551.65625"/>
      <use xlink:href="#DejaVuSans-74" x="613.179688"/>
      <use xlink:href="#DejaVuSans-75" x="652.388672"/>
      <use xlink:href="#DejaVuSans-72" x="715.767578"/>
      <use xlink:href="#DejaVuSans-6e" x="755.130859"/>
      <use xlink:href="#DejaVuSans-20" x="818.509766"/>
      <use xlink:href="#DejaVuSans-6f" x="850.296875"/>
      <use xlink:href="#DejaVuSans-6d" x="911.478516"/>
      <use xlink:href="#DejaVuSans-78" x="1008.890625"/>
     </g>
    </g>
    <g id="line2d_17">
     <path d="M 99 88.256563 
L 109 88.256563 
L 119 88.256563 
" style="fill: none; stroke: #ff7f0e; stroke-width: 1.5; stroke-linecap: square"/>
    </g>
    <g id="text_18">
     <!-- 10.8246% return AVAN -->
     <g transform="translate(127 91.756563)scale(0.1 -0.1)">
      <defs>
       <path id="DejaVuSans-38" d="M 2034 2216 
Q 1584 2216 1326 1975 
Q 1069 1734 1069 1313 
Q 1069 891 1326 650 
Q 1584 409 2034 409 
Q 2484 409 2743 651 
Q 3003 894 3003 1313 
Q 3003 1734 2745 1975 
Q 2488 2216 2034 2216 
z
M 1403 2484 
Q 997 2584 770 2862 
Q 544 3141 544 3541 
Q 544 4100 942 4425 
Q 1341 4750 2034 4750 
Q 2731 4750 3128 4425 
Q 3525 4100 3525 3541 
Q 3525 3141 3298 2862 
Q 3072 2584 2669 2484 
Q 3125 2378 3379 2068 
Q 3634 1759 3634 1313 
Q 3634 634 3220 271 
Q 2806 -91 2034 -91 
Q 1263 -91 848 271 
Q 434 634 434 1313 
Q 434 1759 690 2068 
Q 947 2378 1403 2484 
z
M 1172 3481 
Q 1172 3119 1398 2916 
Q 1625 2713 2034 2713 
Q 2441 2713 2670 2916 
Q 2900 3119 2900 3481 
Q 2900 3844 2670 4047 
Q 2441 4250 2034 4250 
Q 1625 4250 1398 4047 
Q 1172 3844 1172 3481 
z
" transform="scale(0.015625)"/>
       <path id="DejaVuSans-34" d="M 2419 4116 
L 825 1625 
L 2419 1625 
L 2419 4116 
z
M 2253 4666 
L 3047 4666 
L 3047 1625 
L 3713 1625 
L 3713 1100 
L 3047 1100 
L 3047 0 
L 2419 0 
L 2419 1100 
L 313 1100 
L 313 1709 
L 2253 4666 
z
" transform="scale(0.015625)"/>
      </defs>
      <use xlink:href="#DejaVuSans-31"/>
      <use xlink:href="#DejaVuSans-30" x="63.623047"/>
      <use xlink:href="#DejaVuSans-2e" x="127.246094"/>
      <use xlink:href="#DejaVuSans-38" x="159.033203"/>
      <use xlink:href="#DejaVuSans-32" x="222.65625"/>
      <use xlink:href="#DejaVuSans-34" x="286.279297"/>
      <use xlink:href="#DejaVuSans-36" x="349.902344"/>
      <use xlink:href="#DejaVuSans-25" x="413.525391"/>
      <use xlink:href="#DejaVuSans-20" x="508.544922"/>
      <use xlink:href="#DejaVuSans-72" x="540.332031"/>
      <use xlink:href="#DejaVuSans-65" x="579.195312"/>
      <use xlink:href="#DejaVuSans-74" x="640.71875"/>
      <use xlink:href="#DejaVuSans-75" x="679.927734"/>
      <use xlink:href="#DejaVuSans-72" x="743.306641"/>
      <use xlink:href="#DejaVuSans-6e" x="782.669922"/>
      <use xlink:href="#DejaVuSans-20" x="846.048828"/>
      <use xlink:href="#DejaVuSans-41" x="877.835938"/>
      <use xlink:href="#DejaVuSans-56" x="939.869141"/>
      <use xlink:href="#DejaVuSans-41" x="1001.902344"/>
      <use xlink:href="#DejaVuSans-4e" x="1070.310547"/>
     </g>
    </g>
   </g>
  </g>
 </g>
 <defs>
  <clipPath id="pcf32eafa58">
   <rect x="90" y="60.48" width="558" height="388.08"/>
  </clipPath>
 </defs>
</svg>
