<?xml version="1.0" encoding="utf-8" standalone="no"?>
<!DOCTYPE svg PUBLIC "-//W3C//DTD SVG 1.1//EN"
  "http://www.w3.org/Graphics/SVG/1.1/DTD/svg11.dtd">
<svg xmlns:xlink="http://www.w3.org/1999/xlink" width="576pt" height="432pt" viewBox="0 0 576 432" xmlns="http://www.w3.org/2000/svg" version="1.1">
 <metadata>
  <rdf:RDF xmlns:dc="http://purl.org/dc/elements/1.1/" xmlns:cc="http://creativecommons.org/ns#" xmlns:rdf="http://www.w3.org/1999/02/22-rdf-syntax-ns#">
   <cc:Work>
    <dc:type rdf:resource="http://purl.org/dc/dcmitype/StillImage"/>
    <dc:date>2023-01-15T23:56:29.260410</dc:date>
    <dc:format>image/svg+xml</dc:format>
    <dc:creator>
     <cc:Agent>
      <dc:title>Matplotlib v3.5.0, https://matplotlib.org/</dc:title>
     </cc:Agent>
    </dc:creator>
   </cc:Work>
  </rdf:RDF>
 </metadata>
 <defs>
  <style type="text/css">*{stroke-linejoin: round; stroke-linecap: butt}</style>
 </defs>
 <g id="figure_1">
  <g id="patch_1">
   <path d="M 0 432 
L 576 432 
L 576 0 
L 0 0 
z
" style="fill: #ffffff"/>
  </g>
  <g id="axes_1">
   <g id="patch_2">
    <path d="M 46.55 288.132273 
L 561.364091 288.132273 
L 561.364091 26.88 
L 46.55 26.88 
z
" style="fill: #ffffff"/>
   </g>
   <g id="matplotlib.axis_1">
    <g id="xtick_1">
     <g id="line2d_1">
      <defs>
       <path id="m9a5dfd786e" d="M 0 0 
L 0 3.5 
" style="stroke: #000000; stroke-width: 0.8"/>
      </defs>
      <g>
       <use xlink:href="#m9a5dfd786e" x="67.350569" y="288.132273" style="stroke: #000000; stroke-width: 0.8"/>
      </g>
     </g>
    </g>
    <g id="xtick_2">
     <g id="line2d_2">
      <g>
       <use xlink:href="#m9a5dfd786e" x="144.052669" y="288.132273" style="stroke: #000000; stroke-width: 0.8"/>
      </g>
     </g>
    </g>
    <g id="xtick_3">
     <g id="line2d_3">
      <g>
       <use xlink:href="#m9a5dfd786e" x="223.354839" y="288.132273" style="stroke: #000000; stroke-width: 0.8"/>
      </g>
     </g>
    </g>
    <g id="xtick_4">
     <g id="line2d_4">
      <g>
       <use xlink:href="#m9a5dfd786e" x="302.65701" y="288.132273" style="stroke: #000000; stroke-width: 0.8"/>
      </g>
     </g>
    </g>
    <g id="xtick_5">
     <g id="line2d_5">
      <g>
       <use xlink:href="#m9a5dfd786e" x="383.259216" y="288.132273" style="stroke: #000000; stroke-width: 0.8"/>
      </g>
     </g>
    </g>
    <g id="xtick_6">
     <g id="line2d_6">
      <g>
       <use xlink:href="#m9a5dfd786e" x="462.561387" y="288.132273" style="stroke: #000000; stroke-width: 0.8"/>
      </g>
     </g>
    </g>
    <g id="xtick_7">
     <g id="line2d_7">
      <g>
       <use xlink:href="#m9a5dfd786e" x="541.863557" y="288.132273" style="stroke: #000000; stroke-width: 0.8"/>
      </g>
     </g>
    </g>
   </g>
   <g id="matplotlib.axis_2">
    <g id="ytick_1">
     <g id="line2d_8">
      <defs>
       <path id="mf8b71842ae" d="M 0 0 
L -3.5 0 
" style="stroke: #000000; stroke-width: 0.8"/>
      </defs>
      <g>
       <use xlink:href="#mf8b71842ae" x="46.55" y="255.649084" style="stroke: #000000; stroke-width: 0.8"/>
      </g>
     </g>
     <g id="text_1">
      <!-- 0 -->
      <g transform="translate(33.1875 259.448302)scale(0.1 -0.1)">
       <defs>
        <path id="DejaVuSans-30" d="M 2034 4250 
Q 1547 4250 1301 3770 
Q 1056 3291 1056 2328 
Q 1056 1369 1301 889 
Q 1547 409 2034 409 
Q 2525 409 2770 889 
Q 3016 1369 3016 2328 
Q 3016 3291 2770 3770 
Q 2525 4250 2034 4250 
z
M 2034 4750 
Q 2819 4750 3233 4129 
Q 3647 3509 3647 2328 
Q 3647 1150 3233 529 
Q 2819 -91 2034 -91 
Q 1250 -91 836 529 
Q 422 1150 422 2328 
Q 422 3509 836 4129 
Q 1250 4750 2034 4750 
z
" transform="scale(0.015625)"/>
       </defs>
       <use xlink:href="#DejaVuSans-30"/>
      </g>
     </g>
    </g>
    <g id="ytick_2">
     <g id="line2d_9">
      <g>
       <use xlink:href="#mf8b71842ae" x="46.55" y="220.693287" style="stroke: #000000; stroke-width: 0.8"/>
      </g>
     </g>
     <g id="text_2">
      <!-- 5 -->
      <g transform="translate(33.1875 224.492506)scale(0.1 -0.1)">
       <defs>
        <path id="DejaVuSans-35" d="M 691 4666 
L 3169 4666 
L 3169 4134 
L 1269 4134 
L 1269 2991 
Q 1406 3038 1543 3061 
Q 1681 3084 1819 3084 
Q 2600 3084 3056 2656 
Q 3513 2228 3513 1497 
Q 3513 744 3044 326 
Q 2575 -91 1722 -91 
Q 1428 -91 1123 -41 
Q 819 9 494 109 
L 494 744 
Q 775 591 1075 516 
Q 1375 441 1709 441 
Q 2250 441 2565 725 
Q 2881 1009 2881 1497 
Q 2881 1984 2565 2268 
Q 2250 2553 1709 2553 
Q 1456 2553 1204 2497 
Q 953 2441 691 2322 
L 691 4666 
z
" transform="scale(0.015625)"/>
       </defs>
       <use xlink:href="#DejaVuSans-35"/>
      </g>
     </g>
    </g>
    <g id="ytick_3">
     <g id="line2d_10">
      <g>
       <use xlink:href="#mf8b71842ae" x="46.55" y="185.73749" style="stroke: #000000; stroke-width: 0.8"/>
      </g>
     </g>
     <g id="text_3">
      <!-- 10 -->
      <g transform="translate(26.825 189.536709)scale(0.1 -0.1)">
       <defs>
        <path id="DejaVuSans-31" d="M 794 531 
L 1825 531 
L 1825 4091 
L 703 3866 
L 703 4441 
L 1819 4666 
L 2450 4666 
L 2450 531 
L 3481 531 
L 3481 0 
L 794 0 
L 794 531 
z
" transform="scale(0.015625)"/>
       </defs>
       <use xlink:href="#DejaVuSans-31"/>
       <use xlink:href="#DejaVuSans-30" x="63.623047"/>
      </g>
     </g>
    </g>
    <g id="ytick_4">
     <g id="line2d_11">
      <g>
       <use xlink:href="#mf8b71842ae" x="46.55" y="150.781693" style="stroke: #000000; stroke-width: 0.8"/>
      </g>
     </g>
     <g id="text_4">
      <!-- 15 -->
      <g transform="translate(26.825 154.580912)scale(0.1 -0.1)">
       <use xlink:href="#DejaVuSans-31"/>
       <use xlink:href="#DejaVuSans-35" x="63.623047"/>
      </g>
     </g>
    </g>
    <g id="ytick_5">
     <g id="line2d_12">
      <g>
       <use xlink:href="#mf8b71842ae" x="46.55" y="115.825896" style="stroke: #000000; stroke-width: 0.8"/>
      </g>
     </g>
     <g id="text_5">
      <!-- 20 -->
      <g transform="translate(26.825 119.625115)scale(0.1 -0.1)">
       <defs>
        <path id="DejaVuSans-32" d="M 1228 531 
L 3431 531 
L 3431 0 
L 469 0 
L 469 531 
Q 828 903 1448 1529 
Q 2069 2156 2228 2338 
Q 2531 2678 2651 2914 
Q 2772 3150 2772 3378 
Q 2772 3750 2511 3984 
Q 2250 4219 1831 4219 
Q 1534 4219 1204 4116 
Q 875 4013 500 3803 
L 500 4441 
Q 881 4594 1212 4672 
Q 1544 4750 1819 4750 
Q 2544 4750 2975 4387 
Q 3406 4025 3406 3419 
Q 3406 3131 3298 2873 
Q 3191 2616 2906 2266 
Q 2828 2175 2409 1742 
Q 1991 1309 1228 531 
z
" transform="scale(0.015625)"/>
       </defs>
       <use xlink:href="#DejaVuSans-32"/>
       <use xlink:href="#DejaVuSans-30" x="63.623047"/>
      </g>
     </g>
    </g>
    <g id="ytick_6">
     <g id="line2d_13">
      <g>
       <use xlink:href="#mf8b71842ae" x="46.55" y="80.8701" style="stroke: #000000; stroke-width: 0.8"/>
      </g>
     </g>
     <g id="text_6">
      <!-- 25 -->
      <g transform="translate(26.825 84.669318)scale(0.1 -0.1)">
       <use xlink:href="#DejaVuSans-32"/>
       <use xlink:href="#DejaVuSans-35" x="63.623047"/>
      </g>
     </g>
    </g>
    <g id="ytick_7">
     <g id="line2d_14">
      <g>
       <use xlink:href="#mf8b71842ae" x="46.55" y="45.914303" style="stroke: #000000; stroke-width: 0.8"/>
      </g>
     </g>
     <g id="text_7">
      <!-- 30 -->
      <g transform="translate(26.825 49.713522)scale(0.1 -0.1)">
       <defs>
        <path id="DejaVuSans-33" d="M 2597 2516 
Q 3050 2419 3304 2112 
Q 3559 1806 3559 1356 
Q 3559 666 3084 287 
Q 2609 -91 1734 -91 
Q 1441 -91 1130 -33 
Q 819 25 488 141 
L 488 750 
Q 750 597 1062 519 
Q 1375 441 1716 441 
Q 2309 441 2620 675 
Q 2931 909 2931 1356 
Q 2931 1769 2642 2001 
Q 2353 2234 1838 2234 
L 1294 2234 
L 1294 2753 
L 1863 2753 
Q 2328 2753 2575 2939 
Q 2822 3125 2822 3475 
Q 2822 3834 2567 4026 
Q 2313 4219 1838 4219 
Q 1578 4219 1281 4162 
Q 984 4106 628 3988 
L 628 4550 
Q 988 4650 1302 4700 
Q 1616 4750 1894 4750 
Q 2613 4750 3031 4423 
Q 3450 4097 3450 3541 
Q 3450 3153 3228 2886 
Q 3006 2619 2597 2516 
z
" transform="scale(0.015625)"/>
       </defs>
       <use xlink:href="#DejaVuSans-33"/>
       <use xlink:href="#DejaVuSans-30" x="63.623047"/>
      </g>
     </g>
    </g>
    <g id="text_8">
     <!-- Return [%] -->
     <g transform="translate(20.745313 184.338949)rotate(-90)scale(0.1 -0.1)">
      <defs>
       <path id="DejaVuSans-52" d="M 2841 2188 
Q 3044 2119 3236 1894 
Q 3428 1669 3622 1275 
L 4263 0 
L 3584 0 
L 2988 1197 
Q 2756 1666 2539 1819 
Q 2322 1972 1947 1972 
L 1259 1972 
L 1259 0 
L 628 0 
L 628 4666 
L 2053 4666 
Q 2853 4666 3247 4331 
Q 3641 3997 3641 3322 
Q 3641 2881 3436 2590 
Q 3231 2300 2841 2188 
z
M 1259 4147 
L 1259 2491 
L 2053 2491 
Q 2509 2491 2742 2702 
Q 2975 2913 2975 3322 
Q 2975 3731 2742 3939 
Q 2509 4147 2053 4147 
L 1259 4147 
z
" transform="scale(0.015625)"/>
       <path id="DejaVuSans-65" d="M 3597 1894 
L 3597 1613 
L 953 1613 
Q 991 1019 1311 708 
Q 1631 397 2203 397 
Q 2534 397 2845 478 
Q 3156 559 3463 722 
L 3463 178 
Q 3153 47 2828 -22 
Q 2503 -91 2169 -91 
Q 1331 -91 842 396 
Q 353 884 353 1716 
Q 353 2575 817 3079 
Q 1281 3584 2069 3584 
Q 2775 3584 3186 3129 
Q 3597 2675 3597 1894 
z
M 3022 2063 
Q 3016 2534 2758 2815 
Q 2500 3097 2075 3097 
Q 1594 3097 1305 2825 
Q 1016 2553 972 2059 
L 3022 2063 
z
" transform="scale(0.015625)"/>
       <path id="DejaVuSans-74" d="M 1172 4494 
L 1172 3500 
L 2356 3500 
L 2356 3053 
L 1172 3053 
L 1172 1153 
Q 1172 725 1289 603 
Q 1406 481 1766 481 
L 2356 481 
L 2356 0 
L 1766 0 
Q 1100 0 847 248 
Q 594 497 594 1153 
L 594 3053 
L 172 3053 
L 172 3500 
L 594 3500 
L 594 4494 
L 1172 4494 
z
" transform="scale(0.015625)"/>
       <path id="DejaVuSans-75" d="M 544 1381 
L 544 3500 
L 1119 3500 
L 1119 1403 
Q 1119 906 1312 657 
Q 1506 409 1894 409 
Q 2359 409 2629 706 
Q 2900 1003 2900 1516 
L 2900 3500 
L 3475 3500 
L 3475 0 
L 2900 0 
L 2900 538 
Q 2691 219 2414 64 
Q 2138 -91 1772 -91 
Q 1169 -91 856 284 
Q 544 659 544 1381 
z
M 1991 3584 
L 1991 3584 
z
" transform="scale(0.015625)"/>
       <path id="DejaVuSans-72" d="M 2631 2963 
Q 2534 3019 2420 3045 
Q 2306 3072 2169 3072 
Q 1681 3072 1420 2755 
Q 1159 2438 1159 1844 
L 1159 0 
L 581 0 
L 581 3500 
L 1159 3500 
L 1159 2956 
Q 1341 3275 1631 3429 
Q 1922 3584 2338 3584 
Q 2397 3584 2469 3576 
Q 2541 3569 2628 3553 
L 2631 2963 
z
" transform="scale(0.015625)"/>
       <path id="DejaVuSans-6e" d="M 3513 2113 
L 3513 0 
L 2938 0 
L 2938 2094 
Q 2938 2591 2744 2837 
Q 2550 3084 2163 3084 
Q 1697 3084 1428 2787 
Q 1159 2491 1159 1978 
L 1159 0 
L 581 0 
L 581 3500 
L 1159 3500 
L 1159 2956 
Q 1366 3272 1645 3428 
Q 1925 3584 2291 3584 
Q 2894 3584 3203 3211 
Q 3513 2838 3513 2113 
z
" transform="scale(0.015625)"/>
       <path id="DejaVuSans-20" transform="scale(0.015625)"/>
       <path id="DejaVuSans-5b" d="M 550 4863 
L 1875 4863 
L 1875 4416 
L 1125 4416 
L 1125 -397 
L 1875 -397 
L 1875 -844 
L 550 -844 
L 550 4863 
z
" transform="scale(0.015625)"/>
       <path id="DejaVuSans-25" d="M 4653 2053 
Q 4381 2053 4226 1822 
Q 4072 1591 4072 1178 
Q 4072 772 4226 539 
Q 4381 306 4653 306 
Q 4919 306 5073 539 
Q 5228 772 5228 1178 
Q 5228 1588 5073 1820 
Q 4919 2053 4653 2053 
z
M 4653 2450 
Q 5147 2450 5437 2106 
Q 5728 1763 5728 1178 
Q 5728 594 5436 251 
Q 5144 -91 4653 -91 
Q 4153 -91 3862 251 
Q 3572 594 3572 1178 
Q 3572 1766 3864 2108 
Q 4156 2450 4653 2450 
z
M 1428 4353 
Q 1159 4353 1004 4120 
Q 850 3888 850 3481 
Q 850 3069 1003 2837 
Q 1156 2606 1428 2606 
Q 1700 2606 1854 2837 
Q 2009 3069 2009 3481 
Q 2009 3884 1853 4118 
Q 1697 4353 1428 4353 
z
M 4250 4750 
L 4750 4750 
L 1831 -91 
L 1331 -91 
L 4250 4750 
z
M 1428 4750 
Q 1922 4750 2215 4408 
Q 2509 4066 2509 3481 
Q 2509 2891 2217 2550 
Q 1925 2209 1428 2209 
Q 931 2209 642 2551 
Q 353 2894 353 3481 
Q 353 4063 643 4406 
Q 934 4750 1428 4750 
z
" transform="scale(0.015625)"/>
       <path id="DejaVuSans-5d" d="M 1947 4863 
L 1947 -844 
L 622 -844 
L 622 -397 
L 1369 -397 
L 1369 4416 
L 622 4416 
L 622 4863 
L 1947 4863 
z
" transform="scale(0.015625)"/>
      </defs>
      <use xlink:href="#DejaVuSans-52"/>
      <use xlink:href="#DejaVuSans-65" x="64.982422"/>
      <use xlink:href="#DejaVuSans-74" x="126.505859"/>
      <use xlink:href="#DejaVuSans-75" x="165.714844"/>
      <use xlink:href="#DejaVuSans-72" x="229.09375"/>
      <use xlink:href="#DejaVuSans-6e" x="268.457031"/>
      <use xlink:href="#DejaVuSans-20" x="331.835938"/>
      <use xlink:href="#DejaVuSans-5b" x="363.623047"/>
      <use xlink:href="#DejaVuSans-25" x="402.636719"/>
      <use xlink:href="#DejaVuSans-5d" x="497.65625"/>
     </g>
    </g>
   </g>
   <g id="line2d_15">
    <path d="M 69.95064 250.108023 
L 71.250676 244.642352 
L 72.550712 252.492187 
L 73.850747 252.492187 
L 75.150783 249.863011 
L 79.05089 240.976582 
L 80.350925 250.070329 
L 81.650961 262.782727 
L 82.950996 259.908538 
L 84.251032 254.942316 
L 88.151139 250.136294 
L 89.451174 251.615795 
L 90.75121 251.68176 
L 92.051245 260.370293 
L 93.351281 262.038265 
L 97.251388 269.143638 
L 98.551423 261.011096 
L 99.851459 260.502223 
L 101.151494 255.611389 
L 102.45153 261.830947 
L 106.351637 256.007179 
L 107.651672 247.940602 
L 108.951708 244.19002 
L 110.251744 247.88406 
L 111.551779 242.748214 
L 115.451886 233.211559 
L 116.751921 235.765347 
L 118.051957 230.045239 
L 119.351993 242.691673 
L 120.652028 232.146696 
L 124.552135 233.50369 
L 125.852171 228.773057 
L 127.152206 234.276423 
L 128.452242 234.700484 
L 129.752277 240.439439 
L 133.652384 237.763145 
L 134.95242 239.855177 
L 136.252455 239.365152 
L 137.552491 237.056377 
L 138.852526 229.253659 
L 142.752633 229.178271 
L 144.052669 227.180474 
L 145.352704 222.986984 
L 146.65274 223.919918 
L 147.952775 215.796799 
L 151.852882 219.28352 
L 153.152918 223.703176 
L 154.452953 223.844529 
L 155.752989 232.31632 
L 157.053025 228.000324 
L 160.953131 225.974256 
L 162.253167 221.281318 
L 163.553202 233.456572 
L 164.853238 232.354014 
L 166.153274 234.55913 
L 170.05338 238.413371 
L 171.353416 232.617874 
L 172.653452 229.988698 
L 173.953487 228.697669 
L 180.453665 228.132254 
L 181.753701 229.630602 
L 183.053736 228.782481 
L 184.353772 221.008034 
L 188.253879 224.00473 
L 189.553914 215.834493 
L 190.85395 210.877694 
L 192.153985 211.914287 
L 193.454021 209.275687 
L 197.354128 208.135435 
L 198.654163 212.404313 
L 199.954199 208.578343 
L 201.254234 204.300041 
L 202.55427 215.683716 
L 206.454377 226.454858 
L 207.754412 225.474807 
L 209.054448 221.988086 
L 210.354483 224.174354 
L 211.654519 214.10998 
L 215.554626 213.921508 
L 216.854661 219.424874 
L 218.154697 241.353525 
L 219.454733 249.655692 
L 220.754768 248.430628 
L 224.654875 243.483253 
L 225.95491 240.797535 
L 227.254946 241.834127 
L 229.855017 232.683839 
L 233.755124 230.280829 
L 236.355195 236.566351 
L 237.655231 228.773057 
L 238.955266 224.249743 
L 242.855373 224.513603 
L 244.155409 223.420468 
L 245.455444 218.162115 
L 246.75548 214.910983 
L 248.055515 215.410432 
L 251.955622 215.636598 
L 253.255658 215.353891 
L 254.555693 216.739156 
L 255.855729 210.18035 
L 257.155764 209.624359 
L 261.055871 206.721899 
L 262.355907 208.050623 
L 263.655942 205.044504 
L 264.955978 210.331127 
L 266.256014 212.583361 
L 271.456156 207.023454 
L 272.756191 204.045605 
L 274.056227 205.968014 
L 275.356263 201.265651 
L 279.256369 199.776727 
L 280.556405 193.698523 
L 281.856441 196.685796 
L 283.156476 191.644185 
L 284.456512 192.756166 
L 288.356618 189.712352 
L 289.656654 183.568184 
L 290.95669 183.040464 
L 292.256725 174.276542 
L 297.456868 191.540525 
L 298.756903 187.422425 
L 300.056939 180.844772 
L 301.356974 179.685672 
L 302.65701 172.467216 
L 306.557117 170.403454 
L 307.857152 172.580299 
L 309.157188 171.119646 
L 310.457223 183.407983 
L 311.757259 170.507113 
L 315.657366 157.879527 
L 316.957401 159.594617 
L 318.257437 153.620073 
L 319.557472 153.865086 
L 320.857508 155.212657 
L 324.757615 153.997016 
L 326.05765 151.405534 
L 327.357686 156.776969 
L 328.657722 151.13225 
L 329.957757 151.386686 
L 333.857864 151.490346 
L 335.157899 149.501972 
L 336.457935 142.933743 
L 337.757971 140.756898 
L 339.058006 140.719203 
L 342.958113 141.539054 
L 344.258149 134.094432 
L 345.558184 135.649322 
L 346.85822 141.011334 
L 348.158255 143.508581 
L 352.058362 143.395498 
L 353.358398 140.879404 
L 354.658433 130.334427 
L 355.958469 134.763506 
L 357.258504 137.873285 
L 361.158611 137.458648 
L 362.458647 139.145467 
L 363.758682 143.075096 
L 365.058718 143.009131 
L 366.358753 138.240804 
L 370.25886 137.797896 
L 371.558896 145.044623 
L 374.158967 163.24154 
L 375.459003 168.971071 
L 379.359109 162.176676 
L 380.659145 164.758735 
L 381.95918 154.223182 
L 383.259216 151.980371 
L 384.559252 150.302976 
L 388.459358 147.909389 
L 389.759394 143.970336 
L 391.05943 141.00191 
L 392.359465 143.602816 
L 393.659501 135.922605 
L 397.559607 135.310073 
L 398.859643 137.741355 
L 400.159679 132.058941 
L 401.459714 135.442003 
L 402.75975 132.624355 
L 406.659857 132.66205 
L 407.959892 132.388766 
L 409.259928 140.521308 
L 410.559963 136.893233 
L 411.859999 134.886012 
L 415.760106 122.823841 
L 417.060141 122.880382 
L 418.360177 115.727891 
L 419.660212 115.134206 
L 420.960248 110.139713 
L 424.860355 101.573687 
L 426.16039 104.014392 
L 427.460426 108.057104 
L 428.760461 116.528895 
L 430.060497 117.829348 
L 433.960604 114.125884 
L 435.260639 113.701823 
L 436.560675 122.880382 
L 437.860711 131.201396 
L 439.160746 128.949162 
L 443.060853 132.190871 
L 444.360888 134.857742 
L 445.660924 147.636105 
L 446.96096 145.562919 
L 448.260995 149.426584 
L 452.161102 141.039605 
L 453.461138 134.179245 
L 454.761173 132.172024 
L 456.061209 141.642713 
L 457.361244 141.831185 
L 461.261351 123.012312 
L 462.561387 120.015616 
L 463.861422 117.339322 
L 465.161458 108.302117 
L 466.461493 109.828735 
L 470.3616 105.126373 
L 471.661636 107.322065 
L 472.961671 105.729482 
L 474.261707 106.04046 
L 475.561742 93.356332 
L 479.461849 93.167861 
L 480.761885 95.77819 
L 482.06192 94.901798 
L 483.361956 93.064201 
L 484.661992 88.757629 
L 488.562098 85.214366 
L 489.862134 90.774273 
L 491.162169 86.184994 
L 492.462205 90.039235 
L 493.762241 88.12625 
L 497.662347 86.100182 
L 498.962383 88.437228 
L 500.262419 96.126862 
L 501.562454 81.049147 
L 502.86249 74.895555 
L 506.762596 81.218772 
L 508.062632 72.643321 
L 509.362668 71.983671 
L 510.662703 66.075092 
L 511.962739 65.971433 
L 515.862846 68.675998 
L 517.162881 66.329528 
L 518.462917 71.66327 
L 519.762952 73.858962 
L 521.062988 65.585066 
L 526.26313 65.434289 
L 527.563166 60.21363 
L 528.863201 58.291222 
L 530.163237 51.572215 
L 535.363379 45.729601 
L 536.663415 49.046698 
L 537.96345 43.750651 
L 537.96345 43.750651 
" clip-path="url(#pdf010922d6)" style="fill: none; stroke: #008000; stroke-width: 1.5; stroke-linecap: square"/>
   </g>
   <g id="line2d_16">
    <path d="M 69.95064 258.699442 
L 71.250676 256.114574 
L 72.550712 259.681426 
L 73.850747 259.681426 
L 75.150783 258.138239 
L 79.05089 259.220517 
L 80.350925 265.083735 
L 81.650961 274.172524 
L 82.950996 273.393257 
L 84.251032 270.949718 
L 88.151139 266.347038 
L 89.451174 262.696993 
L 90.75121 263.041944 
L 92.051245 261.619655 
L 93.351281 270.786385 
L 97.251388 271.395448 
L 98.551423 276.257169 
L 99.851459 270.896473 
L 101.151494 264.604007 
L 102.45153 269.249748 
L 106.351637 273.058084 
L 107.651672 269.902799 
L 110.251744 254.901609 
L 111.551779 248.66713 
L 115.451886 239.493312 
L 116.751921 238.915614 
L 118.051957 240.933807 
L 119.351993 245.948222 
L 120.652028 244.679774 
L 124.552135 241.487471 
L 125.852171 241.313671 
L 127.152206 236.806786 
L 128.452242 236.846146 
L 129.752277 238.396185 
L 133.652384 239.492197 
L 134.95242 235.771497 
L 136.252455 238.873963 
L 137.552491 240.451929 
L 138.852526 233.594108 
L 142.752633 230.596945 
L 145.352704 227.50048 
L 147.952775 220.400429 
L 151.852882 213.470214 
L 153.152918 216.627695 
L 154.452953 218.826821 
L 157.053025 224.997847 
L 160.953131 222.754429 
L 162.253167 222.461869 
L 163.553202 221.642329 
L 164.853238 222.705348 
L 166.153274 226.804252 
L 171.353416 224.553094 
L 172.653452 227.13431 
L 173.953487 225.69444 
L 180.453665 213.172919 
L 181.753701 220.978616 
L 183.053736 221.333303 
L 184.353772 217.749281 
L 188.253879 215.748048 
L 189.553914 227.09546 
L 190.85395 220.444404 
L 192.153985 221.226392 
L 193.454021 221.338635 
L 197.354128 228.829657 
L 198.654163 226.082485 
L 199.954199 223.907104 
L 201.254234 224.098172 
L 202.55427 222.829316 
L 206.454377 236.441188 
L 207.754412 236.441188 
L 209.054448 230.069836 
L 210.354483 235.444367 
L 244.155409 235.444367 
L 245.455444 231.737412 
L 246.75548 226.280783 
L 248.055515 226.353174 
L 251.955622 222.553652 
L 253.255658 223.278216 
L 254.555693 220.162856 
L 255.855729 217.715554 
L 257.155764 211.440532 
L 261.055871 211.450246 
L 263.655942 207.76155 
L 264.955978 208.629319 
L 266.256014 212.438684 
L 271.456156 211.359993 
L 272.756191 209.680399 
L 274.056227 202.974534 
L 275.356263 202.714682 
L 279.256369 199.999748 
L 280.556405 197.85766 
L 281.856441 198.47795 
L 283.156476 198.700951 
L 284.456512 197.598623 
L 288.356618 196.687414 
L 290.95669 191.872163 
L 292.256725 187.852806 
L 297.456868 192.503704 
L 298.756903 195.164354 
L 300.056939 192.324707 
L 301.356974 190.606999 
L 302.65701 187.334484 
L 306.557117 180.812334 
L 309.157188 178.940497 
L 310.457223 181.303241 
L 311.757259 180.766374 
L 315.657366 174.248032 
L 316.957401 170.351783 
L 318.257437 168.815335 
L 319.557472 165.626126 
L 320.857508 167.418531 
L 324.757615 166.872453 
L 326.05765 168.040628 
L 327.357686 168.188773 
L 328.657722 163.91278 
L 329.957757 161.366104 
L 333.857864 163.504794 
L 335.157899 165.26246 
L 336.457935 161.203156 
L 337.757971 153.361069 
L 339.058006 153.459642 
L 342.958113 154.023887 
L 345.558184 141.656189 
L 346.85822 143.021873 
L 348.158255 147.62021 
L 352.058362 146.812164 
L 353.358398 147.820934 
L 354.658433 143.727613 
L 357.258504 158.463377 
L 361.158611 155.752788 
L 362.458647 152.010291 
L 363.758682 152.11171 
L 365.058718 150.208449 
L 366.358753 144.034471 
L 370.25886 144.200194 
L 371.558896 143.133982 
L 372.858931 149.163182 
L 374.158967 161.902632 
L 375.459003 166.566648 
L 379.359109 169.827696 
L 381.95918 156.726317 
L 383.259216 151.088752 
L 384.559252 152.593444 
L 388.459358 153.060138 
L 391.05943 147.491202 
L 392.359465 149.552402 
L 393.659501 148.984 
L 397.559607 144.747855 
L 400.159679 146.945609 
L 401.459714 140.718452 
L 402.75975 142.462616 
L 406.659857 138.357369 
L 407.959892 136.223853 
L 409.259928 139.099135 
L 410.559963 144.26584 
L 411.859999 142.955715 
L 415.760106 143.913228 
L 417.060141 131.818205 
L 418.360177 127.159231 
L 419.660212 125.953576 
L 420.960248 129.699674 
L 424.860355 125.197713 
L 426.16039 125.82702 
L 427.460426 129.052173 
L 430.060497 143.526295 
L 433.960604 141.250527 
L 435.260639 139.114117 
L 436.560675 134.931841 
L 437.860711 139.264485 
L 439.160746 142.861393 
L 443.060853 143.292404 
L 444.360888 142.805826 
L 445.660924 148.351853 
L 465.161458 148.351853 
L 466.461493 139.81293 
L 470.3616 133.779241 
L 471.661636 126.706077 
L 472.961671 126.177294 
L 474.261707 124.723411 
L 475.561742 119.349195 
L 479.461849 109.090957 
L 480.761885 103.703006 
L 482.06192 106.463224 
L 483.361956 107.88493 
L 484.661992 102.565811 
L 488.562098 97.153495 
L 489.862134 102.421144 
L 491.162169 99.064334 
L 492.462205 96.030669 
L 493.762241 96.831092 
L 498.962383 102.678823 
L 500.262419 95.850393 
L 501.562454 92.895045 
L 502.86249 86.371978 
L 506.762596 81.513983 
L 509.362668 73.759291 
L 510.662703 77.119006 
L 511.962739 72.678105 
L 515.862846 72.725626 
L 517.162881 73.523606 
L 518.462917 75.342394 
L 519.762952 76.455606 
L 521.062988 75.349537 
L 524.963095 72.393623 
L 527.563166 64.69127 
L 530.163237 52.185453 
L 535.363379 43.951909 
L 536.663415 38.755103 
L 537.96345 38.807087 
L 537.96345 38.807087 
" clip-path="url(#pdf010922d6)" style="fill: none; stroke: #0000ff; stroke-width: 1.5; stroke-linecap: square"/>
   </g>
   <g id="line2d_17">
    <path d="M 69.95064 258.699442 
L 71.250676 256.114574 
L 108.951708 256.114574 
L 110.251744 254.901609 
L 111.551779 248.66713 
L 115.451886 239.493312 
L 116.751921 238.915614 
L 125.852171 238.915614 
L 127.152206 236.806786 
L 133.652384 236.806786 
L 134.95242 235.771497 
L 137.552491 235.771497 
L 138.852526 233.594108 
L 142.752633 230.596945 
L 145.352704 227.50048 
L 147.952775 220.400429 
L 151.852882 213.470214 
L 173.953487 213.470214 
L 181.753701 213.172919 
L 255.855729 213.172919 
L 257.155764 211.440532 
L 261.055871 211.440532 
L 263.655942 207.76155 
L 272.756191 207.76155 
L 274.056227 202.974534 
L 275.356263 202.714682 
L 279.256369 199.999748 
L 280.556405 197.85766 
L 283.156476 197.85766 
L 284.456512 197.598623 
L 288.356618 196.687414 
L 290.95669 191.872163 
L 292.256725 187.852806 
L 301.356974 187.852806 
L 302.65701 187.334484 
L 306.557117 180.812334 
L 309.157188 178.940497 
L 311.757259 178.940497 
L 315.657366 174.248032 
L 316.957401 170.351783 
L 318.257437 168.815335 
L 319.557472 165.626126 
L 327.357686 165.626126 
L 328.657722 163.91278 
L 329.957757 161.366104 
L 335.157899 161.366104 
L 336.457935 161.203156 
L 337.757971 153.361069 
L 342.958113 153.361069 
L 344.258149 147.933982 
L 345.558184 141.656189 
L 400.159679 141.656189 
L 401.459714 140.718452 
L 402.75975 140.718452 
L 406.659857 138.357369 
L 407.959892 136.223853 
L 415.760106 136.223853 
L 418.360177 127.159231 
L 419.660212 125.953576 
L 420.960248 125.953576 
L 424.860355 125.197713 
L 472.961671 125.197713 
L 474.261707 124.723411 
L 475.561742 119.349195 
L 479.461849 109.090957 
L 480.761885 103.703006 
L 483.361956 103.703006 
L 484.661992 102.565811 
L 488.562098 97.153495 
L 491.162169 97.153495 
L 492.462205 96.030669 
L 498.962383 96.030669 
L 500.262419 95.850393 
L 501.562454 92.895045 
L 502.86249 86.371978 
L 506.762596 81.513983 
L 509.362668 73.759291 
L 510.662703 73.759291 
L 511.962739 72.678105 
L 521.062988 72.678105 
L 524.963095 72.393623 
L 527.563166 64.69127 
L 530.163237 52.185453 
L 535.363379 43.951909 
L 536.663415 38.755103 
L 537.96345 38.755103 
L 537.96345 38.755103 
" clip-path="url(#pdf010922d6)" style="fill: none; stroke: #ff0000; stroke-width: 1.5; stroke-linecap: square"/>
   </g>
   <g id="patch_3">
    <path d="M 46.55 288.132273 
L 46.55 26.88 
" style="fill: none; stroke: #000000; stroke-width: 0.8; stroke-linejoin: miter; stroke-linecap: square"/>
   </g>
   <g id="patch_4">
    <path d="M 561.364091 288.132273 
L 561.364091 26.88 
" style="fill: none; stroke: #000000; stroke-width: 0.8; stroke-linejoin: miter; stroke-linecap: square"/>
   </g>
   <g id="patch_5">
    <path d="M 46.55 288.132273 
L 561.364091 288.132273 
" style="fill: none; stroke: #000000; stroke-width: 0.8; stroke-linejoin: miter; stroke-linecap: square"/>
   </g>
   <g id="patch_6">
    <path d="M 46.55 26.88 
L 561.364091 26.88 
" style="fill: none; stroke: #000000; stroke-width: 0.8; stroke-linejoin: miter; stroke-linecap: square"/>
   </g>
   <g id="text_9">
    <!-- Performance of AVAN-strategy year 2005 -->
    <g transform="translate(180.64392 20.88)scale(0.12 -0.12)">
     <defs>
      <path id="DejaVuSans-50" d="M 1259 4147 
L 1259 2394 
L 2053 2394 
Q 2494 2394 2734 2622 
Q 2975 2850 2975 3272 
Q 2975 3691 2734 3919 
Q 2494 4147 2053 4147 
L 1259 4147 
z
M 628 4666 
L 2053 4666 
Q 2838 4666 3239 4311 
Q 3641 3956 3641 3272 
Q 3641 2581 3239 2228 
Q 2838 1875 2053 1875 
L 1259 1875 
L 1259 0 
L 628 0 
L 628 4666 
z
" transform="scale(0.015625)"/>
      <path id="DejaVuSans-66" d="M 2375 4863 
L 2375 4384 
L 1825 4384 
Q 1516 4384 1395 4259 
Q 1275 4134 1275 3809 
L 1275 3500 
L 2222 3500 
L 2222 3053 
L 1275 3053 
L 1275 0 
L 697 0 
L 697 3053 
L 147 3053 
L 147 3500 
L 697 3500 
L 697 3744 
Q 697 4328 969 4595 
Q 1241 4863 1831 4863 
L 2375 4863 
z
" transform="scale(0.015625)"/>
      <path id="DejaVuSans-6f" d="M 1959 3097 
Q 1497 3097 1228 2736 
Q 959 2375 959 1747 
Q 959 1119 1226 758 
Q 1494 397 1959 397 
Q 2419 397 2687 759 
Q 2956 1122 2956 1747 
Q 2956 2369 2687 2733 
Q 2419 3097 1959 3097 
z
M 1959 3584 
Q 2709 3584 3137 3096 
Q 3566 2609 3566 1747 
Q 3566 888 3137 398 
Q 2709 -91 1959 -91 
Q 1206 -91 779 398 
Q 353 888 353 1747 
Q 353 2609 779 3096 
Q 1206 3584 1959 3584 
z
" transform="scale(0.015625)"/>
      <path id="DejaVuSans-6d" d="M 3328 2828 
Q 3544 3216 3844 3400 
Q 4144 3584 4550 3584 
Q 5097 3584 5394 3201 
Q 5691 2819 5691 2113 
L 5691 0 
L 5113 0 
L 5113 2094 
Q 5113 2597 4934 2840 
Q 4756 3084 4391 3084 
Q 3944 3084 3684 2787 
Q 3425 2491 3425 1978 
L 3425 0 
L 2847 0 
L 2847 2094 
Q 2847 2600 2669 2842 
Q 2491 3084 2119 3084 
Q 1678 3084 1418 2786 
Q 1159 2488 1159 1978 
L 1159 0 
L 581 0 
L 581 3500 
L 1159 3500 
L 1159 2956 
Q 1356 3278 1631 3431 
Q 1906 3584 2284 3584 
Q 2666 3584 2933 3390 
Q 3200 3197 3328 2828 
z
" transform="scale(0.015625)"/>
      <path id="DejaVuSans-61" d="M 2194 1759 
Q 1497 1759 1228 1600 
Q 959 1441 959 1056 
Q 959 750 1161 570 
Q 1363 391 1709 391 
Q 2188 391 2477 730 
Q 2766 1069 2766 1631 
L 2766 1759 
L 2194 1759 
z
M 3341 1997 
L 3341 0 
L 2766 0 
L 2766 531 
Q 2569 213 2275 61 
Q 1981 -91 1556 -91 
Q 1019 -91 701 211 
Q 384 513 384 1019 
Q 384 1609 779 1909 
Q 1175 2209 1959 2209 
L 2766 2209 
L 2766 2266 
Q 2766 2663 2505 2880 
Q 2244 3097 1772 3097 
Q 1472 3097 1187 3025 
Q 903 2953 641 2809 
L 641 3341 
Q 956 3463 1253 3523 
Q 1550 3584 1831 3584 
Q 2591 3584 2966 3190 
Q 3341 2797 3341 1997 
z
" transform="scale(0.015625)"/>
      <path id="DejaVuSans-63" d="M 3122 3366 
L 3122 2828 
Q 2878 2963 2633 3030 
Q 2388 3097 2138 3097 
Q 1578 3097 1268 2742 
Q 959 2388 959 1747 
Q 959 1106 1268 751 
Q 1578 397 2138 397 
Q 2388 397 2633 464 
Q 2878 531 3122 666 
L 3122 134 
Q 2881 22 2623 -34 
Q 2366 -91 2075 -91 
Q 1284 -91 818 406 
Q 353 903 353 1747 
Q 353 2603 823 3093 
Q 1294 3584 2113 3584 
Q 2378 3584 2631 3529 
Q 2884 3475 3122 3366 
z
" transform="scale(0.015625)"/>
      <path id="DejaVuSans-41" d="M 2188 4044 
L 1331 1722 
L 3047 1722 
L 2188 4044 
z
M 1831 4666 
L 2547 4666 
L 4325 0 
L 3669 0 
L 3244 1197 
L 1141 1197 
L 716 0 
L 50 0 
L 1831 4666 
z
" transform="scale(0.015625)"/>
      <path id="DejaVuSans-56" d="M 1831 0 
L 50 4666 
L 709 4666 
L 2188 738 
L 3669 4666 
L 4325 4666 
L 2547 0 
L 1831 0 
z
" transform="scale(0.015625)"/>
      <path id="DejaVuSans-4e" d="M 628 4666 
L 1478 4666 
L 3547 763 
L 3547 4666 
L 4159 4666 
L 4159 0 
L 3309 0 
L 1241 3903 
L 1241 0 
L 628 0 
L 628 4666 
z
" transform="scale(0.015625)"/>
      <path id="DejaVuSans-2d" d="M 313 2009 
L 1997 2009 
L 1997 1497 
L 313 1497 
L 313 2009 
z
" transform="scale(0.015625)"/>
      <path id="DejaVuSans-73" d="M 2834 3397 
L 2834 2853 
Q 2591 2978 2328 3040 
Q 2066 3103 1784 3103 
Q 1356 3103 1142 2972 
Q 928 2841 928 2578 
Q 928 2378 1081 2264 
Q 1234 2150 1697 2047 
L 1894 2003 
Q 2506 1872 2764 1633 
Q 3022 1394 3022 966 
Q 3022 478 2636 193 
Q 2250 -91 1575 -91 
Q 1294 -91 989 -36 
Q 684 19 347 128 
L 347 722 
Q 666 556 975 473 
Q 1284 391 1588 391 
Q 1994 391 2212 530 
Q 2431 669 2431 922 
Q 2431 1156 2273 1281 
Q 2116 1406 1581 1522 
L 1381 1569 
Q 847 1681 609 1914 
Q 372 2147 372 2553 
Q 372 3047 722 3315 
Q 1072 3584 1716 3584 
Q 2034 3584 2315 3537 
Q 2597 3491 2834 3397 
z
" transform="scale(0.015625)"/>
      <path id="DejaVuSans-67" d="M 2906 1791 
Q 2906 2416 2648 2759 
Q 2391 3103 1925 3103 
Q 1463 3103 1205 2759 
Q 947 2416 947 1791 
Q 947 1169 1205 825 
Q 1463 481 1925 481 
Q 2391 481 2648 825 
Q 2906 1169 2906 1791 
z
M 3481 434 
Q 3481 -459 3084 -895 
Q 2688 -1331 1869 -1331 
Q 1566 -1331 1297 -1286 
Q 1028 -1241 775 -1147 
L 775 -588 
Q 1028 -725 1275 -790 
Q 1522 -856 1778 -856 
Q 2344 -856 2625 -561 
Q 2906 -266 2906 331 
L 2906 616 
Q 2728 306 2450 153 
Q 2172 0 1784 0 
Q 1141 0 747 490 
Q 353 981 353 1791 
Q 353 2603 747 3093 
Q 1141 3584 1784 3584 
Q 2172 3584 2450 3431 
Q 2728 3278 2906 2969 
L 2906 3500 
L 3481 3500 
L 3481 434 
z
" transform="scale(0.015625)"/>
      <path id="DejaVuSans-79" d="M 2059 -325 
Q 1816 -950 1584 -1140 
Q 1353 -1331 966 -1331 
L 506 -1331 
L 506 -850 
L 844 -850 
Q 1081 -850 1212 -737 
Q 1344 -625 1503 -206 
L 1606 56 
L 191 3500 
L 800 3500 
L 1894 763 
L 2988 3500 
L 3597 3500 
L 2059 -325 
z
" transform="scale(0.015625)"/>
     </defs>
     <use xlink:href="#DejaVuSans-50"/>
     <use xlink:href="#DejaVuSans-65" x="56.677734"/>
     <use xlink:href="#DejaVuSans-72" x="118.201172"/>
     <use xlink:href="#DejaVuSans-66" x="159.314453"/>
     <use xlink:href="#DejaVuSans-6f" x="194.519531"/>
     <use xlink:href="#DejaVuSans-72" x="255.701172"/>
     <use xlink:href="#DejaVuSans-6d" x="295.064453"/>
     <use xlink:href="#DejaVuSans-61" x="392.476562"/>
     <use xlink:href="#DejaVuSans-6e" x="453.755859"/>
     <use xlink:href="#DejaVuSans-63" x="517.134766"/>
     <use xlink:href="#DejaVuSans-65" x="572.115234"/>
     <use xlink:href="#DejaVuSans-20" x="633.638672"/>
     <use xlink:href="#DejaVuSans-6f" x="665.425781"/>
     <use xlink:href="#DejaVuSans-66" x="726.607422"/>
     <use xlink:href="#DejaVuSans-20" x="761.8125"/>
     <use xlink:href="#DejaVuSans-41" x="793.599609"/>
     <use xlink:href="#DejaVuSans-56" x="855.632812"/>
     <use xlink:href="#DejaVuSans-41" x="917.666016"/>
     <use xlink:href="#DejaVuSans-4e" x="986.074219"/>
     <use xlink:href="#DejaVuSans-2d" x="1060.878906"/>
     <use xlink:href="#DejaVuSans-73" x="1096.962891"/>
     <use xlink:href="#DejaVuSans-74" x="1149.0625"/>
     <use xlink:href="#DejaVuSans-72" x="1188.271484"/>
     <use xlink:href="#DejaVuSans-61" x="1229.384766"/>
     <use xlink:href="#DejaVuSans-74" x="1290.664062"/>
     <use xlink:href="#DejaVuSans-65" x="1329.873047"/>
     <use xlink:href="#DejaVuSans-67" x="1391.396484"/>
     <use xlink:href="#DejaVuSans-79" x="1454.873047"/>
     <use xlink:href="#DejaVuSans-20" x="1514.052734"/>
     <use xlink:href="#DejaVuSans-79" x="1545.839844"/>
     <use xlink:href="#DejaVuSans-65" x="1605.019531"/>
     <use xlink:href="#DejaVuSans-61" x="1666.542969"/>
     <use xlink:href="#DejaVuSans-72" x="1727.822266"/>
     <use xlink:href="#DejaVuSans-20" x="1768.935547"/>
     <use xlink:href="#DejaVuSans-32" x="1800.722656"/>
     <use xlink:href="#DejaVuSans-30" x="1864.345703"/>
     <use xlink:href="#DejaVuSans-30" x="1927.96875"/>
     <use xlink:href="#DejaVuSans-35" x="1991.591797"/>
    </g>
   </g>
   <g id="legend_1">
    <g id="patch_7">
     <path d="M 53.55 78.914375 
L 180.971875 78.914375 
Q 182.971875 78.914375 182.971875 76.914375 
L 182.971875 33.88 
Q 182.971875 31.88 180.971875 31.88 
L 53.55 31.88 
Q 51.55 31.88 51.55 33.88 
L 51.55 76.914375 
Q 51.55 78.914375 53.55 78.914375 
z
" style="fill: #ffffff; opacity: 0.8; stroke: #cccccc; stroke-linejoin: miter"/>
    </g>
    <g id="line2d_18">
     <path d="M 55.55 39.978438 
L 65.55 39.978438 
L 75.55 39.978438 
" style="fill: none; stroke: #008000; stroke-width: 1.5; stroke-linecap: square"/>
    </g>
    <g id="text_10">
     <!-- 30.3% return omx -->
     <g transform="translate(83.55 43.478438)scale(0.1 -0.1)">
      <defs>
       <path id="DejaVuSans-2e" d="M 684 794 
L 1344 794 
L 1344 0 
L 684 0 
L 684 794 
z
" transform="scale(0.015625)"/>
       <path id="DejaVuSans-78" d="M 3513 3500 
L 2247 1797 
L 3578 0 
L 2900 0 
L 1881 1375 
L 863 0 
L 184 0 
L 1544 1831 
L 300 3500 
L 978 3500 
L 1906 2253 
L 2834 3500 
L 3513 3500 
z
" transform="scale(0.015625)"/>
      </defs>
      <use xlink:href="#DejaVuSans-33"/>
      <use xlink:href="#DejaVuSans-30" x="63.623047"/>
      <use xlink:href="#DejaVuSans-2e" x="127.246094"/>
      <use xlink:href="#DejaVuSans-33" x="159.033203"/>
      <use xlink:href="#DejaVuSans-25" x="222.65625"/>
      <use xlink:href="#DejaVuSans-20" x="317.675781"/>
      <use xlink:href="#DejaVuSans-72" x="349.462891"/>
      <use xlink:href="#DejaVuSans-65" x="388.326172"/>
      <use xlink:href="#DejaVuSans-74" x="449.849609"/>
      <use xlink:href="#DejaVuSans-75" x="489.058594"/>
      <use xlink:href="#DejaVuSans-72" x="552.4375"/>
      <use xlink:href="#DejaVuSans-6e" x="591.800781"/>
      <use xlink:href="#DejaVuSans-20" x="655.179688"/>
      <use xlink:href="#DejaVuSans-6f" x="686.966797"/>
      <use xlink:href="#DejaVuSans-6d" x="748.148438"/>
      <use xlink:href="#DejaVuSans-78" x="845.560547"/>
     </g>
    </g>
    <g id="line2d_19">
     <path d="M 55.55 54.656563 
L 65.55 54.656563 
L 75.55 54.656563 
" style="fill: none; stroke: #0000ff; stroke-width: 1.5; stroke-linecap: square"/>
    </g>
    <g id="text_11">
     <!-- 31.0% return AVAN -->
     <g transform="translate(83.55 58.156563)scale(0.1 -0.1)">
      <use xlink:href="#DejaVuSans-33"/>
      <use xlink:href="#DejaVuSans-31" x="63.623047"/>
      <use xlink:href="#DejaVuSans-2e" x="127.246094"/>
      <use xlink:href="#DejaVuSans-30" x="159.033203"/>
      <use xlink:href="#DejaVuSans-25" x="222.65625"/>
      <use xlink:href="#DejaVuSans-20" x="317.675781"/>
      <use xlink:href="#DejaVuSans-72" x="349.462891"/>
      <use xlink:href="#DejaVuSans-65" x="388.326172"/>
      <use xlink:href="#DejaVuSans-74" x="449.849609"/>
      <use xlink:href="#DejaVuSans-75" x="489.058594"/>
      <use xlink:href="#DejaVuSans-72" x="552.4375"/>
      <use xlink:href="#DejaVuSans-6e" x="591.800781"/>
      <use xlink:href="#DejaVuSans-20" x="655.179688"/>
      <use xlink:href="#DejaVuSans-41" x="686.966797"/>
      <use xlink:href="#DejaVuSans-56" x="749"/>
      <use xlink:href="#DejaVuSans-41" x="811.033203"/>
      <use xlink:href="#DejaVuSans-4e" x="879.441406"/>
     </g>
    </g>
    <g id="line2d_20">
     <path d="M 55.55 69.334688 
L 65.55 69.334688 
L 75.55 69.334688 
" style="fill: none; stroke: #ff0000; stroke-width: 1.5; stroke-linecap: square"/>
    </g>
    <g id="text_12">
     <!-- cummax -->
     <g transform="translate(83.55 72.834688)scale(0.1 -0.1)">
      <use xlink:href="#DejaVuSans-63"/>
      <use xlink:href="#DejaVuSans-75" x="54.980469"/>
      <use xlink:href="#DejaVuSans-6d" x="118.359375"/>
      <use xlink:href="#DejaVuSans-6d" x="215.771484"/>
      <use xlink:href="#DejaVuSans-61" x="313.183594"/>
      <use xlink:href="#DejaVuSans-78" x="374.462891"/>
     </g>
    </g>
   </g>
  </g>
  <g id="axes_2">
   <g id="patch_8">
    <path d="M 46.55 390.04 
L 561.364091 390.04 
L 561.364091 302.955909 
L 46.55 302.955909 
z
" style="fill: #ffffff"/>
   </g>
   <g id="matplotlib.axis_3">
    <g id="xtick_8">
     <g id="line2d_21">
      <g>
       <use xlink:href="#m9a5dfd786e" x="67.350569" y="390.04" style="stroke: #000000; stroke-width: 0.8"/>
      </g>
     </g>
     <g id="text_13">
      <!-- 2005-01 -->
      <g transform="translate(46.459163 404.638438)scale(0.1 -0.1)">
       <use xlink:href="#DejaVuSans-32"/>
       <use xlink:href="#DejaVuSans-30" x="63.623047"/>
       <use xlink:href="#DejaVuSans-30" x="127.246094"/>
       <use xlink:href="#DejaVuSans-35" x="190.869141"/>
       <use xlink:href="#DejaVuSans-2d" x="254.492188"/>
       <use xlink:href="#DejaVuSans-30" x="290.576172"/>
       <use xlink:href="#DejaVuSans-31" x="354.199219"/>
      </g>
     </g>
    </g>
    <g id="xtick_9">
     <g id="line2d_22">
      <g>
       <use xlink:href="#m9a5dfd786e" x="144.052669" y="390.04" style="stroke: #000000; stroke-width: 0.8"/>
      </g>
     </g>
     <g id="text_14">
      <!-- 2005-03 -->
      <g transform="translate(123.161262 404.638438)scale(0.1 -0.1)">
       <use xlink:href="#DejaVuSans-32"/>
       <use xlink:href="#DejaVuSans-30" x="63.623047"/>
       <use xlink:href="#DejaVuSans-30" x="127.246094"/>
       <use xlink:href="#DejaVuSans-35" x="190.869141"/>
       <use xlink:href="#DejaVuSans-2d" x="254.492188"/>
       <use xlink:href="#DejaVuSans-30" x="290.576172"/>
       <use xlink:href="#DejaVuSans-33" x="354.199219"/>
      </g>
     </g>
    </g>
    <g id="xtick_10">
     <g id="line2d_23">
      <g>
       <use xlink:href="#m9a5dfd786e" x="223.354839" y="390.04" style="stroke: #000000; stroke-width: 0.8"/>
      </g>
     </g>
     <g id="text_15">
      <!-- 2005-05 -->
      <g transform="translate(202.463433 404.638438)scale(0.1 -0.1)">
       <use xlink:href="#DejaVuSans-32"/>
       <use xlink:href="#DejaVuSans-30" x="63.623047"/>
       <use xlink:href="#DejaVuSans-30" x="127.246094"/>
       <use xlink:href="#DejaVuSans-35" x="190.869141"/>
       <use xlink:href="#DejaVuSans-2d" x="254.492188"/>
       <use xlink:href="#DejaVuSans-30" x="290.576172"/>
       <use xlink:href="#DejaVuSans-35" x="354.199219"/>
      </g>
     </g>
    </g>
    <g id="xtick_11">
     <g id="line2d_24">
      <g>
       <use xlink:href="#m9a5dfd786e" x="302.65701" y="390.04" style="stroke: #000000; stroke-width: 0.8"/>
      </g>
     </g>
     <g id="text_16">
      <!-- 2005-07 -->
      <g transform="translate(281.765604 404.638438)scale(0.1 -0.1)">
       <defs>
        <path id="DejaVuSans-37" d="M 525 4666 
L 3525 4666 
L 3525 4397 
L 1831 0 
L 1172 0 
L 2766 4134 
L 525 4134 
L 525 4666 
z
" transform="scale(0.015625)"/>
       </defs>
       <use xlink:href="#DejaVuSans-32"/>
       <use xlink:href="#DejaVuSans-30" x="63.623047"/>
       <use xlink:href="#DejaVuSans-30" x="127.246094"/>
       <use xlink:href="#DejaVuSans-35" x="190.869141"/>
       <use xlink:href="#DejaVuSans-2d" x="254.492188"/>
       <use xlink:href="#DejaVuSans-30" x="290.576172"/>
       <use xlink:href="#DejaVuSans-37" x="354.199219"/>
      </g>
     </g>
    </g>
    <g id="xtick_12">
     <g id="line2d_25">
      <g>
       <use xlink:href="#m9a5dfd786e" x="383.259216" y="390.04" style="stroke: #000000; stroke-width: 0.8"/>
      </g>
     </g>
     <g id="text_17">
      <!-- 2005-09 -->
      <g transform="translate(362.36781 404.638438)scale(0.1 -0.1)">
       <defs>
        <path id="DejaVuSans-39" d="M 703 97 
L 703 672 
Q 941 559 1184 500 
Q 1428 441 1663 441 
Q 2288 441 2617 861 
Q 2947 1281 2994 2138 
Q 2813 1869 2534 1725 
Q 2256 1581 1919 1581 
Q 1219 1581 811 2004 
Q 403 2428 403 3163 
Q 403 3881 828 4315 
Q 1253 4750 1959 4750 
Q 2769 4750 3195 4129 
Q 3622 3509 3622 2328 
Q 3622 1225 3098 567 
Q 2575 -91 1691 -91 
Q 1453 -91 1209 -44 
Q 966 3 703 97 
z
M 1959 2075 
Q 2384 2075 2632 2365 
Q 2881 2656 2881 3163 
Q 2881 3666 2632 3958 
Q 2384 4250 1959 4250 
Q 1534 4250 1286 3958 
Q 1038 3666 1038 3163 
Q 1038 2656 1286 2365 
Q 1534 2075 1959 2075 
z
" transform="scale(0.015625)"/>
       </defs>
       <use xlink:href="#DejaVuSans-32"/>
       <use xlink:href="#DejaVuSans-30" x="63.623047"/>
       <use xlink:href="#DejaVuSans-30" x="127.246094"/>
       <use xlink:href="#DejaVuSans-35" x="190.869141"/>
       <use xlink:href="#DejaVuSans-2d" x="254.492188"/>
       <use xlink:href="#DejaVuSans-30" x="290.576172"/>
       <use xlink:href="#DejaVuSans-39" x="354.199219"/>
      </g>
     </g>
    </g>
    <g id="xtick_13">
     <g id="line2d_26">
      <g>
       <use xlink:href="#m9a5dfd786e" x="462.561387" y="390.04" style="stroke: #000000; stroke-width: 0.8"/>
      </g>
     </g>
     <g id="text_18">
      <!-- 2005-11 -->
      <g transform="translate(441.66998 404.638438)scale(0.1 -0.1)">
       <use xlink:href="#DejaVuSans-32"/>
       <use xlink:href="#DejaVuSans-30" x="63.623047"/>
       <use xlink:href="#DejaVuSans-30" x="127.246094"/>
       <use xlink:href="#DejaVuSans-35" x="190.869141"/>
       <use xlink:href="#DejaVuSans-2d" x="254.492188"/>
       <use xlink:href="#DejaVuSans-31" x="290.576172"/>
       <use xlink:href="#DejaVuSans-31" x="354.199219"/>
      </g>
     </g>
    </g>
    <g id="xtick_14">
     <g id="line2d_27">
      <g>
       <use xlink:href="#m9a5dfd786e" x="541.863557" y="390.04" style="stroke: #000000; stroke-width: 0.8"/>
      </g>
     </g>
     <g id="text_19">
      <!-- 2006-01 -->
      <g transform="translate(520.972151 404.638438)scale(0.1 -0.1)">
       <defs>
        <path id="DejaVuSans-36" d="M 2113 2584 
Q 1688 2584 1439 2293 
Q 1191 2003 1191 1497 
Q 1191 994 1439 701 
Q 1688 409 2113 409 
Q 2538 409 2786 701 
Q 3034 994 3034 1497 
Q 3034 2003 2786 2293 
Q 2538 2584 2113 2584 
z
M 3366 4563 
L 3366 3988 
Q 3128 4100 2886 4159 
Q 2644 4219 2406 4219 
Q 1781 4219 1451 3797 
Q 1122 3375 1075 2522 
Q 1259 2794 1537 2939 
Q 1816 3084 2150 3084 
Q 2853 3084 3261 2657 
Q 3669 2231 3669 1497 
Q 3669 778 3244 343 
Q 2819 -91 2113 -91 
Q 1303 -91 875 529 
Q 447 1150 447 2328 
Q 447 3434 972 4092 
Q 1497 4750 2381 4750 
Q 2619 4750 2861 4703 
Q 3103 4656 3366 4563 
z
" transform="scale(0.015625)"/>
       </defs>
       <use xlink:href="#DejaVuSans-32"/>
       <use xlink:href="#DejaVuSans-30" x="63.623047"/>
       <use xlink:href="#DejaVuSans-30" x="127.246094"/>
       <use xlink:href="#DejaVuSans-36" x="190.869141"/>
       <use xlink:href="#DejaVuSans-2d" x="254.492188"/>
       <use xlink:href="#DejaVuSans-30" x="290.576172"/>
       <use xlink:href="#DejaVuSans-31" x="354.199219"/>
      </g>
     </g>
    </g>
    <g id="text_20">
     <!-- Time -->
     <g transform="translate(291.723452 418.316562)scale(0.1 -0.1)">
      <defs>
       <path id="DejaVuSans-54" d="M -19 4666 
L 3928 4666 
L 3928 4134 
L 2272 4134 
L 2272 0 
L 1638 0 
L 1638 4134 
L -19 4134 
L -19 4666 
z
" transform="scale(0.015625)"/>
       <path id="DejaVuSans-69" d="M 603 3500 
L 1178 3500 
L 1178 0 
L 603 0 
L 603 3500 
z
M 603 4863 
L 1178 4863 
L 1178 4134 
L 603 4134 
L 603 4863 
z
" transform="scale(0.015625)"/>
      </defs>
      <use xlink:href="#DejaVuSans-54"/>
      <use xlink:href="#DejaVuSans-69" x="57.958984"/>
      <use xlink:href="#DejaVuSans-6d" x="85.742188"/>
      <use xlink:href="#DejaVuSans-65" x="183.154297"/>
     </g>
    </g>
   </g>
   <g id="matplotlib.axis_4">
    <g id="ytick_8">
     <g id="line2d_28">
      <g>
       <use xlink:href="#mf8b71842ae" x="46.55" y="375.464046" style="stroke: #000000; stroke-width: 0.8"/>
      </g>
     </g>
     <g id="text_21">
      <!-- −3 -->
      <g transform="translate(24.807813 379.263265)scale(0.1 -0.1)">
       <defs>
        <path id="DejaVuSans-2212" d="M 678 2272 
L 4684 2272 
L 4684 1741 
L 678 1741 
L 678 2272 
z
" transform="scale(0.015625)"/>
       </defs>
       <use xlink:href="#DejaVuSans-2212"/>
       <use xlink:href="#DejaVuSans-33" x="83.789062"/>
      </g>
     </g>
    </g>
    <g id="ytick_9">
     <g id="line2d_29">
      <g>
       <use xlink:href="#mf8b71842ae" x="46.55" y="352.614123" style="stroke: #000000; stroke-width: 0.8"/>
      </g>
     </g>
     <g id="text_22">
      <!-- −2 -->
      <g transform="translate(24.807813 356.413342)scale(0.1 -0.1)">
       <use xlink:href="#DejaVuSans-2212"/>
       <use xlink:href="#DejaVuSans-32" x="83.789062"/>
      </g>
     </g>
    </g>
    <g id="ytick_10">
     <g id="line2d_30">
      <g>
       <use xlink:href="#mf8b71842ae" x="46.55" y="329.7642" style="stroke: #000000; stroke-width: 0.8"/>
      </g>
     </g>
     <g id="text_23">
      <!-- −1 -->
      <g transform="translate(24.807813 333.563419)scale(0.1 -0.1)">
       <use xlink:href="#DejaVuSans-2212"/>
       <use xlink:href="#DejaVuSans-31" x="83.789062"/>
      </g>
     </g>
    </g>
    <g id="ytick_11">
     <g id="line2d_31">
      <g>
       <use xlink:href="#mf8b71842ae" x="46.55" y="306.914277" style="stroke: #000000; stroke-width: 0.8"/>
      </g>
     </g>
     <g id="text_24">
      <!-- 0 -->
      <g transform="translate(33.1875 310.713496)scale(0.1 -0.1)">
       <use xlink:href="#DejaVuSans-30"/>
      </g>
     </g>
    </g>
    <g id="text_25">
     <!-- DD % -->
     <g transform="translate(18.728125 360.537798)rotate(-90)scale(0.1 -0.1)">
      <defs>
       <path id="DejaVuSans-44" d="M 1259 4147 
L 1259 519 
L 2022 519 
Q 2988 519 3436 956 
Q 3884 1394 3884 2338 
Q 3884 3275 3436 3711 
Q 2988 4147 2022 4147 
L 1259 4147 
z
M 628 4666 
L 1925 4666 
Q 3281 4666 3915 4102 
Q 4550 3538 4550 2338 
Q 4550 1131 3912 565 
Q 3275 0 1925 0 
L 628 0 
L 628 4666 
z
" transform="scale(0.015625)"/>
      </defs>
      <use xlink:href="#DejaVuSans-44"/>
      <use xlink:href="#DejaVuSans-44" x="77.001953"/>
      <use xlink:href="#DejaVuSans-20" x="154.003906"/>
      <use xlink:href="#DejaVuSans-25" x="185.791016"/>
     </g>
    </g>
   </g>
   <g id="line2d_32">
    <path d="M 69.95064 306.914277 
L 71.250676 306.914277 
L 72.550712 318.579951 
L 73.850747 318.579951 
L 75.150783 313.532835 
L 79.05089 317.072511 
L 80.350925 336.248636 
L 81.650961 365.974249 
L 82.950996 363.425593 
L 84.251032 355.433803 
L 88.151139 340.38037 
L 89.451174 328.442605 
L 90.75121 329.570796 
L 92.051245 324.919086 
L 93.351281 354.899611 
L 97.251388 356.891601 
L 98.551423 372.79225 
L 99.851459 355.259663 
L 101.151494 334.679647 
L 102.45153 349.873915 
L 106.351637 362.329385 
L 107.651672 352.009772 
L 108.951708 327.25011 
L 110.251744 306.914277 
L 116.751921 306.914277 
L 118.051957 313.35635 
L 119.351993 329.362369 
L 120.652028 325.313484 
L 124.552135 315.123645 
L 125.852171 314.568878 
L 127.152206 306.914277 
L 128.452242 307.039545 
L 129.752277 311.972739 
L 133.652384 315.460936 
L 134.95242 306.914277 
L 136.252455 316.774048 
L 137.552491 321.788893 
L 138.852526 306.914277 
L 151.852882 306.914277 
L 153.152918 316.647005 
L 154.452953 323.425665 
L 157.053025 342.447444 
L 160.953131 335.532256 
L 162.253167 334.630461 
L 163.553202 332.104283 
L 164.853238 335.380966 
L 166.153274 348.015568 
L 171.353416 341.076523 
L 172.653452 349.032952 
L 173.953487 344.594648 
L 180.453665 306.914277 
L 181.753701 330.965178 
L 183.053736 332.058037 
L 184.353772 321.014956 
L 188.253879 314.848759 
L 189.553914 349.812386 
L 190.85395 329.319162 
L 192.153985 331.728625 
L 193.454021 332.074467 
L 197.354128 355.15579 
L 198.654163 346.691208 
L 199.954199 339.988428 
L 201.254234 340.577146 
L 202.55427 336.667551 
L 206.454377 378.608425 
L 207.754412 378.608425 
L 209.054448 358.977027 
L 210.354483 375.537023 
L 244.155409 375.537023 
L 245.455444 364.115159 
L 246.75548 347.302204 
L 248.055515 347.525254 
L 251.955622 335.818174 
L 253.255658 338.050701 
L 254.555693 328.451657 
L 255.855729 320.911035 
L 257.155764 306.914277 
L 263.655942 306.914277 
L 264.955978 309.568675 
L 266.256014 321.221057 
L 271.456156 317.921473 
L 272.756191 312.7838 
L 274.056227 306.914277 
L 280.556405 306.914277 
L 281.856441 308.786842 
L 283.156476 309.46005 
L 284.456512 306.914277 
L 292.256725 306.914277 
L 297.456868 320.77149 
L 298.756903 328.69882 
L 300.056939 320.238175 
L 301.356974 315.120313 
L 302.65701 306.914277 
L 309.157188 306.914277 
L 310.457223 313.873136 
L 311.757259 312.291932 
L 315.657366 306.914277 
L 319.557472 306.914277 
L 320.857508 312.104279 
L 324.757615 310.52308 
L 326.05765 313.905591 
L 327.357686 314.334553 
L 328.657722 306.914277 
L 329.957757 306.914277 
L 333.857864 313.073712 
L 335.157899 318.135799 
L 336.457935 306.914277 
L 337.757971 306.914277 
L 339.058006 307.195333 
L 342.958113 308.804127 
L 344.258149 306.914277 
L 345.558184 306.914277 
L 346.85822 310.75211 
L 348.158255 323.674323 
L 352.058362 321.403558 
L 353.358398 324.238395 
L 354.658433 312.735375 
L 357.258504 354.145708 
L 361.158611 346.528433 
L 362.458647 336.011296 
L 363.758682 336.296302 
L 365.058718 330.947773 
L 366.358753 313.597704 
L 370.25886 314.06342 
L 371.558896 311.067159 
L 372.858931 328.010372 
L 374.158967 363.810678 
L 375.459003 376.91746 
L 379.359109 386.081632 
L 381.95918 349.264235 
L 383.259216 333.421592 
L 384.559252 337.650067 
L 388.459358 338.961569 
L 391.05943 323.311786 
L 392.359465 329.104153 
L 393.659501 327.506834 
L 397.559607 315.602451 
L 400.159679 321.778564 
L 401.459714 306.914277 
L 402.75975 311.810069 
L 406.659857 306.914277 
L 407.959892 306.914277 
L 409.259928 314.940749 
L 410.559963 329.363825 
L 411.859999 325.706555 
L 415.760106 328.379494 
L 417.060141 306.914277 
L 419.660212 306.914277 
L 420.960248 317.242085 
L 424.860355 306.914277 
L 426.16039 308.647666 
L 427.460426 317.531152 
L 430.060497 357.399234 
L 433.960604 351.130769 
L 435.260639 345.246159 
L 436.560675 333.726336 
L 437.860711 345.660339 
L 439.160746 355.567802 
L 443.060853 356.754996 
L 444.360888 355.414746 
L 445.660924 370.690938 
L 465.161458 370.690938 
L 466.461493 347.170998 
L 470.3616 330.55157 
L 471.661636 311.068973 
L 472.961671 309.612473 
L 474.261707 306.914277 
L 480.761885 306.914277 
L 482.06192 314.325107 
L 483.361956 318.142205 
L 484.661992 306.914277 
L 488.562098 306.914277 
L 489.862134 320.94923 
L 491.162169 312.005456 
L 492.462205 306.914277 
L 493.762241 309.04411 
L 497.662347 320.450784 
L 498.962383 324.604243 
L 500.262419 306.914277 
L 509.362668 306.914277 
L 510.662703 315.628093 
L 511.962739 306.914277 
L 515.862846 307.037378 
L 517.162881 309.104496 
L 518.462917 313.815954 
L 519.762952 316.699661 
L 521.062988 313.834457 
L 524.963095 306.914277 
L 536.663415 306.914277 
L 537.96345 307.04395 
L 537.96345 307.04395 
" clip-path="url(#pd1dbe67d32)" style="fill: none; stroke: #0000ff; stroke-width: 1.5; stroke-linecap: square"/>
   </g>
   <g id="patch_9">
    <path d="M 46.55 390.04 
L 46.55 302.955909 
" style="fill: none; stroke: #000000; stroke-width: 0.8; stroke-linejoin: miter; stroke-linecap: square"/>
   </g>
   <g id="patch_10">
    <path d="M 561.364091 390.04 
L 561.364091 302.955909 
" style="fill: none; stroke: #000000; stroke-width: 0.8; stroke-linejoin: miter; stroke-linecap: square"/>
   </g>
   <g id="patch_11">
    <path d="M 46.55 390.04 
L 561.364091 390.04 
" style="fill: none; stroke: #000000; stroke-width: 0.8; stroke-linejoin: miter; stroke-linecap: square"/>
   </g>
   <g id="patch_12">
    <path d="M 46.55 302.955909 
L 561.364091 302.955909 
" style="fill: none; stroke: #000000; stroke-width: 0.8; stroke-linejoin: miter; stroke-linecap: square"/>
   </g>
  </g>
 </g>
 <defs>
  <clipPath id="pdf010922d6">
   <rect x="46.55" y="26.88" width="514.814091" height="261.252273"/>
  </clipPath>
  <clipPath id="pd1dbe67d32">
   <rect x="46.55" y="302.955909" width="514.814091" height="87.084091"/>
  </clipPath>
 </defs>
</svg>
