<?xml version="1.0" encoding="utf-8" standalone="no"?>
<!DOCTYPE svg PUBLIC "-//W3C//DTD SVG 1.1//EN"
  "http://www.w3.org/Graphics/SVG/1.1/DTD/svg11.dtd">
<svg xmlns:xlink="http://www.w3.org/1999/xlink" width="576pt" height="432pt" viewBox="0 0 576 432" xmlns="http://www.w3.org/2000/svg" version="1.1">
 <metadata>
  <rdf:RDF xmlns:dc="http://purl.org/dc/elements/1.1/" xmlns:cc="http://creativecommons.org/ns#" xmlns:rdf="http://www.w3.org/1999/02/22-rdf-syntax-ns#">
   <cc:Work>
    <dc:type rdf:resource="http://purl.org/dc/dcmitype/StillImage"/>
    <dc:date>2023-01-15T23:56:30.936870</dc:date>
    <dc:format>image/svg+xml</dc:format>
    <dc:creator>
     <cc:Agent>
      <dc:title>Matplotlib v3.5.0, https://matplotlib.org/</dc:title>
     </cc:Agent>
    </dc:creator>
   </cc:Work>
  </rdf:RDF>
 </metadata>
 <defs>
  <style type="text/css">*{stroke-linejoin: round; stroke-linecap: butt}</style>
 </defs>
 <g id="figure_1">
  <g id="patch_1">
   <path d="M 0 432 
L 576 432 
L 576 0 
L 0 0 
z
" style="fill: #ffffff"/>
  </g>
  <g id="axes_1">
   <g id="patch_2">
    <path d="M 46.55 288.132273 
L 554.527194 288.132273 
L 554.527194 26.88 
L 46.55 26.88 
z
" style="fill: #ffffff"/>
   </g>
   <g id="matplotlib.axis_1">
    <g id="xtick_1">
     <g id="line2d_1">
      <defs>
       <path id="m3a2f199097" d="M 0 0 
L 0 3.5 
" style="stroke: #000000; stroke-width: 0.8"/>
      </defs>
      <g>
       <use xlink:href="#m3a2f199097" x="73.498904" y="288.132273" style="stroke: #000000; stroke-width: 0.8"/>
      </g>
     </g>
    </g>
    <g id="xtick_2">
     <g id="line2d_2">
      <g>
       <use xlink:href="#m3a2f199097" x="149.393192" y="288.132273" style="stroke: #000000; stroke-width: 0.8"/>
      </g>
     </g>
    </g>
    <g id="xtick_3">
     <g id="line2d_3">
      <g>
       <use xlink:href="#m3a2f199097" x="227.860168" y="288.132273" style="stroke: #000000; stroke-width: 0.8"/>
      </g>
     </g>
    </g>
    <g id="xtick_4">
     <g id="line2d_4">
      <g>
       <use xlink:href="#m3a2f199097" x="306.327145" y="288.132273" style="stroke: #000000; stroke-width: 0.8"/>
      </g>
     </g>
    </g>
    <g id="xtick_5">
     <g id="line2d_5">
      <g>
       <use xlink:href="#m3a2f199097" x="386.080464" y="288.132273" style="stroke: #000000; stroke-width: 0.8"/>
      </g>
     </g>
    </g>
    <g id="xtick_6">
     <g id="line2d_6">
      <g>
       <use xlink:href="#m3a2f199097" x="464.547441" y="288.132273" style="stroke: #000000; stroke-width: 0.8"/>
      </g>
     </g>
    </g>
    <g id="xtick_7">
     <g id="line2d_7">
      <g>
       <use xlink:href="#m3a2f199097" x="543.014417" y="288.132273" style="stroke: #000000; stroke-width: 0.8"/>
      </g>
     </g>
    </g>
   </g>
   <g id="matplotlib.axis_2">
    <g id="ytick_1">
     <g id="line2d_8">
      <defs>
       <path id="mf0944ecf8e" d="M 0 0 
L -3.5 0 
" style="stroke: #000000; stroke-width: 0.8"/>
      </defs>
      <g>
       <use xlink:href="#mf0944ecf8e" x="46.55" y="251.427185" style="stroke: #000000; stroke-width: 0.8"/>
      </g>
     </g>
     <g id="text_1">
      <!-- 0 -->
      <g transform="translate(33.1875 255.226404)scale(0.1 -0.1)">
       <defs>
        <path id="DejaVuSans-30" d="M 2034 4250 
Q 1547 4250 1301 3770 
Q 1056 3291 1056 2328 
Q 1056 1369 1301 889 
Q 1547 409 2034 409 
Q 2525 409 2770 889 
Q 3016 1369 3016 2328 
Q 3016 3291 2770 3770 
Q 2525 4250 2034 4250 
z
M 2034 4750 
Q 2819 4750 3233 4129 
Q 3647 3509 3647 2328 
Q 3647 1150 3233 529 
Q 2819 -91 2034 -91 
Q 1250 -91 836 529 
Q 422 1150 422 2328 
Q 422 3509 836 4129 
Q 1250 4750 2034 4750 
z
" transform="scale(0.015625)"/>
       </defs>
       <use xlink:href="#DejaVuSans-30"/>
      </g>
     </g>
    </g>
    <g id="ytick_2">
     <g id="line2d_9">
      <g>
       <use xlink:href="#mf0944ecf8e" x="46.55" y="210.225842" style="stroke: #000000; stroke-width: 0.8"/>
      </g>
     </g>
     <g id="text_2">
      <!-- 10 -->
      <g transform="translate(26.825 214.02506)scale(0.1 -0.1)">
       <defs>
        <path id="DejaVuSans-31" d="M 794 531 
L 1825 531 
L 1825 4091 
L 703 3866 
L 703 4441 
L 1819 4666 
L 2450 4666 
L 2450 531 
L 3481 531 
L 3481 0 
L 794 0 
L 794 531 
z
" transform="scale(0.015625)"/>
       </defs>
       <use xlink:href="#DejaVuSans-31"/>
       <use xlink:href="#DejaVuSans-30" x="63.623047"/>
      </g>
     </g>
    </g>
    <g id="ytick_3">
     <g id="line2d_10">
      <g>
       <use xlink:href="#mf0944ecf8e" x="46.55" y="169.024498" style="stroke: #000000; stroke-width: 0.8"/>
      </g>
     </g>
     <g id="text_3">
      <!-- 20 -->
      <g transform="translate(26.825 172.823717)scale(0.1 -0.1)">
       <defs>
        <path id="DejaVuSans-32" d="M 1228 531 
L 3431 531 
L 3431 0 
L 469 0 
L 469 531 
Q 828 903 1448 1529 
Q 2069 2156 2228 2338 
Q 2531 2678 2651 2914 
Q 2772 3150 2772 3378 
Q 2772 3750 2511 3984 
Q 2250 4219 1831 4219 
Q 1534 4219 1204 4116 
Q 875 4013 500 3803 
L 500 4441 
Q 881 4594 1212 4672 
Q 1544 4750 1819 4750 
Q 2544 4750 2975 4387 
Q 3406 4025 3406 3419 
Q 3406 3131 3298 2873 
Q 3191 2616 2906 2266 
Q 2828 2175 2409 1742 
Q 1991 1309 1228 531 
z
" transform="scale(0.015625)"/>
       </defs>
       <use xlink:href="#DejaVuSans-32"/>
       <use xlink:href="#DejaVuSans-30" x="63.623047"/>
      </g>
     </g>
    </g>
    <g id="ytick_4">
     <g id="line2d_11">
      <g>
       <use xlink:href="#mf0944ecf8e" x="46.55" y="127.823154" style="stroke: #000000; stroke-width: 0.8"/>
      </g>
     </g>
     <g id="text_4">
      <!-- 30 -->
      <g transform="translate(26.825 131.622373)scale(0.1 -0.1)">
       <defs>
        <path id="DejaVuSans-33" d="M 2597 2516 
Q 3050 2419 3304 2112 
Q 3559 1806 3559 1356 
Q 3559 666 3084 287 
Q 2609 -91 1734 -91 
Q 1441 -91 1130 -33 
Q 819 25 488 141 
L 488 750 
Q 750 597 1062 519 
Q 1375 441 1716 441 
Q 2309 441 2620 675 
Q 2931 909 2931 1356 
Q 2931 1769 2642 2001 
Q 2353 2234 1838 2234 
L 1294 2234 
L 1294 2753 
L 1863 2753 
Q 2328 2753 2575 2939 
Q 2822 3125 2822 3475 
Q 2822 3834 2567 4026 
Q 2313 4219 1838 4219 
Q 1578 4219 1281 4162 
Q 984 4106 628 3988 
L 628 4550 
Q 988 4650 1302 4700 
Q 1616 4750 1894 4750 
Q 2613 4750 3031 4423 
Q 3450 4097 3450 3541 
Q 3450 3153 3228 2886 
Q 3006 2619 2597 2516 
z
" transform="scale(0.015625)"/>
       </defs>
       <use xlink:href="#DejaVuSans-33"/>
       <use xlink:href="#DejaVuSans-30" x="63.623047"/>
      </g>
     </g>
    </g>
    <g id="ytick_5">
     <g id="line2d_12">
      <g>
       <use xlink:href="#mf0944ecf8e" x="46.55" y="86.621811" style="stroke: #000000; stroke-width: 0.8"/>
      </g>
     </g>
     <g id="text_5">
      <!-- 40 -->
      <g transform="translate(26.825 90.421029)scale(0.1 -0.1)">
       <defs>
        <path id="DejaVuSans-34" d="M 2419 4116 
L 825 1625 
L 2419 1625 
L 2419 4116 
z
M 2253 4666 
L 3047 4666 
L 3047 1625 
L 3713 1625 
L 3713 1100 
L 3047 1100 
L 3047 0 
L 2419 0 
L 2419 1100 
L 313 1100 
L 313 1709 
L 2253 4666 
z
" transform="scale(0.015625)"/>
       </defs>
       <use xlink:href="#DejaVuSans-34"/>
       <use xlink:href="#DejaVuSans-30" x="63.623047"/>
      </g>
     </g>
    </g>
    <g id="ytick_6">
     <g id="line2d_13">
      <g>
       <use xlink:href="#mf0944ecf8e" x="46.55" y="45.420467" style="stroke: #000000; stroke-width: 0.8"/>
      </g>
     </g>
     <g id="text_6">
      <!-- 50 -->
      <g transform="translate(26.825 49.219686)scale(0.1 -0.1)">
       <defs>
        <path id="DejaVuSans-35" d="M 691 4666 
L 3169 4666 
L 3169 4134 
L 1269 4134 
L 1269 2991 
Q 1406 3038 1543 3061 
Q 1681 3084 1819 3084 
Q 2600 3084 3056 2656 
Q 3513 2228 3513 1497 
Q 3513 744 3044 326 
Q 2575 -91 1722 -91 
Q 1428 -91 1123 -41 
Q 819 9 494 109 
L 494 744 
Q 775 591 1075 516 
Q 1375 441 1709 441 
Q 2250 441 2565 725 
Q 2881 1009 2881 1497 
Q 2881 1984 2565 2268 
Q 2250 2553 1709 2553 
Q 1456 2553 1204 2497 
Q 953 2441 691 2322 
L 691 4666 
z
" transform="scale(0.015625)"/>
       </defs>
       <use xlink:href="#DejaVuSans-35"/>
       <use xlink:href="#DejaVuSans-30" x="63.623047"/>
      </g>
     </g>
    </g>
    <g id="text_7">
     <!-- Return [%] -->
     <g transform="translate(20.745313 184.338949)rotate(-90)scale(0.1 -0.1)">
      <defs>
       <path id="DejaVuSans-52" d="M 2841 2188 
Q 3044 2119 3236 1894 
Q 3428 1669 3622 1275 
L 4263 0 
L 3584 0 
L 2988 1197 
Q 2756 1666 2539 1819 
Q 2322 1972 1947 1972 
L 1259 1972 
L 1259 0 
L 628 0 
L 628 4666 
L 2053 4666 
Q 2853 4666 3247 4331 
Q 3641 3997 3641 3322 
Q 3641 2881 3436 2590 
Q 3231 2300 2841 2188 
z
M 1259 4147 
L 1259 2491 
L 2053 2491 
Q 2509 2491 2742 2702 
Q 2975 2913 2975 3322 
Q 2975 3731 2742 3939 
Q 2509 4147 2053 4147 
L 1259 4147 
z
" transform="scale(0.015625)"/>
       <path id="DejaVuSans-65" d="M 3597 1894 
L 3597 1613 
L 953 1613 
Q 991 1019 1311 708 
Q 1631 397 2203 397 
Q 2534 397 2845 478 
Q 3156 559 3463 722 
L 3463 178 
Q 3153 47 2828 -22 
Q 2503 -91 2169 -91 
Q 1331 -91 842 396 
Q 353 884 353 1716 
Q 353 2575 817 3079 
Q 1281 3584 2069 3584 
Q 2775 3584 3186 3129 
Q 3597 2675 3597 1894 
z
M 3022 2063 
Q 3016 2534 2758 2815 
Q 2500 3097 2075 3097 
Q 1594 3097 1305 2825 
Q 1016 2553 972 2059 
L 3022 2063 
z
" transform="scale(0.015625)"/>
       <path id="DejaVuSans-74" d="M 1172 4494 
L 1172 3500 
L 2356 3500 
L 2356 3053 
L 1172 3053 
L 1172 1153 
Q 1172 725 1289 603 
Q 1406 481 1766 481 
L 2356 481 
L 2356 0 
L 1766 0 
Q 1100 0 847 248 
Q 594 497 594 1153 
L 594 3053 
L 172 3053 
L 172 3500 
L 594 3500 
L 594 4494 
L 1172 4494 
z
" transform="scale(0.015625)"/>
       <path id="DejaVuSans-75" d="M 544 1381 
L 544 3500 
L 1119 3500 
L 1119 1403 
Q 1119 906 1312 657 
Q 1506 409 1894 409 
Q 2359 409 2629 706 
Q 2900 1003 2900 1516 
L 2900 3500 
L 3475 3500 
L 3475 0 
L 2900 0 
L 2900 538 
Q 2691 219 2414 64 
Q 2138 -91 1772 -91 
Q 1169 -91 856 284 
Q 544 659 544 1381 
z
M 1991 3584 
L 1991 3584 
z
" transform="scale(0.015625)"/>
       <path id="DejaVuSans-72" d="M 2631 2963 
Q 2534 3019 2420 3045 
Q 2306 3072 2169 3072 
Q 1681 3072 1420 2755 
Q 1159 2438 1159 1844 
L 1159 0 
L 581 0 
L 581 3500 
L 1159 3500 
L 1159 2956 
Q 1341 3275 1631 3429 
Q 1922 3584 2338 3584 
Q 2397 3584 2469 3576 
Q 2541 3569 2628 3553 
L 2631 2963 
z
" transform="scale(0.015625)"/>
       <path id="DejaVuSans-6e" d="M 3513 2113 
L 3513 0 
L 2938 0 
L 2938 2094 
Q 2938 2591 2744 2837 
Q 2550 3084 2163 3084 
Q 1697 3084 1428 2787 
Q 1159 2491 1159 1978 
L 1159 0 
L 581 0 
L 581 3500 
L 1159 3500 
L 1159 2956 
Q 1366 3272 1645 3428 
Q 1925 3584 2291 3584 
Q 2894 3584 3203 3211 
Q 3513 2838 3513 2113 
z
" transform="scale(0.015625)"/>
       <path id="DejaVuSans-20" transform="scale(0.015625)"/>
       <path id="DejaVuSans-5b" d="M 550 4863 
L 1875 4863 
L 1875 4416 
L 1125 4416 
L 1125 -397 
L 1875 -397 
L 1875 -844 
L 550 -844 
L 550 4863 
z
" transform="scale(0.015625)"/>
       <path id="DejaVuSans-25" d="M 4653 2053 
Q 4381 2053 4226 1822 
Q 4072 1591 4072 1178 
Q 4072 772 4226 539 
Q 4381 306 4653 306 
Q 4919 306 5073 539 
Q 5228 772 5228 1178 
Q 5228 1588 5073 1820 
Q 4919 2053 4653 2053 
z
M 4653 2450 
Q 5147 2450 5437 2106 
Q 5728 1763 5728 1178 
Q 5728 594 5436 251 
Q 5144 -91 4653 -91 
Q 4153 -91 3862 251 
Q 3572 594 3572 1178 
Q 3572 1766 3864 2108 
Q 4156 2450 4653 2450 
z
M 1428 4353 
Q 1159 4353 1004 4120 
Q 850 3888 850 3481 
Q 850 3069 1003 2837 
Q 1156 2606 1428 2606 
Q 1700 2606 1854 2837 
Q 2009 3069 2009 3481 
Q 2009 3884 1853 4118 
Q 1697 4353 1428 4353 
z
M 4250 4750 
L 4750 4750 
L 1831 -91 
L 1331 -91 
L 4250 4750 
z
M 1428 4750 
Q 1922 4750 2215 4408 
Q 2509 4066 2509 3481 
Q 2509 2891 2217 2550 
Q 1925 2209 1428 2209 
Q 931 2209 642 2551 
Q 353 2894 353 3481 
Q 353 4063 643 4406 
Q 934 4750 1428 4750 
z
" transform="scale(0.015625)"/>
       <path id="DejaVuSans-5d" d="M 1947 4863 
L 1947 -844 
L 622 -844 
L 622 -397 
L 1369 -397 
L 1369 4416 
L 622 4416 
L 622 4863 
L 1947 4863 
z
" transform="scale(0.015625)"/>
      </defs>
      <use xlink:href="#DejaVuSans-52"/>
      <use xlink:href="#DejaVuSans-65" x="64.982422"/>
      <use xlink:href="#DejaVuSans-74" x="126.505859"/>
      <use xlink:href="#DejaVuSans-75" x="165.714844"/>
      <use xlink:href="#DejaVuSans-72" x="229.09375"/>
      <use xlink:href="#DejaVuSans-6e" x="268.457031"/>
      <use xlink:href="#DejaVuSans-20" x="331.835938"/>
      <use xlink:href="#DejaVuSans-5b" x="363.623047"/>
      <use xlink:href="#DejaVuSans-25" x="402.636719"/>
      <use xlink:href="#DejaVuSans-5d" x="497.65625"/>
     </g>
    </g>
   </g>
   <g id="line2d_14">
    <path d="M 69.639872 249.062118 
L 70.926216 253.091782 
L 74.785248 253.306967 
L 78.64428 255.820254 
L 81.216967 265.198147 
L 82.503311 255.285094 
L 83.789655 258.719079 
L 87.648687 256.148074 
L 88.935031 252.780213 
L 90.221374 261.429618 
L 91.507718 255.105774 
L 92.794062 251.872964 
L 96.653094 249.796211 
L 97.939438 245.514937 
L 99.225781 242.816726 
L 100.512125 236.49008 
L 101.798469 232.962513 
L 105.657501 227.83227 
L 106.943845 233.808681 
L 108.230189 225.635596 
L 109.516532 223.436119 
L 110.802876 222.530552 
L 114.661908 221.878274 
L 115.948252 216.983389 
L 117.234596 220.936842 
L 118.52094 219.02596 
L 119.807283 215.265556 
L 123.666315 217.549369 
L 124.952659 214.372036 
L 126.239003 217.092662 
L 127.525347 208.317173 
L 128.81169 203.360086 
L 132.670722 202.730223 
L 133.957066 206.456724 
L 135.24341 200.527945 
L 136.529754 197.700848 
L 137.816098 197.114694 
L 141.675129 192.870406 
L 142.961473 191.626371 
L 144.247817 193.080547 
L 146.820505 189.634514 
L 150.679536 190.864259 
L 151.96588 197.804517 
L 153.252224 197.067623 
L 154.538568 195.649871 
L 155.824912 197.61511 
L 159.683943 198.227601 
L 160.970287 203.453108 
L 162.256631 197.401046 
L 163.542975 197.854951 
L 164.829319 196.891665 
L 168.68835 190.01529 
L 169.974694 193.879083 
L 171.261038 186.011402 
L 173.833726 184.075303 
L 177.692758 187.574852 
L 178.979101 186.759504 
L 180.265445 188.692802 
L 181.551789 193.954733 
L 182.838133 197.610347 
L 186.697165 190.71576 
L 187.983508 196.163736 
L 189.269852 195.669484 
L 190.556196 193.97995 
L 196.987916 187.84103 
L 198.274259 190.827835 
L 199.560603 188.258511 
L 200.846947 187.131034 
L 204.705979 187.020079 
L 205.992323 186.732326 
L 207.278667 184.148152 
L 208.56501 189.662253 
L 209.851354 199.528794 
L 213.710386 193.206631 
L 214.99673 188.597538 
L 216.283074 185.369772 
L 217.569418 189.987271 
L 218.855761 187.537867 
L 222.714793 181.536799 
L 225.287481 205.002548 
L 226.573825 207.283559 
L 231.7192 205.585339 
L 233.005544 216.406201 
L 234.291888 219.572326 
L 235.578232 218.600074 
L 236.864576 210.529257 
L 240.723607 210.368149 
L 242.009951 215.111733 
L 243.296295 208.972813 
L 245.868983 210.521412 
L 249.728014 208.815907 
L 251.014358 205.820697 
L 253.587046 203.318618 
L 254.87339 201.560998 
L 258.732421 200.93702 
L 260.018765 204.355314 
L 261.305109 197.185302 
L 262.591453 196.350341 
L 263.877797 202.533811 
L 267.736828 201.245226 
L 269.023172 204.310484 
L 270.309516 203.458152 
L 271.59586 208.130567 
L 272.882204 213.331138 
L 276.741236 218.062113 
L 278.027579 218.546838 
L 279.313923 212.2314 
L 280.600267 213.769632 
L 281.886611 215.887013 
L 285.745643 224.388759 
L 287.031986 220.118693 
L 288.31833 224.25707 
L 289.604674 225.666416 
L 294.75005 213.284907 
L 296.036394 209.269812 
L 297.322737 211.917589 
L 298.609081 214.825941 
L 299.895425 212.826799 
L 303.754457 226.403311 
L 305.040801 231.486202 
L 306.327145 222.004359 
L 307.613488 225.757477 
L 308.899832 228.139916 
L 312.758864 235.61029 
L 314.045208 238.641925 
L 315.331552 237.308229 
L 316.617895 229.264031 
L 317.904239 217.79005 
L 321.763271 211.09944 
L 323.049615 210.586696 
L 324.335959 214.587781 
L 325.622303 205.019359 
L 326.908646 205.202602 
L 330.767678 200.166502 
L 332.054022 204.935303 
L 333.340366 209.180152 
L 334.62671 209.589226 
L 335.913054 211.553064 
L 339.772085 220.370862 
L 341.058429 218.440367 
L 342.344773 215.739354 
L 343.631117 214.159093 
L 344.917461 210.75649 
L 348.776492 210.017914 
L 350.062836 211.811117 
L 351.34918 207.456995 
L 352.635524 209.098897 
L 353.921868 211.698202 
L 357.780899 204.90168 
L 359.067243 211.015383 
L 360.353587 222.134366 
L 361.639931 216.778852 
L 362.926275 218.830949 
L 366.785306 217.154303 
L 368.07165 219.754449 
L 369.357994 228.165694 
L 370.644338 233.522889 
L 371.930682 244.459469 
L 375.789714 263.30968 
L 377.076057 247.823967 
L 378.362401 254.871537 
L 379.648745 242.357218 
L 380.935089 240.439051 
L 384.794121 242.857914 
L 386.080464 251.602023 
L 387.366808 251.140273 
L 388.653152 243.099436 
L 389.939496 253.957844 
L 393.798528 251.073308 
L 396.371215 241.156332 
L 397.657559 244.742739 
L 398.943903 246.406776 
L 402.802935 252.200224 
L 404.089279 251.82197 
L 405.375623 247.736828 
L 406.661966 246.952302 
L 407.94831 256.295452 
L 411.807342 253.620497 
L 413.093686 264.063386 
L 414.38003 265.153317 
L 415.666373 276.257169 
L 416.952717 266.002007 
L 420.811749 274.153798 
L 422.098093 273.452487 
L 423.384437 266.446385 
L 424.670781 269.930523 
L 425.957124 267.574983 
L 429.816156 255.215047 
L 431.1025 255.164613 
L 432.388844 256.60478 
L 433.675188 253.108033 
L 434.961532 247.714413 
L 438.820563 248.361648 
L 440.106907 254.335257 
L 441.393251 259.199321 
L 442.679595 256.08363 
L 443.965939 256.508115 
L 447.82497 254.926454 
L 449.111314 252.497223 
L 450.397658 256.582365 
L 451.684002 247.509876 
L 452.970346 241.311836 
L 456.829377 241.432597 
L 458.115721 246.792595 
L 459.402065 243.259424 
L 460.688409 244.318534 
L 461.974753 243.374301 
L 465.833784 242.474897 
L 467.120128 241.071155 
L 468.406472 234.912622 
L 469.692816 236.644184 
L 470.97916 235.736375 
L 474.838191 239.922384 
L 476.124535 243.326669 
L 477.410879 239.947601 
L 478.697223 246.408737 
L 479.983567 249.822828 
L 483.842599 249.031577 
L 485.128942 239.254135 
L 486.415286 239.185209 
L 487.70163 239.579714 
L 488.987974 237.031123 
L 492.847006 238.732145 
L 494.13335 246.270324 
L 495.419693 241.33145 
L 496.706037 236.914845 
L 497.992381 236.993018 
L 501.851413 233.057216 
L 503.137757 234.608618 
L 504.4241 233.669427 
L 505.710444 242.482462 
L 506.996788 247.270596 
L 510.85582 244.694547 
L 512.142164 255.768979 
L 513.428508 259.707863 
L 514.714851 261.815717 
L 516.001195 270.857946 
L 519.860227 274.187981 
L 521.146571 263.759662 
L 522.432915 263.325931 
L 523.719259 260.440554 
L 525.005602 264.835864 
L 528.864634 265.818764 
L 530.150978 267.328417 
L 531.437322 258.09454 
L 531.437322 258.09454 
" clip-path="url(#pb9fd79f074)" style="fill: none; stroke: #008000; stroke-width: 1.5; stroke-linecap: square"/>
   </g>
   <g id="line2d_15">
    <path d="M 69.639872 246.883956 
L 70.926216 245.754219 
L 78.64428 239.424283 
L 81.216967 242.893376 
L 82.503311 241.927512 
L 83.789655 238.759362 
L 87.648687 236.135486 
L 90.221374 242.107948 
L 91.507718 243.139708 
L 92.794062 241.810686 
L 96.653094 236.861952 
L 97.939438 232.820599 
L 99.225781 229.797345 
L 100.512125 227.543118 
L 101.798469 230.934027 
L 105.657501 224.162177 
L 106.943845 212.081951 
L 108.230189 215.931721 
L 109.516532 206.344744 
L 110.802876 206.121029 
L 114.661908 207.866349 
L 115.948252 205.465686 
L 118.52094 205.759759 
L 119.807283 202.15253 
L 123.666315 205.22542 
L 124.952659 206.791796 
L 126.239003 206.056491 
L 127.525347 208.074003 
L 128.81169 200.548267 
L 132.670722 205.055508 
L 133.957066 198.898258 
L 135.24341 196.785849 
L 136.529754 191.92227 
L 137.816098 192.730024 
L 141.675129 194.73379 
L 142.961473 191.630243 
L 145.534161 182.241124 
L 146.820505 185.289569 
L 150.679536 182.995456 
L 151.96588 184.859087 
L 153.252224 190.51711 
L 154.538568 189.752154 
L 155.824912 176.593711 
L 159.683943 178.415163 
L 160.970287 178.828491 
L 162.256631 193.636064 
L 164.829319 172.808807 
L 168.68835 169.447885 
L 169.974694 149.86689 
L 171.261038 149.86689 
L 172.547382 144.433608 
L 173.833726 146.384607 
L 177.692758 139.24613 
L 178.979101 148.107624 
L 180.265445 144.609826 
L 181.551789 153.05233 
L 182.838133 151.01066 
L 186.697165 152.435032 
L 187.983508 141.172787 
L 189.269852 140.134474 
L 190.556196 137.709305 
L 196.987916 133.37384 
L 198.274259 129.33554 
L 199.560603 128.133973 
L 200.846947 129.471764 
L 204.705979 125.72689 
L 205.992323 131.473173 
L 207.278667 126.520595 
L 208.56501 125.249083 
L 209.851354 129.596635 
L 213.710386 137.462652 
L 214.99673 135.77033 
L 216.283074 141.322023 
L 217.569418 137.273556 
L 218.855761 123.712563 
L 222.714793 95.832959 
L 224.001137 98.949798 
L 225.287481 89.615254 
L 226.573825 94.115476 
L 231.7192 93.66655 
L 233.005544 103.715101 
L 249.728014 103.715101 
L 251.014358 104.271313 
L 252.300702 97.632837 
L 253.587046 105.834021 
L 254.87339 99.720961 
L 258.732421 95.904152 
L 260.018765 98.482909 
L 261.305109 99.216296 
L 262.591453 89.162104 
L 263.877797 92.368727 
L 267.736828 104.655305 
L 269.023172 93.533078 
L 270.309516 97.967371 
L 271.59586 87.964346 
L 272.882204 96.564782 
L 276.741236 105.206258 
L 278.027579 111.62421 
L 280.600267 111.62421 
L 281.886611 115.445618 
L 297.322737 115.445618 
L 298.609081 120.275838 
L 299.895425 118.242798 
L 303.754457 131.060762 
L 306.327145 131.060762 
L 307.613488 125.86342 
L 308.899832 125.949699 
L 312.758864 137.097324 
L 314.045208 134.449446 
L 315.331552 136.5314 
L 316.617895 139.778099 
L 317.904239 127.625993 
L 321.763271 122.974343 
L 323.049615 115.469132 
L 324.335959 113.171488 
L 325.622303 117.442542 
L 326.908646 107.299971 
L 330.767678 113.273239 
L 332.054022 99.419068 
L 333.340366 101.186159 
L 334.62671 102.632756 
L 335.913054 106.392009 
L 339.772085 104.376448 
L 341.058429 111.44599 
L 342.344773 104.469795 
L 343.631117 106.605568 
L 344.917461 102.88552 
L 348.776492 100.615583 
L 350.062836 103.800443 
L 351.34918 104.884885 
L 352.635524 95.700183 
L 353.921868 97.68825 
L 357.780899 96.92031 
L 359.067243 90.727975 
L 360.353587 94.001283 
L 361.639931 90.662309 
L 362.926275 88.902775 
L 366.785306 79.01872 
L 368.07165 81.82058 
L 369.357994 85.751171 
L 371.930682 104.800502 
L 395.084872 104.800502 
L 396.371215 95.271361 
L 398.943903 97.999319 
L 402.802935 97.314751 
L 404.089279 103.133483 
L 405.375623 103.133483 
L 406.661966 97.219374 
L 407.94831 98.709346 
L 411.807342 102.057042 
L 413.093686 95.260312 
L 414.38003 104.726944 
L 415.666373 105.908244 
L 429.816156 105.908244 
L 431.1025 98.559189 
L 432.388844 96.046335 
L 434.961532 109.366088 
L 438.820563 106.676519 
L 440.106907 110.323874 
L 441.393251 111.930545 
L 442.679595 110.006612 
L 443.965939 110.480051 
L 447.82497 112.955196 
L 449.111314 110.075754 
L 450.397658 105.847081 
L 451.684002 108.219101 
L 452.970346 105.428304 
L 456.829377 98.913136 
L 458.115721 96.980418 
L 459.402065 95.547978 
L 460.688409 88.929471 
L 461.974753 85.556742 
L 465.833784 81.415972 
L 467.120128 69.993824 
L 468.406472 71.823959 
L 469.692816 71.024446 
L 470.97916 70.769856 
L 474.838191 65.969096 
L 476.124535 63.496547 
L 477.410879 65.201161 
L 478.697223 61.41816 
L 479.983567 63.779207 
L 483.842599 67.023639 
L 485.128942 61.01858 
L 486.415286 57.198745 
L 487.70163 56.720617 
L 488.987974 55.768035 
L 492.847006 53.807616 
L 494.13335 58.001067 
L 495.419693 63.566673 
L 496.706037 62.827896 
L 497.992381 58.022903 
L 501.851413 55.028055 
L 503.137757 46.595006 
L 504.4241 42.109114 
L 505.710444 38.755103 
L 506.996788 47.21907 
L 510.85582 47.78851 
L 512.142164 45.49958 
L 513.428508 47.5836 
L 514.714851 52.265341 
L 516.001195 46.980921 
L 519.860227 64.14215 
L 521.146571 64.14215 
L 522.432915 55.383038 
L 523.719259 57.531864 
L 525.005602 54.956478 
L 531.437322 54.956478 
L 531.437322 54.956478 
" clip-path="url(#pb9fd79f074)" style="fill: none; stroke: #0000ff; stroke-width: 1.5; stroke-linecap: square"/>
   </g>
   <g id="line2d_16">
    <path d="M 69.639872 246.883956 
L 70.926216 245.754219 
L 78.64428 239.424283 
L 82.503311 239.424283 
L 83.789655 238.759362 
L 87.648687 236.135486 
L 96.653094 236.135486 
L 99.225781 229.797345 
L 100.512125 227.543118 
L 101.798469 227.543118 
L 105.657501 224.162177 
L 106.943845 212.081951 
L 108.230189 212.081951 
L 109.516532 206.344744 
L 110.802876 206.121029 
L 114.661908 206.121029 
L 115.948252 205.465686 
L 118.52094 205.465686 
L 119.807283 202.15253 
L 127.525347 202.15253 
L 128.81169 200.548267 
L 132.670722 200.548267 
L 133.957066 198.898258 
L 135.24341 196.785849 
L 136.529754 191.92227 
L 141.675129 191.92227 
L 142.961473 191.630243 
L 145.534161 182.241124 
L 154.538568 182.241124 
L 155.824912 176.593711 
L 163.542975 176.593711 
L 164.829319 172.808807 
L 168.68835 169.447885 
L 169.974694 149.86689 
L 171.261038 149.86689 
L 172.547382 144.433608 
L 173.833726 144.433608 
L 177.692758 139.24613 
L 189.269852 139.24613 
L 190.556196 137.709305 
L 196.987916 133.37384 
L 198.274259 129.33554 
L 199.560603 128.133973 
L 200.846947 128.133973 
L 204.705979 125.72689 
L 207.278667 125.72689 
L 208.56501 125.249083 
L 217.569418 125.249083 
L 218.855761 123.712563 
L 222.714793 95.832959 
L 224.001137 95.832959 
L 225.287481 89.615254 
L 261.305109 89.615254 
L 262.591453 89.162104 
L 270.309516 89.162104 
L 271.59586 87.964346 
L 362.926275 87.964346 
L 366.785306 79.01872 
L 465.833784 79.01872 
L 467.120128 69.993824 
L 470.97916 69.993824 
L 474.838191 65.969096 
L 476.124535 63.496547 
L 477.410879 63.496547 
L 478.697223 61.41816 
L 483.842599 61.41816 
L 485.128942 61.01858 
L 486.415286 57.198745 
L 487.70163 56.720617 
L 488.987974 55.768035 
L 492.847006 53.807616 
L 501.851413 53.807616 
L 503.137757 46.595006 
L 504.4241 42.109114 
L 505.710444 38.755103 
L 531.437322 38.755103 
L 531.437322 38.755103 
" clip-path="url(#pb9fd79f074)" style="fill: none; stroke: #ff0000; stroke-width: 1.5; stroke-linecap: square"/>
   </g>
   <g id="patch_3">
    <path d="M 46.55 288.132273 
L 46.55 26.88 
" style="fill: none; stroke: #000000; stroke-width: 0.8; stroke-linejoin: miter; stroke-linecap: square"/>
   </g>
   <g id="patch_4">
    <path d="M 554.527194 288.132273 
L 554.527194 26.88 
" style="fill: none; stroke: #000000; stroke-width: 0.8; stroke-linejoin: miter; stroke-linecap: square"/>
   </g>
   <g id="patch_5">
    <path d="M 46.55 288.132273 
L 554.527194 288.132273 
" style="fill: none; stroke: #000000; stroke-width: 0.8; stroke-linejoin: miter; stroke-linecap: square"/>
   </g>
   <g id="patch_6">
    <path d="M 46.55 26.88 
L 554.527194 26.88 
" style="fill: none; stroke: #000000; stroke-width: 0.8; stroke-linejoin: miter; stroke-linecap: square"/>
   </g>
   <g id="text_8">
    <!-- Performance of AVAN-strategy year 2015 -->
    <g transform="translate(177.225472 20.88)scale(0.12 -0.12)">
     <defs>
      <path id="DejaVuSans-50" d="M 1259 4147 
L 1259 2394 
L 2053 2394 
Q 2494 2394 2734 2622 
Q 2975 2850 2975 3272 
Q 2975 3691 2734 3919 
Q 2494 4147 2053 4147 
L 1259 4147 
z
M 628 4666 
L 2053 4666 
Q 2838 4666 3239 4311 
Q 3641 3956 3641 3272 
Q 3641 2581 3239 2228 
Q 2838 1875 2053 1875 
L 1259 1875 
L 1259 0 
L 628 0 
L 628 4666 
z
" transform="scale(0.015625)"/>
      <path id="DejaVuSans-66" d="M 2375 4863 
L 2375 4384 
L 1825 4384 
Q 1516 4384 1395 4259 
Q 1275 4134 1275 3809 
L 1275 3500 
L 2222 3500 
L 2222 3053 
L 1275 3053 
L 1275 0 
L 697 0 
L 697 3053 
L 147 3053 
L 147 3500 
L 697 3500 
L 697 3744 
Q 697 4328 969 4595 
Q 1241 4863 1831 4863 
L 2375 4863 
z
" transform="scale(0.015625)"/>
      <path id="DejaVuSans-6f" d="M 1959 3097 
Q 1497 3097 1228 2736 
Q 959 2375 959 1747 
Q 959 1119 1226 758 
Q 1494 397 1959 397 
Q 2419 397 2687 759 
Q 2956 1122 2956 1747 
Q 2956 2369 2687 2733 
Q 2419 3097 1959 3097 
z
M 1959 3584 
Q 2709 3584 3137 3096 
Q 3566 2609 3566 1747 
Q 3566 888 3137 398 
Q 2709 -91 1959 -91 
Q 1206 -91 779 398 
Q 353 888 353 1747 
Q 353 2609 779 3096 
Q 1206 3584 1959 3584 
z
" transform="scale(0.015625)"/>
      <path id="DejaVuSans-6d" d="M 3328 2828 
Q 3544 3216 3844 3400 
Q 4144 3584 4550 3584 
Q 5097 3584 5394 3201 
Q 5691 2819 5691 2113 
L 5691 0 
L 5113 0 
L 5113 2094 
Q 5113 2597 4934 2840 
Q 4756 3084 4391 3084 
Q 3944 3084 3684 2787 
Q 3425 2491 3425 1978 
L 3425 0 
L 2847 0 
L 2847 2094 
Q 2847 2600 2669 2842 
Q 2491 3084 2119 3084 
Q 1678 3084 1418 2786 
Q 1159 2488 1159 1978 
L 1159 0 
L 581 0 
L 581 3500 
L 1159 3500 
L 1159 2956 
Q 1356 3278 1631 3431 
Q 1906 3584 2284 3584 
Q 2666 3584 2933 3390 
Q 3200 3197 3328 2828 
z
" transform="scale(0.015625)"/>
      <path id="DejaVuSans-61" d="M 2194 1759 
Q 1497 1759 1228 1600 
Q 959 1441 959 1056 
Q 959 750 1161 570 
Q 1363 391 1709 391 
Q 2188 391 2477 730 
Q 2766 1069 2766 1631 
L 2766 1759 
L 2194 1759 
z
M 3341 1997 
L 3341 0 
L 2766 0 
L 2766 531 
Q 2569 213 2275 61 
Q 1981 -91 1556 -91 
Q 1019 -91 701 211 
Q 384 513 384 1019 
Q 384 1609 779 1909 
Q 1175 2209 1959 2209 
L 2766 2209 
L 2766 2266 
Q 2766 2663 2505 2880 
Q 2244 3097 1772 3097 
Q 1472 3097 1187 3025 
Q 903 2953 641 2809 
L 641 3341 
Q 956 3463 1253 3523 
Q 1550 3584 1831 3584 
Q 2591 3584 2966 3190 
Q 3341 2797 3341 1997 
z
" transform="scale(0.015625)"/>
      <path id="DejaVuSans-63" d="M 3122 3366 
L 3122 2828 
Q 2878 2963 2633 3030 
Q 2388 3097 2138 3097 
Q 1578 3097 1268 2742 
Q 959 2388 959 1747 
Q 959 1106 1268 751 
Q 1578 397 2138 397 
Q 2388 397 2633 464 
Q 2878 531 3122 666 
L 3122 134 
Q 2881 22 2623 -34 
Q 2366 -91 2075 -91 
Q 1284 -91 818 406 
Q 353 903 353 1747 
Q 353 2603 823 3093 
Q 1294 3584 2113 3584 
Q 2378 3584 2631 3529 
Q 2884 3475 3122 3366 
z
" transform="scale(0.015625)"/>
      <path id="DejaVuSans-41" d="M 2188 4044 
L 1331 1722 
L 3047 1722 
L 2188 4044 
z
M 1831 4666 
L 2547 4666 
L 4325 0 
L 3669 0 
L 3244 1197 
L 1141 1197 
L 716 0 
L 50 0 
L 1831 4666 
z
" transform="scale(0.015625)"/>
      <path id="DejaVuSans-56" d="M 1831 0 
L 50 4666 
L 709 4666 
L 2188 738 
L 3669 4666 
L 4325 4666 
L 2547 0 
L 1831 0 
z
" transform="scale(0.015625)"/>
      <path id="DejaVuSans-4e" d="M 628 4666 
L 1478 4666 
L 3547 763 
L 3547 4666 
L 4159 4666 
L 4159 0 
L 3309 0 
L 1241 3903 
L 1241 0 
L 628 0 
L 628 4666 
z
" transform="scale(0.015625)"/>
      <path id="DejaVuSans-2d" d="M 313 2009 
L 1997 2009 
L 1997 1497 
L 313 1497 
L 313 2009 
z
" transform="scale(0.015625)"/>
      <path id="DejaVuSans-73" d="M 2834 3397 
L 2834 2853 
Q 2591 2978 2328 3040 
Q 2066 3103 1784 3103 
Q 1356 3103 1142 2972 
Q 928 2841 928 2578 
Q 928 2378 1081 2264 
Q 1234 2150 1697 2047 
L 1894 2003 
Q 2506 1872 2764 1633 
Q 3022 1394 3022 966 
Q 3022 478 2636 193 
Q 2250 -91 1575 -91 
Q 1294 -91 989 -36 
Q 684 19 347 128 
L 347 722 
Q 666 556 975 473 
Q 1284 391 1588 391 
Q 1994 391 2212 530 
Q 2431 669 2431 922 
Q 2431 1156 2273 1281 
Q 2116 1406 1581 1522 
L 1381 1569 
Q 847 1681 609 1914 
Q 372 2147 372 2553 
Q 372 3047 722 3315 
Q 1072 3584 1716 3584 
Q 2034 3584 2315 3537 
Q 2597 3491 2834 3397 
z
" transform="scale(0.015625)"/>
      <path id="DejaVuSans-67" d="M 2906 1791 
Q 2906 2416 2648 2759 
Q 2391 3103 1925 3103 
Q 1463 3103 1205 2759 
Q 947 2416 947 1791 
Q 947 1169 1205 825 
Q 1463 481 1925 481 
Q 2391 481 2648 825 
Q 2906 1169 2906 1791 
z
M 3481 434 
Q 3481 -459 3084 -895 
Q 2688 -1331 1869 -1331 
Q 1566 -1331 1297 -1286 
Q 1028 -1241 775 -1147 
L 775 -588 
Q 1028 -725 1275 -790 
Q 1522 -856 1778 -856 
Q 2344 -856 2625 -561 
Q 2906 -266 2906 331 
L 2906 616 
Q 2728 306 2450 153 
Q 2172 0 1784 0 
Q 1141 0 747 490 
Q 353 981 353 1791 
Q 353 2603 747 3093 
Q 1141 3584 1784 3584 
Q 2172 3584 2450 3431 
Q 2728 3278 2906 2969 
L 2906 3500 
L 3481 3500 
L 3481 434 
z
" transform="scale(0.015625)"/>
      <path id="DejaVuSans-79" d="M 2059 -325 
Q 1816 -950 1584 -1140 
Q 1353 -1331 966 -1331 
L 506 -1331 
L 506 -850 
L 844 -850 
Q 1081 -850 1212 -737 
Q 1344 -625 1503 -206 
L 1606 56 
L 191 3500 
L 800 3500 
L 1894 763 
L 2988 3500 
L 3597 3500 
L 2059 -325 
z
" transform="scale(0.015625)"/>
     </defs>
     <use xlink:href="#DejaVuSans-50"/>
     <use xlink:href="#DejaVuSans-65" x="56.677734"/>
     <use xlink:href="#DejaVuSans-72" x="118.201172"/>
     <use xlink:href="#DejaVuSans-66" x="159.314453"/>
     <use xlink:href="#DejaVuSans-6f" x="194.519531"/>
     <use xlink:href="#DejaVuSans-72" x="255.701172"/>
     <use xlink:href="#DejaVuSans-6d" x="295.064453"/>
     <use xlink:href="#DejaVuSans-61" x="392.476562"/>
     <use xlink:href="#DejaVuSans-6e" x="453.755859"/>
     <use xlink:href="#DejaVuSans-63" x="517.134766"/>
     <use xlink:href="#DejaVuSans-65" x="572.115234"/>
     <use xlink:href="#DejaVuSans-20" x="633.638672"/>
     <use xlink:href="#DejaVuSans-6f" x="665.425781"/>
     <use xlink:href="#DejaVuSans-66" x="726.607422"/>
     <use xlink:href="#DejaVuSans-20" x="761.8125"/>
     <use xlink:href="#DejaVuSans-41" x="793.599609"/>
     <use xlink:href="#DejaVuSans-56" x="855.632812"/>
     <use xlink:href="#DejaVuSans-41" x="917.666016"/>
     <use xlink:href="#DejaVuSans-4e" x="986.074219"/>
     <use xlink:href="#DejaVuSans-2d" x="1060.878906"/>
     <use xlink:href="#DejaVuSans-73" x="1096.962891"/>
     <use xlink:href="#DejaVuSans-74" x="1149.0625"/>
     <use xlink:href="#DejaVuSans-72" x="1188.271484"/>
     <use xlink:href="#DejaVuSans-61" x="1229.384766"/>
     <use xlink:href="#DejaVuSans-74" x="1290.664062"/>
     <use xlink:href="#DejaVuSans-65" x="1329.873047"/>
     <use xlink:href="#DejaVuSans-67" x="1391.396484"/>
     <use xlink:href="#DejaVuSans-79" x="1454.873047"/>
     <use xlink:href="#DejaVuSans-20" x="1514.052734"/>
     <use xlink:href="#DejaVuSans-79" x="1545.839844"/>
     <use xlink:href="#DejaVuSans-65" x="1605.019531"/>
     <use xlink:href="#DejaVuSans-61" x="1666.542969"/>
     <use xlink:href="#DejaVuSans-72" x="1727.822266"/>
     <use xlink:href="#DejaVuSans-20" x="1768.935547"/>
     <use xlink:href="#DejaVuSans-32" x="1800.722656"/>
     <use xlink:href="#DejaVuSans-30" x="1864.345703"/>
     <use xlink:href="#DejaVuSans-31" x="1927.96875"/>
     <use xlink:href="#DejaVuSans-35" x="1991.591797"/>
    </g>
   </g>
   <g id="legend_1">
    <g id="patch_7">
     <path d="M 53.55 78.914375 
L 180.971875 78.914375 
Q 182.971875 78.914375 182.971875 76.914375 
L 182.971875 33.88 
Q 182.971875 31.88 180.971875 31.88 
L 53.55 31.88 
Q 51.55 31.88 51.55 33.88 
L 51.55 76.914375 
Q 51.55 78.914375 53.55 78.914375 
z
" style="fill: #ffffff; opacity: 0.8; stroke: #cccccc; stroke-linejoin: miter"/>
    </g>
    <g id="line2d_17">
     <path d="M 55.55 39.978438 
L 65.55 39.978438 
L 75.55 39.978438 
" style="fill: none; stroke: #008000; stroke-width: 1.5; stroke-linecap: square"/>
    </g>
    <g id="text_9">
     <!-- -1.6% return omx -->
     <g transform="translate(83.55 43.478438)scale(0.1 -0.1)">
      <defs>
       <path id="DejaVuSans-2e" d="M 684 794 
L 1344 794 
L 1344 0 
L 684 0 
L 684 794 
z
" transform="scale(0.015625)"/>
       <path id="DejaVuSans-36" d="M 2113 2584 
Q 1688 2584 1439 2293 
Q 1191 2003 1191 1497 
Q 1191 994 1439 701 
Q 1688 409 2113 409 
Q 2538 409 2786 701 
Q 3034 994 3034 1497 
Q 3034 2003 2786 2293 
Q 2538 2584 2113 2584 
z
M 3366 4563 
L 3366 3988 
Q 3128 4100 2886 4159 
Q 2644 4219 2406 4219 
Q 1781 4219 1451 3797 
Q 1122 3375 1075 2522 
Q 1259 2794 1537 2939 
Q 1816 3084 2150 3084 
Q 2853 3084 3261 2657 
Q 3669 2231 3669 1497 
Q 3669 778 3244 343 
Q 2819 -91 2113 -91 
Q 1303 -91 875 529 
Q 447 1150 447 2328 
Q 447 3434 972 4092 
Q 1497 4750 2381 4750 
Q 2619 4750 2861 4703 
Q 3103 4656 3366 4563 
z
" transform="scale(0.015625)"/>
       <path id="DejaVuSans-78" d="M 3513 3500 
L 2247 1797 
L 3578 0 
L 2900 0 
L 1881 1375 
L 863 0 
L 184 0 
L 1544 1831 
L 300 3500 
L 978 3500 
L 1906 2253 
L 2834 3500 
L 3513 3500 
z
" transform="scale(0.015625)"/>
      </defs>
      <use xlink:href="#DejaVuSans-2d"/>
      <use xlink:href="#DejaVuSans-31" x="36.083984"/>
      <use xlink:href="#DejaVuSans-2e" x="99.707031"/>
      <use xlink:href="#DejaVuSans-36" x="131.494141"/>
      <use xlink:href="#DejaVuSans-25" x="195.117188"/>
      <use xlink:href="#DejaVuSans-20" x="290.136719"/>
      <use xlink:href="#DejaVuSans-72" x="321.923828"/>
      <use xlink:href="#DejaVuSans-65" x="360.787109"/>
      <use xlink:href="#DejaVuSans-74" x="422.310547"/>
      <use xlink:href="#DejaVuSans-75" x="461.519531"/>
      <use xlink:href="#DejaVuSans-72" x="524.898438"/>
      <use xlink:href="#DejaVuSans-6e" x="564.261719"/>
      <use xlink:href="#DejaVuSans-20" x="627.640625"/>
      <use xlink:href="#DejaVuSans-6f" x="659.427734"/>
      <use xlink:href="#DejaVuSans-6d" x="720.609375"/>
      <use xlink:href="#DejaVuSans-78" x="818.021484"/>
     </g>
    </g>
    <g id="line2d_18">
     <path d="M 55.55 54.656563 
L 65.55 54.656563 
L 75.55 54.656563 
" style="fill: none; stroke: #0000ff; stroke-width: 1.5; stroke-linecap: square"/>
    </g>
    <g id="text_10">
     <!-- 47.7% return AVAN -->
     <g transform="translate(83.55 58.156563)scale(0.1 -0.1)">
      <defs>
       <path id="DejaVuSans-37" d="M 525 4666 
L 3525 4666 
L 3525 4397 
L 1831 0 
L 1172 0 
L 2766 4134 
L 525 4134 
L 525 4666 
z
" transform="scale(0.015625)"/>
      </defs>
      <use xlink:href="#DejaVuSans-34"/>
      <use xlink:href="#DejaVuSans-37" x="63.623047"/>
      <use xlink:href="#DejaVuSans-2e" x="127.246094"/>
      <use xlink:href="#DejaVuSans-37" x="159.033203"/>
      <use xlink:href="#DejaVuSans-25" x="222.65625"/>
      <use xlink:href="#DejaVuSans-20" x="317.675781"/>
      <use xlink:href="#DejaVuSans-72" x="349.462891"/>
      <use xlink:href="#DejaVuSans-65" x="388.326172"/>
      <use xlink:href="#DejaVuSans-74" x="449.849609"/>
      <use xlink:href="#DejaVuSans-75" x="489.058594"/>
      <use xlink:href="#DejaVuSans-72" x="552.4375"/>
      <use xlink:href="#DejaVuSans-6e" x="591.800781"/>
      <use xlink:href="#DejaVuSans-20" x="655.179688"/>
      <use xlink:href="#DejaVuSans-41" x="686.966797"/>
      <use xlink:href="#DejaVuSans-56" x="749"/>
      <use xlink:href="#DejaVuSans-41" x="811.033203"/>
      <use xlink:href="#DejaVuSans-4e" x="879.441406"/>
     </g>
    </g>
    <g id="line2d_19">
     <path d="M 55.55 69.334688 
L 65.55 69.334688 
L 75.55 69.334688 
" style="fill: none; stroke: #ff0000; stroke-width: 1.5; stroke-linecap: square"/>
    </g>
    <g id="text_11">
     <!-- cummax -->
     <g transform="translate(83.55 72.834688)scale(0.1 -0.1)">
      <use xlink:href="#DejaVuSans-63"/>
      <use xlink:href="#DejaVuSans-75" x="54.980469"/>
      <use xlink:href="#DejaVuSans-6d" x="118.359375"/>
      <use xlink:href="#DejaVuSans-6d" x="215.771484"/>
      <use xlink:href="#DejaVuSans-61" x="313.183594"/>
      <use xlink:href="#DejaVuSans-78" x="374.462891"/>
     </g>
    </g>
   </g>
  </g>
  <g id="axes_2">
   <g id="patch_8">
    <path d="M 46.55 390.04 
L 554.527194 390.04 
L 554.527194 302.955909 
L 46.55 302.955909 
z
" style="fill: #ffffff"/>
   </g>
   <g id="matplotlib.axis_3">
    <g id="xtick_8">
     <g id="line2d_20">
      <g>
       <use xlink:href="#m3a2f199097" x="73.498904" y="390.04" style="stroke: #000000; stroke-width: 0.8"/>
      </g>
     </g>
     <g id="text_12">
      <!-- 2015-01 -->
      <g transform="translate(52.607498 404.638438)scale(0.1 -0.1)">
       <use xlink:href="#DejaVuSans-32"/>
       <use xlink:href="#DejaVuSans-30" x="63.623047"/>
       <use xlink:href="#DejaVuSans-31" x="127.246094"/>
       <use xlink:href="#DejaVuSans-35" x="190.869141"/>
       <use xlink:href="#DejaVuSans-2d" x="254.492188"/>
       <use xlink:href="#DejaVuSans-30" x="290.576172"/>
       <use xlink:href="#DejaVuSans-31" x="354.199219"/>
      </g>
     </g>
    </g>
    <g id="xtick_9">
     <g id="line2d_21">
      <g>
       <use xlink:href="#m3a2f199097" x="149.393192" y="390.04" style="stroke: #000000; stroke-width: 0.8"/>
      </g>
     </g>
     <g id="text_13">
      <!-- 2015-03 -->
      <g transform="translate(128.501786 404.638438)scale(0.1 -0.1)">
       <use xlink:href="#DejaVuSans-32"/>
       <use xlink:href="#DejaVuSans-30" x="63.623047"/>
       <use xlink:href="#DejaVuSans-31" x="127.246094"/>
       <use xlink:href="#DejaVuSans-35" x="190.869141"/>
       <use xlink:href="#DejaVuSans-2d" x="254.492188"/>
       <use xlink:href="#DejaVuSans-30" x="290.576172"/>
       <use xlink:href="#DejaVuSans-33" x="354.199219"/>
      </g>
     </g>
    </g>
    <g id="xtick_10">
     <g id="line2d_22">
      <g>
       <use xlink:href="#m3a2f199097" x="227.860168" y="390.04" style="stroke: #000000; stroke-width: 0.8"/>
      </g>
     </g>
     <g id="text_14">
      <!-- 2015-05 -->
      <g transform="translate(206.968762 404.638438)scale(0.1 -0.1)">
       <use xlink:href="#DejaVuSans-32"/>
       <use xlink:href="#DejaVuSans-30" x="63.623047"/>
       <use xlink:href="#DejaVuSans-31" x="127.246094"/>
       <use xlink:href="#DejaVuSans-35" x="190.869141"/>
       <use xlink:href="#DejaVuSans-2d" x="254.492188"/>
       <use xlink:href="#DejaVuSans-30" x="290.576172"/>
       <use xlink:href="#DejaVuSans-35" x="354.199219"/>
      </g>
     </g>
    </g>
    <g id="xtick_11">
     <g id="line2d_23">
      <g>
       <use xlink:href="#m3a2f199097" x="306.327145" y="390.04" style="stroke: #000000; stroke-width: 0.8"/>
      </g>
     </g>
     <g id="text_15">
      <!-- 2015-07 -->
      <g transform="translate(285.435738 404.638438)scale(0.1 -0.1)">
       <use xlink:href="#DejaVuSans-32"/>
       <use xlink:href="#DejaVuSans-30" x="63.623047"/>
       <use xlink:href="#DejaVuSans-31" x="127.246094"/>
       <use xlink:href="#DejaVuSans-35" x="190.869141"/>
       <use xlink:href="#DejaVuSans-2d" x="254.492188"/>
       <use xlink:href="#DejaVuSans-30" x="290.576172"/>
       <use xlink:href="#DejaVuSans-37" x="354.199219"/>
      </g>
     </g>
    </g>
    <g id="xtick_12">
     <g id="line2d_24">
      <g>
       <use xlink:href="#m3a2f199097" x="386.080464" y="390.04" style="stroke: #000000; stroke-width: 0.8"/>
      </g>
     </g>
     <g id="text_16">
      <!-- 2015-09 -->
      <g transform="translate(365.189058 404.638438)scale(0.1 -0.1)">
       <defs>
        <path id="DejaVuSans-39" d="M 703 97 
L 703 672 
Q 941 559 1184 500 
Q 1428 441 1663 441 
Q 2288 441 2617 861 
Q 2947 1281 2994 2138 
Q 2813 1869 2534 1725 
Q 2256 1581 1919 1581 
Q 1219 1581 811 2004 
Q 403 2428 403 3163 
Q 403 3881 828 4315 
Q 1253 4750 1959 4750 
Q 2769 4750 3195 4129 
Q 3622 3509 3622 2328 
Q 3622 1225 3098 567 
Q 2575 -91 1691 -91 
Q 1453 -91 1209 -44 
Q 966 3 703 97 
z
M 1959 2075 
Q 2384 2075 2632 2365 
Q 2881 2656 2881 3163 
Q 2881 3666 2632 3958 
Q 2384 4250 1959 4250 
Q 1534 4250 1286 3958 
Q 1038 3666 1038 3163 
Q 1038 2656 1286 2365 
Q 1534 2075 1959 2075 
z
" transform="scale(0.015625)"/>
       </defs>
       <use xlink:href="#DejaVuSans-32"/>
       <use xlink:href="#DejaVuSans-30" x="63.623047"/>
       <use xlink:href="#DejaVuSans-31" x="127.246094"/>
       <use xlink:href="#DejaVuSans-35" x="190.869141"/>
       <use xlink:href="#DejaVuSans-2d" x="254.492188"/>
       <use xlink:href="#DejaVuSans-30" x="290.576172"/>
       <use xlink:href="#DejaVuSans-39" x="354.199219"/>
      </g>
     </g>
    </g>
    <g id="xtick_13">
     <g id="line2d_25">
      <g>
       <use xlink:href="#m3a2f199097" x="464.547441" y="390.04" style="stroke: #000000; stroke-width: 0.8"/>
      </g>
     </g>
     <g id="text_17">
      <!-- 2015-11 -->
      <g transform="translate(443.656034 404.638438)scale(0.1 -0.1)">
       <use xlink:href="#DejaVuSans-32"/>
       <use xlink:href="#DejaVuSans-30" x="63.623047"/>
       <use xlink:href="#DejaVuSans-31" x="127.246094"/>
       <use xlink:href="#DejaVuSans-35" x="190.869141"/>
       <use xlink:href="#DejaVuSans-2d" x="254.492188"/>
       <use xlink:href="#DejaVuSans-31" x="290.576172"/>
       <use xlink:href="#DejaVuSans-31" x="354.199219"/>
      </g>
     </g>
    </g>
    <g id="xtick_14">
     <g id="line2d_26">
      <g>
       <use xlink:href="#m3a2f199097" x="543.014417" y="390.04" style="stroke: #000000; stroke-width: 0.8"/>
      </g>
     </g>
     <g id="text_18">
      <!-- 2016-01 -->
      <g transform="translate(522.12301 404.638438)scale(0.1 -0.1)">
       <use xlink:href="#DejaVuSans-32"/>
       <use xlink:href="#DejaVuSans-30" x="63.623047"/>
       <use xlink:href="#DejaVuSans-31" x="127.246094"/>
       <use xlink:href="#DejaVuSans-36" x="190.869141"/>
       <use xlink:href="#DejaVuSans-2d" x="254.492188"/>
       <use xlink:href="#DejaVuSans-30" x="290.576172"/>
       <use xlink:href="#DejaVuSans-31" x="354.199219"/>
      </g>
     </g>
    </g>
    <g id="text_19">
     <!-- Time -->
     <g transform="translate(288.305003 418.316562)scale(0.1 -0.1)">
      <defs>
       <path id="DejaVuSans-54" d="M -19 4666 
L 3928 4666 
L 3928 4134 
L 2272 4134 
L 2272 0 
L 1638 0 
L 1638 4134 
L -19 4134 
L -19 4666 
z
" transform="scale(0.015625)"/>
       <path id="DejaVuSans-69" d="M 603 3500 
L 1178 3500 
L 1178 0 
L 603 0 
L 603 3500 
z
M 603 4863 
L 1178 4863 
L 1178 4134 
L 603 4134 
L 603 4863 
z
" transform="scale(0.015625)"/>
      </defs>
      <use xlink:href="#DejaVuSans-54"/>
      <use xlink:href="#DejaVuSans-69" x="57.958984"/>
      <use xlink:href="#DejaVuSans-6d" x="85.742188"/>
      <use xlink:href="#DejaVuSans-65" x="183.154297"/>
     </g>
    </g>
   </g>
   <g id="matplotlib.axis_4">
    <g id="ytick_7">
     <g id="line2d_27">
      <g>
       <use xlink:href="#mf0944ecf8e" x="46.55" y="372.860477" style="stroke: #000000; stroke-width: 0.8"/>
      </g>
     </g>
     <g id="text_20">
      <!-- −7.5 -->
      <g transform="translate(15.267188 376.659696)scale(0.1 -0.1)">
       <defs>
        <path id="DejaVuSans-2212" d="M 678 2272 
L 4684 2272 
L 4684 1741 
L 678 1741 
L 678 2272 
z
" transform="scale(0.015625)"/>
       </defs>
       <use xlink:href="#DejaVuSans-2212"/>
       <use xlink:href="#DejaVuSans-37" x="83.789062"/>
       <use xlink:href="#DejaVuSans-2e" x="147.412109"/>
       <use xlink:href="#DejaVuSans-35" x="179.199219"/>
      </g>
     </g>
    </g>
    <g id="ytick_8">
     <g id="line2d_28">
      <g>
       <use xlink:href="#mf0944ecf8e" x="46.55" y="350.878411" style="stroke: #000000; stroke-width: 0.8"/>
      </g>
     </g>
     <g id="text_21">
      <!-- −5.0 -->
      <g transform="translate(15.267188 354.677629)scale(0.1 -0.1)">
       <use xlink:href="#DejaVuSans-2212"/>
       <use xlink:href="#DejaVuSans-35" x="83.789062"/>
       <use xlink:href="#DejaVuSans-2e" x="147.412109"/>
       <use xlink:href="#DejaVuSans-30" x="179.199219"/>
      </g>
     </g>
    </g>
    <g id="ytick_9">
     <g id="line2d_29">
      <g>
       <use xlink:href="#mf0944ecf8e" x="46.55" y="328.896344" style="stroke: #000000; stroke-width: 0.8"/>
      </g>
     </g>
     <g id="text_22">
      <!-- −2.5 -->
      <g transform="translate(15.267188 332.695562)scale(0.1 -0.1)">
       <use xlink:href="#DejaVuSans-2212"/>
       <use xlink:href="#DejaVuSans-32" x="83.789062"/>
       <use xlink:href="#DejaVuSans-2e" x="147.412109"/>
       <use xlink:href="#DejaVuSans-35" x="179.199219"/>
      </g>
     </g>
    </g>
    <g id="ytick_10">
     <g id="line2d_30">
      <g>
       <use xlink:href="#mf0944ecf8e" x="46.55" y="306.914277" style="stroke: #000000; stroke-width: 0.8"/>
      </g>
     </g>
     <g id="text_23">
      <!-- 0.0 -->
      <g transform="translate(23.646875 310.713496)scale(0.1 -0.1)">
       <use xlink:href="#DejaVuSans-30"/>
       <use xlink:href="#DejaVuSans-2e" x="63.623047"/>
       <use xlink:href="#DejaVuSans-30" x="95.410156"/>
      </g>
     </g>
    </g>
    <g id="text_24">
     <!-- DD % -->
     <g transform="translate(9.1875 360.537798)rotate(-90)scale(0.1 -0.1)">
      <defs>
       <path id="DejaVuSans-44" d="M 1259 4147 
L 1259 519 
L 2022 519 
Q 2988 519 3436 956 
Q 3884 1394 3884 2338 
Q 3884 3275 3436 3711 
Q 2988 4147 2022 4147 
L 1259 4147 
z
M 628 4666 
L 1925 4666 
Q 3281 4666 3915 4102 
Q 4550 3538 4550 2338 
Q 4550 1131 3912 565 
Q 3275 0 1925 0 
L 628 0 
L 628 4666 
z
" transform="scale(0.015625)"/>
      </defs>
      <use xlink:href="#DejaVuSans-44"/>
      <use xlink:href="#DejaVuSans-44" x="77.001953"/>
      <use xlink:href="#DejaVuSans-20" x="154.003906"/>
      <use xlink:href="#DejaVuSans-25" x="185.791016"/>
     </g>
    </g>
   </g>
   <g id="line2d_31">
    <path d="M 69.639872 306.914277 
L 78.64428 306.914277 
L 81.216967 314.108135 
L 82.503311 312.105223 
L 83.789655 306.914277 
L 87.648687 306.914277 
L 90.221374 319.20405 
L 91.507718 321.327142 
L 92.794062 318.592361 
L 96.653094 308.409154 
L 97.939438 306.914277 
L 100.512125 306.914277 
L 101.798469 313.754342 
L 105.657501 306.914277 
L 106.943845 306.914277 
L 108.230189 314.413935 
L 109.516532 306.914277 
L 110.802876 306.914277 
L 114.661908 310.269982 
L 115.948252 306.914277 
L 117.234596 307.302073 
L 118.52094 307.47888 
L 119.807283 306.914277 
L 123.666315 312.771657 
L 124.952659 315.757399 
L 126.239003 314.355799 
L 127.525347 318.201472 
L 128.81169 306.914277 
L 132.670722 315.475962 
L 133.957066 306.914277 
L 136.529754 306.914277 
L 137.816098 308.420568 
L 141.675129 312.157172 
L 142.961473 306.914277 
L 145.534161 306.914277 
L 146.820505 312.484617 
L 150.679536 308.292647 
L 151.96588 311.69801 
L 153.252224 322.036761 
L 154.538568 320.638977 
L 155.824912 306.914277 
L 159.683943 310.203959 
L 160.970287 310.950461 
L 162.256631 337.694069 
L 163.542975 318.787856 
L 164.829319 306.914277 
L 172.547382 306.914277 
L 173.833726 310.219588 
L 177.692758 306.914277 
L 178.979101 321.778527 
L 180.265445 315.911329 
L 181.551789 330.072766 
L 182.838133 326.648073 
L 186.697165 329.037312 
L 187.983508 310.146048 
L 189.269852 308.404383 
L 190.556196 306.914277 
L 199.560603 306.914277 
L 200.846947 309.111702 
L 204.705979 306.914277 
L 205.992323 316.310739 
L 207.278667 308.212163 
L 208.56501 306.914277 
L 209.851354 314.01719 
L 213.710386 326.868473 
L 214.99673 324.103604 
L 216.283074 333.173809 
L 217.569418 326.559534 
L 218.855761 306.914277 
L 222.714793 306.914277 
L 224.001137 311.742582 
L 225.287481 306.914277 
L 226.573825 313.810046 
L 231.7192 313.122148 
L 233.005544 328.51972 
L 249.728014 328.51972 
L 251.014358 329.372013 
L 252.300702 319.19976 
L 253.587046 331.766577 
L 254.87339 322.399429 
L 258.732421 316.550865 
L 260.018765 320.502339 
L 261.305109 321.626121 
L 262.591453 306.914277 
L 263.877797 311.823964 
L 267.736828 330.636047 
L 269.023172 313.606713 
L 270.309516 320.396096 
L 271.59586 306.914277 
L 272.882204 320.055069 
L 276.741236 333.258567 
L 278.027579 343.064696 
L 280.600267 343.064696 
L 281.886611 348.903508 
L 297.322737 348.903508 
L 298.609081 356.283705 
L 299.895425 353.177379 
L 303.754457 372.762225 
L 306.327145 372.762225 
L 307.613488 364.821093 
L 308.899832 364.952921 
L 312.758864 381.985619 
L 314.045208 377.939869 
L 315.331552 381.120931 
L 316.617895 386.081632 
L 317.904239 367.514166 
L 321.763271 360.40681 
L 323.049615 348.939436 
L 324.335959 345.428815 
L 325.622303 351.954652 
L 326.908646 336.457596 
L 330.767678 345.584283 
L 332.054022 324.416195 
L 333.340366 327.116172 
L 334.62671 329.326458 
L 335.913054 335.070302 
L 339.772085 331.990684 
L 341.058429 342.79239 
L 342.344773 332.13331 
L 343.631117 335.396604 
L 344.917461 329.712662 
L 348.776492 326.244376 
L 350.062836 331.110593 
L 351.34918 332.767534 
L 352.635524 318.734029 
L 353.921868 321.77164 
L 357.780899 320.598288 
L 359.067243 311.136885 
L 360.353587 316.138244 
L 361.639931 311.036552 
L 362.926275 308.348122 
L 366.785306 306.914277 
L 368.07165 311.129771 
L 369.357994 317.043479 
L 371.930682 345.703847 
L 395.084872 345.703847 
L 396.371215 331.366929 
L 398.943903 335.471235 
L 402.802935 334.441279 
L 404.089279 343.19576 
L 405.375623 343.19576 
L 406.661966 334.297782 
L 407.94831 336.539495 
L 411.807342 341.576219 
L 413.093686 331.350305 
L 414.38003 345.593176 
L 415.666373 347.370483 
L 429.816156 347.370483 
L 431.1025 336.313579 
L 432.388844 332.532904 
L 434.961532 352.572927 
L 438.820563 348.526379 
L 440.106907 354.013949 
L 441.393251 356.43124 
L 442.679595 353.536617 
L 443.965939 354.248922 
L 447.82497 357.972862 
L 449.111314 353.640643 
L 450.397658 347.278461 
L 451.684002 350.847246 
L 452.970346 346.648396 
L 456.829377 336.846104 
L 458.115721 333.938264 
L 459.402065 331.78311 
L 460.688409 321.825341 
L 461.974753 316.750954 
L 465.833784 310.521025 
L 467.120128 306.914277 
L 468.406472 309.625904 
L 469.692816 308.441303 
L 474.838191 306.914277 
L 476.124535 306.914277 
L 477.410879 309.412573 
L 478.697223 306.914277 
L 479.983567 310.362699 
L 483.842599 315.101348 
L 485.128942 306.914277 
L 492.847006 306.914277 
L 494.13335 312.962553 
L 495.419693 320.989908 
L 496.706037 319.924359 
L 497.992381 312.994047 
L 501.851413 308.674534 
L 503.137757 306.914277 
L 505.710444 306.914277 
L 506.996788 318.827823 
L 510.85582 319.629344 
L 512.142164 316.407536 
L 513.428508 319.340921 
L 514.714851 325.930754 
L 516.001195 318.492612 
L 519.860227 342.648081 
L 521.146571 342.648081 
L 522.432915 330.319102 
L 523.719259 333.343704 
L 525.005602 329.718692 
L 531.437322 329.718692 
L 531.437322 329.718692 
" clip-path="url(#p7d92fd0a19)" style="fill: none; stroke: #0000ff; stroke-width: 1.5; stroke-linecap: square"/>
   </g>
   <g id="patch_9">
    <path d="M 46.55 390.04 
L 46.55 302.955909 
" style="fill: none; stroke: #000000; stroke-width: 0.8; stroke-linejoin: miter; stroke-linecap: square"/>
   </g>
   <g id="patch_10">
    <path d="M 554.527194 390.04 
L 554.527194 302.955909 
" style="fill: none; stroke: #000000; stroke-width: 0.8; stroke-linejoin: miter; stroke-linecap: square"/>
   </g>
   <g id="patch_11">
    <path d="M 46.55 390.04 
L 554.527194 390.04 
" style="fill: none; stroke: #000000; stroke-width: 0.8; stroke-linejoin: miter; stroke-linecap: square"/>
   </g>
   <g id="patch_12">
    <path d="M 46.55 302.955909 
L 554.527194 302.955909 
" style="fill: none; stroke: #000000; stroke-width: 0.8; stroke-linejoin: miter; stroke-linecap: square"/>
   </g>
  </g>
 </g>
 <defs>
  <clipPath id="pb9fd79f074">
   <rect x="46.55" y="26.88" width="507.977194" height="261.252273"/>
  </clipPath>
  <clipPath id="p7d92fd0a19">
   <rect x="46.55" y="302.955909" width="507.977194" height="87.084091"/>
  </clipPath>
 </defs>
</svg>
