<?xml version="1.0" encoding="utf-8" standalone="no"?>
<!DOCTYPE svg PUBLIC "-//W3C//DTD SVG 1.1//EN"
  "http://www.w3.org/Graphics/SVG/1.1/DTD/svg11.dtd">
<svg xmlns:xlink="http://www.w3.org/1999/xlink" width="576pt" height="432pt" viewBox="0 0 576 432" xmlns="http://www.w3.org/2000/svg" version="1.1">
 <metadata>
  <rdf:RDF xmlns:dc="http://purl.org/dc/elements/1.1/" xmlns:cc="http://creativecommons.org/ns#" xmlns:rdf="http://www.w3.org/1999/02/22-rdf-syntax-ns#">
   <cc:Work>
    <dc:type rdf:resource="http://purl.org/dc/dcmitype/StillImage"/>
    <dc:date>2023-01-15T23:56:31.733445</dc:date>
    <dc:format>image/svg+xml</dc:format>
    <dc:creator>
     <cc:Agent>
      <dc:title>Matplotlib v3.5.0, https://matplotlib.org/</dc:title>
     </cc:Agent>
    </dc:creator>
   </cc:Work>
  </rdf:RDF>
 </metadata>
 <defs>
  <style type="text/css">*{stroke-linejoin: round; stroke-linecap: butt}</style>
 </defs>
 <g id="figure_1">
  <g id="patch_1">
   <path d="M 0 432 
L 576 432 
L 576 0 
L 0 0 
z
" style="fill: #ffffff"/>
  </g>
  <g id="axes_1">
   <g id="patch_2">
    <path d="M 56 288.132273 
L 554.645455 288.132273 
L 554.645455 26.88 
L 56 26.88 
z
" style="fill: #ffffff"/>
   </g>
   <g id="matplotlib.axis_1">
    <g id="xtick_1">
     <g id="line2d_1">
      <defs>
       <path id="mf456d6df3d" d="M 0 0 
L 0 3.5 
" style="stroke: #000000; stroke-width: 0.8"/>
      </defs>
      <g>
       <use xlink:href="#mf456d6df3d" x="83.702525" y="288.132273" style="stroke: #000000; stroke-width: 0.8"/>
      </g>
     </g>
    </g>
    <g id="xtick_2">
     <g id="line2d_2">
      <g>
       <use xlink:href="#mf456d6df3d" x="157.995661" y="288.132273" style="stroke: #000000; stroke-width: 0.8"/>
      </g>
     </g>
    </g>
    <g id="xtick_3">
     <g id="line2d_3">
      <g>
       <use xlink:href="#mf456d6df3d" x="234.807208" y="288.132273" style="stroke: #000000; stroke-width: 0.8"/>
      </g>
     </g>
    </g>
    <g id="xtick_4">
     <g id="line2d_4">
      <g>
       <use xlink:href="#mf456d6df3d" x="311.618756" y="288.132273" style="stroke: #000000; stroke-width: 0.8"/>
      </g>
     </g>
    </g>
    <g id="xtick_5">
     <g id="line2d_5">
      <g>
       <use xlink:href="#mf456d6df3d" x="389.689509" y="288.132273" style="stroke: #000000; stroke-width: 0.8"/>
      </g>
     </g>
    </g>
    <g id="xtick_6">
     <g id="line2d_6">
      <g>
       <use xlink:href="#mf456d6df3d" x="466.501056" y="288.132273" style="stroke: #000000; stroke-width: 0.8"/>
      </g>
     </g>
    </g>
    <g id="xtick_7">
     <g id="line2d_7">
      <g>
       <use xlink:href="#mf456d6df3d" x="543.312603" y="288.132273" style="stroke: #000000; stroke-width: 0.8"/>
      </g>
     </g>
    </g>
   </g>
   <g id="matplotlib.axis_2">
    <g id="ytick_1">
     <g id="line2d_8">
      <defs>
       <path id="m774bbbd070" d="M 0 0 
L -3.5 0 
" style="stroke: #000000; stroke-width: 0.8"/>
      </defs>
      <g>
       <use xlink:href="#m774bbbd070" x="56" y="274.93864" style="stroke: #000000; stroke-width: 0.8"/>
      </g>
     </g>
     <g id="text_1">
      <!-- 0 -->
      <g transform="translate(42.6375 278.737859)scale(0.1 -0.1)">
       <defs>
        <path id="DejaVuSans-30" d="M 2034 4250 
Q 1547 4250 1301 3770 
Q 1056 3291 1056 2328 
Q 1056 1369 1301 889 
Q 1547 409 2034 409 
Q 2525 409 2770 889 
Q 3016 1369 3016 2328 
Q 3016 3291 2770 3770 
Q 2525 4250 2034 4250 
z
M 2034 4750 
Q 2819 4750 3233 4129 
Q 3647 3509 3647 2328 
Q 3647 1150 3233 529 
Q 2819 -91 2034 -91 
Q 1250 -91 836 529 
Q 422 1150 422 2328 
Q 422 3509 836 4129 
Q 1250 4750 2034 4750 
z
" transform="scale(0.015625)"/>
       </defs>
       <use xlink:href="#DejaVuSans-30"/>
      </g>
     </g>
    </g>
    <g id="ytick_2">
     <g id="line2d_9">
      <g>
       <use xlink:href="#m774bbbd070" x="56" y="239.460351" style="stroke: #000000; stroke-width: 0.8"/>
      </g>
     </g>
     <g id="text_2">
      <!-- 5 -->
      <g transform="translate(42.6375 243.259569)scale(0.1 -0.1)">
       <defs>
        <path id="DejaVuSans-35" d="M 691 4666 
L 3169 4666 
L 3169 4134 
L 1269 4134 
L 1269 2991 
Q 1406 3038 1543 3061 
Q 1681 3084 1819 3084 
Q 2600 3084 3056 2656 
Q 3513 2228 3513 1497 
Q 3513 744 3044 326 
Q 2575 -91 1722 -91 
Q 1428 -91 1123 -41 
Q 819 9 494 109 
L 494 744 
Q 775 591 1075 516 
Q 1375 441 1709 441 
Q 2250 441 2565 725 
Q 2881 1009 2881 1497 
Q 2881 1984 2565 2268 
Q 2250 2553 1709 2553 
Q 1456 2553 1204 2497 
Q 953 2441 691 2322 
L 691 4666 
z
" transform="scale(0.015625)"/>
       </defs>
       <use xlink:href="#DejaVuSans-35"/>
      </g>
     </g>
    </g>
    <g id="ytick_3">
     <g id="line2d_10">
      <g>
       <use xlink:href="#m774bbbd070" x="56" y="203.982061" style="stroke: #000000; stroke-width: 0.8"/>
      </g>
     </g>
     <g id="text_3">
      <!-- 10 -->
      <g transform="translate(36.275 207.78128)scale(0.1 -0.1)">
       <defs>
        <path id="DejaVuSans-31" d="M 794 531 
L 1825 531 
L 1825 4091 
L 703 3866 
L 703 4441 
L 1819 4666 
L 2450 4666 
L 2450 531 
L 3481 531 
L 3481 0 
L 794 0 
L 794 531 
z
" transform="scale(0.015625)"/>
       </defs>
       <use xlink:href="#DejaVuSans-31"/>
       <use xlink:href="#DejaVuSans-30" x="63.623047"/>
      </g>
     </g>
    </g>
    <g id="ytick_4">
     <g id="line2d_11">
      <g>
       <use xlink:href="#m774bbbd070" x="56" y="168.503771" style="stroke: #000000; stroke-width: 0.8"/>
      </g>
     </g>
     <g id="text_4">
      <!-- 15 -->
      <g transform="translate(36.275 172.30299)scale(0.1 -0.1)">
       <use xlink:href="#DejaVuSans-31"/>
       <use xlink:href="#DejaVuSans-35" x="63.623047"/>
      </g>
     </g>
    </g>
    <g id="ytick_5">
     <g id="line2d_12">
      <g>
       <use xlink:href="#m774bbbd070" x="56" y="133.025482" style="stroke: #000000; stroke-width: 0.8"/>
      </g>
     </g>
     <g id="text_5">
      <!-- 20 -->
      <g transform="translate(36.275 136.824701)scale(0.1 -0.1)">
       <defs>
        <path id="DejaVuSans-32" d="M 1228 531 
L 3431 531 
L 3431 0 
L 469 0 
L 469 531 
Q 828 903 1448 1529 
Q 2069 2156 2228 2338 
Q 2531 2678 2651 2914 
Q 2772 3150 2772 3378 
Q 2772 3750 2511 3984 
Q 2250 4219 1831 4219 
Q 1534 4219 1204 4116 
Q 875 4013 500 3803 
L 500 4441 
Q 881 4594 1212 4672 
Q 1544 4750 1819 4750 
Q 2544 4750 2975 4387 
Q 3406 4025 3406 3419 
Q 3406 3131 3298 2873 
Q 3191 2616 2906 2266 
Q 2828 2175 2409 1742 
Q 1991 1309 1228 531 
z
" transform="scale(0.015625)"/>
       </defs>
       <use xlink:href="#DejaVuSans-32"/>
       <use xlink:href="#DejaVuSans-30" x="63.623047"/>
      </g>
     </g>
    </g>
    <g id="ytick_6">
     <g id="line2d_13">
      <g>
       <use xlink:href="#m774bbbd070" x="56" y="97.547192" style="stroke: #000000; stroke-width: 0.8"/>
      </g>
     </g>
     <g id="text_6">
      <!-- 25 -->
      <g transform="translate(36.275 101.346411)scale(0.1 -0.1)">
       <use xlink:href="#DejaVuSans-32"/>
       <use xlink:href="#DejaVuSans-35" x="63.623047"/>
      </g>
     </g>
    </g>
    <g id="ytick_7">
     <g id="line2d_14">
      <g>
       <use xlink:href="#m774bbbd070" x="56" y="62.068903" style="stroke: #000000; stroke-width: 0.8"/>
      </g>
     </g>
     <g id="text_7">
      <!-- 30 -->
      <g transform="translate(36.275 65.868122)scale(0.1 -0.1)">
       <defs>
        <path id="DejaVuSans-33" d="M 2597 2516 
Q 3050 2419 3304 2112 
Q 3559 1806 3559 1356 
Q 3559 666 3084 287 
Q 2609 -91 1734 -91 
Q 1441 -91 1130 -33 
Q 819 25 488 141 
L 488 750 
Q 750 597 1062 519 
Q 1375 441 1716 441 
Q 2309 441 2620 675 
Q 2931 909 2931 1356 
Q 2931 1769 2642 2001 
Q 2353 2234 1838 2234 
L 1294 2234 
L 1294 2753 
L 1863 2753 
Q 2328 2753 2575 2939 
Q 2822 3125 2822 3475 
Q 2822 3834 2567 4026 
Q 2313 4219 1838 4219 
Q 1578 4219 1281 4162 
Q 984 4106 628 3988 
L 628 4550 
Q 988 4650 1302 4700 
Q 1616 4750 1894 4750 
Q 2613 4750 3031 4423 
Q 3450 4097 3450 3541 
Q 3450 3153 3228 2886 
Q 3006 2619 2597 2516 
z
" transform="scale(0.015625)"/>
       </defs>
       <use xlink:href="#DejaVuSans-33"/>
       <use xlink:href="#DejaVuSans-30" x="63.623047"/>
      </g>
     </g>
    </g>
    <g id="text_8">
     <!-- Return [%] -->
     <g transform="translate(30.195312 184.338949)rotate(-90)scale(0.1 -0.1)">
      <defs>
       <path id="DejaVuSans-52" d="M 2841 2188 
Q 3044 2119 3236 1894 
Q 3428 1669 3622 1275 
L 4263 0 
L 3584 0 
L 2988 1197 
Q 2756 1666 2539 1819 
Q 2322 1972 1947 1972 
L 1259 1972 
L 1259 0 
L 628 0 
L 628 4666 
L 2053 4666 
Q 2853 4666 3247 4331 
Q 3641 3997 3641 3322 
Q 3641 2881 3436 2590 
Q 3231 2300 2841 2188 
z
M 1259 4147 
L 1259 2491 
L 2053 2491 
Q 2509 2491 2742 2702 
Q 2975 2913 2975 3322 
Q 2975 3731 2742 3939 
Q 2509 4147 2053 4147 
L 1259 4147 
z
" transform="scale(0.015625)"/>
       <path id="DejaVuSans-65" d="M 3597 1894 
L 3597 1613 
L 953 1613 
Q 991 1019 1311 708 
Q 1631 397 2203 397 
Q 2534 397 2845 478 
Q 3156 559 3463 722 
L 3463 178 
Q 3153 47 2828 -22 
Q 2503 -91 2169 -91 
Q 1331 -91 842 396 
Q 353 884 353 1716 
Q 353 2575 817 3079 
Q 1281 3584 2069 3584 
Q 2775 3584 3186 3129 
Q 3597 2675 3597 1894 
z
M 3022 2063 
Q 3016 2534 2758 2815 
Q 2500 3097 2075 3097 
Q 1594 3097 1305 2825 
Q 1016 2553 972 2059 
L 3022 2063 
z
" transform="scale(0.015625)"/>
       <path id="DejaVuSans-74" d="M 1172 4494 
L 1172 3500 
L 2356 3500 
L 2356 3053 
L 1172 3053 
L 1172 1153 
Q 1172 725 1289 603 
Q 1406 481 1766 481 
L 2356 481 
L 2356 0 
L 1766 0 
Q 1100 0 847 248 
Q 594 497 594 1153 
L 594 3053 
L 172 3053 
L 172 3500 
L 594 3500 
L 594 4494 
L 1172 4494 
z
" transform="scale(0.015625)"/>
       <path id="DejaVuSans-75" d="M 544 1381 
L 544 3500 
L 1119 3500 
L 1119 1403 
Q 1119 906 1312 657 
Q 1506 409 1894 409 
Q 2359 409 2629 706 
Q 2900 1003 2900 1516 
L 2900 3500 
L 3475 3500 
L 3475 0 
L 2900 0 
L 2900 538 
Q 2691 219 2414 64 
Q 2138 -91 1772 -91 
Q 1169 -91 856 284 
Q 544 659 544 1381 
z
M 1991 3584 
L 1991 3584 
z
" transform="scale(0.015625)"/>
       <path id="DejaVuSans-72" d="M 2631 2963 
Q 2534 3019 2420 3045 
Q 2306 3072 2169 3072 
Q 1681 3072 1420 2755 
Q 1159 2438 1159 1844 
L 1159 0 
L 581 0 
L 581 3500 
L 1159 3500 
L 1159 2956 
Q 1341 3275 1631 3429 
Q 1922 3584 2338 3584 
Q 2397 3584 2469 3576 
Q 2541 3569 2628 3553 
L 2631 2963 
z
" transform="scale(0.015625)"/>
       <path id="DejaVuSans-6e" d="M 3513 2113 
L 3513 0 
L 2938 0 
L 2938 2094 
Q 2938 2591 2744 2837 
Q 2550 3084 2163 3084 
Q 1697 3084 1428 2787 
Q 1159 2491 1159 1978 
L 1159 0 
L 581 0 
L 581 3500 
L 1159 3500 
L 1159 2956 
Q 1366 3272 1645 3428 
Q 1925 3584 2291 3584 
Q 2894 3584 3203 3211 
Q 3513 2838 3513 2113 
z
" transform="scale(0.015625)"/>
       <path id="DejaVuSans-20" transform="scale(0.015625)"/>
       <path id="DejaVuSans-5b" d="M 550 4863 
L 1875 4863 
L 1875 4416 
L 1125 4416 
L 1125 -397 
L 1875 -397 
L 1875 -844 
L 550 -844 
L 550 4863 
z
" transform="scale(0.015625)"/>
       <path id="DejaVuSans-25" d="M 4653 2053 
Q 4381 2053 4226 1822 
Q 4072 1591 4072 1178 
Q 4072 772 4226 539 
Q 4381 306 4653 306 
Q 4919 306 5073 539 
Q 5228 772 5228 1178 
Q 5228 1588 5073 1820 
Q 4919 2053 4653 2053 
z
M 4653 2450 
Q 5147 2450 5437 2106 
Q 5728 1763 5728 1178 
Q 5728 594 5436 251 
Q 5144 -91 4653 -91 
Q 4153 -91 3862 251 
Q 3572 594 3572 1178 
Q 3572 1766 3864 2108 
Q 4156 2450 4653 2450 
z
M 1428 4353 
Q 1159 4353 1004 4120 
Q 850 3888 850 3481 
Q 850 3069 1003 2837 
Q 1156 2606 1428 2606 
Q 1700 2606 1854 2837 
Q 2009 3069 2009 3481 
Q 2009 3884 1853 4118 
Q 1697 4353 1428 4353 
z
M 4250 4750 
L 4750 4750 
L 1831 -91 
L 1331 -91 
L 4250 4750 
z
M 1428 4750 
Q 1922 4750 2215 4408 
Q 2509 4066 2509 3481 
Q 2509 2891 2217 2550 
Q 1925 2209 1428 2209 
Q 931 2209 642 2551 
Q 353 2894 353 3481 
Q 353 4063 643 4406 
Q 934 4750 1428 4750 
z
" transform="scale(0.015625)"/>
       <path id="DejaVuSans-5d" d="M 1947 4863 
L 1947 -844 
L 622 -844 
L 622 -397 
L 1369 -397 
L 1369 4416 
L 622 4416 
L 622 4863 
L 1947 4863 
z
" transform="scale(0.015625)"/>
      </defs>
      <use xlink:href="#DejaVuSans-52"/>
      <use xlink:href="#DejaVuSans-65" x="64.982422"/>
      <use xlink:href="#DejaVuSans-74" x="126.505859"/>
      <use xlink:href="#DejaVuSans-75" x="165.714844"/>
      <use xlink:href="#DejaVuSans-72" x="229.09375"/>
      <use xlink:href="#DejaVuSans-6e" x="268.457031"/>
      <use xlink:href="#DejaVuSans-20" x="331.835938"/>
      <use xlink:href="#DejaVuSans-5b" x="363.623047"/>
      <use xlink:href="#DejaVuSans-25" x="402.636719"/>
      <use xlink:href="#DejaVuSans-5d" x="497.65625"/>
     </g>
    </g>
   </g>
   <g id="line2d_15">
    <path d="M 78.665702 267.954976 
L 79.924908 265.416256 
L 81.184114 272.375914 
L 87.480142 264.49245 
L 88.739348 265.685383 
L 91.257759 247.780179 
L 92.516965 244.02752 
L 96.294582 247.021952 
L 97.553788 240.514284 
L 98.812994 239.129942 
L 100.072199 235.345831 
L 101.331405 242.000731 
L 105.109022 239.06795 
L 106.368228 240.80472 
L 107.627433 233.010903 
L 108.886639 229.633654 
L 110.145845 230.022853 
L 113.923462 234.269589 
L 115.182668 227.965029 
L 116.441873 233.837276 
L 117.701079 235.657957 
L 118.960285 244.246659 
L 122.737902 233.225787 
L 123.997107 229.167534 
L 126.515519 222.390587 
L 127.774725 228.843974 
L 131.552342 223.839581 
L 132.811547 225.103395 
L 134.070753 225.530883 
L 135.329959 220.971793 
L 136.589164 215.404303 
L 140.366781 209.872747 
L 141.625987 210.332789 
L 142.885193 218.239385 
L 144.144399 218.788313 
L 145.403604 210.751122 
L 149.181221 213.005787 
L 150.440427 218.400747 
L 151.699633 210.644117 
L 152.958838 210.008241 
L 154.218044 221.033063 
L 157.995661 204.030052 
L 159.254867 199.307092 
L 160.514073 196.770538 
L 161.773278 200.047125 
L 163.032484 206.347431 
L 166.810101 185.631721 
L 168.069307 177.37167 
L 169.328512 173.718495 
L 170.587718 161.868476 
L 171.846924 160.614462 
L 175.624541 163.324155 
L 176.883747 156.36803 
L 178.142952 159.135081 
L 179.402158 156.426756 
L 180.661364 160.530248 
L 184.438981 158.461181 
L 185.698186 160.933768 
L 186.957392 154.674525 
L 188.216598 158.988381 
L 189.475803 149.281578 
L 193.253421 155.580896 
L 194.512626 146.770435 
L 195.771832 151.537648 
L 197.031038 147.833762 
L 203.327066 137.334202 
L 204.586272 137.596492 
L 207.104683 129.678614 
L 210.8823 136.214847 
L 212.141506 130.893275 
L 213.400712 138.12844 
L 214.659917 132.496907 
L 215.919123 118.24484 
L 219.69674 126.944307 
L 220.955946 146.995689 
L 222.215152 138.078527 
L 223.474357 136.51007 
L 224.733563 133.270936 
L 228.51118 131.974303 
L 229.770386 124.953565 
L 231.029591 133.914866 
L 232.288797 136.351063 
L 233.548003 142.358159 
L 237.32562 136.824172 
L 238.584826 150.882513 
L 239.844031 127.744774 
L 241.103237 131.117693 
L 242.362443 125.983503 
L 246.14006 124.129965 
L 247.399265 151.196159 
L 248.658471 146.623166 
L 251.176882 130.637785 
L 254.9545 137.27806 
L 256.213705 129.953135 
L 257.472911 148.250197 
L 258.732117 133.525021 
L 259.991322 133.311695 
L 263.768939 131.716002 
L 265.028145 132.425836 
L 266.287351 138.542786 
L 267.546556 131.935368 
L 268.805762 127.759665 
L 272.583379 132.920786 
L 273.842585 124.314118 
L 276.360996 120.96213 
L 277.620202 121.693008 
L 281.397819 123.104965 
L 282.657025 120.381864 
L 283.91623 121.365307 
L 285.175436 123.024056 
L 286.434642 118.967475 
L 290.212259 116.672964 
L 291.471465 118.408405 
L 292.73067 116.001875 
L 293.989876 121.166605 
L 295.249082 130.584377 
L 299.026699 123.804163 
L 300.285904 122.99287 
L 301.54511 132.779063 
L 302.804316 121.877693 
L 307.841139 127.423949 
L 309.100344 118.529123 
L 310.35955 124.843901 
L 311.618756 120.757464 
L 312.877961 115.0443 
L 316.655579 111.193752 
L 317.914784 115.132996 
L 319.17399 100.934298 
L 320.433196 114.658937 
L 321.692401 103.419421 
L 325.470018 96.507018 
L 326.729224 92.154568 
L 327.98843 89.438114 
L 329.247635 93.939505 
L 330.506841 96.098902 
L 334.284458 115.600634 
L 335.543664 109.494169 
L 336.80287 97.782341 
L 338.062075 90.955026 
L 339.321281 78.670264 
L 343.098898 77.541488 
L 344.358104 81.980544 
L 345.617309 79.732603 
L 346.876515 78.85776 
L 348.135721 84.289718 
L 351.913338 79.820995 
L 353.172544 80.396171 
L 354.431749 75.473256 
L 355.690955 75.255105 
L 356.950161 80.275111 
L 360.727778 78.643294 
L 361.986983 75.233036 
L 363.246189 72.288745 
L 364.505395 70.754133 
L 365.764601 70.178311 
L 369.542218 82.901577 
L 370.801423 79.138966 
L 372.060629 83.727229 
L 373.319835 99.330818 
L 374.57904 87.858717 
L 378.356657 83.658817 
L 379.615863 85.369036 
L 380.875069 81.908068 
L 382.134275 83.602599 
L 383.39348 83.05728 
L 387.171097 83.183315 
L 388.430303 91.372638 
L 389.689509 84.754584 
L 390.948714 77.259294 
L 392.20792 84.350532 
L 395.985537 75.0327 
L 397.244743 81.231433 
L 398.503949 92.923964 
L 399.763154 90.5569 
L 401.02236 91.969921 
L 404.799977 97.415326 
L 406.059183 94.971797 
L 407.318388 101.439239 
L 408.577594 94.114656 
L 409.8368 101.892557 
L 413.614417 121.298681 
L 414.873623 120.380192 
L 416.132828 111.163364 
L 417.392034 96.402975 
L 418.65124 105.797044 
L 422.428857 109.314953 
L 423.688062 128.303009 
L 424.947268 127.723844 
L 426.206474 126.346378 
L 427.46568 128.244245 
L 431.243297 136.176178 
L 432.502502 127.995061 
L 433.761708 140.823204 
L 435.020914 126.893368 
L 436.280119 133.545685 
L 440.057736 136.092268 
L 441.316942 129.448384 
L 442.576148 119.593438 
L 445.094559 105.15038 
L 448.872176 106.394556 
L 450.131382 100.712159 
L 451.390588 100.867368 
L 452.649793 101.285284 
L 453.908999 92.287062 
L 457.686616 99.393798 
L 458.945822 94.049397 
L 460.205028 102.038384 
L 461.464233 105.810985 
L 462.723439 114.313193 
L 466.501056 109.981104 
L 467.760262 109.825782 
L 469.019467 104.12709 
L 470.278673 99.418299 
L 471.537879 101.381235 
L 475.315496 98.742462 
L 476.574702 100.537882 
L 477.833907 98.902418 
L 479.093113 93.19028 
L 480.352319 85.977525 
L 484.129936 82.549604 
L 485.389141 78.313428 
L 486.648347 78.893466 
L 487.907553 83.095911 
L 489.166758 82.759094 
L 492.944376 84.793139 
L 494.203581 97.804373 
L 495.462787 96.972605 
L 496.721993 97.320058 
L 497.981198 132.802424 
L 501.758815 121.370511 
L 503.018021 132.998885 
L 504.277227 114.362461 
L 505.536433 124.817273 
L 506.795638 133.314012 
L 510.573255 116.335159 
L 511.832461 97.602898 
L 513.091667 100.75231 
L 514.350872 101.763141 
L 515.610078 104.86264 
L 519.387695 106.908005 
L 520.646901 116.017183 
L 521.906107 113.324698 
L 523.165312 106.65054 
L 524.424518 108.590457 
L 528.202135 116.264582 
L 529.461341 103.423789 
L 530.720546 97.61794 
L 531.979752 78.313124 
L 531.979752 78.313124 
" clip-path="url(#p004ed6c21b)" style="fill: none; stroke: #008000; stroke-width: 1.5; stroke-linecap: square"/>
   </g>
   <g id="line2d_16">
    <path d="M 78.665702 266.034276 
L 79.924908 265.320012 
L 81.184114 258.908458 
L 87.480142 260.432393 
L 88.739348 264.781927 
L 92.516965 251.671181 
L 96.294582 250.893253 
L 97.553788 257.416529 
L 98.812994 250.383298 
L 100.072199 250.902963 
L 101.331405 248.57309 
L 105.109022 254.209824 
L 106.368228 248.098442 
L 110.145845 237.838325 
L 113.923462 240.195883 
L 115.182668 255.578848 
L 116.441873 247.956096 
L 117.701079 260.488342 
L 118.960285 263.897446 
L 122.737902 262.589326 
L 123.997107 250.564631 
L 125.256313 241.652996 
L 126.515519 245.348768 
L 127.774725 241.65891 
L 131.552342 242.951238 
L 132.811547 244.249974 
L 134.070753 249.079607 
L 135.329959 250.446758 
L 136.589164 250.804097 
L 140.366781 251.415167 
L 141.625987 246.404543 
L 142.885193 252.090297 
L 144.144399 264.806562 
L 145.403604 258.3488 
L 149.181221 253.050355 
L 150.440427 255.773919 
L 151.699633 262.483329 
L 152.958838 266.669489 
L 154.218044 276.257169 
L 157.995661 263.26443 
L 159.254867 253.071168 
L 160.514073 251.343868 
L 161.773278 255.524241 
L 163.032484 255.681162 
L 166.810101 255.774033 
L 168.069307 254.083672 
L 169.328512 242.146229 
L 170.587718 233.803692 
L 171.846924 224.546528 
L 175.624541 221.470672 
L 176.883747 226.492848 
L 178.142952 226.871018 
L 179.402158 232.614852 
L 180.661364 242.617767 
L 184.438981 238.277185 
L 185.698186 233.602258 
L 186.957392 234.609491 
L 188.216598 231.650882 
L 189.475803 229.6051 
L 193.253421 229.513008 
L 194.512626 235.263899 
L 195.771832 230.738532 
L 197.031038 227.305705 
L 203.327066 218.858483 
L 204.586272 207.756539 
L 205.845478 188.60928 
L 207.104683 195.691548 
L 210.8823 190.79704 
L 212.141506 198.694584 
L 213.400712 189.240258 
L 214.659917 187.481431 
L 215.919123 179.6738 
L 219.69674 166.198337 
L 222.215152 184.092983 
L 224.733563 173.314503 
L 228.51118 164.467372 
L 229.770386 156.120039 
L 231.029591 155.016585 
L 232.288797 152.308938 
L 233.548003 155.695956 
L 237.32562 156.199279 
L 238.584826 155.285777 
L 239.844031 174.086058 
L 241.103237 160.123537 
L 242.362443 167.718351 
L 246.14006 159.715973 
L 247.399265 162.10379 
L 259.991322 162.10379 
L 263.768939 166.090728 
L 265.028145 166.090728 
L 266.287351 169.35678 
L 267.546556 166.079353 
L 268.805762 158.723689 
L 272.583379 141.244216 
L 273.842585 132.369155 
L 275.101791 127.609462 
L 276.360996 136.235504 
L 277.620202 127.696834 
L 281.397819 132.400281 
L 282.657025 138.037303 
L 283.91623 128.804119 
L 285.175436 138.558596 
L 286.434642 135.573294 
L 290.212259 130.806967 
L 291.471465 129.489795 
L 292.73067 127.433893 
L 293.989876 129.410215 
L 309.100344 129.410215 
L 310.35955 128.911572 
L 311.618756 128.911572 
L 312.877961 116.910536 
L 316.655579 112.561985 
L 317.914784 102.90496 
L 319.17399 100.805339 
L 320.433196 94.696431 
L 321.692401 94.617244 
L 325.470018 80.912886 
L 326.729224 64.086427 
L 327.98843 64.358688 
L 329.247635 66.304286 
L 330.506841 77.36872 
L 334.284458 82.107083 
L 335.543664 96.005257 
L 336.80287 91.282632 
L 338.062075 76.567989 
L 339.321281 69.621406 
L 343.098898 68.791242 
L 344.358104 71.942918 
L 345.617309 73.605839 
L 346.876515 75.637155 
L 348.135721 71.105097 
L 351.913338 67.435608 
L 353.172544 66.005075 
L 354.431749 60.48759 
L 355.690955 60.012568 
L 356.950161 61.642836 
L 360.727778 68.175932 
L 361.986983 67.336312 
L 363.246189 57.578236 
L 364.505395 54.649058 
L 365.764601 48.943918 
L 369.542218 45.251257 
L 370.801423 50.102913 
L 372.060629 46.237708 
L 373.319835 55.603832 
L 378.356657 55.603832 
L 379.615863 57.91838 
L 380.875069 60.873821 
L 382.134275 68.071147 
L 383.39348 73.170818 
L 387.171097 68.18705 
L 388.430303 68.497025 
L 389.689509 50.65315 
L 390.948714 50.215413 
L 392.20792 50.719739 
L 395.985537 40.877802 
L 397.244743 38.755103 
L 398.503949 47.363762 
L 399.763154 68.432641 
L 401.02236 67.470047 
L 404.799977 69.753966 
L 406.059183 71.792735 
L 433.761708 71.792735 
L 435.020914 82.672978 
L 436.280119 78.969918 
L 443.835354 78.969918 
L 445.094559 69.943756 
L 448.872176 67.432948 
L 450.131382 63.196824 
L 451.390588 68.80174 
L 452.649793 72.995274 
L 453.908999 72.035078 
L 457.686616 71.911824 
L 458.945822 77.651526 
L 460.205028 87.930592 
L 461.464233 92.97029 
L 462.723439 90.966688 
L 466.501056 87.770935 
L 467.760262 82.413007 
L 469.019467 82.616771 
L 470.278673 76.611517 
L 471.537879 68.356745 
L 475.315496 66.688686 
L 476.574702 60.190415 
L 477.833907 56.126124 
L 479.093113 55.963767 
L 480.352319 59.485027 
L 484.129936 55.752044 
L 485.389141 47.665707 
L 486.648347 48.786034 
L 487.907553 51.486784 
L 489.166758 56.578438 
L 492.944376 59.747252 
L 494.203581 62.876772 
L 495.462787 70.520875 
L 496.721993 70.106535 
L 497.981198 82.96265 
L 530.720546 82.96265 
L 531.979752 76.2032 
L 531.979752 76.2032 
" clip-path="url(#p004ed6c21b)" style="fill: none; stroke: #0000ff; stroke-width: 1.5; stroke-linecap: square"/>
   </g>
   <g id="line2d_17">
    <path d="M 78.665702 266.034276 
L 79.924908 265.320012 
L 81.184114 258.908458 
L 88.739348 258.908458 
L 91.257759 255.815317 
L 92.516965 251.671181 
L 96.294582 250.893253 
L 97.553788 250.893253 
L 98.812994 250.383298 
L 100.072199 250.383298 
L 101.331405 248.57309 
L 105.109022 248.57309 
L 106.368228 248.098442 
L 110.145845 237.838325 
L 169.328512 237.838325 
L 170.587718 233.803692 
L 171.846924 224.546528 
L 175.624541 221.470672 
L 197.031038 221.470672 
L 203.327066 218.858483 
L 204.586272 207.756539 
L 205.845478 188.60928 
L 213.400712 188.60928 
L 214.659917 187.481431 
L 215.919123 179.6738 
L 219.69674 166.198337 
L 224.733563 166.198337 
L 228.51118 164.467372 
L 229.770386 156.120039 
L 231.029591 155.016585 
L 232.288797 152.308938 
L 268.805762 152.308938 
L 272.583379 141.244216 
L 273.842585 132.369155 
L 275.101791 127.609462 
L 291.471465 127.609462 
L 292.73067 127.433893 
L 311.618756 127.433893 
L 312.877961 116.910536 
L 316.655579 112.561985 
L 317.914784 102.90496 
L 319.17399 100.805339 
L 320.433196 94.696431 
L 321.692401 94.617244 
L 325.470018 80.912886 
L 326.729224 64.086427 
L 353.172544 64.086427 
L 354.431749 60.48759 
L 355.690955 60.012568 
L 361.986983 60.012568 
L 363.246189 57.578236 
L 364.505395 54.649058 
L 365.764601 48.943918 
L 369.542218 45.251257 
L 392.20792 45.251257 
L 395.985537 40.877802 
L 397.244743 38.755103 
L 531.979752 38.755103 
L 531.979752 38.755103 
" clip-path="url(#p004ed6c21b)" style="fill: none; stroke: #ff0000; stroke-width: 1.5; stroke-linecap: square"/>
   </g>
   <g id="patch_3">
    <path d="M 56 288.132273 
L 56 26.88 
" style="fill: none; stroke: #000000; stroke-width: 0.8; stroke-linejoin: miter; stroke-linecap: square"/>
   </g>
   <g id="patch_4">
    <path d="M 554.645455 288.132273 
L 554.645455 26.88 
" style="fill: none; stroke: #000000; stroke-width: 0.8; stroke-linejoin: miter; stroke-linecap: square"/>
   </g>
   <g id="patch_5">
    <path d="M 56 288.132273 
L 554.645455 288.132273 
" style="fill: none; stroke: #000000; stroke-width: 0.8; stroke-linejoin: miter; stroke-linecap: square"/>
   </g>
   <g id="patch_6">
    <path d="M 56 26.88 
L 554.645455 26.88 
" style="fill: none; stroke: #000000; stroke-width: 0.8; stroke-linejoin: miter; stroke-linecap: square"/>
   </g>
   <g id="text_9">
    <!-- Performance of AVAN-strategy year 2021 -->
    <g transform="translate(182.009602 20.88)scale(0.12 -0.12)">
     <defs>
      <path id="DejaVuSans-50" d="M 1259 4147 
L 1259 2394 
L 2053 2394 
Q 2494 2394 2734 2622 
Q 2975 2850 2975 3272 
Q 2975 3691 2734 3919 
Q 2494 4147 2053 4147 
L 1259 4147 
z
M 628 4666 
L 2053 4666 
Q 2838 4666 3239 4311 
Q 3641 3956 3641 3272 
Q 3641 2581 3239 2228 
Q 2838 1875 2053 1875 
L 1259 1875 
L 1259 0 
L 628 0 
L 628 4666 
z
" transform="scale(0.015625)"/>
      <path id="DejaVuSans-66" d="M 2375 4863 
L 2375 4384 
L 1825 4384 
Q 1516 4384 1395 4259 
Q 1275 4134 1275 3809 
L 1275 3500 
L 2222 3500 
L 2222 3053 
L 1275 3053 
L 1275 0 
L 697 0 
L 697 3053 
L 147 3053 
L 147 3500 
L 697 3500 
L 697 3744 
Q 697 4328 969 4595 
Q 1241 4863 1831 4863 
L 2375 4863 
z
" transform="scale(0.015625)"/>
      <path id="DejaVuSans-6f" d="M 1959 3097 
Q 1497 3097 1228 2736 
Q 959 2375 959 1747 
Q 959 1119 1226 758 
Q 1494 397 1959 397 
Q 2419 397 2687 759 
Q 2956 1122 2956 1747 
Q 2956 2369 2687 2733 
Q 2419 3097 1959 3097 
z
M 1959 3584 
Q 2709 3584 3137 3096 
Q 3566 2609 3566 1747 
Q 3566 888 3137 398 
Q 2709 -91 1959 -91 
Q 1206 -91 779 398 
Q 353 888 353 1747 
Q 353 2609 779 3096 
Q 1206 3584 1959 3584 
z
" transform="scale(0.015625)"/>
      <path id="DejaVuSans-6d" d="M 3328 2828 
Q 3544 3216 3844 3400 
Q 4144 3584 4550 3584 
Q 5097 3584 5394 3201 
Q 5691 2819 5691 2113 
L 5691 0 
L 5113 0 
L 5113 2094 
Q 5113 2597 4934 2840 
Q 4756 3084 4391 3084 
Q 3944 3084 3684 2787 
Q 3425 2491 3425 1978 
L 3425 0 
L 2847 0 
L 2847 2094 
Q 2847 2600 2669 2842 
Q 2491 3084 2119 3084 
Q 1678 3084 1418 2786 
Q 1159 2488 1159 1978 
L 1159 0 
L 581 0 
L 581 3500 
L 1159 3500 
L 1159 2956 
Q 1356 3278 1631 3431 
Q 1906 3584 2284 3584 
Q 2666 3584 2933 3390 
Q 3200 3197 3328 2828 
z
" transform="scale(0.015625)"/>
      <path id="DejaVuSans-61" d="M 2194 1759 
Q 1497 1759 1228 1600 
Q 959 1441 959 1056 
Q 959 750 1161 570 
Q 1363 391 1709 391 
Q 2188 391 2477 730 
Q 2766 1069 2766 1631 
L 2766 1759 
L 2194 1759 
z
M 3341 1997 
L 3341 0 
L 2766 0 
L 2766 531 
Q 2569 213 2275 61 
Q 1981 -91 1556 -91 
Q 1019 -91 701 211 
Q 384 513 384 1019 
Q 384 1609 779 1909 
Q 1175 2209 1959 2209 
L 2766 2209 
L 2766 2266 
Q 2766 2663 2505 2880 
Q 2244 3097 1772 3097 
Q 1472 3097 1187 3025 
Q 903 2953 641 2809 
L 641 3341 
Q 956 3463 1253 3523 
Q 1550 3584 1831 3584 
Q 2591 3584 2966 3190 
Q 3341 2797 3341 1997 
z
" transform="scale(0.015625)"/>
      <path id="DejaVuSans-63" d="M 3122 3366 
L 3122 2828 
Q 2878 2963 2633 3030 
Q 2388 3097 2138 3097 
Q 1578 3097 1268 2742 
Q 959 2388 959 1747 
Q 959 1106 1268 751 
Q 1578 397 2138 397 
Q 2388 397 2633 464 
Q 2878 531 3122 666 
L 3122 134 
Q 2881 22 2623 -34 
Q 2366 -91 2075 -91 
Q 1284 -91 818 406 
Q 353 903 353 1747 
Q 353 2603 823 3093 
Q 1294 3584 2113 3584 
Q 2378 3584 2631 3529 
Q 2884 3475 3122 3366 
z
" transform="scale(0.015625)"/>
      <path id="DejaVuSans-41" d="M 2188 4044 
L 1331 1722 
L 3047 1722 
L 2188 4044 
z
M 1831 4666 
L 2547 4666 
L 4325 0 
L 3669 0 
L 3244 1197 
L 1141 1197 
L 716 0 
L 50 0 
L 1831 4666 
z
" transform="scale(0.015625)"/>
      <path id="DejaVuSans-56" d="M 1831 0 
L 50 4666 
L 709 4666 
L 2188 738 
L 3669 4666 
L 4325 4666 
L 2547 0 
L 1831 0 
z
" transform="scale(0.015625)"/>
      <path id="DejaVuSans-4e" d="M 628 4666 
L 1478 4666 
L 3547 763 
L 3547 4666 
L 4159 4666 
L 4159 0 
L 3309 0 
L 1241 3903 
L 1241 0 
L 628 0 
L 628 4666 
z
" transform="scale(0.015625)"/>
      <path id="DejaVuSans-2d" d="M 313 2009 
L 1997 2009 
L 1997 1497 
L 313 1497 
L 313 2009 
z
" transform="scale(0.015625)"/>
      <path id="DejaVuSans-73" d="M 2834 3397 
L 2834 2853 
Q 2591 2978 2328 3040 
Q 2066 3103 1784 3103 
Q 1356 3103 1142 2972 
Q 928 2841 928 2578 
Q 928 2378 1081 2264 
Q 1234 2150 1697 2047 
L 1894 2003 
Q 2506 1872 2764 1633 
Q 3022 1394 3022 966 
Q 3022 478 2636 193 
Q 2250 -91 1575 -91 
Q 1294 -91 989 -36 
Q 684 19 347 128 
L 347 722 
Q 666 556 975 473 
Q 1284 391 1588 391 
Q 1994 391 2212 530 
Q 2431 669 2431 922 
Q 2431 1156 2273 1281 
Q 2116 1406 1581 1522 
L 1381 1569 
Q 847 1681 609 1914 
Q 372 2147 372 2553 
Q 372 3047 722 3315 
Q 1072 3584 1716 3584 
Q 2034 3584 2315 3537 
Q 2597 3491 2834 3397 
z
" transform="scale(0.015625)"/>
      <path id="DejaVuSans-67" d="M 2906 1791 
Q 2906 2416 2648 2759 
Q 2391 3103 1925 3103 
Q 1463 3103 1205 2759 
Q 947 2416 947 1791 
Q 947 1169 1205 825 
Q 1463 481 1925 481 
Q 2391 481 2648 825 
Q 2906 1169 2906 1791 
z
M 3481 434 
Q 3481 -459 3084 -895 
Q 2688 -1331 1869 -1331 
Q 1566 -1331 1297 -1286 
Q 1028 -1241 775 -1147 
L 775 -588 
Q 1028 -725 1275 -790 
Q 1522 -856 1778 -856 
Q 2344 -856 2625 -561 
Q 2906 -266 2906 331 
L 2906 616 
Q 2728 306 2450 153 
Q 2172 0 1784 0 
Q 1141 0 747 490 
Q 353 981 353 1791 
Q 353 2603 747 3093 
Q 1141 3584 1784 3584 
Q 2172 3584 2450 3431 
Q 2728 3278 2906 2969 
L 2906 3500 
L 3481 3500 
L 3481 434 
z
" transform="scale(0.015625)"/>
      <path id="DejaVuSans-79" d="M 2059 -325 
Q 1816 -950 1584 -1140 
Q 1353 -1331 966 -1331 
L 506 -1331 
L 506 -850 
L 844 -850 
Q 1081 -850 1212 -737 
Q 1344 -625 1503 -206 
L 1606 56 
L 191 3500 
L 800 3500 
L 1894 763 
L 2988 3500 
L 3597 3500 
L 2059 -325 
z
" transform="scale(0.015625)"/>
     </defs>
     <use xlink:href="#DejaVuSans-50"/>
     <use xlink:href="#DejaVuSans-65" x="56.677734"/>
     <use xlink:href="#DejaVuSans-72" x="118.201172"/>
     <use xlink:href="#DejaVuSans-66" x="159.314453"/>
     <use xlink:href="#DejaVuSans-6f" x="194.519531"/>
     <use xlink:href="#DejaVuSans-72" x="255.701172"/>
     <use xlink:href="#DejaVuSans-6d" x="295.064453"/>
     <use xlink:href="#DejaVuSans-61" x="392.476562"/>
     <use xlink:href="#DejaVuSans-6e" x="453.755859"/>
     <use xlink:href="#DejaVuSans-63" x="517.134766"/>
     <use xlink:href="#DejaVuSans-65" x="572.115234"/>
     <use xlink:href="#DejaVuSans-20" x="633.638672"/>
     <use xlink:href="#DejaVuSans-6f" x="665.425781"/>
     <use xlink:href="#DejaVuSans-66" x="726.607422"/>
     <use xlink:href="#DejaVuSans-20" x="761.8125"/>
     <use xlink:href="#DejaVuSans-41" x="793.599609"/>
     <use xlink:href="#DejaVuSans-56" x="855.632812"/>
     <use xlink:href="#DejaVuSans-41" x="917.666016"/>
     <use xlink:href="#DejaVuSans-4e" x="986.074219"/>
     <use xlink:href="#DejaVuSans-2d" x="1060.878906"/>
     <use xlink:href="#DejaVuSans-73" x="1096.962891"/>
     <use xlink:href="#DejaVuSans-74" x="1149.0625"/>
     <use xlink:href="#DejaVuSans-72" x="1188.271484"/>
     <use xlink:href="#DejaVuSans-61" x="1229.384766"/>
     <use xlink:href="#DejaVuSans-74" x="1290.664062"/>
     <use xlink:href="#DejaVuSans-65" x="1329.873047"/>
     <use xlink:href="#DejaVuSans-67" x="1391.396484"/>
     <use xlink:href="#DejaVuSans-79" x="1454.873047"/>
     <use xlink:href="#DejaVuSans-20" x="1514.052734"/>
     <use xlink:href="#DejaVuSans-79" x="1545.839844"/>
     <use xlink:href="#DejaVuSans-65" x="1605.019531"/>
     <use xlink:href="#DejaVuSans-61" x="1666.542969"/>
     <use xlink:href="#DejaVuSans-72" x="1727.822266"/>
     <use xlink:href="#DejaVuSans-20" x="1768.935547"/>
     <use xlink:href="#DejaVuSans-32" x="1800.722656"/>
     <use xlink:href="#DejaVuSans-30" x="1864.345703"/>
     <use xlink:href="#DejaVuSans-32" x="1927.96875"/>
     <use xlink:href="#DejaVuSans-31" x="1991.591797"/>
    </g>
   </g>
   <g id="legend_1">
    <g id="patch_7">
     <path d="M 63 78.914375 
L 190.421875 78.914375 
Q 192.421875 78.914375 192.421875 76.914375 
L 192.421875 33.88 
Q 192.421875 31.88 190.421875 31.88 
L 63 31.88 
Q 61 31.88 61 33.88 
L 61 76.914375 
Q 61 78.914375 63 78.914375 
z
" style="fill: #ffffff; opacity: 0.8; stroke: #cccccc; stroke-linejoin: miter"/>
    </g>
    <g id="line2d_18">
     <path d="M 65 39.978438 
L 75 39.978438 
L 85 39.978438 
" style="fill: none; stroke: #008000; stroke-width: 1.5; stroke-linecap: square"/>
    </g>
    <g id="text_10">
     <!-- 27.7% return omx -->
     <g transform="translate(93 43.478438)scale(0.1 -0.1)">
      <defs>
       <path id="DejaVuSans-37" d="M 525 4666 
L 3525 4666 
L 3525 4397 
L 1831 0 
L 1172 0 
L 2766 4134 
L 525 4134 
L 525 4666 
z
" transform="scale(0.015625)"/>
       <path id="DejaVuSans-2e" d="M 684 794 
L 1344 794 
L 1344 0 
L 684 0 
L 684 794 
z
" transform="scale(0.015625)"/>
       <path id="DejaVuSans-78" d="M 3513 3500 
L 2247 1797 
L 3578 0 
L 2900 0 
L 1881 1375 
L 863 0 
L 184 0 
L 1544 1831 
L 300 3500 
L 978 3500 
L 1906 2253 
L 2834 3500 
L 3513 3500 
z
" transform="scale(0.015625)"/>
      </defs>
      <use xlink:href="#DejaVuSans-32"/>
      <use xlink:href="#DejaVuSans-37" x="63.623047"/>
      <use xlink:href="#DejaVuSans-2e" x="127.246094"/>
      <use xlink:href="#DejaVuSans-37" x="159.033203"/>
      <use xlink:href="#DejaVuSans-25" x="222.65625"/>
      <use xlink:href="#DejaVuSans-20" x="317.675781"/>
      <use xlink:href="#DejaVuSans-72" x="349.462891"/>
      <use xlink:href="#DejaVuSans-65" x="388.326172"/>
      <use xlink:href="#DejaVuSans-74" x="449.849609"/>
      <use xlink:href="#DejaVuSans-75" x="489.058594"/>
      <use xlink:href="#DejaVuSans-72" x="552.4375"/>
      <use xlink:href="#DejaVuSans-6e" x="591.800781"/>
      <use xlink:href="#DejaVuSans-20" x="655.179688"/>
      <use xlink:href="#DejaVuSans-6f" x="686.966797"/>
      <use xlink:href="#DejaVuSans-6d" x="748.148438"/>
      <use xlink:href="#DejaVuSans-78" x="845.560547"/>
     </g>
    </g>
    <g id="line2d_19">
     <path d="M 65 54.656563 
L 75 54.656563 
L 85 54.656563 
" style="fill: none; stroke: #0000ff; stroke-width: 1.5; stroke-linecap: square"/>
    </g>
    <g id="text_11">
     <!-- 28.0% return AVAN -->
     <g transform="translate(93 58.156563)scale(0.1 -0.1)">
      <defs>
       <path id="DejaVuSans-38" d="M 2034 2216 
Q 1584 2216 1326 1975 
Q 1069 1734 1069 1313 
Q 1069 891 1326 650 
Q 1584 409 2034 409 
Q 2484 409 2743 651 
Q 3003 894 3003 1313 
Q 3003 1734 2745 1975 
Q 2488 2216 2034 2216 
z
M 1403 2484 
Q 997 2584 770 2862 
Q 544 3141 544 3541 
Q 544 4100 942 4425 
Q 1341 4750 2034 4750 
Q 2731 4750 3128 4425 
Q 3525 4100 3525 3541 
Q 3525 3141 3298 2862 
Q 3072 2584 2669 2484 
Q 3125 2378 3379 2068 
Q 3634 1759 3634 1313 
Q 3634 634 3220 271 
Q 2806 -91 2034 -91 
Q 1263 -91 848 271 
Q 434 634 434 1313 
Q 434 1759 690 2068 
Q 947 2378 1403 2484 
z
M 1172 3481 
Q 1172 3119 1398 2916 
Q 1625 2713 2034 2713 
Q 2441 2713 2670 2916 
Q 2900 3119 2900 3481 
Q 2900 3844 2670 4047 
Q 2441 4250 2034 4250 
Q 1625 4250 1398 4047 
Q 1172 3844 1172 3481 
z
" transform="scale(0.015625)"/>
      </defs>
      <use xlink:href="#DejaVuSans-32"/>
      <use xlink:href="#DejaVuSans-38" x="63.623047"/>
      <use xlink:href="#DejaVuSans-2e" x="127.246094"/>
      <use xlink:href="#DejaVuSans-30" x="159.033203"/>
      <use xlink:href="#DejaVuSans-25" x="222.65625"/>
      <use xlink:href="#DejaVuSans-20" x="317.675781"/>
      <use xlink:href="#DejaVuSans-72" x="349.462891"/>
      <use xlink:href="#DejaVuSans-65" x="388.326172"/>
      <use xlink:href="#DejaVuSans-74" x="449.849609"/>
      <use xlink:href="#DejaVuSans-75" x="489.058594"/>
      <use xlink:href="#DejaVuSans-72" x="552.4375"/>
      <use xlink:href="#DejaVuSans-6e" x="591.800781"/>
      <use xlink:href="#DejaVuSans-20" x="655.179688"/>
      <use xlink:href="#DejaVuSans-41" x="686.966797"/>
      <use xlink:href="#DejaVuSans-56" x="749"/>
      <use xlink:href="#DejaVuSans-41" x="811.033203"/>
      <use xlink:href="#DejaVuSans-4e" x="879.441406"/>
     </g>
    </g>
    <g id="line2d_20">
     <path d="M 65 69.334688 
L 75 69.334688 
L 85 69.334688 
" style="fill: none; stroke: #ff0000; stroke-width: 1.5; stroke-linecap: square"/>
    </g>
    <g id="text_12">
     <!-- cummax -->
     <g transform="translate(93 72.834688)scale(0.1 -0.1)">
      <use xlink:href="#DejaVuSans-63"/>
      <use xlink:href="#DejaVuSans-75" x="54.980469"/>
      <use xlink:href="#DejaVuSans-6d" x="118.359375"/>
      <use xlink:href="#DejaVuSans-6d" x="215.771484"/>
      <use xlink:href="#DejaVuSans-61" x="313.183594"/>
      <use xlink:href="#DejaVuSans-78" x="374.462891"/>
     </g>
    </g>
   </g>
  </g>
  <g id="axes_2">
   <g id="patch_8">
    <path d="M 56 390.04 
L 554.645455 390.04 
L 554.645455 302.955909 
L 56 302.955909 
z
" style="fill: #ffffff"/>
   </g>
   <g id="matplotlib.axis_3">
    <g id="xtick_8">
     <g id="line2d_21">
      <g>
       <use xlink:href="#mf456d6df3d" x="83.702525" y="390.04" style="stroke: #000000; stroke-width: 0.8"/>
      </g>
     </g>
     <g id="text_13">
      <!-- 2021-01 -->
      <g transform="translate(62.811119 404.638438)scale(0.1 -0.1)">
       <use xlink:href="#DejaVuSans-32"/>
       <use xlink:href="#DejaVuSans-30" x="63.623047"/>
       <use xlink:href="#DejaVuSans-32" x="127.246094"/>
       <use xlink:href="#DejaVuSans-31" x="190.869141"/>
       <use xlink:href="#DejaVuSans-2d" x="254.492188"/>
       <use xlink:href="#DejaVuSans-30" x="290.576172"/>
       <use xlink:href="#DejaVuSans-31" x="354.199219"/>
      </g>
     </g>
    </g>
    <g id="xtick_9">
     <g id="line2d_22">
      <g>
       <use xlink:href="#mf456d6df3d" x="157.995661" y="390.04" style="stroke: #000000; stroke-width: 0.8"/>
      </g>
     </g>
     <g id="text_14">
      <!-- 2021-03 -->
      <g transform="translate(137.104255 404.638438)scale(0.1 -0.1)">
       <use xlink:href="#DejaVuSans-32"/>
       <use xlink:href="#DejaVuSans-30" x="63.623047"/>
       <use xlink:href="#DejaVuSans-32" x="127.246094"/>
       <use xlink:href="#DejaVuSans-31" x="190.869141"/>
       <use xlink:href="#DejaVuSans-2d" x="254.492188"/>
       <use xlink:href="#DejaVuSans-30" x="290.576172"/>
       <use xlink:href="#DejaVuSans-33" x="354.199219"/>
      </g>
     </g>
    </g>
    <g id="xtick_10">
     <g id="line2d_23">
      <g>
       <use xlink:href="#mf456d6df3d" x="234.807208" y="390.04" style="stroke: #000000; stroke-width: 0.8"/>
      </g>
     </g>
     <g id="text_15">
      <!-- 2021-05 -->
      <g transform="translate(213.915802 404.638438)scale(0.1 -0.1)">
       <use xlink:href="#DejaVuSans-32"/>
       <use xlink:href="#DejaVuSans-30" x="63.623047"/>
       <use xlink:href="#DejaVuSans-32" x="127.246094"/>
       <use xlink:href="#DejaVuSans-31" x="190.869141"/>
       <use xlink:href="#DejaVuSans-2d" x="254.492188"/>
       <use xlink:href="#DejaVuSans-30" x="290.576172"/>
       <use xlink:href="#DejaVuSans-35" x="354.199219"/>
      </g>
     </g>
    </g>
    <g id="xtick_11">
     <g id="line2d_24">
      <g>
       <use xlink:href="#mf456d6df3d" x="311.618756" y="390.04" style="stroke: #000000; stroke-width: 0.8"/>
      </g>
     </g>
     <g id="text_16">
      <!-- 2021-07 -->
      <g transform="translate(290.727349 404.638438)scale(0.1 -0.1)">
       <use xlink:href="#DejaVuSans-32"/>
       <use xlink:href="#DejaVuSans-30" x="63.623047"/>
       <use xlink:href="#DejaVuSans-32" x="127.246094"/>
       <use xlink:href="#DejaVuSans-31" x="190.869141"/>
       <use xlink:href="#DejaVuSans-2d" x="254.492188"/>
       <use xlink:href="#DejaVuSans-30" x="290.576172"/>
       <use xlink:href="#DejaVuSans-37" x="354.199219"/>
      </g>
     </g>
    </g>
    <g id="xtick_12">
     <g id="line2d_25">
      <g>
       <use xlink:href="#mf456d6df3d" x="389.689509" y="390.04" style="stroke: #000000; stroke-width: 0.8"/>
      </g>
     </g>
     <g id="text_17">
      <!-- 2021-09 -->
      <g transform="translate(368.798102 404.638438)scale(0.1 -0.1)">
       <defs>
        <path id="DejaVuSans-39" d="M 703 97 
L 703 672 
Q 941 559 1184 500 
Q 1428 441 1663 441 
Q 2288 441 2617 861 
Q 2947 1281 2994 2138 
Q 2813 1869 2534 1725 
Q 2256 1581 1919 1581 
Q 1219 1581 811 2004 
Q 403 2428 403 3163 
Q 403 3881 828 4315 
Q 1253 4750 1959 4750 
Q 2769 4750 3195 4129 
Q 3622 3509 3622 2328 
Q 3622 1225 3098 567 
Q 2575 -91 1691 -91 
Q 1453 -91 1209 -44 
Q 966 3 703 97 
z
M 1959 2075 
Q 2384 2075 2632 2365 
Q 2881 2656 2881 3163 
Q 2881 3666 2632 3958 
Q 2384 4250 1959 4250 
Q 1534 4250 1286 3958 
Q 1038 3666 1038 3163 
Q 1038 2656 1286 2365 
Q 1534 2075 1959 2075 
z
" transform="scale(0.015625)"/>
       </defs>
       <use xlink:href="#DejaVuSans-32"/>
       <use xlink:href="#DejaVuSans-30" x="63.623047"/>
       <use xlink:href="#DejaVuSans-32" x="127.246094"/>
       <use xlink:href="#DejaVuSans-31" x="190.869141"/>
       <use xlink:href="#DejaVuSans-2d" x="254.492188"/>
       <use xlink:href="#DejaVuSans-30" x="290.576172"/>
       <use xlink:href="#DejaVuSans-39" x="354.199219"/>
      </g>
     </g>
    </g>
    <g id="xtick_13">
     <g id="line2d_26">
      <g>
       <use xlink:href="#mf456d6df3d" x="466.501056" y="390.04" style="stroke: #000000; stroke-width: 0.8"/>
      </g>
     </g>
     <g id="text_18">
      <!-- 2021-11 -->
      <g transform="translate(445.60965 404.638438)scale(0.1 -0.1)">
       <use xlink:href="#DejaVuSans-32"/>
       <use xlink:href="#DejaVuSans-30" x="63.623047"/>
       <use xlink:href="#DejaVuSans-32" x="127.246094"/>
       <use xlink:href="#DejaVuSans-31" x="190.869141"/>
       <use xlink:href="#DejaVuSans-2d" x="254.492188"/>
       <use xlink:href="#DejaVuSans-31" x="290.576172"/>
       <use xlink:href="#DejaVuSans-31" x="354.199219"/>
      </g>
     </g>
    </g>
    <g id="xtick_14">
     <g id="line2d_27">
      <g>
       <use xlink:href="#mf456d6df3d" x="543.312603" y="390.04" style="stroke: #000000; stroke-width: 0.8"/>
      </g>
     </g>
     <g id="text_19">
      <!-- 2022-01 -->
      <g transform="translate(522.421197 404.638438)scale(0.1 -0.1)">
       <use xlink:href="#DejaVuSans-32"/>
       <use xlink:href="#DejaVuSans-30" x="63.623047"/>
       <use xlink:href="#DejaVuSans-32" x="127.246094"/>
       <use xlink:href="#DejaVuSans-32" x="190.869141"/>
       <use xlink:href="#DejaVuSans-2d" x="254.492188"/>
       <use xlink:href="#DejaVuSans-30" x="290.576172"/>
       <use xlink:href="#DejaVuSans-31" x="354.199219"/>
      </g>
     </g>
    </g>
    <g id="text_20">
     <!-- Time -->
     <g transform="translate(293.089134 418.316562)scale(0.1 -0.1)">
      <defs>
       <path id="DejaVuSans-54" d="M -19 4666 
L 3928 4666 
L 3928 4134 
L 2272 4134 
L 2272 0 
L 1638 0 
L 1638 4134 
L -19 4134 
L -19 4666 
z
" transform="scale(0.015625)"/>
       <path id="DejaVuSans-69" d="M 603 3500 
L 1178 3500 
L 1178 0 
L 603 0 
L 603 3500 
z
M 603 4863 
L 1178 4863 
L 1178 4134 
L 603 4134 
L 603 4863 
z
" transform="scale(0.015625)"/>
      </defs>
      <use xlink:href="#DejaVuSans-54"/>
      <use xlink:href="#DejaVuSans-69" x="57.958984"/>
      <use xlink:href="#DejaVuSans-6d" x="85.742188"/>
      <use xlink:href="#DejaVuSans-65" x="183.154297"/>
     </g>
    </g>
   </g>
   <g id="matplotlib.axis_4">
    <g id="ytick_8">
     <g id="line2d_28">
      <g>
       <use xlink:href="#m774bbbd070" x="56" y="389.775716" style="stroke: #000000; stroke-width: 0.8"/>
      </g>
     </g>
     <g id="text_21">
      <!-- −6 -->
      <g transform="translate(34.257812 393.574935)scale(0.1 -0.1)">
       <defs>
        <path id="DejaVuSans-2212" d="M 678 2272 
L 4684 2272 
L 4684 1741 
L 678 1741 
L 678 2272 
z
" transform="scale(0.015625)"/>
        <path id="DejaVuSans-36" d="M 2113 2584 
Q 1688 2584 1439 2293 
Q 1191 2003 1191 1497 
Q 1191 994 1439 701 
Q 1688 409 2113 409 
Q 2538 409 2786 701 
Q 3034 994 3034 1497 
Q 3034 2003 2786 2293 
Q 2538 2584 2113 2584 
z
M 3366 4563 
L 3366 3988 
Q 3128 4100 2886 4159 
Q 2644 4219 2406 4219 
Q 1781 4219 1451 3797 
Q 1122 3375 1075 2522 
Q 1259 2794 1537 2939 
Q 1816 3084 2150 3084 
Q 2853 3084 3261 2657 
Q 3669 2231 3669 1497 
Q 3669 778 3244 343 
Q 2819 -91 2113 -91 
Q 1303 -91 875 529 
Q 447 1150 447 2328 
Q 447 3434 972 4092 
Q 1497 4750 2381 4750 
Q 2619 4750 2861 4703 
Q 3103 4656 3366 4563 
z
" transform="scale(0.015625)"/>
       </defs>
       <use xlink:href="#DejaVuSans-2212"/>
       <use xlink:href="#DejaVuSans-36" x="83.789062"/>
      </g>
     </g>
    </g>
    <g id="ytick_9">
     <g id="line2d_29">
      <g>
       <use xlink:href="#m774bbbd070" x="56" y="362.155236" style="stroke: #000000; stroke-width: 0.8"/>
      </g>
     </g>
     <g id="text_22">
      <!-- −4 -->
      <g transform="translate(34.257812 365.954455)scale(0.1 -0.1)">
       <defs>
        <path id="DejaVuSans-34" d="M 2419 4116 
L 825 1625 
L 2419 1625 
L 2419 4116 
z
M 2253 4666 
L 3047 4666 
L 3047 1625 
L 3713 1625 
L 3713 1100 
L 3047 1100 
L 3047 0 
L 2419 0 
L 2419 1100 
L 313 1100 
L 313 1709 
L 2253 4666 
z
" transform="scale(0.015625)"/>
       </defs>
       <use xlink:href="#DejaVuSans-2212"/>
       <use xlink:href="#DejaVuSans-34" x="83.789062"/>
      </g>
     </g>
    </g>
    <g id="ytick_10">
     <g id="line2d_30">
      <g>
       <use xlink:href="#m774bbbd070" x="56" y="334.534757" style="stroke: #000000; stroke-width: 0.8"/>
      </g>
     </g>
     <g id="text_23">
      <!-- −2 -->
      <g transform="translate(34.257812 338.333975)scale(0.1 -0.1)">
       <use xlink:href="#DejaVuSans-2212"/>
       <use xlink:href="#DejaVuSans-32" x="83.789062"/>
      </g>
     </g>
    </g>
    <g id="ytick_11">
     <g id="line2d_31">
      <g>
       <use xlink:href="#m774bbbd070" x="56" y="306.914277" style="stroke: #000000; stroke-width: 0.8"/>
      </g>
     </g>
     <g id="text_24">
      <!-- 0 -->
      <g transform="translate(42.6375 310.713496)scale(0.1 -0.1)">
       <use xlink:href="#DejaVuSans-30"/>
      </g>
     </g>
    </g>
    <g id="text_25">
     <!-- DD % -->
     <g transform="translate(28.178125 360.537798)rotate(-90)scale(0.1 -0.1)">
      <defs>
       <path id="DejaVuSans-44" d="M 1259 4147 
L 1259 519 
L 2022 519 
Q 2988 519 3436 956 
Q 3884 1394 3884 2338 
Q 3884 3275 3436 3711 
Q 2988 4147 2022 4147 
L 1259 4147 
z
M 628 4666 
L 1925 4666 
Q 3281 4666 3915 4102 
Q 4550 3538 4550 2338 
Q 4550 1131 3912 565 
Q 3275 0 1925 0 
L 628 0 
L 628 4666 
z
" transform="scale(0.015625)"/>
      </defs>
      <use xlink:href="#DejaVuSans-44"/>
      <use xlink:href="#DejaVuSans-44" x="77.001953"/>
      <use xlink:href="#DejaVuSans-20" x="154.003906"/>
      <use xlink:href="#DejaVuSans-25" x="185.791016"/>
     </g>
    </g>
   </g>
   <g id="line2d_32">
    <path d="M 78.665702 306.914277 
L 81.184114 306.914277 
L 87.480142 309.814776 
L 88.739348 318.093226 
L 91.257759 306.914277 
L 96.294582 306.914277 
L 97.553788 319.194354 
L 98.812994 306.914277 
L 100.072199 307.891869 
L 101.331405 306.914277 
L 105.109022 317.491982 
L 106.368228 306.914277 
L 110.145845 306.914277 
L 113.923462 311.274787 
L 115.182668 339.72692 
L 116.441873 325.627975 
L 117.701079 348.807457 
L 118.960285 355.112891 
L 122.737902 352.693409 
L 123.997107 330.452688 
L 125.256313 313.969844 
L 126.515519 320.805495 
L 127.774725 313.980783 
L 131.552342 316.371056 
L 132.811547 318.773181 
L 134.070753 327.706007 
L 135.329959 330.234672 
L 136.589164 330.895601 
L 140.366781 332.025828 
L 141.625987 322.758243 
L 142.885193 333.274541 
L 144.144399 356.79438 
L 145.403604 344.850187 
L 149.181221 335.050252 
L 150.440427 340.08772 
L 151.699633 352.497359 
L 152.958838 360.240026 
L 154.218044 377.973276 
L 157.995661 353.942074 
L 159.254867 335.088747 
L 160.514073 331.893955 
L 161.773278 339.62592 
L 163.032484 339.916159 
L 166.810101 340.087932 
L 168.069307 336.961462 
L 169.328512 314.882121 
L 170.587718 306.914277 
L 175.624541 306.914277 
L 176.883747 316.003973 
L 178.142952 316.688428 
L 179.402158 327.084261 
L 180.661364 345.188658 
L 184.438981 337.332587 
L 185.698186 328.87138 
L 186.957392 330.694382 
L 188.216598 325.339561 
L 189.475803 321.636875 
L 193.253421 321.470196 
L 194.512626 331.878803 
L 195.771832 323.688289 
L 197.031038 317.475173 
L 203.327066 306.914277 
L 205.845478 306.914277 
L 207.104683 319.203309 
L 210.8823 310.710442 
L 212.141506 324.414128 
L 213.400712 308.009139 
L 214.659917 306.914277 
L 219.69674 306.914277 
L 222.215152 337.114389 
L 224.733563 318.92396 
L 228.51118 306.914277 
L 232.288797 306.914277 
L 233.548003 312.535015 
L 237.32562 313.370276 
L 238.584826 311.854324 
L 239.844031 343.053291 
L 241.103237 319.882562 
L 242.362443 332.486115 
L 246.14006 319.206212 
L 247.399265 323.168781 
L 259.991322 323.168781 
L 263.768939 329.785084 
L 265.028145 329.785084 
L 266.287351 335.20508 
L 267.546556 329.766206 
L 268.805762 317.559522 
L 272.583379 306.914277 
L 275.101791 306.914277 
L 276.360996 320.816531 
L 277.620202 307.055091 
L 281.397819 314.635453 
L 282.657025 323.720419 
L 283.91623 308.83966 
L 285.175436 324.560568 
L 286.434642 319.749274 
L 290.212259 312.067571 
L 291.471465 309.944737 
L 292.73067 306.914277 
L 293.989876 310.098784 
L 309.100344 310.098784 
L 310.35955 309.295306 
L 311.618756 309.295306 
L 312.877961 306.914277 
L 326.729224 306.914277 
L 327.98843 307.322785 
L 329.247635 310.242022 
L 330.506841 326.843444 
L 334.284458 333.953032 
L 335.543664 354.806287 
L 336.80287 347.720314 
L 338.062075 325.642003 
L 339.321281 315.219131 
L 343.098898 313.973528 
L 344.358104 318.702402 
L 345.617309 321.197499 
L 346.876515 324.245351 
L 348.135721 317.445308 
L 351.913338 311.939492 
L 353.172544 309.793075 
L 354.431749 306.914277 
L 355.690955 306.914277 
L 356.950161 309.349604 
L 360.727778 319.10887 
L 361.986983 317.854628 
L 363.246189 306.914277 
L 369.542218 306.914277 
L 370.801423 314.047873 
L 372.060629 308.364697 
L 373.319835 322.136109 
L 378.356657 322.136109 
L 379.615863 325.539287 
L 380.875069 329.884798 
L 382.134275 340.467333 
L 383.39348 347.965598 
L 387.171097 340.637752 
L 388.430303 341.09352 
L 389.689509 314.85691 
L 390.948714 314.213286 
L 392.20792 314.95482 
L 395.985537 306.914277 
L 397.244743 306.914277 
L 398.503949 319.485011 
L 399.763154 350.250697 
L 401.02236 348.845076 
L 404.799977 352.180155 
L 406.059183 355.157252 
L 433.761708 355.157252 
L 435.020914 371.045052 
L 436.280119 365.637685 
L 443.835354 365.637685 
L 445.094559 352.457293 
L 448.872176 348.790903 
L 450.131382 342.605132 
L 451.390588 350.789673 
L 452.649793 356.913252 
L 453.908999 355.511131 
L 457.686616 355.331151 
L 458.945822 363.712512 
L 460.205028 378.722447 
L 461.464233 386.081632 
L 462.723439 383.155886 
L 466.501056 378.489309 
L 467.760262 370.665432 
L 469.019467 370.962977 
L 470.278673 362.193846 
L 471.537879 350.139872 
L 475.315496 347.7041 
L 476.574702 338.215044 
L 477.833907 332.280191 
L 479.093113 332.04311 
L 480.352319 337.185005 
L 484.129936 331.733944 
L 485.389141 319.925925 
L 486.648347 321.561874 
L 487.907553 325.505627 
L 489.166758 332.940679 
L 492.944376 337.567918 
L 494.203581 342.137778 
L 495.462787 353.300028 
L 496.721993 352.694991 
L 497.981198 371.468044 
L 530.720546 371.468044 
L 531.979752 361.597604 
L 531.979752 361.597604 
" clip-path="url(#pf8167a4844)" style="fill: none; stroke: #0000ff; stroke-width: 1.5; stroke-linecap: square"/>
   </g>
   <g id="patch_9">
    <path d="M 56 390.04 
L 56 302.955909 
" style="fill: none; stroke: #000000; stroke-width: 0.8; stroke-linejoin: miter; stroke-linecap: square"/>
   </g>
   <g id="patch_10">
    <path d="M 554.645455 390.04 
L 554.645455 302.955909 
" style="fill: none; stroke: #000000; stroke-width: 0.8; stroke-linejoin: miter; stroke-linecap: square"/>
   </g>
   <g id="patch_11">
    <path d="M 56 390.04 
L 554.645455 390.04 
" style="fill: none; stroke: #000000; stroke-width: 0.8; stroke-linejoin: miter; stroke-linecap: square"/>
   </g>
   <g id="patch_12">
    <path d="M 56 302.955909 
L 554.645455 302.955909 
" style="fill: none; stroke: #000000; stroke-width: 0.8; stroke-linejoin: miter; stroke-linecap: square"/>
   </g>
  </g>
 </g>
 <defs>
  <clipPath id="p004ed6c21b">
   <rect x="56" y="26.88" width="498.645455" height="261.252273"/>
  </clipPath>
  <clipPath id="pf8167a4844">
   <rect x="56" y="302.955909" width="498.645455" height="87.084091"/>
  </clipPath>
 </defs>
</svg>
