<?xml version="1.0" encoding="utf-8" standalone="no"?>
<!DOCTYPE svg PUBLIC "-//W3C//DTD SVG 1.1//EN"
  "http://www.w3.org/Graphics/SVG/1.1/DTD/svg11.dtd">
<svg xmlns:xlink="http://www.w3.org/1999/xlink" width="576pt" height="432pt" viewBox="0 0 576 432" xmlns="http://www.w3.org/2000/svg" version="1.1">
 <metadata>
  <rdf:RDF xmlns:dc="http://purl.org/dc/elements/1.1/" xmlns:cc="http://creativecommons.org/ns#" xmlns:rdf="http://www.w3.org/1999/02/22-rdf-syntax-ns#">
   <cc:Work>
    <dc:type rdf:resource="http://purl.org/dc/dcmitype/StillImage"/>
    <dc:date>2023-01-15T23:56:30.547635</dc:date>
    <dc:format>image/svg+xml</dc:format>
    <dc:creator>
     <cc:Agent>
      <dc:title>Matplotlib v3.5.0, https://matplotlib.org/</dc:title>
     </cc:Agent>
    </dc:creator>
   </cc:Work>
  </rdf:RDF>
 </metadata>
 <defs>
  <style type="text/css">*{stroke-linejoin: round; stroke-linecap: butt}</style>
 </defs>
 <g id="figure_1">
  <g id="patch_1">
   <path d="M 0 432 
L 576 432 
L 576 0 
L 0 0 
z
" style="fill: #ffffff"/>
  </g>
  <g id="axes_1">
   <g id="patch_2">
    <path d="M 46.55 288.132273 
L 559.156127 288.132273 
L 559.156127 26.88 
L 46.55 26.88 
z
" style="fill: #ffffff"/>
   </g>
   <g id="matplotlib.axis_1">
    <g id="xtick_1">
     <g id="line2d_1">
      <defs>
       <path id="m2c8206b253" d="M 0 0 
L 0 3.5 
" style="stroke: #000000; stroke-width: 0.8"/>
      </defs>
      <g>
       <use xlink:href="#m2c8206b253" x="72.417802" y="288.132273" style="stroke: #000000; stroke-width: 0.8"/>
      </g>
     </g>
    </g>
    <g id="xtick_2">
     <g id="line2d_2">
      <g>
       <use xlink:href="#m2c8206b253" x="149.443516" y="288.132273" style="stroke: #000000; stroke-width: 0.8"/>
      </g>
     </g>
    </g>
    <g id="xtick_3">
     <g id="line2d_3">
      <g>
       <use xlink:href="#m2c8206b253" x="227.752992" y="288.132273" style="stroke: #000000; stroke-width: 0.8"/>
      </g>
     </g>
    </g>
    <g id="xtick_4">
     <g id="line2d_4">
      <g>
       <use xlink:href="#m2c8206b253" x="306.062468" y="288.132273" style="stroke: #000000; stroke-width: 0.8"/>
      </g>
     </g>
    </g>
    <g id="xtick_5">
     <g id="line2d_5">
      <g>
       <use xlink:href="#m2c8206b253" x="385.655706" y="288.132273" style="stroke: #000000; stroke-width: 0.8"/>
      </g>
     </g>
    </g>
    <g id="xtick_6">
     <g id="line2d_6">
      <g>
       <use xlink:href="#m2c8206b253" x="463.965182" y="288.132273" style="stroke: #000000; stroke-width: 0.8"/>
      </g>
     </g>
    </g>
    <g id="xtick_7">
     <g id="line2d_7">
      <g>
       <use xlink:href="#m2c8206b253" x="542.274658" y="288.132273" style="stroke: #000000; stroke-width: 0.8"/>
      </g>
     </g>
    </g>
   </g>
   <g id="matplotlib.axis_2">
    <g id="ytick_1">
     <g id="line2d_8">
      <defs>
       <path id="me6386809be" d="M 0 0 
L -3.5 0 
" style="stroke: #000000; stroke-width: 0.8"/>
      </defs>
      <g>
       <use xlink:href="#me6386809be" x="46.55" y="254.507438" style="stroke: #000000; stroke-width: 0.8"/>
      </g>
     </g>
     <g id="text_1">
      <!-- 0 -->
      <g transform="translate(33.1875 258.306657)scale(0.1 -0.1)">
       <defs>
        <path id="DejaVuSans-30" d="M 2034 4250 
Q 1547 4250 1301 3770 
Q 1056 3291 1056 2328 
Q 1056 1369 1301 889 
Q 1547 409 2034 409 
Q 2525 409 2770 889 
Q 3016 1369 3016 2328 
Q 3016 3291 2770 3770 
Q 2525 4250 2034 4250 
z
M 2034 4750 
Q 2819 4750 3233 4129 
Q 3647 3509 3647 2328 
Q 3647 1150 3233 529 
Q 2819 -91 2034 -91 
Q 1250 -91 836 529 
Q 422 1150 422 2328 
Q 422 3509 836 4129 
Q 1250 4750 2034 4750 
z
" transform="scale(0.015625)"/>
       </defs>
       <use xlink:href="#DejaVuSans-30"/>
      </g>
     </g>
    </g>
    <g id="ytick_2">
     <g id="line2d_9">
      <g>
       <use xlink:href="#me6386809be" x="46.55" y="220.652665" style="stroke: #000000; stroke-width: 0.8"/>
      </g>
     </g>
     <g id="text_2">
      <!-- 5 -->
      <g transform="translate(33.1875 224.451884)scale(0.1 -0.1)">
       <defs>
        <path id="DejaVuSans-35" d="M 691 4666 
L 3169 4666 
L 3169 4134 
L 1269 4134 
L 1269 2991 
Q 1406 3038 1543 3061 
Q 1681 3084 1819 3084 
Q 2600 3084 3056 2656 
Q 3513 2228 3513 1497 
Q 3513 744 3044 326 
Q 2575 -91 1722 -91 
Q 1428 -91 1123 -41 
Q 819 9 494 109 
L 494 744 
Q 775 591 1075 516 
Q 1375 441 1709 441 
Q 2250 441 2565 725 
Q 2881 1009 2881 1497 
Q 2881 1984 2565 2268 
Q 2250 2553 1709 2553 
Q 1456 2553 1204 2497 
Q 953 2441 691 2322 
L 691 4666 
z
" transform="scale(0.015625)"/>
       </defs>
       <use xlink:href="#DejaVuSans-35"/>
      </g>
     </g>
    </g>
    <g id="ytick_3">
     <g id="line2d_10">
      <g>
       <use xlink:href="#me6386809be" x="46.55" y="186.797892" style="stroke: #000000; stroke-width: 0.8"/>
      </g>
     </g>
     <g id="text_3">
      <!-- 10 -->
      <g transform="translate(26.825 190.59711)scale(0.1 -0.1)">
       <defs>
        <path id="DejaVuSans-31" d="M 794 531 
L 1825 531 
L 1825 4091 
L 703 3866 
L 703 4441 
L 1819 4666 
L 2450 4666 
L 2450 531 
L 3481 531 
L 3481 0 
L 794 0 
L 794 531 
z
" transform="scale(0.015625)"/>
       </defs>
       <use xlink:href="#DejaVuSans-31"/>
       <use xlink:href="#DejaVuSans-30" x="63.623047"/>
      </g>
     </g>
    </g>
    <g id="ytick_4">
     <g id="line2d_11">
      <g>
       <use xlink:href="#me6386809be" x="46.55" y="152.943119" style="stroke: #000000; stroke-width: 0.8"/>
      </g>
     </g>
     <g id="text_4">
      <!-- 15 -->
      <g transform="translate(26.825 156.742337)scale(0.1 -0.1)">
       <use xlink:href="#DejaVuSans-31"/>
       <use xlink:href="#DejaVuSans-35" x="63.623047"/>
      </g>
     </g>
    </g>
    <g id="ytick_5">
     <g id="line2d_12">
      <g>
       <use xlink:href="#me6386809be" x="46.55" y="119.088346" style="stroke: #000000; stroke-width: 0.8"/>
      </g>
     </g>
     <g id="text_5">
      <!-- 20 -->
      <g transform="translate(26.825 122.887564)scale(0.1 -0.1)">
       <defs>
        <path id="DejaVuSans-32" d="M 1228 531 
L 3431 531 
L 3431 0 
L 469 0 
L 469 531 
Q 828 903 1448 1529 
Q 2069 2156 2228 2338 
Q 2531 2678 2651 2914 
Q 2772 3150 2772 3378 
Q 2772 3750 2511 3984 
Q 2250 4219 1831 4219 
Q 1534 4219 1204 4116 
Q 875 4013 500 3803 
L 500 4441 
Q 881 4594 1212 4672 
Q 1544 4750 1819 4750 
Q 2544 4750 2975 4387 
Q 3406 4025 3406 3419 
Q 3406 3131 3298 2873 
Q 3191 2616 2906 2266 
Q 2828 2175 2409 1742 
Q 1991 1309 1228 531 
z
" transform="scale(0.015625)"/>
       </defs>
       <use xlink:href="#DejaVuSans-32"/>
       <use xlink:href="#DejaVuSans-30" x="63.623047"/>
      </g>
     </g>
    </g>
    <g id="ytick_6">
     <g id="line2d_13">
      <g>
       <use xlink:href="#me6386809be" x="46.55" y="85.233572" style="stroke: #000000; stroke-width: 0.8"/>
      </g>
     </g>
     <g id="text_6">
      <!-- 25 -->
      <g transform="translate(26.825 89.032791)scale(0.1 -0.1)">
       <use xlink:href="#DejaVuSans-32"/>
       <use xlink:href="#DejaVuSans-35" x="63.623047"/>
      </g>
     </g>
    </g>
    <g id="ytick_7">
     <g id="line2d_14">
      <g>
       <use xlink:href="#me6386809be" x="46.55" y="51.378799" style="stroke: #000000; stroke-width: 0.8"/>
      </g>
     </g>
     <g id="text_7">
      <!-- 30 -->
      <g transform="translate(26.825 55.178018)scale(0.1 -0.1)">
       <defs>
        <path id="DejaVuSans-33" d="M 2597 2516 
Q 3050 2419 3304 2112 
Q 3559 1806 3559 1356 
Q 3559 666 3084 287 
Q 2609 -91 1734 -91 
Q 1441 -91 1130 -33 
Q 819 25 488 141 
L 488 750 
Q 750 597 1062 519 
Q 1375 441 1716 441 
Q 2309 441 2620 675 
Q 2931 909 2931 1356 
Q 2931 1769 2642 2001 
Q 2353 2234 1838 2234 
L 1294 2234 
L 1294 2753 
L 1863 2753 
Q 2328 2753 2575 2939 
Q 2822 3125 2822 3475 
Q 2822 3834 2567 4026 
Q 2313 4219 1838 4219 
Q 1578 4219 1281 4162 
Q 984 4106 628 3988 
L 628 4550 
Q 988 4650 1302 4700 
Q 1616 4750 1894 4750 
Q 2613 4750 3031 4423 
Q 3450 4097 3450 3541 
Q 3450 3153 3228 2886 
Q 3006 2619 2597 2516 
z
" transform="scale(0.015625)"/>
       </defs>
       <use xlink:href="#DejaVuSans-33"/>
       <use xlink:href="#DejaVuSans-30" x="63.623047"/>
      </g>
     </g>
    </g>
    <g id="text_8">
     <!-- Return [%] -->
     <g transform="translate(20.745313 184.338949)rotate(-90)scale(0.1 -0.1)">
      <defs>
       <path id="DejaVuSans-52" d="M 2841 2188 
Q 3044 2119 3236 1894 
Q 3428 1669 3622 1275 
L 4263 0 
L 3584 0 
L 2988 1197 
Q 2756 1666 2539 1819 
Q 2322 1972 1947 1972 
L 1259 1972 
L 1259 0 
L 628 0 
L 628 4666 
L 2053 4666 
Q 2853 4666 3247 4331 
Q 3641 3997 3641 3322 
Q 3641 2881 3436 2590 
Q 3231 2300 2841 2188 
z
M 1259 4147 
L 1259 2491 
L 2053 2491 
Q 2509 2491 2742 2702 
Q 2975 2913 2975 3322 
Q 2975 3731 2742 3939 
Q 2509 4147 2053 4147 
L 1259 4147 
z
" transform="scale(0.015625)"/>
       <path id="DejaVuSans-65" d="M 3597 1894 
L 3597 1613 
L 953 1613 
Q 991 1019 1311 708 
Q 1631 397 2203 397 
Q 2534 397 2845 478 
Q 3156 559 3463 722 
L 3463 178 
Q 3153 47 2828 -22 
Q 2503 -91 2169 -91 
Q 1331 -91 842 396 
Q 353 884 353 1716 
Q 353 2575 817 3079 
Q 1281 3584 2069 3584 
Q 2775 3584 3186 3129 
Q 3597 2675 3597 1894 
z
M 3022 2063 
Q 3016 2534 2758 2815 
Q 2500 3097 2075 3097 
Q 1594 3097 1305 2825 
Q 1016 2553 972 2059 
L 3022 2063 
z
" transform="scale(0.015625)"/>
       <path id="DejaVuSans-74" d="M 1172 4494 
L 1172 3500 
L 2356 3500 
L 2356 3053 
L 1172 3053 
L 1172 1153 
Q 1172 725 1289 603 
Q 1406 481 1766 481 
L 2356 481 
L 2356 0 
L 1766 0 
Q 1100 0 847 248 
Q 594 497 594 1153 
L 594 3053 
L 172 3053 
L 172 3500 
L 594 3500 
L 594 4494 
L 1172 4494 
z
" transform="scale(0.015625)"/>
       <path id="DejaVuSans-75" d="M 544 1381 
L 544 3500 
L 1119 3500 
L 1119 1403 
Q 1119 906 1312 657 
Q 1506 409 1894 409 
Q 2359 409 2629 706 
Q 2900 1003 2900 1516 
L 2900 3500 
L 3475 3500 
L 3475 0 
L 2900 0 
L 2900 538 
Q 2691 219 2414 64 
Q 2138 -91 1772 -91 
Q 1169 -91 856 284 
Q 544 659 544 1381 
z
M 1991 3584 
L 1991 3584 
z
" transform="scale(0.015625)"/>
       <path id="DejaVuSans-72" d="M 2631 2963 
Q 2534 3019 2420 3045 
Q 2306 3072 2169 3072 
Q 1681 3072 1420 2755 
Q 1159 2438 1159 1844 
L 1159 0 
L 581 0 
L 581 3500 
L 1159 3500 
L 1159 2956 
Q 1341 3275 1631 3429 
Q 1922 3584 2338 3584 
Q 2397 3584 2469 3576 
Q 2541 3569 2628 3553 
L 2631 2963 
z
" transform="scale(0.015625)"/>
       <path id="DejaVuSans-6e" d="M 3513 2113 
L 3513 0 
L 2938 0 
L 2938 2094 
Q 2938 2591 2744 2837 
Q 2550 3084 2163 3084 
Q 1697 3084 1428 2787 
Q 1159 2491 1159 1978 
L 1159 0 
L 581 0 
L 581 3500 
L 1159 3500 
L 1159 2956 
Q 1366 3272 1645 3428 
Q 1925 3584 2291 3584 
Q 2894 3584 3203 3211 
Q 3513 2838 3513 2113 
z
" transform="scale(0.015625)"/>
       <path id="DejaVuSans-20" transform="scale(0.015625)"/>
       <path id="DejaVuSans-5b" d="M 550 4863 
L 1875 4863 
L 1875 4416 
L 1125 4416 
L 1125 -397 
L 1875 -397 
L 1875 -844 
L 550 -844 
L 550 4863 
z
" transform="scale(0.015625)"/>
       <path id="DejaVuSans-25" d="M 4653 2053 
Q 4381 2053 4226 1822 
Q 4072 1591 4072 1178 
Q 4072 772 4226 539 
Q 4381 306 4653 306 
Q 4919 306 5073 539 
Q 5228 772 5228 1178 
Q 5228 1588 5073 1820 
Q 4919 2053 4653 2053 
z
M 4653 2450 
Q 5147 2450 5437 2106 
Q 5728 1763 5728 1178 
Q 5728 594 5436 251 
Q 5144 -91 4653 -91 
Q 4153 -91 3862 251 
Q 3572 594 3572 1178 
Q 3572 1766 3864 2108 
Q 4156 2450 4653 2450 
z
M 1428 4353 
Q 1159 4353 1004 4120 
Q 850 3888 850 3481 
Q 850 3069 1003 2837 
Q 1156 2606 1428 2606 
Q 1700 2606 1854 2837 
Q 2009 3069 2009 3481 
Q 2009 3884 1853 4118 
Q 1697 4353 1428 4353 
z
M 4250 4750 
L 4750 4750 
L 1831 -91 
L 1331 -91 
L 4250 4750 
z
M 1428 4750 
Q 1922 4750 2215 4408 
Q 2509 4066 2509 3481 
Q 2509 2891 2217 2550 
Q 1925 2209 1428 2209 
Q 931 2209 642 2551 
Q 353 2894 353 3481 
Q 353 4063 643 4406 
Q 934 4750 1428 4750 
z
" transform="scale(0.015625)"/>
       <path id="DejaVuSans-5d" d="M 1947 4863 
L 1947 -844 
L 622 -844 
L 622 -397 
L 1369 -397 
L 1369 4416 
L 622 4416 
L 622 4863 
L 1947 4863 
z
" transform="scale(0.015625)"/>
      </defs>
      <use xlink:href="#DejaVuSans-52"/>
      <use xlink:href="#DejaVuSans-65" x="64.982422"/>
      <use xlink:href="#DejaVuSans-74" x="126.505859"/>
      <use xlink:href="#DejaVuSans-75" x="165.714844"/>
      <use xlink:href="#DejaVuSans-72" x="229.09375"/>
      <use xlink:href="#DejaVuSans-6e" x="268.457031"/>
      <use xlink:href="#DejaVuSans-20" x="331.835938"/>
      <use xlink:href="#DejaVuSans-5b" x="363.623047"/>
      <use xlink:href="#DejaVuSans-25" x="402.636719"/>
      <use xlink:href="#DejaVuSans-5d" x="497.65625"/>
     </g>
    </g>
   </g>
   <g id="line2d_15">
    <path d="M 69.850278 247.352192 
L 73.701564 239.331113 
L 74.985326 225.91416 
L 76.269088 234.565566 
L 77.55285 237.426279 
L 82.687898 241.090486 
L 83.971659 230.15328 
L 85.255421 232.279767 
L 86.539183 228.19996 
L 87.822945 232.702293 
L 91.674231 229.578367 
L 92.957993 221.578067 
L 94.241755 219.112174 
L 95.525517 212.739642 
L 96.809278 215.870495 
L 100.660564 209.588008 
L 103.228088 220.926961 
L 104.51185 207.066702 
L 105.795612 210.259895 
L 109.646897 219.292268 
L 110.930659 213.764788 
L 112.214421 193.71209 
L 113.498183 193.137177 
L 114.781945 184.451137 
L 118.633231 187.60277 
L 121.200755 187.256437 
L 122.484516 185.517844 
L 123.768278 193.656676 
L 127.619564 187.464237 
L 128.903326 190.69899 
L 130.187088 181.652764 
L 131.47085 177.856951 
L 132.754612 169.981332 
L 136.605897 161.385339 
L 137.889659 165.222712 
L 139.173421 172.398738 
L 140.457183 172.322545 
L 141.740945 169.662705 
L 145.592231 174.123478 
L 146.875993 168.166545 
L 148.159754 168.450539 
L 149.443516 166.497219 
L 150.727278 166.130105 
L 154.578564 171.456712 
L 155.862326 199.059476 
L 157.146088 195.547656 
L 158.42985 175.688905 
L 159.713612 176.734831 
L 163.564897 174.996238 
L 164.848659 165.430512 
L 166.132421 158.822473 
L 167.416183 155.054366 
L 168.699945 153.495867 
L 172.551231 154.853493 
L 175.118754 177.455205 
L 176.402516 185.365457 
L 177.686278 180.551424 
L 181.537564 167.674752 
L 182.821326 172.842045 
L 184.105088 180.807711 
L 185.38885 198.539976 
L 186.672611 187.346484 
L 190.523897 179.041411 
L 191.807659 183.135071 
L 193.091421 210.114435 
L 194.375183 213.723228 
L 200.793992 229.502173 
L 202.077754 220.372828 
L 203.361516 204.399936 
L 204.645278 219.735574 
L 208.496564 213.716301 
L 209.780326 200.673389 
L 211.064088 213.896395 
L 212.347849 210.093655 
L 213.631611 200.333983 
L 217.482897 233.865973 
L 218.766659 220.497508 
L 220.050421 210.072875 
L 221.334183 214.686035 
L 222.617945 199.682876 
L 226.46923 197.639509 
L 229.036754 203.277816 
L 230.320516 197.445563 
L 231.604278 216.805595 
L 235.455564 217.664501 
L 236.739326 226.094254 
L 238.023087 226.10118 
L 239.306849 220.580628 
L 240.590611 216.486968 
L 244.441897 235.563006 
L 245.725659 239.476573 
L 247.009421 247.982519 
L 249.576945 269.427477 
L 253.42823 255.581071 
L 254.711992 238.569179 
L 255.995754 256.557731 
L 257.279516 248.204172 
L 258.563278 249.305512 
L 262.414564 249.243172 
L 263.698326 237.668713 
L 264.982087 248.211098 
L 266.265849 255.574145 
L 267.549611 268.928757 
L 271.400897 276.257169 
L 272.684659 272.24663 
L 275.252183 251.438925 
L 276.535945 255.726531 
L 280.38723 251.203418 
L 281.670992 247.830132 
L 282.954754 255.553365 
L 284.238516 258.566464 
L 285.522278 254.500511 
L 289.373564 252.062325 
L 290.657325 238.804686 
L 291.941087 228.55322 
L 293.224849 232.120453 
L 298.359897 249.090785 
L 299.643659 251.653652 
L 300.927421 244.498405 
L 302.211183 253.115178 
L 303.494944 225.734067 
L 307.34623 221.716601 
L 308.629992 211.118802 
L 309.913754 212.324042 
L 311.197516 214.090341 
L 312.481278 222.402341 
L 316.332563 224.778187 
L 317.616325 219.479288 
L 318.900087 220.843841 
L 320.183849 229.432907 
L 321.467611 217.505188 
L 325.318897 212.753495 
L 326.602659 222.007521 
L 327.886421 216.202975 
L 329.170182 203.811169 
L 330.453944 210.149068 
L 334.30523 223.829234 
L 335.588992 223.856941 
L 336.872754 218.641161 
L 338.156516 205.432009 
L 339.440278 197.549463 
L 344.575325 191.724137 
L 345.859087 193.282637 
L 347.142849 198.692363 
L 348.426611 182.781811 
L 352.277897 185.988857 
L 353.561659 186.50143 
L 354.84542 183.557597 
L 356.129182 180.980878 
L 357.412944 183.855444 
L 361.26423 185.413944 
L 362.547992 183.897004 
L 363.831754 186.868544 
L 365.115516 184.880591 
L 366.399278 175.591931 
L 370.250563 180.710738 
L 371.534325 180.011144 
L 372.818087 196.129496 
L 374.101849 200.721876 
L 375.385611 198.359883 
L 379.236897 193.531996 
L 380.520658 210.654715 
L 381.80442 207.260649 
L 383.088182 212.351748 
L 384.371944 208.507449 
L 388.22323 204.635442 
L 389.506992 214.180388 
L 390.790754 212.524915 
L 392.074516 198.449929 
L 393.358277 189.84701 
L 397.209563 192.13281 
L 399.777087 179.533204 
L 401.060849 179.159164 
L 402.344611 159.293486 
L 406.195896 163.761186 
L 407.479658 168.990819 
L 408.76342 165.215786 
L 410.047182 169.510319 
L 411.330944 169.745825 
L 415.18223 169.856652 
L 416.465992 165.700652 
L 417.749754 177.870804 
L 419.033516 181.015511 
L 420.317277 188.752597 
L 424.168563 179.962658 
L 425.452325 180.080411 
L 426.736087 183.356724 
L 428.019849 181.382624 
L 429.303611 174.144258 
L 433.154896 183.585304 
L 434.438658 187.91447 
L 435.72242 196.302663 
L 437.006182 193.677456 
L 438.289944 198.276763 
L 442.14123 194.806503 
L 443.424992 188.468604 
L 444.708754 186.639964 
L 445.992515 181.638911 
L 447.276277 194.160938 
L 451.127563 192.333683 
L 452.411325 205.272695 
L 453.695087 203.977409 
L 454.978849 198.941723 
L 456.262611 197.929044 
L 460.113896 200.444809 
L 461.397658 197.932507 
L 462.68142 202.841436 
L 463.965182 195.63701 
L 465.248944 190.51197 
L 469.10023 195.055863 
L 470.383992 188.731817 
L 471.667753 199.869896 
L 472.951515 200.479443 
L 474.235277 202.815807 
L 478.086563 202.709829 
L 479.370325 202.240894 
L 480.654087 202.765242 
L 481.937849 212.386382 
L 483.221611 220.206588 
L 487.072896 203.360936 
L 488.356658 201.594636 
L 489.64042 201.781656 
L 490.924182 196.697483 
L 492.207944 189.22361 
L 496.05923 191.15615 
L 497.342991 189.251317 
L 498.626753 190.872157 
L 499.910515 180.038851 
L 501.194277 179.470864 
L 505.045563 177.372085 
L 506.329325 177.566031 
L 507.613087 175.675051 
L 508.896849 171.034185 
L 510.18061 170.625512 
L 514.031896 165.548266 
L 515.315658 163.463339 
L 516.59942 167.349199 
L 517.883182 175.127845 
L 519.166944 170.999552 
L 523.018229 168.485172 
L 524.301991 164.488486 
L 525.585753 163.477192 
L 526.869515 164.077734 
L 528.153277 164.176786 
L 535.855848 162.112639 
L 535.855848 162.112639 
" clip-path="url(#p6c8f8c5cd8)" style="fill: none; stroke: #008000; stroke-width: 1.5; stroke-linecap: square"/>
   </g>
   <g id="line2d_16">
    <path d="M 69.850278 249.39914 
L 73.701564 243.629119 
L 74.985326 236.603949 
L 76.269088 230.366038 
L 77.55285 232.733466 
L 82.687898 233.767993 
L 83.971659 232.592255 
L 86.539183 220.177005 
L 87.822945 212.407445 
L 91.674231 217.578725 
L 92.957993 211.973069 
L 95.525517 207.416742 
L 96.809278 201.279314 
L 100.660564 195.887001 
L 101.944326 198.974691 
L 103.228088 197.683343 
L 104.51185 199.050703 
L 105.795612 192.130574 
L 109.646897 194.677792 
L 110.930659 196.547634 
L 112.214421 191.642752 
L 113.498183 178.843719 
L 114.781945 175.830892 
L 118.633231 170.034145 
L 119.916993 162.129912 
L 121.200755 170.467344 
L 122.484516 156.858747 
L 123.768278 155.56099 
L 127.619564 147.187272 
L 128.903326 141.206655 
L 130.187088 142.472826 
L 131.47085 138.143805 
L 132.754612 127.845226 
L 136.605897 116.789945 
L 137.889659 104.467188 
L 139.173421 105.358811 
L 140.457183 106.659829 
L 141.740945 111.176503 
L 145.592231 91.071691 
L 146.875993 90.572746 
L 148.159754 95.200359 
L 149.443516 97.028578 
L 150.727278 92.01059 
L 154.578564 93.667087 
L 155.862326 101.648879 
L 157.146088 139.358295 
L 158.42985 133.38556 
L 159.713612 118.313766 
L 163.564897 115.519122 
L 164.848659 113.068925 
L 166.132421 108.339594 
L 167.416183 102.37607 
L 172.551231 109.086061 
L 173.834992 111.35582 
L 175.118754 118.98051 
L 176.402516 121.257282 
L 177.686278 139.731505 
L 181.537564 136.601634 
L 182.821326 117.440651 
L 184.105088 123.556823 
L 185.38885 127.489438 
L 186.672611 131.887592 
L 190.523897 121.827724 
L 191.807659 118.905584 
L 193.091421 127.834409 
L 194.375183 141.98702 
L 200.793992 138.274853 
L 202.077754 138.274853 
L 203.361516 131.214103 
L 204.645278 123.128186 
L 209.780326 123.128186 
L 211.064088 110.771761 
L 212.347849 112.201459 
L 221.334183 112.201459 
L 222.617945 115.977098 
L 226.46923 110.155687 
L 229.036754 105.402861 
L 230.320516 105.724196 
L 231.604278 110.629262 
L 272.684659 110.629262 
L 275.252183 115.314459 
L 280.38723 115.314459 
L 281.670992 123.09777 
L 291.941087 123.09777 
L 293.224849 112.021549 
L 298.359897 107.083172 
L 299.643659 124.456792 
L 300.927421 124.456792 
L 302.211183 122.069912 
L 303.494944 122.069912 
L 307.34623 115.478694 
L 308.629992 119.702012 
L 309.913754 114.80707 
L 311.197516 113.243728 
L 312.481278 114.333788 
L 316.332563 112.969394 
L 317.616325 107.181324 
L 318.900087 115.854857 
L 320.183849 118.503658 
L 321.467611 122.863325 
L 325.318897 116.196427 
L 326.602659 105.604318 
L 327.886421 112.235013 
L 329.170182 105.494973 
L 330.453944 97.627607 
L 334.30523 92.510334 
L 335.588992 98.584515 
L 336.872754 106.205188 
L 338.156516 100.868219 
L 339.440278 93.375394 
L 343.291563 93.041376 
L 344.575325 95.26552 
L 345.859087 98.044726 
L 347.142849 95.168504 
L 348.426611 97.19767 
L 352.277897 92.708261 
L 353.561659 93.748266 
L 354.84542 93.309947 
L 356.129182 93.876507 
L 357.412944 96.364647 
L 361.26423 102.814812 
L 362.547992 102.282695 
L 363.831754 100.016765 
L 365.115516 92.732737 
L 366.399278 90.889452 
L 370.250563 92.937264 
L 371.534325 87.731902 
L 372.818087 90.257661 
L 379.236897 90.257661 
L 380.520658 96.690104 
L 381.80442 96.690104 
L 383.088182 90.308302 
L 384.371944 90.308302 
L 388.22323 88.820627 
L 389.506992 76.067656 
L 393.358277 76.067656 
L 397.209563 73.245521 
L 398.493325 68.848234 
L 399.777087 60.865964 
L 401.060849 65.685858 
L 402.344611 63.795634 
L 406.195896 63.295286 
L 407.479658 74.190592 
L 408.76342 92.332843 
L 410.047182 81.339071 
L 411.330944 74.391414 
L 415.18223 82.054718 
L 416.465992 80.126363 
L 419.033516 80.14648 
L 420.317277 59.710511 
L 424.168563 62.327761 
L 425.452325 61.92207 
L 426.736087 61.92207 
L 428.019849 58.473288 
L 429.303611 65.996418 
L 433.154896 66.003434 
L 434.438658 70.115133 
L 435.72242 73.534676 
L 437.006182 87.933608 
L 438.289944 99.856441 
L 442.14123 101.369398 
L 443.424992 110.289225 
L 445.992515 110.289225 
L 447.276277 115.405467 
L 472.951515 115.405467 
L 474.235277 117.721945 
L 478.086563 122.034958 
L 499.910515 122.034958 
L 501.194277 109.623699 
L 505.045563 102.511278 
L 506.329325 97.677556 
L 507.613087 92.198468 
L 510.18061 92.872549 
L 514.031896 89.437549 
L 515.315658 92.410411 
L 516.59942 84.170285 
L 517.883182 80.413158 
L 519.166944 78.030389 
L 523.018229 71.757208 
L 524.301991 72.314163 
L 525.585753 62.68784 
L 526.869515 57.428394 
L 528.153277 38.755103 
L 535.855848 49.552167 
L 535.855848 49.552167 
" clip-path="url(#p6c8f8c5cd8)" style="fill: none; stroke: #0000ff; stroke-width: 1.5; stroke-linecap: square"/>
   </g>
   <g id="line2d_17">
    <path d="M 69.850278 249.39914 
L 73.701564 243.629119 
L 74.985326 236.603949 
L 76.269088 230.366038 
L 83.971659 230.366038 
L 85.255421 226.419063 
L 86.539183 220.177005 
L 87.822945 212.407445 
L 91.674231 212.407445 
L 92.957993 211.973069 
L 95.525517 207.416742 
L 96.809278 201.279314 
L 100.660564 195.887001 
L 104.51185 195.887001 
L 105.795612 192.130574 
L 110.930659 192.130574 
L 112.214421 191.642752 
L 113.498183 178.843719 
L 114.781945 175.830892 
L 118.633231 170.034145 
L 119.916993 162.129912 
L 121.200755 162.129912 
L 122.484516 156.858747 
L 123.768278 155.56099 
L 127.619564 147.187272 
L 128.903326 141.206655 
L 130.187088 141.206655 
L 131.47085 138.143805 
L 132.754612 127.845226 
L 136.605897 116.789945 
L 137.889659 104.467188 
L 141.740945 104.467188 
L 145.592231 91.071691 
L 146.875993 90.572746 
L 370.250563 90.572746 
L 371.534325 87.731902 
L 388.22323 87.731902 
L 389.506992 76.067656 
L 393.358277 76.067656 
L 397.209563 73.245521 
L 398.493325 68.848234 
L 399.777087 60.865964 
L 419.033516 60.865964 
L 420.317277 59.710511 
L 426.736087 59.710511 
L 428.019849 58.473288 
L 525.585753 58.473288 
L 526.869515 57.428394 
L 528.153277 38.755103 
L 535.855848 38.755103 
L 535.855848 38.755103 
" clip-path="url(#p6c8f8c5cd8)" style="fill: none; stroke: #ff0000; stroke-width: 1.5; stroke-linecap: square"/>
   </g>
   <g id="patch_3">
    <path d="M 46.55 288.132273 
L 46.55 26.88 
" style="fill: none; stroke: #000000; stroke-width: 0.8; stroke-linejoin: miter; stroke-linecap: square"/>
   </g>
   <g id="patch_4">
    <path d="M 559.156127 288.132273 
L 559.156127 26.88 
" style="fill: none; stroke: #000000; stroke-width: 0.8; stroke-linejoin: miter; stroke-linecap: square"/>
   </g>
   <g id="patch_5">
    <path d="M 46.55 288.132273 
L 559.156127 288.132273 
" style="fill: none; stroke: #000000; stroke-width: 0.8; stroke-linejoin: miter; stroke-linecap: square"/>
   </g>
   <g id="patch_6">
    <path d="M 46.55 26.88 
L 559.156127 26.88 
" style="fill: none; stroke: #000000; stroke-width: 0.8; stroke-linejoin: miter; stroke-linecap: square"/>
   </g>
   <g id="text_9">
    <!-- Performance of AVAN-strategy year 2012 -->
    <g transform="translate(179.539938 20.88)scale(0.12 -0.12)">
     <defs>
      <path id="DejaVuSans-50" d="M 1259 4147 
L 1259 2394 
L 2053 2394 
Q 2494 2394 2734 2622 
Q 2975 2850 2975 3272 
Q 2975 3691 2734 3919 
Q 2494 4147 2053 4147 
L 1259 4147 
z
M 628 4666 
L 2053 4666 
Q 2838 4666 3239 4311 
Q 3641 3956 3641 3272 
Q 3641 2581 3239 2228 
Q 2838 1875 2053 1875 
L 1259 1875 
L 1259 0 
L 628 0 
L 628 4666 
z
" transform="scale(0.015625)"/>
      <path id="DejaVuSans-66" d="M 2375 4863 
L 2375 4384 
L 1825 4384 
Q 1516 4384 1395 4259 
Q 1275 4134 1275 3809 
L 1275 3500 
L 2222 3500 
L 2222 3053 
L 1275 3053 
L 1275 0 
L 697 0 
L 697 3053 
L 147 3053 
L 147 3500 
L 697 3500 
L 697 3744 
Q 697 4328 969 4595 
Q 1241 4863 1831 4863 
L 2375 4863 
z
" transform="scale(0.015625)"/>
      <path id="DejaVuSans-6f" d="M 1959 3097 
Q 1497 3097 1228 2736 
Q 959 2375 959 1747 
Q 959 1119 1226 758 
Q 1494 397 1959 397 
Q 2419 397 2687 759 
Q 2956 1122 2956 1747 
Q 2956 2369 2687 2733 
Q 2419 3097 1959 3097 
z
M 1959 3584 
Q 2709 3584 3137 3096 
Q 3566 2609 3566 1747 
Q 3566 888 3137 398 
Q 2709 -91 1959 -91 
Q 1206 -91 779 398 
Q 353 888 353 1747 
Q 353 2609 779 3096 
Q 1206 3584 1959 3584 
z
" transform="scale(0.015625)"/>
      <path id="DejaVuSans-6d" d="M 3328 2828 
Q 3544 3216 3844 3400 
Q 4144 3584 4550 3584 
Q 5097 3584 5394 3201 
Q 5691 2819 5691 2113 
L 5691 0 
L 5113 0 
L 5113 2094 
Q 5113 2597 4934 2840 
Q 4756 3084 4391 3084 
Q 3944 3084 3684 2787 
Q 3425 2491 3425 1978 
L 3425 0 
L 2847 0 
L 2847 2094 
Q 2847 2600 2669 2842 
Q 2491 3084 2119 3084 
Q 1678 3084 1418 2786 
Q 1159 2488 1159 1978 
L 1159 0 
L 581 0 
L 581 3500 
L 1159 3500 
L 1159 2956 
Q 1356 3278 1631 3431 
Q 1906 3584 2284 3584 
Q 2666 3584 2933 3390 
Q 3200 3197 3328 2828 
z
" transform="scale(0.015625)"/>
      <path id="DejaVuSans-61" d="M 2194 1759 
Q 1497 1759 1228 1600 
Q 959 1441 959 1056 
Q 959 750 1161 570 
Q 1363 391 1709 391 
Q 2188 391 2477 730 
Q 2766 1069 2766 1631 
L 2766 1759 
L 2194 1759 
z
M 3341 1997 
L 3341 0 
L 2766 0 
L 2766 531 
Q 2569 213 2275 61 
Q 1981 -91 1556 -91 
Q 1019 -91 701 211 
Q 384 513 384 1019 
Q 384 1609 779 1909 
Q 1175 2209 1959 2209 
L 2766 2209 
L 2766 2266 
Q 2766 2663 2505 2880 
Q 2244 3097 1772 3097 
Q 1472 3097 1187 3025 
Q 903 2953 641 2809 
L 641 3341 
Q 956 3463 1253 3523 
Q 1550 3584 1831 3584 
Q 2591 3584 2966 3190 
Q 3341 2797 3341 1997 
z
" transform="scale(0.015625)"/>
      <path id="DejaVuSans-63" d="M 3122 3366 
L 3122 2828 
Q 2878 2963 2633 3030 
Q 2388 3097 2138 3097 
Q 1578 3097 1268 2742 
Q 959 2388 959 1747 
Q 959 1106 1268 751 
Q 1578 397 2138 397 
Q 2388 397 2633 464 
Q 2878 531 3122 666 
L 3122 134 
Q 2881 22 2623 -34 
Q 2366 -91 2075 -91 
Q 1284 -91 818 406 
Q 353 903 353 1747 
Q 353 2603 823 3093 
Q 1294 3584 2113 3584 
Q 2378 3584 2631 3529 
Q 2884 3475 3122 3366 
z
" transform="scale(0.015625)"/>
      <path id="DejaVuSans-41" d="M 2188 4044 
L 1331 1722 
L 3047 1722 
L 2188 4044 
z
M 1831 4666 
L 2547 4666 
L 4325 0 
L 3669 0 
L 3244 1197 
L 1141 1197 
L 716 0 
L 50 0 
L 1831 4666 
z
" transform="scale(0.015625)"/>
      <path id="DejaVuSans-56" d="M 1831 0 
L 50 4666 
L 709 4666 
L 2188 738 
L 3669 4666 
L 4325 4666 
L 2547 0 
L 1831 0 
z
" transform="scale(0.015625)"/>
      <path id="DejaVuSans-4e" d="M 628 4666 
L 1478 4666 
L 3547 763 
L 3547 4666 
L 4159 4666 
L 4159 0 
L 3309 0 
L 1241 3903 
L 1241 0 
L 628 0 
L 628 4666 
z
" transform="scale(0.015625)"/>
      <path id="DejaVuSans-2d" d="M 313 2009 
L 1997 2009 
L 1997 1497 
L 313 1497 
L 313 2009 
z
" transform="scale(0.015625)"/>
      <path id="DejaVuSans-73" d="M 2834 3397 
L 2834 2853 
Q 2591 2978 2328 3040 
Q 2066 3103 1784 3103 
Q 1356 3103 1142 2972 
Q 928 2841 928 2578 
Q 928 2378 1081 2264 
Q 1234 2150 1697 2047 
L 1894 2003 
Q 2506 1872 2764 1633 
Q 3022 1394 3022 966 
Q 3022 478 2636 193 
Q 2250 -91 1575 -91 
Q 1294 -91 989 -36 
Q 684 19 347 128 
L 347 722 
Q 666 556 975 473 
Q 1284 391 1588 391 
Q 1994 391 2212 530 
Q 2431 669 2431 922 
Q 2431 1156 2273 1281 
Q 2116 1406 1581 1522 
L 1381 1569 
Q 847 1681 609 1914 
Q 372 2147 372 2553 
Q 372 3047 722 3315 
Q 1072 3584 1716 3584 
Q 2034 3584 2315 3537 
Q 2597 3491 2834 3397 
z
" transform="scale(0.015625)"/>
      <path id="DejaVuSans-67" d="M 2906 1791 
Q 2906 2416 2648 2759 
Q 2391 3103 1925 3103 
Q 1463 3103 1205 2759 
Q 947 2416 947 1791 
Q 947 1169 1205 825 
Q 1463 481 1925 481 
Q 2391 481 2648 825 
Q 2906 1169 2906 1791 
z
M 3481 434 
Q 3481 -459 3084 -895 
Q 2688 -1331 1869 -1331 
Q 1566 -1331 1297 -1286 
Q 1028 -1241 775 -1147 
L 775 -588 
Q 1028 -725 1275 -790 
Q 1522 -856 1778 -856 
Q 2344 -856 2625 -561 
Q 2906 -266 2906 331 
L 2906 616 
Q 2728 306 2450 153 
Q 2172 0 1784 0 
Q 1141 0 747 490 
Q 353 981 353 1791 
Q 353 2603 747 3093 
Q 1141 3584 1784 3584 
Q 2172 3584 2450 3431 
Q 2728 3278 2906 2969 
L 2906 3500 
L 3481 3500 
L 3481 434 
z
" transform="scale(0.015625)"/>
      <path id="DejaVuSans-79" d="M 2059 -325 
Q 1816 -950 1584 -1140 
Q 1353 -1331 966 -1331 
L 506 -1331 
L 506 -850 
L 844 -850 
Q 1081 -850 1212 -737 
Q 1344 -625 1503 -206 
L 1606 56 
L 191 3500 
L 800 3500 
L 1894 763 
L 2988 3500 
L 3597 3500 
L 2059 -325 
z
" transform="scale(0.015625)"/>
     </defs>
     <use xlink:href="#DejaVuSans-50"/>
     <use xlink:href="#DejaVuSans-65" x="56.677734"/>
     <use xlink:href="#DejaVuSans-72" x="118.201172"/>
     <use xlink:href="#DejaVuSans-66" x="159.314453"/>
     <use xlink:href="#DejaVuSans-6f" x="194.519531"/>
     <use xlink:href="#DejaVuSans-72" x="255.701172"/>
     <use xlink:href="#DejaVuSans-6d" x="295.064453"/>
     <use xlink:href="#DejaVuSans-61" x="392.476562"/>
     <use xlink:href="#DejaVuSans-6e" x="453.755859"/>
     <use xlink:href="#DejaVuSans-63" x="517.134766"/>
     <use xlink:href="#DejaVuSans-65" x="572.115234"/>
     <use xlink:href="#DejaVuSans-20" x="633.638672"/>
     <use xlink:href="#DejaVuSans-6f" x="665.425781"/>
     <use xlink:href="#DejaVuSans-66" x="726.607422"/>
     <use xlink:href="#DejaVuSans-20" x="761.8125"/>
     <use xlink:href="#DejaVuSans-41" x="793.599609"/>
     <use xlink:href="#DejaVuSans-56" x="855.632812"/>
     <use xlink:href="#DejaVuSans-41" x="917.666016"/>
     <use xlink:href="#DejaVuSans-4e" x="986.074219"/>
     <use xlink:href="#DejaVuSans-2d" x="1060.878906"/>
     <use xlink:href="#DejaVuSans-73" x="1096.962891"/>
     <use xlink:href="#DejaVuSans-74" x="1149.0625"/>
     <use xlink:href="#DejaVuSans-72" x="1188.271484"/>
     <use xlink:href="#DejaVuSans-61" x="1229.384766"/>
     <use xlink:href="#DejaVuSans-74" x="1290.664062"/>
     <use xlink:href="#DejaVuSans-65" x="1329.873047"/>
     <use xlink:href="#DejaVuSans-67" x="1391.396484"/>
     <use xlink:href="#DejaVuSans-79" x="1454.873047"/>
     <use xlink:href="#DejaVuSans-20" x="1514.052734"/>
     <use xlink:href="#DejaVuSans-79" x="1545.839844"/>
     <use xlink:href="#DejaVuSans-65" x="1605.019531"/>
     <use xlink:href="#DejaVuSans-61" x="1666.542969"/>
     <use xlink:href="#DejaVuSans-72" x="1727.822266"/>
     <use xlink:href="#DejaVuSans-20" x="1768.935547"/>
     <use xlink:href="#DejaVuSans-32" x="1800.722656"/>
     <use xlink:href="#DejaVuSans-30" x="1864.345703"/>
     <use xlink:href="#DejaVuSans-31" x="1927.96875"/>
     <use xlink:href="#DejaVuSans-32" x="1991.591797"/>
    </g>
   </g>
   <g id="legend_1">
    <g id="patch_7">
     <path d="M 53.55 78.914375 
L 180.971875 78.914375 
Q 182.971875 78.914375 182.971875 76.914375 
L 182.971875 33.88 
Q 182.971875 31.88 180.971875 31.88 
L 53.55 31.88 
Q 51.55 31.88 51.55 33.88 
L 51.55 76.914375 
Q 51.55 78.914375 53.55 78.914375 
z
" style="fill: #ffffff; opacity: 0.8; stroke: #cccccc; stroke-linejoin: miter"/>
    </g>
    <g id="line2d_18">
     <path d="M 55.55 39.978438 
L 65.55 39.978438 
L 75.55 39.978438 
" style="fill: none; stroke: #008000; stroke-width: 1.5; stroke-linecap: square"/>
    </g>
    <g id="text_10">
     <!-- 13.6% return omx -->
     <g transform="translate(83.55 43.478438)scale(0.1 -0.1)">
      <defs>
       <path id="DejaVuSans-2e" d="M 684 794 
L 1344 794 
L 1344 0 
L 684 0 
L 684 794 
z
" transform="scale(0.015625)"/>
       <path id="DejaVuSans-36" d="M 2113 2584 
Q 1688 2584 1439 2293 
Q 1191 2003 1191 1497 
Q 1191 994 1439 701 
Q 1688 409 2113 409 
Q 2538 409 2786 701 
Q 3034 994 3034 1497 
Q 3034 2003 2786 2293 
Q 2538 2584 2113 2584 
z
M 3366 4563 
L 3366 3988 
Q 3128 4100 2886 4159 
Q 2644 4219 2406 4219 
Q 1781 4219 1451 3797 
Q 1122 3375 1075 2522 
Q 1259 2794 1537 2939 
Q 1816 3084 2150 3084 
Q 2853 3084 3261 2657 
Q 3669 2231 3669 1497 
Q 3669 778 3244 343 
Q 2819 -91 2113 -91 
Q 1303 -91 875 529 
Q 447 1150 447 2328 
Q 447 3434 972 4092 
Q 1497 4750 2381 4750 
Q 2619 4750 2861 4703 
Q 3103 4656 3366 4563 
z
" transform="scale(0.015625)"/>
       <path id="DejaVuSans-78" d="M 3513 3500 
L 2247 1797 
L 3578 0 
L 2900 0 
L 1881 1375 
L 863 0 
L 184 0 
L 1544 1831 
L 300 3500 
L 978 3500 
L 1906 2253 
L 2834 3500 
L 3513 3500 
z
" transform="scale(0.015625)"/>
      </defs>
      <use xlink:href="#DejaVuSans-31"/>
      <use xlink:href="#DejaVuSans-33" x="63.623047"/>
      <use xlink:href="#DejaVuSans-2e" x="127.246094"/>
      <use xlink:href="#DejaVuSans-36" x="159.033203"/>
      <use xlink:href="#DejaVuSans-25" x="222.65625"/>
      <use xlink:href="#DejaVuSans-20" x="317.675781"/>
      <use xlink:href="#DejaVuSans-72" x="349.462891"/>
      <use xlink:href="#DejaVuSans-65" x="388.326172"/>
      <use xlink:href="#DejaVuSans-74" x="449.849609"/>
      <use xlink:href="#DejaVuSans-75" x="489.058594"/>
      <use xlink:href="#DejaVuSans-72" x="552.4375"/>
      <use xlink:href="#DejaVuSans-6e" x="591.800781"/>
      <use xlink:href="#DejaVuSans-20" x="655.179688"/>
      <use xlink:href="#DejaVuSans-6f" x="686.966797"/>
      <use xlink:href="#DejaVuSans-6d" x="748.148438"/>
      <use xlink:href="#DejaVuSans-78" x="845.560547"/>
     </g>
    </g>
    <g id="line2d_19">
     <path d="M 55.55 54.656563 
L 65.55 54.656563 
L 75.55 54.656563 
" style="fill: none; stroke: #0000ff; stroke-width: 1.5; stroke-linecap: square"/>
    </g>
    <g id="text_11">
     <!-- 30.3% return AVAN -->
     <g transform="translate(83.55 58.156563)scale(0.1 -0.1)">
      <use xlink:href="#DejaVuSans-33"/>
      <use xlink:href="#DejaVuSans-30" x="63.623047"/>
      <use xlink:href="#DejaVuSans-2e" x="127.246094"/>
      <use xlink:href="#DejaVuSans-33" x="159.033203"/>
      <use xlink:href="#DejaVuSans-25" x="222.65625"/>
      <use xlink:href="#DejaVuSans-20" x="317.675781"/>
      <use xlink:href="#DejaVuSans-72" x="349.462891"/>
      <use xlink:href="#DejaVuSans-65" x="388.326172"/>
      <use xlink:href="#DejaVuSans-74" x="449.849609"/>
      <use xlink:href="#DejaVuSans-75" x="489.058594"/>
      <use xlink:href="#DejaVuSans-72" x="552.4375"/>
      <use xlink:href="#DejaVuSans-6e" x="591.800781"/>
      <use xlink:href="#DejaVuSans-20" x="655.179688"/>
      <use xlink:href="#DejaVuSans-41" x="686.966797"/>
      <use xlink:href="#DejaVuSans-56" x="749"/>
      <use xlink:href="#DejaVuSans-41" x="811.033203"/>
      <use xlink:href="#DejaVuSans-4e" x="879.441406"/>
     </g>
    </g>
    <g id="line2d_20">
     <path d="M 55.55 69.334688 
L 65.55 69.334688 
L 75.55 69.334688 
" style="fill: none; stroke: #ff0000; stroke-width: 1.5; stroke-linecap: square"/>
    </g>
    <g id="text_12">
     <!-- cummax -->
     <g transform="translate(83.55 72.834688)scale(0.1 -0.1)">
      <use xlink:href="#DejaVuSans-63"/>
      <use xlink:href="#DejaVuSans-75" x="54.980469"/>
      <use xlink:href="#DejaVuSans-6d" x="118.359375"/>
      <use xlink:href="#DejaVuSans-6d" x="215.771484"/>
      <use xlink:href="#DejaVuSans-61" x="313.183594"/>
      <use xlink:href="#DejaVuSans-78" x="374.462891"/>
     </g>
    </g>
   </g>
  </g>
  <g id="axes_2">
   <g id="patch_8">
    <path d="M 46.55 390.04 
L 559.156127 390.04 
L 559.156127 302.955909 
L 46.55 302.955909 
z
" style="fill: #ffffff"/>
   </g>
   <g id="matplotlib.axis_3">
    <g id="xtick_8">
     <g id="line2d_21">
      <g>
       <use xlink:href="#m2c8206b253" x="72.417802" y="390.04" style="stroke: #000000; stroke-width: 0.8"/>
      </g>
     </g>
     <g id="text_13">
      <!-- 2012-01 -->
      <g transform="translate(51.526396 404.638438)scale(0.1 -0.1)">
       <use xlink:href="#DejaVuSans-32"/>
       <use xlink:href="#DejaVuSans-30" x="63.623047"/>
       <use xlink:href="#DejaVuSans-31" x="127.246094"/>
       <use xlink:href="#DejaVuSans-32" x="190.869141"/>
       <use xlink:href="#DejaVuSans-2d" x="254.492188"/>
       <use xlink:href="#DejaVuSans-30" x="290.576172"/>
       <use xlink:href="#DejaVuSans-31" x="354.199219"/>
      </g>
     </g>
    </g>
    <g id="xtick_9">
     <g id="line2d_22">
      <g>
       <use xlink:href="#m2c8206b253" x="149.443516" y="390.04" style="stroke: #000000; stroke-width: 0.8"/>
      </g>
     </g>
     <g id="text_14">
      <!-- 2012-03 -->
      <g transform="translate(128.55211 404.638438)scale(0.1 -0.1)">
       <use xlink:href="#DejaVuSans-32"/>
       <use xlink:href="#DejaVuSans-30" x="63.623047"/>
       <use xlink:href="#DejaVuSans-31" x="127.246094"/>
       <use xlink:href="#DejaVuSans-32" x="190.869141"/>
       <use xlink:href="#DejaVuSans-2d" x="254.492188"/>
       <use xlink:href="#DejaVuSans-30" x="290.576172"/>
       <use xlink:href="#DejaVuSans-33" x="354.199219"/>
      </g>
     </g>
    </g>
    <g id="xtick_10">
     <g id="line2d_23">
      <g>
       <use xlink:href="#m2c8206b253" x="227.752992" y="390.04" style="stroke: #000000; stroke-width: 0.8"/>
      </g>
     </g>
     <g id="text_15">
      <!-- 2012-05 -->
      <g transform="translate(206.861586 404.638438)scale(0.1 -0.1)">
       <use xlink:href="#DejaVuSans-32"/>
       <use xlink:href="#DejaVuSans-30" x="63.623047"/>
       <use xlink:href="#DejaVuSans-31" x="127.246094"/>
       <use xlink:href="#DejaVuSans-32" x="190.869141"/>
       <use xlink:href="#DejaVuSans-2d" x="254.492188"/>
       <use xlink:href="#DejaVuSans-30" x="290.576172"/>
       <use xlink:href="#DejaVuSans-35" x="354.199219"/>
      </g>
     </g>
    </g>
    <g id="xtick_11">
     <g id="line2d_24">
      <g>
       <use xlink:href="#m2c8206b253" x="306.062468" y="390.04" style="stroke: #000000; stroke-width: 0.8"/>
      </g>
     </g>
     <g id="text_16">
      <!-- 2012-07 -->
      <g transform="translate(285.171062 404.638438)scale(0.1 -0.1)">
       <defs>
        <path id="DejaVuSans-37" d="M 525 4666 
L 3525 4666 
L 3525 4397 
L 1831 0 
L 1172 0 
L 2766 4134 
L 525 4134 
L 525 4666 
z
" transform="scale(0.015625)"/>
       </defs>
       <use xlink:href="#DejaVuSans-32"/>
       <use xlink:href="#DejaVuSans-30" x="63.623047"/>
       <use xlink:href="#DejaVuSans-31" x="127.246094"/>
       <use xlink:href="#DejaVuSans-32" x="190.869141"/>
       <use xlink:href="#DejaVuSans-2d" x="254.492188"/>
       <use xlink:href="#DejaVuSans-30" x="290.576172"/>
       <use xlink:href="#DejaVuSans-37" x="354.199219"/>
      </g>
     </g>
    </g>
    <g id="xtick_12">
     <g id="line2d_25">
      <g>
       <use xlink:href="#m2c8206b253" x="385.655706" y="390.04" style="stroke: #000000; stroke-width: 0.8"/>
      </g>
     </g>
     <g id="text_17">
      <!-- 2012-09 -->
      <g transform="translate(364.7643 404.638438)scale(0.1 -0.1)">
       <defs>
        <path id="DejaVuSans-39" d="M 703 97 
L 703 672 
Q 941 559 1184 500 
Q 1428 441 1663 441 
Q 2288 441 2617 861 
Q 2947 1281 2994 2138 
Q 2813 1869 2534 1725 
Q 2256 1581 1919 1581 
Q 1219 1581 811 2004 
Q 403 2428 403 3163 
Q 403 3881 828 4315 
Q 1253 4750 1959 4750 
Q 2769 4750 3195 4129 
Q 3622 3509 3622 2328 
Q 3622 1225 3098 567 
Q 2575 -91 1691 -91 
Q 1453 -91 1209 -44 
Q 966 3 703 97 
z
M 1959 2075 
Q 2384 2075 2632 2365 
Q 2881 2656 2881 3163 
Q 2881 3666 2632 3958 
Q 2384 4250 1959 4250 
Q 1534 4250 1286 3958 
Q 1038 3666 1038 3163 
Q 1038 2656 1286 2365 
Q 1534 2075 1959 2075 
z
" transform="scale(0.015625)"/>
       </defs>
       <use xlink:href="#DejaVuSans-32"/>
       <use xlink:href="#DejaVuSans-30" x="63.623047"/>
       <use xlink:href="#DejaVuSans-31" x="127.246094"/>
       <use xlink:href="#DejaVuSans-32" x="190.869141"/>
       <use xlink:href="#DejaVuSans-2d" x="254.492188"/>
       <use xlink:href="#DejaVuSans-30" x="290.576172"/>
       <use xlink:href="#DejaVuSans-39" x="354.199219"/>
      </g>
     </g>
    </g>
    <g id="xtick_13">
     <g id="line2d_26">
      <g>
       <use xlink:href="#m2c8206b253" x="463.965182" y="390.04" style="stroke: #000000; stroke-width: 0.8"/>
      </g>
     </g>
     <g id="text_18">
      <!-- 2012-11 -->
      <g transform="translate(443.073776 404.638438)scale(0.1 -0.1)">
       <use xlink:href="#DejaVuSans-32"/>
       <use xlink:href="#DejaVuSans-30" x="63.623047"/>
       <use xlink:href="#DejaVuSans-31" x="127.246094"/>
       <use xlink:href="#DejaVuSans-32" x="190.869141"/>
       <use xlink:href="#DejaVuSans-2d" x="254.492188"/>
       <use xlink:href="#DejaVuSans-31" x="290.576172"/>
       <use xlink:href="#DejaVuSans-31" x="354.199219"/>
      </g>
     </g>
    </g>
    <g id="xtick_14">
     <g id="line2d_27">
      <g>
       <use xlink:href="#m2c8206b253" x="542.274658" y="390.04" style="stroke: #000000; stroke-width: 0.8"/>
      </g>
     </g>
     <g id="text_19">
      <!-- 2013-01 -->
      <g transform="translate(521.383252 404.638438)scale(0.1 -0.1)">
       <use xlink:href="#DejaVuSans-32"/>
       <use xlink:href="#DejaVuSans-30" x="63.623047"/>
       <use xlink:href="#DejaVuSans-31" x="127.246094"/>
       <use xlink:href="#DejaVuSans-33" x="190.869141"/>
       <use xlink:href="#DejaVuSans-2d" x="254.492188"/>
       <use xlink:href="#DejaVuSans-30" x="290.576172"/>
       <use xlink:href="#DejaVuSans-31" x="354.199219"/>
      </g>
     </g>
    </g>
    <g id="text_20">
     <!-- Time -->
     <g transform="translate(290.61947 418.316562)scale(0.1 -0.1)">
      <defs>
       <path id="DejaVuSans-54" d="M -19 4666 
L 3928 4666 
L 3928 4134 
L 2272 4134 
L 2272 0 
L 1638 0 
L 1638 4134 
L -19 4134 
L -19 4666 
z
" transform="scale(0.015625)"/>
       <path id="DejaVuSans-69" d="M 603 3500 
L 1178 3500 
L 1178 0 
L 603 0 
L 603 3500 
z
M 603 4863 
L 1178 4863 
L 1178 4134 
L 603 4134 
L 603 4863 
z
" transform="scale(0.015625)"/>
      </defs>
      <use xlink:href="#DejaVuSans-54"/>
      <use xlink:href="#DejaVuSans-69" x="57.958984"/>
      <use xlink:href="#DejaVuSans-6d" x="85.742188"/>
      <use xlink:href="#DejaVuSans-65" x="183.154297"/>
     </g>
    </g>
   </g>
   <g id="matplotlib.axis_4">
    <g id="ytick_8">
     <g id="line2d_28">
      <g>
       <use xlink:href="#me6386809be" x="46.55" y="388.476831" style="stroke: #000000; stroke-width: 0.8"/>
      </g>
     </g>
     <g id="text_21">
      <!-- −7.5 -->
      <g transform="translate(15.267188 392.27605)scale(0.1 -0.1)">
       <defs>
        <path id="DejaVuSans-2212" d="M 678 2272 
L 4684 2272 
L 4684 1741 
L 678 1741 
L 678 2272 
z
" transform="scale(0.015625)"/>
       </defs>
       <use xlink:href="#DejaVuSans-2212"/>
       <use xlink:href="#DejaVuSans-37" x="83.789062"/>
       <use xlink:href="#DejaVuSans-2e" x="147.412109"/>
       <use xlink:href="#DejaVuSans-35" x="179.199219"/>
      </g>
     </g>
    </g>
    <g id="ytick_9">
     <g id="line2d_29">
      <g>
       <use xlink:href="#me6386809be" x="46.55" y="361.289313" style="stroke: #000000; stroke-width: 0.8"/>
      </g>
     </g>
     <g id="text_22">
      <!-- −5.0 -->
      <g transform="translate(15.267188 365.088532)scale(0.1 -0.1)">
       <use xlink:href="#DejaVuSans-2212"/>
       <use xlink:href="#DejaVuSans-35" x="83.789062"/>
       <use xlink:href="#DejaVuSans-2e" x="147.412109"/>
       <use xlink:href="#DejaVuSans-30" x="179.199219"/>
      </g>
     </g>
    </g>
    <g id="ytick_10">
     <g id="line2d_30">
      <g>
       <use xlink:href="#me6386809be" x="46.55" y="334.101795" style="stroke: #000000; stroke-width: 0.8"/>
      </g>
     </g>
     <g id="text_23">
      <!-- −2.5 -->
      <g transform="translate(15.267188 337.901014)scale(0.1 -0.1)">
       <use xlink:href="#DejaVuSans-2212"/>
       <use xlink:href="#DejaVuSans-32" x="83.789062"/>
       <use xlink:href="#DejaVuSans-2e" x="147.412109"/>
       <use xlink:href="#DejaVuSans-35" x="179.199219"/>
      </g>
     </g>
    </g>
    <g id="ytick_11">
     <g id="line2d_31">
      <g>
       <use xlink:href="#me6386809be" x="46.55" y="306.914277" style="stroke: #000000; stroke-width: 0.8"/>
      </g>
     </g>
     <g id="text_24">
      <!-- 0.0 -->
      <g transform="translate(23.646875 310.713496)scale(0.1 -0.1)">
       <use xlink:href="#DejaVuSans-30"/>
       <use xlink:href="#DejaVuSans-2e" x="63.623047"/>
       <use xlink:href="#DejaVuSans-30" x="95.410156"/>
      </g>
     </g>
    </g>
    <g id="text_25">
     <!-- DD % -->
     <g transform="translate(9.1875 360.537798)rotate(-90)scale(0.1 -0.1)">
      <defs>
       <path id="DejaVuSans-44" d="M 1259 4147 
L 1259 519 
L 2022 519 
Q 2988 519 3436 956 
Q 3884 1394 3884 2338 
Q 3884 3275 3436 3711 
Q 2988 4147 2022 4147 
L 1259 4147 
z
M 628 4666 
L 1925 4666 
Q 3281 4666 3915 4102 
Q 4550 3538 4550 2338 
Q 4550 1131 3912 565 
Q 3275 0 1925 0 
L 628 0 
L 628 4666 
z
" transform="scale(0.015625)"/>
      </defs>
      <use xlink:href="#DejaVuSans-44"/>
      <use xlink:href="#DejaVuSans-44" x="77.001953"/>
      <use xlink:href="#DejaVuSans-20" x="154.003906"/>
      <use xlink:href="#DejaVuSans-25" x="185.791016"/>
     </g>
    </g>
   </g>
   <g id="line2d_32">
    <path d="M 69.850278 306.914277 
L 76.269088 306.914277 
L 77.55285 310.585761 
L 82.687898 312.190138 
L 83.971659 310.366765 
L 85.255421 306.914277 
L 87.822945 306.914277 
L 91.674231 314.733808 
L 92.957993 306.914277 
L 100.660564 306.914277 
L 101.944326 311.478356 
L 103.228088 309.569546 
L 104.51185 311.590713 
L 105.795612 306.914277 
L 109.646897 310.660329 
L 110.930659 313.410201 
L 112.214421 306.914277 
L 119.916993 306.914277 
L 121.200755 318.697618 
L 122.484516 306.914277 
L 128.903326 306.914277 
L 130.187088 308.656393 
L 131.47085 306.914277 
L 137.889659 306.914277 
L 139.173421 308.086564 
L 140.457183 309.797115 
L 141.740945 315.735543 
L 145.592231 306.914277 
L 146.875993 306.914277 
L 148.159754 312.898049 
L 149.443516 315.262042 
L 150.727278 308.773493 
L 154.578564 310.915439 
L 155.862326 321.23636 
L 157.146088 369.996819 
L 158.42985 362.273726 
L 159.713612 342.785024 
L 163.564897 339.171387 
L 164.848659 336.00314 
L 166.132421 329.887841 
L 167.416183 322.176659 
L 172.551231 330.853066 
L 173.834992 333.787996 
L 175.118754 343.647162 
L 176.402516 346.591161 
L 177.686278 370.479401 
L 181.537564 366.432296 
L 182.821326 341.656035 
L 184.105088 349.564599 
L 185.38885 354.649699 
L 186.672611 360.336767 
L 190.523897 347.328775 
L 191.807659 343.550279 
L 193.091421 355.095766 
L 194.375183 373.395912 
L 200.793992 368.595865 
L 202.077754 368.595865 
L 203.361516 359.465907 
L 204.645278 349.010347 
L 209.780326 349.010347 
L 211.064088 333.032774 
L 212.347849 334.881456 
L 221.334183 334.881456 
L 222.617945 339.763577 
L 226.46923 332.236154 
L 229.036754 326.090475 
L 230.320516 326.50598 
L 231.604278 332.848515 
L 272.684659 332.848515 
L 275.252183 338.906745 
L 280.38723 338.906745 
L 281.670992 348.971017 
L 291.941087 348.971017 
L 293.224849 334.648822 
L 298.359897 328.263215 
L 299.643659 350.728312 
L 300.927421 350.728312 
L 302.211183 347.641938 
L 303.494944 347.641938 
L 307.34623 339.119111 
L 308.629992 344.580105 
L 309.913754 338.250662 
L 311.197516 336.22917 
L 312.481278 337.638681 
L 316.332563 335.874441 
L 317.616325 328.390131 
L 318.900087 339.605512 
L 320.183849 343.030565 
L 321.467611 348.667867 
L 325.318897 340.047182 
L 326.602659 326.350971 
L 327.886421 334.924843 
L 329.170182 326.209582 
L 330.453944 316.036622 
L 334.30523 309.419691 
L 335.588992 317.273959 
L 336.872754 327.127931 
L 338.156516 320.22692 
L 339.440278 310.538264 
L 343.291563 310.106359 
L 344.575325 312.982306 
L 345.859087 316.575981 
L 347.142849 312.856859 
L 348.426611 315.480688 
L 352.277897 309.675622 
L 353.561659 311.020408 
L 354.84542 310.453637 
L 356.129182 311.186232 
L 357.412944 314.403541 
L 361.26423 322.743978 
L 362.547992 322.055919 
L 363.831754 319.125941 
L 365.115516 309.707271 
L 366.399278 307.323797 
L 370.250563 309.971736 
L 371.534325 306.914277 
L 372.818087 310.169234 
L 379.236897 310.169234 
L 380.520658 318.458755 
L 381.80442 318.458755 
L 383.088182 310.234495 
L 384.371944 310.234495 
L 388.22323 308.317321 
L 389.506992 306.914277 
L 399.777087 306.914277 
L 401.060849 312.934049 
L 402.344611 310.573267 
L 406.195896 309.948361 
L 407.479658 323.555976 
L 408.76342 346.214611 
L 410.047182 332.484018 
L 411.330944 323.806792 
L 415.18223 333.377821 
L 416.465992 330.969415 
L 419.033516 330.994541 
L 420.317277 306.914277 
L 424.168563 310.17874 
L 425.452325 309.672727 
L 426.736087 309.672727 
L 428.019849 306.914277 
L 429.303611 316.284488 
L 433.154896 316.293228 
L 434.438658 321.414432 
L 435.72242 325.673543 
L 437.006182 343.607706 
L 438.289944 358.457837 
L 442.14123 360.342255 
L 443.424992 371.452082 
L 445.992515 371.452082 
L 447.276277 377.824466 
L 472.951515 377.824466 
L 474.235277 380.709686 
L 478.086563 386.081632 
L 499.910515 386.081632 
L 501.194277 370.623156 
L 505.045563 361.764491 
L 506.329325 355.743992 
L 507.613087 348.919676 
L 510.18061 349.759258 
L 514.031896 345.480896 
L 515.315658 349.183655 
L 516.59942 338.92041 
L 517.883182 334.240832 
L 519.166944 331.273045 
L 523.018229 323.45967 
L 524.301991 324.153369 
L 525.585753 312.163588 
L 526.869515 306.914277 
L 528.153277 306.914277 
L 535.855848 320.065247 
L 535.855848 320.065247 
" clip-path="url(#p2ba19f40f8)" style="fill: none; stroke: #0000ff; stroke-width: 1.5; stroke-linecap: square"/>
   </g>
   <g id="patch_9">
    <path d="M 46.55 390.04 
L 46.55 302.955909 
" style="fill: none; stroke: #000000; stroke-width: 0.8; stroke-linejoin: miter; stroke-linecap: square"/>
   </g>
   <g id="patch_10">
    <path d="M 559.156127 390.04 
L 559.156127 302.955909 
" style="fill: none; stroke: #000000; stroke-width: 0.8; stroke-linejoin: miter; stroke-linecap: square"/>
   </g>
   <g id="patch_11">
    <path d="M 46.55 390.04 
L 559.156127 390.04 
" style="fill: none; stroke: #000000; stroke-width: 0.8; stroke-linejoin: miter; stroke-linecap: square"/>
   </g>
   <g id="patch_12">
    <path d="M 46.55 302.955909 
L 559.156127 302.955909 
" style="fill: none; stroke: #000000; stroke-width: 0.8; stroke-linejoin: miter; stroke-linecap: square"/>
   </g>
  </g>
 </g>
 <defs>
  <clipPath id="p6c8f8c5cd8">
   <rect x="46.55" y="26.88" width="512.606127" height="261.252273"/>
  </clipPath>
  <clipPath id="p2ba19f40f8">
   <rect x="46.55" y="302.955909" width="512.606127" height="87.084091"/>
  </clipPath>
 </defs>
</svg>
