<?xml version="1.0" encoding="utf-8" standalone="no"?>
<!DOCTYPE svg PUBLIC "-//W3C//DTD SVG 1.1//EN"
  "http://www.w3.org/Graphics/SVG/1.1/DTD/svg11.dtd">
<svg xmlns:xlink="http://www.w3.org/1999/xlink" width="576pt" height="432pt" viewBox="0 0 576 432" xmlns="http://www.w3.org/2000/svg" version="1.1">
 <metadata>
  <rdf:RDF xmlns:dc="http://purl.org/dc/elements/1.1/" xmlns:cc="http://creativecommons.org/ns#" xmlns:rdf="http://www.w3.org/1999/02/22-rdf-syntax-ns#">
   <cc:Work>
    <dc:type rdf:resource="http://purl.org/dc/dcmitype/StillImage"/>
    <dc:date>2023-01-15T23:56:31.473446</dc:date>
    <dc:format>image/svg+xml</dc:format>
    <dc:creator>
     <cc:Agent>
      <dc:title>Matplotlib v3.5.0, https://matplotlib.org/</dc:title>
     </cc:Agent>
    </dc:creator>
   </cc:Work>
  </rdf:RDF>
 </metadata>
 <defs>
  <style type="text/css">*{stroke-linejoin: round; stroke-linecap: butt}</style>
 </defs>
 <g id="figure_1">
  <g id="patch_1">
   <path d="M 0 432 
L 576 432 
L 576 0 
L 0 0 
z
" style="fill: #ffffff"/>
  </g>
  <g id="axes_1">
   <g id="patch_2">
    <path d="M 46.55 288.108274 
L 554.645455 288.108274 
L 554.645455 26.88 
L 46.55 26.88 
z
" style="fill: #ffffff"/>
   </g>
   <g id="matplotlib.axis_1">
    <g id="xtick_1">
     <g id="line2d_1">
      <defs>
       <path id="me876b7a196" d="M 0 0 
L 0 3.5 
" style="stroke: #000000; stroke-width: 0.8"/>
      </defs>
      <g>
       <use xlink:href="#me876b7a196" x="74.777525" y="288.108274" style="stroke: #000000; stroke-width: 0.8"/>
      </g>
     </g>
    </g>
    <g id="xtick_2">
     <g id="line2d_2">
      <g>
       <use xlink:href="#me876b7a196" x="150.478616" y="288.108274" style="stroke: #000000; stroke-width: 0.8"/>
      </g>
     </g>
    </g>
    <g id="xtick_3">
     <g id="line2d_3">
      <g>
       <use xlink:href="#me876b7a196" x="228.745845" y="288.108274" style="stroke: #000000; stroke-width: 0.8"/>
      </g>
     </g>
    </g>
    <g id="xtick_4">
     <g id="line2d_4">
      <g>
       <use xlink:href="#me876b7a196" x="307.013074" y="288.108274" style="stroke: #000000; stroke-width: 0.8"/>
      </g>
     </g>
    </g>
    <g id="xtick_5">
     <g id="line2d_5">
      <g>
       <use xlink:href="#me876b7a196" x="386.563372" y="288.108274" style="stroke: #000000; stroke-width: 0.8"/>
      </g>
     </g>
    </g>
    <g id="xtick_6">
     <g id="line2d_6">
      <g>
       <use xlink:href="#me876b7a196" x="464.830601" y="288.108274" style="stroke: #000000; stroke-width: 0.8"/>
      </g>
     </g>
    </g>
    <g id="xtick_7">
     <g id="line2d_7">
      <g>
       <use xlink:href="#me876b7a196" x="543.097831" y="288.108274" style="stroke: #000000; stroke-width: 0.8"/>
      </g>
     </g>
    </g>
   </g>
   <g id="matplotlib.axis_2">
    <g id="ytick_1">
     <g id="line2d_8">
      <defs>
       <path id="mdb2de660e2" d="M 0 0 
L -3.5 0 
" style="stroke: #000000; stroke-width: 0.8"/>
      </defs>
      <g>
       <use xlink:href="#mdb2de660e2" x="46.55" y="285.127413" style="stroke: #000000; stroke-width: 0.8"/>
      </g>
     </g>
     <g id="text_1">
      <!-- −5 -->
      <g transform="translate(24.807813 288.926632)scale(0.1 -0.1)">
       <defs>
        <path id="DejaVuSans-2212" d="M 678 2272 
L 4684 2272 
L 4684 1741 
L 678 1741 
L 678 2272 
z
" transform="scale(0.015625)"/>
        <path id="DejaVuSans-35" d="M 691 4666 
L 3169 4666 
L 3169 4134 
L 1269 4134 
L 1269 2991 
Q 1406 3038 1543 3061 
Q 1681 3084 1819 3084 
Q 2600 3084 3056 2656 
Q 3513 2228 3513 1497 
Q 3513 744 3044 326 
Q 2575 -91 1722 -91 
Q 1428 -91 1123 -41 
Q 819 9 494 109 
L 494 744 
Q 775 591 1075 516 
Q 1375 441 1709 441 
Q 2250 441 2565 725 
Q 2881 1009 2881 1497 
Q 2881 1984 2565 2268 
Q 2250 2553 1709 2553 
Q 1456 2553 1204 2497 
Q 953 2441 691 2322 
L 691 4666 
z
" transform="scale(0.015625)"/>
       </defs>
       <use xlink:href="#DejaVuSans-2212"/>
       <use xlink:href="#DejaVuSans-35" x="83.789062"/>
      </g>
     </g>
    </g>
    <g id="ytick_2">
     <g id="line2d_9">
      <g>
       <use xlink:href="#mdb2de660e2" x="46.55" y="249.615317" style="stroke: #000000; stroke-width: 0.8"/>
      </g>
     </g>
     <g id="text_2">
      <!-- 0 -->
      <g transform="translate(33.1875 253.414536)scale(0.1 -0.1)">
       <defs>
        <path id="DejaVuSans-30" d="M 2034 4250 
Q 1547 4250 1301 3770 
Q 1056 3291 1056 2328 
Q 1056 1369 1301 889 
Q 1547 409 2034 409 
Q 2525 409 2770 889 
Q 3016 1369 3016 2328 
Q 3016 3291 2770 3770 
Q 2525 4250 2034 4250 
z
M 2034 4750 
Q 2819 4750 3233 4129 
Q 3647 3509 3647 2328 
Q 3647 1150 3233 529 
Q 2819 -91 2034 -91 
Q 1250 -91 836 529 
Q 422 1150 422 2328 
Q 422 3509 836 4129 
Q 1250 4750 2034 4750 
z
" transform="scale(0.015625)"/>
       </defs>
       <use xlink:href="#DejaVuSans-30"/>
      </g>
     </g>
    </g>
    <g id="ytick_3">
     <g id="line2d_10">
      <g>
       <use xlink:href="#mdb2de660e2" x="46.55" y="214.10322" style="stroke: #000000; stroke-width: 0.8"/>
      </g>
     </g>
     <g id="text_3">
      <!-- 5 -->
      <g transform="translate(33.1875 217.902439)scale(0.1 -0.1)">
       <use xlink:href="#DejaVuSans-35"/>
      </g>
     </g>
    </g>
    <g id="ytick_4">
     <g id="line2d_11">
      <g>
       <use xlink:href="#mdb2de660e2" x="46.55" y="178.591124" style="stroke: #000000; stroke-width: 0.8"/>
      </g>
     </g>
     <g id="text_4">
      <!-- 10 -->
      <g transform="translate(26.825 182.390343)scale(0.1 -0.1)">
       <defs>
        <path id="DejaVuSans-31" d="M 794 531 
L 1825 531 
L 1825 4091 
L 703 3866 
L 703 4441 
L 1819 4666 
L 2450 4666 
L 2450 531 
L 3481 531 
L 3481 0 
L 794 0 
L 794 531 
z
" transform="scale(0.015625)"/>
       </defs>
       <use xlink:href="#DejaVuSans-31"/>
       <use xlink:href="#DejaVuSans-30" x="63.623047"/>
      </g>
     </g>
    </g>
    <g id="ytick_5">
     <g id="line2d_12">
      <g>
       <use xlink:href="#mdb2de660e2" x="46.55" y="143.079027" style="stroke: #000000; stroke-width: 0.8"/>
      </g>
     </g>
     <g id="text_5">
      <!-- 15 -->
      <g transform="translate(26.825 146.878246)scale(0.1 -0.1)">
       <use xlink:href="#DejaVuSans-31"/>
       <use xlink:href="#DejaVuSans-35" x="63.623047"/>
      </g>
     </g>
    </g>
    <g id="ytick_6">
     <g id="line2d_13">
      <g>
       <use xlink:href="#mdb2de660e2" x="46.55" y="107.566931" style="stroke: #000000; stroke-width: 0.8"/>
      </g>
     </g>
     <g id="text_6">
      <!-- 20 -->
      <g transform="translate(26.825 111.36615)scale(0.1 -0.1)">
       <defs>
        <path id="DejaVuSans-32" d="M 1228 531 
L 3431 531 
L 3431 0 
L 469 0 
L 469 531 
Q 828 903 1448 1529 
Q 2069 2156 2228 2338 
Q 2531 2678 2651 2914 
Q 2772 3150 2772 3378 
Q 2772 3750 2511 3984 
Q 2250 4219 1831 4219 
Q 1534 4219 1204 4116 
Q 875 4013 500 3803 
L 500 4441 
Q 881 4594 1212 4672 
Q 1544 4750 1819 4750 
Q 2544 4750 2975 4387 
Q 3406 4025 3406 3419 
Q 3406 3131 3298 2873 
Q 3191 2616 2906 2266 
Q 2828 2175 2409 1742 
Q 1991 1309 1228 531 
z
" transform="scale(0.015625)"/>
       </defs>
       <use xlink:href="#DejaVuSans-32"/>
       <use xlink:href="#DejaVuSans-30" x="63.623047"/>
      </g>
     </g>
    </g>
    <g id="ytick_7">
     <g id="line2d_14">
      <g>
       <use xlink:href="#mdb2de660e2" x="46.55" y="72.054834" style="stroke: #000000; stroke-width: 0.8"/>
      </g>
     </g>
     <g id="text_7">
      <!-- 25 -->
      <g transform="translate(26.825 75.854053)scale(0.1 -0.1)">
       <use xlink:href="#DejaVuSans-32"/>
       <use xlink:href="#DejaVuSans-35" x="63.623047"/>
      </g>
     </g>
    </g>
    <g id="ytick_8">
     <g id="line2d_15">
      <g>
       <use xlink:href="#mdb2de660e2" x="46.55" y="36.542738" style="stroke: #000000; stroke-width: 0.8"/>
      </g>
     </g>
     <g id="text_8">
      <!-- 30 -->
      <g transform="translate(26.825 40.341957)scale(0.1 -0.1)">
       <defs>
        <path id="DejaVuSans-33" d="M 2597 2516 
Q 3050 2419 3304 2112 
Q 3559 1806 3559 1356 
Q 3559 666 3084 287 
Q 2609 -91 1734 -91 
Q 1441 -91 1130 -33 
Q 819 25 488 141 
L 488 750 
Q 750 597 1062 519 
Q 1375 441 1716 441 
Q 2309 441 2620 675 
Q 2931 909 2931 1356 
Q 2931 1769 2642 2001 
Q 2353 2234 1838 2234 
L 1294 2234 
L 1294 2753 
L 1863 2753 
Q 2328 2753 2575 2939 
Q 2822 3125 2822 3475 
Q 2822 3834 2567 4026 
Q 2313 4219 1838 4219 
Q 1578 4219 1281 4162 
Q 984 4106 628 3988 
L 628 4550 
Q 988 4650 1302 4700 
Q 1616 4750 1894 4750 
Q 2613 4750 3031 4423 
Q 3450 4097 3450 3541 
Q 3450 3153 3228 2886 
Q 3006 2619 2597 2516 
z
" transform="scale(0.015625)"/>
       </defs>
       <use xlink:href="#DejaVuSans-33"/>
       <use xlink:href="#DejaVuSans-30" x="63.623047"/>
      </g>
     </g>
    </g>
    <g id="text_9">
     <!-- Return [%] -->
     <g transform="translate(18.728125 184.326949)rotate(-90)scale(0.1 -0.1)">
      <defs>
       <path id="DejaVuSans-52" d="M 2841 2188 
Q 3044 2119 3236 1894 
Q 3428 1669 3622 1275 
L 4263 0 
L 3584 0 
L 2988 1197 
Q 2756 1666 2539 1819 
Q 2322 1972 1947 1972 
L 1259 1972 
L 1259 0 
L 628 0 
L 628 4666 
L 2053 4666 
Q 2853 4666 3247 4331 
Q 3641 3997 3641 3322 
Q 3641 2881 3436 2590 
Q 3231 2300 2841 2188 
z
M 1259 4147 
L 1259 2491 
L 2053 2491 
Q 2509 2491 2742 2702 
Q 2975 2913 2975 3322 
Q 2975 3731 2742 3939 
Q 2509 4147 2053 4147 
L 1259 4147 
z
" transform="scale(0.015625)"/>
       <path id="DejaVuSans-65" d="M 3597 1894 
L 3597 1613 
L 953 1613 
Q 991 1019 1311 708 
Q 1631 397 2203 397 
Q 2534 397 2845 478 
Q 3156 559 3463 722 
L 3463 178 
Q 3153 47 2828 -22 
Q 2503 -91 2169 -91 
Q 1331 -91 842 396 
Q 353 884 353 1716 
Q 353 2575 817 3079 
Q 1281 3584 2069 3584 
Q 2775 3584 3186 3129 
Q 3597 2675 3597 1894 
z
M 3022 2063 
Q 3016 2534 2758 2815 
Q 2500 3097 2075 3097 
Q 1594 3097 1305 2825 
Q 1016 2553 972 2059 
L 3022 2063 
z
" transform="scale(0.015625)"/>
       <path id="DejaVuSans-74" d="M 1172 4494 
L 1172 3500 
L 2356 3500 
L 2356 3053 
L 1172 3053 
L 1172 1153 
Q 1172 725 1289 603 
Q 1406 481 1766 481 
L 2356 481 
L 2356 0 
L 1766 0 
Q 1100 0 847 248 
Q 594 497 594 1153 
L 594 3053 
L 172 3053 
L 172 3500 
L 594 3500 
L 594 4494 
L 1172 4494 
z
" transform="scale(0.015625)"/>
       <path id="DejaVuSans-75" d="M 544 1381 
L 544 3500 
L 1119 3500 
L 1119 1403 
Q 1119 906 1312 657 
Q 1506 409 1894 409 
Q 2359 409 2629 706 
Q 2900 1003 2900 1516 
L 2900 3500 
L 3475 3500 
L 3475 0 
L 2900 0 
L 2900 538 
Q 2691 219 2414 64 
Q 2138 -91 1772 -91 
Q 1169 -91 856 284 
Q 544 659 544 1381 
z
M 1991 3584 
L 1991 3584 
z
" transform="scale(0.015625)"/>
       <path id="DejaVuSans-72" d="M 2631 2963 
Q 2534 3019 2420 3045 
Q 2306 3072 2169 3072 
Q 1681 3072 1420 2755 
Q 1159 2438 1159 1844 
L 1159 0 
L 581 0 
L 581 3500 
L 1159 3500 
L 1159 2956 
Q 1341 3275 1631 3429 
Q 1922 3584 2338 3584 
Q 2397 3584 2469 3576 
Q 2541 3569 2628 3553 
L 2631 2963 
z
" transform="scale(0.015625)"/>
       <path id="DejaVuSans-6e" d="M 3513 2113 
L 3513 0 
L 2938 0 
L 2938 2094 
Q 2938 2591 2744 2837 
Q 2550 3084 2163 3084 
Q 1697 3084 1428 2787 
Q 1159 2491 1159 1978 
L 1159 0 
L 581 0 
L 581 3500 
L 1159 3500 
L 1159 2956 
Q 1366 3272 1645 3428 
Q 1925 3584 2291 3584 
Q 2894 3584 3203 3211 
Q 3513 2838 3513 2113 
z
" transform="scale(0.015625)"/>
       <path id="DejaVuSans-20" transform="scale(0.015625)"/>
       <path id="DejaVuSans-5b" d="M 550 4863 
L 1875 4863 
L 1875 4416 
L 1125 4416 
L 1125 -397 
L 1875 -397 
L 1875 -844 
L 550 -844 
L 550 4863 
z
" transform="scale(0.015625)"/>
       <path id="DejaVuSans-25" d="M 4653 2053 
Q 4381 2053 4226 1822 
Q 4072 1591 4072 1178 
Q 4072 772 4226 539 
Q 4381 306 4653 306 
Q 4919 306 5073 539 
Q 5228 772 5228 1178 
Q 5228 1588 5073 1820 
Q 4919 2053 4653 2053 
z
M 4653 2450 
Q 5147 2450 5437 2106 
Q 5728 1763 5728 1178 
Q 5728 594 5436 251 
Q 5144 -91 4653 -91 
Q 4153 -91 3862 251 
Q 3572 594 3572 1178 
Q 3572 1766 3864 2108 
Q 4156 2450 4653 2450 
z
M 1428 4353 
Q 1159 4353 1004 4120 
Q 850 3888 850 3481 
Q 850 3069 1003 2837 
Q 1156 2606 1428 2606 
Q 1700 2606 1854 2837 
Q 2009 3069 2009 3481 
Q 2009 3884 1853 4118 
Q 1697 4353 1428 4353 
z
M 4250 4750 
L 4750 4750 
L 1831 -91 
L 1331 -91 
L 4250 4750 
z
M 1428 4750 
Q 1922 4750 2215 4408 
Q 2509 4066 2509 3481 
Q 2509 2891 2217 2550 
Q 1925 2209 1428 2209 
Q 931 2209 642 2551 
Q 353 2894 353 3481 
Q 353 4063 643 4406 
Q 934 4750 1428 4750 
z
" transform="scale(0.015625)"/>
       <path id="DejaVuSans-5d" d="M 1947 4863 
L 1947 -844 
L 622 -844 
L 622 -397 
L 1369 -397 
L 1369 4416 
L 622 4416 
L 622 4863 
L 1947 4863 
z
" transform="scale(0.015625)"/>
      </defs>
      <use xlink:href="#DejaVuSans-52"/>
      <use xlink:href="#DejaVuSans-65" x="64.982422"/>
      <use xlink:href="#DejaVuSans-74" x="126.505859"/>
      <use xlink:href="#DejaVuSans-75" x="165.714844"/>
      <use xlink:href="#DejaVuSans-72" x="229.09375"/>
      <use xlink:href="#DejaVuSans-6e" x="268.457031"/>
      <use xlink:href="#DejaVuSans-20" x="331.835938"/>
      <use xlink:href="#DejaVuSans-5b" x="363.623047"/>
      <use xlink:href="#DejaVuSans-25" x="402.636719"/>
      <use xlink:href="#DejaVuSans-5d" x="497.65625"/>
     </g>
    </g>
   </g>
   <g id="line2d_16">
    <path d="M 69.645248 237.22986 
L 76.060595 238.709242 
L 77.343664 245.035596 
L 78.626733 223.60868 
L 82.475941 221.23059 
L 83.759011 212.23068 
L 85.04208 205.541661 
L 86.325149 205.452406 
L 87.608219 208.146634 
L 92.740496 213.253884 
L 94.023565 206.392665 
L 95.306635 203.806364 
L 96.589704 190.524969 
L 100.438912 193.616947 
L 103.005051 201.331837 
L 104.28812 196.363856 
L 105.571189 189.840063 
L 109.420397 195.025847 
L 110.703466 189.020196 
L 111.986536 185.544061 
L 113.269605 182.503379 
L 114.552674 177.234648 
L 118.401882 176.46931 
L 119.684952 168.618177 
L 120.968021 164.176802 
L 122.25109 175.397938 
L 123.53416 176.479261 
L 127.383368 168.702969 
L 128.666437 165.069201 
L 129.949506 160.366113 
L 131.232576 158.424656 
L 132.515645 147.417836 
L 136.364853 147.399574 
L 137.647922 145.673766 
L 138.930992 144.962545 
L 140.214061 153.14895 
L 141.49713 144.849488 
L 145.346338 146.016066 
L 146.629408 147.349355 
L 147.912477 151.149477 
L 149.195546 153.130688 
L 150.478616 149.267729 
L 154.327824 145.382917 
L 155.610893 145.289148 
L 156.893962 153.159363 
L 158.177032 160.195759 
L 159.460101 160.339285 
L 163.309309 154.545898 
L 164.592378 156.786206 
L 165.875448 153.072775 
L 167.158517 143.857523 
L 168.441586 141.29446 
L 172.290794 136.547309 
L 173.573864 131.353676 
L 174.856933 136.046299 
L 176.140002 136.540589 
L 177.423072 150.98379 
L 181.27228 152.629114 
L 182.555349 152.373249 
L 183.838418 156.636729 
L 185.121488 159.988471 
L 186.404557 163.012995 
L 190.253765 149.21079 
L 191.536834 142.220663 
L 192.819904 127.639424 
L 194.102973 130.785981 
L 195.386042 127.696978 
L 199.23525 126.54225 
L 200.51832 130.62645 
L 201.801389 124.475785 
L 203.084458 125.254665 
L 204.367528 117.979999 
L 208.216736 117.251952 
L 209.499805 114.741416 
L 210.782874 108.268867 
L 212.065944 102.829885 
L 218.48129 102.093375 
L 221.047429 93.251559 
L 222.330498 93.446074 
L 226.179706 91.254703 
L 227.462775 100.060919 
L 230.028914 105.546016 
L 231.311983 102.016123 
L 235.161191 113.870818 
L 236.444261 129.963191 
L 237.72733 127.12954 
L 239.010399 140.814533 
L 240.293469 137.39231 
L 244.142677 152.536422 
L 245.425746 143.826797 
L 246.708815 142.545214 
L 247.991885 131.231078 
L 249.274954 135.601459 
L 253.124162 144.813325 
L 254.407231 137.626067 
L 255.690301 141.354887 
L 256.97337 159.038877 
L 258.256439 153.730238 
L 262.105647 155.414342 
L 263.388717 157.013397 
L 264.671786 170.538141 
L 267.237925 185.04854 
L 271.087133 181.062265 
L 272.370202 171.278036 
L 273.653271 168.868913 
L 276.21941 156.489817 
L 280.068618 152.207614 
L 281.351687 142.523413 
L 282.634757 142.402559 
L 283.917826 140.084589 
L 285.200895 144.452508 
L 289.050103 146.030429 
L 290.333173 134.280429 
L 291.616242 132.758472 
L 292.899311 124.605564 
L 298.031589 133.50637 
L 299.314658 135.377346 
L 300.597727 136.950291 
L 301.880797 130.431319 
L 303.163866 127.612852 
L 307.013074 117.575888 
L 308.296143 115.000051 
L 309.579213 114.065487 
L 310.862282 112.316698 
L 312.145351 121.194524 
L 315.994559 117.539416 
L 317.277629 123.278635 
L 318.560698 127.604132 
L 319.843767 132.344974 
L 321.126837 125.978967 
L 324.976045 122.239426 
L 326.259114 123.438884 
L 327.542183 140.113571 
L 328.825253 150.70792 
L 330.108322 136.338944 
L 333.95753 138.66943 
L 335.240599 126.414471 
L 336.523669 132.419815 
L 337.806738 135.424744 
L 339.089807 133.661233 
L 342.939015 131.783332 
L 344.222084 138.985928 
L 345.505154 139.234098 
L 346.788223 132.497734 
L 348.071292 155.173198 
L 353.20357 178.600614 
L 354.486639 175.955117 
L 355.769708 164.449954 
L 357.052778 174.248289 
L 360.901986 173.455302 
L 362.185055 168.1719 
L 363.468124 190.38411 
L 364.751194 192.613389 
L 366.034263 180.456662 
L 369.883471 170.423802 
L 371.16654 172.799275 
L 372.44961 168.114295 
L 373.732679 172.197828 
L 375.015748 178.694229 
L 378.864956 179.719947 
L 380.148026 174.608337 
L 381.431095 175.471343 
L 382.714164 160.285271 
L 383.997234 150.926903 
L 387.846442 154.412579 
L 389.129511 155.196025 
L 390.41258 148.72399 
L 391.69565 140.482596 
L 392.978719 138.117125 
L 396.827927 133.632302 
L 398.110996 126.304852 
L 399.394066 119.822711 
L 401.960204 105.599108 
L 405.809412 110.898924 
L 407.092482 113.816854 
L 408.375551 110.849936 
L 409.65862 105.961515 
L 410.94169 104.806839 
L 414.790898 119.801782 
L 416.073967 122.145093 
L 417.357036 128.514382 
L 418.640106 122.902173 
L 419.923175 115.217137 
L 423.772383 114.665447 
L 425.055452 120.836015 
L 426.338522 142.547779 
L 427.621591 145.06565 
L 428.90466 142.208301 
L 432.753868 129.888196 
L 434.036938 136.2007 
L 435.320007 128.860118 
L 436.603076 123.713011 
L 437.886146 111.787886 
L 441.735354 112.148806 
L 443.018423 103.103191 
L 444.301492 99.522309 
L 445.584562 96.608072 
L 446.867631 88.894054 
L 450.716839 75.328581 
L 451.999908 73.348908 
L 453.282978 74.550469 
L 455.849116 63.557088 
L 459.698324 56.885613 
L 460.981393 66.113688 
L 462.264463 63.811055 
L 463.547532 70.545881 
L 464.830601 68.580007 
L 468.679809 51.385331 
L 469.962879 52.157697 
L 471.245948 55.612083 
L 472.529017 55.089529 
L 473.812087 50.604553 
L 477.661295 55.247419 
L 478.944364 49.495273 
L 480.227433 53.660059 
L 481.510503 58.369097 
L 482.793572 58.653227 
L 486.64278 64.652722 
L 487.925849 65.637249 
L 489.208919 72.916789 
L 490.491988 77.508 
L 491.775057 75.415733 
L 495.624265 66.259113 
L 496.907335 66.795671 
L 498.190404 68.430838 
L 499.473473 69.713704 
L 500.756543 72.303749 
L 504.605751 84.325618 
L 505.88882 89.010547 
L 507.171889 74.691534 
L 508.454959 75.699965 
L 509.738028 65.965391 
L 513.587236 65.605497 
L 514.870305 69.606751 
L 516.153375 66.472813 
L 517.436444 57.94652 
L 518.719513 51.854076 
L 522.568721 42.858218 
L 523.851791 40.663871 
L 525.13486 42.702072 
L 526.417929 45.10027 
L 527.700999 39.194698 
L 531.550207 38.754012 
L 531.550207 38.754012 
" clip-path="url(#p5e1e6cede2)" style="fill: none; stroke: #008000; stroke-width: 1.5; stroke-linecap: square"/>
   </g>
   <g id="line2d_17">
    <path d="M 69.645248 249.615317 
L 76.060595 249.615317 
L 77.343664 256.796412 
L 78.626733 276.234261 
L 82.475941 253.946571 
L 83.759011 256.928094 
L 85.04208 258.026768 
L 86.325149 256.854234 
L 87.608219 253.837111 
L 91.457427 251.582734 
L 92.740496 254.14017 
L 94.023565 258.670929 
L 95.306635 259.286409 
L 96.589704 252.504668 
L 100.438912 248.73901 
L 101.721981 248.461259 
L 103.005051 252.95562 
L 104.28812 247.830568 
L 105.571189 250.089811 
L 109.420397 248.67566 
L 110.703466 254.598256 
L 111.986536 250.60745 
L 113.269605 250.239174 
L 114.552674 248.447073 
L 118.401882 246.682915 
L 119.684952 243.307122 
L 120.968021 243.739989 
L 122.25109 242.044027 
L 123.53416 248.426879 
L 127.383368 249.766876 
L 128.666437 247.363517 
L 129.949506 242.019175 
L 131.232576 233.728271 
L 132.515645 229.31464 
L 136.364853 225.25011 
L 137.647922 225.24027 
L 138.930992 218.188754 
L 140.214061 212.166386 
L 141.49713 216.946233 
L 145.346338 210.531408 
L 146.629408 219.874491 
L 147.912477 220.181331 
L 150.478616 225.113288 
L 154.327824 224.916041 
L 155.610893 228.040286 
L 156.893962 227.3964 
L 158.177032 228.686883 
L 159.460101 241.781461 
L 163.309309 237.11425 
L 164.592378 229.599993 
L 165.875448 235.889655 
L 167.158517 229.499144 
L 168.441586 228.366185 
L 172.290794 218.467277 
L 173.573864 211.974599 
L 174.856933 210.368912 
L 176.140002 216.555044 
L 177.423072 216.21972 
L 182.555349 228.772173 
L 183.838418 226.102366 
L 185.121488 230.837186 
L 186.404557 230.670918 
L 190.253765 227.041527 
L 191.536834 221.995828 
L 192.819904 221.207032 
L 194.102973 214.966748 
L 195.386042 211.766732 
L 199.23525 210.436816 
L 200.51832 208.107928 
L 201.801389 209.908958 
L 203.084458 209.952695 
L 204.367528 205.70822 
L 208.216736 195.921358 
L 209.499805 196.503107 
L 210.782874 195.100322 
L 212.065944 190.462725 
L 218.48129 192.735834 
L 219.76436 184.758631 
L 221.047429 183.5635 
L 222.330498 176.021623 
L 226.179706 174.961842 
L 227.462775 170.845277 
L 230.028914 175.77917 
L 231.311983 179.732868 
L 235.161191 183.259164 
L 236.444261 189.20925 
L 237.72733 196.884744 
L 247.991885 196.884744 
L 249.274954 187.530084 
L 253.124162 187.981824 
L 255.690301 187.981824 
L 256.97337 191.276068 
L 258.256439 197.321465 
L 262.105647 202.207494 
L 263.388717 198.496278 
L 264.671786 201.213262 
L 267.237925 202.968487 
L 271.087133 203.251937 
L 272.370202 199.721965 
L 273.653271 185.63631 
L 276.21941 186.779313 
L 280.068618 181.977185 
L 281.351687 176.977522 
L 282.634757 177.69513 
L 283.917826 177.362753 
L 285.200895 176.042002 
L 289.050103 178.498012 
L 290.333173 179.112875 
L 291.616242 177.842727 
L 292.899311 174.557857 
L 298.031589 181.412203 
L 299.314658 187.42786 
L 300.597727 183.863674 
L 301.880797 184.330439 
L 303.163866 193.521094 
L 307.013074 197.319556 
L 308.296143 193.763407 
L 309.579213 186.283034 
L 310.862282 183.404277 
L 312.145351 178.298348 
L 315.994559 187.561791 
L 317.277629 187.30282 
L 318.560698 186.732404 
L 319.843767 185.587927 
L 321.126837 189.865549 
L 324.976045 177.906269 
L 326.259114 184.063465 
L 327.542183 183.663852 
L 328.825253 189.161564 
L 330.108322 185.98068 
L 333.95753 185.774859 
L 335.240599 185.570023 
L 336.523669 179.716144 
L 339.089807 188.859661 
L 342.939015 185.058886 
L 344.222084 172.823561 
L 345.505154 170.603822 
L 346.788223 166.90694 
L 348.071292 167.64475 
L 351.9205 175.276743 
L 353.20357 192.291963 
L 354.486639 191.727429 
L 355.769708 180.909011 
L 357.052778 184.30867 
L 360.901986 187.322366 
L 362.185055 190.336212 
L 383.997234 190.336212 
L 387.846442 190.121976 
L 389.129511 187.12047 
L 390.41258 181.583473 
L 391.69565 181.583473 
L 392.978719 199.490199 
L 396.827927 190.8181 
L 398.110996 203.839527 
L 399.394066 214.59238 
L 400.677135 221.675802 
L 401.960204 220.397635 
L 405.809412 224.054233 
L 407.092482 226.202237 
L 408.375551 213.701971 
L 409.65862 204.92666 
L 410.94169 206.733144 
L 414.790898 205.66881 
L 417.357036 202.533915 
L 418.640106 204.458093 
L 419.923175 196.053531 
L 423.772383 189.016285 
L 425.055452 178.258205 
L 426.338522 179.20928 
L 427.621591 198.534935 
L 428.90466 203.710826 
L 432.753868 196.120805 
L 434.036938 188.197932 
L 435.320007 195.586338 
L 436.603076 196.012302 
L 437.886146 187.671868 
L 441.735354 181.892392 
L 443.018423 180.6213 
L 444.301492 181.123258 
L 445.584562 185.918809 
L 446.867631 186.103611 
L 450.716839 181.830809 
L 451.999908 185.082365 
L 453.282978 198.972439 
L 454.566047 189.95786 
L 455.849116 190.536019 
L 459.698324 173.943148 
L 460.981393 176.316303 
L 462.264463 174.248072 
L 463.547532 169.634488 
L 464.830601 176.679209 
L 468.679809 171.239268 
L 469.962879 162.943696 
L 471.245948 158.169755 
L 472.529017 167.996818 
L 473.812087 161.275025 
L 477.661295 157.538708 
L 478.944364 158.935106 
L 480.227433 158.073369 
L 481.510503 159.789125 
L 482.793572 157.023436 
L 486.64278 154.929602 
L 487.925849 159.202626 
L 490.491988 164.416955 
L 491.775057 164.313192 
L 495.624265 156.177854 
L 496.907335 144.831293 
L 498.190404 141.482953 
L 499.473473 148.273883 
L 500.756543 148.538993 
L 504.605751 150.45877 
L 505.88882 150.930934 
L 507.171889 158.459776 
L 508.454959 148.378102 
L 509.738028 142.008755 
L 513.587236 130.063963 
L 514.870305 128.214865 
L 516.153375 132.469919 
L 517.436444 128.900241 
L 518.719513 116.20028 
L 522.568721 110.582119 
L 523.851791 100.244429 
L 525.13486 106.098497 
L 526.417929 107.610321 
L 527.700999 103.065601 
L 531.550207 97.277898 
L 531.550207 97.277898 
" clip-path="url(#p5e1e6cede2)" style="fill: none; stroke: #0000ff; stroke-width: 1.5; stroke-linecap: square"/>
   </g>
   <g id="line2d_18">
    <path d="M 69.645248 249.615317 
L 96.589704 249.615317 
L 101.721981 248.461259 
L 103.005051 248.461259 
L 104.28812 247.830568 
L 114.552674 247.830568 
L 118.401882 246.682915 
L 119.684952 243.307122 
L 120.968021 243.307122 
L 122.25109 242.044027 
L 129.949506 242.019175 
L 131.232576 233.728271 
L 132.515645 229.31464 
L 136.364853 225.25011 
L 137.647922 225.24027 
L 138.930992 218.188754 
L 140.214061 212.166386 
L 141.49713 212.166386 
L 145.346338 210.531408 
L 173.573864 210.531408 
L 174.856933 210.368912 
L 199.23525 210.368912 
L 200.51832 208.107928 
L 203.084458 208.107928 
L 204.367528 205.70822 
L 208.216736 195.921358 
L 209.499805 195.921358 
L 210.782874 195.100322 
L 212.065944 190.462725 
L 218.48129 190.462725 
L 219.76436 184.758631 
L 221.047429 183.5635 
L 222.330498 176.021623 
L 226.179706 174.961842 
L 227.462775 170.845277 
L 344.222084 170.845277 
L 345.505154 170.603822 
L 346.788223 166.90694 
L 468.679809 166.90694 
L 469.962879 162.943696 
L 471.245948 158.169755 
L 473.812087 158.169755 
L 477.661295 157.538708 
L 481.510503 157.538708 
L 482.793572 157.023436 
L 486.64278 154.929602 
L 495.624265 154.929602 
L 496.907335 144.831293 
L 498.190404 141.482953 
L 509.738028 141.482953 
L 513.587236 130.063963 
L 514.870305 128.214865 
L 517.436444 128.214865 
L 518.719513 116.20028 
L 522.568721 110.582119 
L 523.851791 100.244429 
L 527.700999 100.244429 
L 531.550207 97.277898 
L 531.550207 97.277898 
" clip-path="url(#p5e1e6cede2)" style="fill: none; stroke: #ff0000; stroke-width: 1.5; stroke-linecap: square"/>
   </g>
   <g id="patch_3">
    <path d="M 46.55 288.108274 
L 46.55 26.88 
" style="fill: none; stroke: #000000; stroke-width: 0.8; stroke-linejoin: miter; stroke-linecap: square"/>
   </g>
   <g id="patch_4">
    <path d="M 554.645455 288.108274 
L 554.645455 26.88 
" style="fill: none; stroke: #000000; stroke-width: 0.8; stroke-linejoin: miter; stroke-linecap: square"/>
   </g>
   <g id="patch_5">
    <path d="M 46.55 288.108274 
L 554.645455 288.108274 
" style="fill: none; stroke: #000000; stroke-width: 0.8; stroke-linejoin: miter; stroke-linecap: square"/>
   </g>
   <g id="patch_6">
    <path d="M 46.55 26.88 
L 554.645455 26.88 
" style="fill: none; stroke: #000000; stroke-width: 0.8; stroke-linejoin: miter; stroke-linecap: square"/>
   </g>
   <g id="text_10">
    <!-- Performance of AVAN-strategy year 2019 -->
    <g transform="translate(177.284602 20.88)scale(0.12 -0.12)">
     <defs>
      <path id="DejaVuSans-50" d="M 1259 4147 
L 1259 2394 
L 2053 2394 
Q 2494 2394 2734 2622 
Q 2975 2850 2975 3272 
Q 2975 3691 2734 3919 
Q 2494 4147 2053 4147 
L 1259 4147 
z
M 628 4666 
L 2053 4666 
Q 2838 4666 3239 4311 
Q 3641 3956 3641 3272 
Q 3641 2581 3239 2228 
Q 2838 1875 2053 1875 
L 1259 1875 
L 1259 0 
L 628 0 
L 628 4666 
z
" transform="scale(0.015625)"/>
      <path id="DejaVuSans-66" d="M 2375 4863 
L 2375 4384 
L 1825 4384 
Q 1516 4384 1395 4259 
Q 1275 4134 1275 3809 
L 1275 3500 
L 2222 3500 
L 2222 3053 
L 1275 3053 
L 1275 0 
L 697 0 
L 697 3053 
L 147 3053 
L 147 3500 
L 697 3500 
L 697 3744 
Q 697 4328 969 4595 
Q 1241 4863 1831 4863 
L 2375 4863 
z
" transform="scale(0.015625)"/>
      <path id="DejaVuSans-6f" d="M 1959 3097 
Q 1497 3097 1228 2736 
Q 959 2375 959 1747 
Q 959 1119 1226 758 
Q 1494 397 1959 397 
Q 2419 397 2687 759 
Q 2956 1122 2956 1747 
Q 2956 2369 2687 2733 
Q 2419 3097 1959 3097 
z
M 1959 3584 
Q 2709 3584 3137 3096 
Q 3566 2609 3566 1747 
Q 3566 888 3137 398 
Q 2709 -91 1959 -91 
Q 1206 -91 779 398 
Q 353 888 353 1747 
Q 353 2609 779 3096 
Q 1206 3584 1959 3584 
z
" transform="scale(0.015625)"/>
      <path id="DejaVuSans-6d" d="M 3328 2828 
Q 3544 3216 3844 3400 
Q 4144 3584 4550 3584 
Q 5097 3584 5394 3201 
Q 5691 2819 5691 2113 
L 5691 0 
L 5113 0 
L 5113 2094 
Q 5113 2597 4934 2840 
Q 4756 3084 4391 3084 
Q 3944 3084 3684 2787 
Q 3425 2491 3425 1978 
L 3425 0 
L 2847 0 
L 2847 2094 
Q 2847 2600 2669 2842 
Q 2491 3084 2119 3084 
Q 1678 3084 1418 2786 
Q 1159 2488 1159 1978 
L 1159 0 
L 581 0 
L 581 3500 
L 1159 3500 
L 1159 2956 
Q 1356 3278 1631 3431 
Q 1906 3584 2284 3584 
Q 2666 3584 2933 3390 
Q 3200 3197 3328 2828 
z
" transform="scale(0.015625)"/>
      <path id="DejaVuSans-61" d="M 2194 1759 
Q 1497 1759 1228 1600 
Q 959 1441 959 1056 
Q 959 750 1161 570 
Q 1363 391 1709 391 
Q 2188 391 2477 730 
Q 2766 1069 2766 1631 
L 2766 1759 
L 2194 1759 
z
M 3341 1997 
L 3341 0 
L 2766 0 
L 2766 531 
Q 2569 213 2275 61 
Q 1981 -91 1556 -91 
Q 1019 -91 701 211 
Q 384 513 384 1019 
Q 384 1609 779 1909 
Q 1175 2209 1959 2209 
L 2766 2209 
L 2766 2266 
Q 2766 2663 2505 2880 
Q 2244 3097 1772 3097 
Q 1472 3097 1187 3025 
Q 903 2953 641 2809 
L 641 3341 
Q 956 3463 1253 3523 
Q 1550 3584 1831 3584 
Q 2591 3584 2966 3190 
Q 3341 2797 3341 1997 
z
" transform="scale(0.015625)"/>
      <path id="DejaVuSans-63" d="M 3122 3366 
L 3122 2828 
Q 2878 2963 2633 3030 
Q 2388 3097 2138 3097 
Q 1578 3097 1268 2742 
Q 959 2388 959 1747 
Q 959 1106 1268 751 
Q 1578 397 2138 397 
Q 2388 397 2633 464 
Q 2878 531 3122 666 
L 3122 134 
Q 2881 22 2623 -34 
Q 2366 -91 2075 -91 
Q 1284 -91 818 406 
Q 353 903 353 1747 
Q 353 2603 823 3093 
Q 1294 3584 2113 3584 
Q 2378 3584 2631 3529 
Q 2884 3475 3122 3366 
z
" transform="scale(0.015625)"/>
      <path id="DejaVuSans-41" d="M 2188 4044 
L 1331 1722 
L 3047 1722 
L 2188 4044 
z
M 1831 4666 
L 2547 4666 
L 4325 0 
L 3669 0 
L 3244 1197 
L 1141 1197 
L 716 0 
L 50 0 
L 1831 4666 
z
" transform="scale(0.015625)"/>
      <path id="DejaVuSans-56" d="M 1831 0 
L 50 4666 
L 709 4666 
L 2188 738 
L 3669 4666 
L 4325 4666 
L 2547 0 
L 1831 0 
z
" transform="scale(0.015625)"/>
      <path id="DejaVuSans-4e" d="M 628 4666 
L 1478 4666 
L 3547 763 
L 3547 4666 
L 4159 4666 
L 4159 0 
L 3309 0 
L 1241 3903 
L 1241 0 
L 628 0 
L 628 4666 
z
" transform="scale(0.015625)"/>
      <path id="DejaVuSans-2d" d="M 313 2009 
L 1997 2009 
L 1997 1497 
L 313 1497 
L 313 2009 
z
" transform="scale(0.015625)"/>
      <path id="DejaVuSans-73" d="M 2834 3397 
L 2834 2853 
Q 2591 2978 2328 3040 
Q 2066 3103 1784 3103 
Q 1356 3103 1142 2972 
Q 928 2841 928 2578 
Q 928 2378 1081 2264 
Q 1234 2150 1697 2047 
L 1894 2003 
Q 2506 1872 2764 1633 
Q 3022 1394 3022 966 
Q 3022 478 2636 193 
Q 2250 -91 1575 -91 
Q 1294 -91 989 -36 
Q 684 19 347 128 
L 347 722 
Q 666 556 975 473 
Q 1284 391 1588 391 
Q 1994 391 2212 530 
Q 2431 669 2431 922 
Q 2431 1156 2273 1281 
Q 2116 1406 1581 1522 
L 1381 1569 
Q 847 1681 609 1914 
Q 372 2147 372 2553 
Q 372 3047 722 3315 
Q 1072 3584 1716 3584 
Q 2034 3584 2315 3537 
Q 2597 3491 2834 3397 
z
" transform="scale(0.015625)"/>
      <path id="DejaVuSans-67" d="M 2906 1791 
Q 2906 2416 2648 2759 
Q 2391 3103 1925 3103 
Q 1463 3103 1205 2759 
Q 947 2416 947 1791 
Q 947 1169 1205 825 
Q 1463 481 1925 481 
Q 2391 481 2648 825 
Q 2906 1169 2906 1791 
z
M 3481 434 
Q 3481 -459 3084 -895 
Q 2688 -1331 1869 -1331 
Q 1566 -1331 1297 -1286 
Q 1028 -1241 775 -1147 
L 775 -588 
Q 1028 -725 1275 -790 
Q 1522 -856 1778 -856 
Q 2344 -856 2625 -561 
Q 2906 -266 2906 331 
L 2906 616 
Q 2728 306 2450 153 
Q 2172 0 1784 0 
Q 1141 0 747 490 
Q 353 981 353 1791 
Q 353 2603 747 3093 
Q 1141 3584 1784 3584 
Q 2172 3584 2450 3431 
Q 2728 3278 2906 2969 
L 2906 3500 
L 3481 3500 
L 3481 434 
z
" transform="scale(0.015625)"/>
      <path id="DejaVuSans-79" d="M 2059 -325 
Q 1816 -950 1584 -1140 
Q 1353 -1331 966 -1331 
L 506 -1331 
L 506 -850 
L 844 -850 
Q 1081 -850 1212 -737 
Q 1344 -625 1503 -206 
L 1606 56 
L 191 3500 
L 800 3500 
L 1894 763 
L 2988 3500 
L 3597 3500 
L 2059 -325 
z
" transform="scale(0.015625)"/>
      <path id="DejaVuSans-39" d="M 703 97 
L 703 672 
Q 941 559 1184 500 
Q 1428 441 1663 441 
Q 2288 441 2617 861 
Q 2947 1281 2994 2138 
Q 2813 1869 2534 1725 
Q 2256 1581 1919 1581 
Q 1219 1581 811 2004 
Q 403 2428 403 3163 
Q 403 3881 828 4315 
Q 1253 4750 1959 4750 
Q 2769 4750 3195 4129 
Q 3622 3509 3622 2328 
Q 3622 1225 3098 567 
Q 2575 -91 1691 -91 
Q 1453 -91 1209 -44 
Q 966 3 703 97 
z
M 1959 2075 
Q 2384 2075 2632 2365 
Q 2881 2656 2881 3163 
Q 2881 3666 2632 3958 
Q 2384 4250 1959 4250 
Q 1534 4250 1286 3958 
Q 1038 3666 1038 3163 
Q 1038 2656 1286 2365 
Q 1534 2075 1959 2075 
z
" transform="scale(0.015625)"/>
     </defs>
     <use xlink:href="#DejaVuSans-50"/>
     <use xlink:href="#DejaVuSans-65" x="56.677734"/>
     <use xlink:href="#DejaVuSans-72" x="118.201172"/>
     <use xlink:href="#DejaVuSans-66" x="159.314453"/>
     <use xlink:href="#DejaVuSans-6f" x="194.519531"/>
     <use xlink:href="#DejaVuSans-72" x="255.701172"/>
     <use xlink:href="#DejaVuSans-6d" x="295.064453"/>
     <use xlink:href="#DejaVuSans-61" x="392.476562"/>
     <use xlink:href="#DejaVuSans-6e" x="453.755859"/>
     <use xlink:href="#DejaVuSans-63" x="517.134766"/>
     <use xlink:href="#DejaVuSans-65" x="572.115234"/>
     <use xlink:href="#DejaVuSans-20" x="633.638672"/>
     <use xlink:href="#DejaVuSans-6f" x="665.425781"/>
     <use xlink:href="#DejaVuSans-66" x="726.607422"/>
     <use xlink:href="#DejaVuSans-20" x="761.8125"/>
     <use xlink:href="#DejaVuSans-41" x="793.599609"/>
     <use xlink:href="#DejaVuSans-56" x="855.632812"/>
     <use xlink:href="#DejaVuSans-41" x="917.666016"/>
     <use xlink:href="#DejaVuSans-4e" x="986.074219"/>
     <use xlink:href="#DejaVuSans-2d" x="1060.878906"/>
     <use xlink:href="#DejaVuSans-73" x="1096.962891"/>
     <use xlink:href="#DejaVuSans-74" x="1149.0625"/>
     <use xlink:href="#DejaVuSans-72" x="1188.271484"/>
     <use xlink:href="#DejaVuSans-61" x="1229.384766"/>
     <use xlink:href="#DejaVuSans-74" x="1290.664062"/>
     <use xlink:href="#DejaVuSans-65" x="1329.873047"/>
     <use xlink:href="#DejaVuSans-67" x="1391.396484"/>
     <use xlink:href="#DejaVuSans-79" x="1454.873047"/>
     <use xlink:href="#DejaVuSans-20" x="1514.052734"/>
     <use xlink:href="#DejaVuSans-79" x="1545.839844"/>
     <use xlink:href="#DejaVuSans-65" x="1605.019531"/>
     <use xlink:href="#DejaVuSans-61" x="1666.542969"/>
     <use xlink:href="#DejaVuSans-72" x="1727.822266"/>
     <use xlink:href="#DejaVuSans-20" x="1768.935547"/>
     <use xlink:href="#DejaVuSans-32" x="1800.722656"/>
     <use xlink:href="#DejaVuSans-30" x="1864.345703"/>
     <use xlink:href="#DejaVuSans-31" x="1927.96875"/>
     <use xlink:href="#DejaVuSans-39" x="1991.591797"/>
    </g>
   </g>
   <g id="legend_1">
    <g id="patch_7">
     <path d="M 53.55 78.914375 
L 180.971875 78.914375 
Q 182.971875 78.914375 182.971875 76.914375 
L 182.971875 33.88 
Q 182.971875 31.88 180.971875 31.88 
L 53.55 31.88 
Q 51.55 31.88 51.55 33.88 
L 51.55 76.914375 
Q 51.55 78.914375 53.55 78.914375 
z
" style="fill: #ffffff; opacity: 0.8; stroke: #cccccc; stroke-linejoin: miter"/>
    </g>
    <g id="line2d_19">
     <path d="M 55.55 39.978438 
L 65.55 39.978438 
L 75.55 39.978438 
" style="fill: none; stroke: #008000; stroke-width: 1.5; stroke-linecap: square"/>
    </g>
    <g id="text_11">
     <!-- 29.7% return omx -->
     <g transform="translate(83.55 43.478438)scale(0.1 -0.1)">
      <defs>
       <path id="DejaVuSans-2e" d="M 684 794 
L 1344 794 
L 1344 0 
L 684 0 
L 684 794 
z
" transform="scale(0.015625)"/>
       <path id="DejaVuSans-37" d="M 525 4666 
L 3525 4666 
L 3525 4397 
L 1831 0 
L 1172 0 
L 2766 4134 
L 525 4134 
L 525 4666 
z
" transform="scale(0.015625)"/>
       <path id="DejaVuSans-78" d="M 3513 3500 
L 2247 1797 
L 3578 0 
L 2900 0 
L 1881 1375 
L 863 0 
L 184 0 
L 1544 1831 
L 300 3500 
L 978 3500 
L 1906 2253 
L 2834 3500 
L 3513 3500 
z
" transform="scale(0.015625)"/>
      </defs>
      <use xlink:href="#DejaVuSans-32"/>
      <use xlink:href="#DejaVuSans-39" x="63.623047"/>
      <use xlink:href="#DejaVuSans-2e" x="127.246094"/>
      <use xlink:href="#DejaVuSans-37" x="159.033203"/>
      <use xlink:href="#DejaVuSans-25" x="222.65625"/>
      <use xlink:href="#DejaVuSans-20" x="317.675781"/>
      <use xlink:href="#DejaVuSans-72" x="349.462891"/>
      <use xlink:href="#DejaVuSans-65" x="388.326172"/>
      <use xlink:href="#DejaVuSans-74" x="449.849609"/>
      <use xlink:href="#DejaVuSans-75" x="489.058594"/>
      <use xlink:href="#DejaVuSans-72" x="552.4375"/>
      <use xlink:href="#DejaVuSans-6e" x="591.800781"/>
      <use xlink:href="#DejaVuSans-20" x="655.179688"/>
      <use xlink:href="#DejaVuSans-6f" x="686.966797"/>
      <use xlink:href="#DejaVuSans-6d" x="748.148438"/>
      <use xlink:href="#DejaVuSans-78" x="845.560547"/>
     </g>
    </g>
    <g id="line2d_20">
     <path d="M 55.55 54.656563 
L 65.55 54.656563 
L 75.55 54.656563 
" style="fill: none; stroke: #0000ff; stroke-width: 1.5; stroke-linecap: square"/>
    </g>
    <g id="text_12">
     <!-- 21.4% return AVAN -->
     <g transform="translate(83.55 58.156563)scale(0.1 -0.1)">
      <defs>
       <path id="DejaVuSans-34" d="M 2419 4116 
L 825 1625 
L 2419 1625 
L 2419 4116 
z
M 2253 4666 
L 3047 4666 
L 3047 1625 
L 3713 1625 
L 3713 1100 
L 3047 1100 
L 3047 0 
L 2419 0 
L 2419 1100 
L 313 1100 
L 313 1709 
L 2253 4666 
z
" transform="scale(0.015625)"/>
      </defs>
      <use xlink:href="#DejaVuSans-32"/>
      <use xlink:href="#DejaVuSans-31" x="63.623047"/>
      <use xlink:href="#DejaVuSans-2e" x="127.246094"/>
      <use xlink:href="#DejaVuSans-34" x="159.033203"/>
      <use xlink:href="#DejaVuSans-25" x="222.65625"/>
      <use xlink:href="#DejaVuSans-20" x="317.675781"/>
      <use xlink:href="#DejaVuSans-72" x="349.462891"/>
      <use xlink:href="#DejaVuSans-65" x="388.326172"/>
      <use xlink:href="#DejaVuSans-74" x="449.849609"/>
      <use xlink:href="#DejaVuSans-75" x="489.058594"/>
      <use xlink:href="#DejaVuSans-72" x="552.4375"/>
      <use xlink:href="#DejaVuSans-6e" x="591.800781"/>
      <use xlink:href="#DejaVuSans-20" x="655.179688"/>
      <use xlink:href="#DejaVuSans-41" x="686.966797"/>
      <use xlink:href="#DejaVuSans-56" x="749"/>
      <use xlink:href="#DejaVuSans-41" x="811.033203"/>
      <use xlink:href="#DejaVuSans-4e" x="879.441406"/>
     </g>
    </g>
    <g id="line2d_21">
     <path d="M 55.55 69.334688 
L 65.55 69.334688 
L 75.55 69.334688 
" style="fill: none; stroke: #ff0000; stroke-width: 1.5; stroke-linecap: square"/>
    </g>
    <g id="text_13">
     <!-- cummax -->
     <g transform="translate(83.55 72.834688)scale(0.1 -0.1)">
      <use xlink:href="#DejaVuSans-63"/>
      <use xlink:href="#DejaVuSans-75" x="54.980469"/>
      <use xlink:href="#DejaVuSans-6d" x="118.359375"/>
      <use xlink:href="#DejaVuSans-6d" x="215.771484"/>
      <use xlink:href="#DejaVuSans-61" x="313.183594"/>
      <use xlink:href="#DejaVuSans-78" x="374.462891"/>
     </g>
    </g>
   </g>
  </g>
  <g id="axes_2">
   <g id="patch_8">
    <path d="M 46.55 390.04 
L 554.645455 390.04 
L 554.645455 302.963909 
L 46.55 302.963909 
z
" style="fill: #ffffff"/>
   </g>
   <g id="matplotlib.axis_3">
    <g id="xtick_8">
     <g id="line2d_22">
      <g>
       <use xlink:href="#me876b7a196" x="74.777525" y="390.04" style="stroke: #000000; stroke-width: 0.8"/>
      </g>
     </g>
     <g id="text_14">
      <!-- 2019-01 -->
      <g transform="translate(53.886119 404.638437)scale(0.1 -0.1)">
       <use xlink:href="#DejaVuSans-32"/>
       <use xlink:href="#DejaVuSans-30" x="63.623047"/>
       <use xlink:href="#DejaVuSans-31" x="127.246094"/>
       <use xlink:href="#DejaVuSans-39" x="190.869141"/>
       <use xlink:href="#DejaVuSans-2d" x="254.492188"/>
       <use xlink:href="#DejaVuSans-30" x="290.576172"/>
       <use xlink:href="#DejaVuSans-31" x="354.199219"/>
      </g>
     </g>
    </g>
    <g id="xtick_9">
     <g id="line2d_23">
      <g>
       <use xlink:href="#me876b7a196" x="150.478616" y="390.04" style="stroke: #000000; stroke-width: 0.8"/>
      </g>
     </g>
     <g id="text_15">
      <!-- 2019-03 -->
      <g transform="translate(129.587209 404.638437)scale(0.1 -0.1)">
       <use xlink:href="#DejaVuSans-32"/>
       <use xlink:href="#DejaVuSans-30" x="63.623047"/>
       <use xlink:href="#DejaVuSans-31" x="127.246094"/>
       <use xlink:href="#DejaVuSans-39" x="190.869141"/>
       <use xlink:href="#DejaVuSans-2d" x="254.492188"/>
       <use xlink:href="#DejaVuSans-30" x="290.576172"/>
       <use xlink:href="#DejaVuSans-33" x="354.199219"/>
      </g>
     </g>
    </g>
    <g id="xtick_10">
     <g id="line2d_24">
      <g>
       <use xlink:href="#me876b7a196" x="228.745845" y="390.04" style="stroke: #000000; stroke-width: 0.8"/>
      </g>
     </g>
     <g id="text_16">
      <!-- 2019-05 -->
      <g transform="translate(207.854439 404.638437)scale(0.1 -0.1)">
       <use xlink:href="#DejaVuSans-32"/>
       <use xlink:href="#DejaVuSans-30" x="63.623047"/>
       <use xlink:href="#DejaVuSans-31" x="127.246094"/>
       <use xlink:href="#DejaVuSans-39" x="190.869141"/>
       <use xlink:href="#DejaVuSans-2d" x="254.492188"/>
       <use xlink:href="#DejaVuSans-30" x="290.576172"/>
       <use xlink:href="#DejaVuSans-35" x="354.199219"/>
      </g>
     </g>
    </g>
    <g id="xtick_11">
     <g id="line2d_25">
      <g>
       <use xlink:href="#me876b7a196" x="307.013074" y="390.04" style="stroke: #000000; stroke-width: 0.8"/>
      </g>
     </g>
     <g id="text_17">
      <!-- 2019-07 -->
      <g transform="translate(286.121668 404.638437)scale(0.1 -0.1)">
       <use xlink:href="#DejaVuSans-32"/>
       <use xlink:href="#DejaVuSans-30" x="63.623047"/>
       <use xlink:href="#DejaVuSans-31" x="127.246094"/>
       <use xlink:href="#DejaVuSans-39" x="190.869141"/>
       <use xlink:href="#DejaVuSans-2d" x="254.492188"/>
       <use xlink:href="#DejaVuSans-30" x="290.576172"/>
       <use xlink:href="#DejaVuSans-37" x="354.199219"/>
      </g>
     </g>
    </g>
    <g id="xtick_12">
     <g id="line2d_26">
      <g>
       <use xlink:href="#me876b7a196" x="386.563372" y="390.04" style="stroke: #000000; stroke-width: 0.8"/>
      </g>
     </g>
     <g id="text_18">
      <!-- 2019-09 -->
      <g transform="translate(365.671966 404.638437)scale(0.1 -0.1)">
       <use xlink:href="#DejaVuSans-32"/>
       <use xlink:href="#DejaVuSans-30" x="63.623047"/>
       <use xlink:href="#DejaVuSans-31" x="127.246094"/>
       <use xlink:href="#DejaVuSans-39" x="190.869141"/>
       <use xlink:href="#DejaVuSans-2d" x="254.492188"/>
       <use xlink:href="#DejaVuSans-30" x="290.576172"/>
       <use xlink:href="#DejaVuSans-39" x="354.199219"/>
      </g>
     </g>
    </g>
    <g id="xtick_13">
     <g id="line2d_27">
      <g>
       <use xlink:href="#me876b7a196" x="464.830601" y="390.04" style="stroke: #000000; stroke-width: 0.8"/>
      </g>
     </g>
     <g id="text_19">
      <!-- 2019-11 -->
      <g transform="translate(443.939195 404.638437)scale(0.1 -0.1)">
       <use xlink:href="#DejaVuSans-32"/>
       <use xlink:href="#DejaVuSans-30" x="63.623047"/>
       <use xlink:href="#DejaVuSans-31" x="127.246094"/>
       <use xlink:href="#DejaVuSans-39" x="190.869141"/>
       <use xlink:href="#DejaVuSans-2d" x="254.492188"/>
       <use xlink:href="#DejaVuSans-31" x="290.576172"/>
       <use xlink:href="#DejaVuSans-31" x="354.199219"/>
      </g>
     </g>
    </g>
    <g id="xtick_14">
     <g id="line2d_28">
      <g>
       <use xlink:href="#me876b7a196" x="543.097831" y="390.04" style="stroke: #000000; stroke-width: 0.8"/>
      </g>
     </g>
     <g id="text_20">
      <!-- 2020-01 -->
      <g transform="translate(522.206424 404.638437)scale(0.1 -0.1)">
       <use xlink:href="#DejaVuSans-32"/>
       <use xlink:href="#DejaVuSans-30" x="63.623047"/>
       <use xlink:href="#DejaVuSans-32" x="127.246094"/>
       <use xlink:href="#DejaVuSans-30" x="190.869141"/>
       <use xlink:href="#DejaVuSans-2d" x="254.492188"/>
       <use xlink:href="#DejaVuSans-30" x="290.576172"/>
       <use xlink:href="#DejaVuSans-31" x="354.199219"/>
      </g>
     </g>
    </g>
    <g id="text_21">
     <!-- Time -->
     <g transform="translate(288.364134 418.316562)scale(0.1 -0.1)">
      <defs>
       <path id="DejaVuSans-54" d="M -19 4666 
L 3928 4666 
L 3928 4134 
L 2272 4134 
L 2272 0 
L 1638 0 
L 1638 4134 
L -19 4134 
L -19 4666 
z
" transform="scale(0.015625)"/>
       <path id="DejaVuSans-69" d="M 603 3500 
L 1178 3500 
L 1178 0 
L 603 0 
L 603 3500 
z
M 603 4863 
L 1178 4863 
L 1178 4134 
L 603 4134 
L 603 4863 
z
" transform="scale(0.015625)"/>
      </defs>
      <use xlink:href="#DejaVuSans-54"/>
      <use xlink:href="#DejaVuSans-69" x="57.958984"/>
      <use xlink:href="#DejaVuSans-6d" x="85.742188"/>
      <use xlink:href="#DejaVuSans-65" x="183.154297"/>
     </g>
    </g>
   </g>
   <g id="matplotlib.axis_4">
    <g id="ytick_9">
     <g id="line2d_29">
      <g>
       <use xlink:href="#mdb2de660e2" x="46.55" y="386.316926" style="stroke: #000000; stroke-width: 0.8"/>
      </g>
     </g>
     <g id="text_22">
      <!-- −7.5 -->
      <g transform="translate(15.267188 390.116145)scale(0.1 -0.1)">
       <use xlink:href="#DejaVuSans-2212"/>
       <use xlink:href="#DejaVuSans-37" x="83.789062"/>
       <use xlink:href="#DejaVuSans-2e" x="147.412109"/>
       <use xlink:href="#DejaVuSans-35" x="179.199219"/>
      </g>
     </g>
    </g>
    <g id="ytick_10">
     <g id="line2d_30">
      <g>
       <use xlink:href="#mdb2de660e2" x="46.55" y="359.851922" style="stroke: #000000; stroke-width: 0.8"/>
      </g>
     </g>
     <g id="text_23">
      <!-- −5.0 -->
      <g transform="translate(15.267188 363.651141)scale(0.1 -0.1)">
       <use xlink:href="#DejaVuSans-2212"/>
       <use xlink:href="#DejaVuSans-35" x="83.789062"/>
       <use xlink:href="#DejaVuSans-2e" x="147.412109"/>
       <use xlink:href="#DejaVuSans-30" x="179.199219"/>
      </g>
     </g>
    </g>
    <g id="ytick_11">
     <g id="line2d_31">
      <g>
       <use xlink:href="#mdb2de660e2" x="46.55" y="333.386917" style="stroke: #000000; stroke-width: 0.8"/>
      </g>
     </g>
     <g id="text_24">
      <!-- −2.5 -->
      <g transform="translate(15.267188 337.186136)scale(0.1 -0.1)">
       <use xlink:href="#DejaVuSans-2212"/>
       <use xlink:href="#DejaVuSans-32" x="83.789062"/>
       <use xlink:href="#DejaVuSans-2e" x="147.412109"/>
       <use xlink:href="#DejaVuSans-35" x="179.199219"/>
      </g>
     </g>
    </g>
    <g id="ytick_12">
     <g id="line2d_32">
      <g>
       <use xlink:href="#mdb2de660e2" x="46.55" y="306.921913" style="stroke: #000000; stroke-width: 0.8"/>
      </g>
     </g>
     <g id="text_25">
      <!-- 0.0 -->
      <g transform="translate(23.646875 310.721132)scale(0.1 -0.1)">
       <use xlink:href="#DejaVuSans-30"/>
       <use xlink:href="#DejaVuSans-2e" x="63.623047"/>
       <use xlink:href="#DejaVuSans-30" x="95.410156"/>
      </g>
     </g>
    </g>
    <g id="text_26">
     <!-- DD % -->
     <g transform="translate(9.1875 360.541798)rotate(-90)scale(0.1 -0.1)">
      <defs>
       <path id="DejaVuSans-44" d="M 1259 4147 
L 1259 519 
L 2022 519 
Q 2988 519 3436 956 
Q 3884 1394 3884 2338 
Q 3884 3275 3436 3711 
Q 2988 4147 2022 4147 
L 1259 4147 
z
M 628 4666 
L 1925 4666 
Q 3281 4666 3915 4102 
Q 4550 3538 4550 2338 
Q 4550 1131 3912 565 
Q 3275 0 1925 0 
L 628 0 
L 628 4666 
z
" transform="scale(0.015625)"/>
      </defs>
      <use xlink:href="#DejaVuSans-44"/>
      <use xlink:href="#DejaVuSans-44" x="77.001953"/>
      <use xlink:href="#DejaVuSans-20" x="154.003906"/>
      <use xlink:href="#DejaVuSans-25" x="185.791016"/>
     </g>
    </g>
   </g>
   <g id="line2d_33">
    <path d="M 69.645248 306.921913 
L 76.060595 306.921913 
L 77.343664 317.62518 
L 78.626733 346.596872 
L 82.475941 313.377553 
L 83.759011 317.821448 
L 85.04208 319.458998 
L 86.325149 317.711361 
L 87.608219 313.214406 
L 91.457427 309.854306 
L 92.740496 313.666109 
L 94.023565 320.419107 
L 95.306635 321.336466 
L 96.589704 311.228428 
L 100.438912 306.921913 
L 101.721981 306.921913 
L 103.005051 313.609794 
L 104.28812 306.921913 
L 105.571189 310.280825 
L 109.420397 308.178348 
L 110.703466 316.983721 
L 111.986536 311.050422 
L 113.269605 310.502889 
L 114.552674 307.838498 
L 118.401882 306.921913 
L 119.684952 306.921913 
L 120.968021 307.561412 
L 122.25109 306.921913 
L 123.53416 316.335071 
L 127.383368 318.31124 
L 128.666437 314.766869 
L 129.949506 306.921913 
L 140.214061 306.921913 
L 141.49713 313.689345 
L 145.346338 306.921913 
L 146.629408 320.121231 
L 147.912477 320.554714 
L 150.478616 327.522271 
L 154.327824 327.243613 
L 155.610893 331.657349 
L 156.893962 330.747708 
L 158.177032 332.570821 
L 159.460101 351.070012 
L 163.309309 344.476473 
L 164.592378 333.860805 
L 165.875448 342.746441 
L 167.158517 333.718331 
L 168.441586 332.117759 
L 172.290794 318.133207 
L 173.573864 308.960762 
L 174.856933 306.921913 
L 176.140002 315.659394 
L 177.423072 315.185772 
L 182.555349 332.91524 
L 183.838418 329.144324 
L 185.121488 335.831928 
L 186.404557 335.597085 
L 190.253765 330.470823 
L 191.536834 323.344123 
L 192.819904 322.230004 
L 194.102973 313.416037 
L 195.386042 308.896237 
L 199.23525 307.017823 
L 200.51832 306.921913 
L 201.801389 309.458092 
L 203.084458 309.519681 
L 204.367528 306.921913 
L 208.216736 306.921913 
L 209.499805 307.728053 
L 210.782874 306.921913 
L 212.065944 306.921913 
L 218.48129 310.049455 
L 219.76436 306.921913 
L 227.462775 306.921913 
L 230.028914 313.54161 
L 231.311983 318.8462 
L 235.161191 323.577354 
L 236.444261 331.560455 
L 237.72733 341.858498 
L 247.991885 341.858498 
L 249.274954 329.307554 
L 253.124162 329.913645 
L 255.690301 329.913645 
L 256.97337 334.33346 
L 258.256439 342.444437 
L 262.105647 348.999917 
L 263.388717 344.020659 
L 264.671786 347.665976 
L 267.237925 350.020924 
L 271.087133 350.401223 
L 272.370202 345.665135 
L 273.653271 326.76672 
L 276.21941 328.300262 
L 280.068618 321.857351 
L 281.351687 315.149412 
L 282.634757 316.112212 
L 283.917826 315.666268 
L 285.200895 313.894245 
L 289.050103 317.18942 
L 290.333173 318.014369 
L 291.616242 316.310238 
L 292.899311 311.903 
L 298.031589 321.099328 
L 299.314658 329.170404 
L 300.597727 324.388412 
L 301.880797 325.01466 
L 303.163866 337.345563 
L 307.013074 342.441877 
L 308.296143 337.670668 
L 309.579213 327.634414 
L 310.862282 323.77205 
L 312.145351 316.921536 
L 315.994559 329.350095 
L 317.277629 329.00264 
L 318.560698 328.237325 
L 319.843767 326.701805 
L 321.126837 332.440998 
L 324.976045 316.395492 
L 326.259114 324.656468 
L 327.542183 324.120315 
L 328.825253 331.496476 
L 330.108322 327.228753 
L 333.95753 326.952608 
L 335.240599 326.677784 
L 336.523669 318.823761 
L 339.089807 331.091419 
L 342.939015 325.992002 
L 344.222084 309.576133 
L 345.505154 306.921913 
L 346.788223 306.921913 
L 348.071292 307.906899 
L 351.9205 318.095721 
L 353.20357 340.811287 
L 354.486639 340.057625 
L 355.769708 325.614881 
L 357.052778 330.153474 
L 360.901986 334.176803 
L 362.185055 338.200331 
L 383.997234 338.200331 
L 387.846442 337.914323 
L 389.129511 333.907269 
L 390.41258 326.515298 
L 391.69565 326.515298 
L 392.978719 350.421036 
L 396.827927 338.843659 
L 398.110996 356.227452 
L 399.394066 370.582667 
L 400.677135 380.039139 
L 401.960204 378.332768 
L 405.809412 383.214379 
L 407.092482 386.081996 
L 408.375551 369.393958 
L 409.65862 357.678791 
L 410.94169 360.090474 
L 414.790898 358.669572 
L 417.357036 354.484442 
L 418.640106 357.053248 
L 419.923175 345.833035 
L 423.772383 336.43821 
L 425.055452 322.076016 
L 426.338522 323.345715 
L 427.621591 349.145746 
L 428.90466 356.055635 
L 432.753868 345.922847 
L 434.036938 335.345696 
L 435.320007 345.209325 
L 436.603076 345.777994 
L 437.886146 334.643393 
L 441.735354 326.927708 
L 443.018423 325.230783 
L 444.301492 325.900904 
L 445.584562 332.303034 
L 446.867631 332.549748 
L 450.716839 326.845495 
L 451.999908 331.186368 
L 453.282978 349.72982 
L 454.566047 337.695225 
L 455.849116 338.467077 
L 459.698324 316.315353 
L 460.981393 319.483549 
L 462.264463 316.722431 
L 463.547532 310.563229 
L 464.830601 319.968033 
L 468.679809 312.705633 
L 469.962879 306.921913 
L 471.245948 306.921913 
L 472.529017 319.898204 
L 473.812087 311.022313 
L 477.661295 306.921913 
L 478.944364 308.764357 
L 480.227433 307.627359 
L 481.510503 309.891172 
L 482.793572 306.921913 
L 486.64278 306.921913 
L 487.925849 312.541579 
L 490.491988 319.399201 
L 491.775057 319.262737 
L 495.624265 308.563551 
L 496.907335 306.921913 
L 498.190404 306.921913 
L 499.473473 315.706255 
L 500.756543 316.049186 
L 504.605751 318.532494 
L 505.88882 319.143257 
L 507.171889 328.882118 
L 508.454959 315.841066 
L 509.738028 307.602059 
L 513.587236 306.921913 
L 514.870305 306.921913 
L 516.153375 312.338185 
L 517.436444 307.79433 
L 518.719513 306.921913 
L 523.851791 306.921913 
L 525.13486 314.13111 
L 526.417929 315.992898 
L 527.700999 310.396143 
L 531.550207 306.921913 
L 531.550207 306.921913 
" clip-path="url(#p0087845eb4)" style="fill: none; stroke: #0000ff; stroke-width: 1.5; stroke-linecap: square"/>
   </g>
   <g id="patch_9">
    <path d="M 46.55 390.04 
L 46.55 302.963909 
" style="fill: none; stroke: #000000; stroke-width: 0.8; stroke-linejoin: miter; stroke-linecap: square"/>
   </g>
   <g id="patch_10">
    <path d="M 554.645455 390.04 
L 554.645455 302.963909 
" style="fill: none; stroke: #000000; stroke-width: 0.8; stroke-linejoin: miter; stroke-linecap: square"/>
   </g>
   <g id="patch_11">
    <path d="M 46.55 390.04 
L 554.645455 390.04 
" style="fill: none; stroke: #000000; stroke-width: 0.8; stroke-linejoin: miter; stroke-linecap: square"/>
   </g>
   <g id="patch_12">
    <path d="M 46.55 302.963909 
L 554.645455 302.963909 
" style="fill: none; stroke: #000000; stroke-width: 0.8; stroke-linejoin: miter; stroke-linecap: square"/>
   </g>
  </g>
 </g>
 <defs>
  <clipPath id="p5e1e6cede2">
   <rect x="46.55" y="26.88" width="508.095455" height="261.228274"/>
  </clipPath>
  <clipPath id="p0087845eb4">
   <rect x="46.55" y="302.963909" width="508.095455" height="87.076091"/>
  </clipPath>
 </defs>
</svg>
