<?xml version="1.0" encoding="utf-8" standalone="no"?>
<!DOCTYPE svg PUBLIC "-//W3C//DTD SVG 1.1//EN"
  "http://www.w3.org/Graphics/SVG/1.1/DTD/svg11.dtd">
<svg xmlns:xlink="http://www.w3.org/1999/xlink" width="576pt" height="432pt" viewBox="0 0 576 432" xmlns="http://www.w3.org/2000/svg" version="1.1">
 <metadata>
  <rdf:RDF xmlns:dc="http://purl.org/dc/elements/1.1/" xmlns:cc="http://creativecommons.org/ns#" xmlns:rdf="http://www.w3.org/1999/02/22-rdf-syntax-ns#">
   <cc:Work>
    <dc:type rdf:resource="http://purl.org/dc/dcmitype/StillImage"/>
    <dc:date>2023-01-15T23:56:31.068636</dc:date>
    <dc:format>image/svg+xml</dc:format>
    <dc:creator>
     <cc:Agent>
      <dc:title>Matplotlib v3.5.0, https://matplotlib.org/</dc:title>
     </cc:Agent>
    </dc:creator>
   </cc:Work>
  </rdf:RDF>
 </metadata>
 <defs>
  <style type="text/css">*{stroke-linejoin: round; stroke-linecap: butt}</style>
 </defs>
 <g id="figure_1">
  <g id="patch_1">
   <path d="M 0 432 
L 576 432 
L 576 0 
L 0 0 
z
" style="fill: #ffffff"/>
  </g>
  <g id="axes_1">
   <g id="patch_2">
    <path d="M 52.94 288.132273 
L 554.600455 288.132273 
L 554.600455 26.88 
L 52.94 26.88 
z
" style="fill: #ffffff"/>
   </g>
   <g id="matplotlib.axis_1">
    <g id="xtick_1">
     <g id="line2d_1">
      <defs>
       <path id="m2b5969af0e" d="M 0 0 
L 0 3.5 
" style="stroke: #000000; stroke-width: 0.8"/>
      </defs>
      <g>
       <use xlink:href="#m2b5969af0e" x="79.543206" y="288.132273" style="stroke: #000000; stroke-width: 0.8"/>
      </g>
     </g>
    </g>
    <g id="xtick_2">
     <g id="line2d_2">
      <g>
       <use xlink:href="#m2b5969af0e" x="155.552366" y="288.132273" style="stroke: #000000; stroke-width: 0.8"/>
      </g>
     </g>
    </g>
    <g id="xtick_3">
     <g id="line2d_3">
      <g>
       <use xlink:href="#m2b5969af0e" x="232.828345" y="288.132273" style="stroke: #000000; stroke-width: 0.8"/>
      </g>
     </g>
    </g>
    <g id="xtick_4">
     <g id="line2d_4">
      <g>
       <use xlink:href="#m2b5969af0e" x="310.104324" y="288.132273" style="stroke: #000000; stroke-width: 0.8"/>
      </g>
     </g>
    </g>
    <g id="xtick_5">
     <g id="line2d_5">
      <g>
       <use xlink:href="#m2b5969af0e" x="388.647122" y="288.132273" style="stroke: #000000; stroke-width: 0.8"/>
      </g>
     </g>
    </g>
    <g id="xtick_6">
     <g id="line2d_6">
      <g>
       <use xlink:href="#m2b5969af0e" x="465.923101" y="288.132273" style="stroke: #000000; stroke-width: 0.8"/>
      </g>
     </g>
    </g>
    <g id="xtick_7">
     <g id="line2d_7">
      <g>
       <use xlink:href="#m2b5969af0e" x="543.199081" y="288.132273" style="stroke: #000000; stroke-width: 0.8"/>
      </g>
     </g>
    </g>
   </g>
   <g id="matplotlib.axis_2">
    <g id="ytick_1">
     <g id="line2d_8">
      <defs>
       <path id="mc9563a10d3" d="M 0 0 
L -3.5 0 
" style="stroke: #000000; stroke-width: 0.8"/>
      </defs>
      <g>
       <use xlink:href="#mc9563a10d3" x="52.94" y="252.649345" style="stroke: #000000; stroke-width: 0.8"/>
      </g>
     </g>
     <g id="text_1">
      <!-- −10 -->
      <g transform="translate(24.835313 256.448564)scale(0.1 -0.1)">
       <defs>
        <path id="DejaVuSans-2212" d="M 678 2272 
L 4684 2272 
L 4684 1741 
L 678 1741 
L 678 2272 
z
" transform="scale(0.015625)"/>
        <path id="DejaVuSans-31" d="M 794 531 
L 1825 531 
L 1825 4091 
L 703 3866 
L 703 4441 
L 1819 4666 
L 2450 4666 
L 2450 531 
L 3481 531 
L 3481 0 
L 794 0 
L 794 531 
z
" transform="scale(0.015625)"/>
        <path id="DejaVuSans-30" d="M 2034 4250 
Q 1547 4250 1301 3770 
Q 1056 3291 1056 2328 
Q 1056 1369 1301 889 
Q 1547 409 2034 409 
Q 2525 409 2770 889 
Q 3016 1369 3016 2328 
Q 3016 3291 2770 3770 
Q 2525 4250 2034 4250 
z
M 2034 4750 
Q 2819 4750 3233 4129 
Q 3647 3509 3647 2328 
Q 3647 1150 3233 529 
Q 2819 -91 2034 -91 
Q 1250 -91 836 529 
Q 422 1150 422 2328 
Q 422 3509 836 4129 
Q 1250 4750 2034 4750 
z
" transform="scale(0.015625)"/>
       </defs>
       <use xlink:href="#DejaVuSans-2212"/>
       <use xlink:href="#DejaVuSans-31" x="83.789062"/>
       <use xlink:href="#DejaVuSans-30" x="147.412109"/>
      </g>
     </g>
    </g>
    <g id="ytick_2">
     <g id="line2d_9">
      <g>
       <use xlink:href="#mc9563a10d3" x="52.94" y="214.65397" style="stroke: #000000; stroke-width: 0.8"/>
      </g>
     </g>
     <g id="text_2">
      <!-- −5 -->
      <g transform="translate(31.197813 218.453189)scale(0.1 -0.1)">
       <defs>
        <path id="DejaVuSans-35" d="M 691 4666 
L 3169 4666 
L 3169 4134 
L 1269 4134 
L 1269 2991 
Q 1406 3038 1543 3061 
Q 1681 3084 1819 3084 
Q 2600 3084 3056 2656 
Q 3513 2228 3513 1497 
Q 3513 744 3044 326 
Q 2575 -91 1722 -91 
Q 1428 -91 1123 -41 
Q 819 9 494 109 
L 494 744 
Q 775 591 1075 516 
Q 1375 441 1709 441 
Q 2250 441 2565 725 
Q 2881 1009 2881 1497 
Q 2881 1984 2565 2268 
Q 2250 2553 1709 2553 
Q 1456 2553 1204 2497 
Q 953 2441 691 2322 
L 691 4666 
z
" transform="scale(0.015625)"/>
       </defs>
       <use xlink:href="#DejaVuSans-2212"/>
       <use xlink:href="#DejaVuSans-35" x="83.789062"/>
      </g>
     </g>
    </g>
    <g id="ytick_3">
     <g id="line2d_10">
      <g>
       <use xlink:href="#mc9563a10d3" x="52.94" y="176.658596" style="stroke: #000000; stroke-width: 0.8"/>
      </g>
     </g>
     <g id="text_3">
      <!-- 0 -->
      <g transform="translate(39.5775 180.457814)scale(0.1 -0.1)">
       <use xlink:href="#DejaVuSans-30"/>
      </g>
     </g>
    </g>
    <g id="ytick_4">
     <g id="line2d_11">
      <g>
       <use xlink:href="#mc9563a10d3" x="52.94" y="138.663221" style="stroke: #000000; stroke-width: 0.8"/>
      </g>
     </g>
     <g id="text_4">
      <!-- 5 -->
      <g transform="translate(39.5775 142.46244)scale(0.1 -0.1)">
       <use xlink:href="#DejaVuSans-35"/>
      </g>
     </g>
    </g>
    <g id="ytick_5">
     <g id="line2d_12">
      <g>
       <use xlink:href="#mc9563a10d3" x="52.94" y="100.667847" style="stroke: #000000; stroke-width: 0.8"/>
      </g>
     </g>
     <g id="text_5">
      <!-- 10 -->
      <g transform="translate(33.215 104.467065)scale(0.1 -0.1)">
       <use xlink:href="#DejaVuSans-31"/>
       <use xlink:href="#DejaVuSans-30" x="63.623047"/>
      </g>
     </g>
    </g>
    <g id="ytick_6">
     <g id="line2d_13">
      <g>
       <use xlink:href="#mc9563a10d3" x="52.94" y="62.672472" style="stroke: #000000; stroke-width: 0.8"/>
      </g>
     </g>
     <g id="text_6">
      <!-- 15 -->
      <g transform="translate(33.215 66.471691)scale(0.1 -0.1)">
       <use xlink:href="#DejaVuSans-31"/>
       <use xlink:href="#DejaVuSans-35" x="63.623047"/>
      </g>
     </g>
    </g>
    <g id="text_7">
     <!-- Return [%] -->
     <g transform="translate(18.755625 184.338949)rotate(-90)scale(0.1 -0.1)">
      <defs>
       <path id="DejaVuSans-52" d="M 2841 2188 
Q 3044 2119 3236 1894 
Q 3428 1669 3622 1275 
L 4263 0 
L 3584 0 
L 2988 1197 
Q 2756 1666 2539 1819 
Q 2322 1972 1947 1972 
L 1259 1972 
L 1259 0 
L 628 0 
L 628 4666 
L 2053 4666 
Q 2853 4666 3247 4331 
Q 3641 3997 3641 3322 
Q 3641 2881 3436 2590 
Q 3231 2300 2841 2188 
z
M 1259 4147 
L 1259 2491 
L 2053 2491 
Q 2509 2491 2742 2702 
Q 2975 2913 2975 3322 
Q 2975 3731 2742 3939 
Q 2509 4147 2053 4147 
L 1259 4147 
z
" transform="scale(0.015625)"/>
       <path id="DejaVuSans-65" d="M 3597 1894 
L 3597 1613 
L 953 1613 
Q 991 1019 1311 708 
Q 1631 397 2203 397 
Q 2534 397 2845 478 
Q 3156 559 3463 722 
L 3463 178 
Q 3153 47 2828 -22 
Q 2503 -91 2169 -91 
Q 1331 -91 842 396 
Q 353 884 353 1716 
Q 353 2575 817 3079 
Q 1281 3584 2069 3584 
Q 2775 3584 3186 3129 
Q 3597 2675 3597 1894 
z
M 3022 2063 
Q 3016 2534 2758 2815 
Q 2500 3097 2075 3097 
Q 1594 3097 1305 2825 
Q 1016 2553 972 2059 
L 3022 2063 
z
" transform="scale(0.015625)"/>
       <path id="DejaVuSans-74" d="M 1172 4494 
L 1172 3500 
L 2356 3500 
L 2356 3053 
L 1172 3053 
L 1172 1153 
Q 1172 725 1289 603 
Q 1406 481 1766 481 
L 2356 481 
L 2356 0 
L 1766 0 
Q 1100 0 847 248 
Q 594 497 594 1153 
L 594 3053 
L 172 3053 
L 172 3500 
L 594 3500 
L 594 4494 
L 1172 4494 
z
" transform="scale(0.015625)"/>
       <path id="DejaVuSans-75" d="M 544 1381 
L 544 3500 
L 1119 3500 
L 1119 1403 
Q 1119 906 1312 657 
Q 1506 409 1894 409 
Q 2359 409 2629 706 
Q 2900 1003 2900 1516 
L 2900 3500 
L 3475 3500 
L 3475 0 
L 2900 0 
L 2900 538 
Q 2691 219 2414 64 
Q 2138 -91 1772 -91 
Q 1169 -91 856 284 
Q 544 659 544 1381 
z
M 1991 3584 
L 1991 3584 
z
" transform="scale(0.015625)"/>
       <path id="DejaVuSans-72" d="M 2631 2963 
Q 2534 3019 2420 3045 
Q 2306 3072 2169 3072 
Q 1681 3072 1420 2755 
Q 1159 2438 1159 1844 
L 1159 0 
L 581 0 
L 581 3500 
L 1159 3500 
L 1159 2956 
Q 1341 3275 1631 3429 
Q 1922 3584 2338 3584 
Q 2397 3584 2469 3576 
Q 2541 3569 2628 3553 
L 2631 2963 
z
" transform="scale(0.015625)"/>
       <path id="DejaVuSans-6e" d="M 3513 2113 
L 3513 0 
L 2938 0 
L 2938 2094 
Q 2938 2591 2744 2837 
Q 2550 3084 2163 3084 
Q 1697 3084 1428 2787 
Q 1159 2491 1159 1978 
L 1159 0 
L 581 0 
L 581 3500 
L 1159 3500 
L 1159 2956 
Q 1366 3272 1645 3428 
Q 1925 3584 2291 3584 
Q 2894 3584 3203 3211 
Q 3513 2838 3513 2113 
z
" transform="scale(0.015625)"/>
       <path id="DejaVuSans-20" transform="scale(0.015625)"/>
       <path id="DejaVuSans-5b" d="M 550 4863 
L 1875 4863 
L 1875 4416 
L 1125 4416 
L 1125 -397 
L 1875 -397 
L 1875 -844 
L 550 -844 
L 550 4863 
z
" transform="scale(0.015625)"/>
       <path id="DejaVuSans-25" d="M 4653 2053 
Q 4381 2053 4226 1822 
Q 4072 1591 4072 1178 
Q 4072 772 4226 539 
Q 4381 306 4653 306 
Q 4919 306 5073 539 
Q 5228 772 5228 1178 
Q 5228 1588 5073 1820 
Q 4919 2053 4653 2053 
z
M 4653 2450 
Q 5147 2450 5437 2106 
Q 5728 1763 5728 1178 
Q 5728 594 5436 251 
Q 5144 -91 4653 -91 
Q 4153 -91 3862 251 
Q 3572 594 3572 1178 
Q 3572 1766 3864 2108 
Q 4156 2450 4653 2450 
z
M 1428 4353 
Q 1159 4353 1004 4120 
Q 850 3888 850 3481 
Q 850 3069 1003 2837 
Q 1156 2606 1428 2606 
Q 1700 2606 1854 2837 
Q 2009 3069 2009 3481 
Q 2009 3884 1853 4118 
Q 1697 4353 1428 4353 
z
M 4250 4750 
L 4750 4750 
L 1831 -91 
L 1331 -91 
L 4250 4750 
z
M 1428 4750 
Q 1922 4750 2215 4408 
Q 2509 4066 2509 3481 
Q 2509 2891 2217 2550 
Q 1925 2209 1428 2209 
Q 931 2209 642 2551 
Q 353 2894 353 3481 
Q 353 4063 643 4406 
Q 934 4750 1428 4750 
z
" transform="scale(0.015625)"/>
       <path id="DejaVuSans-5d" d="M 1947 4863 
L 1947 -844 
L 622 -844 
L 622 -397 
L 1369 -397 
L 1369 4416 
L 622 4416 
L 622 4863 
L 1947 4863 
z
" transform="scale(0.015625)"/>
      </defs>
      <use xlink:href="#DejaVuSans-52"/>
      <use xlink:href="#DejaVuSans-65" x="64.982422"/>
      <use xlink:href="#DejaVuSans-74" x="126.505859"/>
      <use xlink:href="#DejaVuSans-75" x="165.714844"/>
      <use xlink:href="#DejaVuSans-72" x="229.09375"/>
      <use xlink:href="#DejaVuSans-6e" x="268.457031"/>
      <use xlink:href="#DejaVuSans-20" x="331.835938"/>
      <use xlink:href="#DejaVuSans-5b" x="363.623047"/>
      <use xlink:href="#DejaVuSans-25" x="402.636719"/>
      <use xlink:href="#DejaVuSans-5d" x="497.65625"/>
     </g>
    </g>
   </g>
   <g id="line2d_14">
    <path d="M 75.742748 166.648239 
L 77.009567 169.892822 
L 83.343664 197.679232 
L 84.610483 201.577183 
L 87.144122 217.428107 
L 88.410941 221.855429 
L 92.211399 221.919547 
L 93.478219 220.532796 
L 94.745038 215.38269 
L 96.011857 226.780327 
L 97.278677 244.917773 
L 101.079135 244.504981 
L 102.345954 230.650723 
L 103.612773 252.492706 
L 104.879593 241.018233 
L 106.146412 215.179738 
L 109.94687 218.862019 
L 111.213689 207.562943 
L 112.480508 212.938787 
L 113.747328 230.039217 
L 115.014147 217.850438 
L 118.814605 225.209701 
L 120.081424 236.942766 
L 121.348244 244.785828 
L 122.615063 229.825138 
L 123.881882 231.739139 
L 127.68234 261.497841 
L 128.94916 262.826303 
L 130.215979 248.851227 
L 131.482798 275.746345 
L 132.749618 254.761212 
L 136.550076 228.52688 
L 137.816895 232.780924 
L 139.083714 208.351436 
L 140.350534 214.319709 
L 141.617353 218.049151 
L 145.417811 202.259695 
L 146.68463 212.44227 
L 147.95145 232.938835 
L 149.218269 215.388519 
L 150.485088 210.178534 
L 154.285546 209.257036 
L 155.552366 199.235021 
L 156.819185 203.336984 
L 158.086004 200.296413 
L 159.352824 192.709822 
L 163.153282 196.275525 
L 164.420101 199.698685 
L 165.68692 195.517237 
L 166.95374 202.623207 
L 168.220559 184.957903 
L 172.021017 181.883948 
L 173.287836 192.609141 
L 174.554656 198.363334 
L 175.821475 199.550312 
L 177.088294 199.273174 
L 180.888752 206.595344 
L 182.155572 204.011018 
L 183.422391 211.552567 
L 184.68921 223.668749 
L 191.023307 221.888813 
L 192.290126 206.985351 
L 193.556946 212.879438 
L 194.823765 216.843627 
L 198.624223 214.916907 
L 199.891042 229.75996 
L 201.157862 221.720834 
L 202.424681 231.351782 
L 203.6915 213.280573 
L 207.491958 211.335837 
L 208.758778 212.403057 
L 210.025597 198.630934 
L 211.292416 203.124494 
L 212.559236 204.596028 
L 216.359694 204.302463 
L 217.626513 188.946466 
L 218.893332 184.281219 
L 220.160152 189.67614 
L 221.426971 196.626849 
L 225.227429 200.231235 
L 226.494248 200.111477 
L 227.761067 201.711248 
L 229.027887 200.209509 
L 230.294706 215.524173 
L 234.095164 219.65528 
L 236.628803 237.536785 
L 239.162441 242.835263 
L 242.962899 232.75178 
L 244.229719 230.431344 
L 245.496538 233.847615 
L 246.763357 241.188331 
L 248.030177 235.411352 
L 251.830635 228.542248 
L 253.097454 230.894477 
L 254.364273 226.008792 
L 255.631093 236.144205 
L 256.897912 225.078286 
L 260.69837 227.045808 
L 261.965189 217.438705 
L 264.498828 207.344624 
L 265.765647 207.158099 
L 269.566105 205.406247 
L 270.832925 210.878003 
L 272.099744 217.620991 
L 273.366563 216.358237 
L 274.633383 223.617349 
L 279.70066 212.109492 
L 280.967479 215.11403 
L 282.234299 224.379876 
L 283.501118 239.715207 
L 287.301576 250.606259 
L 288.568395 261.488303 
L 289.835215 245.529809 
L 291.102034 258.975513 
L 292.368853 248.553423 
L 296.169311 226.346338 
L 297.436131 224.066705 
L 298.70295 218.762927 
L 299.969769 215.514105 
L 305.037047 276.257169 
L 307.570685 242.624363 
L 308.837505 235.202571 
L 310.104324 226.359056 
L 313.904782 234.163436 
L 315.171601 246.101042 
L 316.438421 255.865525 
L 318.972059 233.804163 
L 322.772517 221.1549 
L 324.039337 218.809559 
L 325.306156 217.836661 
L 327.839795 209.119792 
L 331.640253 211.530841 
L 332.907072 209.594583 
L 334.173891 201.812459 
L 335.440711 204.399435 
L 336.70753 206.644095 
L 340.507988 202.138878 
L 341.774807 203.855227 
L 343.041626 201.323891 
L 344.308446 204.200192 
L 345.575265 201.775896 
L 349.375723 205.588533 
L 350.642542 216.633786 
L 351.909362 219.962623 
L 354.443 205.9229 
L 358.243458 202.294139 
L 359.510278 188.690524 
L 360.777097 191.532913 
L 362.043916 185.749575 
L 363.310736 187.177128 
L 367.111194 183.267519 
L 369.644832 198.9192 
L 370.911652 193.104598 
L 372.178471 198.088846 
L 375.978929 199.224423 
L 377.245748 191.232459 
L 378.512568 187.845862 
L 379.779387 192.012473 
L 381.046206 188.530494 
L 384.846664 188.355097 
L 386.113484 184.937767 
L 387.380303 185.090908 
L 388.647122 185.386593 
L 389.913942 174.971921 
L 393.7144 173.104021 
L 394.981219 176.055569 
L 396.248038 172.702886 
L 397.514858 173.493498 
L 398.781677 180.629143 
L 402.582135 185.50635 
L 403.848954 188.989388 
L 405.115774 189.46365 
L 406.382593 185.788787 
L 407.649412 191.890066 
L 411.44987 184.632014 
L 412.71669 184.932468 
L 413.983509 182.699465 
L 415.250328 170.324691 
L 416.517148 174.823549 
L 420.317606 185.065473 
L 421.584425 183.473121 
L 422.851244 181.328612 
L 424.118064 176.2617 
L 425.384883 173.994784 
L 429.185341 171.673289 
L 430.45216 164.913873 
L 431.71898 166.886694 
L 432.985799 163.768758 
L 434.252618 167.333931 
L 438.053076 158.965206 
L 440.586715 172.185173 
L 441.853534 180.560256 
L 443.120354 170.3284 
L 446.920812 174.419765 
L 448.187631 163.637872 
L 449.45445 165.418339 
L 450.72127 159.815167 
L 451.988089 160.341889 
L 455.788547 164.61236 
L 457.055366 167.536353 
L 458.322185 165.976325 
L 459.589005 164.740066 
L 460.855824 163.251044 
L 464.656282 170.143995 
L 467.189921 185.498402 
L 468.45674 183.571152 
L 469.723559 191.472504 
L 473.524017 177.868359 
L 474.790837 173.808789 
L 476.057656 164.653162 
L 477.324475 162.63583 
L 478.591295 167.399108 
L 482.391753 171.874121 
L 483.658572 159.486099 
L 484.925391 163.840294 
L 486.192211 156.526073 
L 487.45903 154.181262 
L 491.259488 153.064231 
L 492.526307 149.637892 
L 493.793127 150.916542 
L 495.059946 150.01836 
L 496.326765 146.362575 
L 500.127223 156.190646 
L 501.394043 159.10722 
L 502.660862 151.708214 
L 503.927681 153.398598 
L 505.194501 157.567858 
L 508.994959 150.571577 
L 510.261778 145.863408 
L 511.528597 139.619586 
L 512.795417 131.038372 
L 514.062236 123.553522 
L 517.862694 121.618325 
L 519.129513 114.690401 
L 520.396333 119.783278 
L 521.663152 114.946343 
L 522.929971 116.176243 
L 526.730429 119.083279 
L 527.997249 122.254206 
L 529.264068 128.219829 
L 530.530887 131.361082 
L 531.797707 128.042842 
L 531.797707 128.042842 
" clip-path="url(#p80fefbe03c)" style="fill: none; stroke: #008000; stroke-width: 1.5; stroke-linecap: square"/>
   </g>
   <g id="line2d_15">
    <path d="M 75.742748 175.024983 
L 77.009567 166.96934 
L 83.343664 173.02163 
L 84.610483 182.068311 
L 87.144122 196.33379 
L 88.410941 202.536361 
L 92.211399 215.073844 
L 93.478219 221.698783 
L 94.745038 220.228606 
L 96.011857 227.260592 
L 115.014147 227.260592 
L 118.814605 224.394522 
L 120.081424 226.477019 
L 121.348244 235.142006 
L 122.615063 232.311979 
L 123.881882 237.011102 
L 127.68234 238.1621 
L 128.94916 266.057139 
L 139.083714 266.057139 
L 140.350534 261.196727 
L 141.617353 261.61998 
L 145.417811 267.841038 
L 146.68463 261.766404 
L 149.218269 266.90473 
L 150.485088 266.787695 
L 154.285546 269.522911 
L 155.552366 269.686316 
L 156.819185 256.837955 
L 158.086004 257.302432 
L 159.352824 261.136218 
L 163.153282 257.428507 
L 164.420101 258.840398 
L 165.68692 263.618585 
L 166.95374 258.318736 
L 168.220559 267.306121 
L 172.021017 253.450283 
L 173.287836 256.572744 
L 174.554656 254.601515 
L 175.821475 255.487993 
L 177.088294 254.986023 
L 180.888752 255.739068 
L 182.155572 253.86612 
L 183.422391 253.337273 
L 184.68921 252.108149 
L 191.023307 252.9898 
L 192.290126 251.813724 
L 193.556946 246.334267 
L 194.823765 244.26579 
L 198.624223 245.328339 
L 199.891042 252.779436 
L 201.157862 253.441708 
L 202.424681 252.626676 
L 203.6915 255.151371 
L 207.491958 245.835015 
L 208.758778 244.510576 
L 211.292416 233.13202 
L 212.559236 233.00857 
L 216.359694 222.812062 
L 217.626513 221.302304 
L 218.893332 211.833703 
L 221.426971 216.957368 
L 225.227429 214.710283 
L 226.494248 212.50125 
L 227.761067 217.711865 
L 229.027887 224.706739 
L 230.294706 228.577923 
L 234.095164 231.901851 
L 235.361983 240.007141 
L 253.097454 240.007141 
L 254.364273 241.8559 
L 255.631093 238.307567 
L 256.897912 243.184496 
L 260.69837 232.550248 
L 263.232009 243.47917 
L 264.498828 243.887617 
L 265.765647 237.533485 
L 269.566105 236.024528 
L 270.832925 231.565873 
L 272.099744 236.747247 
L 273.366563 231.075924 
L 274.633383 228.917113 
L 279.70066 229.442922 
L 280.967479 226.699287 
L 282.234299 228.934858 
L 283.501118 224.803106 
L 287.301576 240.351344 
L 308.837505 240.351344 
L 310.104324 224.477791 
L 313.904782 226.612865 
L 315.171601 227.571554 
L 316.438421 231.744365 
L 317.70524 231.71287 
L 318.972059 229.732746 
L 322.772517 224.395084 
L 324.039337 200.985323 
L 325.306156 198.979784 
L 326.572975 181.735629 
L 327.839795 176.526941 
L 331.640253 179.284901 
L 332.907072 178.268851 
L 334.173891 158.423317 
L 335.440711 155.312949 
L 336.70753 162.707068 
L 340.507988 167.737436 
L 341.774807 165.212153 
L 343.041626 160.355475 
L 344.308446 158.395357 
L 345.575265 161.132789 
L 349.375723 160.341545 
L 350.642542 157.693213 
L 351.909362 160.236959 
L 353.176181 163.910297 
L 354.443 157.899584 
L 358.243458 155.453228 
L 359.510278 151.96641 
L 360.777097 152.404645 
L 362.043916 149.647071 
L 363.310736 147.700905 
L 367.111194 142.127009 
L 368.378013 137.836425 
L 369.644832 136.241515 
L 370.911652 145.717022 
L 372.178471 142.968575 
L 375.978929 143.927856 
L 377.245748 139.658716 
L 378.512568 130.656587 
L 379.779387 131.972639 
L 381.046206 132.088845 
L 384.846664 130.580214 
L 386.113484 121.193766 
L 387.380303 119.67152 
L 388.647122 119.963775 
L 389.913942 114.357106 
L 393.7144 108.3899 
L 394.981219 112.465529 
L 396.248038 107.606104 
L 397.514858 112.828383 
L 398.781677 112.325583 
L 402.582135 120.579535 
L 403.848954 114.893234 
L 405.115774 116.842529 
L 406.382593 115.208341 
L 407.649412 119.615817 
L 411.44987 117.640339 
L 412.71669 115.482819 
L 413.983509 107.740955 
L 415.250328 110.466731 
L 416.517148 108.570791 
L 420.317606 107.673076 
L 421.584425 109.794582 
L 422.851244 107.112258 
L 424.118064 107.413719 
L 425.384883 105.314137 
L 429.185341 101.644314 
L 430.45216 89.918182 
L 431.71898 80.245534 
L 432.985799 87.300425 
L 434.252618 88.684467 
L 438.053076 88.994445 
L 439.319896 77.040019 
L 440.586715 54.882456 
L 441.853534 38.755103 
L 443.120354 38.755103 
L 446.920812 81.037551 
L 448.187631 100.637273 
L 449.45445 76.665164 
L 450.72127 61.898132 
L 451.988089 70.318337 
L 457.055366 82.975978 
L 458.322185 81.139699 
L 459.589005 80.641694 
L 460.855824 80.596104 
L 464.656282 83.476536 
L 465.923101 85.458681 
L 467.189921 103.234963 
L 483.658572 103.234963 
L 484.925391 97.69049 
L 486.192211 104.625721 
L 487.45903 96.386556 
L 492.526307 89.937051 
L 493.793127 84.434227 
L 495.059946 83.481172 
L 496.326765 88.242824 
L 500.127223 88.338487 
L 501.394043 87.495768 
L 502.660862 88.10294 
L 503.927681 87.287999 
L 505.194501 86.022323 
L 508.994959 94.945576 
L 510.261778 89.940364 
L 511.528597 88.465053 
L 512.795417 82.853186 
L 514.062236 85.38611 
L 517.862694 78.0384 
L 520.396333 78.0384 
L 521.663152 78.334906 
L 522.929971 72.420032 
L 527.997249 70.198116 
L 529.264068 70.994346 
L 530.530887 72.177104 
L 531.797707 76.441216 
L 531.797707 76.441216 
" clip-path="url(#p80fefbe03c)" style="fill: none; stroke: #0000ff; stroke-width: 1.5; stroke-linecap: square"/>
   </g>
   <g id="line2d_16">
    <path d="M 75.742748 175.024983 
L 77.009567 166.96934 
L 332.907072 166.96934 
L 334.173891 158.423317 
L 335.440711 155.312949 
L 358.243458 155.312949 
L 359.510278 151.96641 
L 360.777097 151.96641 
L 362.043916 149.647071 
L 363.310736 147.700905 
L 367.111194 142.127009 
L 368.378013 137.836425 
L 369.644832 136.241515 
L 377.245748 136.241515 
L 378.512568 130.656587 
L 384.846664 130.580214 
L 386.113484 121.193766 
L 387.380303 119.67152 
L 388.647122 119.67152 
L 389.913942 114.357106 
L 393.7144 108.3899 
L 394.981219 108.3899 
L 396.248038 107.606104 
L 421.584425 107.606104 
L 422.851244 107.112258 
L 424.118064 107.112258 
L 425.384883 105.314137 
L 429.185341 101.644314 
L 430.45216 89.918182 
L 431.71898 80.245534 
L 438.053076 80.245534 
L 439.319896 77.040019 
L 440.586715 54.882456 
L 441.853534 38.755103 
L 531.797707 38.755103 
L 531.797707 38.755103 
" clip-path="url(#p80fefbe03c)" style="fill: none; stroke: #ff0000; stroke-width: 1.5; stroke-linecap: square"/>
   </g>
   <g id="patch_3">
    <path d="M 52.94 288.132273 
L 52.94 26.88 
" style="fill: none; stroke: #000000; stroke-width: 0.8; stroke-linejoin: miter; stroke-linecap: square"/>
   </g>
   <g id="patch_4">
    <path d="M 554.600455 288.132273 
L 554.600455 26.88 
" style="fill: none; stroke: #000000; stroke-width: 0.8; stroke-linejoin: miter; stroke-linecap: square"/>
   </g>
   <g id="patch_5">
    <path d="M 52.94 288.132273 
L 554.600455 288.132273 
" style="fill: none; stroke: #000000; stroke-width: 0.8; stroke-linejoin: miter; stroke-linecap: square"/>
   </g>
   <g id="patch_6">
    <path d="M 52.94 26.88 
L 554.600455 26.88 
" style="fill: none; stroke: #000000; stroke-width: 0.8; stroke-linejoin: miter; stroke-linecap: square"/>
   </g>
   <g id="text_8">
    <!-- Performance of AVAN-strategy year 2016 -->
    <g transform="translate(180.457102 20.88)scale(0.12 -0.12)">
     <defs>
      <path id="DejaVuSans-50" d="M 1259 4147 
L 1259 2394 
L 2053 2394 
Q 2494 2394 2734 2622 
Q 2975 2850 2975 3272 
Q 2975 3691 2734 3919 
Q 2494 4147 2053 4147 
L 1259 4147 
z
M 628 4666 
L 2053 4666 
Q 2838 4666 3239 4311 
Q 3641 3956 3641 3272 
Q 3641 2581 3239 2228 
Q 2838 1875 2053 1875 
L 1259 1875 
L 1259 0 
L 628 0 
L 628 4666 
z
" transform="scale(0.015625)"/>
      <path id="DejaVuSans-66" d="M 2375 4863 
L 2375 4384 
L 1825 4384 
Q 1516 4384 1395 4259 
Q 1275 4134 1275 3809 
L 1275 3500 
L 2222 3500 
L 2222 3053 
L 1275 3053 
L 1275 0 
L 697 0 
L 697 3053 
L 147 3053 
L 147 3500 
L 697 3500 
L 697 3744 
Q 697 4328 969 4595 
Q 1241 4863 1831 4863 
L 2375 4863 
z
" transform="scale(0.015625)"/>
      <path id="DejaVuSans-6f" d="M 1959 3097 
Q 1497 3097 1228 2736 
Q 959 2375 959 1747 
Q 959 1119 1226 758 
Q 1494 397 1959 397 
Q 2419 397 2687 759 
Q 2956 1122 2956 1747 
Q 2956 2369 2687 2733 
Q 2419 3097 1959 3097 
z
M 1959 3584 
Q 2709 3584 3137 3096 
Q 3566 2609 3566 1747 
Q 3566 888 3137 398 
Q 2709 -91 1959 -91 
Q 1206 -91 779 398 
Q 353 888 353 1747 
Q 353 2609 779 3096 
Q 1206 3584 1959 3584 
z
" transform="scale(0.015625)"/>
      <path id="DejaVuSans-6d" d="M 3328 2828 
Q 3544 3216 3844 3400 
Q 4144 3584 4550 3584 
Q 5097 3584 5394 3201 
Q 5691 2819 5691 2113 
L 5691 0 
L 5113 0 
L 5113 2094 
Q 5113 2597 4934 2840 
Q 4756 3084 4391 3084 
Q 3944 3084 3684 2787 
Q 3425 2491 3425 1978 
L 3425 0 
L 2847 0 
L 2847 2094 
Q 2847 2600 2669 2842 
Q 2491 3084 2119 3084 
Q 1678 3084 1418 2786 
Q 1159 2488 1159 1978 
L 1159 0 
L 581 0 
L 581 3500 
L 1159 3500 
L 1159 2956 
Q 1356 3278 1631 3431 
Q 1906 3584 2284 3584 
Q 2666 3584 2933 3390 
Q 3200 3197 3328 2828 
z
" transform="scale(0.015625)"/>
      <path id="DejaVuSans-61" d="M 2194 1759 
Q 1497 1759 1228 1600 
Q 959 1441 959 1056 
Q 959 750 1161 570 
Q 1363 391 1709 391 
Q 2188 391 2477 730 
Q 2766 1069 2766 1631 
L 2766 1759 
L 2194 1759 
z
M 3341 1997 
L 3341 0 
L 2766 0 
L 2766 531 
Q 2569 213 2275 61 
Q 1981 -91 1556 -91 
Q 1019 -91 701 211 
Q 384 513 384 1019 
Q 384 1609 779 1909 
Q 1175 2209 1959 2209 
L 2766 2209 
L 2766 2266 
Q 2766 2663 2505 2880 
Q 2244 3097 1772 3097 
Q 1472 3097 1187 3025 
Q 903 2953 641 2809 
L 641 3341 
Q 956 3463 1253 3523 
Q 1550 3584 1831 3584 
Q 2591 3584 2966 3190 
Q 3341 2797 3341 1997 
z
" transform="scale(0.015625)"/>
      <path id="DejaVuSans-63" d="M 3122 3366 
L 3122 2828 
Q 2878 2963 2633 3030 
Q 2388 3097 2138 3097 
Q 1578 3097 1268 2742 
Q 959 2388 959 1747 
Q 959 1106 1268 751 
Q 1578 397 2138 397 
Q 2388 397 2633 464 
Q 2878 531 3122 666 
L 3122 134 
Q 2881 22 2623 -34 
Q 2366 -91 2075 -91 
Q 1284 -91 818 406 
Q 353 903 353 1747 
Q 353 2603 823 3093 
Q 1294 3584 2113 3584 
Q 2378 3584 2631 3529 
Q 2884 3475 3122 3366 
z
" transform="scale(0.015625)"/>
      <path id="DejaVuSans-41" d="M 2188 4044 
L 1331 1722 
L 3047 1722 
L 2188 4044 
z
M 1831 4666 
L 2547 4666 
L 4325 0 
L 3669 0 
L 3244 1197 
L 1141 1197 
L 716 0 
L 50 0 
L 1831 4666 
z
" transform="scale(0.015625)"/>
      <path id="DejaVuSans-56" d="M 1831 0 
L 50 4666 
L 709 4666 
L 2188 738 
L 3669 4666 
L 4325 4666 
L 2547 0 
L 1831 0 
z
" transform="scale(0.015625)"/>
      <path id="DejaVuSans-4e" d="M 628 4666 
L 1478 4666 
L 3547 763 
L 3547 4666 
L 4159 4666 
L 4159 0 
L 3309 0 
L 1241 3903 
L 1241 0 
L 628 0 
L 628 4666 
z
" transform="scale(0.015625)"/>
      <path id="DejaVuSans-2d" d="M 313 2009 
L 1997 2009 
L 1997 1497 
L 313 1497 
L 313 2009 
z
" transform="scale(0.015625)"/>
      <path id="DejaVuSans-73" d="M 2834 3397 
L 2834 2853 
Q 2591 2978 2328 3040 
Q 2066 3103 1784 3103 
Q 1356 3103 1142 2972 
Q 928 2841 928 2578 
Q 928 2378 1081 2264 
Q 1234 2150 1697 2047 
L 1894 2003 
Q 2506 1872 2764 1633 
Q 3022 1394 3022 966 
Q 3022 478 2636 193 
Q 2250 -91 1575 -91 
Q 1294 -91 989 -36 
Q 684 19 347 128 
L 347 722 
Q 666 556 975 473 
Q 1284 391 1588 391 
Q 1994 391 2212 530 
Q 2431 669 2431 922 
Q 2431 1156 2273 1281 
Q 2116 1406 1581 1522 
L 1381 1569 
Q 847 1681 609 1914 
Q 372 2147 372 2553 
Q 372 3047 722 3315 
Q 1072 3584 1716 3584 
Q 2034 3584 2315 3537 
Q 2597 3491 2834 3397 
z
" transform="scale(0.015625)"/>
      <path id="DejaVuSans-67" d="M 2906 1791 
Q 2906 2416 2648 2759 
Q 2391 3103 1925 3103 
Q 1463 3103 1205 2759 
Q 947 2416 947 1791 
Q 947 1169 1205 825 
Q 1463 481 1925 481 
Q 2391 481 2648 825 
Q 2906 1169 2906 1791 
z
M 3481 434 
Q 3481 -459 3084 -895 
Q 2688 -1331 1869 -1331 
Q 1566 -1331 1297 -1286 
Q 1028 -1241 775 -1147 
L 775 -588 
Q 1028 -725 1275 -790 
Q 1522 -856 1778 -856 
Q 2344 -856 2625 -561 
Q 2906 -266 2906 331 
L 2906 616 
Q 2728 306 2450 153 
Q 2172 0 1784 0 
Q 1141 0 747 490 
Q 353 981 353 1791 
Q 353 2603 747 3093 
Q 1141 3584 1784 3584 
Q 2172 3584 2450 3431 
Q 2728 3278 2906 2969 
L 2906 3500 
L 3481 3500 
L 3481 434 
z
" transform="scale(0.015625)"/>
      <path id="DejaVuSans-79" d="M 2059 -325 
Q 1816 -950 1584 -1140 
Q 1353 -1331 966 -1331 
L 506 -1331 
L 506 -850 
L 844 -850 
Q 1081 -850 1212 -737 
Q 1344 -625 1503 -206 
L 1606 56 
L 191 3500 
L 800 3500 
L 1894 763 
L 2988 3500 
L 3597 3500 
L 2059 -325 
z
" transform="scale(0.015625)"/>
      <path id="DejaVuSans-32" d="M 1228 531 
L 3431 531 
L 3431 0 
L 469 0 
L 469 531 
Q 828 903 1448 1529 
Q 2069 2156 2228 2338 
Q 2531 2678 2651 2914 
Q 2772 3150 2772 3378 
Q 2772 3750 2511 3984 
Q 2250 4219 1831 4219 
Q 1534 4219 1204 4116 
Q 875 4013 500 3803 
L 500 4441 
Q 881 4594 1212 4672 
Q 1544 4750 1819 4750 
Q 2544 4750 2975 4387 
Q 3406 4025 3406 3419 
Q 3406 3131 3298 2873 
Q 3191 2616 2906 2266 
Q 2828 2175 2409 1742 
Q 1991 1309 1228 531 
z
" transform="scale(0.015625)"/>
      <path id="DejaVuSans-36" d="M 2113 2584 
Q 1688 2584 1439 2293 
Q 1191 2003 1191 1497 
Q 1191 994 1439 701 
Q 1688 409 2113 409 
Q 2538 409 2786 701 
Q 3034 994 3034 1497 
Q 3034 2003 2786 2293 
Q 2538 2584 2113 2584 
z
M 3366 4563 
L 3366 3988 
Q 3128 4100 2886 4159 
Q 2644 4219 2406 4219 
Q 1781 4219 1451 3797 
Q 1122 3375 1075 2522 
Q 1259 2794 1537 2939 
Q 1816 3084 2150 3084 
Q 2853 3084 3261 2657 
Q 3669 2231 3669 1497 
Q 3669 778 3244 343 
Q 2819 -91 2113 -91 
Q 1303 -91 875 529 
Q 447 1150 447 2328 
Q 447 3434 972 4092 
Q 1497 4750 2381 4750 
Q 2619 4750 2861 4703 
Q 3103 4656 3366 4563 
z
" transform="scale(0.015625)"/>
     </defs>
     <use xlink:href="#DejaVuSans-50"/>
     <use xlink:href="#DejaVuSans-65" x="56.677734"/>
     <use xlink:href="#DejaVuSans-72" x="118.201172"/>
     <use xlink:href="#DejaVuSans-66" x="159.314453"/>
     <use xlink:href="#DejaVuSans-6f" x="194.519531"/>
     <use xlink:href="#DejaVuSans-72" x="255.701172"/>
     <use xlink:href="#DejaVuSans-6d" x="295.064453"/>
     <use xlink:href="#DejaVuSans-61" x="392.476562"/>
     <use xlink:href="#DejaVuSans-6e" x="453.755859"/>
     <use xlink:href="#DejaVuSans-63" x="517.134766"/>
     <use xlink:href="#DejaVuSans-65" x="572.115234"/>
     <use xlink:href="#DejaVuSans-20" x="633.638672"/>
     <use xlink:href="#DejaVuSans-6f" x="665.425781"/>
     <use xlink:href="#DejaVuSans-66" x="726.607422"/>
     <use xlink:href="#DejaVuSans-20" x="761.8125"/>
     <use xlink:href="#DejaVuSans-41" x="793.599609"/>
     <use xlink:href="#DejaVuSans-56" x="855.632812"/>
     <use xlink:href="#DejaVuSans-41" x="917.666016"/>
     <use xlink:href="#DejaVuSans-4e" x="986.074219"/>
     <use xlink:href="#DejaVuSans-2d" x="1060.878906"/>
     <use xlink:href="#DejaVuSans-73" x="1096.962891"/>
     <use xlink:href="#DejaVuSans-74" x="1149.0625"/>
     <use xlink:href="#DejaVuSans-72" x="1188.271484"/>
     <use xlink:href="#DejaVuSans-61" x="1229.384766"/>
     <use xlink:href="#DejaVuSans-74" x="1290.664062"/>
     <use xlink:href="#DejaVuSans-65" x="1329.873047"/>
     <use xlink:href="#DejaVuSans-67" x="1391.396484"/>
     <use xlink:href="#DejaVuSans-79" x="1454.873047"/>
     <use xlink:href="#DejaVuSans-20" x="1514.052734"/>
     <use xlink:href="#DejaVuSans-79" x="1545.839844"/>
     <use xlink:href="#DejaVuSans-65" x="1605.019531"/>
     <use xlink:href="#DejaVuSans-61" x="1666.542969"/>
     <use xlink:href="#DejaVuSans-72" x="1727.822266"/>
     <use xlink:href="#DejaVuSans-20" x="1768.935547"/>
     <use xlink:href="#DejaVuSans-32" x="1800.722656"/>
     <use xlink:href="#DejaVuSans-30" x="1864.345703"/>
     <use xlink:href="#DejaVuSans-31" x="1927.96875"/>
     <use xlink:href="#DejaVuSans-36" x="1991.591797"/>
    </g>
   </g>
   <g id="legend_1">
    <g id="patch_7">
     <path d="M 59.94 78.914375 
L 187.361875 78.914375 
Q 189.361875 78.914375 189.361875 76.914375 
L 189.361875 33.88 
Q 189.361875 31.88 187.361875 31.88 
L 59.94 31.88 
Q 57.94 31.88 57.94 33.88 
L 57.94 76.914375 
Q 57.94 78.914375 59.94 78.914375 
z
" style="fill: #ffffff; opacity: 0.8; stroke: #cccccc; stroke-linejoin: miter"/>
    </g>
    <g id="line2d_17">
     <path d="M 61.94 39.978438 
L 71.94 39.978438 
L 81.94 39.978438 
" style="fill: none; stroke: #008000; stroke-width: 1.5; stroke-linecap: square"/>
    </g>
    <g id="text_9">
     <!-- 6.4% return omx -->
     <g transform="translate(89.94 43.478438)scale(0.1 -0.1)">
      <defs>
       <path id="DejaVuSans-2e" d="M 684 794 
L 1344 794 
L 1344 0 
L 684 0 
L 684 794 
z
" transform="scale(0.015625)"/>
       <path id="DejaVuSans-34" d="M 2419 4116 
L 825 1625 
L 2419 1625 
L 2419 4116 
z
M 2253 4666 
L 3047 4666 
L 3047 1625 
L 3713 1625 
L 3713 1100 
L 3047 1100 
L 3047 0 
L 2419 0 
L 2419 1100 
L 313 1100 
L 313 1709 
L 2253 4666 
z
" transform="scale(0.015625)"/>
       <path id="DejaVuSans-78" d="M 3513 3500 
L 2247 1797 
L 3578 0 
L 2900 0 
L 1881 1375 
L 863 0 
L 184 0 
L 1544 1831 
L 300 3500 
L 978 3500 
L 1906 2253 
L 2834 3500 
L 3513 3500 
z
" transform="scale(0.015625)"/>
      </defs>
      <use xlink:href="#DejaVuSans-36"/>
      <use xlink:href="#DejaVuSans-2e" x="63.623047"/>
      <use xlink:href="#DejaVuSans-34" x="95.410156"/>
      <use xlink:href="#DejaVuSans-25" x="159.033203"/>
      <use xlink:href="#DejaVuSans-20" x="254.052734"/>
      <use xlink:href="#DejaVuSans-72" x="285.839844"/>
      <use xlink:href="#DejaVuSans-65" x="324.703125"/>
      <use xlink:href="#DejaVuSans-74" x="386.226562"/>
      <use xlink:href="#DejaVuSans-75" x="425.435547"/>
      <use xlink:href="#DejaVuSans-72" x="488.814453"/>
      <use xlink:href="#DejaVuSans-6e" x="528.177734"/>
      <use xlink:href="#DejaVuSans-20" x="591.556641"/>
      <use xlink:href="#DejaVuSans-6f" x="623.34375"/>
      <use xlink:href="#DejaVuSans-6d" x="684.525391"/>
      <use xlink:href="#DejaVuSans-78" x="781.9375"/>
     </g>
    </g>
    <g id="line2d_18">
     <path d="M 61.94 54.656563 
L 71.94 54.656563 
L 81.94 54.656563 
" style="fill: none; stroke: #0000ff; stroke-width: 1.5; stroke-linecap: square"/>
    </g>
    <g id="text_10">
     <!-- 13.2% return AVAN -->
     <g transform="translate(89.94 58.156563)scale(0.1 -0.1)">
      <defs>
       <path id="DejaVuSans-33" d="M 2597 2516 
Q 3050 2419 3304 2112 
Q 3559 1806 3559 1356 
Q 3559 666 3084 287 
Q 2609 -91 1734 -91 
Q 1441 -91 1130 -33 
Q 819 25 488 141 
L 488 750 
Q 750 597 1062 519 
Q 1375 441 1716 441 
Q 2309 441 2620 675 
Q 2931 909 2931 1356 
Q 2931 1769 2642 2001 
Q 2353 2234 1838 2234 
L 1294 2234 
L 1294 2753 
L 1863 2753 
Q 2328 2753 2575 2939 
Q 2822 3125 2822 3475 
Q 2822 3834 2567 4026 
Q 2313 4219 1838 4219 
Q 1578 4219 1281 4162 
Q 984 4106 628 3988 
L 628 4550 
Q 988 4650 1302 4700 
Q 1616 4750 1894 4750 
Q 2613 4750 3031 4423 
Q 3450 4097 3450 3541 
Q 3450 3153 3228 2886 
Q 3006 2619 2597 2516 
z
" transform="scale(0.015625)"/>
      </defs>
      <use xlink:href="#DejaVuSans-31"/>
      <use xlink:href="#DejaVuSans-33" x="63.623047"/>
      <use xlink:href="#DejaVuSans-2e" x="127.246094"/>
      <use xlink:href="#DejaVuSans-32" x="159.033203"/>
      <use xlink:href="#DejaVuSans-25" x="222.65625"/>
      <use xlink:href="#DejaVuSans-20" x="317.675781"/>
      <use xlink:href="#DejaVuSans-72" x="349.462891"/>
      <use xlink:href="#DejaVuSans-65" x="388.326172"/>
      <use xlink:href="#DejaVuSans-74" x="449.849609"/>
      <use xlink:href="#DejaVuSans-75" x="489.058594"/>
      <use xlink:href="#DejaVuSans-72" x="552.4375"/>
      <use xlink:href="#DejaVuSans-6e" x="591.800781"/>
      <use xlink:href="#DejaVuSans-20" x="655.179688"/>
      <use xlink:href="#DejaVuSans-41" x="686.966797"/>
      <use xlink:href="#DejaVuSans-56" x="749"/>
      <use xlink:href="#DejaVuSans-41" x="811.033203"/>
      <use xlink:href="#DejaVuSans-4e" x="879.441406"/>
     </g>
    </g>
    <g id="line2d_19">
     <path d="M 61.94 69.334688 
L 71.94 69.334688 
L 81.94 69.334688 
" style="fill: none; stroke: #ff0000; stroke-width: 1.5; stroke-linecap: square"/>
    </g>
    <g id="text_11">
     <!-- cummax -->
     <g transform="translate(89.94 72.834688)scale(0.1 -0.1)">
      <use xlink:href="#DejaVuSans-63"/>
      <use xlink:href="#DejaVuSans-75" x="54.980469"/>
      <use xlink:href="#DejaVuSans-6d" x="118.359375"/>
      <use xlink:href="#DejaVuSans-6d" x="215.771484"/>
      <use xlink:href="#DejaVuSans-61" x="313.183594"/>
      <use xlink:href="#DejaVuSans-78" x="374.462891"/>
     </g>
    </g>
   </g>
  </g>
  <g id="axes_2">
   <g id="patch_8">
    <path d="M 52.94 390.04 
L 554.600455 390.04 
L 554.600455 302.955909 
L 52.94 302.955909 
z
" style="fill: #ffffff"/>
   </g>
   <g id="matplotlib.axis_3">
    <g id="xtick_8">
     <g id="line2d_20">
      <g>
       <use xlink:href="#m2b5969af0e" x="79.543206" y="390.04" style="stroke: #000000; stroke-width: 0.8"/>
      </g>
     </g>
     <g id="text_12">
      <!-- 2016-01 -->
      <g transform="translate(58.6518 404.638438)scale(0.1 -0.1)">
       <use xlink:href="#DejaVuSans-32"/>
       <use xlink:href="#DejaVuSans-30" x="63.623047"/>
       <use xlink:href="#DejaVuSans-31" x="127.246094"/>
       <use xlink:href="#DejaVuSans-36" x="190.869141"/>
       <use xlink:href="#DejaVuSans-2d" x="254.492188"/>
       <use xlink:href="#DejaVuSans-30" x="290.576172"/>
       <use xlink:href="#DejaVuSans-31" x="354.199219"/>
      </g>
     </g>
    </g>
    <g id="xtick_9">
     <g id="line2d_21">
      <g>
       <use xlink:href="#m2b5969af0e" x="155.552366" y="390.04" style="stroke: #000000; stroke-width: 0.8"/>
      </g>
     </g>
     <g id="text_13">
      <!-- 2016-03 -->
      <g transform="translate(134.660959 404.638438)scale(0.1 -0.1)">
       <use xlink:href="#DejaVuSans-32"/>
       <use xlink:href="#DejaVuSans-30" x="63.623047"/>
       <use xlink:href="#DejaVuSans-31" x="127.246094"/>
       <use xlink:href="#DejaVuSans-36" x="190.869141"/>
       <use xlink:href="#DejaVuSans-2d" x="254.492188"/>
       <use xlink:href="#DejaVuSans-30" x="290.576172"/>
       <use xlink:href="#DejaVuSans-33" x="354.199219"/>
      </g>
     </g>
    </g>
    <g id="xtick_10">
     <g id="line2d_22">
      <g>
       <use xlink:href="#m2b5969af0e" x="232.828345" y="390.04" style="stroke: #000000; stroke-width: 0.8"/>
      </g>
     </g>
     <g id="text_14">
      <!-- 2016-05 -->
      <g transform="translate(211.936939 404.638438)scale(0.1 -0.1)">
       <use xlink:href="#DejaVuSans-32"/>
       <use xlink:href="#DejaVuSans-30" x="63.623047"/>
       <use xlink:href="#DejaVuSans-31" x="127.246094"/>
       <use xlink:href="#DejaVuSans-36" x="190.869141"/>
       <use xlink:href="#DejaVuSans-2d" x="254.492188"/>
       <use xlink:href="#DejaVuSans-30" x="290.576172"/>
       <use xlink:href="#DejaVuSans-35" x="354.199219"/>
      </g>
     </g>
    </g>
    <g id="xtick_11">
     <g id="line2d_23">
      <g>
       <use xlink:href="#m2b5969af0e" x="310.104324" y="390.04" style="stroke: #000000; stroke-width: 0.8"/>
      </g>
     </g>
     <g id="text_15">
      <!-- 2016-07 -->
      <g transform="translate(289.212918 404.638438)scale(0.1 -0.1)">
       <defs>
        <path id="DejaVuSans-37" d="M 525 4666 
L 3525 4666 
L 3525 4397 
L 1831 0 
L 1172 0 
L 2766 4134 
L 525 4134 
L 525 4666 
z
" transform="scale(0.015625)"/>
       </defs>
       <use xlink:href="#DejaVuSans-32"/>
       <use xlink:href="#DejaVuSans-30" x="63.623047"/>
       <use xlink:href="#DejaVuSans-31" x="127.246094"/>
       <use xlink:href="#DejaVuSans-36" x="190.869141"/>
       <use xlink:href="#DejaVuSans-2d" x="254.492188"/>
       <use xlink:href="#DejaVuSans-30" x="290.576172"/>
       <use xlink:href="#DejaVuSans-37" x="354.199219"/>
      </g>
     </g>
    </g>
    <g id="xtick_12">
     <g id="line2d_24">
      <g>
       <use xlink:href="#m2b5969af0e" x="388.647122" y="390.04" style="stroke: #000000; stroke-width: 0.8"/>
      </g>
     </g>
     <g id="text_16">
      <!-- 2016-09 -->
      <g transform="translate(367.755716 404.638438)scale(0.1 -0.1)">
       <defs>
        <path id="DejaVuSans-39" d="M 703 97 
L 703 672 
Q 941 559 1184 500 
Q 1428 441 1663 441 
Q 2288 441 2617 861 
Q 2947 1281 2994 2138 
Q 2813 1869 2534 1725 
Q 2256 1581 1919 1581 
Q 1219 1581 811 2004 
Q 403 2428 403 3163 
Q 403 3881 828 4315 
Q 1253 4750 1959 4750 
Q 2769 4750 3195 4129 
Q 3622 3509 3622 2328 
Q 3622 1225 3098 567 
Q 2575 -91 1691 -91 
Q 1453 -91 1209 -44 
Q 966 3 703 97 
z
M 1959 2075 
Q 2384 2075 2632 2365 
Q 2881 2656 2881 3163 
Q 2881 3666 2632 3958 
Q 2384 4250 1959 4250 
Q 1534 4250 1286 3958 
Q 1038 3666 1038 3163 
Q 1038 2656 1286 2365 
Q 1534 2075 1959 2075 
z
" transform="scale(0.015625)"/>
       </defs>
       <use xlink:href="#DejaVuSans-32"/>
       <use xlink:href="#DejaVuSans-30" x="63.623047"/>
       <use xlink:href="#DejaVuSans-31" x="127.246094"/>
       <use xlink:href="#DejaVuSans-36" x="190.869141"/>
       <use xlink:href="#DejaVuSans-2d" x="254.492188"/>
       <use xlink:href="#DejaVuSans-30" x="290.576172"/>
       <use xlink:href="#DejaVuSans-39" x="354.199219"/>
      </g>
     </g>
    </g>
    <g id="xtick_13">
     <g id="line2d_25">
      <g>
       <use xlink:href="#m2b5969af0e" x="465.923101" y="390.04" style="stroke: #000000; stroke-width: 0.8"/>
      </g>
     </g>
     <g id="text_17">
      <!-- 2016-11 -->
      <g transform="translate(445.031695 404.638438)scale(0.1 -0.1)">
       <use xlink:href="#DejaVuSans-32"/>
       <use xlink:href="#DejaVuSans-30" x="63.623047"/>
       <use xlink:href="#DejaVuSans-31" x="127.246094"/>
       <use xlink:href="#DejaVuSans-36" x="190.869141"/>
       <use xlink:href="#DejaVuSans-2d" x="254.492188"/>
       <use xlink:href="#DejaVuSans-31" x="290.576172"/>
       <use xlink:href="#DejaVuSans-31" x="354.199219"/>
      </g>
     </g>
    </g>
    <g id="xtick_14">
     <g id="line2d_26">
      <g>
       <use xlink:href="#m2b5969af0e" x="543.199081" y="390.04" style="stroke: #000000; stroke-width: 0.8"/>
      </g>
     </g>
     <g id="text_18">
      <!-- 2017-01 -->
      <g transform="translate(522.307674 404.638438)scale(0.1 -0.1)">
       <use xlink:href="#DejaVuSans-32"/>
       <use xlink:href="#DejaVuSans-30" x="63.623047"/>
       <use xlink:href="#DejaVuSans-31" x="127.246094"/>
       <use xlink:href="#DejaVuSans-37" x="190.869141"/>
       <use xlink:href="#DejaVuSans-2d" x="254.492188"/>
       <use xlink:href="#DejaVuSans-30" x="290.576172"/>
       <use xlink:href="#DejaVuSans-31" x="354.199219"/>
      </g>
     </g>
    </g>
    <g id="text_19">
     <!-- Time -->
     <g transform="translate(291.536634 418.316562)scale(0.1 -0.1)">
      <defs>
       <path id="DejaVuSans-54" d="M -19 4666 
L 3928 4666 
L 3928 4134 
L 2272 4134 
L 2272 0 
L 1638 0 
L 1638 4134 
L -19 4134 
L -19 4666 
z
" transform="scale(0.015625)"/>
       <path id="DejaVuSans-69" d="M 603 3500 
L 1178 3500 
L 1178 0 
L 603 0 
L 603 3500 
z
M 603 4863 
L 1178 4863 
L 1178 4134 
L 603 4134 
L 603 4863 
z
" transform="scale(0.015625)"/>
      </defs>
      <use xlink:href="#DejaVuSans-54"/>
      <use xlink:href="#DejaVuSans-69" x="57.958984"/>
      <use xlink:href="#DejaVuSans-6d" x="85.742188"/>
      <use xlink:href="#DejaVuSans-65" x="183.154297"/>
     </g>
    </g>
   </g>
   <g id="matplotlib.axis_4">
    <g id="ytick_7">
     <g id="line2d_27">
      <g>
       <use xlink:href="#mc9563a10d3" x="52.94" y="366.229632" style="stroke: #000000; stroke-width: 0.8"/>
      </g>
     </g>
     <g id="text_20">
      <!-- −10 -->
      <g transform="translate(24.835313 370.028851)scale(0.1 -0.1)">
       <use xlink:href="#DejaVuSans-2212"/>
       <use xlink:href="#DejaVuSans-31" x="83.789062"/>
       <use xlink:href="#DejaVuSans-30" x="147.412109"/>
      </g>
     </g>
    </g>
    <g id="ytick_8">
     <g id="line2d_28">
      <g>
       <use xlink:href="#mc9563a10d3" x="52.94" y="336.571954" style="stroke: #000000; stroke-width: 0.8"/>
      </g>
     </g>
     <g id="text_21">
      <!-- −5 -->
      <g transform="translate(31.197813 340.371173)scale(0.1 -0.1)">
       <use xlink:href="#DejaVuSans-2212"/>
       <use xlink:href="#DejaVuSans-35" x="83.789062"/>
      </g>
     </g>
    </g>
    <g id="ytick_9">
     <g id="line2d_29">
      <g>
       <use xlink:href="#mc9563a10d3" x="52.94" y="306.914277" style="stroke: #000000; stroke-width: 0.8"/>
      </g>
     </g>
     <g id="text_22">
      <!-- 0 -->
      <g transform="translate(39.5775 310.713496)scale(0.1 -0.1)">
       <use xlink:href="#DejaVuSans-30"/>
      </g>
     </g>
    </g>
    <g id="text_23">
     <!-- DD % -->
     <g transform="translate(18.755625 360.537798)rotate(-90)scale(0.1 -0.1)">
      <defs>
       <path id="DejaVuSans-44" d="M 1259 4147 
L 1259 519 
L 2022 519 
Q 2988 519 3436 956 
Q 3884 1394 3884 2338 
Q 3884 3275 3436 3711 
Q 2988 4147 2022 4147 
L 1259 4147 
z
M 628 4666 
L 1925 4666 
Q 3281 4666 3915 4102 
Q 4550 3538 4550 2338 
Q 4550 1131 3912 565 
Q 3275 0 1925 0 
L 628 0 
L 628 4666 
z
" transform="scale(0.015625)"/>
      </defs>
      <use xlink:href="#DejaVuSans-44"/>
      <use xlink:href="#DejaVuSans-44" x="77.001953"/>
      <use xlink:href="#DejaVuSans-20" x="154.003906"/>
      <use xlink:href="#DejaVuSans-25" x="185.791016"/>
     </g>
    </g>
   </g>
   <g id="line2d_30">
    <path d="M 75.742748 306.914277 
L 77.009567 306.914277 
L 83.343664 311.578976 
L 84.610483 318.551551 
L 87.144122 329.546426 
L 88.410941 334.326951 
L 92.211399 343.990002 
L 93.478219 349.096061 
L 94.745038 347.962947 
L 96.011857 353.38273 
L 115.014147 353.38273 
L 118.814605 351.173755 
L 120.081424 352.778804 
L 121.348244 359.457195 
L 122.615063 357.276001 
L 123.881882 360.897769 
L 127.68234 361.784881 
L 128.94916 383.284506 
L 139.083714 383.284506 
L 140.350534 379.538427 
L 141.617353 379.864642 
L 145.417811 384.659416 
L 146.68463 379.977495 
L 149.218269 383.937772 
L 150.485088 383.84757 
L 154.285546 385.955691 
L 155.552366 386.081632 
L 156.819185 376.178978 
L 158.086004 376.536965 
L 159.352824 379.491791 
L 163.153282 376.634135 
L 164.420101 377.722326 
L 165.68692 381.405032 
L 166.95374 377.320264 
L 168.220559 384.247138 
L 172.021017 373.567987 
L 173.287836 375.974571 
L 174.554656 374.45528 
L 175.821475 375.138518 
L 177.088294 374.751632 
L 180.888752 375.332029 
L 182.155572 373.888486 
L 183.422391 373.480887 
L 184.68921 372.53356 
L 191.023307 373.213078 
L 192.290126 372.306637 
L 193.556946 368.08344 
L 194.823765 366.489196 
L 198.624223 367.308137 
L 199.891042 373.050943 
L 201.157862 373.561378 
L 202.424681 372.933206 
L 203.6915 374.879072 
L 207.491958 367.69865 
L 208.758778 366.67786 
L 211.292416 357.908033 
L 212.559236 357.812886 
L 216.359694 349.954101 
L 217.626513 348.790481 
L 218.893332 341.492719 
L 221.426971 345.441696 
L 225.227429 343.709794 
L 226.494248 342.007219 
L 227.761067 346.023212 
L 229.027887 351.414392 
L 230.294706 354.398041 
L 234.095164 356.959901 
L 235.361983 363.206915 
L 253.097454 363.206915 
L 254.364273 364.631814 
L 255.631093 361.896998 
L 256.897912 365.655807 
L 260.69837 357.459642 
L 263.232009 365.882922 
L 264.498828 366.197726 
L 265.765647 361.300387 
L 269.566105 360.137384 
L 270.832925 356.700952 
L 272.099744 360.694407 
L 273.366563 356.323332 
L 274.633383 354.659465 
L 279.70066 355.064723 
L 280.967479 352.950114 
L 282.234299 354.673142 
L 283.501118 351.488664 
L 287.301576 363.472204 
L 308.837505 363.472204 
L 310.104324 351.237934 
L 313.904782 352.883505 
L 315.171601 353.622398 
L 316.438421 356.838521 
L 317.70524 356.814247 
L 318.972059 355.2881 
L 322.772517 351.174189 
L 324.039337 333.131515 
L 325.306156 331.585781 
L 326.572975 318.295142 
L 327.839795 314.280635 
L 331.640253 316.406286 
L 332.907072 315.623182 
L 334.173891 306.914277 
L 335.440711 306.914277 
L 336.70753 312.528139 
L 340.507988 316.347363 
L 341.774807 314.430084 
L 343.041626 310.742731 
L 344.308446 309.254544 
L 345.575265 311.332894 
L 349.375723 310.732155 
L 350.642542 308.721453 
L 351.909362 310.65275 
L 353.176181 313.441671 
L 354.443 308.878136 
L 358.243458 307.020781 
L 359.510278 306.914277 
L 360.777097 307.24558 
L 362.043916 306.914277 
L 369.644832 306.914277 
L 370.911652 313.936966 
L 372.178471 311.899979 
L 375.978929 312.610942 
L 377.245748 309.446906 
L 378.512568 306.914277 
L 379.779387 307.882898 
L 381.046206 307.968426 
L 384.846664 306.914277 
L 387.380303 306.914277 
L 388.647122 307.126486 
L 389.913942 306.914277 
L 393.7144 306.914277 
L 394.981219 309.83331 
L 396.248038 306.914277 
L 397.514858 310.651024 
L 398.781677 310.29125 
L 402.582135 316.197278 
L 403.848954 312.128506 
L 405.115774 313.523303 
L 406.382593 312.353977 
L 407.649412 315.5077 
L 411.44987 314.094168 
L 412.71669 312.550377 
L 413.983509 307.010768 
L 415.250328 308.961168 
L 416.517148 307.604549 
L 420.317606 306.962198 
L 421.584425 308.480219 
L 422.851244 306.914277 
L 424.118064 307.129856 
L 425.384883 306.914277 
L 431.71898 306.914277 
L 432.985799 311.801038 
L 434.252618 312.759732 
L 438.053076 312.974446 
L 439.319896 306.914277 
L 443.120354 306.914277 
L 446.920812 334.848869 
L 448.187631 347.797747 
L 449.45445 331.96018 
L 450.72127 322.204099 
L 451.988089 327.767045 
L 457.055366 336.129523 
L 458.322185 334.916355 
L 459.589005 334.58734 
L 460.855824 334.55722 
L 464.656282 336.460225 
L 465.923101 337.769761 
L 467.189921 349.513954 
L 483.658572 349.513954 
L 484.925391 345.850907 
L 486.192211 350.432781 
L 487.45903 344.989441 
L 492.526307 340.72847 
L 493.793127 337.092939 
L 495.059946 336.463288 
L 496.326765 339.609151 
L 500.127223 339.672353 
L 501.394043 339.115596 
L 502.660862 339.516734 
L 503.927681 338.97833 
L 505.194501 338.142141 
L 508.994959 344.037434 
L 510.261778 340.730659 
L 511.528597 339.75597 
L 512.795417 336.048399 
L 514.062236 337.721816 
L 517.862694 332.867431 
L 520.396333 332.867431 
L 521.663152 333.063323 
L 522.929971 329.155564 
L 527.997249 327.687619 
L 529.264068 328.213661 
L 530.530887 328.99507 
L 531.797707 331.812225 
L 531.797707 331.812225 
" clip-path="url(#p93671e09ab)" style="fill: none; stroke: #0000ff; stroke-width: 1.5; stroke-linecap: square"/>
   </g>
   <g id="patch_9">
    <path d="M 52.94 390.04 
L 52.94 302.955909 
" style="fill: none; stroke: #000000; stroke-width: 0.8; stroke-linejoin: miter; stroke-linecap: square"/>
   </g>
   <g id="patch_10">
    <path d="M 554.600455 390.04 
L 554.600455 302.955909 
" style="fill: none; stroke: #000000; stroke-width: 0.8; stroke-linejoin: miter; stroke-linecap: square"/>
   </g>
   <g id="patch_11">
    <path d="M 52.94 390.04 
L 554.600455 390.04 
" style="fill: none; stroke: #000000; stroke-width: 0.8; stroke-linejoin: miter; stroke-linecap: square"/>
   </g>
   <g id="patch_12">
    <path d="M 52.94 302.955909 
L 554.600455 302.955909 
" style="fill: none; stroke: #000000; stroke-width: 0.8; stroke-linejoin: miter; stroke-linecap: square"/>
   </g>
  </g>
 </g>
 <defs>
  <clipPath id="p80fefbe03c">
   <rect x="52.94" y="26.88" width="501.660455" height="261.252273"/>
  </clipPath>
  <clipPath id="p93671e09ab">
   <rect x="52.94" y="302.955909" width="501.660455" height="87.084091"/>
  </clipPath>
 </defs>
</svg>
