<?xml version="1.0" encoding="utf-8" standalone="no"?>
<!DOCTYPE svg PUBLIC "-//W3C//DTD SVG 1.1//EN"
  "http://www.w3.org/Graphics/SVG/1.1/DTD/svg11.dtd">
<svg xmlns:xlink="http://www.w3.org/1999/xlink" width="720pt" height="504pt" viewBox="0 0 720 504" xmlns="http://www.w3.org/2000/svg" version="1.1">
 <metadata>
  <rdf:RDF xmlns:dc="http://purl.org/dc/elements/1.1/" xmlns:cc="http://creativecommons.org/ns#" xmlns:rdf="http://www.w3.org/1999/02/22-rdf-syntax-ns#">
   <cc:Work>
    <dc:type rdf:resource="http://purl.org/dc/dcmitype/StillImage"/>
    <dc:date>2023-01-01T22:56:34.677874</dc:date>
    <dc:format>image/svg+xml</dc:format>
    <dc:creator>
     <cc:Agent>
      <dc:title>Matplotlib v3.5.0, https://matplotlib.org/</dc:title>
     </cc:Agent>
    </dc:creator>
   </cc:Work>
  </rdf:RDF>
 </metadata>
 <defs>
  <style type="text/css">*{stroke-linejoin: round; stroke-linecap: butt}</style>
 </defs>
 <g id="figure_1">
  <g id="patch_1">
   <path d="M 0 504 
L 720 504 
L 720 0 
L 0 0 
z
" style="fill: #ffffff"/>
  </g>
  <g id="axes_1">
   <g id="patch_2">
    <path d="M 90 448.56 
L 648 448.56 
L 648 60.48 
L 90 60.48 
z
" style="fill: #ffffff"/>
   </g>
   <g id="matplotlib.axis_1">
    <g id="xtick_1">
     <g id="line2d_1">
      <defs>
       <path id="m7e8dbd7a9a" d="M 0 0 
L 0 3.5 
" style="stroke: #000000; stroke-width: 0.8"/>
      </defs>
      <g>
       <use xlink:href="#m7e8dbd7a9a" x="121.17765" y="448.56" style="stroke: #000000; stroke-width: 0.8"/>
      </g>
     </g>
     <g id="text_1">
      <!-- 2019-01 -->
      <g transform="translate(100.286244 463.158437)scale(0.1 -0.1)">
       <defs>
        <path id="DejaVuSans-32" d="M 1228 531 
L 3431 531 
L 3431 0 
L 469 0 
L 469 531 
Q 828 903 1448 1529 
Q 2069 2156 2228 2338 
Q 2531 2678 2651 2914 
Q 2772 3150 2772 3378 
Q 2772 3750 2511 3984 
Q 2250 4219 1831 4219 
Q 1534 4219 1204 4116 
Q 875 4013 500 3803 
L 500 4441 
Q 881 4594 1212 4672 
Q 1544 4750 1819 4750 
Q 2544 4750 2975 4387 
Q 3406 4025 3406 3419 
Q 3406 3131 3298 2873 
Q 3191 2616 2906 2266 
Q 2828 2175 2409 1742 
Q 1991 1309 1228 531 
z
" transform="scale(0.015625)"/>
        <path id="DejaVuSans-30" d="M 2034 4250 
Q 1547 4250 1301 3770 
Q 1056 3291 1056 2328 
Q 1056 1369 1301 889 
Q 1547 409 2034 409 
Q 2525 409 2770 889 
Q 3016 1369 3016 2328 
Q 3016 3291 2770 3770 
Q 2525 4250 2034 4250 
z
M 2034 4750 
Q 2819 4750 3233 4129 
Q 3647 3509 3647 2328 
Q 3647 1150 3233 529 
Q 2819 -91 2034 -91 
Q 1250 -91 836 529 
Q 422 1150 422 2328 
Q 422 3509 836 4129 
Q 1250 4750 2034 4750 
z
" transform="scale(0.015625)"/>
        <path id="DejaVuSans-31" d="M 794 531 
L 1825 531 
L 1825 4091 
L 703 3866 
L 703 4441 
L 1819 4666 
L 2450 4666 
L 2450 531 
L 3481 531 
L 3481 0 
L 794 0 
L 794 531 
z
" transform="scale(0.015625)"/>
        <path id="DejaVuSans-39" d="M 703 97 
L 703 672 
Q 941 559 1184 500 
Q 1428 441 1663 441 
Q 2288 441 2617 861 
Q 2947 1281 2994 2138 
Q 2813 1869 2534 1725 
Q 2256 1581 1919 1581 
Q 1219 1581 811 2004 
Q 403 2428 403 3163 
Q 403 3881 828 4315 
Q 1253 4750 1959 4750 
Q 2769 4750 3195 4129 
Q 3622 3509 3622 2328 
Q 3622 1225 3098 567 
Q 2575 -91 1691 -91 
Q 1453 -91 1209 -44 
Q 966 3 703 97 
z
M 1959 2075 
Q 2384 2075 2632 2365 
Q 2881 2656 2881 3163 
Q 2881 3666 2632 3958 
Q 2384 4250 1959 4250 
Q 1534 4250 1286 3958 
Q 1038 3666 1038 3163 
Q 1038 2656 1286 2365 
Q 1534 2075 1959 2075 
z
" transform="scale(0.015625)"/>
        <path id="DejaVuSans-2d" d="M 313 2009 
L 1997 2009 
L 1997 1497 
L 313 1497 
L 313 2009 
z
" transform="scale(0.015625)"/>
       </defs>
       <use xlink:href="#DejaVuSans-32"/>
       <use xlink:href="#DejaVuSans-30" x="63.623047"/>
       <use xlink:href="#DejaVuSans-31" x="127.246094"/>
       <use xlink:href="#DejaVuSans-39" x="190.869141"/>
       <use xlink:href="#DejaVuSans-2d" x="254.492188"/>
       <use xlink:href="#DejaVuSans-30" x="290.576172"/>
       <use xlink:href="#DejaVuSans-31" x="354.199219"/>
      </g>
     </g>
    </g>
    <g id="xtick_2">
     <g id="line2d_2">
      <g>
       <use xlink:href="#m7e8dbd7a9a" x="206.934358" y="448.56" style="stroke: #000000; stroke-width: 0.8"/>
      </g>
     </g>
     <g id="text_2">
      <!-- 2019-03 -->
      <g transform="translate(186.042952 463.158437)scale(0.1 -0.1)">
       <defs>
        <path id="DejaVuSans-33" d="M 2597 2516 
Q 3050 2419 3304 2112 
Q 3559 1806 3559 1356 
Q 3559 666 3084 287 
Q 2609 -91 1734 -91 
Q 1441 -91 1130 -33 
Q 819 25 488 141 
L 488 750 
Q 750 597 1062 519 
Q 1375 441 1716 441 
Q 2309 441 2620 675 
Q 2931 909 2931 1356 
Q 2931 1769 2642 2001 
Q 2353 2234 1838 2234 
L 1294 2234 
L 1294 2753 
L 1863 2753 
Q 2328 2753 2575 2939 
Q 2822 3125 2822 3475 
Q 2822 3834 2567 4026 
Q 2313 4219 1838 4219 
Q 1578 4219 1281 4162 
Q 984 4106 628 3988 
L 628 4550 
Q 988 4650 1302 4700 
Q 1616 4750 1894 4750 
Q 2613 4750 3031 4423 
Q 3450 4097 3450 3541 
Q 3450 3153 3228 2886 
Q 3006 2619 2597 2516 
z
" transform="scale(0.015625)"/>
       </defs>
       <use xlink:href="#DejaVuSans-32"/>
       <use xlink:href="#DejaVuSans-30" x="63.623047"/>
       <use xlink:href="#DejaVuSans-31" x="127.246094"/>
       <use xlink:href="#DejaVuSans-39" x="190.869141"/>
       <use xlink:href="#DejaVuSans-2d" x="254.492188"/>
       <use xlink:href="#DejaVuSans-30" x="290.576172"/>
       <use xlink:href="#DejaVuSans-33" x="354.199219"/>
      </g>
     </g>
    </g>
    <g id="xtick_3">
     <g id="line2d_3">
      <g>
       <use xlink:href="#m7e8dbd7a9a" x="295.598072" y="448.56" style="stroke: #000000; stroke-width: 0.8"/>
      </g>
     </g>
     <g id="text_3">
      <!-- 2019-05 -->
      <g transform="translate(274.706666 463.158437)scale(0.1 -0.1)">
       <defs>
        <path id="DejaVuSans-35" d="M 691 4666 
L 3169 4666 
L 3169 4134 
L 1269 4134 
L 1269 2991 
Q 1406 3038 1543 3061 
Q 1681 3084 1819 3084 
Q 2600 3084 3056 2656 
Q 3513 2228 3513 1497 
Q 3513 744 3044 326 
Q 2575 -91 1722 -91 
Q 1428 -91 1123 -41 
Q 819 9 494 109 
L 494 744 
Q 775 591 1075 516 
Q 1375 441 1709 441 
Q 2250 441 2565 725 
Q 2881 1009 2881 1497 
Q 2881 1984 2565 2268 
Q 2250 2553 1709 2553 
Q 1456 2553 1204 2497 
Q 953 2441 691 2322 
L 691 4666 
z
" transform="scale(0.015625)"/>
       </defs>
       <use xlink:href="#DejaVuSans-32"/>
       <use xlink:href="#DejaVuSans-30" x="63.623047"/>
       <use xlink:href="#DejaVuSans-31" x="127.246094"/>
       <use xlink:href="#DejaVuSans-39" x="190.869141"/>
       <use xlink:href="#DejaVuSans-2d" x="254.492188"/>
       <use xlink:href="#DejaVuSans-30" x="290.576172"/>
       <use xlink:href="#DejaVuSans-35" x="354.199219"/>
      </g>
     </g>
    </g>
    <g id="xtick_4">
     <g id="line2d_4">
      <g>
       <use xlink:href="#m7e8dbd7a9a" x="384.261787" y="448.56" style="stroke: #000000; stroke-width: 0.8"/>
      </g>
     </g>
     <g id="text_4">
      <!-- 2019-07 -->
      <g transform="translate(363.370381 463.158437)scale(0.1 -0.1)">
       <defs>
        <path id="DejaVuSans-37" d="M 525 4666 
L 3525 4666 
L 3525 4397 
L 1831 0 
L 1172 0 
L 2766 4134 
L 525 4134 
L 525 4666 
z
" transform="scale(0.015625)"/>
       </defs>
       <use xlink:href="#DejaVuSans-32"/>
       <use xlink:href="#DejaVuSans-30" x="63.623047"/>
       <use xlink:href="#DejaVuSans-31" x="127.246094"/>
       <use xlink:href="#DejaVuSans-39" x="190.869141"/>
       <use xlink:href="#DejaVuSans-2d" x="254.492188"/>
       <use xlink:href="#DejaVuSans-30" x="290.576172"/>
       <use xlink:href="#DejaVuSans-37" x="354.199219"/>
      </g>
     </g>
    </g>
    <g id="xtick_5">
     <g id="line2d_5">
      <g>
       <use xlink:href="#m7e8dbd7a9a" x="474.379005" y="448.56" style="stroke: #000000; stroke-width: 0.8"/>
      </g>
     </g>
     <g id="text_5">
      <!-- 2019-09 -->
      <g transform="translate(453.487599 463.158437)scale(0.1 -0.1)">
       <use xlink:href="#DejaVuSans-32"/>
       <use xlink:href="#DejaVuSans-30" x="63.623047"/>
       <use xlink:href="#DejaVuSans-31" x="127.246094"/>
       <use xlink:href="#DejaVuSans-39" x="190.869141"/>
       <use xlink:href="#DejaVuSans-2d" x="254.492188"/>
       <use xlink:href="#DejaVuSans-30" x="290.576172"/>
       <use xlink:href="#DejaVuSans-39" x="354.199219"/>
      </g>
     </g>
    </g>
    <g id="xtick_6">
     <g id="line2d_6">
      <g>
       <use xlink:href="#m7e8dbd7a9a" x="563.042719" y="448.56" style="stroke: #000000; stroke-width: 0.8"/>
      </g>
     </g>
     <g id="text_6">
      <!-- 2019-11 -->
      <g transform="translate(542.151313 463.158437)scale(0.1 -0.1)">
       <use xlink:href="#DejaVuSans-32"/>
       <use xlink:href="#DejaVuSans-30" x="63.623047"/>
       <use xlink:href="#DejaVuSans-31" x="127.246094"/>
       <use xlink:href="#DejaVuSans-39" x="190.869141"/>
       <use xlink:href="#DejaVuSans-2d" x="254.492188"/>
       <use xlink:href="#DejaVuSans-31" x="290.576172"/>
       <use xlink:href="#DejaVuSans-31" x="354.199219"/>
      </g>
     </g>
    </g>
    <g id="text_7">
     <!-- Time -->
     <g transform="translate(356.766406 476.836563)scale(0.1 -0.1)">
      <defs>
       <path id="DejaVuSans-54" d="M -19 4666 
L 3928 4666 
L 3928 4134 
L 2272 4134 
L 2272 0 
L 1638 0 
L 1638 4134 
L -19 4134 
L -19 4666 
z
" transform="scale(0.015625)"/>
       <path id="DejaVuSans-69" d="M 603 3500 
L 1178 3500 
L 1178 0 
L 603 0 
L 603 3500 
z
M 603 4863 
L 1178 4863 
L 1178 4134 
L 603 4134 
L 603 4863 
z
" transform="scale(0.015625)"/>
       <path id="DejaVuSans-6d" d="M 3328 2828 
Q 3544 3216 3844 3400 
Q 4144 3584 4550 3584 
Q 5097 3584 5394 3201 
Q 5691 2819 5691 2113 
L 5691 0 
L 5113 0 
L 5113 2094 
Q 5113 2597 4934 2840 
Q 4756 3084 4391 3084 
Q 3944 3084 3684 2787 
Q 3425 2491 3425 1978 
L 3425 0 
L 2847 0 
L 2847 2094 
Q 2847 2600 2669 2842 
Q 2491 3084 2119 3084 
Q 1678 3084 1418 2786 
Q 1159 2488 1159 1978 
L 1159 0 
L 581 0 
L 581 3500 
L 1159 3500 
L 1159 2956 
Q 1356 3278 1631 3431 
Q 1906 3584 2284 3584 
Q 2666 3584 2933 3390 
Q 3200 3197 3328 2828 
z
" transform="scale(0.015625)"/>
       <path id="DejaVuSans-65" d="M 3597 1894 
L 3597 1613 
L 953 1613 
Q 991 1019 1311 708 
Q 1631 397 2203 397 
Q 2534 397 2845 478 
Q 3156 559 3463 722 
L 3463 178 
Q 3153 47 2828 -22 
Q 2503 -91 2169 -91 
Q 1331 -91 842 396 
Q 353 884 353 1716 
Q 353 2575 817 3079 
Q 1281 3584 2069 3584 
Q 2775 3584 3186 3129 
Q 3597 2675 3597 1894 
z
M 3022 2063 
Q 3016 2534 2758 2815 
Q 2500 3097 2075 3097 
Q 1594 3097 1305 2825 
Q 1016 2553 972 2059 
L 3022 2063 
z
" transform="scale(0.015625)"/>
      </defs>
      <use xlink:href="#DejaVuSans-54"/>
      <use xlink:href="#DejaVuSans-69" x="57.958984"/>
      <use xlink:href="#DejaVuSans-6d" x="85.742188"/>
      <use xlink:href="#DejaVuSans-65" x="183.154297"/>
     </g>
    </g>
   </g>
   <g id="matplotlib.axis_2">
    <g id="ytick_1">
     <g id="line2d_7">
      <defs>
       <path id="m6af1e7afd0" d="M 0 0 
L -3.5 0 
" style="stroke: #000000; stroke-width: 0.8"/>
      </defs>
      <g>
       <use xlink:href="#m6af1e7afd0" x="90" y="419.423565" style="stroke: #000000; stroke-width: 0.8"/>
      </g>
     </g>
     <g id="text_8">
      <!-- 0 -->
      <g transform="translate(76.6375 423.222784)scale(0.1 -0.1)">
       <use xlink:href="#DejaVuSans-30"/>
      </g>
     </g>
    </g>
    <g id="ytick_2">
     <g id="line2d_8">
      <g>
       <use xlink:href="#m6af1e7afd0" x="90" y="366.208603" style="stroke: #000000; stroke-width: 0.8"/>
      </g>
     </g>
     <g id="text_9">
      <!-- 5 -->
      <g transform="translate(76.6375 370.007822)scale(0.1 -0.1)">
       <use xlink:href="#DejaVuSans-35"/>
      </g>
     </g>
    </g>
    <g id="ytick_3">
     <g id="line2d_9">
      <g>
       <use xlink:href="#m6af1e7afd0" x="90" y="312.993641" style="stroke: #000000; stroke-width: 0.8"/>
      </g>
     </g>
     <g id="text_10">
      <!-- 10 -->
      <g transform="translate(70.275 316.79286)scale(0.1 -0.1)">
       <use xlink:href="#DejaVuSans-31"/>
       <use xlink:href="#DejaVuSans-30" x="63.623047"/>
      </g>
     </g>
    </g>
    <g id="ytick_4">
     <g id="line2d_10">
      <g>
       <use xlink:href="#m6af1e7afd0" x="90" y="259.778679" style="stroke: #000000; stroke-width: 0.8"/>
      </g>
     </g>
     <g id="text_11">
      <!-- 15 -->
      <g transform="translate(70.275 263.577898)scale(0.1 -0.1)">
       <use xlink:href="#DejaVuSans-31"/>
       <use xlink:href="#DejaVuSans-35" x="63.623047"/>
      </g>
     </g>
    </g>
    <g id="ytick_5">
     <g id="line2d_11">
      <g>
       <use xlink:href="#m6af1e7afd0" x="90" y="206.563717" style="stroke: #000000; stroke-width: 0.8"/>
      </g>
     </g>
     <g id="text_12">
      <!-- 20 -->
      <g transform="translate(70.275 210.362936)scale(0.1 -0.1)">
       <use xlink:href="#DejaVuSans-32"/>
       <use xlink:href="#DejaVuSans-30" x="63.623047"/>
      </g>
     </g>
    </g>
    <g id="ytick_6">
     <g id="line2d_12">
      <g>
       <use xlink:href="#m6af1e7afd0" x="90" y="153.348755" style="stroke: #000000; stroke-width: 0.8"/>
      </g>
     </g>
     <g id="text_13">
      <!-- 25 -->
      <g transform="translate(70.275 157.147974)scale(0.1 -0.1)">
       <use xlink:href="#DejaVuSans-32"/>
       <use xlink:href="#DejaVuSans-35" x="63.623047"/>
      </g>
     </g>
    </g>
    <g id="ytick_7">
     <g id="line2d_13">
      <g>
       <use xlink:href="#m6af1e7afd0" x="90" y="100.133793" style="stroke: #000000; stroke-width: 0.8"/>
      </g>
     </g>
     <g id="text_14">
      <!-- 30 -->
      <g transform="translate(70.275 103.933012)scale(0.1 -0.1)">
       <use xlink:href="#DejaVuSans-33"/>
       <use xlink:href="#DejaVuSans-30" x="63.623047"/>
      </g>
     </g>
    </g>
    <g id="text_15">
     <!-- Return [%] -->
     <g transform="translate(64.195312 281.352813)rotate(-90)scale(0.1 -0.1)">
      <defs>
       <path id="DejaVuSans-52" d="M 2841 2188 
Q 3044 2119 3236 1894 
Q 3428 1669 3622 1275 
L 4263 0 
L 3584 0 
L 2988 1197 
Q 2756 1666 2539 1819 
Q 2322 1972 1947 1972 
L 1259 1972 
L 1259 0 
L 628 0 
L 628 4666 
L 2053 4666 
Q 2853 4666 3247 4331 
Q 3641 3997 3641 3322 
Q 3641 2881 3436 2590 
Q 3231 2300 2841 2188 
z
M 1259 4147 
L 1259 2491 
L 2053 2491 
Q 2509 2491 2742 2702 
Q 2975 2913 2975 3322 
Q 2975 3731 2742 3939 
Q 2509 4147 2053 4147 
L 1259 4147 
z
" transform="scale(0.015625)"/>
       <path id="DejaVuSans-74" d="M 1172 4494 
L 1172 3500 
L 2356 3500 
L 2356 3053 
L 1172 3053 
L 1172 1153 
Q 1172 725 1289 603 
Q 1406 481 1766 481 
L 2356 481 
L 2356 0 
L 1766 0 
Q 1100 0 847 248 
Q 594 497 594 1153 
L 594 3053 
L 172 3053 
L 172 3500 
L 594 3500 
L 594 4494 
L 1172 4494 
z
" transform="scale(0.015625)"/>
       <path id="DejaVuSans-75" d="M 544 1381 
L 544 3500 
L 1119 3500 
L 1119 1403 
Q 1119 906 1312 657 
Q 1506 409 1894 409 
Q 2359 409 2629 706 
Q 2900 1003 2900 1516 
L 2900 3500 
L 3475 3500 
L 3475 0 
L 2900 0 
L 2900 538 
Q 2691 219 2414 64 
Q 2138 -91 1772 -91 
Q 1169 -91 856 284 
Q 544 659 544 1381 
z
M 1991 3584 
L 1991 3584 
z
" transform="scale(0.015625)"/>
       <path id="DejaVuSans-72" d="M 2631 2963 
Q 2534 3019 2420 3045 
Q 2306 3072 2169 3072 
Q 1681 3072 1420 2755 
Q 1159 2438 1159 1844 
L 1159 0 
L 581 0 
L 581 3500 
L 1159 3500 
L 1159 2956 
Q 1341 3275 1631 3429 
Q 1922 3584 2338 3584 
Q 2397 3584 2469 3576 
Q 2541 3569 2628 3553 
L 2631 2963 
z
" transform="scale(0.015625)"/>
       <path id="DejaVuSans-6e" d="M 3513 2113 
L 3513 0 
L 2938 0 
L 2938 2094 
Q 2938 2591 2744 2837 
Q 2550 3084 2163 3084 
Q 1697 3084 1428 2787 
Q 1159 2491 1159 1978 
L 1159 0 
L 581 0 
L 581 3500 
L 1159 3500 
L 1159 2956 
Q 1366 3272 1645 3428 
Q 1925 3584 2291 3584 
Q 2894 3584 3203 3211 
Q 3513 2838 3513 2113 
z
" transform="scale(0.015625)"/>
       <path id="DejaVuSans-20" transform="scale(0.015625)"/>
       <path id="DejaVuSans-5b" d="M 550 4863 
L 1875 4863 
L 1875 4416 
L 1125 4416 
L 1125 -397 
L 1875 -397 
L 1875 -844 
L 550 -844 
L 550 4863 
z
" transform="scale(0.015625)"/>
       <path id="DejaVuSans-25" d="M 4653 2053 
Q 4381 2053 4226 1822 
Q 4072 1591 4072 1178 
Q 4072 772 4226 539 
Q 4381 306 4653 306 
Q 4919 306 5073 539 
Q 5228 772 5228 1178 
Q 5228 1588 5073 1820 
Q 4919 2053 4653 2053 
z
M 4653 2450 
Q 5147 2450 5437 2106 
Q 5728 1763 5728 1178 
Q 5728 594 5436 251 
Q 5144 -91 4653 -91 
Q 4153 -91 3862 251 
Q 3572 594 3572 1178 
Q 3572 1766 3864 2108 
Q 4156 2450 4653 2450 
z
M 1428 4353 
Q 1159 4353 1004 4120 
Q 850 3888 850 3481 
Q 850 3069 1003 2837 
Q 1156 2606 1428 2606 
Q 1700 2606 1854 2837 
Q 2009 3069 2009 3481 
Q 2009 3884 1853 4118 
Q 1697 4353 1428 4353 
z
M 4250 4750 
L 4750 4750 
L 1831 -91 
L 1331 -91 
L 4250 4750 
z
M 1428 4750 
Q 1922 4750 2215 4408 
Q 2509 4066 2509 3481 
Q 2509 2891 2217 2550 
Q 1925 2209 1428 2209 
Q 931 2209 642 2551 
Q 353 2894 353 3481 
Q 353 4063 643 4406 
Q 934 4750 1428 4750 
z
" transform="scale(0.015625)"/>
       <path id="DejaVuSans-5d" d="M 1947 4863 
L 1947 -844 
L 622 -844 
L 622 -397 
L 1369 -397 
L 1369 4416 
L 622 4416 
L 622 4863 
L 1947 4863 
z
" transform="scale(0.015625)"/>
      </defs>
      <use xlink:href="#DejaVuSans-52"/>
      <use xlink:href="#DejaVuSans-65" x="64.982422"/>
      <use xlink:href="#DejaVuSans-74" x="126.505859"/>
      <use xlink:href="#DejaVuSans-75" x="165.714844"/>
      <use xlink:href="#DejaVuSans-72" x="229.09375"/>
      <use xlink:href="#DejaVuSans-6e" x="268.457031"/>
      <use xlink:href="#DejaVuSans-20" x="331.835938"/>
      <use xlink:href="#DejaVuSans-5b" x="363.623047"/>
      <use xlink:href="#DejaVuSans-25" x="402.636719"/>
      <use xlink:href="#DejaVuSans-5d" x="497.65625"/>
     </g>
    </g>
   </g>
   <g id="line2d_14">
    <path d="M 115.363636 419.423565 
L 122.631154 421.602426 
L 124.084657 430.92 
L 125.538161 399.362033 
L 129.898672 395.859538 
L 131.352175 382.604301 
L 132.805679 372.752588 
L 134.259182 372.621131 
L 135.712686 376.589241 
L 141.5267 384.111295 
L 142.980203 374.005962 
L 144.433707 370.196809 
L 145.88721 350.63572 
L 150.247721 355.189644 
L 153.154728 366.55228 
L 154.608231 359.235344 
L 156.061735 349.626977 
L 160.422245 357.264699 
L 161.875749 348.419463 
L 163.329252 343.299745 
L 164.782756 338.821371 
L 166.236259 331.061486 
L 170.59677 329.93428 
L 172.050274 318.370984 
L 173.503777 311.829643 
L 174.957281 328.356344 
L 176.410784 329.948937 
L 180.771295 318.495868 
L 182.224798 313.143986 
L 183.678302 306.217189 
L 185.131805 303.357775 
L 186.585309 287.146721 
L 190.945819 287.119826 
L 192.399323 284.578023 
L 193.852826 283.530523 
L 195.30633 295.587614 
L 196.759833 283.364011 
L 201.120344 285.082168 
L 202.573847 287.045862 
L 204.027351 292.642753 
L 205.480854 295.560719 
L 206.934358 289.871279 
L 211.294868 284.149655 
L 212.748372 284.01155 
L 214.201875 295.602951 
L 215.655379 305.966288 
L 217.108883 306.177676 
L 221.469393 297.645066 
L 222.922897 300.944634 
L 224.3764 295.475423 
L 225.829904 281.903027 
L 227.283407 278.128098 
L 231.643918 271.136404 
L 233.097421 263.487124 
L 234.550925 270.398508 
L 236.004428 271.126507 
L 237.457932 292.398727 
L 241.818442 294.821991 
L 243.271946 294.445148 
L 244.725449 300.724482 
L 246.178953 305.66099 
L 247.632456 310.115566 
L 251.992967 289.787419 
L 253.44647 279.492228 
L 254.899974 258.016703 
L 256.353477 262.651012 
L 257.806981 258.10147 
L 262.167492 256.400766 
L 263.620995 262.416052 
L 265.074499 253.357236 
L 266.528002 254.504387 
L 267.981506 243.79012 
L 272.342016 242.71784 
L 273.79552 239.020275 
L 275.249023 229.487383 
L 276.702527 221.476747 
L 283.970044 220.392001 
L 286.877051 207.369608 
L 288.330555 207.656094 
L 292.691065 204.4286 
L 294.144569 217.398561 
L 297.051576 225.477117 
L 298.505079 220.278223 
L 302.86559 237.738041 
L 304.319094 261.439191 
L 305.772597 257.265737 
L 307.226101 277.421253 
L 308.679604 272.380939 
L 313.040115 294.685473 
L 314.493618 281.857772 
L 315.947122 279.970232 
L 317.400625 263.306559 
L 318.854129 269.743339 
L 323.214639 283.310749 
L 324.668143 272.72522 
L 326.121646 278.217096 
L 327.57515 304.26241 
L 329.028653 296.443746 
L 333.389164 298.924127 
L 334.842667 301.279245 
L 336.296171 321.198743 
L 339.203178 342.569933 
L 343.563688 336.698871 
L 345.017192 322.288475 
L 346.470695 318.740272 
L 349.377703 300.508107 
L 353.738213 294.201197 
L 355.191717 279.938124 
L 356.64522 279.760128 
L 358.098724 276.346177 
L 359.552227 282.77933 
L 363.912738 285.103322 
L 365.366241 267.797701 
L 366.819745 265.556134 
L 368.273248 253.548378 
L 374.087262 266.657653 
L 375.540766 269.413261 
L 376.994269 271.729925 
L 378.447773 262.12866 
L 379.901276 257.977569 
L 384.261787 243.194938 
L 385.71529 239.401198 
L 387.168794 238.024753 
L 388.622297 235.449105 
L 390.075801 248.524533 
L 394.436312 243.141222 
L 395.889815 251.594052 
L 397.343319 257.964725 
L 398.796822 264.947126 
L 400.250326 255.571152 
L 404.610836 250.063485 
L 406.06434 251.83007 
L 407.517843 276.388863 
L 408.971347 291.992419 
L 410.42485 270.82952 
L 414.785361 274.261905 
L 416.238864 256.212571 
L 417.692368 265.057354 
L 419.145871 269.483069 
L 420.599375 266.885738 
L 424.959885 264.11993 
L 426.413389 274.728049 
L 427.866892 275.093559 
L 429.320396 265.172114 
L 430.773899 298.568966 
L 436.587914 333.073305 
L 438.041417 329.176968 
L 439.494921 312.231947 
L 440.948424 326.663119 
L 445.308935 325.495192 
L 446.762438 317.713699 
L 448.215942 350.42826 
L 449.669445 353.711585 
L 451.122949 335.806929 
L 455.483459 321.030342 
L 456.936963 324.528984 
L 458.390466 317.628857 
L 459.84397 323.643161 
L 461.297473 333.211184 
L 465.657984 334.72188 
L 467.111487 327.193404 
L 468.564991 328.464456 
L 470.018494 306.098122 
L 471.471998 292.314942 
L 475.832508 297.448712 
L 477.286012 298.602586 
L 478.739515 289.07045 
L 480.193019 276.932369 
L 481.646523 273.448459 
L 486.007033 266.843128 
L 487.460537 256.051121 
L 488.91404 246.504101 
L 491.821047 225.555311 
L 496.181558 233.36098 
L 497.635061 237.658563 
L 499.088565 233.288829 
L 500.542068 226.089071 
L 501.995572 224.388442 
L 506.356082 246.473277 
L 507.809586 249.924549 
L 509.263089 259.305359 
L 510.716593 251.039591 
L 512.170096 239.720925 
L 516.530607 238.908385 
L 517.98411 247.996515 
L 519.437614 279.97401 
L 520.891117 283.682379 
L 522.344621 279.47402 
L 526.705132 261.328737 
L 528.158635 270.625913 
L 529.612139 259.814565 
L 531.065642 252.233809 
L 532.519146 234.67026 
L 536.879656 235.20183 
L 538.33316 221.879277 
L 539.786663 216.605287 
L 541.240167 212.313143 
L 542.69367 200.951792 
L 547.054181 180.972307 
L 548.507684 178.056608 
L 549.961188 179.82629 
L 552.868195 163.635031 
L 557.228705 153.809157 
L 558.682209 167.40044 
L 560.135712 164.009079 
L 561.589216 173.928257 
L 563.042719 171.032881 
L 567.40323 145.708238 
L 568.856734 146.845794 
L 570.310237 151.933478 
L 571.763741 151.163851 
L 573.217244 144.558293 
L 577.577755 151.396394 
L 579.031258 142.924525 
L 580.484762 149.058501 
L 581.938265 155.994061 
L 583.391769 156.412532 
L 587.752279 165.248702 
L 589.205783 166.698732 
L 590.659286 177.420176 
L 592.11279 184.182198 
L 593.566293 181.100667 
L 597.926804 167.614624 
L 599.380307 168.404877 
L 600.833811 170.813182 
L 602.287314 172.702611 
L 603.740818 176.517278 
L 608.101328 194.223314 
L 609.554832 201.123366 
L 611.008336 180.034053 
L 612.461839 181.519289 
L 613.915343 167.182025 
L 618.275853 166.651967 
L 619.729357 172.545089 
L 621.18286 167.929365 
L 622.636364 155.37168 
L 622.636364 155.37168 
" clip-path="url(#p029f55a786)" style="fill: none; stroke: #1f77b4; stroke-width: 1.5; stroke-linecap: square"/>
   </g>
   <g id="line2d_15">
    <path d="M 115.363636 419.423565 
L 122.631154 419.423565 
L 124.084657 408.111159 
L 125.538161 403.252271 
L 129.898672 399.674397 
L 131.352175 405.853576 
L 132.805679 401.341173 
L 134.259182 399.166305 
L 135.712686 401.945218 
L 140.073196 389.180667 
L 141.5267 381.665032 
L 142.980203 375.059464 
L 144.433707 370.389667 
L 145.88721 364.05728 
L 150.247721 361.711342 
L 151.701224 345.735579 
L 153.154728 363.068773 
L 154.608231 348.663327 
L 156.061735 349.81429 
L 160.422245 352.848309 
L 161.875749 370.903713 
L 163.329252 376.193293 
L 164.782756 373.976508 
L 166.236259 360.972206 
L 170.59677 364.611298 
L 172.050274 355.89998 
L 173.503777 364.035271 
L 174.957281 359.702566 
L 176.410784 371.677183 
L 180.771295 362.353511 
L 182.224798 356.954017 
L 183.678302 353.443853 
L 185.131805 351.799755 
L 186.585309 355.53035 
L 190.945819 347.875582 
L 192.399323 351.141107 
L 193.852826 372.38995 
L 195.30633 365.872967 
L 196.759833 374.18253 
L 201.120344 371.870458 
L 202.573847 377.870598 
L 204.027351 376.492777 
L 205.480854 382.077592 
L 206.934358 384.175992 
L 211.294868 383.022803 
L 212.748372 380.739254 
L 214.201875 382.213497 
L 215.655379 387.909978 
L 217.108883 399.079108 
L 221.469393 400.165487 
L 222.922897 392.862316 
L 224.3764 389.79145 
L 225.829904 392.755146 
L 227.283407 384.477631 
L 231.643918 379.708603 
L 233.097421 376.386387 
L 234.550925 371.536346 
L 236.004428 378.75846 
L 237.457932 377.426964 
L 241.818442 388.764877 
L 243.271946 393.251253 
L 244.725449 389.487468 
L 246.178953 390.754432 
L 247.632456 383.989711 
L 251.992967 384.46573 
L 253.44647 378.841362 
L 254.899974 372.469078 
L 256.353477 367.794911 
L 257.806981 366.305354 
L 262.167492 373.322006 
L 263.620995 372.698396 
L 265.074499 381.559942 
L 266.528002 386.443569 
L 267.981506 394.955853 
L 272.342016 394.745256 
L 273.79552 390.370886 
L 275.249023 381.098916 
L 276.702527 387.303358 
L 283.970044 384.838757 
L 285.423548 388.655397 
L 286.877051 391.431699 
L 288.330555 380.995009 
L 292.691065 372.71628 
L 294.144569 370.577651 
L 297.051576 374.97709 
L 298.505079 355.696051 
L 302.86559 343.896174 
L 304.319094 353.255044 
L 305.772597 360.434171 
L 317.400625 360.434171 
L 318.854129 348.670561 
L 326.121646 348.699141 
L 327.57515 352.715272 
L 329.028653 357.824245 
L 333.389164 356.11236 
L 334.842667 356.27287 
L 336.296171 355.14285 
L 339.203178 375.870851 
L 343.563688 371.574582 
L 345.017192 366.77847 
L 346.470695 356.452935 
L 349.377703 345.761297 
L 353.738213 337.88826 
L 355.191717 332.262586 
L 356.64522 325.17688 
L 358.098724 314.901492 
L 359.552227 306.824038 
L 363.912738 299.178632 
L 365.366241 301.561111 
L 366.819745 287.485684 
L 368.273248 277.84714 
L 374.087262 269.970227 
L 375.540766 273.656443 
L 376.994269 263.886232 
L 378.447773 269.975282 
L 379.901276 271.601774 
L 384.261787 272.760436 
L 385.71529 270.978215 
L 387.168794 253.557797 
L 388.622297 245.320917 
L 390.075801 239.881601 
L 394.436312 251.585685 
L 395.889815 250.157218 
L 397.343319 252.103763 
L 398.796822 246.35437 
L 400.250326 246.726013 
L 404.610836 243.795221 
L 406.06434 246.646645 
L 407.517843 250.579117 
L 408.971347 236.184467 
L 410.42485 231.727856 
L 414.785361 219.497352 
L 416.238864 216.47617 
L 417.692368 210.129623 
L 419.145871 212.739497 
L 420.599375 214.368694 
L 424.959885 215.504834 
L 426.413389 200.319323 
L 427.866892 201.450296 
L 429.320396 204.869394 
L 430.773899 210.842226 
L 435.13441 226.530011 
L 436.587914 238.203748 
L 438.041417 234.251465 
L 439.494921 226.42801 
L 440.948424 220.272726 
L 445.308935 222.402001 
L 446.762438 232.284315 
L 471.471998 232.284315 
L 475.832508 229.594135 
L 477.286012 217.961055 
L 478.739515 221.774233 
L 480.193019 221.774233 
L 481.646523 242.417249 
L 486.007033 234.402516 
L 487.460537 254.40562 
L 488.91404 258.215129 
L 490.367544 252.395 
L 491.821047 252.601872 
L 496.181558 255.663226 
L 497.635061 255.073426 
L 499.088565 241.900924 
L 500.542068 230.757487 
L 501.995572 215.923553 
L 506.356082 211.513495 
L 507.809586 217.588709 
L 509.263089 213.063849 
L 510.716593 216.626608 
L 512.170096 210.623118 
L 516.530607 211.061313 
L 517.98411 218.139525 
L 519.437614 216.290503 
L 520.891117 243.125771 
L 522.344621 239.129308 
L 526.705132 233.686657 
L 528.158635 230.367924 
L 529.612139 230.275883 
L 531.065642 221.045382 
L 532.519146 217.542606 
L 536.879656 206.335998 
L 538.33316 201.247255 
L 539.786663 182.889018 
L 541.240167 172.349631 
L 542.69367 172.063717 
L 547.054181 178.852848 
L 548.507684 184.883885 
L 549.961188 204.932855 
L 551.414691 176.238932 
L 552.868195 182.910099 
L 557.228705 166.888836 
L 558.682209 175.531885 
L 560.135712 177.876907 
L 561.589216 170.313781 
L 563.042719 176.547758 
L 567.40323 163.553086 
L 568.856734 171.067594 
L 570.310237 175.323949 
L 571.763741 175.926676 
L 573.217244 166.203537 
L 577.577755 161.465011 
L 579.031258 154.571253 
L 580.484762 166.41421 
L 581.938265 174.357977 
L 583.391769 178.99475 
L 587.752279 182.533649 
L 589.205783 166.958595 
L 590.659286 184.139329 
L 592.11279 185.654173 
L 593.566293 180.079822 
L 597.926804 164.678077 
L 599.380307 144.847098 
L 600.833811 139.718268 
L 602.287314 152.412417 
L 603.740818 146.486604 
L 608.101328 141.974223 
L 609.554832 138.716324 
L 611.008336 136.313324 
L 612.461839 118.473131 
L 613.915343 110.899615 
L 618.275853 96.997287 
L 619.729357 97.075683 
L 622.636364 78.12 
L 622.636364 78.12 
" clip-path="url(#p029f55a786)" style="fill: none; stroke: #ff7f0e; stroke-width: 1.5; stroke-linecap: square"/>
   </g>
   <g id="patch_3">
    <path d="M 90 448.56 
L 90 60.48 
" style="fill: none; stroke: #000000; stroke-width: 0.8; stroke-linejoin: miter; stroke-linecap: square"/>
   </g>
   <g id="patch_4">
    <path d="M 648 448.56 
L 648 60.48 
" style="fill: none; stroke: #000000; stroke-width: 0.8; stroke-linejoin: miter; stroke-linecap: square"/>
   </g>
   <g id="patch_5">
    <path d="M 90 448.56 
L 648 448.56 
" style="fill: none; stroke: #000000; stroke-width: 0.8; stroke-linejoin: miter; stroke-linecap: square"/>
   </g>
   <g id="patch_6">
    <path d="M 90 60.48 
L 648 60.48 
" style="fill: none; stroke: #000000; stroke-width: 0.8; stroke-linejoin: miter; stroke-linecap: square"/>
   </g>
   <g id="text_16">
    <!-- Performance of AVAN-strategy year 2019 -->
    <g transform="translate(245.686875 54.48)scale(0.12 -0.12)">
     <defs>
      <path id="DejaVuSans-50" d="M 1259 4147 
L 1259 2394 
L 2053 2394 
Q 2494 2394 2734 2622 
Q 2975 2850 2975 3272 
Q 2975 3691 2734 3919 
Q 2494 4147 2053 4147 
L 1259 4147 
z
M 628 4666 
L 2053 4666 
Q 2838 4666 3239 4311 
Q 3641 3956 3641 3272 
Q 3641 2581 3239 2228 
Q 2838 1875 2053 1875 
L 1259 1875 
L 1259 0 
L 628 0 
L 628 4666 
z
" transform="scale(0.015625)"/>
      <path id="DejaVuSans-66" d="M 2375 4863 
L 2375 4384 
L 1825 4384 
Q 1516 4384 1395 4259 
Q 1275 4134 1275 3809 
L 1275 3500 
L 2222 3500 
L 2222 3053 
L 1275 3053 
L 1275 0 
L 697 0 
L 697 3053 
L 147 3053 
L 147 3500 
L 697 3500 
L 697 3744 
Q 697 4328 969 4595 
Q 1241 4863 1831 4863 
L 2375 4863 
z
" transform="scale(0.015625)"/>
      <path id="DejaVuSans-6f" d="M 1959 3097 
Q 1497 3097 1228 2736 
Q 959 2375 959 1747 
Q 959 1119 1226 758 
Q 1494 397 1959 397 
Q 2419 397 2687 759 
Q 2956 1122 2956 1747 
Q 2956 2369 2687 2733 
Q 2419 3097 1959 3097 
z
M 1959 3584 
Q 2709 3584 3137 3096 
Q 3566 2609 3566 1747 
Q 3566 888 3137 398 
Q 2709 -91 1959 -91 
Q 1206 -91 779 398 
Q 353 888 353 1747 
Q 353 2609 779 3096 
Q 1206 3584 1959 3584 
z
" transform="scale(0.015625)"/>
      <path id="DejaVuSans-61" d="M 2194 1759 
Q 1497 1759 1228 1600 
Q 959 1441 959 1056 
Q 959 750 1161 570 
Q 1363 391 1709 391 
Q 2188 391 2477 730 
Q 2766 1069 2766 1631 
L 2766 1759 
L 2194 1759 
z
M 3341 1997 
L 3341 0 
L 2766 0 
L 2766 531 
Q 2569 213 2275 61 
Q 1981 -91 1556 -91 
Q 1019 -91 701 211 
Q 384 513 384 1019 
Q 384 1609 779 1909 
Q 1175 2209 1959 2209 
L 2766 2209 
L 2766 2266 
Q 2766 2663 2505 2880 
Q 2244 3097 1772 3097 
Q 1472 3097 1187 3025 
Q 903 2953 641 2809 
L 641 3341 
Q 956 3463 1253 3523 
Q 1550 3584 1831 3584 
Q 2591 3584 2966 3190 
Q 3341 2797 3341 1997 
z
" transform="scale(0.015625)"/>
      <path id="DejaVuSans-63" d="M 3122 3366 
L 3122 2828 
Q 2878 2963 2633 3030 
Q 2388 3097 2138 3097 
Q 1578 3097 1268 2742 
Q 959 2388 959 1747 
Q 959 1106 1268 751 
Q 1578 397 2138 397 
Q 2388 397 2633 464 
Q 2878 531 3122 666 
L 3122 134 
Q 2881 22 2623 -34 
Q 2366 -91 2075 -91 
Q 1284 -91 818 406 
Q 353 903 353 1747 
Q 353 2603 823 3093 
Q 1294 3584 2113 3584 
Q 2378 3584 2631 3529 
Q 2884 3475 3122 3366 
z
" transform="scale(0.015625)"/>
      <path id="DejaVuSans-41" d="M 2188 4044 
L 1331 1722 
L 3047 1722 
L 2188 4044 
z
M 1831 4666 
L 2547 4666 
L 4325 0 
L 3669 0 
L 3244 1197 
L 1141 1197 
L 716 0 
L 50 0 
L 1831 4666 
z
" transform="scale(0.015625)"/>
      <path id="DejaVuSans-56" d="M 1831 0 
L 50 4666 
L 709 4666 
L 2188 738 
L 3669 4666 
L 4325 4666 
L 2547 0 
L 1831 0 
z
" transform="scale(0.015625)"/>
      <path id="DejaVuSans-4e" d="M 628 4666 
L 1478 4666 
L 3547 763 
L 3547 4666 
L 4159 4666 
L 4159 0 
L 3309 0 
L 1241 3903 
L 1241 0 
L 628 0 
L 628 4666 
z
" transform="scale(0.015625)"/>
      <path id="DejaVuSans-73" d="M 2834 3397 
L 2834 2853 
Q 2591 2978 2328 3040 
Q 2066 3103 1784 3103 
Q 1356 3103 1142 2972 
Q 928 2841 928 2578 
Q 928 2378 1081 2264 
Q 1234 2150 1697 2047 
L 1894 2003 
Q 2506 1872 2764 1633 
Q 3022 1394 3022 966 
Q 3022 478 2636 193 
Q 2250 -91 1575 -91 
Q 1294 -91 989 -36 
Q 684 19 347 128 
L 347 722 
Q 666 556 975 473 
Q 1284 391 1588 391 
Q 1994 391 2212 530 
Q 2431 669 2431 922 
Q 2431 1156 2273 1281 
Q 2116 1406 1581 1522 
L 1381 1569 
Q 847 1681 609 1914 
Q 372 2147 372 2553 
Q 372 3047 722 3315 
Q 1072 3584 1716 3584 
Q 2034 3584 2315 3537 
Q 2597 3491 2834 3397 
z
" transform="scale(0.015625)"/>
      <path id="DejaVuSans-67" d="M 2906 1791 
Q 2906 2416 2648 2759 
Q 2391 3103 1925 3103 
Q 1463 3103 1205 2759 
Q 947 2416 947 1791 
Q 947 1169 1205 825 
Q 1463 481 1925 481 
Q 2391 481 2648 825 
Q 2906 1169 2906 1791 
z
M 3481 434 
Q 3481 -459 3084 -895 
Q 2688 -1331 1869 -1331 
Q 1566 -1331 1297 -1286 
Q 1028 -1241 775 -1147 
L 775 -588 
Q 1028 -725 1275 -790 
Q 1522 -856 1778 -856 
Q 2344 -856 2625 -561 
Q 2906 -266 2906 331 
L 2906 616 
Q 2728 306 2450 153 
Q 2172 0 1784 0 
Q 1141 0 747 490 
Q 353 981 353 1791 
Q 353 2603 747 3093 
Q 1141 3584 1784 3584 
Q 2172 3584 2450 3431 
Q 2728 3278 2906 2969 
L 2906 3500 
L 3481 3500 
L 3481 434 
z
" transform="scale(0.015625)"/>
      <path id="DejaVuSans-79" d="M 2059 -325 
Q 1816 -950 1584 -1140 
Q 1353 -1331 966 -1331 
L 506 -1331 
L 506 -850 
L 844 -850 
Q 1081 -850 1212 -737 
Q 1344 -625 1503 -206 
L 1606 56 
L 191 3500 
L 800 3500 
L 1894 763 
L 2988 3500 
L 3597 3500 
L 2059 -325 
z
" transform="scale(0.015625)"/>
     </defs>
     <use xlink:href="#DejaVuSans-50"/>
     <use xlink:href="#DejaVuSans-65" x="56.677734"/>
     <use xlink:href="#DejaVuSans-72" x="118.201172"/>
     <use xlink:href="#DejaVuSans-66" x="159.314453"/>
     <use xlink:href="#DejaVuSans-6f" x="194.519531"/>
     <use xlink:href="#DejaVuSans-72" x="255.701172"/>
     <use xlink:href="#DejaVuSans-6d" x="295.064453"/>
     <use xlink:href="#DejaVuSans-61" x="392.476562"/>
     <use xlink:href="#DejaVuSans-6e" x="453.755859"/>
     <use xlink:href="#DejaVuSans-63" x="517.134766"/>
     <use xlink:href="#DejaVuSans-65" x="572.115234"/>
     <use xlink:href="#DejaVuSans-20" x="633.638672"/>
     <use xlink:href="#DejaVuSans-6f" x="665.425781"/>
     <use xlink:href="#DejaVuSans-66" x="726.607422"/>
     <use xlink:href="#DejaVuSans-20" x="761.8125"/>
     <use xlink:href="#DejaVuSans-41" x="793.599609"/>
     <use xlink:href="#DejaVuSans-56" x="855.632812"/>
     <use xlink:href="#DejaVuSans-41" x="917.666016"/>
     <use xlink:href="#DejaVuSans-4e" x="986.074219"/>
     <use xlink:href="#DejaVuSans-2d" x="1060.878906"/>
     <use xlink:href="#DejaVuSans-73" x="1096.962891"/>
     <use xlink:href="#DejaVuSans-74" x="1149.0625"/>
     <use xlink:href="#DejaVuSans-72" x="1188.271484"/>
     <use xlink:href="#DejaVuSans-61" x="1229.384766"/>
     <use xlink:href="#DejaVuSans-74" x="1290.664062"/>
     <use xlink:href="#DejaVuSans-65" x="1329.873047"/>
     <use xlink:href="#DejaVuSans-67" x="1391.396484"/>
     <use xlink:href="#DejaVuSans-79" x="1454.873047"/>
     <use xlink:href="#DejaVuSans-20" x="1514.052734"/>
     <use xlink:href="#DejaVuSans-79" x="1545.839844"/>
     <use xlink:href="#DejaVuSans-65" x="1605.019531"/>
     <use xlink:href="#DejaVuSans-61" x="1666.542969"/>
     <use xlink:href="#DejaVuSans-72" x="1727.822266"/>
     <use xlink:href="#DejaVuSans-20" x="1768.935547"/>
     <use xlink:href="#DejaVuSans-32" x="1800.722656"/>
     <use xlink:href="#DejaVuSans-30" x="1864.345703"/>
     <use xlink:href="#DejaVuSans-31" x="1927.96875"/>
     <use xlink:href="#DejaVuSans-39" x="1991.591797"/>
    </g>
   </g>
   <g id="legend_1">
    <g id="patch_7">
     <path d="M 97 97.83625 
L 313.496875 97.83625 
Q 315.496875 97.83625 315.496875 95.83625 
L 315.496875 67.48 
Q 315.496875 65.48 313.496875 65.48 
L 97 65.48 
Q 95 65.48 95 67.48 
L 95 95.83625 
Q 95 97.83625 97 97.83625 
z
" style="fill: #ffffff; opacity: 0.8; stroke: #cccccc; stroke-linejoin: miter"/>
    </g>
    <g id="line2d_16">
     <path d="M 99 73.578438 
L 109 73.578438 
L 119 73.578438 
" style="fill: none; stroke: #1f77b4; stroke-width: 1.5; stroke-linecap: square"/>
    </g>
    <g id="text_17">
     <!-- 24.8099% return omx -->
     <g transform="translate(127 77.078438)scale(0.1 -0.1)">
      <defs>
       <path id="DejaVuSans-34" d="M 2419 4116 
L 825 1625 
L 2419 1625 
L 2419 4116 
z
M 2253 4666 
L 3047 4666 
L 3047 1625 
L 3713 1625 
L 3713 1100 
L 3047 1100 
L 3047 0 
L 2419 0 
L 2419 1100 
L 313 1100 
L 313 1709 
L 2253 4666 
z
" transform="scale(0.015625)"/>
       <path id="DejaVuSans-2e" d="M 684 794 
L 1344 794 
L 1344 0 
L 684 0 
L 684 794 
z
" transform="scale(0.015625)"/>
       <path id="DejaVuSans-38" d="M 2034 2216 
Q 1584 2216 1326 1975 
Q 1069 1734 1069 1313 
Q 1069 891 1326 650 
Q 1584 409 2034 409 
Q 2484 409 2743 651 
Q 3003 894 3003 1313 
Q 3003 1734 2745 1975 
Q 2488 2216 2034 2216 
z
M 1403 2484 
Q 997 2584 770 2862 
Q 544 3141 544 3541 
Q 544 4100 942 4425 
Q 1341 4750 2034 4750 
Q 2731 4750 3128 4425 
Q 3525 4100 3525 3541 
Q 3525 3141 3298 2862 
Q 3072 2584 2669 2484 
Q 3125 2378 3379 2068 
Q 3634 1759 3634 1313 
Q 3634 634 3220 271 
Q 2806 -91 2034 -91 
Q 1263 -91 848 271 
Q 434 634 434 1313 
Q 434 1759 690 2068 
Q 947 2378 1403 2484 
z
M 1172 3481 
Q 1172 3119 1398 2916 
Q 1625 2713 2034 2713 
Q 2441 2713 2670 2916 
Q 2900 3119 2900 3481 
Q 2900 3844 2670 4047 
Q 2441 4250 2034 4250 
Q 1625 4250 1398 4047 
Q 1172 3844 1172 3481 
z
" transform="scale(0.015625)"/>
       <path id="DejaVuSans-78" d="M 3513 3500 
L 2247 1797 
L 3578 0 
L 2900 0 
L 1881 1375 
L 863 0 
L 184 0 
L 1544 1831 
L 300 3500 
L 978 3500 
L 1906 2253 
L 2834 3500 
L 3513 3500 
z
" transform="scale(0.015625)"/>
      </defs>
      <use xlink:href="#DejaVuSans-32"/>
      <use xlink:href="#DejaVuSans-34" x="63.623047"/>
      <use xlink:href="#DejaVuSans-2e" x="127.246094"/>
      <use xlink:href="#DejaVuSans-38" x="159.033203"/>
      <use xlink:href="#DejaVuSans-30" x="222.65625"/>
      <use xlink:href="#DejaVuSans-39" x="286.279297"/>
      <use xlink:href="#DejaVuSans-39" x="349.902344"/>
      <use xlink:href="#DejaVuSans-25" x="413.525391"/>
      <use xlink:href="#DejaVuSans-20" x="508.544922"/>
      <use xlink:href="#DejaVuSans-72" x="540.332031"/>
      <use xlink:href="#DejaVuSans-65" x="579.195312"/>
      <use xlink:href="#DejaVuSans-74" x="640.71875"/>
      <use xlink:href="#DejaVuSans-75" x="679.927734"/>
      <use xlink:href="#DejaVuSans-72" x="743.306641"/>
      <use xlink:href="#DejaVuSans-6e" x="782.669922"/>
      <use xlink:href="#DejaVuSans-20" x="846.048828"/>
      <use xlink:href="#DejaVuSans-6f" x="877.835938"/>
      <use xlink:href="#DejaVuSans-6d" x="939.017578"/>
      <use xlink:href="#DejaVuSans-78" x="1036.429688"/>
     </g>
    </g>
    <g id="line2d_17">
     <path d="M 99 88.256563 
L 109 88.256563 
L 119 88.256563 
" style="fill: none; stroke: #ff7f0e; stroke-width: 1.5; stroke-linecap: square"/>
    </g>
    <g id="text_18">
     <!-- 32.068400000000004% return AVAN -->
     <g transform="translate(127 91.756563)scale(0.1 -0.1)">
      <defs>
       <path id="DejaVuSans-36" d="M 2113 2584 
Q 1688 2584 1439 2293 
Q 1191 2003 1191 1497 
Q 1191 994 1439 701 
Q 1688 409 2113 409 
Q 2538 409 2786 701 
Q 3034 994 3034 1497 
Q 3034 2003 2786 2293 
Q 2538 2584 2113 2584 
z
M 3366 4563 
L 3366 3988 
Q 3128 4100 2886 4159 
Q 2644 4219 2406 4219 
Q 1781 4219 1451 3797 
Q 1122 3375 1075 2522 
Q 1259 2794 1537 2939 
Q 1816 3084 2150 3084 
Q 2853 3084 3261 2657 
Q 3669 2231 3669 1497 
Q 3669 778 3244 343 
Q 2819 -91 2113 -91 
Q 1303 -91 875 529 
Q 447 1150 447 2328 
Q 447 3434 972 4092 
Q 1497 4750 2381 4750 
Q 2619 4750 2861 4703 
Q 3103 4656 3366 4563 
z
" transform="scale(0.015625)"/>
      </defs>
      <use xlink:href="#DejaVuSans-33"/>
      <use xlink:href="#DejaVuSans-32" x="63.623047"/>
      <use xlink:href="#DejaVuSans-2e" x="127.246094"/>
      <use xlink:href="#DejaVuSans-30" x="159.033203"/>
      <use xlink:href="#DejaVuSans-36" x="222.65625"/>
      <use xlink:href="#DejaVuSans-38" x="286.279297"/>
      <use xlink:href="#DejaVuSans-34" x="349.902344"/>
      <use xlink:href="#DejaVuSans-30" x="413.525391"/>
      <use xlink:href="#DejaVuSans-30" x="477.148438"/>
      <use xlink:href="#DejaVuSans-30" x="540.771484"/>
      <use xlink:href="#DejaVuSans-30" x="604.394531"/>
      <use xlink:href="#DejaVuSans-30" x="668.017578"/>
      <use xlink:href="#DejaVuSans-30" x="731.640625"/>
      <use xlink:href="#DejaVuSans-30" x="795.263672"/>
      <use xlink:href="#DejaVuSans-30" x="858.886719"/>
      <use xlink:href="#DejaVuSans-30" x="922.509766"/>
      <use xlink:href="#DejaVuSans-30" x="986.132812"/>
      <use xlink:href="#DejaVuSans-34" x="1049.755859"/>
      <use xlink:href="#DejaVuSans-25" x="1113.378906"/>
      <use xlink:href="#DejaVuSans-20" x="1208.398438"/>
      <use xlink:href="#DejaVuSans-72" x="1240.185547"/>
      <use xlink:href="#DejaVuSans-65" x="1279.048828"/>
      <use xlink:href="#DejaVuSans-74" x="1340.572266"/>
      <use xlink:href="#DejaVuSans-75" x="1379.78125"/>
      <use xlink:href="#DejaVuSans-72" x="1443.160156"/>
      <use xlink:href="#DejaVuSans-6e" x="1482.523438"/>
      <use xlink:href="#DejaVuSans-20" x="1545.902344"/>
      <use xlink:href="#DejaVuSans-41" x="1577.689453"/>
      <use xlink:href="#DejaVuSans-56" x="1639.722656"/>
      <use xlink:href="#DejaVuSans-41" x="1701.755859"/>
      <use xlink:href="#DejaVuSans-4e" x="1770.164062"/>
     </g>
    </g>
   </g>
  </g>
 </g>
 <defs>
  <clipPath id="p029f55a786">
   <rect x="90" y="60.48" width="558" height="388.08"/>
  </clipPath>
 </defs>
</svg>
