<?xml version="1.0" encoding="utf-8" standalone="no"?>
<!DOCTYPE svg PUBLIC "-//W3C//DTD SVG 1.1//EN"
  "http://www.w3.org/Graphics/SVG/1.1/DTD/svg11.dtd">
<svg xmlns:xlink="http://www.w3.org/1999/xlink" width="576pt" height="432pt" viewBox="0 0 576 432" xmlns="http://www.w3.org/2000/svg" version="1.1">
 <metadata>
  <rdf:RDF xmlns:dc="http://purl.org/dc/elements/1.1/" xmlns:cc="http://creativecommons.org/ns#" xmlns:rdf="http://www.w3.org/1999/02/22-rdf-syntax-ns#">
   <cc:Work>
    <dc:type rdf:resource="http://purl.org/dc/dcmitype/StillImage"/>
    <dc:date>2023-01-15T23:56:30.679873</dc:date>
    <dc:format>image/svg+xml</dc:format>
    <dc:creator>
     <cc:Agent>
      <dc:title>Matplotlib v3.5.0, https://matplotlib.org/</dc:title>
     </cc:Agent>
    </dc:creator>
   </cc:Work>
  </rdf:RDF>
 </metadata>
 <defs>
  <style type="text/css">*{stroke-linejoin: round; stroke-linecap: butt}</style>
 </defs>
 <g id="figure_1">
  <g id="patch_1">
   <path d="M 0 432 
L 576 432 
L 576 0 
L 0 0 
z
" style="fill: #ffffff"/>
  </g>
  <g id="axes_1">
   <g id="patch_2">
    <path d="M 52.94 288.132273 
L 559.093845 288.132273 
L 559.093845 26.88 
L 52.94 26.88 
z
" style="fill: #ffffff"/>
   </g>
   <g id="matplotlib.axis_1">
    <g id="xtick_1">
     <g id="line2d_1">
      <defs>
       <path id="m397a87be24" d="M 0 0 
L 0 3.5 
" style="stroke: #000000; stroke-width: 0.8"/>
      </defs>
      <g>
       <use xlink:href="#m397a87be24" x="74.665266" y="288.132273" style="stroke: #000000; stroke-width: 0.8"/>
      </g>
     </g>
    </g>
    <g id="xtick_2">
     <g id="line2d_2">
      <g>
       <use xlink:href="#m397a87be24" x="150.287137" y="288.132273" style="stroke: #000000; stroke-width: 0.8"/>
      </g>
     </g>
    </g>
    <g id="xtick_3">
     <g id="line2d_3">
      <g>
       <use xlink:href="#m397a87be24" x="228.472462" y="288.132273" style="stroke: #000000; stroke-width: 0.8"/>
      </g>
     </g>
    </g>
    <g id="xtick_4">
     <g id="line2d_4">
      <g>
       <use xlink:href="#m397a87be24" x="306.657786" y="288.132273" style="stroke: #000000; stroke-width: 0.8"/>
      </g>
     </g>
    </g>
    <g id="xtick_5">
     <g id="line2d_5">
      <g>
       <use xlink:href="#m397a87be24" x="386.124837" y="288.132273" style="stroke: #000000; stroke-width: 0.8"/>
      </g>
     </g>
    </g>
    <g id="xtick_6">
     <g id="line2d_6">
      <g>
       <use xlink:href="#m397a87be24" x="464.310161" y="288.132273" style="stroke: #000000; stroke-width: 0.8"/>
      </g>
     </g>
    </g>
    <g id="xtick_7">
     <g id="line2d_7">
      <g>
       <use xlink:href="#m397a87be24" x="542.495485" y="288.132273" style="stroke: #000000; stroke-width: 0.8"/>
      </g>
     </g>
    </g>
   </g>
   <g id="matplotlib.axis_2">
    <g id="ytick_1">
     <g id="line2d_8">
      <defs>
       <path id="m73785369e5" d="M 0 0 
L -3.5 0 
" style="stroke: #000000; stroke-width: 0.8"/>
      </defs>
      <g>
       <use xlink:href="#m73785369e5" x="52.94" y="279.114526" style="stroke: #000000; stroke-width: 0.8"/>
      </g>
     </g>
     <g id="text_1">
      <!-- 0 -->
      <g transform="translate(39.5775 282.913745)scale(0.1 -0.1)">
       <defs>
        <path id="DejaVuSans-30" d="M 2034 4250 
Q 1547 4250 1301 3770 
Q 1056 3291 1056 2328 
Q 1056 1369 1301 889 
Q 1547 409 2034 409 
Q 2525 409 2770 889 
Q 3016 1369 3016 2328 
Q 3016 3291 2770 3770 
Q 2525 4250 2034 4250 
z
M 2034 4750 
Q 2819 4750 3233 4129 
Q 3647 3509 3647 2328 
Q 3647 1150 3233 529 
Q 2819 -91 2034 -91 
Q 1250 -91 836 529 
Q 422 1150 422 2328 
Q 422 3509 836 4129 
Q 1250 4750 2034 4750 
z
" transform="scale(0.015625)"/>
       </defs>
       <use xlink:href="#DejaVuSans-30"/>
      </g>
     </g>
    </g>
    <g id="ytick_2">
     <g id="line2d_9">
      <g>
       <use xlink:href="#m73785369e5" x="52.94" y="236.497977" style="stroke: #000000; stroke-width: 0.8"/>
      </g>
     </g>
     <g id="text_2">
      <!-- 10 -->
      <g transform="translate(33.215 240.297196)scale(0.1 -0.1)">
       <defs>
        <path id="DejaVuSans-31" d="M 794 531 
L 1825 531 
L 1825 4091 
L 703 3866 
L 703 4441 
L 1819 4666 
L 2450 4666 
L 2450 531 
L 3481 531 
L 3481 0 
L 794 0 
L 794 531 
z
" transform="scale(0.015625)"/>
       </defs>
       <use xlink:href="#DejaVuSans-31"/>
       <use xlink:href="#DejaVuSans-30" x="63.623047"/>
      </g>
     </g>
    </g>
    <g id="ytick_3">
     <g id="line2d_10">
      <g>
       <use xlink:href="#m73785369e5" x="52.94" y="193.881429" style="stroke: #000000; stroke-width: 0.8"/>
      </g>
     </g>
     <g id="text_3">
      <!-- 20 -->
      <g transform="translate(33.215 197.680648)scale(0.1 -0.1)">
       <defs>
        <path id="DejaVuSans-32" d="M 1228 531 
L 3431 531 
L 3431 0 
L 469 0 
L 469 531 
Q 828 903 1448 1529 
Q 2069 2156 2228 2338 
Q 2531 2678 2651 2914 
Q 2772 3150 2772 3378 
Q 2772 3750 2511 3984 
Q 2250 4219 1831 4219 
Q 1534 4219 1204 4116 
Q 875 4013 500 3803 
L 500 4441 
Q 881 4594 1212 4672 
Q 1544 4750 1819 4750 
Q 2544 4750 2975 4387 
Q 3406 4025 3406 3419 
Q 3406 3131 3298 2873 
Q 3191 2616 2906 2266 
Q 2828 2175 2409 1742 
Q 1991 1309 1228 531 
z
" transform="scale(0.015625)"/>
       </defs>
       <use xlink:href="#DejaVuSans-32"/>
       <use xlink:href="#DejaVuSans-30" x="63.623047"/>
      </g>
     </g>
    </g>
    <g id="ytick_4">
     <g id="line2d_11">
      <g>
       <use xlink:href="#m73785369e5" x="52.94" y="151.26488" style="stroke: #000000; stroke-width: 0.8"/>
      </g>
     </g>
     <g id="text_4">
      <!-- 30 -->
      <g transform="translate(33.215 155.064099)scale(0.1 -0.1)">
       <defs>
        <path id="DejaVuSans-33" d="M 2597 2516 
Q 3050 2419 3304 2112 
Q 3559 1806 3559 1356 
Q 3559 666 3084 287 
Q 2609 -91 1734 -91 
Q 1441 -91 1130 -33 
Q 819 25 488 141 
L 488 750 
Q 750 597 1062 519 
Q 1375 441 1716 441 
Q 2309 441 2620 675 
Q 2931 909 2931 1356 
Q 2931 1769 2642 2001 
Q 2353 2234 1838 2234 
L 1294 2234 
L 1294 2753 
L 1863 2753 
Q 2328 2753 2575 2939 
Q 2822 3125 2822 3475 
Q 2822 3834 2567 4026 
Q 2313 4219 1838 4219 
Q 1578 4219 1281 4162 
Q 984 4106 628 3988 
L 628 4550 
Q 988 4650 1302 4700 
Q 1616 4750 1894 4750 
Q 2613 4750 3031 4423 
Q 3450 4097 3450 3541 
Q 3450 3153 3228 2886 
Q 3006 2619 2597 2516 
z
" transform="scale(0.015625)"/>
       </defs>
       <use xlink:href="#DejaVuSans-33"/>
       <use xlink:href="#DejaVuSans-30" x="63.623047"/>
      </g>
     </g>
    </g>
    <g id="ytick_5">
     <g id="line2d_12">
      <g>
       <use xlink:href="#m73785369e5" x="52.94" y="108.648331" style="stroke: #000000; stroke-width: 0.8"/>
      </g>
     </g>
     <g id="text_5">
      <!-- 40 -->
      <g transform="translate(33.215 112.44755)scale(0.1 -0.1)">
       <defs>
        <path id="DejaVuSans-34" d="M 2419 4116 
L 825 1625 
L 2419 1625 
L 2419 4116 
z
M 2253 4666 
L 3047 4666 
L 3047 1625 
L 3713 1625 
L 3713 1100 
L 3047 1100 
L 3047 0 
L 2419 0 
L 2419 1100 
L 313 1100 
L 313 1709 
L 2253 4666 
z
" transform="scale(0.015625)"/>
       </defs>
       <use xlink:href="#DejaVuSans-34"/>
       <use xlink:href="#DejaVuSans-30" x="63.623047"/>
      </g>
     </g>
    </g>
    <g id="ytick_6">
     <g id="line2d_13">
      <g>
       <use xlink:href="#m73785369e5" x="52.94" y="66.031783" style="stroke: #000000; stroke-width: 0.8"/>
      </g>
     </g>
     <g id="text_6">
      <!-- 50 -->
      <g transform="translate(33.215 69.831001)scale(0.1 -0.1)">
       <defs>
        <path id="DejaVuSans-35" d="M 691 4666 
L 3169 4666 
L 3169 4134 
L 1269 4134 
L 1269 2991 
Q 1406 3038 1543 3061 
Q 1681 3084 1819 3084 
Q 2600 3084 3056 2656 
Q 3513 2228 3513 1497 
Q 3513 744 3044 326 
Q 2575 -91 1722 -91 
Q 1428 -91 1123 -41 
Q 819 9 494 109 
L 494 744 
Q 775 591 1075 516 
Q 1375 441 1709 441 
Q 2250 441 2565 725 
Q 2881 1009 2881 1497 
Q 2881 1984 2565 2268 
Q 2250 2553 1709 2553 
Q 1456 2553 1204 2497 
Q 953 2441 691 2322 
L 691 4666 
z
" transform="scale(0.015625)"/>
       </defs>
       <use xlink:href="#DejaVuSans-35"/>
       <use xlink:href="#DejaVuSans-30" x="63.623047"/>
      </g>
     </g>
    </g>
    <g id="text_7">
     <!-- Return [%] -->
     <g transform="translate(27.135313 184.338949)rotate(-90)scale(0.1 -0.1)">
      <defs>
       <path id="DejaVuSans-52" d="M 2841 2188 
Q 3044 2119 3236 1894 
Q 3428 1669 3622 1275 
L 4263 0 
L 3584 0 
L 2988 1197 
Q 2756 1666 2539 1819 
Q 2322 1972 1947 1972 
L 1259 1972 
L 1259 0 
L 628 0 
L 628 4666 
L 2053 4666 
Q 2853 4666 3247 4331 
Q 3641 3997 3641 3322 
Q 3641 2881 3436 2590 
Q 3231 2300 2841 2188 
z
M 1259 4147 
L 1259 2491 
L 2053 2491 
Q 2509 2491 2742 2702 
Q 2975 2913 2975 3322 
Q 2975 3731 2742 3939 
Q 2509 4147 2053 4147 
L 1259 4147 
z
" transform="scale(0.015625)"/>
       <path id="DejaVuSans-65" d="M 3597 1894 
L 3597 1613 
L 953 1613 
Q 991 1019 1311 708 
Q 1631 397 2203 397 
Q 2534 397 2845 478 
Q 3156 559 3463 722 
L 3463 178 
Q 3153 47 2828 -22 
Q 2503 -91 2169 -91 
Q 1331 -91 842 396 
Q 353 884 353 1716 
Q 353 2575 817 3079 
Q 1281 3584 2069 3584 
Q 2775 3584 3186 3129 
Q 3597 2675 3597 1894 
z
M 3022 2063 
Q 3016 2534 2758 2815 
Q 2500 3097 2075 3097 
Q 1594 3097 1305 2825 
Q 1016 2553 972 2059 
L 3022 2063 
z
" transform="scale(0.015625)"/>
       <path id="DejaVuSans-74" d="M 1172 4494 
L 1172 3500 
L 2356 3500 
L 2356 3053 
L 1172 3053 
L 1172 1153 
Q 1172 725 1289 603 
Q 1406 481 1766 481 
L 2356 481 
L 2356 0 
L 1766 0 
Q 1100 0 847 248 
Q 594 497 594 1153 
L 594 3053 
L 172 3053 
L 172 3500 
L 594 3500 
L 594 4494 
L 1172 4494 
z
" transform="scale(0.015625)"/>
       <path id="DejaVuSans-75" d="M 544 1381 
L 544 3500 
L 1119 3500 
L 1119 1403 
Q 1119 906 1312 657 
Q 1506 409 1894 409 
Q 2359 409 2629 706 
Q 2900 1003 2900 1516 
L 2900 3500 
L 3475 3500 
L 3475 0 
L 2900 0 
L 2900 538 
Q 2691 219 2414 64 
Q 2138 -91 1772 -91 
Q 1169 -91 856 284 
Q 544 659 544 1381 
z
M 1991 3584 
L 1991 3584 
z
" transform="scale(0.015625)"/>
       <path id="DejaVuSans-72" d="M 2631 2963 
Q 2534 3019 2420 3045 
Q 2306 3072 2169 3072 
Q 1681 3072 1420 2755 
Q 1159 2438 1159 1844 
L 1159 0 
L 581 0 
L 581 3500 
L 1159 3500 
L 1159 2956 
Q 1341 3275 1631 3429 
Q 1922 3584 2338 3584 
Q 2397 3584 2469 3576 
Q 2541 3569 2628 3553 
L 2631 2963 
z
" transform="scale(0.015625)"/>
       <path id="DejaVuSans-6e" d="M 3513 2113 
L 3513 0 
L 2938 0 
L 2938 2094 
Q 2938 2591 2744 2837 
Q 2550 3084 2163 3084 
Q 1697 3084 1428 2787 
Q 1159 2491 1159 1978 
L 1159 0 
L 581 0 
L 581 3500 
L 1159 3500 
L 1159 2956 
Q 1366 3272 1645 3428 
Q 1925 3584 2291 3584 
Q 2894 3584 3203 3211 
Q 3513 2838 3513 2113 
z
" transform="scale(0.015625)"/>
       <path id="DejaVuSans-20" transform="scale(0.015625)"/>
       <path id="DejaVuSans-5b" d="M 550 4863 
L 1875 4863 
L 1875 4416 
L 1125 4416 
L 1125 -397 
L 1875 -397 
L 1875 -844 
L 550 -844 
L 550 4863 
z
" transform="scale(0.015625)"/>
       <path id="DejaVuSans-25" d="M 4653 2053 
Q 4381 2053 4226 1822 
Q 4072 1591 4072 1178 
Q 4072 772 4226 539 
Q 4381 306 4653 306 
Q 4919 306 5073 539 
Q 5228 772 5228 1178 
Q 5228 1588 5073 1820 
Q 4919 2053 4653 2053 
z
M 4653 2450 
Q 5147 2450 5437 2106 
Q 5728 1763 5728 1178 
Q 5728 594 5436 251 
Q 5144 -91 4653 -91 
Q 4153 -91 3862 251 
Q 3572 594 3572 1178 
Q 3572 1766 3864 2108 
Q 4156 2450 4653 2450 
z
M 1428 4353 
Q 1159 4353 1004 4120 
Q 850 3888 850 3481 
Q 850 3069 1003 2837 
Q 1156 2606 1428 2606 
Q 1700 2606 1854 2837 
Q 2009 3069 2009 3481 
Q 2009 3884 1853 4118 
Q 1697 4353 1428 4353 
z
M 4250 4750 
L 4750 4750 
L 1831 -91 
L 1331 -91 
L 4250 4750 
z
M 1428 4750 
Q 1922 4750 2215 4408 
Q 2509 4066 2509 3481 
Q 2509 2891 2217 2550 
Q 1925 2209 1428 2209 
Q 931 2209 642 2551 
Q 353 2894 353 3481 
Q 353 4063 643 4406 
Q 934 4750 1428 4750 
z
" transform="scale(0.015625)"/>
       <path id="DejaVuSans-5d" d="M 1947 4863 
L 1947 -844 
L 622 -844 
L 622 -397 
L 1369 -397 
L 1369 4416 
L 622 4416 
L 622 4863 
L 1947 4863 
z
" transform="scale(0.015625)"/>
      </defs>
      <use xlink:href="#DejaVuSans-52"/>
      <use xlink:href="#DejaVuSans-65" x="64.982422"/>
      <use xlink:href="#DejaVuSans-74" x="126.505859"/>
      <use xlink:href="#DejaVuSans-75" x="165.714844"/>
      <use xlink:href="#DejaVuSans-72" x="229.09375"/>
      <use xlink:href="#DejaVuSans-6e" x="268.457031"/>
      <use xlink:href="#DejaVuSans-20" x="331.835938"/>
      <use xlink:href="#DejaVuSans-5b" x="363.623047"/>
      <use xlink:href="#DejaVuSans-25" x="402.636719"/>
      <use xlink:href="#DejaVuSans-5d" x="497.65625"/>
     </g>
    </g>
   </g>
   <g id="line2d_14">
    <path d="M 75.946993 269.381691 
L 77.22872 269.211954 
L 78.510446 266.754635 
L 82.355626 269.316111 
L 83.637353 271.144634 
L 84.919079 270.265091 
L 86.200806 270.573703 
L 87.482533 268.486717 
L 91.327712 268.270689 
L 92.609439 270.326814 
L 93.891166 269.127086 
L 95.172892 266.974521 
L 96.454619 267.429723 
L 100.299799 264.316604 
L 101.581526 265.836516 
L 102.863252 265.19229 
L 104.144979 262.835269 
L 105.426705 258.370432 
L 109.271885 257.696888 
L 110.553612 257.033373 
L 111.835339 252.631801 
L 113.117065 254.255869 
L 114.398792 251.577893 
L 118.243972 257.334269 
L 119.525698 251.79855 
L 120.807425 252.087874 
L 122.089152 255.590614 
L 123.370878 251.987575 
L 127.216058 253.546063 
L 128.497785 251.628814 
L 129.779511 247.971768 
L 131.061238 248.955467 
L 132.342965 248.753326 
L 136.188144 247.77117 
L 137.469871 244.766066 
L 138.751598 242.154441 
L 140.033324 246.62545 
L 141.315051 240.395741 
L 145.160231 242.578781 
L 146.441957 249.730853 
L 147.723684 244.650336 
L 149.005411 242.594212 
L 150.287137 242.667507 
L 154.132317 241.024151 
L 155.414044 235.646596 
L 156.695771 239.12619 
L 157.977497 239.24192 
L 159.259224 236.522666 
L 163.104404 235.388133 
L 164.38613 239.076041 
L 165.667857 238.162165 
L 166.949584 233.933802 
L 168.23131 235.66897 
L 172.07649 238.632412 
L 173.358217 243.913526 
L 174.639943 241.166884 
L 175.92167 247.09994 
L 177.203397 243.739932 
L 181.048576 244.067832 
L 183.61203 244.488315 
L 184.893756 241.90408 
L 191.302389 238.474248 
L 192.584116 241.05887 
L 193.865843 248.91689 
L 195.147569 254.400531 
L 198.992749 255.922371 
L 200.274476 251.767689 
L 201.556202 244.8085 
L 202.837929 244.08712 
L 204.119656 248.022303 
L 207.964836 251.000018 
L 209.246562 254.907811 
L 210.528289 262.623099 
L 211.810016 262.943283 
L 213.091742 262.68945 
L 216.936922 264.235594 
L 218.218649 252.859402 
L 219.500375 251.270825 
L 220.782102 244.345582 
L 222.063829 244.420806 
L 227.190735 242.752375 
L 229.754188 244.515319 
L 231.035915 241.075458 
L 234.881095 240.368352 
L 236.162821 239.238062 
L 237.444548 233.942674 
L 240.008001 231.829071 
L 243.853181 233.146842 
L 245.134908 232.776508 
L 247.698361 228.861 
L 248.980088 225.291522 
L 252.825268 225.632152 
L 254.106994 223.792056 
L 255.388721 221.311591 
L 256.670447 232.930814 
L 257.952174 235.783156 
L 261.797354 230.141738 
L 263.079081 225.37369 
L 264.360807 233.733204 
L 265.642534 232.650749 
L 266.92426 236.664242 
L 270.76944 238.615824 
L 272.051167 239.447918 
L 273.332894 248.133789 
L 275.896347 245.070819 
L 279.741527 245.117111 
L 281.023253 248.29581 
L 282.30498 251.135421 
L 283.586707 252.558506 
L 284.868433 251.009662 
L 288.713613 245.684185 
L 289.99534 244.697014 
L 291.277066 252.067814 
L 292.558793 266.048687 
L 297.6857 276.257169 
L 298.967426 269.655584 
L 301.530879 257.407564 
L 302.812606 261.264822 
L 306.657786 255.619546 
L 307.939513 257.259817 
L 309.221239 259.897673 
L 310.502966 251.921995 
L 311.784692 254.893152 
L 315.629872 249.05808 
L 316.911599 244.386088 
L 318.193326 244.171217 
L 319.475052 237.976612 
L 320.756779 238.22543 
L 324.601959 236.486019 
L 325.883685 237.49595 
L 327.165412 238.07884 
L 328.447139 235.585645 
L 329.728865 234.180691 
L 333.574045 237.201226 
L 334.855772 235.92666 
L 336.137498 230.657119 
L 337.419225 229.652203 
L 338.700952 231.615358 
L 342.546132 231.956373 
L 343.827858 228.143478 
L 345.109585 229.219761 
L 346.391311 223.699473 
L 347.673038 222.867765 
L 351.518218 222.390188 
L 352.799945 226.114743 
L 354.081671 226.773243 
L 355.363398 223.376202 
L 356.645124 221.610558 
L 360.490304 221.650292 
L 361.772031 219.047154 
L 363.053758 218.260195 
L 364.335484 224.867567 
L 365.617211 221.139926 
L 369.462391 222.749335 
L 370.744117 224.174734 
L 372.025844 232.313205 
L 373.307571 228.035464 
L 374.589297 225.460487 
L 378.434477 224.620292 
L 379.716204 232.776894 
L 380.99793 235.36113 
L 382.279657 232.983664 
L 383.561384 236.826649 
L 387.406563 230.449192 
L 388.68829 227.456818 
L 389.970017 225.960052 
L 391.251743 225.428854 
L 392.53347 223.441396 
L 396.37865 223.417093 
L 397.660377 216.045521 
L 398.942103 215.105028 
L 401.505556 216.914649 
L 405.350736 212.116125 
L 406.632463 213.729392 
L 407.91419 212.75958 
L 409.195916 208.998378 
L 410.477643 209.270727 
L 414.322823 213.518379 
L 415.604549 210.447309 
L 416.886276 217.021891 
L 418.168003 213.340156 
L 419.449729 215.561387 
L 423.294909 219.370039 
L 424.576636 215.994215 
L 425.858362 219.123535 
L 427.140089 220.65502 
L 428.421816 222.538322 
L 432.266995 224.284677 
L 433.548722 226.229315 
L 434.830449 228.722896 
L 436.112175 219.016679 
L 437.393902 216.752628 
L 441.239082 219.71144 
L 442.520808 217.111003 
L 443.802535 216.897675 
L 445.084262 216.553187 
L 446.365988 209.997122 
L 450.211168 208.204475 
L 451.492895 203.699132 
L 452.774622 207.020564 
L 454.056348 204.324842 
L 455.338075 207.399384 
L 459.183255 208.254624 
L 460.464981 207.344606 
L 461.746708 207.202259 
L 463.028435 210.142555 
L 464.310161 212.113039 
L 468.155341 210.959218 
L 469.437068 213.787642 
L 470.718794 210.159528 
L 472.000521 209.692754 
L 473.282248 210.783309 
L 477.127427 208.526202 
L 478.409154 211.55561 
L 479.690881 213.547311 
L 480.972607 207.965686 
L 482.254334 205.357533 
L 486.099514 201.934646 
L 488.662967 205.832409 
L 489.944694 207.451077 
L 491.22642 204.607993 
L 495.0716 201.420036 
L 496.353327 201.55814 
L 497.635053 199.880065 
L 498.91678 197.917682 
L 500.198507 200.813615 
L 504.043687 202.021443 
L 505.325413 210.992394 
L 506.60714 211.875023 
L 507.888867 215.546342 
L 509.170593 213.571614 
L 513.015773 210.208521 
L 514.2975 215.282094 
L 515.579226 216.109944 
L 516.860953 221.146098 
L 518.14268 220.870277 
L 521.987859 215.71415 
L 523.269586 217.959299 
L 524.551313 213.384133 
L 525.833039 203.442985 
L 527.114766 199.958375 
L 536.086852 190.509077 
L 536.086852 190.509077 
" clip-path="url(#pc2f5e95c2b)" style="fill: none; stroke: #008000; stroke-width: 1.5; stroke-linecap: square"/>
   </g>
   <g id="line2d_15">
    <path d="M 75.946993 271.63806 
L 77.22872 268.198182 
L 78.510446 268.108571 
L 82.355626 263.00345 
L 83.637353 263.350756 
L 84.919079 264.531595 
L 86.200806 263.85978 
L 87.482533 264.140475 
L 92.609439 263.556354 
L 93.891166 263.990941 
L 95.172892 263.530503 
L 96.454619 260.880821 
L 100.299799 257.76698 
L 101.581526 257.298779 
L 102.863252 255.799079 
L 104.144979 254.613446 
L 105.426705 254.127409 
L 109.271885 251.580389 
L 110.553612 251.430507 
L 111.835339 251.034389 
L 113.117065 250.362116 
L 114.398792 252.025966 
L 118.243972 248.306801 
L 119.525698 254.377775 
L 122.089152 248.561548 
L 123.370878 245.570233 
L 127.216058 239.461406 
L 128.497785 234.002562 
L 129.779511 231.931955 
L 131.061238 222.448039 
L 132.342965 219.593984 
L 136.188144 214.458426 
L 137.469871 209.832964 
L 138.751598 208.218043 
L 141.315051 210.609134 
L 145.160231 206.66174 
L 146.441957 211.647476 
L 147.723684 209.489664 
L 149.005411 204.108937 
L 150.287137 200.270032 
L 154.132317 203.536193 
L 155.414044 205.439043 
L 156.695771 200.473952 
L 157.977497 203.557598 
L 159.259224 200.707951 
L 163.104404 200.41828 
L 164.38613 201.650052 
L 165.667857 204.766838 
L 166.949584 201.094529 
L 168.23131 202.66693 
L 172.07649 205.612072 
L 173.358217 205.974277 
L 174.639943 205.827489 
L 177.203397 209.537265 
L 181.048576 202.652386 
L 182.330303 206.761414 
L 183.61203 202.467131 
L 184.893756 202.15099 
L 191.302389 202.737854 
L 192.584116 197.456038 
L 195.147569 200.891223 
L 198.992749 211.855883 
L 200.274476 210.728507 
L 201.556202 212.080751 
L 202.837929 206.632938 
L 204.119656 207.834203 
L 207.964836 207.398923 
L 229.754188 207.398923 
L 231.035915 210.33531 
L 234.881095 210.63133 
L 236.162821 213.438063 
L 237.444548 214.705989 
L 240.008001 212.193869 
L 243.853181 211.712559 
L 245.134908 210.684371 
L 246.416634 211.16048 
L 247.698361 208.346132 
L 248.980088 205.815802 
L 252.825268 206.816166 
L 254.106994 205.155858 
L 255.388721 205.493611 
L 256.670447 208.588463 
L 257.952174 208.588463 
L 261.797354 205.059061 
L 263.079081 200.111348 
L 264.360807 198.266448 
L 265.642534 198.756624 
L 266.92426 196.399267 
L 270.76944 195.123888 
L 282.30498 195.123888 
L 283.586707 200.522288 
L 288.713613 200.522288 
L 289.99534 199.492978 
L 291.277066 200.883621 
L 292.558793 203.157602 
L 297.6857 207.074826 
L 302.812606 207.074826 
L 306.657786 208.464202 
L 307.939513 208.464202 
L 309.221239 211.591029 
L 310.502966 211.95377 
L 311.784692 208.65952 
L 315.629872 211.266988 
L 316.911599 212.697892 
L 318.193326 206.178315 
L 319.475052 204.419799 
L 320.756779 196.245545 
L 324.601959 191.08001 
L 325.883685 185.723238 
L 327.165412 186.998874 
L 328.447139 184.403707 
L 329.728865 184.337053 
L 333.574045 187.896796 
L 334.855772 186.911587 
L 336.137498 182.294661 
L 337.419225 180.511223 
L 338.700952 179.073272 
L 342.546132 182.038294 
L 343.827858 181.464117 
L 345.109585 179.528613 
L 346.391311 178.043206 
L 347.673038 174.40992 
L 351.518218 173.903174 
L 352.799945 173.012367 
L 354.081671 174.08549 
L 355.363398 171.777837 
L 356.645124 168.721698 
L 361.772031 169.518626 
L 363.053758 171.459688 
L 364.335484 169.437775 
L 365.617211 173.795678 
L 369.462391 168.246311 
L 370.744117 170.396545 
L 372.025844 169.624319 
L 373.307571 173.586261 
L 374.589297 167.806734 
L 378.434477 168.475033 
L 379.716204 170.37274 
L 380.99793 178.193495 
L 382.279657 179.333549 
L 383.561384 174.505823 
L 387.406563 175.356131 
L 388.68829 168.594661 
L 389.970017 167.122735 
L 391.251743 164.760579 
L 392.53347 162.012228 
L 396.37865 159.896308 
L 397.660377 156.950554 
L 398.942103 150.617129 
L 400.22383 149.568295 
L 401.505556 141.980622 
L 405.350736 142.366214 
L 406.632463 130.716694 
L 407.91419 125.280804 
L 409.195916 116.776881 
L 410.477643 124.123061 
L 414.322823 115.869029 
L 415.604549 118.663143 
L 416.886276 119.433864 
L 418.168003 126.533448 
L 419.449729 126.333092 
L 423.294909 127.107679 
L 424.576636 115.562249 
L 425.858362 122.262338 
L 427.140089 125.443174 
L 428.421816 123.042438 
L 432.266995 125.975879 
L 433.548722 126.527437 
L 437.393902 126.527437 
L 441.239082 38.755103 
L 442.520808 96.032217 
L 443.802535 108.638416 
L 445.084262 105.883292 
L 446.365988 104.414326 
L 450.211168 100.280496 
L 451.492895 103.21506 
L 452.774622 99.521325 
L 454.056348 96.447617 
L 455.338075 96.101345 
L 459.183255 96.737561 
L 460.464981 102.609115 
L 461.746708 97.248311 
L 463.028435 99.818469 
L 464.310161 96.350079 
L 468.155341 94.007628 
L 469.437068 87.605154 
L 470.718794 86.269692 
L 472.000521 79.512062 
L 473.282248 81.417406 
L 477.127427 80.830359 
L 478.409154 76.278562 
L 479.690881 81.434219 
L 480.972607 77.182087 
L 482.254334 69.330629 
L 486.099514 60.973219 
L 487.38124 68.300848 
L 488.662967 71.374106 
L 489.944694 76.611049 
L 491.22642 82.84999 
L 495.0716 76.042125 
L 496.353327 67.323122 
L 497.635053 64.951648 
L 498.91678 58.843198 
L 500.198507 58.343087 
L 504.043687 60.063307 
L 505.325413 57.151146 
L 509.170593 57.151146 
L 513.015773 52.407505 
L 514.2975 56.997653 
L 516.860953 61.185293 
L 525.833039 61.185293 
L 527.114766 51.937203 
L 530.959946 47.047182 
L 536.086852 39.12293 
L 536.086852 39.12293 
" clip-path="url(#pc2f5e95c2b)" style="fill: none; stroke: #0000ff; stroke-width: 1.5; stroke-linecap: square"/>
   </g>
   <g id="line2d_16">
    <path d="M 75.946993 271.63806 
L 77.22872 268.198182 
L 78.510446 268.108571 
L 82.355626 263.00345 
L 95.172892 263.00345 
L 96.454619 260.880821 
L 100.299799 257.76698 
L 101.581526 257.298779 
L 102.863252 255.799079 
L 104.144979 254.613446 
L 105.426705 254.127409 
L 109.271885 251.580389 
L 110.553612 251.430507 
L 111.835339 251.034389 
L 113.117065 250.362116 
L 114.398792 250.362116 
L 118.243972 248.306801 
L 122.089152 248.306801 
L 123.370878 245.570233 
L 127.216058 239.461406 
L 128.497785 234.002562 
L 129.779511 231.931955 
L 131.061238 222.448039 
L 132.342965 219.593984 
L 136.188144 214.458426 
L 137.469871 209.832964 
L 138.751598 208.218043 
L 141.315051 208.218043 
L 145.160231 206.66174 
L 147.723684 206.66174 
L 149.005411 204.108937 
L 150.287137 200.270032 
L 191.302389 200.270032 
L 192.584116 197.456038 
L 265.642534 197.456038 
L 266.92426 196.399267 
L 270.76944 195.123888 
L 320.756779 195.123888 
L 324.601959 191.08001 
L 325.883685 185.723238 
L 327.165412 185.723238 
L 328.447139 184.403707 
L 329.728865 184.337053 
L 334.855772 184.337053 
L 336.137498 182.294661 
L 337.419225 180.511223 
L 338.700952 179.073272 
L 345.109585 179.073272 
L 346.391311 178.043206 
L 347.673038 174.40992 
L 351.518218 173.903174 
L 352.799945 173.012367 
L 354.081671 173.012367 
L 355.363398 171.777837 
L 356.645124 168.721698 
L 365.617211 168.721698 
L 369.462391 168.246311 
L 373.307571 168.246311 
L 374.589297 167.806734 
L 388.68829 167.806734 
L 389.970017 167.122735 
L 391.251743 164.760579 
L 392.53347 162.012228 
L 396.37865 159.896308 
L 397.660377 156.950554 
L 398.942103 150.617129 
L 400.22383 149.568295 
L 401.505556 141.980622 
L 405.350736 141.980622 
L 406.632463 130.716694 
L 407.91419 125.280804 
L 409.195916 116.776881 
L 410.477643 116.776881 
L 414.322823 115.869029 
L 423.294909 115.869029 
L 424.576636 115.562249 
L 437.393902 115.562249 
L 441.239082 38.755103 
L 536.086852 38.755103 
L 536.086852 38.755103 
" clip-path="url(#pc2f5e95c2b)" style="fill: none; stroke: #ff0000; stroke-width: 1.5; stroke-linecap: square"/>
   </g>
   <g id="patch_3">
    <path d="M 52.94 288.132273 
L 52.94 26.88 
" style="fill: none; stroke: #000000; stroke-width: 0.8; stroke-linejoin: miter; stroke-linecap: square"/>
   </g>
   <g id="patch_4">
    <path d="M 559.093845 288.132273 
L 559.093845 26.88 
" style="fill: none; stroke: #000000; stroke-width: 0.8; stroke-linejoin: miter; stroke-linecap: square"/>
   </g>
   <g id="patch_5">
    <path d="M 52.94 288.132273 
L 559.093845 288.132273 
" style="fill: none; stroke: #000000; stroke-width: 0.8; stroke-linejoin: miter; stroke-linecap: square"/>
   </g>
   <g id="patch_6">
    <path d="M 52.94 26.88 
L 559.093845 26.88 
" style="fill: none; stroke: #000000; stroke-width: 0.8; stroke-linejoin: miter; stroke-linecap: square"/>
   </g>
   <g id="text_8">
    <!-- Performance of AVAN-strategy year 2013 -->
    <g transform="translate(182.703798 20.88)scale(0.12 -0.12)">
     <defs>
      <path id="DejaVuSans-50" d="M 1259 4147 
L 1259 2394 
L 2053 2394 
Q 2494 2394 2734 2622 
Q 2975 2850 2975 3272 
Q 2975 3691 2734 3919 
Q 2494 4147 2053 4147 
L 1259 4147 
z
M 628 4666 
L 2053 4666 
Q 2838 4666 3239 4311 
Q 3641 3956 3641 3272 
Q 3641 2581 3239 2228 
Q 2838 1875 2053 1875 
L 1259 1875 
L 1259 0 
L 628 0 
L 628 4666 
z
" transform="scale(0.015625)"/>
      <path id="DejaVuSans-66" d="M 2375 4863 
L 2375 4384 
L 1825 4384 
Q 1516 4384 1395 4259 
Q 1275 4134 1275 3809 
L 1275 3500 
L 2222 3500 
L 2222 3053 
L 1275 3053 
L 1275 0 
L 697 0 
L 697 3053 
L 147 3053 
L 147 3500 
L 697 3500 
L 697 3744 
Q 697 4328 969 4595 
Q 1241 4863 1831 4863 
L 2375 4863 
z
" transform="scale(0.015625)"/>
      <path id="DejaVuSans-6f" d="M 1959 3097 
Q 1497 3097 1228 2736 
Q 959 2375 959 1747 
Q 959 1119 1226 758 
Q 1494 397 1959 397 
Q 2419 397 2687 759 
Q 2956 1122 2956 1747 
Q 2956 2369 2687 2733 
Q 2419 3097 1959 3097 
z
M 1959 3584 
Q 2709 3584 3137 3096 
Q 3566 2609 3566 1747 
Q 3566 888 3137 398 
Q 2709 -91 1959 -91 
Q 1206 -91 779 398 
Q 353 888 353 1747 
Q 353 2609 779 3096 
Q 1206 3584 1959 3584 
z
" transform="scale(0.015625)"/>
      <path id="DejaVuSans-6d" d="M 3328 2828 
Q 3544 3216 3844 3400 
Q 4144 3584 4550 3584 
Q 5097 3584 5394 3201 
Q 5691 2819 5691 2113 
L 5691 0 
L 5113 0 
L 5113 2094 
Q 5113 2597 4934 2840 
Q 4756 3084 4391 3084 
Q 3944 3084 3684 2787 
Q 3425 2491 3425 1978 
L 3425 0 
L 2847 0 
L 2847 2094 
Q 2847 2600 2669 2842 
Q 2491 3084 2119 3084 
Q 1678 3084 1418 2786 
Q 1159 2488 1159 1978 
L 1159 0 
L 581 0 
L 581 3500 
L 1159 3500 
L 1159 2956 
Q 1356 3278 1631 3431 
Q 1906 3584 2284 3584 
Q 2666 3584 2933 3390 
Q 3200 3197 3328 2828 
z
" transform="scale(0.015625)"/>
      <path id="DejaVuSans-61" d="M 2194 1759 
Q 1497 1759 1228 1600 
Q 959 1441 959 1056 
Q 959 750 1161 570 
Q 1363 391 1709 391 
Q 2188 391 2477 730 
Q 2766 1069 2766 1631 
L 2766 1759 
L 2194 1759 
z
M 3341 1997 
L 3341 0 
L 2766 0 
L 2766 531 
Q 2569 213 2275 61 
Q 1981 -91 1556 -91 
Q 1019 -91 701 211 
Q 384 513 384 1019 
Q 384 1609 779 1909 
Q 1175 2209 1959 2209 
L 2766 2209 
L 2766 2266 
Q 2766 2663 2505 2880 
Q 2244 3097 1772 3097 
Q 1472 3097 1187 3025 
Q 903 2953 641 2809 
L 641 3341 
Q 956 3463 1253 3523 
Q 1550 3584 1831 3584 
Q 2591 3584 2966 3190 
Q 3341 2797 3341 1997 
z
" transform="scale(0.015625)"/>
      <path id="DejaVuSans-63" d="M 3122 3366 
L 3122 2828 
Q 2878 2963 2633 3030 
Q 2388 3097 2138 3097 
Q 1578 3097 1268 2742 
Q 959 2388 959 1747 
Q 959 1106 1268 751 
Q 1578 397 2138 397 
Q 2388 397 2633 464 
Q 2878 531 3122 666 
L 3122 134 
Q 2881 22 2623 -34 
Q 2366 -91 2075 -91 
Q 1284 -91 818 406 
Q 353 903 353 1747 
Q 353 2603 823 3093 
Q 1294 3584 2113 3584 
Q 2378 3584 2631 3529 
Q 2884 3475 3122 3366 
z
" transform="scale(0.015625)"/>
      <path id="DejaVuSans-41" d="M 2188 4044 
L 1331 1722 
L 3047 1722 
L 2188 4044 
z
M 1831 4666 
L 2547 4666 
L 4325 0 
L 3669 0 
L 3244 1197 
L 1141 1197 
L 716 0 
L 50 0 
L 1831 4666 
z
" transform="scale(0.015625)"/>
      <path id="DejaVuSans-56" d="M 1831 0 
L 50 4666 
L 709 4666 
L 2188 738 
L 3669 4666 
L 4325 4666 
L 2547 0 
L 1831 0 
z
" transform="scale(0.015625)"/>
      <path id="DejaVuSans-4e" d="M 628 4666 
L 1478 4666 
L 3547 763 
L 3547 4666 
L 4159 4666 
L 4159 0 
L 3309 0 
L 1241 3903 
L 1241 0 
L 628 0 
L 628 4666 
z
" transform="scale(0.015625)"/>
      <path id="DejaVuSans-2d" d="M 313 2009 
L 1997 2009 
L 1997 1497 
L 313 1497 
L 313 2009 
z
" transform="scale(0.015625)"/>
      <path id="DejaVuSans-73" d="M 2834 3397 
L 2834 2853 
Q 2591 2978 2328 3040 
Q 2066 3103 1784 3103 
Q 1356 3103 1142 2972 
Q 928 2841 928 2578 
Q 928 2378 1081 2264 
Q 1234 2150 1697 2047 
L 1894 2003 
Q 2506 1872 2764 1633 
Q 3022 1394 3022 966 
Q 3022 478 2636 193 
Q 2250 -91 1575 -91 
Q 1294 -91 989 -36 
Q 684 19 347 128 
L 347 722 
Q 666 556 975 473 
Q 1284 391 1588 391 
Q 1994 391 2212 530 
Q 2431 669 2431 922 
Q 2431 1156 2273 1281 
Q 2116 1406 1581 1522 
L 1381 1569 
Q 847 1681 609 1914 
Q 372 2147 372 2553 
Q 372 3047 722 3315 
Q 1072 3584 1716 3584 
Q 2034 3584 2315 3537 
Q 2597 3491 2834 3397 
z
" transform="scale(0.015625)"/>
      <path id="DejaVuSans-67" d="M 2906 1791 
Q 2906 2416 2648 2759 
Q 2391 3103 1925 3103 
Q 1463 3103 1205 2759 
Q 947 2416 947 1791 
Q 947 1169 1205 825 
Q 1463 481 1925 481 
Q 2391 481 2648 825 
Q 2906 1169 2906 1791 
z
M 3481 434 
Q 3481 -459 3084 -895 
Q 2688 -1331 1869 -1331 
Q 1566 -1331 1297 -1286 
Q 1028 -1241 775 -1147 
L 775 -588 
Q 1028 -725 1275 -790 
Q 1522 -856 1778 -856 
Q 2344 -856 2625 -561 
Q 2906 -266 2906 331 
L 2906 616 
Q 2728 306 2450 153 
Q 2172 0 1784 0 
Q 1141 0 747 490 
Q 353 981 353 1791 
Q 353 2603 747 3093 
Q 1141 3584 1784 3584 
Q 2172 3584 2450 3431 
Q 2728 3278 2906 2969 
L 2906 3500 
L 3481 3500 
L 3481 434 
z
" transform="scale(0.015625)"/>
      <path id="DejaVuSans-79" d="M 2059 -325 
Q 1816 -950 1584 -1140 
Q 1353 -1331 966 -1331 
L 506 -1331 
L 506 -850 
L 844 -850 
Q 1081 -850 1212 -737 
Q 1344 -625 1503 -206 
L 1606 56 
L 191 3500 
L 800 3500 
L 1894 763 
L 2988 3500 
L 3597 3500 
L 2059 -325 
z
" transform="scale(0.015625)"/>
     </defs>
     <use xlink:href="#DejaVuSans-50"/>
     <use xlink:href="#DejaVuSans-65" x="56.677734"/>
     <use xlink:href="#DejaVuSans-72" x="118.201172"/>
     <use xlink:href="#DejaVuSans-66" x="159.314453"/>
     <use xlink:href="#DejaVuSans-6f" x="194.519531"/>
     <use xlink:href="#DejaVuSans-72" x="255.701172"/>
     <use xlink:href="#DejaVuSans-6d" x="295.064453"/>
     <use xlink:href="#DejaVuSans-61" x="392.476562"/>
     <use xlink:href="#DejaVuSans-6e" x="453.755859"/>
     <use xlink:href="#DejaVuSans-63" x="517.134766"/>
     <use xlink:href="#DejaVuSans-65" x="572.115234"/>
     <use xlink:href="#DejaVuSans-20" x="633.638672"/>
     <use xlink:href="#DejaVuSans-6f" x="665.425781"/>
     <use xlink:href="#DejaVuSans-66" x="726.607422"/>
     <use xlink:href="#DejaVuSans-20" x="761.8125"/>
     <use xlink:href="#DejaVuSans-41" x="793.599609"/>
     <use xlink:href="#DejaVuSans-56" x="855.632812"/>
     <use xlink:href="#DejaVuSans-41" x="917.666016"/>
     <use xlink:href="#DejaVuSans-4e" x="986.074219"/>
     <use xlink:href="#DejaVuSans-2d" x="1060.878906"/>
     <use xlink:href="#DejaVuSans-73" x="1096.962891"/>
     <use xlink:href="#DejaVuSans-74" x="1149.0625"/>
     <use xlink:href="#DejaVuSans-72" x="1188.271484"/>
     <use xlink:href="#DejaVuSans-61" x="1229.384766"/>
     <use xlink:href="#DejaVuSans-74" x="1290.664062"/>
     <use xlink:href="#DejaVuSans-65" x="1329.873047"/>
     <use xlink:href="#DejaVuSans-67" x="1391.396484"/>
     <use xlink:href="#DejaVuSans-79" x="1454.873047"/>
     <use xlink:href="#DejaVuSans-20" x="1514.052734"/>
     <use xlink:href="#DejaVuSans-79" x="1545.839844"/>
     <use xlink:href="#DejaVuSans-65" x="1605.019531"/>
     <use xlink:href="#DejaVuSans-61" x="1666.542969"/>
     <use xlink:href="#DejaVuSans-72" x="1727.822266"/>
     <use xlink:href="#DejaVuSans-20" x="1768.935547"/>
     <use xlink:href="#DejaVuSans-32" x="1800.722656"/>
     <use xlink:href="#DejaVuSans-30" x="1864.345703"/>
     <use xlink:href="#DejaVuSans-31" x="1927.96875"/>
     <use xlink:href="#DejaVuSans-33" x="1991.591797"/>
    </g>
   </g>
   <g id="legend_1">
    <g id="patch_7">
     <path d="M 59.94 78.914375 
L 187.361875 78.914375 
Q 189.361875 78.914375 189.361875 76.914375 
L 189.361875 33.88 
Q 189.361875 31.88 187.361875 31.88 
L 59.94 31.88 
Q 57.94 31.88 57.94 33.88 
L 57.94 76.914375 
Q 57.94 78.914375 59.94 78.914375 
z
" style="fill: #ffffff; opacity: 0.8; stroke: #cccccc; stroke-linejoin: miter"/>
    </g>
    <g id="line2d_17">
     <path d="M 61.94 39.978438 
L 71.94 39.978438 
L 81.94 39.978438 
" style="fill: none; stroke: #008000; stroke-width: 1.5; stroke-linecap: square"/>
    </g>
    <g id="text_9">
     <!-- 20.8% return omx -->
     <g transform="translate(89.94 43.478438)scale(0.1 -0.1)">
      <defs>
       <path id="DejaVuSans-2e" d="M 684 794 
L 1344 794 
L 1344 0 
L 684 0 
L 684 794 
z
" transform="scale(0.015625)"/>
       <path id="DejaVuSans-38" d="M 2034 2216 
Q 1584 2216 1326 1975 
Q 1069 1734 1069 1313 
Q 1069 891 1326 650 
Q 1584 409 2034 409 
Q 2484 409 2743 651 
Q 3003 894 3003 1313 
Q 3003 1734 2745 1975 
Q 2488 2216 2034 2216 
z
M 1403 2484 
Q 997 2584 770 2862 
Q 544 3141 544 3541 
Q 544 4100 942 4425 
Q 1341 4750 2034 4750 
Q 2731 4750 3128 4425 
Q 3525 4100 3525 3541 
Q 3525 3141 3298 2862 
Q 3072 2584 2669 2484 
Q 3125 2378 3379 2068 
Q 3634 1759 3634 1313 
Q 3634 634 3220 271 
Q 2806 -91 2034 -91 
Q 1263 -91 848 271 
Q 434 634 434 1313 
Q 434 1759 690 2068 
Q 947 2378 1403 2484 
z
M 1172 3481 
Q 1172 3119 1398 2916 
Q 1625 2713 2034 2713 
Q 2441 2713 2670 2916 
Q 2900 3119 2900 3481 
Q 2900 3844 2670 4047 
Q 2441 4250 2034 4250 
Q 1625 4250 1398 4047 
Q 1172 3844 1172 3481 
z
" transform="scale(0.015625)"/>
       <path id="DejaVuSans-78" d="M 3513 3500 
L 2247 1797 
L 3578 0 
L 2900 0 
L 1881 1375 
L 863 0 
L 184 0 
L 1544 1831 
L 300 3500 
L 978 3500 
L 1906 2253 
L 2834 3500 
L 3513 3500 
z
" transform="scale(0.015625)"/>
      </defs>
      <use xlink:href="#DejaVuSans-32"/>
      <use xlink:href="#DejaVuSans-30" x="63.623047"/>
      <use xlink:href="#DejaVuSans-2e" x="127.246094"/>
      <use xlink:href="#DejaVuSans-38" x="159.033203"/>
      <use xlink:href="#DejaVuSans-25" x="222.65625"/>
      <use xlink:href="#DejaVuSans-20" x="317.675781"/>
      <use xlink:href="#DejaVuSans-72" x="349.462891"/>
      <use xlink:href="#DejaVuSans-65" x="388.326172"/>
      <use xlink:href="#DejaVuSans-74" x="449.849609"/>
      <use xlink:href="#DejaVuSans-75" x="489.058594"/>
      <use xlink:href="#DejaVuSans-72" x="552.4375"/>
      <use xlink:href="#DejaVuSans-6e" x="591.800781"/>
      <use xlink:href="#DejaVuSans-20" x="655.179688"/>
      <use xlink:href="#DejaVuSans-6f" x="686.966797"/>
      <use xlink:href="#DejaVuSans-6d" x="748.148438"/>
      <use xlink:href="#DejaVuSans-78" x="845.560547"/>
     </g>
    </g>
    <g id="line2d_18">
     <path d="M 61.94 54.656563 
L 71.94 54.656563 
L 81.94 54.656563 
" style="fill: none; stroke: #0000ff; stroke-width: 1.5; stroke-linecap: square"/>
    </g>
    <g id="text_10">
     <!-- 56.3% return AVAN -->
     <g transform="translate(89.94 58.156563)scale(0.1 -0.1)">
      <defs>
       <path id="DejaVuSans-36" d="M 2113 2584 
Q 1688 2584 1439 2293 
Q 1191 2003 1191 1497 
Q 1191 994 1439 701 
Q 1688 409 2113 409 
Q 2538 409 2786 701 
Q 3034 994 3034 1497 
Q 3034 2003 2786 2293 
Q 2538 2584 2113 2584 
z
M 3366 4563 
L 3366 3988 
Q 3128 4100 2886 4159 
Q 2644 4219 2406 4219 
Q 1781 4219 1451 3797 
Q 1122 3375 1075 2522 
Q 1259 2794 1537 2939 
Q 1816 3084 2150 3084 
Q 2853 3084 3261 2657 
Q 3669 2231 3669 1497 
Q 3669 778 3244 343 
Q 2819 -91 2113 -91 
Q 1303 -91 875 529 
Q 447 1150 447 2328 
Q 447 3434 972 4092 
Q 1497 4750 2381 4750 
Q 2619 4750 2861 4703 
Q 3103 4656 3366 4563 
z
" transform="scale(0.015625)"/>
      </defs>
      <use xlink:href="#DejaVuSans-35"/>
      <use xlink:href="#DejaVuSans-36" x="63.623047"/>
      <use xlink:href="#DejaVuSans-2e" x="127.246094"/>
      <use xlink:href="#DejaVuSans-33" x="159.033203"/>
      <use xlink:href="#DejaVuSans-25" x="222.65625"/>
      <use xlink:href="#DejaVuSans-20" x="317.675781"/>
      <use xlink:href="#DejaVuSans-72" x="349.462891"/>
      <use xlink:href="#DejaVuSans-65" x="388.326172"/>
      <use xlink:href="#DejaVuSans-74" x="449.849609"/>
      <use xlink:href="#DejaVuSans-75" x="489.058594"/>
      <use xlink:href="#DejaVuSans-72" x="552.4375"/>
      <use xlink:href="#DejaVuSans-6e" x="591.800781"/>
      <use xlink:href="#DejaVuSans-20" x="655.179688"/>
      <use xlink:href="#DejaVuSans-41" x="686.966797"/>
      <use xlink:href="#DejaVuSans-56" x="749"/>
      <use xlink:href="#DejaVuSans-41" x="811.033203"/>
      <use xlink:href="#DejaVuSans-4e" x="879.441406"/>
     </g>
    </g>
    <g id="line2d_19">
     <path d="M 61.94 69.334688 
L 71.94 69.334688 
L 81.94 69.334688 
" style="fill: none; stroke: #ff0000; stroke-width: 1.5; stroke-linecap: square"/>
    </g>
    <g id="text_11">
     <!-- cummax -->
     <g transform="translate(89.94 72.834688)scale(0.1 -0.1)">
      <use xlink:href="#DejaVuSans-63"/>
      <use xlink:href="#DejaVuSans-75" x="54.980469"/>
      <use xlink:href="#DejaVuSans-6d" x="118.359375"/>
      <use xlink:href="#DejaVuSans-6d" x="215.771484"/>
      <use xlink:href="#DejaVuSans-61" x="313.183594"/>
      <use xlink:href="#DejaVuSans-78" x="374.462891"/>
     </g>
    </g>
   </g>
  </g>
  <g id="axes_2">
   <g id="patch_8">
    <path d="M 52.94 390.04 
L 559.093845 390.04 
L 559.093845 302.955909 
L 52.94 302.955909 
z
" style="fill: #ffffff"/>
   </g>
   <g id="matplotlib.axis_3">
    <g id="xtick_8">
     <g id="line2d_20">
      <g>
       <use xlink:href="#m397a87be24" x="74.665266" y="390.04" style="stroke: #000000; stroke-width: 0.8"/>
      </g>
     </g>
     <g id="text_12">
      <!-- 2013-01 -->
      <g transform="translate(53.77386 404.638438)scale(0.1 -0.1)">
       <use xlink:href="#DejaVuSans-32"/>
       <use xlink:href="#DejaVuSans-30" x="63.623047"/>
       <use xlink:href="#DejaVuSans-31" x="127.246094"/>
       <use xlink:href="#DejaVuSans-33" x="190.869141"/>
       <use xlink:href="#DejaVuSans-2d" x="254.492188"/>
       <use xlink:href="#DejaVuSans-30" x="290.576172"/>
       <use xlink:href="#DejaVuSans-31" x="354.199219"/>
      </g>
     </g>
    </g>
    <g id="xtick_9">
     <g id="line2d_21">
      <g>
       <use xlink:href="#m397a87be24" x="150.287137" y="390.04" style="stroke: #000000; stroke-width: 0.8"/>
      </g>
     </g>
     <g id="text_13">
      <!-- 2013-03 -->
      <g transform="translate(129.395731 404.638438)scale(0.1 -0.1)">
       <use xlink:href="#DejaVuSans-32"/>
       <use xlink:href="#DejaVuSans-30" x="63.623047"/>
       <use xlink:href="#DejaVuSans-31" x="127.246094"/>
       <use xlink:href="#DejaVuSans-33" x="190.869141"/>
       <use xlink:href="#DejaVuSans-2d" x="254.492188"/>
       <use xlink:href="#DejaVuSans-30" x="290.576172"/>
       <use xlink:href="#DejaVuSans-33" x="354.199219"/>
      </g>
     </g>
    </g>
    <g id="xtick_10">
     <g id="line2d_22">
      <g>
       <use xlink:href="#m397a87be24" x="228.472462" y="390.04" style="stroke: #000000; stroke-width: 0.8"/>
      </g>
     </g>
     <g id="text_14">
      <!-- 2013-05 -->
      <g transform="translate(207.581055 404.638438)scale(0.1 -0.1)">
       <use xlink:href="#DejaVuSans-32"/>
       <use xlink:href="#DejaVuSans-30" x="63.623047"/>
       <use xlink:href="#DejaVuSans-31" x="127.246094"/>
       <use xlink:href="#DejaVuSans-33" x="190.869141"/>
       <use xlink:href="#DejaVuSans-2d" x="254.492188"/>
       <use xlink:href="#DejaVuSans-30" x="290.576172"/>
       <use xlink:href="#DejaVuSans-35" x="354.199219"/>
      </g>
     </g>
    </g>
    <g id="xtick_11">
     <g id="line2d_23">
      <g>
       <use xlink:href="#m397a87be24" x="306.657786" y="390.04" style="stroke: #000000; stroke-width: 0.8"/>
      </g>
     </g>
     <g id="text_15">
      <!-- 2013-07 -->
      <g transform="translate(285.76638 404.638438)scale(0.1 -0.1)">
       <defs>
        <path id="DejaVuSans-37" d="M 525 4666 
L 3525 4666 
L 3525 4397 
L 1831 0 
L 1172 0 
L 2766 4134 
L 525 4134 
L 525 4666 
z
" transform="scale(0.015625)"/>
       </defs>
       <use xlink:href="#DejaVuSans-32"/>
       <use xlink:href="#DejaVuSans-30" x="63.623047"/>
       <use xlink:href="#DejaVuSans-31" x="127.246094"/>
       <use xlink:href="#DejaVuSans-33" x="190.869141"/>
       <use xlink:href="#DejaVuSans-2d" x="254.492188"/>
       <use xlink:href="#DejaVuSans-30" x="290.576172"/>
       <use xlink:href="#DejaVuSans-37" x="354.199219"/>
      </g>
     </g>
    </g>
    <g id="xtick_12">
     <g id="line2d_24">
      <g>
       <use xlink:href="#m397a87be24" x="386.124837" y="390.04" style="stroke: #000000; stroke-width: 0.8"/>
      </g>
     </g>
     <g id="text_16">
      <!-- 2013-09 -->
      <g transform="translate(365.233431 404.638438)scale(0.1 -0.1)">
       <defs>
        <path id="DejaVuSans-39" d="M 703 97 
L 703 672 
Q 941 559 1184 500 
Q 1428 441 1663 441 
Q 2288 441 2617 861 
Q 2947 1281 2994 2138 
Q 2813 1869 2534 1725 
Q 2256 1581 1919 1581 
Q 1219 1581 811 2004 
Q 403 2428 403 3163 
Q 403 3881 828 4315 
Q 1253 4750 1959 4750 
Q 2769 4750 3195 4129 
Q 3622 3509 3622 2328 
Q 3622 1225 3098 567 
Q 2575 -91 1691 -91 
Q 1453 -91 1209 -44 
Q 966 3 703 97 
z
M 1959 2075 
Q 2384 2075 2632 2365 
Q 2881 2656 2881 3163 
Q 2881 3666 2632 3958 
Q 2384 4250 1959 4250 
Q 1534 4250 1286 3958 
Q 1038 3666 1038 3163 
Q 1038 2656 1286 2365 
Q 1534 2075 1959 2075 
z
" transform="scale(0.015625)"/>
       </defs>
       <use xlink:href="#DejaVuSans-32"/>
       <use xlink:href="#DejaVuSans-30" x="63.623047"/>
       <use xlink:href="#DejaVuSans-31" x="127.246094"/>
       <use xlink:href="#DejaVuSans-33" x="190.869141"/>
       <use xlink:href="#DejaVuSans-2d" x="254.492188"/>
       <use xlink:href="#DejaVuSans-30" x="290.576172"/>
       <use xlink:href="#DejaVuSans-39" x="354.199219"/>
      </g>
     </g>
    </g>
    <g id="xtick_13">
     <g id="line2d_25">
      <g>
       <use xlink:href="#m397a87be24" x="464.310161" y="390.04" style="stroke: #000000; stroke-width: 0.8"/>
      </g>
     </g>
     <g id="text_17">
      <!-- 2013-11 -->
      <g transform="translate(443.418755 404.638438)scale(0.1 -0.1)">
       <use xlink:href="#DejaVuSans-32"/>
       <use xlink:href="#DejaVuSans-30" x="63.623047"/>
       <use xlink:href="#DejaVuSans-31" x="127.246094"/>
       <use xlink:href="#DejaVuSans-33" x="190.869141"/>
       <use xlink:href="#DejaVuSans-2d" x="254.492188"/>
       <use xlink:href="#DejaVuSans-31" x="290.576172"/>
       <use xlink:href="#DejaVuSans-31" x="354.199219"/>
      </g>
     </g>
    </g>
    <g id="xtick_14">
     <g id="line2d_26">
      <g>
       <use xlink:href="#m397a87be24" x="542.495485" y="390.04" style="stroke: #000000; stroke-width: 0.8"/>
      </g>
     </g>
     <g id="text_18">
      <!-- 2014-01 -->
      <g transform="translate(521.604079 404.638438)scale(0.1 -0.1)">
       <use xlink:href="#DejaVuSans-32"/>
       <use xlink:href="#DejaVuSans-30" x="63.623047"/>
       <use xlink:href="#DejaVuSans-31" x="127.246094"/>
       <use xlink:href="#DejaVuSans-34" x="190.869141"/>
       <use xlink:href="#DejaVuSans-2d" x="254.492188"/>
       <use xlink:href="#DejaVuSans-30" x="290.576172"/>
       <use xlink:href="#DejaVuSans-31" x="354.199219"/>
      </g>
     </g>
    </g>
    <g id="text_19">
     <!-- Time -->
     <g transform="translate(293.783329 418.316562)scale(0.1 -0.1)">
      <defs>
       <path id="DejaVuSans-54" d="M -19 4666 
L 3928 4666 
L 3928 4134 
L 2272 4134 
L 2272 0 
L 1638 0 
L 1638 4134 
L -19 4134 
L -19 4666 
z
" transform="scale(0.015625)"/>
       <path id="DejaVuSans-69" d="M 603 3500 
L 1178 3500 
L 1178 0 
L 603 0 
L 603 3500 
z
M 603 4863 
L 1178 4863 
L 1178 4134 
L 603 4134 
L 603 4863 
z
" transform="scale(0.015625)"/>
      </defs>
      <use xlink:href="#DejaVuSans-54"/>
      <use xlink:href="#DejaVuSans-69" x="57.958984"/>
      <use xlink:href="#DejaVuSans-6d" x="85.742188"/>
      <use xlink:href="#DejaVuSans-65" x="183.154297"/>
     </g>
    </g>
   </g>
   <g id="matplotlib.axis_4">
    <g id="ytick_7">
     <g id="line2d_27">
      <g>
       <use xlink:href="#m73785369e5" x="52.94" y="382.421594" style="stroke: #000000; stroke-width: 0.8"/>
      </g>
     </g>
     <g id="text_20">
      <!-- −10 -->
      <g transform="translate(24.835313 386.220813)scale(0.1 -0.1)">
       <defs>
        <path id="DejaVuSans-2212" d="M 678 2272 
L 4684 2272 
L 4684 1741 
L 678 1741 
L 678 2272 
z
" transform="scale(0.015625)"/>
       </defs>
       <use xlink:href="#DejaVuSans-2212"/>
       <use xlink:href="#DejaVuSans-31" x="83.789062"/>
       <use xlink:href="#DejaVuSans-30" x="147.412109"/>
      </g>
     </g>
    </g>
    <g id="ytick_8">
     <g id="line2d_28">
      <g>
       <use xlink:href="#m73785369e5" x="52.94" y="344.667935" style="stroke: #000000; stroke-width: 0.8"/>
      </g>
     </g>
     <g id="text_21">
      <!-- −5 -->
      <g transform="translate(31.197813 348.467154)scale(0.1 -0.1)">
       <use xlink:href="#DejaVuSans-2212"/>
       <use xlink:href="#DejaVuSans-35" x="83.789062"/>
      </g>
     </g>
    </g>
    <g id="ytick_9">
     <g id="line2d_29">
      <g>
       <use xlink:href="#m73785369e5" x="52.94" y="306.914277" style="stroke: #000000; stroke-width: 0.8"/>
      </g>
     </g>
     <g id="text_22">
      <!-- 0 -->
      <g transform="translate(39.5775 310.713496)scale(0.1 -0.1)">
       <use xlink:href="#DejaVuSans-30"/>
      </g>
     </g>
    </g>
    <g id="text_23">
     <!-- DD % -->
     <g transform="translate(18.755625 360.537798)rotate(-90)scale(0.1 -0.1)">
      <defs>
       <path id="DejaVuSans-44" d="M 1259 4147 
L 1259 519 
L 2022 519 
Q 2988 519 3436 956 
Q 3884 1394 3884 2338 
Q 3884 3275 3436 3711 
Q 2988 4147 2022 4147 
L 1259 4147 
z
M 628 4666 
L 1925 4666 
Q 3281 4666 3915 4102 
Q 4550 3538 4550 2338 
Q 4550 1131 3912 565 
Q 3275 0 1925 0 
L 628 0 
L 628 4666 
z
" transform="scale(0.015625)"/>
      </defs>
      <use xlink:href="#DejaVuSans-44"/>
      <use xlink:href="#DejaVuSans-44" x="77.001953"/>
      <use xlink:href="#DejaVuSans-20" x="154.003906"/>
      <use xlink:href="#DejaVuSans-25" x="185.791016"/>
     </g>
    </g>
   </g>
   <g id="line2d_30">
    <path d="M 75.946993 306.914277 
L 82.355626 306.914277 
L 83.637353 307.507213 
L 84.919079 309.523191 
L 86.200806 308.37624 
L 87.482533 308.855455 
L 91.327712 308.245691 
L 92.609439 307.858218 
L 93.891166 308.600163 
L 96.454619 306.914277 
L 113.117065 306.914277 
L 114.398792 309.675937 
L 118.243972 306.914277 
L 119.525698 316.945565 
L 122.089152 307.335204 
L 123.370878 306.914277 
L 138.751598 306.914277 
L 141.315051 310.546518 
L 145.160231 306.914277 
L 146.441957 314.464333 
L 147.723684 311.19669 
L 149.005411 306.914277 
L 150.287137 306.914277 
L 154.132317 311.797727 
L 155.414044 314.642801 
L 156.695771 307.219171 
L 157.977497 311.82973 
L 159.259224 307.569038 
L 163.104404 307.135933 
L 164.38613 308.977635 
L 165.667857 313.637743 
L 166.949584 308.147037 
L 168.23131 310.498036 
L 172.07649 314.901508 
L 173.358217 315.443063 
L 174.639943 315.223591 
L 177.203397 320.770318 
L 181.048576 310.47629 
L 182.330303 316.619963 
L 183.61203 310.199302 
L 184.893756 309.72662 
L 191.302389 310.604078 
L 192.584116 306.914277 
L 195.147569 312.021984 
L 198.992749 328.325115 
L 200.274476 326.648843 
L 201.556202 328.659466 
L 202.837929 320.559224 
L 204.119656 322.34536 
L 207.964836 321.698151 
L 229.754188 321.698151 
L 231.035915 326.064205 
L 234.881095 326.504352 
L 236.162821 330.677626 
L 237.444548 332.562879 
L 240.008001 328.827659 
L 243.853181 328.112009 
L 245.134908 326.583217 
L 246.416634 327.291134 
L 247.698361 323.106537 
L 248.980088 319.344241 
L 252.825268 320.831662 
L 254.106994 318.362984 
L 255.388721 318.865181 
L 256.670447 323.466855 
L 257.952174 323.466855 
L 261.797354 318.219057 
L 263.079081 310.862404 
L 264.360807 308.11926 
L 265.642534 308.848092 
L 266.92426 306.914277 
L 282.30498 306.914277 
L 283.586707 314.904355 
L 288.713613 314.904355 
L 289.99534 313.380892 
L 291.277066 315.439157 
L 292.558793 318.804838 
L 297.6857 324.602652 
L 302.812606 324.602652 
L 306.657786 326.659044 
L 307.939513 326.659044 
L 309.221239 331.287006 
L 310.502966 331.823892 
L 311.784692 326.94813 
L 315.629872 330.807398 
L 316.911599 332.925254 
L 318.193326 323.275742 
L 319.475052 320.672994 
L 320.756779 308.574423 
L 324.601959 306.914277 
L 325.883685 306.914277 
L 327.165412 308.768162 
L 328.447139 306.914277 
L 329.728865 306.914277 
L 333.574045 312.073895 
L 334.855772 310.645898 
L 336.137498 306.914277 
L 338.700952 306.914277 
L 342.546132 311.168894 
L 343.827858 310.344987 
L 345.109585 307.567661 
L 346.391311 306.914277 
L 352.799945 306.914277 
L 354.081671 308.436605 
L 355.363398 306.914277 
L 356.645124 306.914277 
L 361.772031 308.035756 
L 363.053758 310.767321 
L 364.335484 307.921978 
L 365.617211 314.054649 
L 369.462391 306.914277 
L 370.744117 309.937521 
L 372.025844 308.851766 
L 373.307571 314.422284 
L 374.589297 306.914277 
L 378.434477 307.853142 
L 379.716204 310.51915 
L 380.99793 321.506192 
L 382.279657 323.107806 
L 383.561384 316.325541 
L 387.406563 317.520102 
L 388.68829 308.021202 
L 389.970017 306.914277 
L 401.505556 306.914277 
L 405.350736 307.431142 
L 406.632463 306.914277 
L 409.195916 306.914277 
L 410.477643 316.339721 
L 414.322823 306.914277 
L 415.604549 310.493716 
L 416.886276 311.481059 
L 418.168003 320.57608 
L 419.449729 320.319411 
L 423.294909 321.311707 
L 424.576636 306.914277 
L 425.858362 315.493054 
L 427.140089 319.565789 
L 428.421816 316.491892 
L 432.266995 320.247862 
L 433.548722 320.954076 
L 437.393902 320.954076 
L 441.239082 306.914277 
L 442.520808 371.800692 
L 443.802535 386.081632 
L 445.084262 382.960489 
L 446.365988 381.29637 
L 450.211168 376.613358 
L 451.492895 379.93778 
L 452.774622 375.75333 
L 454.056348 372.271278 
L 455.338075 371.879003 
L 459.183255 372.599741 
L 460.464981 379.251335 
L 461.746708 373.178345 
L 463.028435 376.08995 
L 464.310161 372.160782 
L 468.155341 369.507135 
L 469.437068 362.254088 
L 470.718794 360.741209 
L 472.000521 353.085824 
L 473.282248 355.244293 
L 477.127427 354.579257 
L 478.409154 349.422751 
L 479.690881 355.263341 
L 480.972607 350.44631 
L 482.254334 341.551781 
L 486.099514 332.084084 
L 487.38124 340.385193 
L 488.662967 343.866735 
L 489.944694 349.799409 
L 491.22642 356.867198 
L 495.0716 349.154903 
L 496.353327 339.277575 
L 497.635053 336.59105 
L 498.91678 329.671087 
L 500.198507 329.104537 
L 504.043687 331.05329 
L 505.325413 327.754246 
L 509.170593 327.754246 
L 513.015773 322.380409 
L 514.2975 327.58036 
L 516.860953 332.324332 
L 525.833039 332.324332 
L 527.114766 321.847627 
L 530.959946 316.307964 
L 536.086852 307.33097 
L 536.086852 307.33097 
" clip-path="url(#p78be6caa6c)" style="fill: none; stroke: #0000ff; stroke-width: 1.5; stroke-linecap: square"/>
   </g>
   <g id="patch_9">
    <path d="M 52.94 390.04 
L 52.94 302.955909 
" style="fill: none; stroke: #000000; stroke-width: 0.8; stroke-linejoin: miter; stroke-linecap: square"/>
   </g>
   <g id="patch_10">
    <path d="M 559.093845 390.04 
L 559.093845 302.955909 
" style="fill: none; stroke: #000000; stroke-width: 0.8; stroke-linejoin: miter; stroke-linecap: square"/>
   </g>
   <g id="patch_11">
    <path d="M 52.94 390.04 
L 559.093845 390.04 
" style="fill: none; stroke: #000000; stroke-width: 0.8; stroke-linejoin: miter; stroke-linecap: square"/>
   </g>
   <g id="patch_12">
    <path d="M 52.94 302.955909 
L 559.093845 302.955909 
" style="fill: none; stroke: #000000; stroke-width: 0.8; stroke-linejoin: miter; stroke-linecap: square"/>
   </g>
  </g>
 </g>
 <defs>
  <clipPath id="pc2f5e95c2b">
   <rect x="52.94" y="26.88" width="506.153845" height="261.252273"/>
  </clipPath>
  <clipPath id="p78be6caa6c">
   <rect x="52.94" y="302.955909" width="506.153845" height="87.084091"/>
  </clipPath>
 </defs>
</svg>
