<?xml version="1.0" encoding="utf-8" standalone="no"?>
<!DOCTYPE svg PUBLIC "-//W3C//DTD SVG 1.1//EN"
  "http://www.w3.org/Graphics/SVG/1.1/DTD/svg11.dtd">
<svg xmlns:xlink="http://www.w3.org/1999/xlink" width="576pt" height="432pt" viewBox="0 0 576 432" xmlns="http://www.w3.org/2000/svg" version="1.1">
 <metadata>
  <rdf:RDF xmlns:dc="http://purl.org/dc/elements/1.1/" xmlns:cc="http://creativecommons.org/ns#" xmlns:rdf="http://www.w3.org/1999/02/22-rdf-syntax-ns#">
   <cc:Work>
    <dc:type rdf:resource="http://purl.org/dc/dcmitype/StillImage"/>
    <dc:date>2023-01-15T23:56:30.808901</dc:date>
    <dc:format>image/svg+xml</dc:format>
    <dc:creator>
     <cc:Agent>
      <dc:title>Matplotlib v3.5.0, https://matplotlib.org/</dc:title>
     </cc:Agent>
    </dc:creator>
   </cc:Work>
  </rdf:RDF>
 </metadata>
 <defs>
  <style type="text/css">*{stroke-linejoin: round; stroke-linecap: butt}</style>
 </defs>
 <g id="figure_1">
  <g id="patch_1">
   <path d="M 0 432 
L 576 432 
L 576 0 
L 0 0 
z
" style="fill: #ffffff"/>
  </g>
  <g id="axes_1">
   <g id="patch_2">
    <path d="M 56 288.132273 
L 554.543776 288.132273 
L 554.543776 26.88 
L 56 26.88 
z
" style="fill: #ffffff"/>
   </g>
   <g id="matplotlib.axis_1">
    <g id="xtick_1">
     <g id="line2d_1">
      <defs>
       <path id="md9d7d6f7f0" d="M 0 0 
L 0 3.5 
" style="stroke: #000000; stroke-width: 0.8"/>
      </defs>
      <g>
       <use xlink:href="#md9d7d6f7f0" x="81.193045" y="288.132273" style="stroke: #000000; stroke-width: 0.8"/>
      </g>
     </g>
    </g>
    <g id="xtick_2">
     <g id="line2d_2">
      <g>
       <use xlink:href="#md9d7d6f7f0" x="155.885993" y="288.132273" style="stroke: #000000; stroke-width: 0.8"/>
      </g>
     </g>
    </g>
    <g id="xtick_3">
     <g id="line2d_3">
      <g>
       <use xlink:href="#md9d7d6f7f0" x="233.110905" y="288.132273" style="stroke: #000000; stroke-width: 0.8"/>
      </g>
     </g>
    </g>
    <g id="xtick_4">
     <g id="line2d_4">
      <g>
       <use xlink:href="#md9d7d6f7f0" x="310.335817" y="288.132273" style="stroke: #000000; stroke-width: 0.8"/>
      </g>
     </g>
    </g>
    <g id="xtick_5">
     <g id="line2d_5">
      <g>
       <use xlink:href="#md9d7d6f7f0" x="388.826711" y="288.132273" style="stroke: #000000; stroke-width: 0.8"/>
      </g>
     </g>
    </g>
    <g id="xtick_6">
     <g id="line2d_6">
      <g>
       <use xlink:href="#md9d7d6f7f0" x="466.051623" y="288.132273" style="stroke: #000000; stroke-width: 0.8"/>
      </g>
     </g>
    </g>
    <g id="xtick_7">
     <g id="line2d_7">
      <g>
       <use xlink:href="#md9d7d6f7f0" x="543.276535" y="288.132273" style="stroke: #000000; stroke-width: 0.8"/>
      </g>
     </g>
    </g>
   </g>
   <g id="matplotlib.axis_2">
    <g id="ytick_1">
     <g id="line2d_8">
      <defs>
       <path id="m8cec01dce4" d="M 0 0 
L -3.5 0 
" style="stroke: #000000; stroke-width: 0.8"/>
      </defs>
      <g>
       <use xlink:href="#m8cec01dce4" x="56" y="278.503112" style="stroke: #000000; stroke-width: 0.8"/>
      </g>
     </g>
     <g id="text_1">
      <!-- −5.0 -->
      <g transform="translate(24.717187 282.302331)scale(0.1 -0.1)">
       <defs>
        <path id="DejaVuSans-2212" d="M 678 2272 
L 4684 2272 
L 4684 1741 
L 678 1741 
L 678 2272 
z
" transform="scale(0.015625)"/>
        <path id="DejaVuSans-35" d="M 691 4666 
L 3169 4666 
L 3169 4134 
L 1269 4134 
L 1269 2991 
Q 1406 3038 1543 3061 
Q 1681 3084 1819 3084 
Q 2600 3084 3056 2656 
Q 3513 2228 3513 1497 
Q 3513 744 3044 326 
Q 2575 -91 1722 -91 
Q 1428 -91 1123 -41 
Q 819 9 494 109 
L 494 744 
Q 775 591 1075 516 
Q 1375 441 1709 441 
Q 2250 441 2565 725 
Q 2881 1009 2881 1497 
Q 2881 1984 2565 2268 
Q 2250 2553 1709 2553 
Q 1456 2553 1204 2497 
Q 953 2441 691 2322 
L 691 4666 
z
" transform="scale(0.015625)"/>
        <path id="DejaVuSans-2e" d="M 684 794 
L 1344 794 
L 1344 0 
L 684 0 
L 684 794 
z
" transform="scale(0.015625)"/>
        <path id="DejaVuSans-30" d="M 2034 4250 
Q 1547 4250 1301 3770 
Q 1056 3291 1056 2328 
Q 1056 1369 1301 889 
Q 1547 409 2034 409 
Q 2525 409 2770 889 
Q 3016 1369 3016 2328 
Q 3016 3291 2770 3770 
Q 2525 4250 2034 4250 
z
M 2034 4750 
Q 2819 4750 3233 4129 
Q 3647 3509 3647 2328 
Q 3647 1150 3233 529 
Q 2819 -91 2034 -91 
Q 1250 -91 836 529 
Q 422 1150 422 2328 
Q 422 3509 836 4129 
Q 1250 4750 2034 4750 
z
" transform="scale(0.015625)"/>
       </defs>
       <use xlink:href="#DejaVuSans-2212"/>
       <use xlink:href="#DejaVuSans-35" x="83.789062"/>
       <use xlink:href="#DejaVuSans-2e" x="147.412109"/>
       <use xlink:href="#DejaVuSans-30" x="179.199219"/>
      </g>
     </g>
    </g>
    <g id="ytick_2">
     <g id="line2d_9">
      <g>
       <use xlink:href="#m8cec01dce4" x="56" y="244.644525" style="stroke: #000000; stroke-width: 0.8"/>
      </g>
     </g>
     <g id="text_2">
      <!-- −2.5 -->
      <g transform="translate(24.717187 248.443744)scale(0.1 -0.1)">
       <defs>
        <path id="DejaVuSans-32" d="M 1228 531 
L 3431 531 
L 3431 0 
L 469 0 
L 469 531 
Q 828 903 1448 1529 
Q 2069 2156 2228 2338 
Q 2531 2678 2651 2914 
Q 2772 3150 2772 3378 
Q 2772 3750 2511 3984 
Q 2250 4219 1831 4219 
Q 1534 4219 1204 4116 
Q 875 4013 500 3803 
L 500 4441 
Q 881 4594 1212 4672 
Q 1544 4750 1819 4750 
Q 2544 4750 2975 4387 
Q 3406 4025 3406 3419 
Q 3406 3131 3298 2873 
Q 3191 2616 2906 2266 
Q 2828 2175 2409 1742 
Q 1991 1309 1228 531 
z
" transform="scale(0.015625)"/>
       </defs>
       <use xlink:href="#DejaVuSans-2212"/>
       <use xlink:href="#DejaVuSans-32" x="83.789062"/>
       <use xlink:href="#DejaVuSans-2e" x="147.412109"/>
       <use xlink:href="#DejaVuSans-35" x="179.199219"/>
      </g>
     </g>
    </g>
    <g id="ytick_3">
     <g id="line2d_10">
      <g>
       <use xlink:href="#m8cec01dce4" x="56" y="210.785937" style="stroke: #000000; stroke-width: 0.8"/>
      </g>
     </g>
     <g id="text_3">
      <!-- 0.0 -->
      <g transform="translate(33.096875 214.585156)scale(0.1 -0.1)">
       <use xlink:href="#DejaVuSans-30"/>
       <use xlink:href="#DejaVuSans-2e" x="63.623047"/>
       <use xlink:href="#DejaVuSans-30" x="95.410156"/>
      </g>
     </g>
    </g>
    <g id="ytick_4">
     <g id="line2d_11">
      <g>
       <use xlink:href="#m8cec01dce4" x="56" y="176.92735" style="stroke: #000000; stroke-width: 0.8"/>
      </g>
     </g>
     <g id="text_4">
      <!-- 2.5 -->
      <g transform="translate(33.096875 180.726568)scale(0.1 -0.1)">
       <use xlink:href="#DejaVuSans-32"/>
       <use xlink:href="#DejaVuSans-2e" x="63.623047"/>
       <use xlink:href="#DejaVuSans-35" x="95.410156"/>
      </g>
     </g>
    </g>
    <g id="ytick_5">
     <g id="line2d_12">
      <g>
       <use xlink:href="#m8cec01dce4" x="56" y="143.068762" style="stroke: #000000; stroke-width: 0.8"/>
      </g>
     </g>
     <g id="text_5">
      <!-- 5.0 -->
      <g transform="translate(33.096875 146.867981)scale(0.1 -0.1)">
       <use xlink:href="#DejaVuSans-35"/>
       <use xlink:href="#DejaVuSans-2e" x="63.623047"/>
       <use xlink:href="#DejaVuSans-30" x="95.410156"/>
      </g>
     </g>
    </g>
    <g id="ytick_6">
     <g id="line2d_13">
      <g>
       <use xlink:href="#m8cec01dce4" x="56" y="109.210174" style="stroke: #000000; stroke-width: 0.8"/>
      </g>
     </g>
     <g id="text_6">
      <!-- 7.5 -->
      <g transform="translate(33.096875 113.009393)scale(0.1 -0.1)">
       <defs>
        <path id="DejaVuSans-37" d="M 525 4666 
L 3525 4666 
L 3525 4397 
L 1831 0 
L 1172 0 
L 2766 4134 
L 525 4134 
L 525 4666 
z
" transform="scale(0.015625)"/>
       </defs>
       <use xlink:href="#DejaVuSans-37"/>
       <use xlink:href="#DejaVuSans-2e" x="63.623047"/>
       <use xlink:href="#DejaVuSans-35" x="95.410156"/>
      </g>
     </g>
    </g>
    <g id="ytick_7">
     <g id="line2d_14">
      <g>
       <use xlink:href="#m8cec01dce4" x="56" y="75.351587" style="stroke: #000000; stroke-width: 0.8"/>
      </g>
     </g>
     <g id="text_7">
      <!-- 10.0 -->
      <g transform="translate(26.734375 79.150805)scale(0.1 -0.1)">
       <defs>
        <path id="DejaVuSans-31" d="M 794 531 
L 1825 531 
L 1825 4091 
L 703 3866 
L 703 4441 
L 1819 4666 
L 2450 4666 
L 2450 531 
L 3481 531 
L 3481 0 
L 794 0 
L 794 531 
z
" transform="scale(0.015625)"/>
       </defs>
       <use xlink:href="#DejaVuSans-31"/>
       <use xlink:href="#DejaVuSans-30" x="63.623047"/>
       <use xlink:href="#DejaVuSans-2e" x="127.246094"/>
       <use xlink:href="#DejaVuSans-30" x="159.033203"/>
      </g>
     </g>
    </g>
    <g id="ytick_8">
     <g id="line2d_15">
      <g>
       <use xlink:href="#m8cec01dce4" x="56" y="41.492999" style="stroke: #000000; stroke-width: 0.8"/>
      </g>
     </g>
     <g id="text_8">
      <!-- 12.5 -->
      <g transform="translate(26.734375 45.292218)scale(0.1 -0.1)">
       <use xlink:href="#DejaVuSans-31"/>
       <use xlink:href="#DejaVuSans-32" x="63.623047"/>
       <use xlink:href="#DejaVuSans-2e" x="127.246094"/>
       <use xlink:href="#DejaVuSans-35" x="159.033203"/>
      </g>
     </g>
    </g>
    <g id="text_9">
     <!-- Return [%] -->
     <g transform="translate(18.6375 184.338949)rotate(-90)scale(0.1 -0.1)">
      <defs>
       <path id="DejaVuSans-52" d="M 2841 2188 
Q 3044 2119 3236 1894 
Q 3428 1669 3622 1275 
L 4263 0 
L 3584 0 
L 2988 1197 
Q 2756 1666 2539 1819 
Q 2322 1972 1947 1972 
L 1259 1972 
L 1259 0 
L 628 0 
L 628 4666 
L 2053 4666 
Q 2853 4666 3247 4331 
Q 3641 3997 3641 3322 
Q 3641 2881 3436 2590 
Q 3231 2300 2841 2188 
z
M 1259 4147 
L 1259 2491 
L 2053 2491 
Q 2509 2491 2742 2702 
Q 2975 2913 2975 3322 
Q 2975 3731 2742 3939 
Q 2509 4147 2053 4147 
L 1259 4147 
z
" transform="scale(0.015625)"/>
       <path id="DejaVuSans-65" d="M 3597 1894 
L 3597 1613 
L 953 1613 
Q 991 1019 1311 708 
Q 1631 397 2203 397 
Q 2534 397 2845 478 
Q 3156 559 3463 722 
L 3463 178 
Q 3153 47 2828 -22 
Q 2503 -91 2169 -91 
Q 1331 -91 842 396 
Q 353 884 353 1716 
Q 353 2575 817 3079 
Q 1281 3584 2069 3584 
Q 2775 3584 3186 3129 
Q 3597 2675 3597 1894 
z
M 3022 2063 
Q 3016 2534 2758 2815 
Q 2500 3097 2075 3097 
Q 1594 3097 1305 2825 
Q 1016 2553 972 2059 
L 3022 2063 
z
" transform="scale(0.015625)"/>
       <path id="DejaVuSans-74" d="M 1172 4494 
L 1172 3500 
L 2356 3500 
L 2356 3053 
L 1172 3053 
L 1172 1153 
Q 1172 725 1289 603 
Q 1406 481 1766 481 
L 2356 481 
L 2356 0 
L 1766 0 
Q 1100 0 847 248 
Q 594 497 594 1153 
L 594 3053 
L 172 3053 
L 172 3500 
L 594 3500 
L 594 4494 
L 1172 4494 
z
" transform="scale(0.015625)"/>
       <path id="DejaVuSans-75" d="M 544 1381 
L 544 3500 
L 1119 3500 
L 1119 1403 
Q 1119 906 1312 657 
Q 1506 409 1894 409 
Q 2359 409 2629 706 
Q 2900 1003 2900 1516 
L 2900 3500 
L 3475 3500 
L 3475 0 
L 2900 0 
L 2900 538 
Q 2691 219 2414 64 
Q 2138 -91 1772 -91 
Q 1169 -91 856 284 
Q 544 659 544 1381 
z
M 1991 3584 
L 1991 3584 
z
" transform="scale(0.015625)"/>
       <path id="DejaVuSans-72" d="M 2631 2963 
Q 2534 3019 2420 3045 
Q 2306 3072 2169 3072 
Q 1681 3072 1420 2755 
Q 1159 2438 1159 1844 
L 1159 0 
L 581 0 
L 581 3500 
L 1159 3500 
L 1159 2956 
Q 1341 3275 1631 3429 
Q 1922 3584 2338 3584 
Q 2397 3584 2469 3576 
Q 2541 3569 2628 3553 
L 2631 2963 
z
" transform="scale(0.015625)"/>
       <path id="DejaVuSans-6e" d="M 3513 2113 
L 3513 0 
L 2938 0 
L 2938 2094 
Q 2938 2591 2744 2837 
Q 2550 3084 2163 3084 
Q 1697 3084 1428 2787 
Q 1159 2491 1159 1978 
L 1159 0 
L 581 0 
L 581 3500 
L 1159 3500 
L 1159 2956 
Q 1366 3272 1645 3428 
Q 1925 3584 2291 3584 
Q 2894 3584 3203 3211 
Q 3513 2838 3513 2113 
z
" transform="scale(0.015625)"/>
       <path id="DejaVuSans-20" transform="scale(0.015625)"/>
       <path id="DejaVuSans-5b" d="M 550 4863 
L 1875 4863 
L 1875 4416 
L 1125 4416 
L 1125 -397 
L 1875 -397 
L 1875 -844 
L 550 -844 
L 550 4863 
z
" transform="scale(0.015625)"/>
       <path id="DejaVuSans-25" d="M 4653 2053 
Q 4381 2053 4226 1822 
Q 4072 1591 4072 1178 
Q 4072 772 4226 539 
Q 4381 306 4653 306 
Q 4919 306 5073 539 
Q 5228 772 5228 1178 
Q 5228 1588 5073 1820 
Q 4919 2053 4653 2053 
z
M 4653 2450 
Q 5147 2450 5437 2106 
Q 5728 1763 5728 1178 
Q 5728 594 5436 251 
Q 5144 -91 4653 -91 
Q 4153 -91 3862 251 
Q 3572 594 3572 1178 
Q 3572 1766 3864 2108 
Q 4156 2450 4653 2450 
z
M 1428 4353 
Q 1159 4353 1004 4120 
Q 850 3888 850 3481 
Q 850 3069 1003 2837 
Q 1156 2606 1428 2606 
Q 1700 2606 1854 2837 
Q 2009 3069 2009 3481 
Q 2009 3884 1853 4118 
Q 1697 4353 1428 4353 
z
M 4250 4750 
L 4750 4750 
L 1831 -91 
L 1331 -91 
L 4250 4750 
z
M 1428 4750 
Q 1922 4750 2215 4408 
Q 2509 4066 2509 3481 
Q 2509 2891 2217 2550 
Q 1925 2209 1428 2209 
Q 931 2209 642 2551 
Q 353 2894 353 3481 
Q 353 4063 643 4406 
Q 934 4750 1428 4750 
z
" transform="scale(0.015625)"/>
       <path id="DejaVuSans-5d" d="M 1947 4863 
L 1947 -844 
L 622 -844 
L 622 -397 
L 1369 -397 
L 1369 4416 
L 622 4416 
L 622 4863 
L 1947 4863 
z
" transform="scale(0.015625)"/>
      </defs>
      <use xlink:href="#DejaVuSans-52"/>
      <use xlink:href="#DejaVuSans-65" x="64.982422"/>
      <use xlink:href="#DejaVuSans-74" x="126.505859"/>
      <use xlink:href="#DejaVuSans-75" x="165.714844"/>
      <use xlink:href="#DejaVuSans-72" x="229.09375"/>
      <use xlink:href="#DejaVuSans-6e" x="268.457031"/>
      <use xlink:href="#DejaVuSans-20" x="331.835938"/>
      <use xlink:href="#DejaVuSans-5b" x="363.623047"/>
      <use xlink:href="#DejaVuSans-25" x="402.636719"/>
      <use xlink:href="#DejaVuSans-5d" x="497.65625"/>
     </g>
    </g>
   </g>
   <g id="line2d_16">
    <path d="M 78.661081 212.273827 
L 82.459027 221.004272 
L 83.725009 220.222775 
L 88.788938 219.086051 
L 91.320902 221.78577 
L 92.586885 215.432296 
L 96.384831 216.640065 
L 97.650813 221.471141 
L 98.916795 202.08594 
L 100.182778 202.431017 
L 101.44876 194.869774 
L 105.246706 193.973589 
L 106.512688 194.950968 
L 107.77867 189.653023 
L 109.044653 205.323573 
L 110.310635 226.911176 
L 114.108581 228.220439 
L 115.374563 227.032968 
L 116.640546 235.436605 
L 117.906528 242.845609 
L 119.17251 241.201419 
L 122.970456 260.018258 
L 124.236439 265.011723 
L 125.502421 253.370453 
L 126.768403 237.45632 
L 128.034385 232.320764 
L 131.832332 226.789385 
L 133.098314 210.073455 
L 134.364296 215.249608 
L 135.630278 214.884232 
L 136.89626 209.291957 
L 140.694207 202.884692 
L 141.960189 216.244241 
L 143.226171 207.150451 
L 144.492153 203.242963 
L 145.758135 195.865422 
L 149.556082 174.560985 
L 150.822064 172.703659 
L 152.088046 171.262456 
L 153.354028 175.860098 
L 154.620011 175.558663 
L 158.417957 209.626885 
L 159.683939 181.330581 
L 160.949921 179.828482 
L 162.215904 170.288121 
L 163.481886 186.486436 
L 167.279832 184.892992 
L 168.545814 185.654191 
L 169.811797 198.665619 
L 171.077779 207.931948 
L 172.343761 218.494346 
L 176.141707 195.590376 
L 177.407689 185.765834 
L 178.673672 184.33478 
L 179.939654 192.464385 
L 181.205636 193.521944 
L 185.003582 209.687781 
L 186.269565 194.291263 
L 187.535547 193.469168 
L 188.801529 203.405352 
L 190.067511 198.542813 
L 193.865458 179.777735 
L 195.13144 169.587818 
L 196.397422 167.060637 
L 197.663404 175.809351 
L 198.929386 174.983197 
L 202.727333 187.552114 
L 203.993315 183.269101 
L 205.259297 178.194441 
L 207.791261 200.937037 
L 211.589208 196.777846 
L 212.85519 216.000658 
L 214.121172 202.53251 
L 215.387154 203.532218 
L 221.717065 175.23084 
L 222.983047 191.865575 
L 224.24903 179.473256 
L 225.515012 184.462661 
L 229.312958 187.298381 
L 230.57894 172.99799 
L 231.844923 180.366396 
L 234.376887 184.626065 
L 238.174833 186.253001 
L 239.440816 191.94677 
L 240.706798 201.94385 
L 241.97278 185.704938 
L 243.238762 190.570522 
L 247.036708 179.970572 
L 248.302691 170.998574 
L 249.568673 168.654081 
L 250.834655 158.596105 
L 252.100637 162.350338 
L 255.898584 164.604502 
L 257.164566 163.234344 
L 258.430548 158.575806 
L 259.69653 155.876087 
L 260.962512 152.058928 
L 264.760459 150.15999 
L 266.026441 148.904519 
L 267.292423 151.481432 
L 269.824387 142.11158 
L 273.622334 144.833627 
L 274.888316 148.51783 
L 276.154298 146.792446 
L 277.42028 153.156069 
L 282.484209 137.688506 
L 283.750191 137.911791 
L 285.016173 143.869442 
L 286.282156 146.589459 
L 287.548138 154.224793 
L 291.346084 161.49881 
L 292.612066 160.189548 
L 293.878049 166.1269 
L 295.144031 158.393118 
L 300.207959 148.203201 
L 301.473942 143.849143 
L 302.739924 164.015842 
L 304.005906 172.257089 
L 305.271888 165.513881 
L 309.069835 167.760941 
L 310.335817 160.098204 
L 311.601799 156.292209 
L 312.867781 134.638635 
L 314.133763 144.284549 
L 317.93171 147.157821 
L 319.197692 162.909566 
L 320.463674 164.756742 
L 321.729656 187.034499 
L 322.995638 182.440917 
L 326.793585 161.935231 
L 328.059567 172.38903 
L 329.325549 151.2074 
L 330.591531 168.21766 
L 331.857513 157.045289 
L 335.65546 160.940598 
L 336.921442 145.148256 
L 338.187424 146.122591 
L 339.453406 138.439556 
L 340.719389 140.039088 
L 344.517335 143.341677 
L 345.783317 146.366174 
L 347.049299 146.021098 
L 349.581264 183.3574 
L 353.37921 183.776567 
L 354.645192 178.600414 
L 355.911175 200.756379 
L 357.177157 210.804206 
L 358.443139 213.683568 
L 362.241085 187.501368 
L 363.507068 195.011864 
L 364.77305 182.974771 
L 366.039032 190.972435 
L 367.305014 191.950829 
L 371.102961 175.362781 
L 372.368943 167.963927 
L 373.634925 171.120365 
L 374.900907 159.4182 
L 376.166889 161.765737 
L 379.964836 149.613957 
L 381.230818 146.721401 
L 382.4968 146.853342 
L 383.762782 161.448064 
L 385.028764 155.505637 
L 388.826711 157.444157 
L 390.092693 156.464748 
L 391.358675 145.767365 
L 392.624657 146.264681 
L 393.890639 156.013103 
L 397.688586 151.603223 
L 398.954568 161.701797 
L 400.22055 157.03311 
L 401.486532 161.630751 
L 402.752515 155.808087 
L 406.550461 151.105907 
L 407.816443 149.004998 
L 409.082425 137.079547 
L 410.348408 127.18396 
L 411.61439 122.421899 
L 415.412336 125.661562 
L 416.678318 138.82523 
L 417.944301 132.826982 
L 419.210283 151.237848 
L 420.476265 148.083439 
L 424.274211 151.9483 
L 425.540194 141.179872 
L 426.806176 162.909566 
L 428.072158 190.982584 
L 429.33814 175.163854 
L 433.136087 179.026686 
L 434.402069 207.525976 
L 435.668051 213.412581 
L 436.934033 223.074734 
L 438.200015 243.338866 
L 441.997962 251.157902 
L 443.263944 237.740501 
L 444.529926 276.257169 
L 445.795908 275.140744 
L 447.06189 235.104722 
L 450.859837 239.181704 
L 452.125819 207.028659 
L 453.391801 200.715782 
L 454.657783 182.913875 
L 455.923765 186.270255 
L 459.721712 184.48702 
L 460.987694 163.680914 
L 462.253676 154.424734 
L 463.519658 147.086776 
L 464.785641 131.188882 
L 468.583587 145.188853 
L 469.849569 144.356609 
L 471.115551 129.924276 
L 472.381534 128.696209 
L 473.647516 133.179163 
L 477.445462 126.13858 
L 478.711444 118.922414 
L 479.977427 135.232371 
L 481.243409 121.124816 
L 482.509391 128.390714 
L 486.307337 124.007223 
L 487.57332 111.36117 
L 490.105284 120.160631 
L 491.371266 95.989011 
L 495.169213 86.789667 
L 496.435195 75.85885 
L 497.701177 85.550435 
L 498.967159 77.282799 
L 500.233141 81.97077 
L 504.031088 93.447621 
L 505.29707 93.409053 
L 506.563052 78.421553 
L 507.829034 95.690621 
L 509.095016 68.410264 
L 512.892963 75.32804 
L 514.158945 91.203606 
L 515.424927 90.634229 
L 516.690909 88.961621 
L 517.956892 117.979542 
L 521.754838 135.344013 
L 523.02082 130.441892 
L 524.286802 138.794782 
L 525.552784 101.749764 
L 526.818767 91.085874 
L 530.616713 81.552618 
L 531.882695 72.683127 
L 531.882695 72.683127 
" clip-path="url(#pb2ab2aa09a)" style="fill: none; stroke: #008000; stroke-width: 1.5; stroke-linecap: square"/>
   </g>
   <g id="line2d_17">
    <path d="M 78.661081 202.540075 
L 82.459027 202.22113 
L 83.725009 204.964834 
L 88.788938 199.128765 
L 90.05492 190.24299 
L 91.320902 188.468258 
L 92.586885 195.890876 
L 96.384831 181.690493 
L 97.650813 192.338318 
L 98.916795 185.079846 
L 100.182778 175.436368 
L 101.44876 172.808963 
L 105.246706 174.210823 
L 106.512688 173.288902 
L 107.77867 169.542705 
L 109.044653 167.898106 
L 110.310635 182.557879 
L 114.108581 213.724893 
L 115.374563 217.740926 
L 116.640546 206.387669 
L 117.906528 228.261452 
L 119.17251 222.428753 
L 122.970456 216.096289 
L 131.832332 216.096289 
L 133.098314 198.656801 
L 134.364296 191.865191 
L 135.630278 195.623572 
L 136.89626 185.725547 
L 140.694207 175.847925 
L 141.960189 164.408423 
L 143.226171 171.359647 
L 144.492153 167.737074 
L 145.758135 162.625688 
L 149.556082 148.286636 
L 150.822064 153.480594 
L 152.088046 150.976643 
L 153.354028 153.083078 
L 154.620011 156.657107 
L 158.417957 181.871582 
L 159.683939 206.156115 
L 160.949921 171.803176 
L 162.215904 174.531027 
L 163.481886 169.108755 
L 167.279832 169.484556 
L 168.545814 171.078592 
L 169.811797 172.228619 
L 178.673672 172.228619 
L 179.939654 171.200105 
L 181.205636 177.378202 
L 185.003582 170.23518 
L 190.067511 170.23518 
L 193.865458 163.670645 
L 195.13144 143.483648 
L 196.397422 120.846769 
L 197.663404 117.246665 
L 198.929386 121.073408 
L 202.727333 120.483481 
L 203.993315 126.592815 
L 205.259297 130.604476 
L 206.525279 108.737881 
L 207.791261 129.151435 
L 211.589208 135.555403 
L 212.85519 141.551645 
L 222.983047 141.551645 
L 224.24903 147.706161 
L 225.515012 140.336683 
L 229.312958 127.425552 
L 230.57894 124.718432 
L 231.844923 109.027972 
L 234.376887 104.764857 
L 238.174833 106.233859 
L 239.440816 118.799108 
L 240.706798 118.774178 
L 241.97278 117.216281 
L 243.238762 110.007253 
L 247.036708 112.422964 
L 248.302691 97.484207 
L 249.568673 102.762369 
L 250.834655 106.730846 
L 252.100637 106.13916 
L 255.898584 124.563878 
L 257.164566 126.881885 
L 258.430548 120.699138 
L 259.69653 111.594629 
L 260.962512 113.001518 
L 264.760459 107.825213 
L 266.026441 107.501796 
L 267.292423 99.911187 
L 269.824387 101.711823 
L 273.622334 92.086006 
L 274.888316 82.053368 
L 276.154298 93.181921 
L 277.42028 88.995507 
L 282.484209 90.096167 
L 283.750191 86.099046 
L 285.016173 74.861409 
L 286.282156 82.060552 
L 287.548138 83.811598 
L 291.346084 95.966369 
L 309.069835 95.966369 
L 310.335817 101.282581 
L 311.601799 91.50889 
L 312.867781 70.568172 
L 314.133763 39.622053 
L 317.93171 40.886108 
L 319.197692 38.755103 
L 320.463674 52.996213 
L 321.729656 58.9772 
L 322.995638 80.718986 
L 326.793585 83.256673 
L 328.059567 67.91764 
L 329.325549 72.098896 
L 330.591531 71.038456 
L 331.857513 87.273583 
L 335.65546 95.384043 
L 336.921442 102.092417 
L 338.187424 105.635562 
L 339.453406 110.341744 
L 340.719389 98.600922 
L 344.517335 106.575059 
L 345.783317 111.936454 
L 347.049299 120.604112 
L 348.315282 115.102232 
L 349.581264 137.651447 
L 353.37921 152.685808 
L 354.645192 152.685808 
L 355.911175 154.814556 
L 357.177157 177.566414 
L 376.166889 177.566414 
L 379.964836 171.142548 
L 381.230818 172.951417 
L 382.4968 169.607391 
L 383.762782 160.707226 
L 385.028764 173.745058 
L 388.826711 168.320338 
L 390.092693 168.559292 
L 391.358675 174.309657 
L 392.624657 168.92268 
L 393.890639 165.42673 
L 397.688586 168.470532 
L 398.954568 171.227715 
L 400.22055 170.005474 
L 401.486532 188.342205 
L 424.274211 188.342205 
L 425.540194 199.338228 
L 426.806176 200.319053 
L 428.072158 215.229556 
L 454.657783 215.229556 
L 455.923765 191.813052 
L 459.721712 188.534096 
L 460.987694 185.84469 
L 462.253676 158.623407 
L 463.519658 158.221309 
L 464.785641 148.482305 
L 468.583587 139.094634 
L 469.849569 149.065605 
L 471.115551 137.294193 
L 472.381534 143.464562 
L 473.647516 139.334921 
L 477.445462 133.65027 
L 478.711444 132.476521 
L 479.977427 127.847866 
L 481.243409 118.545218 
L 482.509391 106.766012 
L 486.307337 117.181611 
L 487.57332 119.152127 
L 488.839302 122.684707 
L 490.105284 122.724238 
L 491.371266 129.244034 
L 495.169213 115.508345 
L 496.435195 105.654427 
L 497.701177 93.876001 
L 498.967159 107.587999 
L 500.233141 102.974469 
L 504.031088 101.992653 
L 530.616713 101.992653 
L 531.882695 99.330824 
L 531.882695 99.330824 
" clip-path="url(#pb2ab2aa09a)" style="fill: none; stroke: #0000ff; stroke-width: 1.5; stroke-linecap: square"/>
   </g>
   <g id="line2d_18">
    <path d="M 78.661081 202.540075 
L 83.725009 202.22113 
L 88.788938 199.128765 
L 90.05492 190.24299 
L 91.320902 188.468258 
L 92.586885 188.468258 
L 96.384831 181.690493 
L 98.916795 181.690493 
L 100.182778 175.436368 
L 101.44876 172.808963 
L 106.512688 172.808963 
L 107.77867 169.542705 
L 109.044653 167.898106 
L 140.694207 167.898106 
L 141.960189 164.408423 
L 144.492153 164.408423 
L 145.758135 162.625688 
L 149.556082 148.286636 
L 193.865458 148.286636 
L 195.13144 143.483648 
L 196.397422 120.846769 
L 197.663404 117.246665 
L 205.259297 117.246665 
L 206.525279 108.737881 
L 231.844923 108.737881 
L 234.376887 104.764857 
L 247.036708 104.764857 
L 248.302691 97.484207 
L 269.824387 97.484207 
L 273.622334 92.086006 
L 274.888316 82.053368 
L 283.750191 82.053368 
L 285.016173 74.861409 
L 311.601799 74.861409 
L 312.867781 70.568172 
L 314.133763 39.622053 
L 317.93171 39.622053 
L 319.197692 38.755103 
L 531.882695 38.755103 
L 531.882695 38.755103 
" clip-path="url(#pb2ab2aa09a)" style="fill: none; stroke: #ff0000; stroke-width: 1.5; stroke-linecap: square"/>
   </g>
   <g id="patch_3">
    <path d="M 56 288.132273 
L 56 26.88 
" style="fill: none; stroke: #000000; stroke-width: 0.8; stroke-linejoin: miter; stroke-linecap: square"/>
   </g>
   <g id="patch_4">
    <path d="M 554.543776 288.132273 
L 554.543776 26.88 
" style="fill: none; stroke: #000000; stroke-width: 0.8; stroke-linejoin: miter; stroke-linecap: square"/>
   </g>
   <g id="patch_5">
    <path d="M 56 288.132273 
L 554.543776 288.132273 
" style="fill: none; stroke: #000000; stroke-width: 0.8; stroke-linejoin: miter; stroke-linecap: square"/>
   </g>
   <g id="patch_6">
    <path d="M 56 26.88 
L 554.543776 26.88 
" style="fill: none; stroke: #000000; stroke-width: 0.8; stroke-linejoin: miter; stroke-linecap: square"/>
   </g>
   <g id="text_10">
    <!-- Performance of AVAN-strategy year 2014 -->
    <g transform="translate(181.958763 20.88)scale(0.12 -0.12)">
     <defs>
      <path id="DejaVuSans-50" d="M 1259 4147 
L 1259 2394 
L 2053 2394 
Q 2494 2394 2734 2622 
Q 2975 2850 2975 3272 
Q 2975 3691 2734 3919 
Q 2494 4147 2053 4147 
L 1259 4147 
z
M 628 4666 
L 2053 4666 
Q 2838 4666 3239 4311 
Q 3641 3956 3641 3272 
Q 3641 2581 3239 2228 
Q 2838 1875 2053 1875 
L 1259 1875 
L 1259 0 
L 628 0 
L 628 4666 
z
" transform="scale(0.015625)"/>
      <path id="DejaVuSans-66" d="M 2375 4863 
L 2375 4384 
L 1825 4384 
Q 1516 4384 1395 4259 
Q 1275 4134 1275 3809 
L 1275 3500 
L 2222 3500 
L 2222 3053 
L 1275 3053 
L 1275 0 
L 697 0 
L 697 3053 
L 147 3053 
L 147 3500 
L 697 3500 
L 697 3744 
Q 697 4328 969 4595 
Q 1241 4863 1831 4863 
L 2375 4863 
z
" transform="scale(0.015625)"/>
      <path id="DejaVuSans-6f" d="M 1959 3097 
Q 1497 3097 1228 2736 
Q 959 2375 959 1747 
Q 959 1119 1226 758 
Q 1494 397 1959 397 
Q 2419 397 2687 759 
Q 2956 1122 2956 1747 
Q 2956 2369 2687 2733 
Q 2419 3097 1959 3097 
z
M 1959 3584 
Q 2709 3584 3137 3096 
Q 3566 2609 3566 1747 
Q 3566 888 3137 398 
Q 2709 -91 1959 -91 
Q 1206 -91 779 398 
Q 353 888 353 1747 
Q 353 2609 779 3096 
Q 1206 3584 1959 3584 
z
" transform="scale(0.015625)"/>
      <path id="DejaVuSans-6d" d="M 3328 2828 
Q 3544 3216 3844 3400 
Q 4144 3584 4550 3584 
Q 5097 3584 5394 3201 
Q 5691 2819 5691 2113 
L 5691 0 
L 5113 0 
L 5113 2094 
Q 5113 2597 4934 2840 
Q 4756 3084 4391 3084 
Q 3944 3084 3684 2787 
Q 3425 2491 3425 1978 
L 3425 0 
L 2847 0 
L 2847 2094 
Q 2847 2600 2669 2842 
Q 2491 3084 2119 3084 
Q 1678 3084 1418 2786 
Q 1159 2488 1159 1978 
L 1159 0 
L 581 0 
L 581 3500 
L 1159 3500 
L 1159 2956 
Q 1356 3278 1631 3431 
Q 1906 3584 2284 3584 
Q 2666 3584 2933 3390 
Q 3200 3197 3328 2828 
z
" transform="scale(0.015625)"/>
      <path id="DejaVuSans-61" d="M 2194 1759 
Q 1497 1759 1228 1600 
Q 959 1441 959 1056 
Q 959 750 1161 570 
Q 1363 391 1709 391 
Q 2188 391 2477 730 
Q 2766 1069 2766 1631 
L 2766 1759 
L 2194 1759 
z
M 3341 1997 
L 3341 0 
L 2766 0 
L 2766 531 
Q 2569 213 2275 61 
Q 1981 -91 1556 -91 
Q 1019 -91 701 211 
Q 384 513 384 1019 
Q 384 1609 779 1909 
Q 1175 2209 1959 2209 
L 2766 2209 
L 2766 2266 
Q 2766 2663 2505 2880 
Q 2244 3097 1772 3097 
Q 1472 3097 1187 3025 
Q 903 2953 641 2809 
L 641 3341 
Q 956 3463 1253 3523 
Q 1550 3584 1831 3584 
Q 2591 3584 2966 3190 
Q 3341 2797 3341 1997 
z
" transform="scale(0.015625)"/>
      <path id="DejaVuSans-63" d="M 3122 3366 
L 3122 2828 
Q 2878 2963 2633 3030 
Q 2388 3097 2138 3097 
Q 1578 3097 1268 2742 
Q 959 2388 959 1747 
Q 959 1106 1268 751 
Q 1578 397 2138 397 
Q 2388 397 2633 464 
Q 2878 531 3122 666 
L 3122 134 
Q 2881 22 2623 -34 
Q 2366 -91 2075 -91 
Q 1284 -91 818 406 
Q 353 903 353 1747 
Q 353 2603 823 3093 
Q 1294 3584 2113 3584 
Q 2378 3584 2631 3529 
Q 2884 3475 3122 3366 
z
" transform="scale(0.015625)"/>
      <path id="DejaVuSans-41" d="M 2188 4044 
L 1331 1722 
L 3047 1722 
L 2188 4044 
z
M 1831 4666 
L 2547 4666 
L 4325 0 
L 3669 0 
L 3244 1197 
L 1141 1197 
L 716 0 
L 50 0 
L 1831 4666 
z
" transform="scale(0.015625)"/>
      <path id="DejaVuSans-56" d="M 1831 0 
L 50 4666 
L 709 4666 
L 2188 738 
L 3669 4666 
L 4325 4666 
L 2547 0 
L 1831 0 
z
" transform="scale(0.015625)"/>
      <path id="DejaVuSans-4e" d="M 628 4666 
L 1478 4666 
L 3547 763 
L 3547 4666 
L 4159 4666 
L 4159 0 
L 3309 0 
L 1241 3903 
L 1241 0 
L 628 0 
L 628 4666 
z
" transform="scale(0.015625)"/>
      <path id="DejaVuSans-2d" d="M 313 2009 
L 1997 2009 
L 1997 1497 
L 313 1497 
L 313 2009 
z
" transform="scale(0.015625)"/>
      <path id="DejaVuSans-73" d="M 2834 3397 
L 2834 2853 
Q 2591 2978 2328 3040 
Q 2066 3103 1784 3103 
Q 1356 3103 1142 2972 
Q 928 2841 928 2578 
Q 928 2378 1081 2264 
Q 1234 2150 1697 2047 
L 1894 2003 
Q 2506 1872 2764 1633 
Q 3022 1394 3022 966 
Q 3022 478 2636 193 
Q 2250 -91 1575 -91 
Q 1294 -91 989 -36 
Q 684 19 347 128 
L 347 722 
Q 666 556 975 473 
Q 1284 391 1588 391 
Q 1994 391 2212 530 
Q 2431 669 2431 922 
Q 2431 1156 2273 1281 
Q 2116 1406 1581 1522 
L 1381 1569 
Q 847 1681 609 1914 
Q 372 2147 372 2553 
Q 372 3047 722 3315 
Q 1072 3584 1716 3584 
Q 2034 3584 2315 3537 
Q 2597 3491 2834 3397 
z
" transform="scale(0.015625)"/>
      <path id="DejaVuSans-67" d="M 2906 1791 
Q 2906 2416 2648 2759 
Q 2391 3103 1925 3103 
Q 1463 3103 1205 2759 
Q 947 2416 947 1791 
Q 947 1169 1205 825 
Q 1463 481 1925 481 
Q 2391 481 2648 825 
Q 2906 1169 2906 1791 
z
M 3481 434 
Q 3481 -459 3084 -895 
Q 2688 -1331 1869 -1331 
Q 1566 -1331 1297 -1286 
Q 1028 -1241 775 -1147 
L 775 -588 
Q 1028 -725 1275 -790 
Q 1522 -856 1778 -856 
Q 2344 -856 2625 -561 
Q 2906 -266 2906 331 
L 2906 616 
Q 2728 306 2450 153 
Q 2172 0 1784 0 
Q 1141 0 747 490 
Q 353 981 353 1791 
Q 353 2603 747 3093 
Q 1141 3584 1784 3584 
Q 2172 3584 2450 3431 
Q 2728 3278 2906 2969 
L 2906 3500 
L 3481 3500 
L 3481 434 
z
" transform="scale(0.015625)"/>
      <path id="DejaVuSans-79" d="M 2059 -325 
Q 1816 -950 1584 -1140 
Q 1353 -1331 966 -1331 
L 506 -1331 
L 506 -850 
L 844 -850 
Q 1081 -850 1212 -737 
Q 1344 -625 1503 -206 
L 1606 56 
L 191 3500 
L 800 3500 
L 1894 763 
L 2988 3500 
L 3597 3500 
L 2059 -325 
z
" transform="scale(0.015625)"/>
      <path id="DejaVuSans-34" d="M 2419 4116 
L 825 1625 
L 2419 1625 
L 2419 4116 
z
M 2253 4666 
L 3047 4666 
L 3047 1625 
L 3713 1625 
L 3713 1100 
L 3047 1100 
L 3047 0 
L 2419 0 
L 2419 1100 
L 313 1100 
L 313 1709 
L 2253 4666 
z
" transform="scale(0.015625)"/>
     </defs>
     <use xlink:href="#DejaVuSans-50"/>
     <use xlink:href="#DejaVuSans-65" x="56.677734"/>
     <use xlink:href="#DejaVuSans-72" x="118.201172"/>
     <use xlink:href="#DejaVuSans-66" x="159.314453"/>
     <use xlink:href="#DejaVuSans-6f" x="194.519531"/>
     <use xlink:href="#DejaVuSans-72" x="255.701172"/>
     <use xlink:href="#DejaVuSans-6d" x="295.064453"/>
     <use xlink:href="#DejaVuSans-61" x="392.476562"/>
     <use xlink:href="#DejaVuSans-6e" x="453.755859"/>
     <use xlink:href="#DejaVuSans-63" x="517.134766"/>
     <use xlink:href="#DejaVuSans-65" x="572.115234"/>
     <use xlink:href="#DejaVuSans-20" x="633.638672"/>
     <use xlink:href="#DejaVuSans-6f" x="665.425781"/>
     <use xlink:href="#DejaVuSans-66" x="726.607422"/>
     <use xlink:href="#DejaVuSans-20" x="761.8125"/>
     <use xlink:href="#DejaVuSans-41" x="793.599609"/>
     <use xlink:href="#DejaVuSans-56" x="855.632812"/>
     <use xlink:href="#DejaVuSans-41" x="917.666016"/>
     <use xlink:href="#DejaVuSans-4e" x="986.074219"/>
     <use xlink:href="#DejaVuSans-2d" x="1060.878906"/>
     <use xlink:href="#DejaVuSans-73" x="1096.962891"/>
     <use xlink:href="#DejaVuSans-74" x="1149.0625"/>
     <use xlink:href="#DejaVuSans-72" x="1188.271484"/>
     <use xlink:href="#DejaVuSans-61" x="1229.384766"/>
     <use xlink:href="#DejaVuSans-74" x="1290.664062"/>
     <use xlink:href="#DejaVuSans-65" x="1329.873047"/>
     <use xlink:href="#DejaVuSans-67" x="1391.396484"/>
     <use xlink:href="#DejaVuSans-79" x="1454.873047"/>
     <use xlink:href="#DejaVuSans-20" x="1514.052734"/>
     <use xlink:href="#DejaVuSans-79" x="1545.839844"/>
     <use xlink:href="#DejaVuSans-65" x="1605.019531"/>
     <use xlink:href="#DejaVuSans-61" x="1666.542969"/>
     <use xlink:href="#DejaVuSans-72" x="1727.822266"/>
     <use xlink:href="#DejaVuSans-20" x="1768.935547"/>
     <use xlink:href="#DejaVuSans-32" x="1800.722656"/>
     <use xlink:href="#DejaVuSans-30" x="1864.345703"/>
     <use xlink:href="#DejaVuSans-31" x="1927.96875"/>
     <use xlink:href="#DejaVuSans-34" x="1991.591797"/>
    </g>
   </g>
   <g id="legend_1">
    <g id="patch_7">
     <path d="M 63 78.914375 
L 185.471875 78.914375 
Q 187.471875 78.914375 187.471875 76.914375 
L 187.471875 33.88 
Q 187.471875 31.88 185.471875 31.88 
L 63 31.88 
Q 61 31.88 61 33.88 
L 61 76.914375 
Q 61 78.914375 63 78.914375 
z
" style="fill: #ffffff; opacity: 0.8; stroke: #cccccc; stroke-linejoin: miter"/>
    </g>
    <g id="line2d_19">
     <path d="M 65 39.978438 
L 75 39.978438 
L 85 39.978438 
" style="fill: none; stroke: #008000; stroke-width: 1.5; stroke-linecap: square"/>
    </g>
    <g id="text_11">
     <!-- 10.2% return omx -->
     <g transform="translate(93 43.478438)scale(0.1 -0.1)">
      <defs>
       <path id="DejaVuSans-78" d="M 3513 3500 
L 2247 1797 
L 3578 0 
L 2900 0 
L 1881 1375 
L 863 0 
L 184 0 
L 1544 1831 
L 300 3500 
L 978 3500 
L 1906 2253 
L 2834 3500 
L 3513 3500 
z
" transform="scale(0.015625)"/>
      </defs>
      <use xlink:href="#DejaVuSans-31"/>
      <use xlink:href="#DejaVuSans-30" x="63.623047"/>
      <use xlink:href="#DejaVuSans-2e" x="127.246094"/>
      <use xlink:href="#DejaVuSans-32" x="159.033203"/>
      <use xlink:href="#DejaVuSans-25" x="222.65625"/>
      <use xlink:href="#DejaVuSans-20" x="317.675781"/>
      <use xlink:href="#DejaVuSans-72" x="349.462891"/>
      <use xlink:href="#DejaVuSans-65" x="388.326172"/>
      <use xlink:href="#DejaVuSans-74" x="449.849609"/>
      <use xlink:href="#DejaVuSans-75" x="489.058594"/>
      <use xlink:href="#DejaVuSans-72" x="552.4375"/>
      <use xlink:href="#DejaVuSans-6e" x="591.800781"/>
      <use xlink:href="#DejaVuSans-20" x="655.179688"/>
      <use xlink:href="#DejaVuSans-6f" x="686.966797"/>
      <use xlink:href="#DejaVuSans-6d" x="748.148438"/>
      <use xlink:href="#DejaVuSans-78" x="845.560547"/>
     </g>
    </g>
    <g id="line2d_20">
     <path d="M 65 54.656563 
L 75 54.656563 
L 85 54.656563 
" style="fill: none; stroke: #0000ff; stroke-width: 1.5; stroke-linecap: square"/>
    </g>
    <g id="text_12">
     <!-- 8.2% return AVAN -->
     <g transform="translate(93 58.156563)scale(0.1 -0.1)">
      <defs>
       <path id="DejaVuSans-38" d="M 2034 2216 
Q 1584 2216 1326 1975 
Q 1069 1734 1069 1313 
Q 1069 891 1326 650 
Q 1584 409 2034 409 
Q 2484 409 2743 651 
Q 3003 894 3003 1313 
Q 3003 1734 2745 1975 
Q 2488 2216 2034 2216 
z
M 1403 2484 
Q 997 2584 770 2862 
Q 544 3141 544 3541 
Q 544 4100 942 4425 
Q 1341 4750 2034 4750 
Q 2731 4750 3128 4425 
Q 3525 4100 3525 3541 
Q 3525 3141 3298 2862 
Q 3072 2584 2669 2484 
Q 3125 2378 3379 2068 
Q 3634 1759 3634 1313 
Q 3634 634 3220 271 
Q 2806 -91 2034 -91 
Q 1263 -91 848 271 
Q 434 634 434 1313 
Q 434 1759 690 2068 
Q 947 2378 1403 2484 
z
M 1172 3481 
Q 1172 3119 1398 2916 
Q 1625 2713 2034 2713 
Q 2441 2713 2670 2916 
Q 2900 3119 2900 3481 
Q 2900 3844 2670 4047 
Q 2441 4250 2034 4250 
Q 1625 4250 1398 4047 
Q 1172 3844 1172 3481 
z
" transform="scale(0.015625)"/>
      </defs>
      <use xlink:href="#DejaVuSans-38"/>
      <use xlink:href="#DejaVuSans-2e" x="63.623047"/>
      <use xlink:href="#DejaVuSans-32" x="95.410156"/>
      <use xlink:href="#DejaVuSans-25" x="159.033203"/>
      <use xlink:href="#DejaVuSans-20" x="254.052734"/>
      <use xlink:href="#DejaVuSans-72" x="285.839844"/>
      <use xlink:href="#DejaVuSans-65" x="324.703125"/>
      <use xlink:href="#DejaVuSans-74" x="386.226562"/>
      <use xlink:href="#DejaVuSans-75" x="425.435547"/>
      <use xlink:href="#DejaVuSans-72" x="488.814453"/>
      <use xlink:href="#DejaVuSans-6e" x="528.177734"/>
      <use xlink:href="#DejaVuSans-20" x="591.556641"/>
      <use xlink:href="#DejaVuSans-41" x="623.34375"/>
      <use xlink:href="#DejaVuSans-56" x="685.376953"/>
      <use xlink:href="#DejaVuSans-41" x="747.410156"/>
      <use xlink:href="#DejaVuSans-4e" x="815.818359"/>
     </g>
    </g>
    <g id="line2d_21">
     <path d="M 65 69.334688 
L 75 69.334688 
L 85 69.334688 
" style="fill: none; stroke: #ff0000; stroke-width: 1.5; stroke-linecap: square"/>
    </g>
    <g id="text_13">
     <!-- cummax -->
     <g transform="translate(93 72.834688)scale(0.1 -0.1)">
      <use xlink:href="#DejaVuSans-63"/>
      <use xlink:href="#DejaVuSans-75" x="54.980469"/>
      <use xlink:href="#DejaVuSans-6d" x="118.359375"/>
      <use xlink:href="#DejaVuSans-6d" x="215.771484"/>
      <use xlink:href="#DejaVuSans-61" x="313.183594"/>
      <use xlink:href="#DejaVuSans-78" x="374.462891"/>
     </g>
    </g>
   </g>
  </g>
  <g id="axes_2">
   <g id="patch_8">
    <path d="M 56 390.04 
L 554.543776 390.04 
L 554.543776 302.955909 
L 56 302.955909 
z
" style="fill: #ffffff"/>
   </g>
   <g id="matplotlib.axis_3">
    <g id="xtick_8">
     <g id="line2d_22">
      <g>
       <use xlink:href="#md9d7d6f7f0" x="81.193045" y="390.04" style="stroke: #000000; stroke-width: 0.8"/>
      </g>
     </g>
     <g id="text_14">
      <!-- 2014-01 -->
      <g transform="translate(60.301639 404.638438)scale(0.1 -0.1)">
       <use xlink:href="#DejaVuSans-32"/>
       <use xlink:href="#DejaVuSans-30" x="63.623047"/>
       <use xlink:href="#DejaVuSans-31" x="127.246094"/>
       <use xlink:href="#DejaVuSans-34" x="190.869141"/>
       <use xlink:href="#DejaVuSans-2d" x="254.492188"/>
       <use xlink:href="#DejaVuSans-30" x="290.576172"/>
       <use xlink:href="#DejaVuSans-31" x="354.199219"/>
      </g>
     </g>
    </g>
    <g id="xtick_9">
     <g id="line2d_23">
      <g>
       <use xlink:href="#md9d7d6f7f0" x="155.885993" y="390.04" style="stroke: #000000; stroke-width: 0.8"/>
      </g>
     </g>
     <g id="text_15">
      <!-- 2014-03 -->
      <g transform="translate(134.994586 404.638438)scale(0.1 -0.1)">
       <defs>
        <path id="DejaVuSans-33" d="M 2597 2516 
Q 3050 2419 3304 2112 
Q 3559 1806 3559 1356 
Q 3559 666 3084 287 
Q 2609 -91 1734 -91 
Q 1441 -91 1130 -33 
Q 819 25 488 141 
L 488 750 
Q 750 597 1062 519 
Q 1375 441 1716 441 
Q 2309 441 2620 675 
Q 2931 909 2931 1356 
Q 2931 1769 2642 2001 
Q 2353 2234 1838 2234 
L 1294 2234 
L 1294 2753 
L 1863 2753 
Q 2328 2753 2575 2939 
Q 2822 3125 2822 3475 
Q 2822 3834 2567 4026 
Q 2313 4219 1838 4219 
Q 1578 4219 1281 4162 
Q 984 4106 628 3988 
L 628 4550 
Q 988 4650 1302 4700 
Q 1616 4750 1894 4750 
Q 2613 4750 3031 4423 
Q 3450 4097 3450 3541 
Q 3450 3153 3228 2886 
Q 3006 2619 2597 2516 
z
" transform="scale(0.015625)"/>
       </defs>
       <use xlink:href="#DejaVuSans-32"/>
       <use xlink:href="#DejaVuSans-30" x="63.623047"/>
       <use xlink:href="#DejaVuSans-31" x="127.246094"/>
       <use xlink:href="#DejaVuSans-34" x="190.869141"/>
       <use xlink:href="#DejaVuSans-2d" x="254.492188"/>
       <use xlink:href="#DejaVuSans-30" x="290.576172"/>
       <use xlink:href="#DejaVuSans-33" x="354.199219"/>
      </g>
     </g>
    </g>
    <g id="xtick_10">
     <g id="line2d_24">
      <g>
       <use xlink:href="#md9d7d6f7f0" x="233.110905" y="390.04" style="stroke: #000000; stroke-width: 0.8"/>
      </g>
     </g>
     <g id="text_16">
      <!-- 2014-05 -->
      <g transform="translate(212.219498 404.638438)scale(0.1 -0.1)">
       <use xlink:href="#DejaVuSans-32"/>
       <use xlink:href="#DejaVuSans-30" x="63.623047"/>
       <use xlink:href="#DejaVuSans-31" x="127.246094"/>
       <use xlink:href="#DejaVuSans-34" x="190.869141"/>
       <use xlink:href="#DejaVuSans-2d" x="254.492188"/>
       <use xlink:href="#DejaVuSans-30" x="290.576172"/>
       <use xlink:href="#DejaVuSans-35" x="354.199219"/>
      </g>
     </g>
    </g>
    <g id="xtick_11">
     <g id="line2d_25">
      <g>
       <use xlink:href="#md9d7d6f7f0" x="310.335817" y="390.04" style="stroke: #000000; stroke-width: 0.8"/>
      </g>
     </g>
     <g id="text_17">
      <!-- 2014-07 -->
      <g transform="translate(289.44441 404.638438)scale(0.1 -0.1)">
       <use xlink:href="#DejaVuSans-32"/>
       <use xlink:href="#DejaVuSans-30" x="63.623047"/>
       <use xlink:href="#DejaVuSans-31" x="127.246094"/>
       <use xlink:href="#DejaVuSans-34" x="190.869141"/>
       <use xlink:href="#DejaVuSans-2d" x="254.492188"/>
       <use xlink:href="#DejaVuSans-30" x="290.576172"/>
       <use xlink:href="#DejaVuSans-37" x="354.199219"/>
      </g>
     </g>
    </g>
    <g id="xtick_12">
     <g id="line2d_26">
      <g>
       <use xlink:href="#md9d7d6f7f0" x="388.826711" y="390.04" style="stroke: #000000; stroke-width: 0.8"/>
      </g>
     </g>
     <g id="text_18">
      <!-- 2014-09 -->
      <g transform="translate(367.935305 404.638438)scale(0.1 -0.1)">
       <defs>
        <path id="DejaVuSans-39" d="M 703 97 
L 703 672 
Q 941 559 1184 500 
Q 1428 441 1663 441 
Q 2288 441 2617 861 
Q 2947 1281 2994 2138 
Q 2813 1869 2534 1725 
Q 2256 1581 1919 1581 
Q 1219 1581 811 2004 
Q 403 2428 403 3163 
Q 403 3881 828 4315 
Q 1253 4750 1959 4750 
Q 2769 4750 3195 4129 
Q 3622 3509 3622 2328 
Q 3622 1225 3098 567 
Q 2575 -91 1691 -91 
Q 1453 -91 1209 -44 
Q 966 3 703 97 
z
M 1959 2075 
Q 2384 2075 2632 2365 
Q 2881 2656 2881 3163 
Q 2881 3666 2632 3958 
Q 2384 4250 1959 4250 
Q 1534 4250 1286 3958 
Q 1038 3666 1038 3163 
Q 1038 2656 1286 2365 
Q 1534 2075 1959 2075 
z
" transform="scale(0.015625)"/>
       </defs>
       <use xlink:href="#DejaVuSans-32"/>
       <use xlink:href="#DejaVuSans-30" x="63.623047"/>
       <use xlink:href="#DejaVuSans-31" x="127.246094"/>
       <use xlink:href="#DejaVuSans-34" x="190.869141"/>
       <use xlink:href="#DejaVuSans-2d" x="254.492188"/>
       <use xlink:href="#DejaVuSans-30" x="290.576172"/>
       <use xlink:href="#DejaVuSans-39" x="354.199219"/>
      </g>
     </g>
    </g>
    <g id="xtick_13">
     <g id="line2d_27">
      <g>
       <use xlink:href="#md9d7d6f7f0" x="466.051623" y="390.04" style="stroke: #000000; stroke-width: 0.8"/>
      </g>
     </g>
     <g id="text_19">
      <!-- 2014-11 -->
      <g transform="translate(445.160217 404.638438)scale(0.1 -0.1)">
       <use xlink:href="#DejaVuSans-32"/>
       <use xlink:href="#DejaVuSans-30" x="63.623047"/>
       <use xlink:href="#DejaVuSans-31" x="127.246094"/>
       <use xlink:href="#DejaVuSans-34" x="190.869141"/>
       <use xlink:href="#DejaVuSans-2d" x="254.492188"/>
       <use xlink:href="#DejaVuSans-31" x="290.576172"/>
       <use xlink:href="#DejaVuSans-31" x="354.199219"/>
      </g>
     </g>
    </g>
    <g id="xtick_14">
     <g id="line2d_28">
      <g>
       <use xlink:href="#md9d7d6f7f0" x="543.276535" y="390.04" style="stroke: #000000; stroke-width: 0.8"/>
      </g>
     </g>
     <g id="text_20">
      <!-- 2015-01 -->
      <g transform="translate(522.385129 404.638438)scale(0.1 -0.1)">
       <use xlink:href="#DejaVuSans-32"/>
       <use xlink:href="#DejaVuSans-30" x="63.623047"/>
       <use xlink:href="#DejaVuSans-31" x="127.246094"/>
       <use xlink:href="#DejaVuSans-35" x="190.869141"/>
       <use xlink:href="#DejaVuSans-2d" x="254.492188"/>
       <use xlink:href="#DejaVuSans-30" x="290.576172"/>
       <use xlink:href="#DejaVuSans-31" x="354.199219"/>
      </g>
     </g>
    </g>
    <g id="text_21">
     <!-- Time -->
     <g transform="translate(293.038294 418.316562)scale(0.1 -0.1)">
      <defs>
       <path id="DejaVuSans-54" d="M -19 4666 
L 3928 4666 
L 3928 4134 
L 2272 4134 
L 2272 0 
L 1638 0 
L 1638 4134 
L -19 4134 
L -19 4666 
z
" transform="scale(0.015625)"/>
       <path id="DejaVuSans-69" d="M 603 3500 
L 1178 3500 
L 1178 0 
L 603 0 
L 603 3500 
z
M 603 4863 
L 1178 4863 
L 1178 4134 
L 603 4134 
L 603 4863 
z
" transform="scale(0.015625)"/>
      </defs>
      <use xlink:href="#DejaVuSans-54"/>
      <use xlink:href="#DejaVuSans-69" x="57.958984"/>
      <use xlink:href="#DejaVuSans-6d" x="85.742188"/>
      <use xlink:href="#DejaVuSans-65" x="183.154297"/>
     </g>
    </g>
   </g>
   <g id="matplotlib.axis_4">
    <g id="ytick_9">
     <g id="line2d_29">
      <g>
       <use xlink:href="#m8cec01dce4" x="56" y="375.388222" style="stroke: #000000; stroke-width: 0.8"/>
      </g>
     </g>
     <g id="text_22">
      <!-- −10 -->
      <g transform="translate(27.895312 379.187441)scale(0.1 -0.1)">
       <use xlink:href="#DejaVuSans-2212"/>
       <use xlink:href="#DejaVuSans-31" x="83.789062"/>
       <use xlink:href="#DejaVuSans-30" x="147.412109"/>
      </g>
     </g>
    </g>
    <g id="ytick_10">
     <g id="line2d_30">
      <g>
       <use xlink:href="#m8cec01dce4" x="56" y="341.151249" style="stroke: #000000; stroke-width: 0.8"/>
      </g>
     </g>
     <g id="text_23">
      <!-- −5 -->
      <g transform="translate(34.257812 344.950468)scale(0.1 -0.1)">
       <use xlink:href="#DejaVuSans-2212"/>
       <use xlink:href="#DejaVuSans-35" x="83.789062"/>
      </g>
     </g>
    </g>
    <g id="ytick_11">
     <g id="line2d_31">
      <g>
       <use xlink:href="#m8cec01dce4" x="56" y="306.914277" style="stroke: #000000; stroke-width: 0.8"/>
      </g>
     </g>
     <g id="text_24">
      <!-- 0 -->
      <g transform="translate(42.6375 310.713496)scale(0.1 -0.1)">
       <use xlink:href="#DejaVuSans-30"/>
      </g>
     </g>
    </g>
    <g id="text_25">
     <!-- DD % -->
     <g transform="translate(21.815625 360.537798)rotate(-90)scale(0.1 -0.1)">
      <defs>
       <path id="DejaVuSans-44" d="M 1259 4147 
L 1259 519 
L 2022 519 
Q 2988 519 3436 956 
Q 3884 1394 3884 2338 
Q 3884 3275 3436 3711 
Q 2988 4147 2022 4147 
L 1259 4147 
z
M 628 4666 
L 1925 4666 
Q 3281 4666 3915 4102 
Q 4550 3538 4550 2338 
Q 4550 1131 3912 565 
Q 3275 0 1925 0 
L 628 0 
L 628 4666 
z
" transform="scale(0.015625)"/>
      </defs>
      <use xlink:href="#DejaVuSans-44"/>
      <use xlink:href="#DejaVuSans-44" x="77.001953"/>
      <use xlink:href="#DejaVuSans-20" x="154.003906"/>
      <use xlink:href="#DejaVuSans-25" x="185.791016"/>
     </g>
    </g>
   </g>
   <g id="line2d_32">
    <path d="M 78.661081 306.914277 
L 82.459027 306.914277 
L 83.725009 308.292743 
L 88.788938 306.914277 
L 91.320902 306.914277 
L 92.586885 310.606223 
L 96.384831 306.914277 
L 97.650813 312.184467 
L 98.916795 308.591853 
L 100.182778 306.914277 
L 101.44876 306.914277 
L 105.246706 307.603708 
L 106.512688 307.15031 
L 107.77867 306.914277 
L 109.044653 306.914277 
L 110.310635 314.098574 
L 114.108581 329.372554 
L 115.374563 331.340686 
L 116.640546 325.77681 
L 117.906528 336.496468 
L 119.17251 333.638044 
L 122.970456 330.534701 
L 131.832332 330.534701 
L 133.098314 321.988153 
L 134.364296 318.659797 
L 135.630278 320.501662 
L 136.89626 315.650949 
L 140.694207 310.810235 
L 141.960189 306.914277 
L 143.226171 310.312368 
L 145.758135 306.914277 
L 149.556082 306.914277 
L 150.822064 309.424441 
L 152.088046 308.214318 
L 153.354028 309.232327 
L 154.620011 310.959603 
L 158.417957 323.145391 
L 159.683939 334.881751 
L 160.949921 318.279478 
L 162.215904 319.597808 
L 163.481886 316.977303 
L 167.279832 317.158922 
L 168.545814 317.929296 
L 169.811797 318.485088 
L 178.673672 318.485088 
L 179.939654 317.988022 
L 181.205636 320.973806 
L 185.003582 317.521688 
L 190.067511 317.521688 
L 193.865458 314.349144 
L 195.13144 306.914277 
L 197.663404 306.914277 
L 198.929386 308.724038 
L 202.727333 308.445047 
L 203.993315 311.334301 
L 205.259297 313.231515 
L 206.525279 306.914277 
L 207.791261 316.511947 
L 211.589208 319.522847 
L 212.85519 322.34205 
L 222.983047 322.34205 
L 224.24903 325.235667 
L 225.515012 321.770821 
L 229.312958 315.700503 
L 230.57894 314.427719 
L 231.844923 307.050666 
L 234.376887 306.914277 
L 238.174833 307.603066 
L 239.440816 313.494692 
L 240.706798 313.483003 
L 241.97278 312.752532 
L 243.238762 309.372345 
L 247.036708 310.50503 
L 248.302691 306.914277 
L 249.568673 309.376838 
L 250.834655 311.228357 
L 252.100637 310.952302 
L 255.898584 319.548474 
L 257.164566 320.629955 
L 258.430548 317.745354 
L 259.69653 313.497586 
L 260.962512 314.15398 
L 264.760459 311.738941 
L 266.026441 311.588048 
L 267.292423 308.0466 
L 269.824387 308.886699 
L 273.622334 306.914277 
L 274.888316 306.914277 
L 276.154298 312.052354 
L 277.42028 310.119477 
L 282.484209 310.627654 
L 285.016173 306.914277 
L 286.282156 310.222096 
L 287.548138 311.026656 
L 291.346084 316.611458 
L 309.069835 316.611458 
L 310.335817 319.054119 
L 311.601799 314.563362 
L 312.867781 306.914277 
L 314.133763 306.914277 
L 317.93171 307.481661 
L 319.197692 306.914277 
L 320.463674 313.302912 
L 321.729656 315.986014 
L 322.995638 325.739492 
L 326.793585 326.877912 
L 328.059567 319.996742 
L 329.325549 321.872475 
L 330.591531 321.396757 
L 331.857513 328.679919 
L 335.65546 332.318313 
L 336.921442 335.327724 
L 338.187424 336.917198 
L 339.453406 339.028416 
L 340.719389 333.761422 
L 344.517335 337.338661 
L 345.783317 339.74381 
L 347.049299 343.632167 
L 348.315282 341.163995 
L 349.581264 351.27969 
L 353.37921 358.024182 
L 354.645192 358.024182 
L 355.911175 358.97915 
L 357.177157 369.185751 
L 376.166889 369.185751 
L 379.964836 366.303972 
L 381.230818 367.115439 
L 382.4968 365.615292 
L 383.762782 361.622632 
L 385.028764 367.471471 
L 388.826711 365.037913 
L 390.092693 365.145109 
L 391.358675 367.724753 
L 392.624657 365.308127 
L 393.890639 363.739826 
L 397.688586 365.105291 
L 398.954568 366.342178 
L 400.22055 365.793874 
L 401.486532 374.019827 
L 424.274211 374.019827 
L 425.540194 378.9527 
L 426.806176 379.392703 
L 428.072158 386.081632 
L 454.657783 386.081632 
L 455.923765 375.576867 
L 459.721712 374.10591 
L 460.987694 372.899429 
L 462.253676 360.68782 
L 463.519658 360.507437 
L 464.785641 356.138469 
L 468.583587 351.927111 
L 469.849569 356.400141 
L 471.115551 351.119424 
L 472.381534 353.887483 
L 473.647516 352.034905 
L 477.445462 349.484741 
L 478.711444 348.958191 
L 479.977427 346.881753 
L 481.243409 342.708536 
L 482.509391 337.424323 
L 486.307337 342.096815 
L 487.57332 342.980799 
L 488.839302 344.565533 
L 490.105284 344.583266 
L 491.371266 347.508081 
L 495.169213 341.346179 
L 496.435195 336.92566 
L 497.701177 331.641798 
L 498.967159 337.793071 
L 500.233141 335.723417 
L 504.031088 335.28297 
L 530.616713 335.28297 
L 531.882695 334.088859 
L 531.882695 334.088859 
" clip-path="url(#p5e31f593dd)" style="fill: none; stroke: #0000ff; stroke-width: 1.5; stroke-linecap: square"/>
   </g>
   <g id="patch_9">
    <path d="M 56 390.04 
L 56 302.955909 
" style="fill: none; stroke: #000000; stroke-width: 0.8; stroke-linejoin: miter; stroke-linecap: square"/>
   </g>
   <g id="patch_10">
    <path d="M 554.543776 390.04 
L 554.543776 302.955909 
" style="fill: none; stroke: #000000; stroke-width: 0.8; stroke-linejoin: miter; stroke-linecap: square"/>
   </g>
   <g id="patch_11">
    <path d="M 56 390.04 
L 554.543776 390.04 
" style="fill: none; stroke: #000000; stroke-width: 0.8; stroke-linejoin: miter; stroke-linecap: square"/>
   </g>
   <g id="patch_12">
    <path d="M 56 302.955909 
L 554.543776 302.955909 
" style="fill: none; stroke: #000000; stroke-width: 0.8; stroke-linejoin: miter; stroke-linecap: square"/>
   </g>
  </g>
 </g>
 <defs>
  <clipPath id="pb2ab2aa09a">
   <rect x="56" y="26.88" width="498.543776" height="261.252273"/>
  </clipPath>
  <clipPath id="p5e31f593dd">
   <rect x="56" y="302.955909" width="498.543776" height="87.084091"/>
  </clipPath>
 </defs>
</svg>
