<?xml version="1.0" encoding="utf-8" standalone="no"?>
<!DOCTYPE svg PUBLIC "-//W3C//DTD SVG 1.1//EN"
  "http://www.w3.org/Graphics/SVG/1.1/DTD/svg11.dtd">
<svg xmlns:xlink="http://www.w3.org/1999/xlink" width="720pt" height="504pt" viewBox="0 0 720 504" xmlns="http://www.w3.org/2000/svg" version="1.1">
 <metadata>
  <rdf:RDF xmlns:dc="http://purl.org/dc/elements/1.1/" xmlns:cc="http://creativecommons.org/ns#" xmlns:rdf="http://www.w3.org/1999/02/22-rdf-syntax-ns#">
   <cc:Work>
    <dc:type rdf:resource="http://purl.org/dc/dcmitype/StillImage"/>
    <dc:date>2023-01-01T22:56:33.764425</dc:date>
    <dc:format>image/svg+xml</dc:format>
    <dc:creator>
     <cc:Agent>
      <dc:title>Matplotlib v3.5.0, https://matplotlib.org/</dc:title>
     </cc:Agent>
    </dc:creator>
   </cc:Work>
  </rdf:RDF>
 </metadata>
 <defs>
  <style type="text/css">*{stroke-linejoin: round; stroke-linecap: butt}</style>
 </defs>
 <g id="figure_1">
  <g id="patch_1">
   <path d="M 0 504 
L 720 504 
L 720 0 
L 0 0 
z
" style="fill: #ffffff"/>
  </g>
  <g id="axes_1">
   <g id="patch_2">
    <path d="M 90 448.56 
L 648 448.56 
L 648 60.48 
L 90 60.48 
z
" style="fill: #ffffff"/>
   </g>
   <g id="matplotlib.axis_1">
    <g id="xtick_1">
     <g id="line2d_1">
      <defs>
       <path id="me3cd111dfc" d="M 0 0 
L 0 3.5 
" style="stroke: #000000; stroke-width: 0.8"/>
      </defs>
      <g>
       <use xlink:href="#me3cd111dfc" x="113.893281" y="448.56" style="stroke: #000000; stroke-width: 0.8"/>
      </g>
     </g>
     <g id="text_1">
      <!-- 2008-01 -->
      <g transform="translate(93.001874 463.158437)scale(0.1 -0.1)">
       <defs>
        <path id="DejaVuSans-32" d="M 1228 531 
L 3431 531 
L 3431 0 
L 469 0 
L 469 531 
Q 828 903 1448 1529 
Q 2069 2156 2228 2338 
Q 2531 2678 2651 2914 
Q 2772 3150 2772 3378 
Q 2772 3750 2511 3984 
Q 2250 4219 1831 4219 
Q 1534 4219 1204 4116 
Q 875 4013 500 3803 
L 500 4441 
Q 881 4594 1212 4672 
Q 1544 4750 1819 4750 
Q 2544 4750 2975 4387 
Q 3406 4025 3406 3419 
Q 3406 3131 3298 2873 
Q 3191 2616 2906 2266 
Q 2828 2175 2409 1742 
Q 1991 1309 1228 531 
z
" transform="scale(0.015625)"/>
        <path id="DejaVuSans-30" d="M 2034 4250 
Q 1547 4250 1301 3770 
Q 1056 3291 1056 2328 
Q 1056 1369 1301 889 
Q 1547 409 2034 409 
Q 2525 409 2770 889 
Q 3016 1369 3016 2328 
Q 3016 3291 2770 3770 
Q 2525 4250 2034 4250 
z
M 2034 4750 
Q 2819 4750 3233 4129 
Q 3647 3509 3647 2328 
Q 3647 1150 3233 529 
Q 2819 -91 2034 -91 
Q 1250 -91 836 529 
Q 422 1150 422 2328 
Q 422 3509 836 4129 
Q 1250 4750 2034 4750 
z
" transform="scale(0.015625)"/>
        <path id="DejaVuSans-38" d="M 2034 2216 
Q 1584 2216 1326 1975 
Q 1069 1734 1069 1313 
Q 1069 891 1326 650 
Q 1584 409 2034 409 
Q 2484 409 2743 651 
Q 3003 894 3003 1313 
Q 3003 1734 2745 1975 
Q 2488 2216 2034 2216 
z
M 1403 2484 
Q 997 2584 770 2862 
Q 544 3141 544 3541 
Q 544 4100 942 4425 
Q 1341 4750 2034 4750 
Q 2731 4750 3128 4425 
Q 3525 4100 3525 3541 
Q 3525 3141 3298 2862 
Q 3072 2584 2669 2484 
Q 3125 2378 3379 2068 
Q 3634 1759 3634 1313 
Q 3634 634 3220 271 
Q 2806 -91 2034 -91 
Q 1263 -91 848 271 
Q 434 634 434 1313 
Q 434 1759 690 2068 
Q 947 2378 1403 2484 
z
M 1172 3481 
Q 1172 3119 1398 2916 
Q 1625 2713 2034 2713 
Q 2441 2713 2670 2916 
Q 2900 3119 2900 3481 
Q 2900 3844 2670 4047 
Q 2441 4250 2034 4250 
Q 1625 4250 1398 4047 
Q 1172 3844 1172 3481 
z
" transform="scale(0.015625)"/>
        <path id="DejaVuSans-2d" d="M 313 2009 
L 1997 2009 
L 1997 1497 
L 313 1497 
L 313 2009 
z
" transform="scale(0.015625)"/>
        <path id="DejaVuSans-31" d="M 794 531 
L 1825 531 
L 1825 4091 
L 703 3866 
L 703 4441 
L 1819 4666 
L 2450 4666 
L 2450 531 
L 3481 531 
L 3481 0 
L 794 0 
L 794 531 
z
" transform="scale(0.015625)"/>
       </defs>
       <use xlink:href="#DejaVuSans-32"/>
       <use xlink:href="#DejaVuSans-30" x="63.623047"/>
       <use xlink:href="#DejaVuSans-30" x="127.246094"/>
       <use xlink:href="#DejaVuSans-38" x="190.869141"/>
       <use xlink:href="#DejaVuSans-2d" x="254.492188"/>
       <use xlink:href="#DejaVuSans-30" x="290.576172"/>
       <use xlink:href="#DejaVuSans-31" x="354.199219"/>
      </g>
     </g>
    </g>
    <g id="xtick_2">
     <g id="line2d_2">
      <g>
       <use xlink:href="#me3cd111dfc" x="202.114625" y="448.56" style="stroke: #000000; stroke-width: 0.8"/>
      </g>
     </g>
     <g id="text_2">
      <!-- 2008-03 -->
      <g transform="translate(181.223218 463.158437)scale(0.1 -0.1)">
       <defs>
        <path id="DejaVuSans-33" d="M 2597 2516 
Q 3050 2419 3304 2112 
Q 3559 1806 3559 1356 
Q 3559 666 3084 287 
Q 2609 -91 1734 -91 
Q 1441 -91 1130 -33 
Q 819 25 488 141 
L 488 750 
Q 750 597 1062 519 
Q 1375 441 1716 441 
Q 2309 441 2620 675 
Q 2931 909 2931 1356 
Q 2931 1769 2642 2001 
Q 2353 2234 1838 2234 
L 1294 2234 
L 1294 2753 
L 1863 2753 
Q 2328 2753 2575 2939 
Q 2822 3125 2822 3475 
Q 2822 3834 2567 4026 
Q 2313 4219 1838 4219 
Q 1578 4219 1281 4162 
Q 984 4106 628 3988 
L 628 4550 
Q 988 4650 1302 4700 
Q 1616 4750 1894 4750 
Q 2613 4750 3031 4423 
Q 3450 4097 3450 3541 
Q 3450 3153 3228 2886 
Q 3006 2619 2597 2516 
z
" transform="scale(0.015625)"/>
       </defs>
       <use xlink:href="#DejaVuSans-32"/>
       <use xlink:href="#DejaVuSans-30" x="63.623047"/>
       <use xlink:href="#DejaVuSans-30" x="127.246094"/>
       <use xlink:href="#DejaVuSans-38" x="190.869141"/>
       <use xlink:href="#DejaVuSans-2d" x="254.492188"/>
       <use xlink:href="#DejaVuSans-30" x="290.576172"/>
       <use xlink:href="#DejaVuSans-33" x="354.199219"/>
      </g>
     </g>
    </g>
    <g id="xtick_3">
     <g id="line2d_3">
      <g>
       <use xlink:href="#me3cd111dfc" x="291.806324" y="448.56" style="stroke: #000000; stroke-width: 0.8"/>
      </g>
     </g>
     <g id="text_3">
      <!-- 2008-05 -->
      <g transform="translate(270.914918 463.158437)scale(0.1 -0.1)">
       <defs>
        <path id="DejaVuSans-35" d="M 691 4666 
L 3169 4666 
L 3169 4134 
L 1269 4134 
L 1269 2991 
Q 1406 3038 1543 3061 
Q 1681 3084 1819 3084 
Q 2600 3084 3056 2656 
Q 3513 2228 3513 1497 
Q 3513 744 3044 326 
Q 2575 -91 1722 -91 
Q 1428 -91 1123 -41 
Q 819 9 494 109 
L 494 744 
Q 775 591 1075 516 
Q 1375 441 1709 441 
Q 2250 441 2565 725 
Q 2881 1009 2881 1497 
Q 2881 1984 2565 2268 
Q 2250 2553 1709 2553 
Q 1456 2553 1204 2497 
Q 953 2441 691 2322 
L 691 4666 
z
" transform="scale(0.015625)"/>
       </defs>
       <use xlink:href="#DejaVuSans-32"/>
       <use xlink:href="#DejaVuSans-30" x="63.623047"/>
       <use xlink:href="#DejaVuSans-30" x="127.246094"/>
       <use xlink:href="#DejaVuSans-38" x="190.869141"/>
       <use xlink:href="#DejaVuSans-2d" x="254.492188"/>
       <use xlink:href="#DejaVuSans-30" x="290.576172"/>
       <use xlink:href="#DejaVuSans-35" x="354.199219"/>
      </g>
     </g>
    </g>
    <g id="xtick_4">
     <g id="line2d_4">
      <g>
       <use xlink:href="#me3cd111dfc" x="381.498024" y="448.56" style="stroke: #000000; stroke-width: 0.8"/>
      </g>
     </g>
     <g id="text_4">
      <!-- 2008-07 -->
      <g transform="translate(360.606617 463.158437)scale(0.1 -0.1)">
       <defs>
        <path id="DejaVuSans-37" d="M 525 4666 
L 3525 4666 
L 3525 4397 
L 1831 0 
L 1172 0 
L 2766 4134 
L 525 4134 
L 525 4666 
z
" transform="scale(0.015625)"/>
       </defs>
       <use xlink:href="#DejaVuSans-32"/>
       <use xlink:href="#DejaVuSans-30" x="63.623047"/>
       <use xlink:href="#DejaVuSans-30" x="127.246094"/>
       <use xlink:href="#DejaVuSans-38" x="190.869141"/>
       <use xlink:href="#DejaVuSans-2d" x="254.492188"/>
       <use xlink:href="#DejaVuSans-30" x="290.576172"/>
       <use xlink:href="#DejaVuSans-37" x="354.199219"/>
      </g>
     </g>
    </g>
    <g id="xtick_5">
     <g id="line2d_5">
      <g>
       <use xlink:href="#me3cd111dfc" x="472.660079" y="448.56" style="stroke: #000000; stroke-width: 0.8"/>
      </g>
     </g>
     <g id="text_5">
      <!-- 2008-09 -->
      <g transform="translate(451.768673 463.158437)scale(0.1 -0.1)">
       <defs>
        <path id="DejaVuSans-39" d="M 703 97 
L 703 672 
Q 941 559 1184 500 
Q 1428 441 1663 441 
Q 2288 441 2617 861 
Q 2947 1281 2994 2138 
Q 2813 1869 2534 1725 
Q 2256 1581 1919 1581 
Q 1219 1581 811 2004 
Q 403 2428 403 3163 
Q 403 3881 828 4315 
Q 1253 4750 1959 4750 
Q 2769 4750 3195 4129 
Q 3622 3509 3622 2328 
Q 3622 1225 3098 567 
Q 2575 -91 1691 -91 
Q 1453 -91 1209 -44 
Q 966 3 703 97 
z
M 1959 2075 
Q 2384 2075 2632 2365 
Q 2881 2656 2881 3163 
Q 2881 3666 2632 3958 
Q 2384 4250 1959 4250 
Q 1534 4250 1286 3958 
Q 1038 3666 1038 3163 
Q 1038 2656 1286 2365 
Q 1534 2075 1959 2075 
z
" transform="scale(0.015625)"/>
       </defs>
       <use xlink:href="#DejaVuSans-32"/>
       <use xlink:href="#DejaVuSans-30" x="63.623047"/>
       <use xlink:href="#DejaVuSans-30" x="127.246094"/>
       <use xlink:href="#DejaVuSans-38" x="190.869141"/>
       <use xlink:href="#DejaVuSans-2d" x="254.492188"/>
       <use xlink:href="#DejaVuSans-30" x="290.576172"/>
       <use xlink:href="#DejaVuSans-39" x="354.199219"/>
      </g>
     </g>
    </g>
    <g id="xtick_6">
     <g id="line2d_6">
      <g>
       <use xlink:href="#me3cd111dfc" x="562.351779" y="448.56" style="stroke: #000000; stroke-width: 0.8"/>
      </g>
     </g>
     <g id="text_6">
      <!-- 2008-11 -->
      <g transform="translate(541.460372 463.158437)scale(0.1 -0.1)">
       <use xlink:href="#DejaVuSans-32"/>
       <use xlink:href="#DejaVuSans-30" x="63.623047"/>
       <use xlink:href="#DejaVuSans-30" x="127.246094"/>
       <use xlink:href="#DejaVuSans-38" x="190.869141"/>
       <use xlink:href="#DejaVuSans-2d" x="254.492188"/>
       <use xlink:href="#DejaVuSans-31" x="290.576172"/>
       <use xlink:href="#DejaVuSans-31" x="354.199219"/>
      </g>
     </g>
    </g>
    <g id="text_7">
     <!-- Time -->
     <g transform="translate(356.766406 476.836563)scale(0.1 -0.1)">
      <defs>
       <path id="DejaVuSans-54" d="M -19 4666 
L 3928 4666 
L 3928 4134 
L 2272 4134 
L 2272 0 
L 1638 0 
L 1638 4134 
L -19 4134 
L -19 4666 
z
" transform="scale(0.015625)"/>
       <path id="DejaVuSans-69" d="M 603 3500 
L 1178 3500 
L 1178 0 
L 603 0 
L 603 3500 
z
M 603 4863 
L 1178 4863 
L 1178 4134 
L 603 4134 
L 603 4863 
z
" transform="scale(0.015625)"/>
       <path id="DejaVuSans-6d" d="M 3328 2828 
Q 3544 3216 3844 3400 
Q 4144 3584 4550 3584 
Q 5097 3584 5394 3201 
Q 5691 2819 5691 2113 
L 5691 0 
L 5113 0 
L 5113 2094 
Q 5113 2597 4934 2840 
Q 4756 3084 4391 3084 
Q 3944 3084 3684 2787 
Q 3425 2491 3425 1978 
L 3425 0 
L 2847 0 
L 2847 2094 
Q 2847 2600 2669 2842 
Q 2491 3084 2119 3084 
Q 1678 3084 1418 2786 
Q 1159 2488 1159 1978 
L 1159 0 
L 581 0 
L 581 3500 
L 1159 3500 
L 1159 2956 
Q 1356 3278 1631 3431 
Q 1906 3584 2284 3584 
Q 2666 3584 2933 3390 
Q 3200 3197 3328 2828 
z
" transform="scale(0.015625)"/>
       <path id="DejaVuSans-65" d="M 3597 1894 
L 3597 1613 
L 953 1613 
Q 991 1019 1311 708 
Q 1631 397 2203 397 
Q 2534 397 2845 478 
Q 3156 559 3463 722 
L 3463 178 
Q 3153 47 2828 -22 
Q 2503 -91 2169 -91 
Q 1331 -91 842 396 
Q 353 884 353 1716 
Q 353 2575 817 3079 
Q 1281 3584 2069 3584 
Q 2775 3584 3186 3129 
Q 3597 2675 3597 1894 
z
M 3022 2063 
Q 3016 2534 2758 2815 
Q 2500 3097 2075 3097 
Q 1594 3097 1305 2825 
Q 1016 2553 972 2059 
L 3022 2063 
z
" transform="scale(0.015625)"/>
      </defs>
      <use xlink:href="#DejaVuSans-54"/>
      <use xlink:href="#DejaVuSans-69" x="57.958984"/>
      <use xlink:href="#DejaVuSans-6d" x="85.742188"/>
      <use xlink:href="#DejaVuSans-65" x="183.154297"/>
     </g>
    </g>
   </g>
   <g id="matplotlib.axis_2">
    <g id="ytick_1">
     <g id="line2d_7">
      <defs>
       <path id="mbce6dfea5a" d="M 0 0 
L -3.5 0 
" style="stroke: #000000; stroke-width: 0.8"/>
      </defs>
      <g>
       <use xlink:href="#mbce6dfea5a" x="90" y="386.072371" style="stroke: #000000; stroke-width: 0.8"/>
      </g>
     </g>
     <g id="text_8">
      <!-- −40 -->
      <g transform="translate(61.895313 389.87159)scale(0.1 -0.1)">
       <defs>
        <path id="DejaVuSans-2212" d="M 678 2272 
L 4684 2272 
L 4684 1741 
L 678 1741 
L 678 2272 
z
" transform="scale(0.015625)"/>
        <path id="DejaVuSans-34" d="M 2419 4116 
L 825 1625 
L 2419 1625 
L 2419 4116 
z
M 2253 4666 
L 3047 4666 
L 3047 1625 
L 3713 1625 
L 3713 1100 
L 3047 1100 
L 3047 0 
L 2419 0 
L 2419 1100 
L 313 1100 
L 313 1709 
L 2253 4666 
z
" transform="scale(0.015625)"/>
       </defs>
       <use xlink:href="#DejaVuSans-2212"/>
       <use xlink:href="#DejaVuSans-34" x="83.789062"/>
       <use xlink:href="#DejaVuSans-30" x="147.412109"/>
      </g>
     </g>
    </g>
    <g id="ytick_2">
     <g id="line2d_8">
      <g>
       <use xlink:href="#mbce6dfea5a" x="90" y="315.661488" style="stroke: #000000; stroke-width: 0.8"/>
      </g>
     </g>
     <g id="text_9">
      <!-- −30 -->
      <g transform="translate(61.895313 319.460707)scale(0.1 -0.1)">
       <use xlink:href="#DejaVuSans-2212"/>
       <use xlink:href="#DejaVuSans-33" x="83.789062"/>
       <use xlink:href="#DejaVuSans-30" x="147.412109"/>
      </g>
     </g>
    </g>
    <g id="ytick_3">
     <g id="line2d_9">
      <g>
       <use xlink:href="#mbce6dfea5a" x="90" y="245.250605" style="stroke: #000000; stroke-width: 0.8"/>
      </g>
     </g>
     <g id="text_10">
      <!-- −20 -->
      <g transform="translate(61.895313 249.049824)scale(0.1 -0.1)">
       <use xlink:href="#DejaVuSans-2212"/>
       <use xlink:href="#DejaVuSans-32" x="83.789062"/>
       <use xlink:href="#DejaVuSans-30" x="147.412109"/>
      </g>
     </g>
    </g>
    <g id="ytick_4">
     <g id="line2d_10">
      <g>
       <use xlink:href="#mbce6dfea5a" x="90" y="174.839722" style="stroke: #000000; stroke-width: 0.8"/>
      </g>
     </g>
     <g id="text_11">
      <!-- −10 -->
      <g transform="translate(61.895313 178.638941)scale(0.1 -0.1)">
       <use xlink:href="#DejaVuSans-2212"/>
       <use xlink:href="#DejaVuSans-31" x="83.789062"/>
       <use xlink:href="#DejaVuSans-30" x="147.412109"/>
      </g>
     </g>
    </g>
    <g id="ytick_5">
     <g id="line2d_11">
      <g>
       <use xlink:href="#mbce6dfea5a" x="90" y="104.428839" style="stroke: #000000; stroke-width: 0.8"/>
      </g>
     </g>
     <g id="text_12">
      <!-- 0 -->
      <g transform="translate(76.6375 108.228057)scale(0.1 -0.1)">
       <use xlink:href="#DejaVuSans-30"/>
      </g>
     </g>
    </g>
    <g id="text_13">
     <!-- Return [%] -->
     <g transform="translate(55.815625 281.352813)rotate(-90)scale(0.1 -0.1)">
      <defs>
       <path id="DejaVuSans-52" d="M 2841 2188 
Q 3044 2119 3236 1894 
Q 3428 1669 3622 1275 
L 4263 0 
L 3584 0 
L 2988 1197 
Q 2756 1666 2539 1819 
Q 2322 1972 1947 1972 
L 1259 1972 
L 1259 0 
L 628 0 
L 628 4666 
L 2053 4666 
Q 2853 4666 3247 4331 
Q 3641 3997 3641 3322 
Q 3641 2881 3436 2590 
Q 3231 2300 2841 2188 
z
M 1259 4147 
L 1259 2491 
L 2053 2491 
Q 2509 2491 2742 2702 
Q 2975 2913 2975 3322 
Q 2975 3731 2742 3939 
Q 2509 4147 2053 4147 
L 1259 4147 
z
" transform="scale(0.015625)"/>
       <path id="DejaVuSans-74" d="M 1172 4494 
L 1172 3500 
L 2356 3500 
L 2356 3053 
L 1172 3053 
L 1172 1153 
Q 1172 725 1289 603 
Q 1406 481 1766 481 
L 2356 481 
L 2356 0 
L 1766 0 
Q 1100 0 847 248 
Q 594 497 594 1153 
L 594 3053 
L 172 3053 
L 172 3500 
L 594 3500 
L 594 4494 
L 1172 4494 
z
" transform="scale(0.015625)"/>
       <path id="DejaVuSans-75" d="M 544 1381 
L 544 3500 
L 1119 3500 
L 1119 1403 
Q 1119 906 1312 657 
Q 1506 409 1894 409 
Q 2359 409 2629 706 
Q 2900 1003 2900 1516 
L 2900 3500 
L 3475 3500 
L 3475 0 
L 2900 0 
L 2900 538 
Q 2691 219 2414 64 
Q 2138 -91 1772 -91 
Q 1169 -91 856 284 
Q 544 659 544 1381 
z
M 1991 3584 
L 1991 3584 
z
" transform="scale(0.015625)"/>
       <path id="DejaVuSans-72" d="M 2631 2963 
Q 2534 3019 2420 3045 
Q 2306 3072 2169 3072 
Q 1681 3072 1420 2755 
Q 1159 2438 1159 1844 
L 1159 0 
L 581 0 
L 581 3500 
L 1159 3500 
L 1159 2956 
Q 1341 3275 1631 3429 
Q 1922 3584 2338 3584 
Q 2397 3584 2469 3576 
Q 2541 3569 2628 3553 
L 2631 2963 
z
" transform="scale(0.015625)"/>
       <path id="DejaVuSans-6e" d="M 3513 2113 
L 3513 0 
L 2938 0 
L 2938 2094 
Q 2938 2591 2744 2837 
Q 2550 3084 2163 3084 
Q 1697 3084 1428 2787 
Q 1159 2491 1159 1978 
L 1159 0 
L 581 0 
L 581 3500 
L 1159 3500 
L 1159 2956 
Q 1366 3272 1645 3428 
Q 1925 3584 2291 3584 
Q 2894 3584 3203 3211 
Q 3513 2838 3513 2113 
z
" transform="scale(0.015625)"/>
       <path id="DejaVuSans-20" transform="scale(0.015625)"/>
       <path id="DejaVuSans-5b" d="M 550 4863 
L 1875 4863 
L 1875 4416 
L 1125 4416 
L 1125 -397 
L 1875 -397 
L 1875 -844 
L 550 -844 
L 550 4863 
z
" transform="scale(0.015625)"/>
       <path id="DejaVuSans-25" d="M 4653 2053 
Q 4381 2053 4226 1822 
Q 4072 1591 4072 1178 
Q 4072 772 4226 539 
Q 4381 306 4653 306 
Q 4919 306 5073 539 
Q 5228 772 5228 1178 
Q 5228 1588 5073 1820 
Q 4919 2053 4653 2053 
z
M 4653 2450 
Q 5147 2450 5437 2106 
Q 5728 1763 5728 1178 
Q 5728 594 5436 251 
Q 5144 -91 4653 -91 
Q 4153 -91 3862 251 
Q 3572 594 3572 1178 
Q 3572 1766 3864 2108 
Q 4156 2450 4653 2450 
z
M 1428 4353 
Q 1159 4353 1004 4120 
Q 850 3888 850 3481 
Q 850 3069 1003 2837 
Q 1156 2606 1428 2606 
Q 1700 2606 1854 2837 
Q 2009 3069 2009 3481 
Q 2009 3884 1853 4118 
Q 1697 4353 1428 4353 
z
M 4250 4750 
L 4750 4750 
L 1831 -91 
L 1331 -91 
L 4250 4750 
z
M 1428 4750 
Q 1922 4750 2215 4408 
Q 2509 4066 2509 3481 
Q 2509 2891 2217 2550 
Q 1925 2209 1428 2209 
Q 931 2209 642 2551 
Q 353 2894 353 3481 
Q 353 4063 643 4406 
Q 934 4750 1428 4750 
z
" transform="scale(0.015625)"/>
       <path id="DejaVuSans-5d" d="M 1947 4863 
L 1947 -844 
L 622 -844 
L 622 -397 
L 1369 -397 
L 1369 4416 
L 622 4416 
L 622 4863 
L 1947 4863 
z
" transform="scale(0.015625)"/>
      </defs>
      <use xlink:href="#DejaVuSans-52"/>
      <use xlink:href="#DejaVuSans-65" x="64.982422"/>
      <use xlink:href="#DejaVuSans-74" x="126.505859"/>
      <use xlink:href="#DejaVuSans-75" x="165.714844"/>
      <use xlink:href="#DejaVuSans-72" x="229.09375"/>
      <use xlink:href="#DejaVuSans-6e" x="268.457031"/>
      <use xlink:href="#DejaVuSans-20" x="331.835938"/>
      <use xlink:href="#DejaVuSans-5b" x="363.623047"/>
      <use xlink:href="#DejaVuSans-25" x="402.636719"/>
      <use xlink:href="#DejaVuSans-5d" x="497.65625"/>
     </g>
    </g>
   </g>
   <g id="line2d_12">
    <path d="M 115.363636 104.428839 
L 116.833992 109.591385 
L 118.304348 133.528039 
L 122.715415 135.617007 
L 124.185771 127.01498 
L 125.656126 140.806165 
L 127.126482 150.113385 
L 128.596838 151.284272 
L 133.007905 137.938823 
L 134.478261 161.78899 
L 135.948617 166.126594 
L 137.418972 165.687511 
L 138.889328 171.448807 
L 143.300395 197.980039 
L 144.770751 172.579777 
L 146.241107 195.631613 
L 147.711462 170.836752 
L 149.181818 168.747784 
L 153.592885 177.136922 
L 155.063241 171.887889 
L 156.533597 175.766452 
L 158.003953 177.163533 
L 159.474308 158.941606 
L 163.885375 158.921648 
L 165.355731 179.432127 
L 166.826087 175.300759 
L 168.296443 192.577993 
L 169.766798 195.977556 
L 174.177866 202.211198 
L 175.648221 179.578487 
L 177.118577 177.15688 
L 178.588933 175.966035 
L 180.059289 183.982619 
L 184.470356 168.455062 
L 185.940711 164.935749 
L 187.411067 173.511164 
L 188.881423 170.011809 
L 190.351779 180.430041 
L 194.762846 168.621381 
L 196.233202 156.500041 
L 197.703557 152.375326 
L 199.173913 162.500836 
L 200.644269 166.352788 
L 205.055336 173.7174 
L 206.525692 188.692777 
L 207.996047 176.358548 
L 210.936759 192.797534 
L 215.347826 200.022438 
L 216.818182 190.076553 
L 218.288538 177.995129 
L 219.758893 185.492797 
L 221.229249 193.675699 
L 227.110672 200.108924 
L 228.581028 206.036539 
L 230.051383 213.261443 
L 237.403162 188.439972 
L 238.873518 188.586333 
L 240.343874 174.53569 
L 241.814229 175.387245 
L 246.225296 175.107828 
L 247.695652 155.748278 
L 249.166008 145.316741 
L 250.636364 151.576994 
L 252.106719 156.852638 
L 256.517787 147.691778 
L 257.988142 155.841417 
L 259.458498 157.564484 
L 260.928854 163.292515 
L 262.399209 172.187264 
L 266.810277 177.58931 
L 268.280632 176.398465 
L 269.750988 157.877164 
L 271.221344 167.350703 
L 272.6917 155.60857 
L 277.102767 163.758209 
L 278.573123 168.308701 
L 280.043478 158.881731 
L 281.513834 165.221818 
L 282.98419 144.03941 
L 287.395257 139.728417 
L 288.865613 149.434803 
L 290.335968 152.534992 
L 293.27668 137.805767 
L 297.687747 137.054005 
L 299.158103 138.783724 
L 300.628458 129.922239 
L 302.098814 130.175044 
L 303.56917 140.925915 
L 307.980237 137.73924 
L 309.450593 135.370855 
L 310.920949 134.705578 
L 313.86166 127.839923 
L 318.272727 118.738939 
L 319.743083 135.530521 
L 321.213439 140.36043 
L 322.683794 131.818278 
L 324.15415 147.099682 
L 328.565217 144.884311 
L 330.035573 147.917972 
L 331.505929 141.378303 
L 332.976285 142.04358 
L 334.44664 140.00118 
L 338.857708 146.194906 
L 340.328063 144.684728 
L 341.798419 154.231448 
L 343.268775 155.8015 
L 344.73913 155.8015 
L 349.150198 171.315752 
L 350.620553 175.546911 
L 352.090909 186.597156 
L 353.561265 178.208018 
L 355.031621 178.134837 
L 359.442688 178.194712 
L 360.913043 171.934459 
L 362.383399 182.099886 
L 363.853755 187.95432 
L 369.735178 200.208716 
L 371.205534 211.30553 
L 372.675889 202.710156 
L 374.146245 222.721677 
L 375.616601 234.636782 
L 380.027668 237.963165 
L 381.498024 248.993451 
L 382.968379 243.385169 
L 384.438735 242.001394 
L 385.909091 249.75852 
L 390.320158 240.963562 
L 391.790514 252.113599 
L 393.26087 242.094533 
L 394.731225 253.976373 
L 396.201581 267.268601 
L 400.612648 258.626657 
L 402.083004 266.343866 
L 403.55336 258.466991 
L 405.023715 237.464207 
L 406.494071 222.41565 
L 410.905138 218.690101 
L 412.375494 234.091255 
L 413.84585 222.715024 
L 415.316206 238.176053 
L 416.786561 237.537388 
L 421.197628 242.846295 
L 422.667984 241.96813 
L 424.13834 232.441369 
L 425.608696 231.450107 
L 427.079051 239.939036 
L 431.490119 244.94857 
L 432.960474 225.362825 
L 434.43083 218.756628 
L 435.901186 222.196109 
L 437.371542 219.761196 
L 441.782609 209.615727 
L 443.252964 213.780359 
L 444.72332 230.538678 
L 446.193676 226.60024 
L 447.664032 227.531627 
L 452.075099 226.240991 
L 453.545455 251.035851 
L 455.01581 248.082022 
L 456.486166 251.654558 
L 457.956522 233.060076 
L 462.367589 241.588923 
L 463.837945 235.927418 
L 465.3083 234.450504 
L 466.778656 225.263034 
L 468.249012 229.174861 
L 472.660079 227.478405 
L 474.130435 216.867243 
L 475.600791 222.595275 
L 477.071146 242.699934 
L 478.541502 259.677794 
L 482.952569 239.094135 
L 484.422925 245.314472 
L 485.893281 249.485756 
L 487.363636 257.914811 
L 488.833992 244.522792 
L 493.245059 261.281111 
L 494.715415 270.388748 
L 496.185771 290.04102 
L 497.656126 288.604022 
L 499.126482 241.908255 
L 503.537549 252.080335 
L 505.007905 262.272373 
L 506.478261 265.206243 
L 507.948617 251.794266 
L 513.83004 293.394014 
L 515.300395 297.27923 
L 516.770751 296.720397 
L 518.241107 301.803111 
L 519.711462 289.362438 
L 524.12253 326.937262 
L 525.592885 338.047382 
L 527.063241 367.000221 
L 528.533597 370.073799 
L 530.003953 394.083633 
L 534.41502 358.910457 
L 535.885375 351.998233 
L 537.355731 378.08373 
L 538.826087 391.043319 
L 540.296443 387.856643 
L 544.70751 368.324121 
L 546.177866 364.931211 
L 547.648221 381.303669 
L 549.118577 388.621712 
L 550.588933 413.449836 
L 555 425.531259 
L 556.470356 421.014031 
L 557.940711 398.946805 
L 559.411067 378.70909 
L 560.881423 383.485776 
L 565.29249 364.212712 
L 566.762846 333.749695 
L 568.233202 341.167529 
L 569.703557 370.772339 
L 571.173913 356.68178 
L 575.58498 353.016106 
L 577.055336 376.467107 
L 578.525692 389.240419 
L 579.996047 386.273285 
L 581.466403 385.694494 
L 585.87747 388.13606 
L 587.347826 391.163068 
L 588.818182 413.283516 
L 590.288538 417.54794 
L 591.758893 430.92 
L 596.16996 391.76847 
L 597.640316 386.738979 
L 599.110672 390.171806 
L 600.581028 379.09495 
L 602.051383 381.603043 
L 606.462451 404.654878 
L 607.932806 384.995954 
L 609.403162 380.325712 
L 610.873518 382.501167 
L 612.343874 403.6237 
L 618.225296 352.54376 
L 619.695652 350.607805 
L 621.166008 358.29175 
L 622.636364 369.588147 
L 622.636364 369.588147 
" clip-path="url(#p69c52c2253)" style="fill: none; stroke: #1f77b4; stroke-width: 1.5; stroke-linecap: square"/>
   </g>
   <g id="line2d_13">
    <path d="M 115.363636 104.428839 
L 116.833992 98.136208 
L 118.304348 105.324394 
L 159.474308 105.283591 
L 163.885375 93.996035 
L 165.355731 89.227735 
L 166.826087 105.930961 
L 168.296443 113.713948 
L 169.766798 135.580204 
L 174.177866 135.769397 
L 175.648221 135.639597 
L 177.118577 134.114984 
L 178.588933 125.607332 
L 180.059289 142.175593 
L 184.470356 141.354718 
L 185.940711 140.66946 
L 187.411067 135.371683 
L 188.881423 124.80317 
L 190.351779 125.108955 
L 194.762846 124.426586 
L 196.233202 118.958228 
L 197.703557 117.133737 
L 199.173913 121.499272 
L 200.644269 125.26979 
L 205.055336 123.508567 
L 206.525692 127.705658 
L 207.996047 134.347972 
L 209.466403 125.478418 
L 210.936759 129.027592 
L 215.347826 130.975209 
L 237.403162 130.975209 
L 238.873518 125.339119 
L 241.814229 125.339119 
L 246.225296 110.773866 
L 247.695652 105.25688 
L 249.166008 89.68424 
L 250.636364 92.368381 
L 252.106719 97.826809 
L 256.517787 95.39028 
L 257.988142 92.880625 
L 259.458498 97.99697 
L 260.928854 101.284572 
L 262.399209 92.876436 
L 266.810277 101.442605 
L 268.280632 85.753894 
L 269.750988 93.609635 
L 271.221344 85.358096 
L 272.6917 94.850023 
L 287.395257 94.850023 
L 288.865613 88.088931 
L 290.335968 93.42077 
L 293.27668 86.978612 
L 297.687747 79.0942 
L 299.158103 78.12 
L 300.628458 85.415759 
L 302.098814 91.598107 
L 303.56917 88.958147 
L 307.980237 88.165255 
L 310.920949 90.215294 
L 312.391304 91.615014 
L 313.86166 90.025674 
L 318.272727 96.114366 
L 319.743083 89.76045 
L 321.213439 98.809008 
L 322.683794 99.683642 
L 324.15415 90.742769 
L 328.565217 97.50542 
L 330.035573 98.607031 
L 331.505929 106.987051 
L 334.44664 106.987051 
L 338.857708 112.340829 
L 406.494071 112.340829 
L 410.905138 114.257194 
L 412.375494 117.47952 
L 413.84585 110.976004 
L 415.316206 101.161429 
L 416.786561 127.630154 
L 421.197628 128.289334 
L 422.667984 136.131911 
L 424.13834 126.017977 
L 425.608696 125.203838 
L 427.079051 124.564878 
L 431.490119 125.34491 
L 432.960474 124.496684 
L 434.43083 98.430047 
L 435.901186 99.005604 
L 437.371542 105.72126 
L 441.782609 96.358698 
L 443.252964 87.579424 
L 444.72332 90.689087 
L 446.193676 96.148786 
L 447.664032 92.96343 
L 452.075099 96.06669 
L 453.545455 103.309315 
L 455.01581 118.515694 
L 456.486166 128.878346 
L 457.956522 128.878346 
L 462.367589 120.928298 
L 519.711462 120.928298 
L 524.12253 137.057595 
L 571.173913 137.057595 
L 575.58498 127.917114 
L 577.055336 144.686713 
L 579.996047 162.237814 
L 581.466403 157.986171 
L 585.87747 170.439377 
L 587.347826 184.126923 
L 588.818182 189.189696 
L 622.636364 189.189696 
L 622.636364 189.189696 
" clip-path="url(#p69c52c2253)" style="fill: none; stroke: #ff7f0e; stroke-width: 1.5; stroke-linecap: square"/>
   </g>
   <g id="patch_3">
    <path d="M 90 448.56 
L 90 60.48 
" style="fill: none; stroke: #000000; stroke-width: 0.8; stroke-linejoin: miter; stroke-linecap: square"/>
   </g>
   <g id="patch_4">
    <path d="M 648 448.56 
L 648 60.48 
" style="fill: none; stroke: #000000; stroke-width: 0.8; stroke-linejoin: miter; stroke-linecap: square"/>
   </g>
   <g id="patch_5">
    <path d="M 90 448.56 
L 648 448.56 
" style="fill: none; stroke: #000000; stroke-width: 0.8; stroke-linejoin: miter; stroke-linecap: square"/>
   </g>
   <g id="patch_6">
    <path d="M 90 60.48 
L 648 60.48 
" style="fill: none; stroke: #000000; stroke-width: 0.8; stroke-linejoin: miter; stroke-linecap: square"/>
   </g>
   <g id="text_14">
    <!-- Performance of AVAN-strategy year 2008 -->
    <g transform="translate(245.686875 54.48)scale(0.12 -0.12)">
     <defs>
      <path id="DejaVuSans-50" d="M 1259 4147 
L 1259 2394 
L 2053 2394 
Q 2494 2394 2734 2622 
Q 2975 2850 2975 3272 
Q 2975 3691 2734 3919 
Q 2494 4147 2053 4147 
L 1259 4147 
z
M 628 4666 
L 2053 4666 
Q 2838 4666 3239 4311 
Q 3641 3956 3641 3272 
Q 3641 2581 3239 2228 
Q 2838 1875 2053 1875 
L 1259 1875 
L 1259 0 
L 628 0 
L 628 4666 
z
" transform="scale(0.015625)"/>
      <path id="DejaVuSans-66" d="M 2375 4863 
L 2375 4384 
L 1825 4384 
Q 1516 4384 1395 4259 
Q 1275 4134 1275 3809 
L 1275 3500 
L 2222 3500 
L 2222 3053 
L 1275 3053 
L 1275 0 
L 697 0 
L 697 3053 
L 147 3053 
L 147 3500 
L 697 3500 
L 697 3744 
Q 697 4328 969 4595 
Q 1241 4863 1831 4863 
L 2375 4863 
z
" transform="scale(0.015625)"/>
      <path id="DejaVuSans-6f" d="M 1959 3097 
Q 1497 3097 1228 2736 
Q 959 2375 959 1747 
Q 959 1119 1226 758 
Q 1494 397 1959 397 
Q 2419 397 2687 759 
Q 2956 1122 2956 1747 
Q 2956 2369 2687 2733 
Q 2419 3097 1959 3097 
z
M 1959 3584 
Q 2709 3584 3137 3096 
Q 3566 2609 3566 1747 
Q 3566 888 3137 398 
Q 2709 -91 1959 -91 
Q 1206 -91 779 398 
Q 353 888 353 1747 
Q 353 2609 779 3096 
Q 1206 3584 1959 3584 
z
" transform="scale(0.015625)"/>
      <path id="DejaVuSans-61" d="M 2194 1759 
Q 1497 1759 1228 1600 
Q 959 1441 959 1056 
Q 959 750 1161 570 
Q 1363 391 1709 391 
Q 2188 391 2477 730 
Q 2766 1069 2766 1631 
L 2766 1759 
L 2194 1759 
z
M 3341 1997 
L 3341 0 
L 2766 0 
L 2766 531 
Q 2569 213 2275 61 
Q 1981 -91 1556 -91 
Q 1019 -91 701 211 
Q 384 513 384 1019 
Q 384 1609 779 1909 
Q 1175 2209 1959 2209 
L 2766 2209 
L 2766 2266 
Q 2766 2663 2505 2880 
Q 2244 3097 1772 3097 
Q 1472 3097 1187 3025 
Q 903 2953 641 2809 
L 641 3341 
Q 956 3463 1253 3523 
Q 1550 3584 1831 3584 
Q 2591 3584 2966 3190 
Q 3341 2797 3341 1997 
z
" transform="scale(0.015625)"/>
      <path id="DejaVuSans-63" d="M 3122 3366 
L 3122 2828 
Q 2878 2963 2633 3030 
Q 2388 3097 2138 3097 
Q 1578 3097 1268 2742 
Q 959 2388 959 1747 
Q 959 1106 1268 751 
Q 1578 397 2138 397 
Q 2388 397 2633 464 
Q 2878 531 3122 666 
L 3122 134 
Q 2881 22 2623 -34 
Q 2366 -91 2075 -91 
Q 1284 -91 818 406 
Q 353 903 353 1747 
Q 353 2603 823 3093 
Q 1294 3584 2113 3584 
Q 2378 3584 2631 3529 
Q 2884 3475 3122 3366 
z
" transform="scale(0.015625)"/>
      <path id="DejaVuSans-41" d="M 2188 4044 
L 1331 1722 
L 3047 1722 
L 2188 4044 
z
M 1831 4666 
L 2547 4666 
L 4325 0 
L 3669 0 
L 3244 1197 
L 1141 1197 
L 716 0 
L 50 0 
L 1831 4666 
z
" transform="scale(0.015625)"/>
      <path id="DejaVuSans-56" d="M 1831 0 
L 50 4666 
L 709 4666 
L 2188 738 
L 3669 4666 
L 4325 4666 
L 2547 0 
L 1831 0 
z
" transform="scale(0.015625)"/>
      <path id="DejaVuSans-4e" d="M 628 4666 
L 1478 4666 
L 3547 763 
L 3547 4666 
L 4159 4666 
L 4159 0 
L 3309 0 
L 1241 3903 
L 1241 0 
L 628 0 
L 628 4666 
z
" transform="scale(0.015625)"/>
      <path id="DejaVuSans-73" d="M 2834 3397 
L 2834 2853 
Q 2591 2978 2328 3040 
Q 2066 3103 1784 3103 
Q 1356 3103 1142 2972 
Q 928 2841 928 2578 
Q 928 2378 1081 2264 
Q 1234 2150 1697 2047 
L 1894 2003 
Q 2506 1872 2764 1633 
Q 3022 1394 3022 966 
Q 3022 478 2636 193 
Q 2250 -91 1575 -91 
Q 1294 -91 989 -36 
Q 684 19 347 128 
L 347 722 
Q 666 556 975 473 
Q 1284 391 1588 391 
Q 1994 391 2212 530 
Q 2431 669 2431 922 
Q 2431 1156 2273 1281 
Q 2116 1406 1581 1522 
L 1381 1569 
Q 847 1681 609 1914 
Q 372 2147 372 2553 
Q 372 3047 722 3315 
Q 1072 3584 1716 3584 
Q 2034 3584 2315 3537 
Q 2597 3491 2834 3397 
z
" transform="scale(0.015625)"/>
      <path id="DejaVuSans-67" d="M 2906 1791 
Q 2906 2416 2648 2759 
Q 2391 3103 1925 3103 
Q 1463 3103 1205 2759 
Q 947 2416 947 1791 
Q 947 1169 1205 825 
Q 1463 481 1925 481 
Q 2391 481 2648 825 
Q 2906 1169 2906 1791 
z
M 3481 434 
Q 3481 -459 3084 -895 
Q 2688 -1331 1869 -1331 
Q 1566 -1331 1297 -1286 
Q 1028 -1241 775 -1147 
L 775 -588 
Q 1028 -725 1275 -790 
Q 1522 -856 1778 -856 
Q 2344 -856 2625 -561 
Q 2906 -266 2906 331 
L 2906 616 
Q 2728 306 2450 153 
Q 2172 0 1784 0 
Q 1141 0 747 490 
Q 353 981 353 1791 
Q 353 2603 747 3093 
Q 1141 3584 1784 3584 
Q 2172 3584 2450 3431 
Q 2728 3278 2906 2969 
L 2906 3500 
L 3481 3500 
L 3481 434 
z
" transform="scale(0.015625)"/>
      <path id="DejaVuSans-79" d="M 2059 -325 
Q 1816 -950 1584 -1140 
Q 1353 -1331 966 -1331 
L 506 -1331 
L 506 -850 
L 844 -850 
Q 1081 -850 1212 -737 
Q 1344 -625 1503 -206 
L 1606 56 
L 191 3500 
L 800 3500 
L 1894 763 
L 2988 3500 
L 3597 3500 
L 2059 -325 
z
" transform="scale(0.015625)"/>
     </defs>
     <use xlink:href="#DejaVuSans-50"/>
     <use xlink:href="#DejaVuSans-65" x="56.677734"/>
     <use xlink:href="#DejaVuSans-72" x="118.201172"/>
     <use xlink:href="#DejaVuSans-66" x="159.314453"/>
     <use xlink:href="#DejaVuSans-6f" x="194.519531"/>
     <use xlink:href="#DejaVuSans-72" x="255.701172"/>
     <use xlink:href="#DejaVuSans-6d" x="295.064453"/>
     <use xlink:href="#DejaVuSans-61" x="392.476562"/>
     <use xlink:href="#DejaVuSans-6e" x="453.755859"/>
     <use xlink:href="#DejaVuSans-63" x="517.134766"/>
     <use xlink:href="#DejaVuSans-65" x="572.115234"/>
     <use xlink:href="#DejaVuSans-20" x="633.638672"/>
     <use xlink:href="#DejaVuSans-6f" x="665.425781"/>
     <use xlink:href="#DejaVuSans-66" x="726.607422"/>
     <use xlink:href="#DejaVuSans-20" x="761.8125"/>
     <use xlink:href="#DejaVuSans-41" x="793.599609"/>
     <use xlink:href="#DejaVuSans-56" x="855.632812"/>
     <use xlink:href="#DejaVuSans-41" x="917.666016"/>
     <use xlink:href="#DejaVuSans-4e" x="986.074219"/>
     <use xlink:href="#DejaVuSans-2d" x="1060.878906"/>
     <use xlink:href="#DejaVuSans-73" x="1096.962891"/>
     <use xlink:href="#DejaVuSans-74" x="1149.0625"/>
     <use xlink:href="#DejaVuSans-72" x="1188.271484"/>
     <use xlink:href="#DejaVuSans-61" x="1229.384766"/>
     <use xlink:href="#DejaVuSans-74" x="1290.664062"/>
     <use xlink:href="#DejaVuSans-65" x="1329.873047"/>
     <use xlink:href="#DejaVuSans-67" x="1391.396484"/>
     <use xlink:href="#DejaVuSans-79" x="1454.873047"/>
     <use xlink:href="#DejaVuSans-20" x="1514.052734"/>
     <use xlink:href="#DejaVuSans-79" x="1545.839844"/>
     <use xlink:href="#DejaVuSans-65" x="1605.019531"/>
     <use xlink:href="#DejaVuSans-61" x="1666.542969"/>
     <use xlink:href="#DejaVuSans-72" x="1727.822266"/>
     <use xlink:href="#DejaVuSans-20" x="1768.935547"/>
     <use xlink:href="#DejaVuSans-32" x="1800.722656"/>
     <use xlink:href="#DejaVuSans-30" x="1864.345703"/>
     <use xlink:href="#DejaVuSans-30" x="1927.96875"/>
     <use xlink:href="#DejaVuSans-38" x="1991.591797"/>
    </g>
   </g>
   <g id="legend_1">
    <g id="patch_7">
     <path d="M 495.832812 97.83625 
L 641 97.83625 
Q 643 97.83625 643 95.83625 
L 643 67.48 
Q 643 65.48 641 65.48 
L 495.832812 65.48 
Q 493.832812 65.48 493.832812 67.48 
L 493.832812 95.83625 
Q 493.832812 97.83625 495.832812 97.83625 
z
" style="fill: #ffffff; opacity: 0.8; stroke: #cccccc; stroke-linejoin: miter"/>
    </g>
    <g id="line2d_14">
     <path d="M 497.832812 73.578438 
L 507.832812 73.578438 
L 517.832813 73.578438 
" style="fill: none; stroke: #1f77b4; stroke-width: 1.5; stroke-linecap: square"/>
    </g>
    <g id="text_15">
     <!-- -37.6589% return omx -->
     <g transform="translate(525.832813 77.078438)scale(0.1 -0.1)">
      <defs>
       <path id="DejaVuSans-2e" d="M 684 794 
L 1344 794 
L 1344 0 
L 684 0 
L 684 794 
z
" transform="scale(0.015625)"/>
       <path id="DejaVuSans-36" d="M 2113 2584 
Q 1688 2584 1439 2293 
Q 1191 2003 1191 1497 
Q 1191 994 1439 701 
Q 1688 409 2113 409 
Q 2538 409 2786 701 
Q 3034 994 3034 1497 
Q 3034 2003 2786 2293 
Q 2538 2584 2113 2584 
z
M 3366 4563 
L 3366 3988 
Q 3128 4100 2886 4159 
Q 2644 4219 2406 4219 
Q 1781 4219 1451 3797 
Q 1122 3375 1075 2522 
Q 1259 2794 1537 2939 
Q 1816 3084 2150 3084 
Q 2853 3084 3261 2657 
Q 3669 2231 3669 1497 
Q 3669 778 3244 343 
Q 2819 -91 2113 -91 
Q 1303 -91 875 529 
Q 447 1150 447 2328 
Q 447 3434 972 4092 
Q 1497 4750 2381 4750 
Q 2619 4750 2861 4703 
Q 3103 4656 3366 4563 
z
" transform="scale(0.015625)"/>
       <path id="DejaVuSans-78" d="M 3513 3500 
L 2247 1797 
L 3578 0 
L 2900 0 
L 1881 1375 
L 863 0 
L 184 0 
L 1544 1831 
L 300 3500 
L 978 3500 
L 1906 2253 
L 2834 3500 
L 3513 3500 
z
" transform="scale(0.015625)"/>
      </defs>
      <use xlink:href="#DejaVuSans-2d"/>
      <use xlink:href="#DejaVuSans-33" x="36.083984"/>
      <use xlink:href="#DejaVuSans-37" x="99.707031"/>
      <use xlink:href="#DejaVuSans-2e" x="163.330078"/>
      <use xlink:href="#DejaVuSans-36" x="195.117188"/>
      <use xlink:href="#DejaVuSans-35" x="258.740234"/>
      <use xlink:href="#DejaVuSans-38" x="322.363281"/>
      <use xlink:href="#DejaVuSans-39" x="385.986328"/>
      <use xlink:href="#DejaVuSans-25" x="449.609375"/>
      <use xlink:href="#DejaVuSans-20" x="544.628906"/>
      <use xlink:href="#DejaVuSans-72" x="576.416016"/>
      <use xlink:href="#DejaVuSans-65" x="615.279297"/>
      <use xlink:href="#DejaVuSans-74" x="676.802734"/>
      <use xlink:href="#DejaVuSans-75" x="716.011719"/>
      <use xlink:href="#DejaVuSans-72" x="779.390625"/>
      <use xlink:href="#DejaVuSans-6e" x="818.753906"/>
      <use xlink:href="#DejaVuSans-20" x="882.132812"/>
      <use xlink:href="#DejaVuSans-6f" x="913.919922"/>
      <use xlink:href="#DejaVuSans-6d" x="975.101562"/>
      <use xlink:href="#DejaVuSans-78" x="1072.513672"/>
     </g>
    </g>
    <g id="line2d_15">
     <path d="M 497.832812 88.256563 
L 507.832812 88.256563 
L 517.832813 88.256563 
" style="fill: none; stroke: #ff7f0e; stroke-width: 1.5; stroke-linecap: square"/>
    </g>
    <g id="text_16">
     <!-- -12.038% return AVAN -->
     <g transform="translate(525.832813 91.756563)scale(0.1 -0.1)">
      <use xlink:href="#DejaVuSans-2d"/>
      <use xlink:href="#DejaVuSans-31" x="36.083984"/>
      <use xlink:href="#DejaVuSans-32" x="99.707031"/>
      <use xlink:href="#DejaVuSans-2e" x="163.330078"/>
      <use xlink:href="#DejaVuSans-30" x="195.117188"/>
      <use xlink:href="#DejaVuSans-33" x="258.740234"/>
      <use xlink:href="#DejaVuSans-38" x="322.363281"/>
      <use xlink:href="#DejaVuSans-25" x="385.986328"/>
      <use xlink:href="#DejaVuSans-20" x="481.005859"/>
      <use xlink:href="#DejaVuSans-72" x="512.792969"/>
      <use xlink:href="#DejaVuSans-65" x="551.65625"/>
      <use xlink:href="#DejaVuSans-74" x="613.179688"/>
      <use xlink:href="#DejaVuSans-75" x="652.388672"/>
      <use xlink:href="#DejaVuSans-72" x="715.767578"/>
      <use xlink:href="#DejaVuSans-6e" x="755.130859"/>
      <use xlink:href="#DejaVuSans-20" x="818.509766"/>
      <use xlink:href="#DejaVuSans-41" x="850.296875"/>
      <use xlink:href="#DejaVuSans-56" x="912.330078"/>
      <use xlink:href="#DejaVuSans-41" x="974.363281"/>
      <use xlink:href="#DejaVuSans-4e" x="1042.771484"/>
     </g>
    </g>
   </g>
  </g>
 </g>
 <defs>
  <clipPath id="p69c52c2253">
   <rect x="90" y="60.48" width="558" height="388.08"/>
  </clipPath>
 </defs>
</svg>
