<?xml version="1.0" encoding="utf-8" standalone="no"?>
<!DOCTYPE svg PUBLIC "-//W3C//DTD SVG 1.1//EN"
  "http://www.w3.org/Graphics/SVG/1.1/DTD/svg11.dtd">
<svg xmlns:xlink="http://www.w3.org/1999/xlink" width="576pt" height="432pt" viewBox="0 0 576 432" xmlns="http://www.w3.org/2000/svg" version="1.1">
 <metadata>
  <rdf:RDF xmlns:dc="http://purl.org/dc/elements/1.1/" xmlns:cc="http://creativecommons.org/ns#" xmlns:rdf="http://www.w3.org/1999/02/22-rdf-syntax-ns#">
   <cc:Work>
    <dc:type rdf:resource="http://purl.org/dc/dcmitype/StillImage"/>
    <dc:date>2023-01-15T23:56:29.131412</dc:date>
    <dc:format>image/svg+xml</dc:format>
    <dc:creator>
     <cc:Agent>
      <dc:title>Matplotlib v3.5.0, https://matplotlib.org/</dc:title>
     </cc:Agent>
    </dc:creator>
   </cc:Work>
  </rdf:RDF>
 </metadata>
 <defs>
  <style type="text/css">*{stroke-linejoin: round; stroke-linecap: butt}</style>
 </defs>
 <g id="figure_1">
  <g id="patch_1">
   <path d="M 0 432 
L 576 432 
L 576 0 
L 0 0 
z
" style="fill: #ffffff"/>
  </g>
  <g id="axes_1">
   <g id="patch_2">
    <path d="M 56 288.132273 
L 561.427775 288.132273 
L 561.427775 26.88 
L 56 26.88 
z
" style="fill: #ffffff"/>
   </g>
   <g id="matplotlib.axis_1">
    <g id="xtick_1">
     <g id="line2d_1">
      <defs>
       <path id="m943a82c95a" d="M 0 0 
L 0 3.5 
" style="stroke: #000000; stroke-width: 0.8"/>
      </defs>
      <g>
       <use xlink:href="#m943a82c95a" x="77.704709" y="288.132273" style="stroke: #000000; stroke-width: 0.8"/>
      </g>
     </g>
    </g>
    <g id="xtick_2">
     <g id="line2d_2">
      <g>
       <use xlink:href="#m943a82c95a" x="153.861581" y="288.132273" style="stroke: #000000; stroke-width: 0.8"/>
      </g>
     </g>
    </g>
    <g id="xtick_3">
     <g id="line2d_3">
      <g>
       <use xlink:href="#m943a82c95a" x="231.287734" y="288.132273" style="stroke: #000000; stroke-width: 0.8"/>
      </g>
     </g>
    </g>
    <g id="xtick_4">
     <g id="line2d_4">
      <g>
       <use xlink:href="#m943a82c95a" x="308.713887" y="288.132273" style="stroke: #000000; stroke-width: 0.8"/>
      </g>
     </g>
    </g>
    <g id="xtick_5">
     <g id="line2d_5">
      <g>
       <use xlink:href="#m943a82c95a" x="387.409322" y="288.132273" style="stroke: #000000; stroke-width: 0.8"/>
      </g>
     </g>
    </g>
    <g id="xtick_6">
     <g id="line2d_6">
      <g>
       <use xlink:href="#m943a82c95a" x="464.835475" y="288.132273" style="stroke: #000000; stroke-width: 0.8"/>
      </g>
     </g>
    </g>
    <g id="xtick_7">
     <g id="line2d_7">
      <g>
       <use xlink:href="#m943a82c95a" x="542.261629" y="288.132273" style="stroke: #000000; stroke-width: 0.8"/>
      </g>
     </g>
    </g>
   </g>
   <g id="matplotlib.axis_2">
    <g id="ytick_1">
     <g id="line2d_8">
      <defs>
       <path id="m94a0523e22" d="M 0 0 
L -3.5 0 
" style="stroke: #000000; stroke-width: 0.8"/>
      </defs>
      <g>
       <use xlink:href="#m94a0523e22" x="56" y="262.428583" style="stroke: #000000; stroke-width: 0.8"/>
      </g>
     </g>
     <g id="text_1">
      <!-- 0 -->
      <g transform="translate(42.6375 266.227802)scale(0.1 -0.1)">
       <defs>
        <path id="DejaVuSans-30" d="M 2034 4250 
Q 1547 4250 1301 3770 
Q 1056 3291 1056 2328 
Q 1056 1369 1301 889 
Q 1547 409 2034 409 
Q 2525 409 2770 889 
Q 3016 1369 3016 2328 
Q 3016 3291 2770 3770 
Q 2525 4250 2034 4250 
z
M 2034 4750 
Q 2819 4750 3233 4129 
Q 3647 3509 3647 2328 
Q 3647 1150 3233 529 
Q 2819 -91 2034 -91 
Q 1250 -91 836 529 
Q 422 1150 422 2328 
Q 422 3509 836 4129 
Q 1250 4750 2034 4750 
z
" transform="scale(0.015625)"/>
       </defs>
       <use xlink:href="#DejaVuSans-30"/>
      </g>
     </g>
    </g>
    <g id="ytick_2">
     <g id="line2d_9">
      <g>
       <use xlink:href="#m94a0523e22" x="56" y="227.249683" style="stroke: #000000; stroke-width: 0.8"/>
      </g>
     </g>
     <g id="text_2">
      <!-- 5 -->
      <g transform="translate(42.6375 231.048902)scale(0.1 -0.1)">
       <defs>
        <path id="DejaVuSans-35" d="M 691 4666 
L 3169 4666 
L 3169 4134 
L 1269 4134 
L 1269 2991 
Q 1406 3038 1543 3061 
Q 1681 3084 1819 3084 
Q 2600 3084 3056 2656 
Q 3513 2228 3513 1497 
Q 3513 744 3044 326 
Q 2575 -91 1722 -91 
Q 1428 -91 1123 -41 
Q 819 9 494 109 
L 494 744 
Q 775 591 1075 516 
Q 1375 441 1709 441 
Q 2250 441 2565 725 
Q 2881 1009 2881 1497 
Q 2881 1984 2565 2268 
Q 2250 2553 1709 2553 
Q 1456 2553 1204 2497 
Q 953 2441 691 2322 
L 691 4666 
z
" transform="scale(0.015625)"/>
       </defs>
       <use xlink:href="#DejaVuSans-35"/>
      </g>
     </g>
    </g>
    <g id="ytick_3">
     <g id="line2d_10">
      <g>
       <use xlink:href="#m94a0523e22" x="56" y="192.070782" style="stroke: #000000; stroke-width: 0.8"/>
      </g>
     </g>
     <g id="text_3">
      <!-- 10 -->
      <g transform="translate(36.275 195.870001)scale(0.1 -0.1)">
       <defs>
        <path id="DejaVuSans-31" d="M 794 531 
L 1825 531 
L 1825 4091 
L 703 3866 
L 703 4441 
L 1819 4666 
L 2450 4666 
L 2450 531 
L 3481 531 
L 3481 0 
L 794 0 
L 794 531 
z
" transform="scale(0.015625)"/>
       </defs>
       <use xlink:href="#DejaVuSans-31"/>
       <use xlink:href="#DejaVuSans-30" x="63.623047"/>
      </g>
     </g>
    </g>
    <g id="ytick_4">
     <g id="line2d_11">
      <g>
       <use xlink:href="#m94a0523e22" x="56" y="156.891882" style="stroke: #000000; stroke-width: 0.8"/>
      </g>
     </g>
     <g id="text_4">
      <!-- 15 -->
      <g transform="translate(36.275 160.691101)scale(0.1 -0.1)">
       <use xlink:href="#DejaVuSans-31"/>
       <use xlink:href="#DejaVuSans-35" x="63.623047"/>
      </g>
     </g>
    </g>
    <g id="ytick_5">
     <g id="line2d_12">
      <g>
       <use xlink:href="#m94a0523e22" x="56" y="121.712981" style="stroke: #000000; stroke-width: 0.8"/>
      </g>
     </g>
     <g id="text_5">
      <!-- 20 -->
      <g transform="translate(36.275 125.5122)scale(0.1 -0.1)">
       <defs>
        <path id="DejaVuSans-32" d="M 1228 531 
L 3431 531 
L 3431 0 
L 469 0 
L 469 531 
Q 828 903 1448 1529 
Q 2069 2156 2228 2338 
Q 2531 2678 2651 2914 
Q 2772 3150 2772 3378 
Q 2772 3750 2511 3984 
Q 2250 4219 1831 4219 
Q 1534 4219 1204 4116 
Q 875 4013 500 3803 
L 500 4441 
Q 881 4594 1212 4672 
Q 1544 4750 1819 4750 
Q 2544 4750 2975 4387 
Q 3406 4025 3406 3419 
Q 3406 3131 3298 2873 
Q 3191 2616 2906 2266 
Q 2828 2175 2409 1742 
Q 1991 1309 1228 531 
z
" transform="scale(0.015625)"/>
       </defs>
       <use xlink:href="#DejaVuSans-32"/>
       <use xlink:href="#DejaVuSans-30" x="63.623047"/>
      </g>
     </g>
    </g>
    <g id="ytick_6">
     <g id="line2d_13">
      <g>
       <use xlink:href="#m94a0523e22" x="56" y="86.534081" style="stroke: #000000; stroke-width: 0.8"/>
      </g>
     </g>
     <g id="text_6">
      <!-- 25 -->
      <g transform="translate(36.275 90.333299)scale(0.1 -0.1)">
       <use xlink:href="#DejaVuSans-32"/>
       <use xlink:href="#DejaVuSans-35" x="63.623047"/>
      </g>
     </g>
    </g>
    <g id="ytick_7">
     <g id="line2d_14">
      <g>
       <use xlink:href="#m94a0523e22" x="56" y="51.35518" style="stroke: #000000; stroke-width: 0.8"/>
      </g>
     </g>
     <g id="text_7">
      <!-- 30 -->
      <g transform="translate(36.275 55.154399)scale(0.1 -0.1)">
       <defs>
        <path id="DejaVuSans-33" d="M 2597 2516 
Q 3050 2419 3304 2112 
Q 3559 1806 3559 1356 
Q 3559 666 3084 287 
Q 2609 -91 1734 -91 
Q 1441 -91 1130 -33 
Q 819 25 488 141 
L 488 750 
Q 750 597 1062 519 
Q 1375 441 1716 441 
Q 2309 441 2620 675 
Q 2931 909 2931 1356 
Q 2931 1769 2642 2001 
Q 2353 2234 1838 2234 
L 1294 2234 
L 1294 2753 
L 1863 2753 
Q 2328 2753 2575 2939 
Q 2822 3125 2822 3475 
Q 2822 3834 2567 4026 
Q 2313 4219 1838 4219 
Q 1578 4219 1281 4162 
Q 984 4106 628 3988 
L 628 4550 
Q 988 4650 1302 4700 
Q 1616 4750 1894 4750 
Q 2613 4750 3031 4423 
Q 3450 4097 3450 3541 
Q 3450 3153 3228 2886 
Q 3006 2619 2597 2516 
z
" transform="scale(0.015625)"/>
       </defs>
       <use xlink:href="#DejaVuSans-33"/>
       <use xlink:href="#DejaVuSans-30" x="63.623047"/>
      </g>
     </g>
    </g>
    <g id="text_8">
     <!-- Return [%] -->
     <g transform="translate(30.195312 184.338949)rotate(-90)scale(0.1 -0.1)">
      <defs>
       <path id="DejaVuSans-52" d="M 2841 2188 
Q 3044 2119 3236 1894 
Q 3428 1669 3622 1275 
L 4263 0 
L 3584 0 
L 2988 1197 
Q 2756 1666 2539 1819 
Q 2322 1972 1947 1972 
L 1259 1972 
L 1259 0 
L 628 0 
L 628 4666 
L 2053 4666 
Q 2853 4666 3247 4331 
Q 3641 3997 3641 3322 
Q 3641 2881 3436 2590 
Q 3231 2300 2841 2188 
z
M 1259 4147 
L 1259 2491 
L 2053 2491 
Q 2509 2491 2742 2702 
Q 2975 2913 2975 3322 
Q 2975 3731 2742 3939 
Q 2509 4147 2053 4147 
L 1259 4147 
z
" transform="scale(0.015625)"/>
       <path id="DejaVuSans-65" d="M 3597 1894 
L 3597 1613 
L 953 1613 
Q 991 1019 1311 708 
Q 1631 397 2203 397 
Q 2534 397 2845 478 
Q 3156 559 3463 722 
L 3463 178 
Q 3153 47 2828 -22 
Q 2503 -91 2169 -91 
Q 1331 -91 842 396 
Q 353 884 353 1716 
Q 353 2575 817 3079 
Q 1281 3584 2069 3584 
Q 2775 3584 3186 3129 
Q 3597 2675 3597 1894 
z
M 3022 2063 
Q 3016 2534 2758 2815 
Q 2500 3097 2075 3097 
Q 1594 3097 1305 2825 
Q 1016 2553 972 2059 
L 3022 2063 
z
" transform="scale(0.015625)"/>
       <path id="DejaVuSans-74" d="M 1172 4494 
L 1172 3500 
L 2356 3500 
L 2356 3053 
L 1172 3053 
L 1172 1153 
Q 1172 725 1289 603 
Q 1406 481 1766 481 
L 2356 481 
L 2356 0 
L 1766 0 
Q 1100 0 847 248 
Q 594 497 594 1153 
L 594 3053 
L 172 3053 
L 172 3500 
L 594 3500 
L 594 4494 
L 1172 4494 
z
" transform="scale(0.015625)"/>
       <path id="DejaVuSans-75" d="M 544 1381 
L 544 3500 
L 1119 3500 
L 1119 1403 
Q 1119 906 1312 657 
Q 1506 409 1894 409 
Q 2359 409 2629 706 
Q 2900 1003 2900 1516 
L 2900 3500 
L 3475 3500 
L 3475 0 
L 2900 0 
L 2900 538 
Q 2691 219 2414 64 
Q 2138 -91 1772 -91 
Q 1169 -91 856 284 
Q 544 659 544 1381 
z
M 1991 3584 
L 1991 3584 
z
" transform="scale(0.015625)"/>
       <path id="DejaVuSans-72" d="M 2631 2963 
Q 2534 3019 2420 3045 
Q 2306 3072 2169 3072 
Q 1681 3072 1420 2755 
Q 1159 2438 1159 1844 
L 1159 0 
L 581 0 
L 581 3500 
L 1159 3500 
L 1159 2956 
Q 1341 3275 1631 3429 
Q 1922 3584 2338 3584 
Q 2397 3584 2469 3576 
Q 2541 3569 2628 3553 
L 2631 2963 
z
" transform="scale(0.015625)"/>
       <path id="DejaVuSans-6e" d="M 3513 2113 
L 3513 0 
L 2938 0 
L 2938 2094 
Q 2938 2591 2744 2837 
Q 2550 3084 2163 3084 
Q 1697 3084 1428 2787 
Q 1159 2491 1159 1978 
L 1159 0 
L 581 0 
L 581 3500 
L 1159 3500 
L 1159 2956 
Q 1366 3272 1645 3428 
Q 1925 3584 2291 3584 
Q 2894 3584 3203 3211 
Q 3513 2838 3513 2113 
z
" transform="scale(0.015625)"/>
       <path id="DejaVuSans-20" transform="scale(0.015625)"/>
       <path id="DejaVuSans-5b" d="M 550 4863 
L 1875 4863 
L 1875 4416 
L 1125 4416 
L 1125 -397 
L 1875 -397 
L 1875 -844 
L 550 -844 
L 550 4863 
z
" transform="scale(0.015625)"/>
       <path id="DejaVuSans-25" d="M 4653 2053 
Q 4381 2053 4226 1822 
Q 4072 1591 4072 1178 
Q 4072 772 4226 539 
Q 4381 306 4653 306 
Q 4919 306 5073 539 
Q 5228 772 5228 1178 
Q 5228 1588 5073 1820 
Q 4919 2053 4653 2053 
z
M 4653 2450 
Q 5147 2450 5437 2106 
Q 5728 1763 5728 1178 
Q 5728 594 5436 251 
Q 5144 -91 4653 -91 
Q 4153 -91 3862 251 
Q 3572 594 3572 1178 
Q 3572 1766 3864 2108 
Q 4156 2450 4653 2450 
z
M 1428 4353 
Q 1159 4353 1004 4120 
Q 850 3888 850 3481 
Q 850 3069 1003 2837 
Q 1156 2606 1428 2606 
Q 1700 2606 1854 2837 
Q 2009 3069 2009 3481 
Q 2009 3884 1853 4118 
Q 1697 4353 1428 4353 
z
M 4250 4750 
L 4750 4750 
L 1831 -91 
L 1331 -91 
L 4250 4750 
z
M 1428 4750 
Q 1922 4750 2215 4408 
Q 2509 4066 2509 3481 
Q 2509 2891 2217 2550 
Q 1925 2209 1428 2209 
Q 931 2209 642 2551 
Q 353 2894 353 3481 
Q 353 4063 643 4406 
Q 934 4750 1428 4750 
z
" transform="scale(0.015625)"/>
       <path id="DejaVuSans-5d" d="M 1947 4863 
L 1947 -844 
L 622 -844 
L 622 -397 
L 1369 -397 
L 1369 4416 
L 622 4416 
L 622 4863 
L 1947 4863 
z
" transform="scale(0.015625)"/>
      </defs>
      <use xlink:href="#DejaVuSans-52"/>
      <use xlink:href="#DejaVuSans-65" x="64.982422"/>
      <use xlink:href="#DejaVuSans-74" x="126.505859"/>
      <use xlink:href="#DejaVuSans-75" x="165.714844"/>
      <use xlink:href="#DejaVuSans-72" x="229.09375"/>
      <use xlink:href="#DejaVuSans-6e" x="268.457031"/>
      <use xlink:href="#DejaVuSans-20" x="331.835938"/>
      <use xlink:href="#DejaVuSans-5b" x="363.623047"/>
      <use xlink:href="#DejaVuSans-25" x="402.636719"/>
      <use xlink:href="#DejaVuSans-5d" x="497.65625"/>
     </g>
    </g>
   </g>
   <g id="line2d_15">
    <path d="M 78.97399 253.372487 
L 84.051115 253.295084 
L 85.320396 263.335299 
L 86.589677 249.81197 
L 87.858958 246.737983 
L 91.666802 244.692345 
L 92.936083 241.629416 
L 94.205364 234.96174 
L 95.474645 230.549795 
L 96.743927 222.345126 
L 100.55177 218.353367 
L 101.821051 223.771545 
L 103.090333 228.470984 
L 104.359614 221.924941 
L 105.628895 220.011993 
L 109.436739 217.557227 
L 110.70602 219.425945 
L 111.975301 222.831657 
L 113.244582 229.222895 
L 114.513863 220.830248 
L 118.321707 224.622972 
L 119.590988 225.29748 
L 120.860269 227.486866 
L 122.129551 221.703791 
L 123.398832 205.703581 
L 127.206675 201.413269 
L 128.475957 193.816762 
L 129.745238 192.213424 
L 131.014519 198.471972 
L 132.2838 203.967552 
L 136.091644 196.625369 
L 137.360925 191.981217 
L 138.630206 192.423517 
L 139.899488 185.556806 
L 141.168769 191.870641 
L 144.976612 187.668789 
L 146.245894 202.419502 
L 147.515175 198.870042 
L 148.784456 194.811938 
L 150.053737 193.993683 
L 153.861581 187.038512 
L 155.130862 176.578112 
L 156.400143 170.983014 
L 157.669424 173.83585 
L 158.938706 172.918077 
L 162.746549 171.646464 
L 164.01583 184.263078 
L 165.285112 185.534691 
L 166.554393 210.602056 
L 167.823674 204.221875 
L 171.631518 213.886135 
L 172.900799 210.325618 
L 174.17008 199.610895 
L 175.439361 214.737563 
L 176.708642 212.150106 
L 180.516486 233.192539 
L 181.785767 224.965755 
L 183.055048 228.902227 
L 184.32433 215.942831 
L 185.593611 214.5717 
L 189.401454 201.280579 
L 190.670736 205.139648 
L 191.940017 202.729112 
L 193.209298 186.397176 
L 194.478579 177.484827 
L 198.286423 168.716225 
L 199.555704 172.531065 
L 200.824985 172.033477 
L 202.094266 169.943608 
L 208.440672 168.904203 
L 209.709954 176.301674 
L 210.979235 179.939593 
L 212.248516 177.473769 
L 216.05636 174.079115 
L 217.325641 164.260051 
L 218.594922 173.957483 
L 219.864203 160.942799 
L 221.133484 169.866206 
L 224.941328 174.167575 
L 226.210609 176.180041 
L 227.479891 193.838877 
L 228.749172 199.05802 
L 230.018453 207.915082 
L 233.826297 203.071894 
L 235.095578 204.86321 
L 236.364859 216.882719 
L 237.63414 216.882719 
L 238.903421 218.132217 
L 242.711265 244.825035 
L 243.980546 230.837291 
L 245.249827 245.499543 
L 246.519109 226.933991 
L 247.78839 232.064674 
L 251.596233 243.011604 
L 252.865515 237.471794 
L 254.134796 224.180672 
L 256.673358 228.448869 
L 260.481202 225.021043 
L 261.750483 232.042559 
L 263.019764 230.39499 
L 264.289045 223.174439 
L 265.558327 220.786018 
L 269.36617 220.786018 
L 270.635451 229.51039 
L 271.904733 222.909059 
L 273.174014 218.51923 
L 274.443295 208.025657 
L 278.251139 199.533493 
L 279.52042 201.601246 
L 280.789701 206.090593 
L 282.058982 206.787216 
L 283.328263 206.068478 
L 287.136107 216.429361 
L 288.405388 210.867436 
L 289.674669 206.953079 
L 290.943951 209.993893 
L 292.213232 212.581349 
L 296.021075 213.333259 
L 297.290357 216.396188 
L 298.559638 202.530077 
L 299.828919 194.701363 
L 301.0982 194.701363 
L 304.906044 192.788414 
L 306.175325 194.347523 
L 307.444606 194.04897 
L 308.713887 194.22589 
L 309.983169 196.603254 
L 313.791012 199.63301 
L 315.060294 208.125174 
L 316.329575 209.352558 
L 317.598856 208.235749 
L 318.868137 214.649103 
L 322.675981 226.259483 
L 323.945262 218.486057 
L 325.214543 213.576525 
L 326.483824 226.126793 
L 327.753106 221.349951 
L 331.560949 229.267125 
L 332.83023 226.591208 
L 334.099512 210.679458 
L 335.368793 227.110911 
L 336.638074 226.867646 
L 340.445918 234.265117 
L 341.715199 222.997519 
L 342.98448 220.33266 
L 344.253761 213.941422 
L 345.523042 210.447251 
L 349.330886 215.423128 
L 350.600167 214.991885 
L 351.869448 220.476408 
L 353.13873 215.157748 
L 354.408011 232.728124 
L 358.215854 239.628007 
L 359.485136 231.047383 
L 360.754417 243.542364 
L 362.023698 246.494718 
L 363.292979 247.976424 
L 367.100823 240.612125 
L 368.370104 237.726116 
L 369.639385 230.229128 
L 370.908666 228.957515 
L 372.177948 231.213246 
L 375.985791 214.947655 
L 377.255072 217.568284 
L 378.524354 210.491481 
L 379.793635 204.122357 
L 381.062916 202.021431 
L 384.87076 203.923322 
L 386.140041 208.534302 
L 387.409322 199.245998 
L 388.678603 198.30611 
L 389.947884 195.663366 
L 393.755728 194.900398 
L 395.025009 196.758059 
L 396.29429 198.991675 
L 397.563572 205.869443 
L 398.832853 200.926738 
L 402.640697 189.08415 
L 403.909978 192.456689 
L 405.179259 190.974984 
L 406.44854 191.948044 
L 407.717821 189.924521 
L 411.525665 191.793239 
L 412.794946 190.897581 
L 414.064227 189.65914 
L 415.333509 193.186485 
L 416.60279 194.5355 
L 420.410633 199.113308 
L 421.679915 198.051787 
L 422.949196 180.990056 
L 424.218477 185.612093 
L 425.487758 173.072882 
L 429.295602 162.35816 
L 430.564883 162.457677 
L 431.834164 166.438379 
L 433.103445 165.996079 
L 434.372727 167.953257 
L 438.18057 166.593184 
L 439.449851 173.802678 
L 440.719133 165.233111 
L 441.988414 172.320972 
L 443.257695 176.721859 
L 447.065539 177.506942 
L 448.33482 165.609066 
L 449.604101 176.755032 
L 450.873382 179.928536 
L 452.142663 188.896173 
L 455.950507 207.096826 
L 457.219788 202.906032 
L 458.489069 190.477396 
L 459.758351 186.375061 
L 461.027632 189.161553 
L 464.835475 179.276143 
L 466.104757 165.752814 
L 467.374038 162.689885 
L 468.643319 167.345095 
L 469.9126 162.634597 
L 473.720444 160.577901 
L 474.989725 159.085138 
L 476.259006 158.510148 
L 477.528287 152.196312 
L 478.797569 145.086336 
L 482.605412 144.832014 
L 483.874693 148.160323 
L 485.143975 137.821555 
L 486.413256 138.41866 
L 487.682537 147.563217 
L 491.490381 153.26889 
L 492.759662 150.150674 
L 494.028943 149.774718 
L 495.298224 143.814723 
L 496.567506 143.858953 
L 500.375349 141.326784 
L 501.64463 144.057988 
L 502.913912 136.549942 
L 504.183193 132.558183 
L 505.452474 142.885893 
L 509.260318 147.253607 
L 510.529599 141.061404 
L 511.79888 146.844479 
L 513.068161 156.696717 
L 514.337442 151.190079 
L 518.145286 149.675201 
L 519.414567 148.735313 
L 520.683848 150.792009 
L 521.95313 147.81754 
L 523.222411 159.980796 
L 527.030254 153.22466 
L 528.299536 150.305479 
L 529.568817 144.102218 
L 530.838098 145.561809 
L 535.915223 145.661326 
L 537.184504 147.928115 
L 538.453785 146.877652 
L 538.453785 146.877652 
" clip-path="url(#p275b8abd70)" style="fill: none; stroke: #008000; stroke-width: 1.5; stroke-linecap: square"/>
   </g>
   <g id="line2d_16">
    <path d="M 78.97399 259.923032 
L 82.781833 260.56751 
L 84.051115 260.56751 
L 85.320396 258.472404 
L 86.589677 260.854455 
L 87.858958 264.454641 
L 91.666802 276.257169 
L 92.936083 275.441439 
L 94.205364 271.301856 
L 96.743927 259.389404 
L 100.55177 238.555769 
L 101.821051 247.962516 
L 103.090333 252.975826 
L 104.359614 253.653942 
L 105.628895 251.12774 
L 109.436739 250.837158 
L 110.70602 246.617672 
L 111.975301 247.927346 
L 113.244582 247.253709 
L 114.513863 249.191446 
L 118.321707 245.644355 
L 119.590988 256.613692 
L 120.860269 255.680123 
L 122.129551 258.432143 
L 123.398832 255.913271 
L 127.206675 250.606439 
L 128.475957 247.519206 
L 129.745238 247.498699 
L 131.014519 242.222621 
L 132.2838 239.48178 
L 136.091644 237.439564 
L 137.360925 233.126972 
L 138.630206 218.865982 
L 139.899488 219.764054 
L 141.168769 220.182367 
L 144.976612 215.097766 
L 146.245894 220.567758 
L 147.515175 228.781295 
L 148.784456 224.222322 
L 150.053737 221.20979 
L 153.861581 210.67225 
L 155.130862 201.408585 
L 156.400143 179.952898 
L 157.669424 191.726833 
L 158.938706 180.676721 
L 162.746549 163.548352 
L 164.01583 167.823598 
L 166.554393 204.946028 
L 189.401454 204.946028 
L 190.670736 206.691311 
L 191.940017 213.002973 
L 193.209298 208.487373 
L 194.478579 205.675567 
L 198.286423 199.748856 
L 199.555704 201.573208 
L 200.824985 204.971588 
L 202.094266 201.266011 
L 208.440672 198.825064 
L 209.709954 200.361991 
L 210.979235 204.533068 
L 212.248516 201.981951 
L 216.05636 196.928329 
L 217.325641 188.783778 
L 218.594922 184.471691 
L 219.864203 183.156868 
L 221.133484 169.365766 
L 224.941328 167.620191 
L 226.210609 160.880202 
L 227.479891 169.218851 
L 230.018453 183.958851 
L 233.826297 186.22821 
L 264.289045 186.22821 
L 265.558327 184.73225 
L 269.36617 184.73225 
L 270.635451 176.389147 
L 271.904733 174.885283 
L 273.174014 169.534689 
L 274.443295 163.086738 
L 278.251139 154.438852 
L 279.52042 152.148775 
L 280.789701 151.76559 
L 282.058982 151.134468 
L 283.328263 151.598008 
L 287.136107 153.466407 
L 288.405388 153.92459 
L 289.674669 171.46885 
L 290.943951 165.766844 
L 292.213232 169.653889 
L 296.021075 160.05571 
L 297.290357 169.814653 
L 308.713887 169.814653 
L 309.983169 167.557094 
L 313.791012 170.610952 
L 315.060294 172.412101 
L 316.329575 175.066578 
L 317.598856 181.980372 
L 318.868137 184.377025 
L 322.675981 180.432181 
L 350.600167 180.432181 
L 351.869448 181.915075 
L 353.13873 180.780507 
L 354.408011 182.507122 
L 358.215854 192.083418 
L 378.524354 192.083418 
L 379.793635 189.903183 
L 381.062916 190.609026 
L 384.87076 191.001015 
L 386.140041 196.408046 
L 387.409322 194.176229 
L 388.678603 194.469515 
L 389.947884 188.45894 
L 393.755728 186.552085 
L 395.025009 190.018896 
L 396.29429 186.49946 
L 397.563572 188.869343 
L 398.832853 187.229524 
L 402.640697 183.902353 
L 403.909978 177.026548 
L 406.44854 175.523829 
L 407.717821 175.111236 
L 411.525665 174.751891 
L 412.794946 175.750553 
L 414.064227 171.704702 
L 415.333509 176.534769 
L 416.60279 177.585808 
L 420.410633 178.428193 
L 421.679915 176.719294 
L 422.949196 169.233489 
L 424.218477 160.416209 
L 425.487758 157.049333 
L 429.295602 145.418016 
L 430.564883 140.730905 
L 431.834164 141.55991 
L 433.103445 142.678792 
L 434.372727 144.459721 
L 439.449851 138.911538 
L 440.719133 141.722996 
L 441.988414 140.090305 
L 443.257695 144.160718 
L 447.065539 140.57377 
L 448.33482 139.177851 
L 449.604101 140.584646 
L 450.873382 145.606165 
L 455.950507 148.527869 
L 457.219788 148.527869 
L 458.489069 145.911594 
L 459.758351 155.2417 
L 461.027632 155.2417 
L 466.104757 155.497319 
L 467.374038 155.497319 
L 468.643319 151.423426 
L 469.9126 150.193098 
L 473.720444 141.28256 
L 474.989725 134.792376 
L 476.259006 128.898246 
L 477.528287 124.286491 
L 478.797569 114.949702 
L 482.605412 117.042258 
L 483.874693 114.275236 
L 485.143975 109.96226 
L 486.413256 108.430125 
L 487.682537 109.363725 
L 492.759662 113.500243 
L 494.028943 105.862113 
L 495.298224 103.994072 
L 496.567506 94.748902 
L 500.375349 98.463896 
L 501.64463 95.37012 
L 502.913912 90.447604 
L 504.183193 88.852234 
L 505.452474 88.252905 
L 509.260318 88.552132 
L 510.529599 81.198145 
L 511.79888 85.05107 
L 513.068161 87.62386 
L 514.337442 82.572702 
L 518.145286 82.660424 
L 519.414567 76.437285 
L 521.95313 70.301236 
L 523.222411 75.357971 
L 527.030254 76.106911 
L 528.299536 71.170573 
L 530.838098 60.295332 
L 535.915223 53.019175 
L 537.184504 40.800233 
L 538.453785 38.755103 
L 538.453785 38.755103 
" clip-path="url(#p275b8abd70)" style="fill: none; stroke: #0000ff; stroke-width: 1.5; stroke-linecap: square"/>
   </g>
   <g id="line2d_17">
    <path d="M 78.97399 259.923032 
L 84.051115 259.923032 
L 85.320396 258.472404 
L 96.743927 258.472404 
L 100.55177 238.555769 
L 132.2838 238.555769 
L 136.091644 237.439564 
L 137.360925 233.126972 
L 138.630206 218.865982 
L 141.168769 218.865982 
L 144.976612 215.097766 
L 150.053737 215.097766 
L 153.861581 210.67225 
L 155.130862 201.408585 
L 156.400143 179.952898 
L 158.938706 179.952898 
L 162.746549 163.548352 
L 224.941328 163.548352 
L 226.210609 160.880202 
L 274.443295 160.880202 
L 279.52042 152.148775 
L 280.789701 151.76559 
L 282.058982 151.134468 
L 425.487758 151.134468 
L 429.295602 145.418016 
L 430.564883 140.730905 
L 434.372727 140.730905 
L 438.18057 140.234313 
L 439.449851 138.911538 
L 473.720444 138.911538 
L 474.989725 134.792376 
L 476.259006 128.898246 
L 477.528287 124.286491 
L 478.797569 114.949702 
L 482.605412 114.949702 
L 483.874693 114.275236 
L 485.143975 109.96226 
L 486.413256 108.430125 
L 492.759662 108.430125 
L 494.028943 105.862113 
L 495.298224 103.994072 
L 496.567506 94.748902 
L 501.64463 94.748902 
L 502.913912 90.447604 
L 504.183193 88.852234 
L 505.452474 88.252905 
L 509.260318 88.252905 
L 510.529599 81.198145 
L 518.145286 81.198145 
L 519.414567 76.437285 
L 521.95313 70.301236 
L 528.299536 70.301236 
L 529.568817 65.634578 
L 530.838098 60.295332 
L 535.915223 53.019175 
L 537.184504 40.800233 
L 538.453785 38.755103 
L 538.453785 38.755103 
" clip-path="url(#p275b8abd70)" style="fill: none; stroke: #ff0000; stroke-width: 1.5; stroke-linecap: square"/>
   </g>
   <g id="patch_3">
    <path d="M 56 288.132273 
L 56 26.88 
" style="fill: none; stroke: #000000; stroke-width: 0.8; stroke-linejoin: miter; stroke-linecap: square"/>
   </g>
   <g id="patch_4">
    <path d="M 561.427775 288.132273 
L 561.427775 26.88 
" style="fill: none; stroke: #000000; stroke-width: 0.8; stroke-linejoin: miter; stroke-linecap: square"/>
   </g>
   <g id="patch_5">
    <path d="M 56 288.132273 
L 561.427775 288.132273 
" style="fill: none; stroke: #000000; stroke-width: 0.8; stroke-linejoin: miter; stroke-linecap: square"/>
   </g>
   <g id="patch_6">
    <path d="M 56 26.88 
L 561.427775 26.88 
" style="fill: none; stroke: #000000; stroke-width: 0.8; stroke-linejoin: miter; stroke-linecap: square"/>
   </g>
   <g id="text_9">
    <!-- Performance of AVAN-strategy year 2004 -->
    <g transform="translate(185.400762 20.88)scale(0.12 -0.12)">
     <defs>
      <path id="DejaVuSans-50" d="M 1259 4147 
L 1259 2394 
L 2053 2394 
Q 2494 2394 2734 2622 
Q 2975 2850 2975 3272 
Q 2975 3691 2734 3919 
Q 2494 4147 2053 4147 
L 1259 4147 
z
M 628 4666 
L 2053 4666 
Q 2838 4666 3239 4311 
Q 3641 3956 3641 3272 
Q 3641 2581 3239 2228 
Q 2838 1875 2053 1875 
L 1259 1875 
L 1259 0 
L 628 0 
L 628 4666 
z
" transform="scale(0.015625)"/>
      <path id="DejaVuSans-66" d="M 2375 4863 
L 2375 4384 
L 1825 4384 
Q 1516 4384 1395 4259 
Q 1275 4134 1275 3809 
L 1275 3500 
L 2222 3500 
L 2222 3053 
L 1275 3053 
L 1275 0 
L 697 0 
L 697 3053 
L 147 3053 
L 147 3500 
L 697 3500 
L 697 3744 
Q 697 4328 969 4595 
Q 1241 4863 1831 4863 
L 2375 4863 
z
" transform="scale(0.015625)"/>
      <path id="DejaVuSans-6f" d="M 1959 3097 
Q 1497 3097 1228 2736 
Q 959 2375 959 1747 
Q 959 1119 1226 758 
Q 1494 397 1959 397 
Q 2419 397 2687 759 
Q 2956 1122 2956 1747 
Q 2956 2369 2687 2733 
Q 2419 3097 1959 3097 
z
M 1959 3584 
Q 2709 3584 3137 3096 
Q 3566 2609 3566 1747 
Q 3566 888 3137 398 
Q 2709 -91 1959 -91 
Q 1206 -91 779 398 
Q 353 888 353 1747 
Q 353 2609 779 3096 
Q 1206 3584 1959 3584 
z
" transform="scale(0.015625)"/>
      <path id="DejaVuSans-6d" d="M 3328 2828 
Q 3544 3216 3844 3400 
Q 4144 3584 4550 3584 
Q 5097 3584 5394 3201 
Q 5691 2819 5691 2113 
L 5691 0 
L 5113 0 
L 5113 2094 
Q 5113 2597 4934 2840 
Q 4756 3084 4391 3084 
Q 3944 3084 3684 2787 
Q 3425 2491 3425 1978 
L 3425 0 
L 2847 0 
L 2847 2094 
Q 2847 2600 2669 2842 
Q 2491 3084 2119 3084 
Q 1678 3084 1418 2786 
Q 1159 2488 1159 1978 
L 1159 0 
L 581 0 
L 581 3500 
L 1159 3500 
L 1159 2956 
Q 1356 3278 1631 3431 
Q 1906 3584 2284 3584 
Q 2666 3584 2933 3390 
Q 3200 3197 3328 2828 
z
" transform="scale(0.015625)"/>
      <path id="DejaVuSans-61" d="M 2194 1759 
Q 1497 1759 1228 1600 
Q 959 1441 959 1056 
Q 959 750 1161 570 
Q 1363 391 1709 391 
Q 2188 391 2477 730 
Q 2766 1069 2766 1631 
L 2766 1759 
L 2194 1759 
z
M 3341 1997 
L 3341 0 
L 2766 0 
L 2766 531 
Q 2569 213 2275 61 
Q 1981 -91 1556 -91 
Q 1019 -91 701 211 
Q 384 513 384 1019 
Q 384 1609 779 1909 
Q 1175 2209 1959 2209 
L 2766 2209 
L 2766 2266 
Q 2766 2663 2505 2880 
Q 2244 3097 1772 3097 
Q 1472 3097 1187 3025 
Q 903 2953 641 2809 
L 641 3341 
Q 956 3463 1253 3523 
Q 1550 3584 1831 3584 
Q 2591 3584 2966 3190 
Q 3341 2797 3341 1997 
z
" transform="scale(0.015625)"/>
      <path id="DejaVuSans-63" d="M 3122 3366 
L 3122 2828 
Q 2878 2963 2633 3030 
Q 2388 3097 2138 3097 
Q 1578 3097 1268 2742 
Q 959 2388 959 1747 
Q 959 1106 1268 751 
Q 1578 397 2138 397 
Q 2388 397 2633 464 
Q 2878 531 3122 666 
L 3122 134 
Q 2881 22 2623 -34 
Q 2366 -91 2075 -91 
Q 1284 -91 818 406 
Q 353 903 353 1747 
Q 353 2603 823 3093 
Q 1294 3584 2113 3584 
Q 2378 3584 2631 3529 
Q 2884 3475 3122 3366 
z
" transform="scale(0.015625)"/>
      <path id="DejaVuSans-41" d="M 2188 4044 
L 1331 1722 
L 3047 1722 
L 2188 4044 
z
M 1831 4666 
L 2547 4666 
L 4325 0 
L 3669 0 
L 3244 1197 
L 1141 1197 
L 716 0 
L 50 0 
L 1831 4666 
z
" transform="scale(0.015625)"/>
      <path id="DejaVuSans-56" d="M 1831 0 
L 50 4666 
L 709 4666 
L 2188 738 
L 3669 4666 
L 4325 4666 
L 2547 0 
L 1831 0 
z
" transform="scale(0.015625)"/>
      <path id="DejaVuSans-4e" d="M 628 4666 
L 1478 4666 
L 3547 763 
L 3547 4666 
L 4159 4666 
L 4159 0 
L 3309 0 
L 1241 3903 
L 1241 0 
L 628 0 
L 628 4666 
z
" transform="scale(0.015625)"/>
      <path id="DejaVuSans-2d" d="M 313 2009 
L 1997 2009 
L 1997 1497 
L 313 1497 
L 313 2009 
z
" transform="scale(0.015625)"/>
      <path id="DejaVuSans-73" d="M 2834 3397 
L 2834 2853 
Q 2591 2978 2328 3040 
Q 2066 3103 1784 3103 
Q 1356 3103 1142 2972 
Q 928 2841 928 2578 
Q 928 2378 1081 2264 
Q 1234 2150 1697 2047 
L 1894 2003 
Q 2506 1872 2764 1633 
Q 3022 1394 3022 966 
Q 3022 478 2636 193 
Q 2250 -91 1575 -91 
Q 1294 -91 989 -36 
Q 684 19 347 128 
L 347 722 
Q 666 556 975 473 
Q 1284 391 1588 391 
Q 1994 391 2212 530 
Q 2431 669 2431 922 
Q 2431 1156 2273 1281 
Q 2116 1406 1581 1522 
L 1381 1569 
Q 847 1681 609 1914 
Q 372 2147 372 2553 
Q 372 3047 722 3315 
Q 1072 3584 1716 3584 
Q 2034 3584 2315 3537 
Q 2597 3491 2834 3397 
z
" transform="scale(0.015625)"/>
      <path id="DejaVuSans-67" d="M 2906 1791 
Q 2906 2416 2648 2759 
Q 2391 3103 1925 3103 
Q 1463 3103 1205 2759 
Q 947 2416 947 1791 
Q 947 1169 1205 825 
Q 1463 481 1925 481 
Q 2391 481 2648 825 
Q 2906 1169 2906 1791 
z
M 3481 434 
Q 3481 -459 3084 -895 
Q 2688 -1331 1869 -1331 
Q 1566 -1331 1297 -1286 
Q 1028 -1241 775 -1147 
L 775 -588 
Q 1028 -725 1275 -790 
Q 1522 -856 1778 -856 
Q 2344 -856 2625 -561 
Q 2906 -266 2906 331 
L 2906 616 
Q 2728 306 2450 153 
Q 2172 0 1784 0 
Q 1141 0 747 490 
Q 353 981 353 1791 
Q 353 2603 747 3093 
Q 1141 3584 1784 3584 
Q 2172 3584 2450 3431 
Q 2728 3278 2906 2969 
L 2906 3500 
L 3481 3500 
L 3481 434 
z
" transform="scale(0.015625)"/>
      <path id="DejaVuSans-79" d="M 2059 -325 
Q 1816 -950 1584 -1140 
Q 1353 -1331 966 -1331 
L 506 -1331 
L 506 -850 
L 844 -850 
Q 1081 -850 1212 -737 
Q 1344 -625 1503 -206 
L 1606 56 
L 191 3500 
L 800 3500 
L 1894 763 
L 2988 3500 
L 3597 3500 
L 2059 -325 
z
" transform="scale(0.015625)"/>
      <path id="DejaVuSans-34" d="M 2419 4116 
L 825 1625 
L 2419 1625 
L 2419 4116 
z
M 2253 4666 
L 3047 4666 
L 3047 1625 
L 3713 1625 
L 3713 1100 
L 3047 1100 
L 3047 0 
L 2419 0 
L 2419 1100 
L 313 1100 
L 313 1709 
L 2253 4666 
z
" transform="scale(0.015625)"/>
     </defs>
     <use xlink:href="#DejaVuSans-50"/>
     <use xlink:href="#DejaVuSans-65" x="56.677734"/>
     <use xlink:href="#DejaVuSans-72" x="118.201172"/>
     <use xlink:href="#DejaVuSans-66" x="159.314453"/>
     <use xlink:href="#DejaVuSans-6f" x="194.519531"/>
     <use xlink:href="#DejaVuSans-72" x="255.701172"/>
     <use xlink:href="#DejaVuSans-6d" x="295.064453"/>
     <use xlink:href="#DejaVuSans-61" x="392.476562"/>
     <use xlink:href="#DejaVuSans-6e" x="453.755859"/>
     <use xlink:href="#DejaVuSans-63" x="517.134766"/>
     <use xlink:href="#DejaVuSans-65" x="572.115234"/>
     <use xlink:href="#DejaVuSans-20" x="633.638672"/>
     <use xlink:href="#DejaVuSans-6f" x="665.425781"/>
     <use xlink:href="#DejaVuSans-66" x="726.607422"/>
     <use xlink:href="#DejaVuSans-20" x="761.8125"/>
     <use xlink:href="#DejaVuSans-41" x="793.599609"/>
     <use xlink:href="#DejaVuSans-56" x="855.632812"/>
     <use xlink:href="#DejaVuSans-41" x="917.666016"/>
     <use xlink:href="#DejaVuSans-4e" x="986.074219"/>
     <use xlink:href="#DejaVuSans-2d" x="1060.878906"/>
     <use xlink:href="#DejaVuSans-73" x="1096.962891"/>
     <use xlink:href="#DejaVuSans-74" x="1149.0625"/>
     <use xlink:href="#DejaVuSans-72" x="1188.271484"/>
     <use xlink:href="#DejaVuSans-61" x="1229.384766"/>
     <use xlink:href="#DejaVuSans-74" x="1290.664062"/>
     <use xlink:href="#DejaVuSans-65" x="1329.873047"/>
     <use xlink:href="#DejaVuSans-67" x="1391.396484"/>
     <use xlink:href="#DejaVuSans-79" x="1454.873047"/>
     <use xlink:href="#DejaVuSans-20" x="1514.052734"/>
     <use xlink:href="#DejaVuSans-79" x="1545.839844"/>
     <use xlink:href="#DejaVuSans-65" x="1605.019531"/>
     <use xlink:href="#DejaVuSans-61" x="1666.542969"/>
     <use xlink:href="#DejaVuSans-72" x="1727.822266"/>
     <use xlink:href="#DejaVuSans-20" x="1768.935547"/>
     <use xlink:href="#DejaVuSans-32" x="1800.722656"/>
     <use xlink:href="#DejaVuSans-30" x="1864.345703"/>
     <use xlink:href="#DejaVuSans-30" x="1927.96875"/>
     <use xlink:href="#DejaVuSans-34" x="1991.591797"/>
    </g>
   </g>
   <g id="legend_1">
    <g id="patch_7">
     <path d="M 63 78.914375 
L 190.421875 78.914375 
Q 192.421875 78.914375 192.421875 76.914375 
L 192.421875 33.88 
Q 192.421875 31.88 190.421875 31.88 
L 63 31.88 
Q 61 31.88 61 33.88 
L 61 76.914375 
Q 61 78.914375 63 78.914375 
z
" style="fill: #ffffff; opacity: 0.8; stroke: #cccccc; stroke-linejoin: miter"/>
    </g>
    <g id="line2d_18">
     <path d="M 65 39.978438 
L 75 39.978438 
L 85 39.978438 
" style="fill: none; stroke: #008000; stroke-width: 1.5; stroke-linecap: square"/>
    </g>
    <g id="text_10">
     <!-- 16.4% return omx -->
     <g transform="translate(93 43.478438)scale(0.1 -0.1)">
      <defs>
       <path id="DejaVuSans-36" d="M 2113 2584 
Q 1688 2584 1439 2293 
Q 1191 2003 1191 1497 
Q 1191 994 1439 701 
Q 1688 409 2113 409 
Q 2538 409 2786 701 
Q 3034 994 3034 1497 
Q 3034 2003 2786 2293 
Q 2538 2584 2113 2584 
z
M 3366 4563 
L 3366 3988 
Q 3128 4100 2886 4159 
Q 2644 4219 2406 4219 
Q 1781 4219 1451 3797 
Q 1122 3375 1075 2522 
Q 1259 2794 1537 2939 
Q 1816 3084 2150 3084 
Q 2853 3084 3261 2657 
Q 3669 2231 3669 1497 
Q 3669 778 3244 343 
Q 2819 -91 2113 -91 
Q 1303 -91 875 529 
Q 447 1150 447 2328 
Q 447 3434 972 4092 
Q 1497 4750 2381 4750 
Q 2619 4750 2861 4703 
Q 3103 4656 3366 4563 
z
" transform="scale(0.015625)"/>
       <path id="DejaVuSans-2e" d="M 684 794 
L 1344 794 
L 1344 0 
L 684 0 
L 684 794 
z
" transform="scale(0.015625)"/>
       <path id="DejaVuSans-78" d="M 3513 3500 
L 2247 1797 
L 3578 0 
L 2900 0 
L 1881 1375 
L 863 0 
L 184 0 
L 1544 1831 
L 300 3500 
L 978 3500 
L 1906 2253 
L 2834 3500 
L 3513 3500 
z
" transform="scale(0.015625)"/>
      </defs>
      <use xlink:href="#DejaVuSans-31"/>
      <use xlink:href="#DejaVuSans-36" x="63.623047"/>
      <use xlink:href="#DejaVuSans-2e" x="127.246094"/>
      <use xlink:href="#DejaVuSans-34" x="159.033203"/>
      <use xlink:href="#DejaVuSans-25" x="222.65625"/>
      <use xlink:href="#DejaVuSans-20" x="317.675781"/>
      <use xlink:href="#DejaVuSans-72" x="349.462891"/>
      <use xlink:href="#DejaVuSans-65" x="388.326172"/>
      <use xlink:href="#DejaVuSans-74" x="449.849609"/>
      <use xlink:href="#DejaVuSans-75" x="489.058594"/>
      <use xlink:href="#DejaVuSans-72" x="552.4375"/>
      <use xlink:href="#DejaVuSans-6e" x="591.800781"/>
      <use xlink:href="#DejaVuSans-20" x="655.179688"/>
      <use xlink:href="#DejaVuSans-6f" x="686.966797"/>
      <use xlink:href="#DejaVuSans-6d" x="748.148438"/>
      <use xlink:href="#DejaVuSans-78" x="845.560547"/>
     </g>
    </g>
    <g id="line2d_19">
     <path d="M 65 54.656563 
L 75 54.656563 
L 85 54.656563 
" style="fill: none; stroke: #0000ff; stroke-width: 1.5; stroke-linecap: square"/>
    </g>
    <g id="text_11">
     <!-- 31.8% return AVAN -->
     <g transform="translate(93 58.156563)scale(0.1 -0.1)">
      <defs>
       <path id="DejaVuSans-38" d="M 2034 2216 
Q 1584 2216 1326 1975 
Q 1069 1734 1069 1313 
Q 1069 891 1326 650 
Q 1584 409 2034 409 
Q 2484 409 2743 651 
Q 3003 894 3003 1313 
Q 3003 1734 2745 1975 
Q 2488 2216 2034 2216 
z
M 1403 2484 
Q 997 2584 770 2862 
Q 544 3141 544 3541 
Q 544 4100 942 4425 
Q 1341 4750 2034 4750 
Q 2731 4750 3128 4425 
Q 3525 4100 3525 3541 
Q 3525 3141 3298 2862 
Q 3072 2584 2669 2484 
Q 3125 2378 3379 2068 
Q 3634 1759 3634 1313 
Q 3634 634 3220 271 
Q 2806 -91 2034 -91 
Q 1263 -91 848 271 
Q 434 634 434 1313 
Q 434 1759 690 2068 
Q 947 2378 1403 2484 
z
M 1172 3481 
Q 1172 3119 1398 2916 
Q 1625 2713 2034 2713 
Q 2441 2713 2670 2916 
Q 2900 3119 2900 3481 
Q 2900 3844 2670 4047 
Q 2441 4250 2034 4250 
Q 1625 4250 1398 4047 
Q 1172 3844 1172 3481 
z
" transform="scale(0.015625)"/>
      </defs>
      <use xlink:href="#DejaVuSans-33"/>
      <use xlink:href="#DejaVuSans-31" x="63.623047"/>
      <use xlink:href="#DejaVuSans-2e" x="127.246094"/>
      <use xlink:href="#DejaVuSans-38" x="159.033203"/>
      <use xlink:href="#DejaVuSans-25" x="222.65625"/>
      <use xlink:href="#DejaVuSans-20" x="317.675781"/>
      <use xlink:href="#DejaVuSans-72" x="349.462891"/>
      <use xlink:href="#DejaVuSans-65" x="388.326172"/>
      <use xlink:href="#DejaVuSans-74" x="449.849609"/>
      <use xlink:href="#DejaVuSans-75" x="489.058594"/>
      <use xlink:href="#DejaVuSans-72" x="552.4375"/>
      <use xlink:href="#DejaVuSans-6e" x="591.800781"/>
      <use xlink:href="#DejaVuSans-20" x="655.179688"/>
      <use xlink:href="#DejaVuSans-41" x="686.966797"/>
      <use xlink:href="#DejaVuSans-56" x="749"/>
      <use xlink:href="#DejaVuSans-41" x="811.033203"/>
      <use xlink:href="#DejaVuSans-4e" x="879.441406"/>
     </g>
    </g>
    <g id="line2d_20">
     <path d="M 65 69.334688 
L 75 69.334688 
L 85 69.334688 
" style="fill: none; stroke: #ff0000; stroke-width: 1.5; stroke-linecap: square"/>
    </g>
    <g id="text_12">
     <!-- cummax -->
     <g transform="translate(93 72.834688)scale(0.1 -0.1)">
      <use xlink:href="#DejaVuSans-63"/>
      <use xlink:href="#DejaVuSans-75" x="54.980469"/>
      <use xlink:href="#DejaVuSans-6d" x="118.359375"/>
      <use xlink:href="#DejaVuSans-6d" x="215.771484"/>
      <use xlink:href="#DejaVuSans-61" x="313.183594"/>
      <use xlink:href="#DejaVuSans-78" x="374.462891"/>
     </g>
    </g>
   </g>
  </g>
  <g id="axes_2">
   <g id="patch_8">
    <path d="M 56 390.04 
L 561.427775 390.04 
L 561.427775 302.955909 
L 56 302.955909 
z
" style="fill: #ffffff"/>
   </g>
   <g id="matplotlib.axis_3">
    <g id="xtick_8">
     <g id="line2d_21">
      <g>
       <use xlink:href="#m943a82c95a" x="77.704709" y="390.04" style="stroke: #000000; stroke-width: 0.8"/>
      </g>
     </g>
     <g id="text_13">
      <!-- 2004-01 -->
      <g transform="translate(56.813302 404.638438)scale(0.1 -0.1)">
       <use xlink:href="#DejaVuSans-32"/>
       <use xlink:href="#DejaVuSans-30" x="63.623047"/>
       <use xlink:href="#DejaVuSans-30" x="127.246094"/>
       <use xlink:href="#DejaVuSans-34" x="190.869141"/>
       <use xlink:href="#DejaVuSans-2d" x="254.492188"/>
       <use xlink:href="#DejaVuSans-30" x="290.576172"/>
       <use xlink:href="#DejaVuSans-31" x="354.199219"/>
      </g>
     </g>
    </g>
    <g id="xtick_9">
     <g id="line2d_22">
      <g>
       <use xlink:href="#m943a82c95a" x="153.861581" y="390.04" style="stroke: #000000; stroke-width: 0.8"/>
      </g>
     </g>
     <g id="text_14">
      <!-- 2004-03 -->
      <g transform="translate(132.970174 404.638438)scale(0.1 -0.1)">
       <use xlink:href="#DejaVuSans-32"/>
       <use xlink:href="#DejaVuSans-30" x="63.623047"/>
       <use xlink:href="#DejaVuSans-30" x="127.246094"/>
       <use xlink:href="#DejaVuSans-34" x="190.869141"/>
       <use xlink:href="#DejaVuSans-2d" x="254.492188"/>
       <use xlink:href="#DejaVuSans-30" x="290.576172"/>
       <use xlink:href="#DejaVuSans-33" x="354.199219"/>
      </g>
     </g>
    </g>
    <g id="xtick_10">
     <g id="line2d_23">
      <g>
       <use xlink:href="#m943a82c95a" x="231.287734" y="390.04" style="stroke: #000000; stroke-width: 0.8"/>
      </g>
     </g>
     <g id="text_15">
      <!-- 2004-05 -->
      <g transform="translate(210.396328 404.638438)scale(0.1 -0.1)">
       <use xlink:href="#DejaVuSans-32"/>
       <use xlink:href="#DejaVuSans-30" x="63.623047"/>
       <use xlink:href="#DejaVuSans-30" x="127.246094"/>
       <use xlink:href="#DejaVuSans-34" x="190.869141"/>
       <use xlink:href="#DejaVuSans-2d" x="254.492188"/>
       <use xlink:href="#DejaVuSans-30" x="290.576172"/>
       <use xlink:href="#DejaVuSans-35" x="354.199219"/>
      </g>
     </g>
    </g>
    <g id="xtick_11">
     <g id="line2d_24">
      <g>
       <use xlink:href="#m943a82c95a" x="308.713887" y="390.04" style="stroke: #000000; stroke-width: 0.8"/>
      </g>
     </g>
     <g id="text_16">
      <!-- 2004-07 -->
      <g transform="translate(287.822481 404.638438)scale(0.1 -0.1)">
       <defs>
        <path id="DejaVuSans-37" d="M 525 4666 
L 3525 4666 
L 3525 4397 
L 1831 0 
L 1172 0 
L 2766 4134 
L 525 4134 
L 525 4666 
z
" transform="scale(0.015625)"/>
       </defs>
       <use xlink:href="#DejaVuSans-32"/>
       <use xlink:href="#DejaVuSans-30" x="63.623047"/>
       <use xlink:href="#DejaVuSans-30" x="127.246094"/>
       <use xlink:href="#DejaVuSans-34" x="190.869141"/>
       <use xlink:href="#DejaVuSans-2d" x="254.492188"/>
       <use xlink:href="#DejaVuSans-30" x="290.576172"/>
       <use xlink:href="#DejaVuSans-37" x="354.199219"/>
      </g>
     </g>
    </g>
    <g id="xtick_12">
     <g id="line2d_25">
      <g>
       <use xlink:href="#m943a82c95a" x="387.409322" y="390.04" style="stroke: #000000; stroke-width: 0.8"/>
      </g>
     </g>
     <g id="text_17">
      <!-- 2004-09 -->
      <g transform="translate(366.517916 404.638438)scale(0.1 -0.1)">
       <defs>
        <path id="DejaVuSans-39" d="M 703 97 
L 703 672 
Q 941 559 1184 500 
Q 1428 441 1663 441 
Q 2288 441 2617 861 
Q 2947 1281 2994 2138 
Q 2813 1869 2534 1725 
Q 2256 1581 1919 1581 
Q 1219 1581 811 2004 
Q 403 2428 403 3163 
Q 403 3881 828 4315 
Q 1253 4750 1959 4750 
Q 2769 4750 3195 4129 
Q 3622 3509 3622 2328 
Q 3622 1225 3098 567 
Q 2575 -91 1691 -91 
Q 1453 -91 1209 -44 
Q 966 3 703 97 
z
M 1959 2075 
Q 2384 2075 2632 2365 
Q 2881 2656 2881 3163 
Q 2881 3666 2632 3958 
Q 2384 4250 1959 4250 
Q 1534 4250 1286 3958 
Q 1038 3666 1038 3163 
Q 1038 2656 1286 2365 
Q 1534 2075 1959 2075 
z
" transform="scale(0.015625)"/>
       </defs>
       <use xlink:href="#DejaVuSans-32"/>
       <use xlink:href="#DejaVuSans-30" x="63.623047"/>
       <use xlink:href="#DejaVuSans-30" x="127.246094"/>
       <use xlink:href="#DejaVuSans-34" x="190.869141"/>
       <use xlink:href="#DejaVuSans-2d" x="254.492188"/>
       <use xlink:href="#DejaVuSans-30" x="290.576172"/>
       <use xlink:href="#DejaVuSans-39" x="354.199219"/>
      </g>
     </g>
    </g>
    <g id="xtick_13">
     <g id="line2d_26">
      <g>
       <use xlink:href="#m943a82c95a" x="464.835475" y="390.04" style="stroke: #000000; stroke-width: 0.8"/>
      </g>
     </g>
     <g id="text_18">
      <!-- 2004-11 -->
      <g transform="translate(443.944069 404.638438)scale(0.1 -0.1)">
       <use xlink:href="#DejaVuSans-32"/>
       <use xlink:href="#DejaVuSans-30" x="63.623047"/>
       <use xlink:href="#DejaVuSans-30" x="127.246094"/>
       <use xlink:href="#DejaVuSans-34" x="190.869141"/>
       <use xlink:href="#DejaVuSans-2d" x="254.492188"/>
       <use xlink:href="#DejaVuSans-31" x="290.576172"/>
       <use xlink:href="#DejaVuSans-31" x="354.199219"/>
      </g>
     </g>
    </g>
    <g id="xtick_14">
     <g id="line2d_27">
      <g>
       <use xlink:href="#m943a82c95a" x="542.261629" y="390.04" style="stroke: #000000; stroke-width: 0.8"/>
      </g>
     </g>
     <g id="text_19">
      <!-- 2005-01 -->
      <g transform="translate(521.370223 404.638438)scale(0.1 -0.1)">
       <use xlink:href="#DejaVuSans-32"/>
       <use xlink:href="#DejaVuSans-30" x="63.623047"/>
       <use xlink:href="#DejaVuSans-30" x="127.246094"/>
       <use xlink:href="#DejaVuSans-35" x="190.869141"/>
       <use xlink:href="#DejaVuSans-2d" x="254.492188"/>
       <use xlink:href="#DejaVuSans-30" x="290.576172"/>
       <use xlink:href="#DejaVuSans-31" x="354.199219"/>
      </g>
     </g>
    </g>
    <g id="text_20">
     <!-- Time -->
     <g transform="translate(296.480294 418.316562)scale(0.1 -0.1)">
      <defs>
       <path id="DejaVuSans-54" d="M -19 4666 
L 3928 4666 
L 3928 4134 
L 2272 4134 
L 2272 0 
L 1638 0 
L 1638 4134 
L -19 4134 
L -19 4666 
z
" transform="scale(0.015625)"/>
       <path id="DejaVuSans-69" d="M 603 3500 
L 1178 3500 
L 1178 0 
L 603 0 
L 603 3500 
z
M 603 4863 
L 1178 4863 
L 1178 4134 
L 603 4134 
L 603 4863 
z
" transform="scale(0.015625)"/>
      </defs>
      <use xlink:href="#DejaVuSans-54"/>
      <use xlink:href="#DejaVuSans-69" x="57.958984"/>
      <use xlink:href="#DejaVuSans-6d" x="85.742188"/>
      <use xlink:href="#DejaVuSans-65" x="183.154297"/>
     </g>
    </g>
   </g>
   <g id="matplotlib.axis_4">
    <g id="ytick_8">
     <g id="line2d_28">
      <g>
       <use xlink:href="#m94a0523e22" x="56" y="383.989174" style="stroke: #000000; stroke-width: 0.8"/>
      </g>
     </g>
     <g id="text_21">
      <!-- −6 -->
      <g transform="translate(34.257812 387.788392)scale(0.1 -0.1)">
       <defs>
        <path id="DejaVuSans-2212" d="M 678 2272 
L 4684 2272 
L 4684 1741 
L 678 1741 
L 678 2272 
z
" transform="scale(0.015625)"/>
       </defs>
       <use xlink:href="#DejaVuSans-2212"/>
       <use xlink:href="#DejaVuSans-36" x="83.789062"/>
      </g>
     </g>
    </g>
    <g id="ytick_9">
     <g id="line2d_29">
      <g>
       <use xlink:href="#m94a0523e22" x="56" y="358.297541" style="stroke: #000000; stroke-width: 0.8"/>
      </g>
     </g>
     <g id="text_22">
      <!-- −4 -->
      <g transform="translate(34.257812 362.09676)scale(0.1 -0.1)">
       <use xlink:href="#DejaVuSans-2212"/>
       <use xlink:href="#DejaVuSans-34" x="83.789062"/>
      </g>
     </g>
    </g>
    <g id="ytick_10">
     <g id="line2d_30">
      <g>
       <use xlink:href="#m94a0523e22" x="56" y="332.605909" style="stroke: #000000; stroke-width: 0.8"/>
      </g>
     </g>
     <g id="text_23">
      <!-- −2 -->
      <g transform="translate(34.257812 336.405128)scale(0.1 -0.1)">
       <use xlink:href="#DejaVuSans-2212"/>
       <use xlink:href="#DejaVuSans-32" x="83.789062"/>
      </g>
     </g>
    </g>
    <g id="ytick_11">
     <g id="line2d_31">
      <g>
       <use xlink:href="#m94a0523e22" x="56" y="306.914277" style="stroke: #000000; stroke-width: 0.8"/>
      </g>
     </g>
     <g id="text_24">
      <!-- 0 -->
      <g transform="translate(42.6375 310.713496)scale(0.1 -0.1)">
       <use xlink:href="#DejaVuSans-30"/>
      </g>
     </g>
    </g>
    <g id="text_25">
     <!-- DD % -->
     <g transform="translate(28.178125 360.537798)rotate(-90)scale(0.1 -0.1)">
      <defs>
       <path id="DejaVuSans-44" d="M 1259 4147 
L 1259 519 
L 2022 519 
Q 2988 519 3436 956 
Q 3884 1394 3884 2338 
Q 3884 3275 3436 3711 
Q 2988 4147 2022 4147 
L 1259 4147 
z
M 628 4666 
L 1925 4666 
Q 3281 4666 3915 4102 
Q 4550 3538 4550 2338 
Q 4550 1131 3912 565 
Q 3275 0 1925 0 
L 628 0 
L 628 4666 
z
" transform="scale(0.015625)"/>
      </defs>
      <use xlink:href="#DejaVuSans-44"/>
      <use xlink:href="#DejaVuSans-44" x="77.001953"/>
      <use xlink:href="#DejaVuSans-20" x="154.003906"/>
      <use xlink:href="#DejaVuSans-25" x="185.791016"/>
     </g>
    </g>
   </g>
   <g id="line2d_32">
    <path d="M 78.97399 306.914277 
L 82.781833 308.08678 
L 84.051115 308.08678 
L 85.320396 306.914277 
L 86.589677 311.239069 
L 87.858958 317.775479 
L 91.666802 339.203858 
L 92.936083 337.722838 
L 94.205364 330.207113 
L 96.743927 308.579159 
L 100.55177 306.914277 
L 101.821051 323.525344 
L 103.090333 332.378184 
L 104.359614 333.575647 
L 105.628895 329.11471 
L 109.436739 328.601579 
L 110.70602 321.150527 
L 111.975301 323.463238 
L 113.244582 322.273685 
L 114.513863 325.69547 
L 118.321707 319.431779 
L 119.590988 338.802172 
L 120.860269 337.153614 
L 122.129551 342.013315 
L 123.398832 337.565323 
L 127.206675 328.194162 
L 128.475957 322.742516 
L 129.745238 322.706305 
L 131.014519 313.389451 
L 132.2838 308.549489 
L 136.091644 306.914277 
L 138.630206 306.914277 
L 139.899488 308.45836 
L 141.168769 309.177579 
L 144.976612 306.914277 
L 146.245894 316.271806 
L 147.515175 330.322725 
L 148.784456 322.523679 
L 150.053737 317.370133 
L 153.861581 306.914277 
L 156.400143 306.914277 
L 157.669424 326.155431 
L 158.938706 308.097161 
L 162.746549 306.914277 
L 164.01583 313.758125 
L 166.554393 373.18401 
L 189.401454 373.18401 
L 190.670736 375.977873 
L 191.940017 386.081632 
L 193.209298 378.853024 
L 194.478579 374.351861 
L 198.286423 364.864336 
L 199.555704 367.784772 
L 200.824985 373.224926 
L 202.094266 367.29301 
L 208.440672 363.385521 
L 209.709954 365.845847 
L 210.979235 372.52294 
L 212.248516 368.439091 
L 216.05636 360.349213 
L 217.325641 347.31135 
L 218.594922 340.408527 
L 219.864203 338.303747 
L 221.133484 316.22684 
L 224.941328 313.432509 
L 226.210609 306.914277 
L 227.479891 320.218617 
L 230.018453 343.736332 
L 233.826297 347.357101 
L 264.289045 347.357101 
L 265.558327 344.970292 
L 269.36617 344.970292 
L 270.635451 331.658846 
L 271.904733 329.259427 
L 273.174014 320.722538 
L 274.443295 310.434812 
L 278.251139 306.914277 
L 282.058982 306.914277 
L 283.328263 307.645011 
L 287.136107 310.590395 
L 288.405388 311.312683 
L 289.674669 338.969825 
L 290.943951 329.981063 
L 292.213232 336.108682 
L 296.021075 320.97791 
L 297.290357 336.362114 
L 308.713887 336.362114 
L 309.983169 332.80325 
L 313.791012 337.617416 
L 315.060294 340.456786 
L 316.329575 344.641359 
L 317.598856 355.54041 
L 318.868137 359.318545 
L 322.675981 353.099808 
L 350.600167 353.099808 
L 351.869448 355.437474 
L 353.13873 353.648917 
L 354.408011 356.370791 
L 358.215854 371.467065 
L 378.524354 371.467065 
L 379.793635 368.030096 
L 381.062916 369.142803 
L 384.87076 369.760741 
L 386.140041 378.284499 
L 387.409322 374.766217 
L 388.678603 375.228559 
L 389.947884 365.753362 
L 393.755728 362.747355 
L 395.025009 368.21251 
L 396.29429 362.664395 
L 397.563572 366.400329 
L 398.832853 363.815284 
L 402.640697 358.570261 
L 403.909978 347.731097 
L 406.44854 345.362179 
L 407.717821 344.711759 
L 411.525665 344.14528 
L 412.794946 345.719592 
L 414.064227 339.341628 
L 415.333509 346.955847 
L 416.60279 348.612726 
L 420.410633 349.940681 
L 421.679915 347.246735 
L 422.949196 335.445954 
L 424.218477 321.546208 
L 425.487758 316.238594 
L 429.295602 306.914277 
L 430.564883 306.914277 
L 431.834164 308.204663 
L 433.103445 309.946257 
L 434.372727 312.718359 
L 438.18057 306.914277 
L 439.449851 306.914277 
L 440.719133 311.280823 
L 441.988414 308.745049 
L 443.257695 315.066908 
L 447.065539 309.495931 
L 448.33482 307.327896 
L 449.604101 309.512823 
L 450.873382 317.311867 
L 455.950507 321.849636 
L 457.219788 321.849636 
L 458.489069 317.786237 
L 459.758351 332.277052 
L 461.027632 332.277052 
L 464.835475 332.67406 
L 467.374038 332.67406 
L 468.643319 326.346798 
L 469.9126 324.435944 
L 473.720444 310.596769 
L 474.989725 306.914277 
L 478.797569 306.914277 
L 482.605412 310.072772 
L 483.874693 306.914277 
L 486.413256 306.914277 
L 487.682537 308.312736 
L 492.759662 314.508912 
L 494.028943 306.914277 
L 496.567506 306.914277 
L 500.375349 312.391661 
L 501.64463 307.8302 
L 502.913912 306.914277 
L 505.452474 306.914277 
L 509.260318 307.352192 
L 510.529599 306.914277 
L 511.79888 312.508027 
L 513.068161 316.243252 
L 514.337442 308.909885 
L 518.145286 309.037242 
L 519.414567 306.914277 
L 521.95313 306.914277 
L 523.222411 314.166427 
L 527.030254 315.240524 
L 528.299536 308.161043 
L 529.568817 306.914277 
L 538.453785 306.914277 
L 538.453785 306.914277 
" clip-path="url(#pbc7e730d9f)" style="fill: none; stroke: #0000ff; stroke-width: 1.5; stroke-linecap: square"/>
   </g>
   <g id="patch_9">
    <path d="M 56 390.04 
L 56 302.955909 
" style="fill: none; stroke: #000000; stroke-width: 0.8; stroke-linejoin: miter; stroke-linecap: square"/>
   </g>
   <g id="patch_10">
    <path d="M 561.427775 390.04 
L 561.427775 302.955909 
" style="fill: none; stroke: #000000; stroke-width: 0.8; stroke-linejoin: miter; stroke-linecap: square"/>
   </g>
   <g id="patch_11">
    <path d="M 56 390.04 
L 561.427775 390.04 
" style="fill: none; stroke: #000000; stroke-width: 0.8; stroke-linejoin: miter; stroke-linecap: square"/>
   </g>
   <g id="patch_12">
    <path d="M 56 302.955909 
L 561.427775 302.955909 
" style="fill: none; stroke: #000000; stroke-width: 0.8; stroke-linejoin: miter; stroke-linecap: square"/>
   </g>
  </g>
 </g>
 <defs>
  <clipPath id="p275b8abd70">
   <rect x="56" y="26.88" width="505.427775" height="261.252273"/>
  </clipPath>
  <clipPath id="pbc7e730d9f">
   <rect x="56" y="302.955909" width="505.427775" height="87.084091"/>
  </clipPath>
 </defs>
</svg>
