<?xml version="1.0" encoding="utf-8" standalone="no"?>
<!DOCTYPE svg PUBLIC "-//W3C//DTD SVG 1.1//EN"
  "http://www.w3.org/Graphics/SVG/1.1/DTD/svg11.dtd">
<svg xmlns:xlink="http://www.w3.org/1999/xlink" width="576pt" height="432pt" viewBox="0 0 576 432" xmlns="http://www.w3.org/2000/svg" version="1.1">
 <metadata>
  <rdf:RDF xmlns:dc="http://purl.org/dc/elements/1.1/" xmlns:cc="http://creativecommons.org/ns#" xmlns:rdf="http://www.w3.org/1999/02/22-rdf-syntax-ns#">
   <cc:Work>
    <dc:type rdf:resource="http://purl.org/dc/dcmitype/StillImage"/>
    <dc:date>2023-01-15T23:56:30.143670</dc:date>
    <dc:format>image/svg+xml</dc:format>
    <dc:creator>
     <cc:Agent>
      <dc:title>Matplotlib v3.5.0, https://matplotlib.org/</dc:title>
     </cc:Agent>
    </dc:creator>
   </cc:Work>
  </rdf:RDF>
 </metadata>
 <defs>
  <style type="text/css">*{stroke-linejoin: round; stroke-linecap: butt}</style>
 </defs>
 <g id="figure_1">
  <g id="patch_1">
   <path d="M 0 432 
L 576 432 
L 576 0 
L 0 0 
z
" style="fill: #ffffff"/>
  </g>
  <g id="axes_1">
   <g id="patch_2">
    <path d="M 52.94 288.132273 
L 560.274083 288.132273 
L 560.274083 26.88 
L 52.94 26.88 
z
" style="fill: #ffffff"/>
   </g>
   <g id="matplotlib.axis_1">
    <g id="xtick_1">
     <g id="line2d_1">
      <defs>
       <path id="mf7fef274b9" d="M 0 0 
L 0 3.5 
" style="stroke: #000000; stroke-width: 0.8"/>
      </defs>
      <g>
       <use xlink:href="#mf7fef274b9" x="78.541758" y="288.132273" style="stroke: #000000; stroke-width: 0.8"/>
      </g>
     </g>
    </g>
    <g id="xtick_2">
     <g id="line2d_2">
      <g>
       <use xlink:href="#mf7fef274b9" x="153.50472" y="288.132273" style="stroke: #000000; stroke-width: 0.8"/>
      </g>
     </g>
    </g>
    <g id="xtick_3">
     <g id="line2d_3">
      <g>
       <use xlink:href="#mf7fef274b9" x="231.0088" y="288.132273" style="stroke: #000000; stroke-width: 0.8"/>
      </g>
     </g>
    </g>
    <g id="xtick_4">
     <g id="line2d_4">
      <g>
       <use xlink:href="#mf7fef274b9" x="308.51288" y="288.132273" style="stroke: #000000; stroke-width: 0.8"/>
      </g>
     </g>
    </g>
    <g id="xtick_5">
     <g id="line2d_5">
      <g>
       <use xlink:href="#mf7fef274b9" x="387.287518" y="288.132273" style="stroke: #000000; stroke-width: 0.8"/>
      </g>
     </g>
    </g>
    <g id="xtick_6">
     <g id="line2d_6">
      <g>
       <use xlink:href="#mf7fef274b9" x="464.791598" y="288.132273" style="stroke: #000000; stroke-width: 0.8"/>
      </g>
     </g>
    </g>
    <g id="xtick_7">
     <g id="line2d_7">
      <g>
       <use xlink:href="#mf7fef274b9" x="542.295678" y="288.132273" style="stroke: #000000; stroke-width: 0.8"/>
      </g>
     </g>
    </g>
   </g>
   <g id="matplotlib.axis_2">
    <g id="ytick_1">
     <g id="line2d_8">
      <defs>
       <path id="m1484ecec67" d="M 0 0 
L -3.5 0 
" style="stroke: #000000; stroke-width: 0.8"/>
      </defs>
      <g>
       <use xlink:href="#m1484ecec67" x="52.94" y="279.128355" style="stroke: #000000; stroke-width: 0.8"/>
      </g>
     </g>
     <g id="text_1">
      <!-- −10 -->
      <g transform="translate(24.835313 282.927574)scale(0.1 -0.1)">
       <defs>
        <path id="DejaVuSans-2212" d="M 678 2272 
L 4684 2272 
L 4684 1741 
L 678 1741 
L 678 2272 
z
" transform="scale(0.015625)"/>
        <path id="DejaVuSans-31" d="M 794 531 
L 1825 531 
L 1825 4091 
L 703 3866 
L 703 4441 
L 1819 4666 
L 2450 4666 
L 2450 531 
L 3481 531 
L 3481 0 
L 794 0 
L 794 531 
z
" transform="scale(0.015625)"/>
        <path id="DejaVuSans-30" d="M 2034 4250 
Q 1547 4250 1301 3770 
Q 1056 3291 1056 2328 
Q 1056 1369 1301 889 
Q 1547 409 2034 409 
Q 2525 409 2770 889 
Q 3016 1369 3016 2328 
Q 3016 3291 2770 3770 
Q 2525 4250 2034 4250 
z
M 2034 4750 
Q 2819 4750 3233 4129 
Q 3647 3509 3647 2328 
Q 3647 1150 3233 529 
Q 2819 -91 2034 -91 
Q 1250 -91 836 529 
Q 422 1150 422 2328 
Q 422 3509 836 4129 
Q 1250 4750 2034 4750 
z
" transform="scale(0.015625)"/>
       </defs>
       <use xlink:href="#DejaVuSans-2212"/>
       <use xlink:href="#DejaVuSans-31" x="83.789062"/>
       <use xlink:href="#DejaVuSans-30" x="147.412109"/>
      </g>
     </g>
    </g>
    <g id="ytick_2">
     <g id="line2d_9">
      <g>
       <use xlink:href="#m1484ecec67" x="52.94" y="248.773778" style="stroke: #000000; stroke-width: 0.8"/>
      </g>
     </g>
     <g id="text_2">
      <!-- 0 -->
      <g transform="translate(39.5775 252.572997)scale(0.1 -0.1)">
       <use xlink:href="#DejaVuSans-30"/>
      </g>
     </g>
    </g>
    <g id="ytick_3">
     <g id="line2d_10">
      <g>
       <use xlink:href="#m1484ecec67" x="52.94" y="218.419201" style="stroke: #000000; stroke-width: 0.8"/>
      </g>
     </g>
     <g id="text_3">
      <!-- 10 -->
      <g transform="translate(33.215 222.21842)scale(0.1 -0.1)">
       <use xlink:href="#DejaVuSans-31"/>
       <use xlink:href="#DejaVuSans-30" x="63.623047"/>
      </g>
     </g>
    </g>
    <g id="ytick_4">
     <g id="line2d_11">
      <g>
       <use xlink:href="#m1484ecec67" x="52.94" y="188.064624" style="stroke: #000000; stroke-width: 0.8"/>
      </g>
     </g>
     <g id="text_4">
      <!-- 20 -->
      <g transform="translate(33.215 191.863843)scale(0.1 -0.1)">
       <defs>
        <path id="DejaVuSans-32" d="M 1228 531 
L 3431 531 
L 3431 0 
L 469 0 
L 469 531 
Q 828 903 1448 1529 
Q 2069 2156 2228 2338 
Q 2531 2678 2651 2914 
Q 2772 3150 2772 3378 
Q 2772 3750 2511 3984 
Q 2250 4219 1831 4219 
Q 1534 4219 1204 4116 
Q 875 4013 500 3803 
L 500 4441 
Q 881 4594 1212 4672 
Q 1544 4750 1819 4750 
Q 2544 4750 2975 4387 
Q 3406 4025 3406 3419 
Q 3406 3131 3298 2873 
Q 3191 2616 2906 2266 
Q 2828 2175 2409 1742 
Q 1991 1309 1228 531 
z
" transform="scale(0.015625)"/>
       </defs>
       <use xlink:href="#DejaVuSans-32"/>
       <use xlink:href="#DejaVuSans-30" x="63.623047"/>
      </g>
     </g>
    </g>
    <g id="ytick_5">
     <g id="line2d_12">
      <g>
       <use xlink:href="#m1484ecec67" x="52.94" y="157.710047" style="stroke: #000000; stroke-width: 0.8"/>
      </g>
     </g>
     <g id="text_5">
      <!-- 30 -->
      <g transform="translate(33.215 161.509266)scale(0.1 -0.1)">
       <defs>
        <path id="DejaVuSans-33" d="M 2597 2516 
Q 3050 2419 3304 2112 
Q 3559 1806 3559 1356 
Q 3559 666 3084 287 
Q 2609 -91 1734 -91 
Q 1441 -91 1130 -33 
Q 819 25 488 141 
L 488 750 
Q 750 597 1062 519 
Q 1375 441 1716 441 
Q 2309 441 2620 675 
Q 2931 909 2931 1356 
Q 2931 1769 2642 2001 
Q 2353 2234 1838 2234 
L 1294 2234 
L 1294 2753 
L 1863 2753 
Q 2328 2753 2575 2939 
Q 2822 3125 2822 3475 
Q 2822 3834 2567 4026 
Q 2313 4219 1838 4219 
Q 1578 4219 1281 4162 
Q 984 4106 628 3988 
L 628 4550 
Q 988 4650 1302 4700 
Q 1616 4750 1894 4750 
Q 2613 4750 3031 4423 
Q 3450 4097 3450 3541 
Q 3450 3153 3228 2886 
Q 3006 2619 2597 2516 
z
" transform="scale(0.015625)"/>
       </defs>
       <use xlink:href="#DejaVuSans-33"/>
       <use xlink:href="#DejaVuSans-30" x="63.623047"/>
      </g>
     </g>
    </g>
    <g id="ytick_6">
     <g id="line2d_13">
      <g>
       <use xlink:href="#m1484ecec67" x="52.94" y="127.35547" style="stroke: #000000; stroke-width: 0.8"/>
      </g>
     </g>
     <g id="text_6">
      <!-- 40 -->
      <g transform="translate(33.215 131.154689)scale(0.1 -0.1)">
       <defs>
        <path id="DejaVuSans-34" d="M 2419 4116 
L 825 1625 
L 2419 1625 
L 2419 4116 
z
M 2253 4666 
L 3047 4666 
L 3047 1625 
L 3713 1625 
L 3713 1100 
L 3047 1100 
L 3047 0 
L 2419 0 
L 2419 1100 
L 313 1100 
L 313 1709 
L 2253 4666 
z
" transform="scale(0.015625)"/>
       </defs>
       <use xlink:href="#DejaVuSans-34"/>
       <use xlink:href="#DejaVuSans-30" x="63.623047"/>
      </g>
     </g>
    </g>
    <g id="ytick_7">
     <g id="line2d_14">
      <g>
       <use xlink:href="#m1484ecec67" x="52.94" y="97.000893" style="stroke: #000000; stroke-width: 0.8"/>
      </g>
     </g>
     <g id="text_7">
      <!-- 50 -->
      <g transform="translate(33.215 100.800112)scale(0.1 -0.1)">
       <defs>
        <path id="DejaVuSans-35" d="M 691 4666 
L 3169 4666 
L 3169 4134 
L 1269 4134 
L 1269 2991 
Q 1406 3038 1543 3061 
Q 1681 3084 1819 3084 
Q 2600 3084 3056 2656 
Q 3513 2228 3513 1497 
Q 3513 744 3044 326 
Q 2575 -91 1722 -91 
Q 1428 -91 1123 -41 
Q 819 9 494 109 
L 494 744 
Q 775 591 1075 516 
Q 1375 441 1709 441 
Q 2250 441 2565 725 
Q 2881 1009 2881 1497 
Q 2881 1984 2565 2268 
Q 2250 2553 1709 2553 
Q 1456 2553 1204 2497 
Q 953 2441 691 2322 
L 691 4666 
z
" transform="scale(0.015625)"/>
       </defs>
       <use xlink:href="#DejaVuSans-35"/>
       <use xlink:href="#DejaVuSans-30" x="63.623047"/>
      </g>
     </g>
    </g>
    <g id="ytick_8">
     <g id="line2d_15">
      <g>
       <use xlink:href="#m1484ecec67" x="52.94" y="66.646316" style="stroke: #000000; stroke-width: 0.8"/>
      </g>
     </g>
     <g id="text_8">
      <!-- 60 -->
      <g transform="translate(33.215 70.445535)scale(0.1 -0.1)">
       <defs>
        <path id="DejaVuSans-36" d="M 2113 2584 
Q 1688 2584 1439 2293 
Q 1191 2003 1191 1497 
Q 1191 994 1439 701 
Q 1688 409 2113 409 
Q 2538 409 2786 701 
Q 3034 994 3034 1497 
Q 3034 2003 2786 2293 
Q 2538 2584 2113 2584 
z
M 3366 4563 
L 3366 3988 
Q 3128 4100 2886 4159 
Q 2644 4219 2406 4219 
Q 1781 4219 1451 3797 
Q 1122 3375 1075 2522 
Q 1259 2794 1537 2939 
Q 1816 3084 2150 3084 
Q 2853 3084 3261 2657 
Q 3669 2231 3669 1497 
Q 3669 778 3244 343 
Q 2819 -91 2113 -91 
Q 1303 -91 875 529 
Q 447 1150 447 2328 
Q 447 3434 972 4092 
Q 1497 4750 2381 4750 
Q 2619 4750 2861 4703 
Q 3103 4656 3366 4563 
z
" transform="scale(0.015625)"/>
       </defs>
       <use xlink:href="#DejaVuSans-36"/>
       <use xlink:href="#DejaVuSans-30" x="63.623047"/>
      </g>
     </g>
    </g>
    <g id="ytick_9">
     <g id="line2d_16">
      <g>
       <use xlink:href="#m1484ecec67" x="52.94" y="36.29174" style="stroke: #000000; stroke-width: 0.8"/>
      </g>
     </g>
     <g id="text_9">
      <!-- 70 -->
      <g transform="translate(33.215 40.090958)scale(0.1 -0.1)">
       <defs>
        <path id="DejaVuSans-37" d="M 525 4666 
L 3525 4666 
L 3525 4397 
L 1831 0 
L 1172 0 
L 2766 4134 
L 525 4134 
L 525 4666 
z
" transform="scale(0.015625)"/>
       </defs>
       <use xlink:href="#DejaVuSans-37"/>
       <use xlink:href="#DejaVuSans-30" x="63.623047"/>
      </g>
     </g>
    </g>
    <g id="text_10">
     <!-- Return [%] -->
     <g transform="translate(18.755625 184.338949)rotate(-90)scale(0.1 -0.1)">
      <defs>
       <path id="DejaVuSans-52" d="M 2841 2188 
Q 3044 2119 3236 1894 
Q 3428 1669 3622 1275 
L 4263 0 
L 3584 0 
L 2988 1197 
Q 2756 1666 2539 1819 
Q 2322 1972 1947 1972 
L 1259 1972 
L 1259 0 
L 628 0 
L 628 4666 
L 2053 4666 
Q 2853 4666 3247 4331 
Q 3641 3997 3641 3322 
Q 3641 2881 3436 2590 
Q 3231 2300 2841 2188 
z
M 1259 4147 
L 1259 2491 
L 2053 2491 
Q 2509 2491 2742 2702 
Q 2975 2913 2975 3322 
Q 2975 3731 2742 3939 
Q 2509 4147 2053 4147 
L 1259 4147 
z
" transform="scale(0.015625)"/>
       <path id="DejaVuSans-65" d="M 3597 1894 
L 3597 1613 
L 953 1613 
Q 991 1019 1311 708 
Q 1631 397 2203 397 
Q 2534 397 2845 478 
Q 3156 559 3463 722 
L 3463 178 
Q 3153 47 2828 -22 
Q 2503 -91 2169 -91 
Q 1331 -91 842 396 
Q 353 884 353 1716 
Q 353 2575 817 3079 
Q 1281 3584 2069 3584 
Q 2775 3584 3186 3129 
Q 3597 2675 3597 1894 
z
M 3022 2063 
Q 3016 2534 2758 2815 
Q 2500 3097 2075 3097 
Q 1594 3097 1305 2825 
Q 1016 2553 972 2059 
L 3022 2063 
z
" transform="scale(0.015625)"/>
       <path id="DejaVuSans-74" d="M 1172 4494 
L 1172 3500 
L 2356 3500 
L 2356 3053 
L 1172 3053 
L 1172 1153 
Q 1172 725 1289 603 
Q 1406 481 1766 481 
L 2356 481 
L 2356 0 
L 1766 0 
Q 1100 0 847 248 
Q 594 497 594 1153 
L 594 3053 
L 172 3053 
L 172 3500 
L 594 3500 
L 594 4494 
L 1172 4494 
z
" transform="scale(0.015625)"/>
       <path id="DejaVuSans-75" d="M 544 1381 
L 544 3500 
L 1119 3500 
L 1119 1403 
Q 1119 906 1312 657 
Q 1506 409 1894 409 
Q 2359 409 2629 706 
Q 2900 1003 2900 1516 
L 2900 3500 
L 3475 3500 
L 3475 0 
L 2900 0 
L 2900 538 
Q 2691 219 2414 64 
Q 2138 -91 1772 -91 
Q 1169 -91 856 284 
Q 544 659 544 1381 
z
M 1991 3584 
L 1991 3584 
z
" transform="scale(0.015625)"/>
       <path id="DejaVuSans-72" d="M 2631 2963 
Q 2534 3019 2420 3045 
Q 2306 3072 2169 3072 
Q 1681 3072 1420 2755 
Q 1159 2438 1159 1844 
L 1159 0 
L 581 0 
L 581 3500 
L 1159 3500 
L 1159 2956 
Q 1341 3275 1631 3429 
Q 1922 3584 2338 3584 
Q 2397 3584 2469 3576 
Q 2541 3569 2628 3553 
L 2631 2963 
z
" transform="scale(0.015625)"/>
       <path id="DejaVuSans-6e" d="M 3513 2113 
L 3513 0 
L 2938 0 
L 2938 2094 
Q 2938 2591 2744 2837 
Q 2550 3084 2163 3084 
Q 1697 3084 1428 2787 
Q 1159 2491 1159 1978 
L 1159 0 
L 581 0 
L 581 3500 
L 1159 3500 
L 1159 2956 
Q 1366 3272 1645 3428 
Q 1925 3584 2291 3584 
Q 2894 3584 3203 3211 
Q 3513 2838 3513 2113 
z
" transform="scale(0.015625)"/>
       <path id="DejaVuSans-20" transform="scale(0.015625)"/>
       <path id="DejaVuSans-5b" d="M 550 4863 
L 1875 4863 
L 1875 4416 
L 1125 4416 
L 1125 -397 
L 1875 -397 
L 1875 -844 
L 550 -844 
L 550 4863 
z
" transform="scale(0.015625)"/>
       <path id="DejaVuSans-25" d="M 4653 2053 
Q 4381 2053 4226 1822 
Q 4072 1591 4072 1178 
Q 4072 772 4226 539 
Q 4381 306 4653 306 
Q 4919 306 5073 539 
Q 5228 772 5228 1178 
Q 5228 1588 5073 1820 
Q 4919 2053 4653 2053 
z
M 4653 2450 
Q 5147 2450 5437 2106 
Q 5728 1763 5728 1178 
Q 5728 594 5436 251 
Q 5144 -91 4653 -91 
Q 4153 -91 3862 251 
Q 3572 594 3572 1178 
Q 3572 1766 3864 2108 
Q 4156 2450 4653 2450 
z
M 1428 4353 
Q 1159 4353 1004 4120 
Q 850 3888 850 3481 
Q 850 3069 1003 2837 
Q 1156 2606 1428 2606 
Q 1700 2606 1854 2837 
Q 2009 3069 2009 3481 
Q 2009 3884 1853 4118 
Q 1697 4353 1428 4353 
z
M 4250 4750 
L 4750 4750 
L 1831 -91 
L 1331 -91 
L 4250 4750 
z
M 1428 4750 
Q 1922 4750 2215 4408 
Q 2509 4066 2509 3481 
Q 2509 2891 2217 2550 
Q 1925 2209 1428 2209 
Q 931 2209 642 2551 
Q 353 2894 353 3481 
Q 353 4063 643 4406 
Q 934 4750 1428 4750 
z
" transform="scale(0.015625)"/>
       <path id="DejaVuSans-5d" d="M 1947 4863 
L 1947 -844 
L 622 -844 
L 622 -397 
L 1369 -397 
L 1369 4416 
L 622 4416 
L 622 4863 
L 1947 4863 
z
" transform="scale(0.015625)"/>
      </defs>
      <use xlink:href="#DejaVuSans-52"/>
      <use xlink:href="#DejaVuSans-65" x="64.982422"/>
      <use xlink:href="#DejaVuSans-74" x="126.505859"/>
      <use xlink:href="#DejaVuSans-75" x="165.714844"/>
      <use xlink:href="#DejaVuSans-72" x="229.09375"/>
      <use xlink:href="#DejaVuSans-6e" x="268.457031"/>
      <use xlink:href="#DejaVuSans-20" x="331.835938"/>
      <use xlink:href="#DejaVuSans-5b" x="363.623047"/>
      <use xlink:href="#DejaVuSans-25" x="402.636719"/>
      <use xlink:href="#DejaVuSans-5d" x="497.65625"/>
     </g>
    </g>
   </g>
   <g id="line2d_17">
    <path d="M 76.00064 246.436928 
L 79.812316 231.912433 
L 83.623992 231.92167 
L 86.16511 228.388685 
L 87.435668 230.910266 
L 88.706227 235.583967 
L 92.517903 243.832217 
L 93.788462 249.073966 
L 95.05902 264.789977 
L 96.329579 265.838327 
L 97.600138 261.972826 
L 101.411814 265.154821 
L 102.682373 276.257169 
L 103.952931 268.244452 
L 105.22349 271.190915 
L 106.494049 273.319943 
L 110.305725 264.485171 
L 111.576283 264.115708 
L 112.846842 257.077448 
L 114.117401 267.787242 
L 115.387959 267.196102 
L 119.199635 274.262072 
L 121.740753 254.574339 
L 123.011312 255.2717 
L 124.28187 242.645319 
L 128.093546 234.387832 
L 129.364105 239.90206 
L 130.634664 239.962097 
L 131.905222 241.573878 
L 133.175781 239.338629 
L 136.987457 237.532881 
L 138.258016 253.128817 
L 139.528574 250.634945 
L 140.799133 246.381508 
L 142.069692 258.532206 
L 145.881368 266.387902 
L 147.151927 266.93286 
L 148.422485 267.186865 
L 149.693044 254.929947 
L 150.963603 256.569437 
L 154.775279 266.323247 
L 156.045837 273.232195 
L 157.316396 261.26161 
L 158.586955 271.075458 
L 159.857513 271.782055 
L 163.66919 268.041247 
L 164.939748 251.849553 
L 166.210307 244.474158 
L 167.480866 243.980002 
L 168.751424 247.831649 
L 172.5631 240.174538 
L 173.833659 245.642583 
L 175.104218 246.238342 
L 176.374776 238.470393 
L 177.645335 246.77868 
L 181.457011 243.827599 
L 182.72757 250.228537 
L 183.998128 244.852857 
L 185.268687 244.266335 
L 186.539246 249.549649 
L 190.350922 259.940782 
L 191.621481 250.727311 
L 192.892039 238.502721 
L 194.162598 222.666634 
L 195.433157 223.88586 
L 199.244833 224.620167 
L 200.515391 228.033077 
L 201.78595 225.65928 
L 203.056509 220.883978 
L 209.409302 208.645532 
L 210.679861 215.355895 
L 211.95042 208.003591 
L 213.220978 197.751007 
L 217.032654 214.677008 
L 218.303213 209.901705 
L 219.573772 197.584749 
L 220.84433 195.423393 
L 222.114889 192.481548 
L 225.926565 190.869768 
L 227.197124 205.357316 
L 228.467682 197.266088 
L 229.738241 199.533664 
L 236.091035 190.694273 
L 237.361593 183.124911 
L 238.632152 186.334616 
L 239.902711 181.919539 
L 243.714387 190.528015 
L 244.984945 197.0167 
L 246.255504 206.82593 
L 247.526063 202.410853 
L 248.796621 199.127255 
L 252.608298 192.144414 
L 253.878856 187.849412 
L 255.149415 190.375612 
L 257.690532 196.988991 
L 261.502208 196.601055 
L 262.772767 195.00313 
L 264.043326 195.012366 
L 265.313884 195.871367 
L 266.584443 193.710011 
L 270.396119 182.13198 
L 271.666678 185.050734 
L 272.937237 196.430179 
L 274.207795 197.372308 
L 275.478354 196.490216 
L 279.29003 196.564109 
L 280.560589 196.864297 
L 283.101706 180.155356 
L 284.372265 183.01869 
L 288.183941 190.020004 
L 289.454499 187.835557 
L 290.725058 194.8692 
L 291.995617 192.975704 
L 297.077852 203.860993 
L 298.34841 204.128853 
L 299.618969 190.486451 
L 300.889528 192.500021 
L 302.160086 188.943945 
L 305.971762 180.857334 
L 307.242321 184.796728 
L 308.51288 176.530005 
L 309.783438 186.343853 
L 311.053997 187.267509 
L 314.865673 190.551107 
L 316.136232 189.987676 
L 317.406791 193.257419 
L 318.677349 193.026505 
L 319.947908 194.809162 
L 323.759584 189.327262 
L 325.030143 185.48947 
L 326.300701 173.190988 
L 327.57126 172.0826 
L 328.841819 163.390995 
L 331.382936 163.390995 
L 332.653495 162.776763 
L 333.924053 158.721913 
L 335.194612 158.426343 
L 336.465171 149.656227 
L 337.73573 150.07649 
L 339.006288 150.07649 
L 341.547406 157.631998 
L 342.817964 158.606456 
L 344.088523 156.047928 
L 345.359082 146.280263 
L 346.62964 144.964053 
L 350.441316 138.918723 
L 351.711875 146.164806 
L 352.982434 148.469328 
L 354.252992 148.737189 
L 355.523551 140.281116 
L 359.335227 144.46066 
L 360.605786 153.286196 
L 363.146903 141.814385 
L 364.417462 147.41636 
L 368.229138 156.001745 
L 369.499697 149.097415 
L 370.770255 150.884689 
L 372.040814 142.927391 
L 373.311373 130.282537 
L 377.123049 126.684896 
L 378.393607 129.257278 
L 379.664166 135.385738 
L 380.934725 135.773673 
L 382.205284 127.47924 
L 386.01696 134.43899 
L 388.558077 148.981958 
L 389.828636 146.243317 
L 391.099194 140.650578 
L 394.91087 135.00242 
L 396.181429 134.051054 
L 397.451988 126.75417 
L 398.722546 129.040219 
L 399.993105 128.273585 
L 405.07534 130.638145 
L 407.616457 125.673492 
L 408.887016 127.331455 
L 412.698692 130.647381 
L 413.969251 126.403181 
L 415.239809 126.05681 
L 416.510368 135.810619 
L 417.780927 136.734276 
L 421.592603 130.416467 
L 422.863161 135.371883 
L 424.13372 138.170561 
L 425.404279 146.682053 
L 426.674838 151.52663 
L 430.486514 147.559527 
L 431.757072 140.424282 
L 433.027631 143.403074 
L 434.29819 138.821739 
L 435.568748 136.812787 
L 439.380424 131.691113 
L 440.650983 135.274899 
L 441.921542 123.470572 
L 443.1921 124.181787 
L 444.462659 123.853889 
L 448.274335 117.42986 
L 449.544894 116.968032 
L 450.815453 118.099511 
L 452.086011 123.98782 
L 453.35657 121.761808 
L 457.168246 128.250493 
L 458.438805 123.031835 
L 459.709363 125.46567 
L 460.979922 118.284242 
L 462.250481 116.044376 
L 466.062157 121.868029 
L 467.332716 127.77481 
L 468.603274 119.39263 
L 469.873833 116.252199 
L 471.144392 117.517608 
L 474.956068 108.75211 
L 476.226626 109.897444 
L 477.497185 106.863233 
L 478.767744 104.180011 
L 480.038302 105.52855 
L 483.849978 102.032511 
L 485.120537 106.877088 
L 486.391096 106.249001 
L 487.661654 112.9178 
L 488.932213 112.857762 
L 492.743889 101.82007 
L 494.014448 106.406023 
L 495.285007 103.690474 
L 496.555565 118.348898 
L 497.826124 112.414407 
L 501.6378 119.960678 
L 502.908359 111.790939 
L 504.178917 110.303852 
L 505.449476 111.43995 
L 506.720035 105.745609 
L 510.531711 106.128926 
L 511.80227 111.97567 
L 513.072828 115.915064 
L 515.613946 113.656725 
L 519.425622 110.696406 
L 520.69618 114.012332 
L 521.966739 109.149282 
L 523.237298 115.162284 
L 524.507856 120.034571 
L 528.319532 114.330994 
L 529.590091 108.096314 
L 530.86065 108.253336 
L 537.213443 106.632319 
L 537.213443 106.632319 
" clip-path="url(#p44b835f3a9)" style="fill: none; stroke: #008000; stroke-width: 1.5; stroke-linecap: square"/>
   </g>
   <g id="line2d_18">
    <path d="M 76.00064 248.773778 
L 79.812316 248.773778 
L 83.623992 230.897118 
L 86.16511 225.634398 
L 87.435668 228.452794 
L 88.706227 227.661342 
L 92.517903 231.263535 
L 93.788462 234.443712 
L 95.05902 233.450737 
L 96.329579 246.42978 
L 97.600138 241.989588 
L 101.411814 240.801906 
L 103.952931 255.489287 
L 105.22349 247.507963 
L 106.494049 252.187433 
L 110.305725 253.537556 
L 112.846842 239.832188 
L 114.117401 236.591325 
L 115.387959 242.098664 
L 119.199635 243.289832 
L 120.470194 242.650456 
L 121.740753 238.525074 
L 123.011312 240.092695 
L 124.28187 233.480977 
L 128.093546 225.726194 
L 129.364105 223.510231 
L 130.634664 227.302501 
L 131.905222 224.174606 
L 133.175781 228.852179 
L 136.987457 224.600731 
L 138.258016 224.237456 
L 139.528574 232.19656 
L 140.799133 227.607661 
L 142.069692 232.36673 
L 145.881368 234.949288 
L 147.151927 242.440721 
L 167.480866 242.440721 
L 168.751424 236.262049 
L 172.5631 240.939845 
L 173.833659 238.254742 
L 175.104218 237.013165 
L 176.374776 238.112746 
L 177.645335 238.814894 
L 181.457011 231.340229 
L 182.72757 222.066582 
L 183.998128 229.436702 
L 185.268687 224.256571 
L 186.539246 221.562564 
L 190.350922 224.761299 
L 191.621481 229.118697 
L 192.892039 226.476569 
L 194.162598 220.412205 
L 195.433157 212.590132 
L 199.244833 200.202422 
L 200.515391 198.771802 
L 201.78595 205.395819 
L 203.056509 192.128917 
L 209.409302 182.631562 
L 210.679861 178.663909 
L 211.95042 172.386673 
L 213.220978 164.744443 
L 217.032654 160.409984 
L 218.303213 179.545725 
L 219.573772 170.894406 
L 220.84433 165.398942 
L 222.114889 155.339906 
L 225.926565 152.897495 
L 227.197124 154.12537 
L 228.467682 158.384643 
L 229.738241 152.071586 
L 234.820476 141.337886 
L 236.091035 133.98449 
L 237.361593 132.514568 
L 238.632152 126.350627 
L 239.902711 128.480484 
L 243.714387 124.680981 
L 244.984945 131.671104 
L 246.255504 130.424798 
L 247.526063 142.839547 
L 248.796621 134.932421 
L 252.608298 132.324955 
L 255.149415 126.029227 
L 261.502208 131.90618 
L 262.772767 134.378087 
L 264.043326 125.399469 
L 265.313884 132.066888 
L 266.584443 129.807051 
L 270.396119 127.032249 
L 271.666678 124.117278 
L 272.937237 123.782828 
L 274.207795 128.311832 
L 275.478354 127.417778 
L 279.29003 126.272008 
L 280.560589 121.726622 
L 281.831147 118.389976 
L 283.101706 113.493194 
L 284.372265 118.625629 
L 288.183941 116.332007 
L 289.454499 126.330248 
L 290.725058 133.128612 
L 302.160086 133.128612 
L 305.971762 134.789197 
L 307.242321 132.904609 
L 317.406791 132.904609 
L 318.677349 132.574458 
L 319.947908 134.105937 
L 326.300701 134.105937 
L 327.57126 126.101249 
L 328.841819 125.790961 
L 331.382936 125.790961 
L 332.653495 123.926967 
L 333.924053 121.82764 
L 335.194612 121.38176 
L 336.465171 118.756464 
L 337.73573 117.67597 
L 339.006288 117.67597 
L 341.547406 113.70475 
L 342.817964 115.622016 
L 344.088523 117.1239 
L 345.359082 111.09232 
L 346.62964 106.316075 
L 350.441316 105.621905 
L 351.711875 98.078497 
L 352.982434 99.524041 
L 354.252992 95.030828 
L 355.523551 96.176008 
L 359.335227 90.057918 
L 360.605786 90.074957 
L 361.876345 94.123372 
L 363.146903 90.539516 
L 364.417462 87.362219 
L 368.229138 90.153807 
L 369.499697 94.110083 
L 370.770255 90.908941 
L 372.040814 92.530196 
L 373.311373 92.141005 
L 377.123049 83.473951 
L 378.393607 79.27215 
L 379.664166 81.835717 
L 380.934725 80.818247 
L 382.205284 74.990603 
L 386.01696 75.095227 
L 387.287518 83.91756 
L 388.558077 91.90745 
L 389.828636 96.848581 
L 391.099194 86.644332 
L 394.91087 79.549126 
L 396.181429 69.888612 
L 397.451988 73.113168 
L 398.722546 66.188567 
L 399.993105 67.699655 
L 403.804781 67.266007 
L 405.07534 67.288363 
L 406.345899 64.53205 
L 407.616457 59.007453 
L 408.887016 65.913409 
L 412.698692 65.283259 
L 413.969251 70.264848 
L 415.239809 67.991569 
L 416.510368 70.505828 
L 417.780927 74.337021 
L 421.592603 77.920165 
L 422.863161 69.247022 
L 424.13372 65.652391 
L 425.404279 62.491604 
L 426.674838 74.546453 
L 430.486514 81.268487 
L 431.757072 75.660538 
L 433.027631 71.181077 
L 434.29819 72.46206 
L 435.568748 73.250144 
L 439.380424 70.466307 
L 440.650983 68.512538 
L 441.921542 68.117073 
L 443.1921 66.388648 
L 444.462659 74.336651 
L 448.274335 75.194994 
L 449.544894 71.59995 
L 450.815453 71.678238 
L 452.086011 75.847831 
L 453.35657 76.247034 
L 457.168246 72.531136 
L 460.979922 72.531136 
L 462.250481 63.885491 
L 468.603274 63.764152 
L 469.873833 64.266211 
L 471.144392 55.440572 
L 474.956068 56.866006 
L 476.226626 52.619495 
L 477.497185 53.182711 
L 478.767744 50.761617 
L 480.038302 51.080425 
L 483.849978 44.16237 
L 485.120537 45.195307 
L 486.391096 46.856231 
L 487.661654 46.822316 
L 488.932213 47.550149 
L 492.743889 48.814197 
L 494.014448 42.369209 
L 495.285007 38.755103 
L 496.555565 39.2468 
L 497.826124 57.115577 
L 501.6378 46.687154 
L 502.908359 49.847369 
L 504.178917 45.374979 
L 505.449476 44.984985 
L 506.720035 46.08598 
L 510.531711 41.196151 
L 511.80227 41.363905 
L 513.072828 44.435227 
L 514.343387 46.250699 
L 515.613946 44.932611 
L 519.425622 44.648242 
L 520.69618 45.745794 
L 537.213443 45.745794 
L 537.213443 45.745794 
" clip-path="url(#p44b835f3a9)" style="fill: none; stroke: #0000ff; stroke-width: 1.5; stroke-linecap: square"/>
   </g>
   <g id="line2d_19">
    <path d="M 76.00064 248.773778 
L 79.812316 248.773778 
L 83.623992 230.897118 
L 86.16511 225.634398 
L 128.093546 225.634398 
L 129.364105 223.510231 
L 181.457011 223.510231 
L 182.72757 222.066582 
L 185.268687 222.066582 
L 186.539246 221.562564 
L 192.892039 221.562564 
L 194.162598 220.412205 
L 195.433157 212.590132 
L 199.244833 200.202422 
L 200.515391 198.771802 
L 201.78595 198.771802 
L 203.056509 192.128917 
L 209.409302 182.631562 
L 210.679861 178.663909 
L 211.95042 172.386673 
L 213.220978 164.744443 
L 217.032654 160.409984 
L 220.84433 160.409984 
L 222.114889 155.339906 
L 225.926565 152.897495 
L 228.467682 152.897495 
L 229.738241 152.071586 
L 234.820476 141.337886 
L 236.091035 133.98449 
L 237.361593 132.514568 
L 238.632152 126.350627 
L 239.902711 126.350627 
L 243.714387 124.680981 
L 270.396119 124.680981 
L 271.666678 124.117278 
L 272.937237 123.782828 
L 279.29003 123.782828 
L 280.560589 121.726622 
L 281.831147 118.389976 
L 283.101706 113.493194 
L 344.088523 113.493194 
L 345.359082 111.09232 
L 346.62964 106.316075 
L 350.441316 105.621905 
L 351.711875 98.078497 
L 352.982434 98.078497 
L 354.252992 95.030828 
L 355.523551 95.030828 
L 359.335227 90.057918 
L 363.146903 90.057918 
L 364.417462 87.362219 
L 373.311373 87.362219 
L 377.123049 83.473951 
L 378.393607 79.27215 
L 380.934725 79.27215 
L 382.205284 74.990603 
L 394.91087 74.990603 
L 396.181429 69.888612 
L 397.451988 69.888612 
L 398.722546 66.188567 
L 405.07534 66.188567 
L 406.345899 64.53205 
L 407.616457 59.007453 
L 469.873833 59.007453 
L 471.144392 55.440572 
L 474.956068 55.440572 
L 476.226626 52.619495 
L 477.497185 52.619495 
L 478.767744 50.761617 
L 480.038302 50.761617 
L 483.849978 44.16237 
L 492.743889 44.16237 
L 494.014448 42.369209 
L 495.285007 38.755103 
L 537.213443 38.755103 
L 537.213443 38.755103 
" clip-path="url(#p44b835f3a9)" style="fill: none; stroke: #ff0000; stroke-width: 1.5; stroke-linecap: square"/>
   </g>
   <g id="patch_3">
    <path d="M 52.94 288.132273 
L 52.94 26.88 
" style="fill: none; stroke: #000000; stroke-width: 0.8; stroke-linejoin: miter; stroke-linecap: square"/>
   </g>
   <g id="patch_4">
    <path d="M 560.274083 288.132273 
L 560.274083 26.88 
" style="fill: none; stroke: #000000; stroke-width: 0.8; stroke-linejoin: miter; stroke-linecap: square"/>
   </g>
   <g id="patch_5">
    <path d="M 52.94 288.132273 
L 560.274083 288.132273 
" style="fill: none; stroke: #000000; stroke-width: 0.8; stroke-linejoin: miter; stroke-linecap: square"/>
   </g>
   <g id="patch_6">
    <path d="M 52.94 26.88 
L 560.274083 26.88 
" style="fill: none; stroke: #000000; stroke-width: 0.8; stroke-linejoin: miter; stroke-linecap: square"/>
   </g>
   <g id="text_11">
    <!-- Performance of AVAN-strategy year 2009 -->
    <g transform="translate(183.293917 20.88)scale(0.12 -0.12)">
     <defs>
      <path id="DejaVuSans-50" d="M 1259 4147 
L 1259 2394 
L 2053 2394 
Q 2494 2394 2734 2622 
Q 2975 2850 2975 3272 
Q 2975 3691 2734 3919 
Q 2494 4147 2053 4147 
L 1259 4147 
z
M 628 4666 
L 2053 4666 
Q 2838 4666 3239 4311 
Q 3641 3956 3641 3272 
Q 3641 2581 3239 2228 
Q 2838 1875 2053 1875 
L 1259 1875 
L 1259 0 
L 628 0 
L 628 4666 
z
" transform="scale(0.015625)"/>
      <path id="DejaVuSans-66" d="M 2375 4863 
L 2375 4384 
L 1825 4384 
Q 1516 4384 1395 4259 
Q 1275 4134 1275 3809 
L 1275 3500 
L 2222 3500 
L 2222 3053 
L 1275 3053 
L 1275 0 
L 697 0 
L 697 3053 
L 147 3053 
L 147 3500 
L 697 3500 
L 697 3744 
Q 697 4328 969 4595 
Q 1241 4863 1831 4863 
L 2375 4863 
z
" transform="scale(0.015625)"/>
      <path id="DejaVuSans-6f" d="M 1959 3097 
Q 1497 3097 1228 2736 
Q 959 2375 959 1747 
Q 959 1119 1226 758 
Q 1494 397 1959 397 
Q 2419 397 2687 759 
Q 2956 1122 2956 1747 
Q 2956 2369 2687 2733 
Q 2419 3097 1959 3097 
z
M 1959 3584 
Q 2709 3584 3137 3096 
Q 3566 2609 3566 1747 
Q 3566 888 3137 398 
Q 2709 -91 1959 -91 
Q 1206 -91 779 398 
Q 353 888 353 1747 
Q 353 2609 779 3096 
Q 1206 3584 1959 3584 
z
" transform="scale(0.015625)"/>
      <path id="DejaVuSans-6d" d="M 3328 2828 
Q 3544 3216 3844 3400 
Q 4144 3584 4550 3584 
Q 5097 3584 5394 3201 
Q 5691 2819 5691 2113 
L 5691 0 
L 5113 0 
L 5113 2094 
Q 5113 2597 4934 2840 
Q 4756 3084 4391 3084 
Q 3944 3084 3684 2787 
Q 3425 2491 3425 1978 
L 3425 0 
L 2847 0 
L 2847 2094 
Q 2847 2600 2669 2842 
Q 2491 3084 2119 3084 
Q 1678 3084 1418 2786 
Q 1159 2488 1159 1978 
L 1159 0 
L 581 0 
L 581 3500 
L 1159 3500 
L 1159 2956 
Q 1356 3278 1631 3431 
Q 1906 3584 2284 3584 
Q 2666 3584 2933 3390 
Q 3200 3197 3328 2828 
z
" transform="scale(0.015625)"/>
      <path id="DejaVuSans-61" d="M 2194 1759 
Q 1497 1759 1228 1600 
Q 959 1441 959 1056 
Q 959 750 1161 570 
Q 1363 391 1709 391 
Q 2188 391 2477 730 
Q 2766 1069 2766 1631 
L 2766 1759 
L 2194 1759 
z
M 3341 1997 
L 3341 0 
L 2766 0 
L 2766 531 
Q 2569 213 2275 61 
Q 1981 -91 1556 -91 
Q 1019 -91 701 211 
Q 384 513 384 1019 
Q 384 1609 779 1909 
Q 1175 2209 1959 2209 
L 2766 2209 
L 2766 2266 
Q 2766 2663 2505 2880 
Q 2244 3097 1772 3097 
Q 1472 3097 1187 3025 
Q 903 2953 641 2809 
L 641 3341 
Q 956 3463 1253 3523 
Q 1550 3584 1831 3584 
Q 2591 3584 2966 3190 
Q 3341 2797 3341 1997 
z
" transform="scale(0.015625)"/>
      <path id="DejaVuSans-63" d="M 3122 3366 
L 3122 2828 
Q 2878 2963 2633 3030 
Q 2388 3097 2138 3097 
Q 1578 3097 1268 2742 
Q 959 2388 959 1747 
Q 959 1106 1268 751 
Q 1578 397 2138 397 
Q 2388 397 2633 464 
Q 2878 531 3122 666 
L 3122 134 
Q 2881 22 2623 -34 
Q 2366 -91 2075 -91 
Q 1284 -91 818 406 
Q 353 903 353 1747 
Q 353 2603 823 3093 
Q 1294 3584 2113 3584 
Q 2378 3584 2631 3529 
Q 2884 3475 3122 3366 
z
" transform="scale(0.015625)"/>
      <path id="DejaVuSans-41" d="M 2188 4044 
L 1331 1722 
L 3047 1722 
L 2188 4044 
z
M 1831 4666 
L 2547 4666 
L 4325 0 
L 3669 0 
L 3244 1197 
L 1141 1197 
L 716 0 
L 50 0 
L 1831 4666 
z
" transform="scale(0.015625)"/>
      <path id="DejaVuSans-56" d="M 1831 0 
L 50 4666 
L 709 4666 
L 2188 738 
L 3669 4666 
L 4325 4666 
L 2547 0 
L 1831 0 
z
" transform="scale(0.015625)"/>
      <path id="DejaVuSans-4e" d="M 628 4666 
L 1478 4666 
L 3547 763 
L 3547 4666 
L 4159 4666 
L 4159 0 
L 3309 0 
L 1241 3903 
L 1241 0 
L 628 0 
L 628 4666 
z
" transform="scale(0.015625)"/>
      <path id="DejaVuSans-2d" d="M 313 2009 
L 1997 2009 
L 1997 1497 
L 313 1497 
L 313 2009 
z
" transform="scale(0.015625)"/>
      <path id="DejaVuSans-73" d="M 2834 3397 
L 2834 2853 
Q 2591 2978 2328 3040 
Q 2066 3103 1784 3103 
Q 1356 3103 1142 2972 
Q 928 2841 928 2578 
Q 928 2378 1081 2264 
Q 1234 2150 1697 2047 
L 1894 2003 
Q 2506 1872 2764 1633 
Q 3022 1394 3022 966 
Q 3022 478 2636 193 
Q 2250 -91 1575 -91 
Q 1294 -91 989 -36 
Q 684 19 347 128 
L 347 722 
Q 666 556 975 473 
Q 1284 391 1588 391 
Q 1994 391 2212 530 
Q 2431 669 2431 922 
Q 2431 1156 2273 1281 
Q 2116 1406 1581 1522 
L 1381 1569 
Q 847 1681 609 1914 
Q 372 2147 372 2553 
Q 372 3047 722 3315 
Q 1072 3584 1716 3584 
Q 2034 3584 2315 3537 
Q 2597 3491 2834 3397 
z
" transform="scale(0.015625)"/>
      <path id="DejaVuSans-67" d="M 2906 1791 
Q 2906 2416 2648 2759 
Q 2391 3103 1925 3103 
Q 1463 3103 1205 2759 
Q 947 2416 947 1791 
Q 947 1169 1205 825 
Q 1463 481 1925 481 
Q 2391 481 2648 825 
Q 2906 1169 2906 1791 
z
M 3481 434 
Q 3481 -459 3084 -895 
Q 2688 -1331 1869 -1331 
Q 1566 -1331 1297 -1286 
Q 1028 -1241 775 -1147 
L 775 -588 
Q 1028 -725 1275 -790 
Q 1522 -856 1778 -856 
Q 2344 -856 2625 -561 
Q 2906 -266 2906 331 
L 2906 616 
Q 2728 306 2450 153 
Q 2172 0 1784 0 
Q 1141 0 747 490 
Q 353 981 353 1791 
Q 353 2603 747 3093 
Q 1141 3584 1784 3584 
Q 2172 3584 2450 3431 
Q 2728 3278 2906 2969 
L 2906 3500 
L 3481 3500 
L 3481 434 
z
" transform="scale(0.015625)"/>
      <path id="DejaVuSans-79" d="M 2059 -325 
Q 1816 -950 1584 -1140 
Q 1353 -1331 966 -1331 
L 506 -1331 
L 506 -850 
L 844 -850 
Q 1081 -850 1212 -737 
Q 1344 -625 1503 -206 
L 1606 56 
L 191 3500 
L 800 3500 
L 1894 763 
L 2988 3500 
L 3597 3500 
L 2059 -325 
z
" transform="scale(0.015625)"/>
      <path id="DejaVuSans-39" d="M 703 97 
L 703 672 
Q 941 559 1184 500 
Q 1428 441 1663 441 
Q 2288 441 2617 861 
Q 2947 1281 2994 2138 
Q 2813 1869 2534 1725 
Q 2256 1581 1919 1581 
Q 1219 1581 811 2004 
Q 403 2428 403 3163 
Q 403 3881 828 4315 
Q 1253 4750 1959 4750 
Q 2769 4750 3195 4129 
Q 3622 3509 3622 2328 
Q 3622 1225 3098 567 
Q 2575 -91 1691 -91 
Q 1453 -91 1209 -44 
Q 966 3 703 97 
z
M 1959 2075 
Q 2384 2075 2632 2365 
Q 2881 2656 2881 3163 
Q 2881 3666 2632 3958 
Q 2384 4250 1959 4250 
Q 1534 4250 1286 3958 
Q 1038 3666 1038 3163 
Q 1038 2656 1286 2365 
Q 1534 2075 1959 2075 
z
" transform="scale(0.015625)"/>
     </defs>
     <use xlink:href="#DejaVuSans-50"/>
     <use xlink:href="#DejaVuSans-65" x="56.677734"/>
     <use xlink:href="#DejaVuSans-72" x="118.201172"/>
     <use xlink:href="#DejaVuSans-66" x="159.314453"/>
     <use xlink:href="#DejaVuSans-6f" x="194.519531"/>
     <use xlink:href="#DejaVuSans-72" x="255.701172"/>
     <use xlink:href="#DejaVuSans-6d" x="295.064453"/>
     <use xlink:href="#DejaVuSans-61" x="392.476562"/>
     <use xlink:href="#DejaVuSans-6e" x="453.755859"/>
     <use xlink:href="#DejaVuSans-63" x="517.134766"/>
     <use xlink:href="#DejaVuSans-65" x="572.115234"/>
     <use xlink:href="#DejaVuSans-20" x="633.638672"/>
     <use xlink:href="#DejaVuSans-6f" x="665.425781"/>
     <use xlink:href="#DejaVuSans-66" x="726.607422"/>
     <use xlink:href="#DejaVuSans-20" x="761.8125"/>
     <use xlink:href="#DejaVuSans-41" x="793.599609"/>
     <use xlink:href="#DejaVuSans-56" x="855.632812"/>
     <use xlink:href="#DejaVuSans-41" x="917.666016"/>
     <use xlink:href="#DejaVuSans-4e" x="986.074219"/>
     <use xlink:href="#DejaVuSans-2d" x="1060.878906"/>
     <use xlink:href="#DejaVuSans-73" x="1096.962891"/>
     <use xlink:href="#DejaVuSans-74" x="1149.0625"/>
     <use xlink:href="#DejaVuSans-72" x="1188.271484"/>
     <use xlink:href="#DejaVuSans-61" x="1229.384766"/>
     <use xlink:href="#DejaVuSans-74" x="1290.664062"/>
     <use xlink:href="#DejaVuSans-65" x="1329.873047"/>
     <use xlink:href="#DejaVuSans-67" x="1391.396484"/>
     <use xlink:href="#DejaVuSans-79" x="1454.873047"/>
     <use xlink:href="#DejaVuSans-20" x="1514.052734"/>
     <use xlink:href="#DejaVuSans-79" x="1545.839844"/>
     <use xlink:href="#DejaVuSans-65" x="1605.019531"/>
     <use xlink:href="#DejaVuSans-61" x="1666.542969"/>
     <use xlink:href="#DejaVuSans-72" x="1727.822266"/>
     <use xlink:href="#DejaVuSans-20" x="1768.935547"/>
     <use xlink:href="#DejaVuSans-32" x="1800.722656"/>
     <use xlink:href="#DejaVuSans-30" x="1864.345703"/>
     <use xlink:href="#DejaVuSans-30" x="1927.96875"/>
     <use xlink:href="#DejaVuSans-39" x="1991.591797"/>
    </g>
   </g>
   <g id="legend_1">
    <g id="patch_7">
     <path d="M 59.94 78.914375 
L 187.361875 78.914375 
Q 189.361875 78.914375 189.361875 76.914375 
L 189.361875 33.88 
Q 189.361875 31.88 187.361875 31.88 
L 59.94 31.88 
Q 57.94 31.88 57.94 33.88 
L 57.94 76.914375 
Q 57.94 78.914375 59.94 78.914375 
z
" style="fill: #ffffff; opacity: 0.8; stroke: #cccccc; stroke-linejoin: miter"/>
    </g>
    <g id="line2d_20">
     <path d="M 61.94 39.978438 
L 71.94 39.978438 
L 81.94 39.978438 
" style="fill: none; stroke: #008000; stroke-width: 1.5; stroke-linecap: square"/>
    </g>
    <g id="text_12">
     <!-- 46.8% return omx -->
     <g transform="translate(89.94 43.478438)scale(0.1 -0.1)">
      <defs>
       <path id="DejaVuSans-2e" d="M 684 794 
L 1344 794 
L 1344 0 
L 684 0 
L 684 794 
z
" transform="scale(0.015625)"/>
       <path id="DejaVuSans-38" d="M 2034 2216 
Q 1584 2216 1326 1975 
Q 1069 1734 1069 1313 
Q 1069 891 1326 650 
Q 1584 409 2034 409 
Q 2484 409 2743 651 
Q 3003 894 3003 1313 
Q 3003 1734 2745 1975 
Q 2488 2216 2034 2216 
z
M 1403 2484 
Q 997 2584 770 2862 
Q 544 3141 544 3541 
Q 544 4100 942 4425 
Q 1341 4750 2034 4750 
Q 2731 4750 3128 4425 
Q 3525 4100 3525 3541 
Q 3525 3141 3298 2862 
Q 3072 2584 2669 2484 
Q 3125 2378 3379 2068 
Q 3634 1759 3634 1313 
Q 3634 634 3220 271 
Q 2806 -91 2034 -91 
Q 1263 -91 848 271 
Q 434 634 434 1313 
Q 434 1759 690 2068 
Q 947 2378 1403 2484 
z
M 1172 3481 
Q 1172 3119 1398 2916 
Q 1625 2713 2034 2713 
Q 2441 2713 2670 2916 
Q 2900 3119 2900 3481 
Q 2900 3844 2670 4047 
Q 2441 4250 2034 4250 
Q 1625 4250 1398 4047 
Q 1172 3844 1172 3481 
z
" transform="scale(0.015625)"/>
       <path id="DejaVuSans-78" d="M 3513 3500 
L 2247 1797 
L 3578 0 
L 2900 0 
L 1881 1375 
L 863 0 
L 184 0 
L 1544 1831 
L 300 3500 
L 978 3500 
L 1906 2253 
L 2834 3500 
L 3513 3500 
z
" transform="scale(0.015625)"/>
      </defs>
      <use xlink:href="#DejaVuSans-34"/>
      <use xlink:href="#DejaVuSans-36" x="63.623047"/>
      <use xlink:href="#DejaVuSans-2e" x="127.246094"/>
      <use xlink:href="#DejaVuSans-38" x="159.033203"/>
      <use xlink:href="#DejaVuSans-25" x="222.65625"/>
      <use xlink:href="#DejaVuSans-20" x="317.675781"/>
      <use xlink:href="#DejaVuSans-72" x="349.462891"/>
      <use xlink:href="#DejaVuSans-65" x="388.326172"/>
      <use xlink:href="#DejaVuSans-74" x="449.849609"/>
      <use xlink:href="#DejaVuSans-75" x="489.058594"/>
      <use xlink:href="#DejaVuSans-72" x="552.4375"/>
      <use xlink:href="#DejaVuSans-6e" x="591.800781"/>
      <use xlink:href="#DejaVuSans-20" x="655.179688"/>
      <use xlink:href="#DejaVuSans-6f" x="686.966797"/>
      <use xlink:href="#DejaVuSans-6d" x="748.148438"/>
      <use xlink:href="#DejaVuSans-78" x="845.560547"/>
     </g>
    </g>
    <g id="line2d_21">
     <path d="M 61.94 54.656563 
L 71.94 54.656563 
L 81.94 54.656563 
" style="fill: none; stroke: #0000ff; stroke-width: 1.5; stroke-linecap: square"/>
    </g>
    <g id="text_13">
     <!-- 66.9% return AVAN -->
     <g transform="translate(89.94 58.156563)scale(0.1 -0.1)">
      <use xlink:href="#DejaVuSans-36"/>
      <use xlink:href="#DejaVuSans-36" x="63.623047"/>
      <use xlink:href="#DejaVuSans-2e" x="127.246094"/>
      <use xlink:href="#DejaVuSans-39" x="159.033203"/>
      <use xlink:href="#DejaVuSans-25" x="222.65625"/>
      <use xlink:href="#DejaVuSans-20" x="317.675781"/>
      <use xlink:href="#DejaVuSans-72" x="349.462891"/>
      <use xlink:href="#DejaVuSans-65" x="388.326172"/>
      <use xlink:href="#DejaVuSans-74" x="449.849609"/>
      <use xlink:href="#DejaVuSans-75" x="489.058594"/>
      <use xlink:href="#DejaVuSans-72" x="552.4375"/>
      <use xlink:href="#DejaVuSans-6e" x="591.800781"/>
      <use xlink:href="#DejaVuSans-20" x="655.179688"/>
      <use xlink:href="#DejaVuSans-41" x="686.966797"/>
      <use xlink:href="#DejaVuSans-56" x="749"/>
      <use xlink:href="#DejaVuSans-41" x="811.033203"/>
      <use xlink:href="#DejaVuSans-4e" x="879.441406"/>
     </g>
    </g>
    <g id="line2d_22">
     <path d="M 61.94 69.334688 
L 71.94 69.334688 
L 81.94 69.334688 
" style="fill: none; stroke: #ff0000; stroke-width: 1.5; stroke-linecap: square"/>
    </g>
    <g id="text_14">
     <!-- cummax -->
     <g transform="translate(89.94 72.834688)scale(0.1 -0.1)">
      <use xlink:href="#DejaVuSans-63"/>
      <use xlink:href="#DejaVuSans-75" x="54.980469"/>
      <use xlink:href="#DejaVuSans-6d" x="118.359375"/>
      <use xlink:href="#DejaVuSans-6d" x="215.771484"/>
      <use xlink:href="#DejaVuSans-61" x="313.183594"/>
      <use xlink:href="#DejaVuSans-78" x="374.462891"/>
     </g>
    </g>
   </g>
  </g>
  <g id="axes_2">
   <g id="patch_8">
    <path d="M 52.94 390.04 
L 560.274083 390.04 
L 560.274083 302.955909 
L 52.94 302.955909 
z
" style="fill: #ffffff"/>
   </g>
   <g id="matplotlib.axis_3">
    <g id="xtick_8">
     <g id="line2d_23">
      <g>
       <use xlink:href="#mf7fef274b9" x="78.541758" y="390.04" style="stroke: #000000; stroke-width: 0.8"/>
      </g>
     </g>
     <g id="text_15">
      <!-- 2009-01 -->
      <g transform="translate(57.650351 404.638438)scale(0.1 -0.1)">
       <use xlink:href="#DejaVuSans-32"/>
       <use xlink:href="#DejaVuSans-30" x="63.623047"/>
       <use xlink:href="#DejaVuSans-30" x="127.246094"/>
       <use xlink:href="#DejaVuSans-39" x="190.869141"/>
       <use xlink:href="#DejaVuSans-2d" x="254.492188"/>
       <use xlink:href="#DejaVuSans-30" x="290.576172"/>
       <use xlink:href="#DejaVuSans-31" x="354.199219"/>
      </g>
     </g>
    </g>
    <g id="xtick_9">
     <g id="line2d_24">
      <g>
       <use xlink:href="#mf7fef274b9" x="153.50472" y="390.04" style="stroke: #000000; stroke-width: 0.8"/>
      </g>
     </g>
     <g id="text_16">
      <!-- 2009-03 -->
      <g transform="translate(132.613314 404.638438)scale(0.1 -0.1)">
       <use xlink:href="#DejaVuSans-32"/>
       <use xlink:href="#DejaVuSans-30" x="63.623047"/>
       <use xlink:href="#DejaVuSans-30" x="127.246094"/>
       <use xlink:href="#DejaVuSans-39" x="190.869141"/>
       <use xlink:href="#DejaVuSans-2d" x="254.492188"/>
       <use xlink:href="#DejaVuSans-30" x="290.576172"/>
       <use xlink:href="#DejaVuSans-33" x="354.199219"/>
      </g>
     </g>
    </g>
    <g id="xtick_10">
     <g id="line2d_25">
      <g>
       <use xlink:href="#mf7fef274b9" x="231.0088" y="390.04" style="stroke: #000000; stroke-width: 0.8"/>
      </g>
     </g>
     <g id="text_17">
      <!-- 2009-05 -->
      <g transform="translate(210.117394 404.638438)scale(0.1 -0.1)">
       <use xlink:href="#DejaVuSans-32"/>
       <use xlink:href="#DejaVuSans-30" x="63.623047"/>
       <use xlink:href="#DejaVuSans-30" x="127.246094"/>
       <use xlink:href="#DejaVuSans-39" x="190.869141"/>
       <use xlink:href="#DejaVuSans-2d" x="254.492188"/>
       <use xlink:href="#DejaVuSans-30" x="290.576172"/>
       <use xlink:href="#DejaVuSans-35" x="354.199219"/>
      </g>
     </g>
    </g>
    <g id="xtick_11">
     <g id="line2d_26">
      <g>
       <use xlink:href="#mf7fef274b9" x="308.51288" y="390.04" style="stroke: #000000; stroke-width: 0.8"/>
      </g>
     </g>
     <g id="text_18">
      <!-- 2009-07 -->
      <g transform="translate(287.621473 404.638438)scale(0.1 -0.1)">
       <use xlink:href="#DejaVuSans-32"/>
       <use xlink:href="#DejaVuSans-30" x="63.623047"/>
       <use xlink:href="#DejaVuSans-30" x="127.246094"/>
       <use xlink:href="#DejaVuSans-39" x="190.869141"/>
       <use xlink:href="#DejaVuSans-2d" x="254.492188"/>
       <use xlink:href="#DejaVuSans-30" x="290.576172"/>
       <use xlink:href="#DejaVuSans-37" x="354.199219"/>
      </g>
     </g>
    </g>
    <g id="xtick_12">
     <g id="line2d_27">
      <g>
       <use xlink:href="#mf7fef274b9" x="387.287518" y="390.04" style="stroke: #000000; stroke-width: 0.8"/>
      </g>
     </g>
     <g id="text_19">
      <!-- 2009-09 -->
      <g transform="translate(366.396112 404.638438)scale(0.1 -0.1)">
       <use xlink:href="#DejaVuSans-32"/>
       <use xlink:href="#DejaVuSans-30" x="63.623047"/>
       <use xlink:href="#DejaVuSans-30" x="127.246094"/>
       <use xlink:href="#DejaVuSans-39" x="190.869141"/>
       <use xlink:href="#DejaVuSans-2d" x="254.492188"/>
       <use xlink:href="#DejaVuSans-30" x="290.576172"/>
       <use xlink:href="#DejaVuSans-39" x="354.199219"/>
      </g>
     </g>
    </g>
    <g id="xtick_13">
     <g id="line2d_28">
      <g>
       <use xlink:href="#mf7fef274b9" x="464.791598" y="390.04" style="stroke: #000000; stroke-width: 0.8"/>
      </g>
     </g>
     <g id="text_20">
      <!-- 2009-11 -->
      <g transform="translate(443.900192 404.638438)scale(0.1 -0.1)">
       <use xlink:href="#DejaVuSans-32"/>
       <use xlink:href="#DejaVuSans-30" x="63.623047"/>
       <use xlink:href="#DejaVuSans-30" x="127.246094"/>
       <use xlink:href="#DejaVuSans-39" x="190.869141"/>
       <use xlink:href="#DejaVuSans-2d" x="254.492188"/>
       <use xlink:href="#DejaVuSans-31" x="290.576172"/>
       <use xlink:href="#DejaVuSans-31" x="354.199219"/>
      </g>
     </g>
    </g>
    <g id="xtick_14">
     <g id="line2d_29">
      <g>
       <use xlink:href="#mf7fef274b9" x="542.295678" y="390.04" style="stroke: #000000; stroke-width: 0.8"/>
      </g>
     </g>
     <g id="text_21">
      <!-- 2010-01 -->
      <g transform="translate(521.404272 404.638438)scale(0.1 -0.1)">
       <use xlink:href="#DejaVuSans-32"/>
       <use xlink:href="#DejaVuSans-30" x="63.623047"/>
       <use xlink:href="#DejaVuSans-31" x="127.246094"/>
       <use xlink:href="#DejaVuSans-30" x="190.869141"/>
       <use xlink:href="#DejaVuSans-2d" x="254.492188"/>
       <use xlink:href="#DejaVuSans-30" x="290.576172"/>
       <use xlink:href="#DejaVuSans-31" x="354.199219"/>
      </g>
     </g>
    </g>
    <g id="text_22">
     <!-- Time -->
     <g transform="translate(294.373448 418.316562)scale(0.1 -0.1)">
      <defs>
       <path id="DejaVuSans-54" d="M -19 4666 
L 3928 4666 
L 3928 4134 
L 2272 4134 
L 2272 0 
L 1638 0 
L 1638 4134 
L -19 4134 
L -19 4666 
z
" transform="scale(0.015625)"/>
       <path id="DejaVuSans-69" d="M 603 3500 
L 1178 3500 
L 1178 0 
L 603 0 
L 603 3500 
z
M 603 4863 
L 1178 4863 
L 1178 4134 
L 603 4134 
L 603 4863 
z
" transform="scale(0.015625)"/>
      </defs>
      <use xlink:href="#DejaVuSans-54"/>
      <use xlink:href="#DejaVuSans-69" x="57.958984"/>
      <use xlink:href="#DejaVuSans-6d" x="85.742188"/>
      <use xlink:href="#DejaVuSans-65" x="183.154297"/>
     </g>
    </g>
   </g>
   <g id="matplotlib.axis_4">
    <g id="ytick_10">
     <g id="line2d_30">
      <g>
       <use xlink:href="#m1484ecec67" x="52.94" y="350.228454" style="stroke: #000000; stroke-width: 0.8"/>
      </g>
     </g>
     <g id="text_23">
      <!-- −5 -->
      <g transform="translate(31.197813 354.027673)scale(0.1 -0.1)">
       <use xlink:href="#DejaVuSans-2212"/>
       <use xlink:href="#DejaVuSans-35" x="83.789062"/>
      </g>
     </g>
    </g>
    <g id="ytick_11">
     <g id="line2d_31">
      <g>
       <use xlink:href="#m1484ecec67" x="52.94" y="306.914277" style="stroke: #000000; stroke-width: 0.8"/>
      </g>
     </g>
     <g id="text_24">
      <!-- 0 -->
      <g transform="translate(39.5775 310.713496)scale(0.1 -0.1)">
       <use xlink:href="#DejaVuSans-30"/>
      </g>
     </g>
    </g>
    <g id="text_25">
     <!-- DD % -->
     <g transform="translate(25.118125 360.537798)rotate(-90)scale(0.1 -0.1)">
      <defs>
       <path id="DejaVuSans-44" d="M 1259 4147 
L 1259 519 
L 2022 519 
Q 2988 519 3436 956 
Q 3884 1394 3884 2338 
Q 3884 3275 3436 3711 
Q 2988 4147 2022 4147 
L 1259 4147 
z
M 628 4666 
L 1925 4666 
Q 3281 4666 3915 4102 
Q 4550 3538 4550 2338 
Q 4550 1131 3912 565 
Q 3275 0 1925 0 
L 628 0 
L 628 4666 
z
" transform="scale(0.015625)"/>
      </defs>
      <use xlink:href="#DejaVuSans-44"/>
      <use xlink:href="#DejaVuSans-44" x="77.001953"/>
      <use xlink:href="#DejaVuSans-20" x="154.003906"/>
      <use xlink:href="#DejaVuSans-25" x="185.791016"/>
     </g>
    </g>
   </g>
   <g id="line2d_32">
    <path d="M 76.00064 306.914277 
L 86.16511 306.914277 
L 87.435668 314.387927 
L 88.706227 312.289203 
L 92.517903 321.841277 
L 93.788462 330.274273 
L 95.05902 327.641162 
L 96.329579 362.05819 
L 97.600138 350.283962 
L 101.411814 347.13454 
L 103.952931 386.081632 
L 105.22349 364.917248 
L 106.494049 377.325979 
L 110.305725 380.906153 
L 112.846842 344.563102 
L 114.117401 335.96918 
L 115.387959 350.573203 
L 119.199635 353.73187 
L 120.470194 352.03641 
L 121.740753 341.096979 
L 123.011312 345.253899 
L 124.28187 327.721352 
L 128.093546 307.157697 
L 129.364105 306.914277 
L 130.634664 316.905421 
L 131.905222 308.664643 
L 133.175781 320.988215 
L 136.987457 309.787315 
L 138.258016 308.830229 
L 139.528574 329.799345 
L 140.799133 317.709396 
L 142.069692 330.247678 
L 145.881368 337.051705 
L 147.151927 356.788692 
L 167.480866 356.788692 
L 168.751424 340.510314 
L 172.5631 352.83447 
L 173.833659 345.760279 
L 175.104218 342.48921 
L 176.374776 345.386174 
L 177.645335 347.236059 
L 181.457011 327.543248 
L 182.72757 306.914277 
L 183.998128 326.246774 
L 185.268687 312.658818 
L 186.539246 306.914277 
L 190.350922 315.292066 
L 191.621481 326.704499 
L 192.892039 319.784517 
L 194.162598 306.914277 
L 200.515391 306.914277 
L 201.78595 323.144833 
L 203.056509 306.914277 
L 217.032654 306.914277 
L 218.303213 349.212242 
L 219.573772 330.08922 
L 220.84433 317.941953 
L 222.114889 306.914277 
L 225.926565 306.914277 
L 227.197124 309.577343 
L 228.467682 318.815036 
L 229.738241 306.914277 
L 238.632152 306.914277 
L 239.902711 311.245719 
L 243.714387 306.914277 
L 244.984945 321.074431 
L 246.255504 318.549743 
L 247.526063 343.698768 
L 248.796621 327.681005 
L 252.608298 322.398963 
L 255.149415 309.64547 
L 261.502208 321.550634 
L 262.772767 326.558069 
L 264.043326 308.369744 
L 265.313884 321.876188 
L 266.584443 317.298351 
L 270.396119 311.677329 
L 271.666678 306.914277 
L 272.937237 306.914277 
L 274.207795 316.069622 
L 275.478354 314.262299 
L 279.29003 311.946135 
L 280.560589 306.914277 
L 283.101706 306.914277 
L 284.372265 317.046175 
L 288.183941 312.518354 
L 289.454499 332.255799 
L 290.725058 345.676397 
L 302.160086 345.676397 
L 305.971762 348.954542 
L 307.242321 345.234193 
L 317.406791 345.234193 
L 318.677349 344.582444 
L 319.947908 347.605724 
L 326.300701 347.605724 
L 327.57126 331.803735 
L 328.841819 331.191198 
L 331.382936 331.191198 
L 332.653495 327.511504 
L 333.924053 323.367238 
L 335.194612 322.487031 
L 336.465171 317.304455 
L 337.73573 315.17146 
L 339.006288 315.17146 
L 341.547406 307.331907 
L 342.817964 311.116766 
L 344.088523 314.081623 
L 345.359082 306.914277 
L 351.711875 306.914277 
L 352.982434 309.671075 
L 354.252992 306.914277 
L 355.523551 309.083694 
L 359.335227 306.914277 
L 360.605786 306.946209 
L 361.876345 314.532983 
L 363.146903 307.816797 
L 364.417462 306.914277 
L 368.229138 312.115413 
L 369.499697 319.486535 
L 370.770255 313.52234 
L 372.040814 316.542975 
L 373.311373 315.817855 
L 377.123049 306.914277 
L 378.393607 306.914277 
L 379.664166 311.608893 
L 380.934725 309.745619 
L 382.205284 306.914277 
L 386.01696 307.104155 
L 387.287518 323.115423 
L 388.558077 337.615927 
L 389.828636 346.58337 
L 391.099194 328.064123 
L 394.91087 315.187342 
L 396.181429 306.914277 
L 397.451988 312.704493 
L 398.722546 306.914277 
L 399.993105 309.607031 
L 403.804781 308.834272 
L 405.07534 308.87411 
L 406.345899 306.914277 
L 407.616457 306.914277 
L 408.887016 319.041521 
L 412.698692 317.934942 
L 413.969251 326.682889 
L 415.239809 322.690885 
L 416.510368 327.106063 
L 417.780927 333.833853 
L 421.592603 340.126054 
L 422.863161 324.89553 
L 424.13372 318.583157 
L 425.404279 313.03264 
L 426.674838 334.201627 
L 430.486514 346.005892 
L 431.757072 336.158022 
L 433.027631 328.291839 
L 434.29819 330.541317 
L 435.568748 331.925236 
L 439.380424 327.036663 
L 440.650983 323.605736 
L 441.921542 322.911277 
L 443.1921 319.876065 
L 444.462659 333.833203 
L 448.274335 335.340501 
L 449.544894 329.027403 
L 450.815453 329.164881 
L 452.086011 336.486918 
L 453.35657 337.187942 
L 457.168246 330.662618 
L 460.979922 330.662618 
L 462.250481 315.480384 
L 467.332716 315.267305 
L 468.603274 315.267305 
L 469.873833 316.148948 
L 471.144392 306.914277 
L 474.956068 309.399449 
L 476.226626 306.914277 
L 477.497185 307.890671 
L 478.767744 306.914277 
L 480.038302 307.464918 
L 483.849978 306.914277 
L 485.120537 308.675181 
L 486.391096 311.50665 
L 487.661654 311.448832 
L 488.932213 312.68961 
L 492.743889 314.844503 
L 494.014448 306.914277 
L 495.285007 306.914277 
L 496.555565 307.743674 
L 497.826124 337.884833 
L 501.6378 320.294107 
L 502.908359 325.624776 
L 504.178917 318.080722 
L 505.449476 317.422879 
L 506.720035 319.280043 
L 510.531711 311.031851 
L 511.80227 311.314818 
L 513.072828 316.495543 
L 514.343387 319.557891 
L 515.613946 317.334534 
L 519.425622 316.854858 
L 520.69618 318.706216 
L 537.213443 318.706216 
L 537.213443 318.706216 
" clip-path="url(#pe61ed54137)" style="fill: none; stroke: #0000ff; stroke-width: 1.5; stroke-linecap: square"/>
   </g>
   <g id="patch_9">
    <path d="M 52.94 390.04 
L 52.94 302.955909 
" style="fill: none; stroke: #000000; stroke-width: 0.8; stroke-linejoin: miter; stroke-linecap: square"/>
   </g>
   <g id="patch_10">
    <path d="M 560.274083 390.04 
L 560.274083 302.955909 
" style="fill: none; stroke: #000000; stroke-width: 0.8; stroke-linejoin: miter; stroke-linecap: square"/>
   </g>
   <g id="patch_11">
    <path d="M 52.94 390.04 
L 560.274083 390.04 
" style="fill: none; stroke: #000000; stroke-width: 0.8; stroke-linejoin: miter; stroke-linecap: square"/>
   </g>
   <g id="patch_12">
    <path d="M 52.94 302.955909 
L 560.274083 302.955909 
" style="fill: none; stroke: #000000; stroke-width: 0.8; stroke-linejoin: miter; stroke-linecap: square"/>
   </g>
  </g>
 </g>
 <defs>
  <clipPath id="p44b835f3a9">
   <rect x="52.94" y="26.88" width="507.334083" height="261.252273"/>
  </clipPath>
  <clipPath id="pe61ed54137">
   <rect x="52.94" y="302.955909" width="507.334083" height="87.084091"/>
  </clipPath>
 </defs>
</svg>
