<?xml version="1.0" encoding="utf-8" standalone="no"?>
<!DOCTYPE svg PUBLIC "-//W3C//DTD SVG 1.1//EN"
  "http://www.w3.org/Graphics/SVG/1.1/DTD/svg11.dtd">
<svg xmlns:xlink="http://www.w3.org/1999/xlink" width="576pt" height="432pt" viewBox="0 0 576 432" xmlns="http://www.w3.org/2000/svg" version="1.1">
 <metadata>
  <rdf:RDF xmlns:dc="http://purl.org/dc/elements/1.1/" xmlns:cc="http://creativecommons.org/ns#" xmlns:rdf="http://www.w3.org/1999/02/22-rdf-syntax-ns#">
   <cc:Work>
    <dc:type rdf:resource="http://purl.org/dc/dcmitype/StillImage"/>
    <dc:date>2023-01-15T23:56:31.208445</dc:date>
    <dc:format>image/svg+xml</dc:format>
    <dc:creator>
     <cc:Agent>
      <dc:title>Matplotlib v3.5.0, https://matplotlib.org/</dc:title>
     </cc:Agent>
    </dc:creator>
   </cc:Work>
  </rdf:RDF>
 </metadata>
 <defs>
  <style type="text/css">*{stroke-linejoin: round; stroke-linecap: butt}</style>
 </defs>
 <g id="figure_1">
  <g id="patch_1">
   <path d="M 0 432 
L 576 432 
L 576 0 
L 0 0 
z
" style="fill: #ffffff"/>
  </g>
  <g id="axes_1">
   <g id="patch_2">
    <path d="M 56 288.132273 
L 553.396781 288.132273 
L 553.396781 26.88 
L 56 26.88 
z
" style="fill: #ffffff"/>
   </g>
   <g id="matplotlib.axis_1">
    <g id="xtick_1">
     <g id="line2d_1">
      <defs>
       <path id="mfde0033362" d="M 0 0 
L 0 3.5 
" style="stroke: #000000; stroke-width: 0.8"/>
      </defs>
      <g>
       <use xlink:href="#mfde0033362" x="83.64715" y="288.132273" style="stroke: #000000; stroke-width: 0.8"/>
      </g>
     </g>
    </g>
    <g id="xtick_2">
     <g id="line2d_2">
      <g>
       <use xlink:href="#mfde0033362" x="157.960672" y="288.132273" style="stroke: #000000; stroke-width: 0.8"/>
      </g>
     </g>
    </g>
    <g id="xtick_3">
     <g id="line2d_3">
      <g>
       <use xlink:href="#mfde0033362" x="234.793297" y="288.132273" style="stroke: #000000; stroke-width: 0.8"/>
      </g>
     </g>
    </g>
    <g id="xtick_4">
     <g id="line2d_4">
      <g>
       <use xlink:href="#mfde0033362" x="311.625923" y="288.132273" style="stroke: #000000; stroke-width: 0.8"/>
      </g>
     </g>
    </g>
    <g id="xtick_5">
     <g id="line2d_5">
      <g>
       <use xlink:href="#mfde0033362" x="389.718099" y="288.132273" style="stroke: #000000; stroke-width: 0.8"/>
      </g>
     </g>
    </g>
    <g id="xtick_6">
     <g id="line2d_6">
      <g>
       <use xlink:href="#mfde0033362" x="466.550724" y="288.132273" style="stroke: #000000; stroke-width: 0.8"/>
      </g>
     </g>
    </g>
    <g id="xtick_7">
     <g id="line2d_7">
      <g>
       <use xlink:href="#mfde0033362" x="543.383349" y="288.132273" style="stroke: #000000; stroke-width: 0.8"/>
      </g>
     </g>
    </g>
   </g>
   <g id="matplotlib.axis_2">
    <g id="ytick_1">
     <g id="line2d_8">
      <defs>
       <path id="m3493199a75" d="M 0 0 
L -3.5 0 
" style="stroke: #000000; stroke-width: 0.8"/>
      </defs>
      <g>
       <use xlink:href="#m3493199a75" x="56" y="260.810816" style="stroke: #000000; stroke-width: 0.8"/>
      </g>
     </g>
     <g id="text_1">
      <!-- 0 -->
      <g transform="translate(42.6375 264.610035)scale(0.1 -0.1)">
       <defs>
        <path id="DejaVuSans-30" d="M 2034 4250 
Q 1547 4250 1301 3770 
Q 1056 3291 1056 2328 
Q 1056 1369 1301 889 
Q 1547 409 2034 409 
Q 2525 409 2770 889 
Q 3016 1369 3016 2328 
Q 3016 3291 2770 3770 
Q 2525 4250 2034 4250 
z
M 2034 4750 
Q 2819 4750 3233 4129 
Q 3647 3509 3647 2328 
Q 3647 1150 3233 529 
Q 2819 -91 2034 -91 
Q 1250 -91 836 529 
Q 422 1150 422 2328 
Q 422 3509 836 4129 
Q 1250 4750 2034 4750 
z
" transform="scale(0.015625)"/>
       </defs>
       <use xlink:href="#DejaVuSans-30"/>
      </g>
     </g>
    </g>
    <g id="ytick_2">
     <g id="line2d_9">
      <g>
       <use xlink:href="#m3493199a75" x="56" y="221.341324" style="stroke: #000000; stroke-width: 0.8"/>
      </g>
     </g>
     <g id="text_2">
      <!-- 5 -->
      <g transform="translate(42.6375 225.140543)scale(0.1 -0.1)">
       <defs>
        <path id="DejaVuSans-35" d="M 691 4666 
L 3169 4666 
L 3169 4134 
L 1269 4134 
L 1269 2991 
Q 1406 3038 1543 3061 
Q 1681 3084 1819 3084 
Q 2600 3084 3056 2656 
Q 3513 2228 3513 1497 
Q 3513 744 3044 326 
Q 2575 -91 1722 -91 
Q 1428 -91 1123 -41 
Q 819 9 494 109 
L 494 744 
Q 775 591 1075 516 
Q 1375 441 1709 441 
Q 2250 441 2565 725 
Q 2881 1009 2881 1497 
Q 2881 1984 2565 2268 
Q 2250 2553 1709 2553 
Q 1456 2553 1204 2497 
Q 953 2441 691 2322 
L 691 4666 
z
" transform="scale(0.015625)"/>
       </defs>
       <use xlink:href="#DejaVuSans-35"/>
      </g>
     </g>
    </g>
    <g id="ytick_3">
     <g id="line2d_10">
      <g>
       <use xlink:href="#m3493199a75" x="56" y="181.871832" style="stroke: #000000; stroke-width: 0.8"/>
      </g>
     </g>
     <g id="text_3">
      <!-- 10 -->
      <g transform="translate(36.275 185.671051)scale(0.1 -0.1)">
       <defs>
        <path id="DejaVuSans-31" d="M 794 531 
L 1825 531 
L 1825 4091 
L 703 3866 
L 703 4441 
L 1819 4666 
L 2450 4666 
L 2450 531 
L 3481 531 
L 3481 0 
L 794 0 
L 794 531 
z
" transform="scale(0.015625)"/>
       </defs>
       <use xlink:href="#DejaVuSans-31"/>
       <use xlink:href="#DejaVuSans-30" x="63.623047"/>
      </g>
     </g>
    </g>
    <g id="ytick_4">
     <g id="line2d_11">
      <g>
       <use xlink:href="#m3493199a75" x="56" y="142.402341" style="stroke: #000000; stroke-width: 0.8"/>
      </g>
     </g>
     <g id="text_4">
      <!-- 15 -->
      <g transform="translate(36.275 146.201559)scale(0.1 -0.1)">
       <use xlink:href="#DejaVuSans-31"/>
       <use xlink:href="#DejaVuSans-35" x="63.623047"/>
      </g>
     </g>
    </g>
    <g id="ytick_5">
     <g id="line2d_12">
      <g>
       <use xlink:href="#m3493199a75" x="56" y="102.932849" style="stroke: #000000; stroke-width: 0.8"/>
      </g>
     </g>
     <g id="text_5">
      <!-- 20 -->
      <g transform="translate(36.275 106.732067)scale(0.1 -0.1)">
       <defs>
        <path id="DejaVuSans-32" d="M 1228 531 
L 3431 531 
L 3431 0 
L 469 0 
L 469 531 
Q 828 903 1448 1529 
Q 2069 2156 2228 2338 
Q 2531 2678 2651 2914 
Q 2772 3150 2772 3378 
Q 2772 3750 2511 3984 
Q 2250 4219 1831 4219 
Q 1534 4219 1204 4116 
Q 875 4013 500 3803 
L 500 4441 
Q 881 4594 1212 4672 
Q 1544 4750 1819 4750 
Q 2544 4750 2975 4387 
Q 3406 4025 3406 3419 
Q 3406 3131 3298 2873 
Q 3191 2616 2906 2266 
Q 2828 2175 2409 1742 
Q 1991 1309 1228 531 
z
" transform="scale(0.015625)"/>
       </defs>
       <use xlink:href="#DejaVuSans-32"/>
       <use xlink:href="#DejaVuSans-30" x="63.623047"/>
      </g>
     </g>
    </g>
    <g id="ytick_6">
     <g id="line2d_13">
      <g>
       <use xlink:href="#m3493199a75" x="56" y="63.463357" style="stroke: #000000; stroke-width: 0.8"/>
      </g>
     </g>
     <g id="text_6">
      <!-- 25 -->
      <g transform="translate(36.275 67.262576)scale(0.1 -0.1)">
       <use xlink:href="#DejaVuSans-32"/>
       <use xlink:href="#DejaVuSans-35" x="63.623047"/>
      </g>
     </g>
    </g>
    <g id="text_7">
     <!-- Return [%] -->
     <g transform="translate(30.195312 184.338949)rotate(-90)scale(0.1 -0.1)">
      <defs>
       <path id="DejaVuSans-52" d="M 2841 2188 
Q 3044 2119 3236 1894 
Q 3428 1669 3622 1275 
L 4263 0 
L 3584 0 
L 2988 1197 
Q 2756 1666 2539 1819 
Q 2322 1972 1947 1972 
L 1259 1972 
L 1259 0 
L 628 0 
L 628 4666 
L 2053 4666 
Q 2853 4666 3247 4331 
Q 3641 3997 3641 3322 
Q 3641 2881 3436 2590 
Q 3231 2300 2841 2188 
z
M 1259 4147 
L 1259 2491 
L 2053 2491 
Q 2509 2491 2742 2702 
Q 2975 2913 2975 3322 
Q 2975 3731 2742 3939 
Q 2509 4147 2053 4147 
L 1259 4147 
z
" transform="scale(0.015625)"/>
       <path id="DejaVuSans-65" d="M 3597 1894 
L 3597 1613 
L 953 1613 
Q 991 1019 1311 708 
Q 1631 397 2203 397 
Q 2534 397 2845 478 
Q 3156 559 3463 722 
L 3463 178 
Q 3153 47 2828 -22 
Q 2503 -91 2169 -91 
Q 1331 -91 842 396 
Q 353 884 353 1716 
Q 353 2575 817 3079 
Q 1281 3584 2069 3584 
Q 2775 3584 3186 3129 
Q 3597 2675 3597 1894 
z
M 3022 2063 
Q 3016 2534 2758 2815 
Q 2500 3097 2075 3097 
Q 1594 3097 1305 2825 
Q 1016 2553 972 2059 
L 3022 2063 
z
" transform="scale(0.015625)"/>
       <path id="DejaVuSans-74" d="M 1172 4494 
L 1172 3500 
L 2356 3500 
L 2356 3053 
L 1172 3053 
L 1172 1153 
Q 1172 725 1289 603 
Q 1406 481 1766 481 
L 2356 481 
L 2356 0 
L 1766 0 
Q 1100 0 847 248 
Q 594 497 594 1153 
L 594 3053 
L 172 3053 
L 172 3500 
L 594 3500 
L 594 4494 
L 1172 4494 
z
" transform="scale(0.015625)"/>
       <path id="DejaVuSans-75" d="M 544 1381 
L 544 3500 
L 1119 3500 
L 1119 1403 
Q 1119 906 1312 657 
Q 1506 409 1894 409 
Q 2359 409 2629 706 
Q 2900 1003 2900 1516 
L 2900 3500 
L 3475 3500 
L 3475 0 
L 2900 0 
L 2900 538 
Q 2691 219 2414 64 
Q 2138 -91 1772 -91 
Q 1169 -91 856 284 
Q 544 659 544 1381 
z
M 1991 3584 
L 1991 3584 
z
" transform="scale(0.015625)"/>
       <path id="DejaVuSans-72" d="M 2631 2963 
Q 2534 3019 2420 3045 
Q 2306 3072 2169 3072 
Q 1681 3072 1420 2755 
Q 1159 2438 1159 1844 
L 1159 0 
L 581 0 
L 581 3500 
L 1159 3500 
L 1159 2956 
Q 1341 3275 1631 3429 
Q 1922 3584 2338 3584 
Q 2397 3584 2469 3576 
Q 2541 3569 2628 3553 
L 2631 2963 
z
" transform="scale(0.015625)"/>
       <path id="DejaVuSans-6e" d="M 3513 2113 
L 3513 0 
L 2938 0 
L 2938 2094 
Q 2938 2591 2744 2837 
Q 2550 3084 2163 3084 
Q 1697 3084 1428 2787 
Q 1159 2491 1159 1978 
L 1159 0 
L 581 0 
L 581 3500 
L 1159 3500 
L 1159 2956 
Q 1366 3272 1645 3428 
Q 1925 3584 2291 3584 
Q 2894 3584 3203 3211 
Q 3513 2838 3513 2113 
z
" transform="scale(0.015625)"/>
       <path id="DejaVuSans-20" transform="scale(0.015625)"/>
       <path id="DejaVuSans-5b" d="M 550 4863 
L 1875 4863 
L 1875 4416 
L 1125 4416 
L 1125 -397 
L 1875 -397 
L 1875 -844 
L 550 -844 
L 550 4863 
z
" transform="scale(0.015625)"/>
       <path id="DejaVuSans-25" d="M 4653 2053 
Q 4381 2053 4226 1822 
Q 4072 1591 4072 1178 
Q 4072 772 4226 539 
Q 4381 306 4653 306 
Q 4919 306 5073 539 
Q 5228 772 5228 1178 
Q 5228 1588 5073 1820 
Q 4919 2053 4653 2053 
z
M 4653 2450 
Q 5147 2450 5437 2106 
Q 5728 1763 5728 1178 
Q 5728 594 5436 251 
Q 5144 -91 4653 -91 
Q 4153 -91 3862 251 
Q 3572 594 3572 1178 
Q 3572 1766 3864 2108 
Q 4156 2450 4653 2450 
z
M 1428 4353 
Q 1159 4353 1004 4120 
Q 850 3888 850 3481 
Q 850 3069 1003 2837 
Q 1156 2606 1428 2606 
Q 1700 2606 1854 2837 
Q 2009 3069 2009 3481 
Q 2009 3884 1853 4118 
Q 1697 4353 1428 4353 
z
M 4250 4750 
L 4750 4750 
L 1831 -91 
L 1331 -91 
L 4250 4750 
z
M 1428 4750 
Q 1922 4750 2215 4408 
Q 2509 4066 2509 3481 
Q 2509 2891 2217 2550 
Q 1925 2209 1428 2209 
Q 931 2209 642 2551 
Q 353 2894 353 3481 
Q 353 4063 643 4406 
Q 934 4750 1428 4750 
z
" transform="scale(0.015625)"/>
       <path id="DejaVuSans-5d" d="M 1947 4863 
L 1947 -844 
L 622 -844 
L 622 -397 
L 1369 -397 
L 1369 4416 
L 622 4416 
L 622 4863 
L 1947 4863 
z
" transform="scale(0.015625)"/>
      </defs>
      <use xlink:href="#DejaVuSans-52"/>
      <use xlink:href="#DejaVuSans-65" x="64.982422"/>
      <use xlink:href="#DejaVuSans-74" x="126.505859"/>
      <use xlink:href="#DejaVuSans-75" x="165.714844"/>
      <use xlink:href="#DejaVuSans-72" x="229.09375"/>
      <use xlink:href="#DejaVuSans-6e" x="268.457031"/>
      <use xlink:href="#DejaVuSans-20" x="331.835938"/>
      <use xlink:href="#DejaVuSans-5b" x="363.623047"/>
      <use xlink:href="#DejaVuSans-25" x="402.636719"/>
      <use xlink:href="#DejaVuSans-5d" x="497.65625"/>
     </g>
    </g>
   </g>
   <g id="line2d_14">
    <path d="M 78.608945 263.903382 
L 79.868496 268.50542 
L 81.128047 269.106738 
L 84.906701 264.148954 
L 86.166252 260.097266 
L 87.425803 262.038678 
L 88.685354 266.580997 
L 93.723559 272.904101 
L 94.983111 272.764583 
L 96.242662 271.846132 
L 97.502213 276.257169 
L 98.761764 266.381759 
L 102.540418 271.283426 
L 103.799969 274.191684 
L 105.05952 269.727104 
L 106.319072 270.79537 
L 107.578623 264.837793 
L 111.357277 275.546708 
L 112.616828 266.194877 
L 113.876379 254.28487 
L 115.13593 250.216192 
L 116.395482 258.005009 
L 120.174135 263.086866 
L 121.433686 259.039811 
L 122.693238 253.603754 
L 123.952789 251.266439 
L 125.21234 248.45394 
L 128.990994 252.785694 
L 130.250545 251.733902 
L 131.510096 252.610652 
L 132.769648 248.359211 
L 134.029199 245.666666 
L 137.807853 240.799492 
L 139.067404 242.048463 
L 140.326955 239.851181 
L 141.586506 238.66502 
L 142.846057 241.619612 
L 146.624711 238.664505 
L 147.884262 231.581516 
L 149.143814 235.676449 
L 150.403365 232.498937 
L 151.662916 241.994921 
L 155.44157 244.685921 
L 156.701121 241.83378 
L 157.960672 230.918933 
L 159.220223 236.499658 
L 160.479775 236.096548 
L 164.258428 239.078941 
L 165.51798 238.952808 
L 166.777531 237.685819 
L 168.037082 234.853756 
L 169.296633 232.692512 
L 173.075287 229.200956 
L 174.334838 233.685099 
L 175.594389 232.197764 
L 176.853941 229.950544 
L 178.113492 234.21537 
L 181.892146 235.098813 
L 183.151697 241.470827 
L 184.411248 245.546197 
L 185.670799 236.112508 
L 186.930351 236.929023 
L 190.709004 239.599946 
L 191.968555 236.728241 
L 193.228107 234.493377 
L 194.487658 234.775502 
L 195.747209 232.84799 
L 199.525863 241.196939 
L 200.785414 243.310303 
L 202.044965 247.81401 
L 204.564068 242.091708 
L 208.342721 240.651737 
L 209.602273 241.452293 
L 210.861824 239.338928 
L 212.121375 240.474637 
L 218.419131 248.507996 
L 219.678683 244.120126 
L 220.938234 242.571527 
L 222.197785 240.251716 
L 225.976439 221.706105 
L 227.23599 217.700751 
L 228.495541 216.03683 
L 229.755092 217.94169 
L 231.014644 212.580282 
L 236.052849 207.682219 
L 237.3124 208.980097 
L 238.571951 206.743689 
L 239.831502 204.834711 
L 243.610156 206.144945 
L 244.869707 199.136091 
L 246.129258 200.917907 
L 247.38881 204.845007 
L 248.648361 202.562265 
L 252.427015 200.816486 
L 253.686566 199.162862 
L 254.946117 211.87394 
L 256.205668 218.616628 
L 257.46522 211.441485 
L 261.243873 211.438396 
L 262.503424 205.006663 
L 263.762976 206.455901 
L 266.282078 208.060616 
L 270.060732 210.046819 
L 271.320283 206.020357 
L 272.579834 206.343154 
L 273.839386 205.203842 
L 275.098937 202.453121 
L 278.87759 206.967124 
L 281.396693 205.605407 
L 282.656244 203.94406 
L 283.915795 198.265519 
L 287.694449 206.503265 
L 288.954 201.452298 
L 290.213552 206.092948 
L 291.473103 213.621262 
L 292.732654 207.977214 
L 296.511308 198.988336 
L 299.03041 205.005118 
L 300.289961 203.126 
L 305.328166 204.070708 
L 306.587718 211.782301 
L 307.847269 210.525608 
L 309.10682 219.672538 
L 310.366371 225.174494 
L 314.145025 212.366114 
L 315.404576 215.320191 
L 316.664127 212.470624 
L 317.923679 215.670274 
L 319.18323 217.725978 
L 322.961884 213.706724 
L 324.221435 215.372704 
L 325.480986 200.430881 
L 326.740537 204.605098 
L 328.000089 202.369719 
L 331.778742 206.231436 
L 333.038293 222.690454 
L 334.297845 221.347785 
L 335.557396 227.592122 
L 336.816947 236.067718 
L 340.595601 243.529105 
L 341.855152 242.484006 
L 343.114703 236.660798 
L 344.374255 241.677272 
L 345.633806 248.326262 
L 349.412459 253.150706 
L 350.672011 243.820497 
L 351.931562 245.420579 
L 353.191113 247.2477 
L 354.450664 240.137425 
L 358.229318 239.105197 
L 359.488869 236.095004 
L 360.748421 241.304023 
L 363.267523 257.904618 
L 367.046177 249.861991 
L 368.305728 255.629598 
L 369.565279 251.105298 
L 370.82483 257.323378 
L 372.084382 261.42552 
L 375.863035 265.475663 
L 377.122587 255.431389 
L 378.382138 256.267468 
L 379.641689 258.402456 
L 380.90124 256.944981 
L 384.679894 258.972369 
L 385.939445 267.198274 
L 387.198996 259.44498 
L 388.458548 253.835426 
L 389.718099 247.693025 
L 393.496753 251.245331 
L 394.756304 253.769013 
L 396.015855 256.712794 
L 397.275406 250.661518 
L 398.534958 251.026015 
L 402.313611 240.808759 
L 403.573162 236.706618 
L 404.832714 236.753982 
L 406.092265 232.899988 
L 407.351816 237.356844 
L 411.13047 235.340782 
L 412.390021 234.495436 
L 413.649572 234.004291 
L 414.909124 228.376203 
L 416.168675 226.07956 
L 419.947328 224.367246 
L 421.20688 220.940042 
L 422.466431 214.23854 
L 423.725982 213.617659 
L 424.985533 207.007795 
L 428.764187 205.549291 
L 430.023738 201.159876 
L 432.542841 199.113439 
L 433.802392 202.652359 
L 437.581046 201.804954 
L 438.840597 203.649579 
L 440.100148 205.006663 
L 441.359699 203.491527 
L 442.619251 204.602009 
L 447.657456 207.457754 
L 448.917007 203.448282 
L 450.176558 202.303307 
L 451.436109 191.724127 
L 455.214763 194.794555 
L 456.474314 200.496779 
L 457.733865 200.871058 
L 458.993417 196.212389 
L 460.252968 193.004502 
L 464.031622 194.39299 
L 465.291173 189.600981 
L 466.550724 189.396595 
L 467.810275 189.010475 
L 469.069826 186.499149 
L 472.84848 187.278082 
L 474.108031 190.318135 
L 475.367583 194.049601 
L 476.627134 204.208681 
L 477.886685 208.622807 
L 481.665339 210.769121 
L 482.92489 211.812675 
L 484.184441 212.577193 
L 485.443993 209.149475 
L 486.703544 217.365599 
L 490.482197 214.357465 
L 491.741749 207.611173 
L 493.0013 217.459297 
L 494.260851 220.004602 
L 495.520402 218.949721 
L 499.299056 221.975874 
L 500.558607 215.764487 
L 501.818159 216.85695 
L 503.07771 221.27468 
L 504.337261 230.493686 
L 508.115915 217.829458 
L 509.375466 219.598918 
L 510.635017 228.825132 
L 511.894568 226.844593 
L 513.15412 220.905034 
L 516.932773 216.452296 
L 518.192325 214.249351 
L 519.451876 216.273136 
L 520.711427 221.536212 
L 521.970978 229.386294 
L 525.749632 218.430261 
L 527.009183 220.59099 
L 528.268734 226.328736 
L 529.528286 218.102316 
L 530.787837 223.261397 
L 530.787837 223.261397 
" clip-path="url(#p9ec2cb6dc2)" style="fill: none; stroke: #008000; stroke-width: 1.5; stroke-linecap: square"/>
   </g>
   <g id="line2d_15">
    <path d="M 78.608945 256.813804 
L 79.868496 256.896898 
L 81.128047 257.495656 
L 84.906701 253.891533 
L 86.166252 243.433266 
L 87.425803 235.977225 
L 88.685354 233.640198 
L 93.723559 237.144056 
L 94.983111 244.053046 
L 96.242662 233.605321 
L 97.502213 226.646743 
L 98.761764 223.634298 
L 102.540418 217.804361 
L 103.799969 217.271787 
L 105.05952 219.899005 
L 106.319072 217.636568 
L 107.578623 212.46324 
L 111.357277 207.631815 
L 112.616828 219.85612 
L 113.876379 216.312004 
L 115.13593 209.848376 
L 116.395482 212.046365 
L 120.174135 214.372233 
L 121.433686 216.70139 
L 122.693238 221.375773 
L 123.952789 210.06447 
L 125.21234 210.925323 
L 128.990994 200.946615 
L 130.250545 198.271414 
L 131.510096 196.597762 
L 132.769648 202.224698 
L 134.029199 205.491118 
L 137.807853 203.710223 
L 140.326955 188.145762 
L 141.586506 187.117124 
L 142.846057 173.848851 
L 146.624711 166.004851 
L 147.884262 146.418523 
L 149.143814 143.352967 
L 150.403365 147.319328 
L 151.662916 149.039456 
L 155.44157 158.577271 
L 156.701121 156.626636 
L 157.960672 150.893019 
L 159.220223 139.990261 
L 160.479775 142.359692 
L 164.258428 147.995559 
L 165.51798 147.609294 
L 166.777531 151.602603 
L 168.037082 154.989635 
L 169.296633 154.989635 
L 173.075287 154.86164 
L 174.334838 162.611005 
L 175.594389 165.935208 
L 193.228107 165.935208 
L 194.487658 161.408259 
L 195.747209 163.822223 
L 199.525863 154.389576 
L 200.785414 159.591858 
L 202.044965 159.591858 
L 203.304517 161.088356 
L 204.564068 158.040813 
L 208.342721 151.990606 
L 209.602273 144.186154 
L 210.861824 152.056261 
L 212.121375 152.615771 
L 218.419131 152.161327 
L 219.678683 155.212292 
L 220.938234 154.325789 
L 222.197785 159.317012 
L 225.976439 155.134387 
L 227.23599 151.69004 
L 228.495541 143.083191 
L 229.755092 138.174409 
L 231.014644 129.459385 
L 236.052849 120.28834 
L 237.3124 116.149882 
L 238.571951 119.938122 
L 239.831502 119.901431 
L 243.610156 119.362553 
L 244.869707 124.745223 
L 246.129258 119.422087 
L 247.38881 122.587015 
L 248.648361 121.821681 
L 252.427015 119.045959 
L 253.686566 121.010771 
L 254.946117 123.629981 
L 257.46522 123.629981 
L 261.243873 119.274696 
L 262.503424 115.868537 
L 263.762976 110.90948 
L 266.282078 105.839006 
L 270.060732 96.782356 
L 271.320283 94.685387 
L 272.579834 99.527476 
L 273.839386 97.801928 
L 275.098937 93.490488 
L 278.87759 83.351969 
L 281.396693 79.414983 
L 282.656244 72.482166 
L 283.915795 71.84441 
L 287.694449 73.503661 
L 288.954 78.732143 
L 290.213552 70.406629 
L 291.473103 71.089416 
L 292.732654 81.353602 
L 296.511308 72.694021 
L 297.770859 63.739286 
L 299.03041 62.713914 
L 300.289961 70.841381 
L 305.328166 59.071329 
L 306.587718 54.196683 
L 307.847269 55.444017 
L 309.10682 51.945579 
L 310.366371 67.593682 
L 314.145025 69.486454 
L 315.404576 65.499309 
L 316.664127 65.786828 
L 317.923679 69.96015 
L 319.18323 71.65757 
L 322.961884 67.598494 
L 324.221435 71.096228 
L 325.480986 70.68584 
L 326.740537 59.044884 
L 328.000089 70.338751 
L 331.778742 68.605008 
L 333.038293 68.457729 
L 334.297845 76.997778 
L 335.557396 80.842122 
L 336.816947 88.359928 
L 340.595601 89.59943 
L 341.855152 102.277244 
L 343.114703 104.97494 
L 344.374255 102.970352 
L 345.633806 93.805968 
L 349.412459 105.522133 
L 350.672011 97.573472 
L 351.931562 85.631021 
L 353.191113 80.116017 
L 354.450664 80.531502 
L 358.229318 70.094854 
L 359.488869 67.327937 
L 360.748421 65.57651 
L 363.267523 92.466256 
L 367.046177 106.637485 
L 368.305728 98.389585 
L 369.565279 99.480337 
L 370.82483 104.073373 
L 379.641689 104.091845 
L 389.718099 104.091845 
L 393.496753 105.435917 
L 394.756304 105.435917 
L 396.015855 112.833942 
L 397.275406 110.491082 
L 398.534958 107.024892 
L 402.313611 104.396151 
L 403.573162 97.147903 
L 404.832714 93.919936 
L 406.092265 96.083403 
L 411.13047 82.857118 
L 412.390021 87.130999 
L 413.649572 85.10616 
L 414.909124 84.495938 
L 416.168675 82.164838 
L 419.947328 76.439171 
L 421.20688 67.648444 
L 422.466431 71.148062 
L 423.725982 67.695614 
L 424.985533 65.767283 
L 428.764187 51.677434 
L 430.023738 44.907173 
L 431.28329 44.25456 
L 432.542841 44.921321 
L 433.802392 38.755103 
L 437.581046 42.901999 
L 438.840597 43.571567 
L 440.100148 47.245204 
L 441.359699 58.555892 
L 442.619251 54.224127 
L 446.397904 46.411935 
L 447.657456 44.415034 
L 448.917007 56.73428 
L 450.176558 51.579381 
L 451.436109 51.579381 
L 455.214763 48.480273 
L 456.474314 51.098632 
L 466.550724 51.098632 
L 467.810275 52.773733 
L 469.069826 62.113521 
L 472.84848 53.83556 
L 474.108031 53.297982 
L 475.367583 58.38797 
L 476.627134 65.451715 
L 477.886685 82.476009 
L 481.665339 81.423026 
L 504.337261 81.423026 
L 508.115915 79.453772 
L 530.787837 79.453772 
L 530.787837 79.453772 
" clip-path="url(#p9ec2cb6dc2)" style="fill: none; stroke: #0000ff; stroke-width: 1.5; stroke-linecap: square"/>
   </g>
   <g id="line2d_16">
    <path d="M 78.608945 256.813804 
L 81.128047 256.813804 
L 84.906701 253.891533 
L 86.166252 243.433266 
L 87.425803 235.977225 
L 88.685354 233.640198 
L 96.242662 233.605321 
L 97.502213 226.646743 
L 98.761764 223.634298 
L 102.540418 217.804361 
L 103.799969 217.271787 
L 106.319072 217.271787 
L 107.578623 212.46324 
L 111.357277 207.631815 
L 125.21234 207.631815 
L 128.990994 200.946615 
L 130.250545 198.271414 
L 131.510096 196.597762 
L 137.807853 196.597762 
L 139.067404 195.755293 
L 140.326955 188.145762 
L 141.586506 187.117124 
L 142.846057 173.848851 
L 146.624711 166.004851 
L 147.884262 146.418523 
L 149.143814 143.352967 
L 157.960672 143.352967 
L 159.220223 139.990261 
L 228.495541 139.990261 
L 229.755092 138.174409 
L 231.014644 129.459385 
L 236.052849 120.28834 
L 237.3124 116.149882 
L 261.243873 116.149882 
L 262.503424 115.868537 
L 263.762976 110.90948 
L 266.282078 105.839006 
L 270.060732 96.782356 
L 271.320283 94.685387 
L 273.839386 94.685387 
L 275.098937 93.490488 
L 278.87759 83.351969 
L 281.396693 79.414983 
L 282.656244 72.482166 
L 283.915795 71.84441 
L 288.954 71.84441 
L 290.213552 70.406629 
L 296.511308 70.406629 
L 297.770859 63.739286 
L 299.03041 62.713914 
L 300.289961 62.713914 
L 305.328166 59.071329 
L 306.587718 54.196683 
L 307.847269 54.196683 
L 309.10682 51.945579 
L 424.985533 51.945579 
L 428.764187 51.677434 
L 430.023738 44.907173 
L 431.28329 44.25456 
L 432.542841 44.25456 
L 433.802392 38.755103 
L 530.787837 38.755103 
L 530.787837 38.755103 
" clip-path="url(#p9ec2cb6dc2)" style="fill: none; stroke: #ff0000; stroke-width: 1.5; stroke-linecap: square"/>
   </g>
   <g id="patch_3">
    <path d="M 56 288.132273 
L 56 26.88 
" style="fill: none; stroke: #000000; stroke-width: 0.8; stroke-linejoin: miter; stroke-linecap: square"/>
   </g>
   <g id="patch_4">
    <path d="M 553.396781 288.132273 
L 553.396781 26.88 
" style="fill: none; stroke: #000000; stroke-width: 0.8; stroke-linejoin: miter; stroke-linecap: square"/>
   </g>
   <g id="patch_5">
    <path d="M 56 288.132273 
L 553.396781 288.132273 
" style="fill: none; stroke: #000000; stroke-width: 0.8; stroke-linejoin: miter; stroke-linecap: square"/>
   </g>
   <g id="patch_6">
    <path d="M 56 26.88 
L 553.396781 26.88 
" style="fill: none; stroke: #000000; stroke-width: 0.8; stroke-linejoin: miter; stroke-linecap: square"/>
   </g>
   <g id="text_8">
    <!-- Performance of AVAN-strategy year 2017 -->
    <g transform="translate(181.385266 20.88)scale(0.12 -0.12)">
     <defs>
      <path id="DejaVuSans-50" d="M 1259 4147 
L 1259 2394 
L 2053 2394 
Q 2494 2394 2734 2622 
Q 2975 2850 2975 3272 
Q 2975 3691 2734 3919 
Q 2494 4147 2053 4147 
L 1259 4147 
z
M 628 4666 
L 2053 4666 
Q 2838 4666 3239 4311 
Q 3641 3956 3641 3272 
Q 3641 2581 3239 2228 
Q 2838 1875 2053 1875 
L 1259 1875 
L 1259 0 
L 628 0 
L 628 4666 
z
" transform="scale(0.015625)"/>
      <path id="DejaVuSans-66" d="M 2375 4863 
L 2375 4384 
L 1825 4384 
Q 1516 4384 1395 4259 
Q 1275 4134 1275 3809 
L 1275 3500 
L 2222 3500 
L 2222 3053 
L 1275 3053 
L 1275 0 
L 697 0 
L 697 3053 
L 147 3053 
L 147 3500 
L 697 3500 
L 697 3744 
Q 697 4328 969 4595 
Q 1241 4863 1831 4863 
L 2375 4863 
z
" transform="scale(0.015625)"/>
      <path id="DejaVuSans-6f" d="M 1959 3097 
Q 1497 3097 1228 2736 
Q 959 2375 959 1747 
Q 959 1119 1226 758 
Q 1494 397 1959 397 
Q 2419 397 2687 759 
Q 2956 1122 2956 1747 
Q 2956 2369 2687 2733 
Q 2419 3097 1959 3097 
z
M 1959 3584 
Q 2709 3584 3137 3096 
Q 3566 2609 3566 1747 
Q 3566 888 3137 398 
Q 2709 -91 1959 -91 
Q 1206 -91 779 398 
Q 353 888 353 1747 
Q 353 2609 779 3096 
Q 1206 3584 1959 3584 
z
" transform="scale(0.015625)"/>
      <path id="DejaVuSans-6d" d="M 3328 2828 
Q 3544 3216 3844 3400 
Q 4144 3584 4550 3584 
Q 5097 3584 5394 3201 
Q 5691 2819 5691 2113 
L 5691 0 
L 5113 0 
L 5113 2094 
Q 5113 2597 4934 2840 
Q 4756 3084 4391 3084 
Q 3944 3084 3684 2787 
Q 3425 2491 3425 1978 
L 3425 0 
L 2847 0 
L 2847 2094 
Q 2847 2600 2669 2842 
Q 2491 3084 2119 3084 
Q 1678 3084 1418 2786 
Q 1159 2488 1159 1978 
L 1159 0 
L 581 0 
L 581 3500 
L 1159 3500 
L 1159 2956 
Q 1356 3278 1631 3431 
Q 1906 3584 2284 3584 
Q 2666 3584 2933 3390 
Q 3200 3197 3328 2828 
z
" transform="scale(0.015625)"/>
      <path id="DejaVuSans-61" d="M 2194 1759 
Q 1497 1759 1228 1600 
Q 959 1441 959 1056 
Q 959 750 1161 570 
Q 1363 391 1709 391 
Q 2188 391 2477 730 
Q 2766 1069 2766 1631 
L 2766 1759 
L 2194 1759 
z
M 3341 1997 
L 3341 0 
L 2766 0 
L 2766 531 
Q 2569 213 2275 61 
Q 1981 -91 1556 -91 
Q 1019 -91 701 211 
Q 384 513 384 1019 
Q 384 1609 779 1909 
Q 1175 2209 1959 2209 
L 2766 2209 
L 2766 2266 
Q 2766 2663 2505 2880 
Q 2244 3097 1772 3097 
Q 1472 3097 1187 3025 
Q 903 2953 641 2809 
L 641 3341 
Q 956 3463 1253 3523 
Q 1550 3584 1831 3584 
Q 2591 3584 2966 3190 
Q 3341 2797 3341 1997 
z
" transform="scale(0.015625)"/>
      <path id="DejaVuSans-63" d="M 3122 3366 
L 3122 2828 
Q 2878 2963 2633 3030 
Q 2388 3097 2138 3097 
Q 1578 3097 1268 2742 
Q 959 2388 959 1747 
Q 959 1106 1268 751 
Q 1578 397 2138 397 
Q 2388 397 2633 464 
Q 2878 531 3122 666 
L 3122 134 
Q 2881 22 2623 -34 
Q 2366 -91 2075 -91 
Q 1284 -91 818 406 
Q 353 903 353 1747 
Q 353 2603 823 3093 
Q 1294 3584 2113 3584 
Q 2378 3584 2631 3529 
Q 2884 3475 3122 3366 
z
" transform="scale(0.015625)"/>
      <path id="DejaVuSans-41" d="M 2188 4044 
L 1331 1722 
L 3047 1722 
L 2188 4044 
z
M 1831 4666 
L 2547 4666 
L 4325 0 
L 3669 0 
L 3244 1197 
L 1141 1197 
L 716 0 
L 50 0 
L 1831 4666 
z
" transform="scale(0.015625)"/>
      <path id="DejaVuSans-56" d="M 1831 0 
L 50 4666 
L 709 4666 
L 2188 738 
L 3669 4666 
L 4325 4666 
L 2547 0 
L 1831 0 
z
" transform="scale(0.015625)"/>
      <path id="DejaVuSans-4e" d="M 628 4666 
L 1478 4666 
L 3547 763 
L 3547 4666 
L 4159 4666 
L 4159 0 
L 3309 0 
L 1241 3903 
L 1241 0 
L 628 0 
L 628 4666 
z
" transform="scale(0.015625)"/>
      <path id="DejaVuSans-2d" d="M 313 2009 
L 1997 2009 
L 1997 1497 
L 313 1497 
L 313 2009 
z
" transform="scale(0.015625)"/>
      <path id="DejaVuSans-73" d="M 2834 3397 
L 2834 2853 
Q 2591 2978 2328 3040 
Q 2066 3103 1784 3103 
Q 1356 3103 1142 2972 
Q 928 2841 928 2578 
Q 928 2378 1081 2264 
Q 1234 2150 1697 2047 
L 1894 2003 
Q 2506 1872 2764 1633 
Q 3022 1394 3022 966 
Q 3022 478 2636 193 
Q 2250 -91 1575 -91 
Q 1294 -91 989 -36 
Q 684 19 347 128 
L 347 722 
Q 666 556 975 473 
Q 1284 391 1588 391 
Q 1994 391 2212 530 
Q 2431 669 2431 922 
Q 2431 1156 2273 1281 
Q 2116 1406 1581 1522 
L 1381 1569 
Q 847 1681 609 1914 
Q 372 2147 372 2553 
Q 372 3047 722 3315 
Q 1072 3584 1716 3584 
Q 2034 3584 2315 3537 
Q 2597 3491 2834 3397 
z
" transform="scale(0.015625)"/>
      <path id="DejaVuSans-67" d="M 2906 1791 
Q 2906 2416 2648 2759 
Q 2391 3103 1925 3103 
Q 1463 3103 1205 2759 
Q 947 2416 947 1791 
Q 947 1169 1205 825 
Q 1463 481 1925 481 
Q 2391 481 2648 825 
Q 2906 1169 2906 1791 
z
M 3481 434 
Q 3481 -459 3084 -895 
Q 2688 -1331 1869 -1331 
Q 1566 -1331 1297 -1286 
Q 1028 -1241 775 -1147 
L 775 -588 
Q 1028 -725 1275 -790 
Q 1522 -856 1778 -856 
Q 2344 -856 2625 -561 
Q 2906 -266 2906 331 
L 2906 616 
Q 2728 306 2450 153 
Q 2172 0 1784 0 
Q 1141 0 747 490 
Q 353 981 353 1791 
Q 353 2603 747 3093 
Q 1141 3584 1784 3584 
Q 2172 3584 2450 3431 
Q 2728 3278 2906 2969 
L 2906 3500 
L 3481 3500 
L 3481 434 
z
" transform="scale(0.015625)"/>
      <path id="DejaVuSans-79" d="M 2059 -325 
Q 1816 -950 1584 -1140 
Q 1353 -1331 966 -1331 
L 506 -1331 
L 506 -850 
L 844 -850 
Q 1081 -850 1212 -737 
Q 1344 -625 1503 -206 
L 1606 56 
L 191 3500 
L 800 3500 
L 1894 763 
L 2988 3500 
L 3597 3500 
L 2059 -325 
z
" transform="scale(0.015625)"/>
      <path id="DejaVuSans-37" d="M 525 4666 
L 3525 4666 
L 3525 4397 
L 1831 0 
L 1172 0 
L 2766 4134 
L 525 4134 
L 525 4666 
z
" transform="scale(0.015625)"/>
     </defs>
     <use xlink:href="#DejaVuSans-50"/>
     <use xlink:href="#DejaVuSans-65" x="56.677734"/>
     <use xlink:href="#DejaVuSans-72" x="118.201172"/>
     <use xlink:href="#DejaVuSans-66" x="159.314453"/>
     <use xlink:href="#DejaVuSans-6f" x="194.519531"/>
     <use xlink:href="#DejaVuSans-72" x="255.701172"/>
     <use xlink:href="#DejaVuSans-6d" x="295.064453"/>
     <use xlink:href="#DejaVuSans-61" x="392.476562"/>
     <use xlink:href="#DejaVuSans-6e" x="453.755859"/>
     <use xlink:href="#DejaVuSans-63" x="517.134766"/>
     <use xlink:href="#DejaVuSans-65" x="572.115234"/>
     <use xlink:href="#DejaVuSans-20" x="633.638672"/>
     <use xlink:href="#DejaVuSans-6f" x="665.425781"/>
     <use xlink:href="#DejaVuSans-66" x="726.607422"/>
     <use xlink:href="#DejaVuSans-20" x="761.8125"/>
     <use xlink:href="#DejaVuSans-41" x="793.599609"/>
     <use xlink:href="#DejaVuSans-56" x="855.632812"/>
     <use xlink:href="#DejaVuSans-41" x="917.666016"/>
     <use xlink:href="#DejaVuSans-4e" x="986.074219"/>
     <use xlink:href="#DejaVuSans-2d" x="1060.878906"/>
     <use xlink:href="#DejaVuSans-73" x="1096.962891"/>
     <use xlink:href="#DejaVuSans-74" x="1149.0625"/>
     <use xlink:href="#DejaVuSans-72" x="1188.271484"/>
     <use xlink:href="#DejaVuSans-61" x="1229.384766"/>
     <use xlink:href="#DejaVuSans-74" x="1290.664062"/>
     <use xlink:href="#DejaVuSans-65" x="1329.873047"/>
     <use xlink:href="#DejaVuSans-67" x="1391.396484"/>
     <use xlink:href="#DejaVuSans-79" x="1454.873047"/>
     <use xlink:href="#DejaVuSans-20" x="1514.052734"/>
     <use xlink:href="#DejaVuSans-79" x="1545.839844"/>
     <use xlink:href="#DejaVuSans-65" x="1605.019531"/>
     <use xlink:href="#DejaVuSans-61" x="1666.542969"/>
     <use xlink:href="#DejaVuSans-72" x="1727.822266"/>
     <use xlink:href="#DejaVuSans-20" x="1768.935547"/>
     <use xlink:href="#DejaVuSans-32" x="1800.722656"/>
     <use xlink:href="#DejaVuSans-30" x="1864.345703"/>
     <use xlink:href="#DejaVuSans-31" x="1927.96875"/>
     <use xlink:href="#DejaVuSans-37" x="1991.591797"/>
    </g>
   </g>
   <g id="legend_1">
    <g id="patch_7">
     <path d="M 63 78.914375 
L 190.421875 78.914375 
Q 192.421875 78.914375 192.421875 76.914375 
L 192.421875 33.88 
Q 192.421875 31.88 190.421875 31.88 
L 63 31.88 
Q 61 31.88 61 33.88 
L 61 76.914375 
Q 61 78.914375 63 78.914375 
z
" style="fill: #ffffff; opacity: 0.8; stroke: #cccccc; stroke-linejoin: miter"/>
    </g>
    <g id="line2d_17">
     <path d="M 65 39.978438 
L 75 39.978438 
L 85 39.978438 
" style="fill: none; stroke: #008000; stroke-width: 1.5; stroke-linecap: square"/>
    </g>
    <g id="text_9">
     <!-- 4.8% return omx -->
     <g transform="translate(93 43.478438)scale(0.1 -0.1)">
      <defs>
       <path id="DejaVuSans-34" d="M 2419 4116 
L 825 1625 
L 2419 1625 
L 2419 4116 
z
M 2253 4666 
L 3047 4666 
L 3047 1625 
L 3713 1625 
L 3713 1100 
L 3047 1100 
L 3047 0 
L 2419 0 
L 2419 1100 
L 313 1100 
L 313 1709 
L 2253 4666 
z
" transform="scale(0.015625)"/>
       <path id="DejaVuSans-2e" d="M 684 794 
L 1344 794 
L 1344 0 
L 684 0 
L 684 794 
z
" transform="scale(0.015625)"/>
       <path id="DejaVuSans-38" d="M 2034 2216 
Q 1584 2216 1326 1975 
Q 1069 1734 1069 1313 
Q 1069 891 1326 650 
Q 1584 409 2034 409 
Q 2484 409 2743 651 
Q 3003 894 3003 1313 
Q 3003 1734 2745 1975 
Q 2488 2216 2034 2216 
z
M 1403 2484 
Q 997 2584 770 2862 
Q 544 3141 544 3541 
Q 544 4100 942 4425 
Q 1341 4750 2034 4750 
Q 2731 4750 3128 4425 
Q 3525 4100 3525 3541 
Q 3525 3141 3298 2862 
Q 3072 2584 2669 2484 
Q 3125 2378 3379 2068 
Q 3634 1759 3634 1313 
Q 3634 634 3220 271 
Q 2806 -91 2034 -91 
Q 1263 -91 848 271 
Q 434 634 434 1313 
Q 434 1759 690 2068 
Q 947 2378 1403 2484 
z
M 1172 3481 
Q 1172 3119 1398 2916 
Q 1625 2713 2034 2713 
Q 2441 2713 2670 2916 
Q 2900 3119 2900 3481 
Q 2900 3844 2670 4047 
Q 2441 4250 2034 4250 
Q 1625 4250 1398 4047 
Q 1172 3844 1172 3481 
z
" transform="scale(0.015625)"/>
       <path id="DejaVuSans-78" d="M 3513 3500 
L 2247 1797 
L 3578 0 
L 2900 0 
L 1881 1375 
L 863 0 
L 184 0 
L 1544 1831 
L 300 3500 
L 978 3500 
L 1906 2253 
L 2834 3500 
L 3513 3500 
z
" transform="scale(0.015625)"/>
      </defs>
      <use xlink:href="#DejaVuSans-34"/>
      <use xlink:href="#DejaVuSans-2e" x="63.623047"/>
      <use xlink:href="#DejaVuSans-38" x="95.410156"/>
      <use xlink:href="#DejaVuSans-25" x="159.033203"/>
      <use xlink:href="#DejaVuSans-20" x="254.052734"/>
      <use xlink:href="#DejaVuSans-72" x="285.839844"/>
      <use xlink:href="#DejaVuSans-65" x="324.703125"/>
      <use xlink:href="#DejaVuSans-74" x="386.226562"/>
      <use xlink:href="#DejaVuSans-75" x="425.435547"/>
      <use xlink:href="#DejaVuSans-72" x="488.814453"/>
      <use xlink:href="#DejaVuSans-6e" x="528.177734"/>
      <use xlink:href="#DejaVuSans-20" x="591.556641"/>
      <use xlink:href="#DejaVuSans-6f" x="623.34375"/>
      <use xlink:href="#DejaVuSans-6d" x="684.525391"/>
      <use xlink:href="#DejaVuSans-78" x="781.9375"/>
     </g>
    </g>
    <g id="line2d_18">
     <path d="M 65 54.656563 
L 75 54.656563 
L 85 54.656563 
" style="fill: none; stroke: #0000ff; stroke-width: 1.5; stroke-linecap: square"/>
    </g>
    <g id="text_10">
     <!-- 23.0% return AVAN -->
     <g transform="translate(93 58.156563)scale(0.1 -0.1)">
      <defs>
       <path id="DejaVuSans-33" d="M 2597 2516 
Q 3050 2419 3304 2112 
Q 3559 1806 3559 1356 
Q 3559 666 3084 287 
Q 2609 -91 1734 -91 
Q 1441 -91 1130 -33 
Q 819 25 488 141 
L 488 750 
Q 750 597 1062 519 
Q 1375 441 1716 441 
Q 2309 441 2620 675 
Q 2931 909 2931 1356 
Q 2931 1769 2642 2001 
Q 2353 2234 1838 2234 
L 1294 2234 
L 1294 2753 
L 1863 2753 
Q 2328 2753 2575 2939 
Q 2822 3125 2822 3475 
Q 2822 3834 2567 4026 
Q 2313 4219 1838 4219 
Q 1578 4219 1281 4162 
Q 984 4106 628 3988 
L 628 4550 
Q 988 4650 1302 4700 
Q 1616 4750 1894 4750 
Q 2613 4750 3031 4423 
Q 3450 4097 3450 3541 
Q 3450 3153 3228 2886 
Q 3006 2619 2597 2516 
z
" transform="scale(0.015625)"/>
      </defs>
      <use xlink:href="#DejaVuSans-32"/>
      <use xlink:href="#DejaVuSans-33" x="63.623047"/>
      <use xlink:href="#DejaVuSans-2e" x="127.246094"/>
      <use xlink:href="#DejaVuSans-30" x="159.033203"/>
      <use xlink:href="#DejaVuSans-25" x="222.65625"/>
      <use xlink:href="#DejaVuSans-20" x="317.675781"/>
      <use xlink:href="#DejaVuSans-72" x="349.462891"/>
      <use xlink:href="#DejaVuSans-65" x="388.326172"/>
      <use xlink:href="#DejaVuSans-74" x="449.849609"/>
      <use xlink:href="#DejaVuSans-75" x="489.058594"/>
      <use xlink:href="#DejaVuSans-72" x="552.4375"/>
      <use xlink:href="#DejaVuSans-6e" x="591.800781"/>
      <use xlink:href="#DejaVuSans-20" x="655.179688"/>
      <use xlink:href="#DejaVuSans-41" x="686.966797"/>
      <use xlink:href="#DejaVuSans-56" x="749"/>
      <use xlink:href="#DejaVuSans-41" x="811.033203"/>
      <use xlink:href="#DejaVuSans-4e" x="879.441406"/>
     </g>
    </g>
    <g id="line2d_19">
     <path d="M 65 69.334688 
L 75 69.334688 
L 85 69.334688 
" style="fill: none; stroke: #ff0000; stroke-width: 1.5; stroke-linecap: square"/>
    </g>
    <g id="text_11">
     <!-- cummax -->
     <g transform="translate(93 72.834688)scale(0.1 -0.1)">
      <use xlink:href="#DejaVuSans-63"/>
      <use xlink:href="#DejaVuSans-75" x="54.980469"/>
      <use xlink:href="#DejaVuSans-6d" x="118.359375"/>
      <use xlink:href="#DejaVuSans-6d" x="215.771484"/>
      <use xlink:href="#DejaVuSans-61" x="313.183594"/>
      <use xlink:href="#DejaVuSans-78" x="374.462891"/>
     </g>
    </g>
   </g>
  </g>
  <g id="axes_2">
   <g id="patch_8">
    <path d="M 56 390.04 
L 553.396781 390.04 
L 553.396781 302.955909 
L 56 302.955909 
z
" style="fill: #ffffff"/>
   </g>
   <g id="matplotlib.axis_3">
    <g id="xtick_8">
     <g id="line2d_20">
      <g>
       <use xlink:href="#mfde0033362" x="83.64715" y="390.04" style="stroke: #000000; stroke-width: 0.8"/>
      </g>
     </g>
     <g id="text_12">
      <!-- 2017-01 -->
      <g transform="translate(62.755743 404.638438)scale(0.1 -0.1)">
       <use xlink:href="#DejaVuSans-32"/>
       <use xlink:href="#DejaVuSans-30" x="63.623047"/>
       <use xlink:href="#DejaVuSans-31" x="127.246094"/>
       <use xlink:href="#DejaVuSans-37" x="190.869141"/>
       <use xlink:href="#DejaVuSans-2d" x="254.492188"/>
       <use xlink:href="#DejaVuSans-30" x="290.576172"/>
       <use xlink:href="#DejaVuSans-31" x="354.199219"/>
      </g>
     </g>
    </g>
    <g id="xtick_9">
     <g id="line2d_21">
      <g>
       <use xlink:href="#mfde0033362" x="157.960672" y="390.04" style="stroke: #000000; stroke-width: 0.8"/>
      </g>
     </g>
     <g id="text_13">
      <!-- 2017-03 -->
      <g transform="translate(137.069266 404.638438)scale(0.1 -0.1)">
       <use xlink:href="#DejaVuSans-32"/>
       <use xlink:href="#DejaVuSans-30" x="63.623047"/>
       <use xlink:href="#DejaVuSans-31" x="127.246094"/>
       <use xlink:href="#DejaVuSans-37" x="190.869141"/>
       <use xlink:href="#DejaVuSans-2d" x="254.492188"/>
       <use xlink:href="#DejaVuSans-30" x="290.576172"/>
       <use xlink:href="#DejaVuSans-33" x="354.199219"/>
      </g>
     </g>
    </g>
    <g id="xtick_10">
     <g id="line2d_22">
      <g>
       <use xlink:href="#mfde0033362" x="234.793297" y="390.04" style="stroke: #000000; stroke-width: 0.8"/>
      </g>
     </g>
     <g id="text_14">
      <!-- 2017-05 -->
      <g transform="translate(213.901891 404.638438)scale(0.1 -0.1)">
       <use xlink:href="#DejaVuSans-32"/>
       <use xlink:href="#DejaVuSans-30" x="63.623047"/>
       <use xlink:href="#DejaVuSans-31" x="127.246094"/>
       <use xlink:href="#DejaVuSans-37" x="190.869141"/>
       <use xlink:href="#DejaVuSans-2d" x="254.492188"/>
       <use xlink:href="#DejaVuSans-30" x="290.576172"/>
       <use xlink:href="#DejaVuSans-35" x="354.199219"/>
      </g>
     </g>
    </g>
    <g id="xtick_11">
     <g id="line2d_23">
      <g>
       <use xlink:href="#mfde0033362" x="311.625923" y="390.04" style="stroke: #000000; stroke-width: 0.8"/>
      </g>
     </g>
     <g id="text_15">
      <!-- 2017-07 -->
      <g transform="translate(290.734516 404.638438)scale(0.1 -0.1)">
       <use xlink:href="#DejaVuSans-32"/>
       <use xlink:href="#DejaVuSans-30" x="63.623047"/>
       <use xlink:href="#DejaVuSans-31" x="127.246094"/>
       <use xlink:href="#DejaVuSans-37" x="190.869141"/>
       <use xlink:href="#DejaVuSans-2d" x="254.492188"/>
       <use xlink:href="#DejaVuSans-30" x="290.576172"/>
       <use xlink:href="#DejaVuSans-37" x="354.199219"/>
      </g>
     </g>
    </g>
    <g id="xtick_12">
     <g id="line2d_24">
      <g>
       <use xlink:href="#mfde0033362" x="389.718099" y="390.04" style="stroke: #000000; stroke-width: 0.8"/>
      </g>
     </g>
     <g id="text_16">
      <!-- 2017-09 -->
      <g transform="translate(368.826693 404.638438)scale(0.1 -0.1)">
       <defs>
        <path id="DejaVuSans-39" d="M 703 97 
L 703 672 
Q 941 559 1184 500 
Q 1428 441 1663 441 
Q 2288 441 2617 861 
Q 2947 1281 2994 2138 
Q 2813 1869 2534 1725 
Q 2256 1581 1919 1581 
Q 1219 1581 811 2004 
Q 403 2428 403 3163 
Q 403 3881 828 4315 
Q 1253 4750 1959 4750 
Q 2769 4750 3195 4129 
Q 3622 3509 3622 2328 
Q 3622 1225 3098 567 
Q 2575 -91 1691 -91 
Q 1453 -91 1209 -44 
Q 966 3 703 97 
z
M 1959 2075 
Q 2384 2075 2632 2365 
Q 2881 2656 2881 3163 
Q 2881 3666 2632 3958 
Q 2384 4250 1959 4250 
Q 1534 4250 1286 3958 
Q 1038 3666 1038 3163 
Q 1038 2656 1286 2365 
Q 1534 2075 1959 2075 
z
" transform="scale(0.015625)"/>
       </defs>
       <use xlink:href="#DejaVuSans-32"/>
       <use xlink:href="#DejaVuSans-30" x="63.623047"/>
       <use xlink:href="#DejaVuSans-31" x="127.246094"/>
       <use xlink:href="#DejaVuSans-37" x="190.869141"/>
       <use xlink:href="#DejaVuSans-2d" x="254.492188"/>
       <use xlink:href="#DejaVuSans-30" x="290.576172"/>
       <use xlink:href="#DejaVuSans-39" x="354.199219"/>
      </g>
     </g>
    </g>
    <g id="xtick_13">
     <g id="line2d_25">
      <g>
       <use xlink:href="#mfde0033362" x="466.550724" y="390.04" style="stroke: #000000; stroke-width: 0.8"/>
      </g>
     </g>
     <g id="text_17">
      <!-- 2017-11 -->
      <g transform="translate(445.659318 404.638438)scale(0.1 -0.1)">
       <use xlink:href="#DejaVuSans-32"/>
       <use xlink:href="#DejaVuSans-30" x="63.623047"/>
       <use xlink:href="#DejaVuSans-31" x="127.246094"/>
       <use xlink:href="#DejaVuSans-37" x="190.869141"/>
       <use xlink:href="#DejaVuSans-2d" x="254.492188"/>
       <use xlink:href="#DejaVuSans-31" x="290.576172"/>
       <use xlink:href="#DejaVuSans-31" x="354.199219"/>
      </g>
     </g>
    </g>
    <g id="xtick_14">
     <g id="line2d_26">
      <g>
       <use xlink:href="#mfde0033362" x="543.383349" y="390.04" style="stroke: #000000; stroke-width: 0.8"/>
      </g>
     </g>
     <g id="text_18">
      <!-- 2018-01 -->
      <g transform="translate(522.491943 404.638438)scale(0.1 -0.1)">
       <use xlink:href="#DejaVuSans-32"/>
       <use xlink:href="#DejaVuSans-30" x="63.623047"/>
       <use xlink:href="#DejaVuSans-31" x="127.246094"/>
       <use xlink:href="#DejaVuSans-38" x="190.869141"/>
       <use xlink:href="#DejaVuSans-2d" x="254.492188"/>
       <use xlink:href="#DejaVuSans-30" x="290.576172"/>
       <use xlink:href="#DejaVuSans-31" x="354.199219"/>
      </g>
     </g>
    </g>
    <g id="text_19">
     <!-- Time -->
     <g transform="translate(292.464797 418.316562)scale(0.1 -0.1)">
      <defs>
       <path id="DejaVuSans-54" d="M -19 4666 
L 3928 4666 
L 3928 4134 
L 2272 4134 
L 2272 0 
L 1638 0 
L 1638 4134 
L -19 4134 
L -19 4666 
z
" transform="scale(0.015625)"/>
       <path id="DejaVuSans-69" d="M 603 3500 
L 1178 3500 
L 1178 0 
L 603 0 
L 603 3500 
z
M 603 4863 
L 1178 4863 
L 1178 4134 
L 603 4134 
L 603 4863 
z
" transform="scale(0.015625)"/>
      </defs>
      <use xlink:href="#DejaVuSans-54"/>
      <use xlink:href="#DejaVuSans-69" x="57.958984"/>
      <use xlink:href="#DejaVuSans-6d" x="85.742188"/>
      <use xlink:href="#DejaVuSans-65" x="183.154297"/>
     </g>
    </g>
   </g>
   <g id="matplotlib.axis_4">
    <g id="ytick_7">
     <g id="line2d_27">
      <g>
       <use xlink:href="#m3493199a75" x="56" y="384.790453" style="stroke: #000000; stroke-width: 0.8"/>
      </g>
     </g>
     <g id="text_20">
      <!-- −6 -->
      <g transform="translate(34.257812 388.589671)scale(0.1 -0.1)">
       <defs>
        <path id="DejaVuSans-2212" d="M 678 2272 
L 4684 2272 
L 4684 1741 
L 678 1741 
L 678 2272 
z
" transform="scale(0.015625)"/>
        <path id="DejaVuSans-36" d="M 2113 2584 
Q 1688 2584 1439 2293 
Q 1191 2003 1191 1497 
Q 1191 994 1439 701 
Q 1688 409 2113 409 
Q 2538 409 2786 701 
Q 3034 994 3034 1497 
Q 3034 2003 2786 2293 
Q 2538 2584 2113 2584 
z
M 3366 4563 
L 3366 3988 
Q 3128 4100 2886 4159 
Q 2644 4219 2406 4219 
Q 1781 4219 1451 3797 
Q 1122 3375 1075 2522 
Q 1259 2794 1537 2939 
Q 1816 3084 2150 3084 
Q 2853 3084 3261 2657 
Q 3669 2231 3669 1497 
Q 3669 778 3244 343 
Q 2819 -91 2113 -91 
Q 1303 -91 875 529 
Q 447 1150 447 2328 
Q 447 3434 972 4092 
Q 1497 4750 2381 4750 
Q 2619 4750 2861 4703 
Q 3103 4656 3366 4563 
z
" transform="scale(0.015625)"/>
       </defs>
       <use xlink:href="#DejaVuSans-2212"/>
       <use xlink:href="#DejaVuSans-36" x="83.789062"/>
      </g>
     </g>
    </g>
    <g id="ytick_8">
     <g id="line2d_28">
      <g>
       <use xlink:href="#m3493199a75" x="56" y="358.831727" style="stroke: #000000; stroke-width: 0.8"/>
      </g>
     </g>
     <g id="text_21">
      <!-- −4 -->
      <g transform="translate(34.257812 362.630946)scale(0.1 -0.1)">
       <use xlink:href="#DejaVuSans-2212"/>
       <use xlink:href="#DejaVuSans-34" x="83.789062"/>
      </g>
     </g>
    </g>
    <g id="ytick_9">
     <g id="line2d_29">
      <g>
       <use xlink:href="#m3493199a75" x="56" y="332.873002" style="stroke: #000000; stroke-width: 0.8"/>
      </g>
     </g>
     <g id="text_22">
      <!-- −2 -->
      <g transform="translate(34.257812 336.672221)scale(0.1 -0.1)">
       <use xlink:href="#DejaVuSans-2212"/>
       <use xlink:href="#DejaVuSans-32" x="83.789062"/>
      </g>
     </g>
    </g>
    <g id="ytick_10">
     <g id="line2d_30">
      <g>
       <use xlink:href="#m3493199a75" x="56" y="306.914277" style="stroke: #000000; stroke-width: 0.8"/>
      </g>
     </g>
     <g id="text_23">
      <!-- 0 -->
      <g transform="translate(42.6375 310.713496)scale(0.1 -0.1)">
       <use xlink:href="#DejaVuSans-30"/>
      </g>
     </g>
    </g>
    <g id="text_24">
     <!-- DD % -->
     <g transform="translate(28.178125 360.537798)rotate(-90)scale(0.1 -0.1)">
      <defs>
       <path id="DejaVuSans-44" d="M 1259 4147 
L 1259 519 
L 2022 519 
Q 2988 519 3436 956 
Q 3884 1394 3884 2338 
Q 3884 3275 3436 3711 
Q 2988 4147 2022 4147 
L 1259 4147 
z
M 628 4666 
L 1925 4666 
Q 3281 4666 3915 4102 
Q 4550 3538 4550 2338 
Q 4550 1131 3912 565 
Q 3275 0 1925 0 
L 628 0 
L 628 4666 
z
" transform="scale(0.015625)"/>
      </defs>
      <use xlink:href="#DejaVuSans-44"/>
      <use xlink:href="#DejaVuSans-44" x="77.001953"/>
      <use xlink:href="#DejaVuSans-20" x="154.003906"/>
      <use xlink:href="#DejaVuSans-25" x="185.791016"/>
     </g>
    </g>
   </g>
   <g id="line2d_31">
    <path d="M 78.608945 306.914277 
L 79.868496 307.050215 
L 81.128047 308.029748 
L 84.906701 306.914277 
L 88.685354 306.914277 
L 93.723559 312.483717 
L 94.983111 323.46567 
L 96.242662 306.914277 
L 103.799969 306.914277 
L 105.05952 311.008218 
L 106.319072 307.482708 
L 107.578623 306.914277 
L 111.357277 306.914277 
L 112.616828 325.745222 
L 113.876379 320.285685 
L 115.13593 310.328781 
L 116.395482 313.714675 
L 120.174135 317.297562 
L 121.433686 320.885514 
L 122.693238 328.086175 
L 123.952789 310.661664 
L 125.21234 311.987764 
L 128.990994 306.914277 
L 131.510096 306.914277 
L 132.769648 315.470251 
L 134.029199 320.436968 
L 137.807853 317.729049 
L 139.067404 306.914277 
L 149.143814 306.914277 
L 150.403365 312.591178 
L 151.662916 315.053132 
L 155.44157 328.704239 
L 156.701121 325.91237 
L 157.960672 317.706064 
L 159.220223 306.914277 
L 160.479775 310.293024 
L 164.258428 318.329623 
L 165.51798 317.778819 
L 166.777531 323.473174 
L 168.037082 328.302992 
L 169.296633 328.302992 
L 173.075287 328.120475 
L 174.334838 339.170868 
L 175.594389 343.911094 
L 193.228107 343.911094 
L 194.487658 337.455783 
L 195.747209 340.898032 
L 199.525863 327.447324 
L 200.785414 334.865643 
L 202.044965 334.865643 
L 203.304517 336.999609 
L 204.564068 332.653894 
L 208.342721 324.026456 
L 209.602273 312.897511 
L 210.861824 324.120078 
L 212.121375 324.917925 
L 218.419131 324.2699 
L 219.678683 328.620496 
L 220.938234 327.356366 
L 222.197785 334.473719 
L 225.976439 328.509406 
L 227.23599 323.597857 
L 228.495541 311.324714 
L 229.755092 306.914277 
L 237.3124 306.914277 
L 238.571951 312.178332 
L 239.831502 312.127347 
L 243.610156 311.378534 
L 244.869707 318.858173 
L 246.129258 311.461261 
L 247.38881 315.859174 
L 248.648361 314.795683 
L 252.427015 310.938602 
L 253.686566 313.668861 
L 254.946117 317.308458 
L 257.46522 317.308458 
L 261.243873 311.25645 
L 262.503424 306.914277 
L 271.320283 306.914277 
L 272.579834 313.49159 
L 273.839386 311.14767 
L 275.098937 306.914277 
L 283.915795 306.914277 
L 287.694449 309.115523 
L 288.954 316.051888 
L 290.213552 306.914277 
L 291.473103 307.818767 
L 292.732654 321.415766 
L 296.511308 309.944391 
L 297.770859 306.914277 
L 299.03041 306.914277 
L 300.289961 317.596885 
L 305.328166 306.914277 
L 306.587718 306.914277 
L 307.847269 308.539733 
L 309.10682 306.914277 
L 310.366371 327.260019 
L 314.145025 329.721011 
L 315.404576 324.536906 
L 316.664127 324.910739 
L 317.923679 330.336913 
L 319.18323 332.543906 
L 322.961884 327.266276 
L 324.221435 331.814047 
L 325.480986 331.280459 
L 326.740537 316.144829 
L 328.000089 330.829172 
L 331.778742 328.574951 
L 333.038293 328.383457 
L 334.297845 339.487272 
L 335.557396 344.485707 
L 336.816947 354.260396 
L 340.595601 355.872004 
L 341.855152 372.355761 
L 343.114703 375.863319 
L 344.374255 373.256944 
L 345.633806 361.341365 
L 349.412459 376.574782 
L 350.672011 366.239893 
L 351.931562 350.712258 
L 353.191113 343.541622 
L 354.450664 344.081838 
L 358.229318 330.512056 
L 359.488869 326.914496 
L 360.748421 324.637282 
L 363.267523 359.599465 
L 367.046177 378.024969 
L 368.305728 367.301008 
L 369.565279 368.719209 
L 370.82483 374.691096 
L 377.122587 374.715114 
L 389.718099 374.715114 
L 393.496753 376.462684 
L 394.756304 376.462684 
L 396.015855 386.081632 
L 397.275406 383.035435 
L 398.534958 378.528676 
L 402.313611 375.110775 
L 403.573162 365.686566 
L 404.832714 361.489547 
L 406.092265 364.302498 
L 411.13047 347.105616 
L 412.390021 352.662536 
L 413.649572 350.029831 
L 414.909124 349.236417 
L 416.168675 346.20551 
L 419.947328 338.760968 
L 421.20688 327.33122 
L 422.466431 331.881441 
L 423.725982 327.392551 
L 424.985533 324.885325 
L 428.764187 306.914277 
L 431.28329 306.914277 
L 432.542841 307.774575 
L 433.802392 306.914277 
L 437.581046 312.235776 
L 438.840597 313.094999 
L 440.100148 317.809188 
L 441.359699 332.323614 
L 442.619251 326.764883 
L 446.397904 316.739897 
L 447.657456 314.177376 
L 448.917007 329.986033 
L 450.176558 323.371015 
L 451.436109 323.371015 
L 455.214763 319.394088 
L 456.474314 322.754095 
L 466.550724 322.754095 
L 467.810275 324.903666 
L 469.069826 336.888937 
L 472.84848 326.266255 
L 474.108031 325.576408 
L 475.367583 332.108128 
L 476.627134 341.172671 
L 477.886685 363.019075 
L 481.665339 361.667837 
L 504.337261 361.667837 
L 508.115915 359.140793 
L 530.787837 359.140793 
L 530.787837 359.140793 
" clip-path="url(#pa9a9fde3f3)" style="fill: none; stroke: #0000ff; stroke-width: 1.5; stroke-linecap: square"/>
   </g>
   <g id="patch_9">
    <path d="M 56 390.04 
L 56 302.955909 
" style="fill: none; stroke: #000000; stroke-width: 0.8; stroke-linejoin: miter; stroke-linecap: square"/>
   </g>
   <g id="patch_10">
    <path d="M 553.396781 390.04 
L 553.396781 302.955909 
" style="fill: none; stroke: #000000; stroke-width: 0.8; stroke-linejoin: miter; stroke-linecap: square"/>
   </g>
   <g id="patch_11">
    <path d="M 56 390.04 
L 553.396781 390.04 
" style="fill: none; stroke: #000000; stroke-width: 0.8; stroke-linejoin: miter; stroke-linecap: square"/>
   </g>
   <g id="patch_12">
    <path d="M 56 302.955909 
L 553.396781 302.955909 
" style="fill: none; stroke: #000000; stroke-width: 0.8; stroke-linejoin: miter; stroke-linecap: square"/>
   </g>
  </g>
 </g>
 <defs>
  <clipPath id="p9ec2cb6dc2">
   <rect x="56" y="26.88" width="497.396781" height="261.252273"/>
  </clipPath>
  <clipPath id="pa9a9fde3f3">
   <rect x="56" y="302.955909" width="497.396781" height="87.084091"/>
  </clipPath>
 </defs>
</svg>
