<?xml version="1.0" encoding="utf-8" standalone="no"?>
<!DOCTYPE svg PUBLIC "-//W3C//DTD SVG 1.1//EN"
  "http://www.w3.org/Graphics/SVG/1.1/DTD/svg11.dtd">
<svg xmlns:xlink="http://www.w3.org/1999/xlink" width="720pt" height="504pt" viewBox="0 0 720 504" xmlns="http://www.w3.org/2000/svg" version="1.1">
 <metadata>
  <rdf:RDF xmlns:dc="http://purl.org/dc/elements/1.1/" xmlns:cc="http://creativecommons.org/ns#" xmlns:rdf="http://www.w3.org/1999/02/22-rdf-syntax-ns#">
   <cc:Work>
    <dc:type rdf:resource="http://purl.org/dc/dcmitype/StillImage"/>
    <dc:date>2023-01-01T22:56:34.804590</dc:date>
    <dc:format>image/svg+xml</dc:format>
    <dc:creator>
     <cc:Agent>
      <dc:title>Matplotlib v3.5.0, https://matplotlib.org/</dc:title>
     </cc:Agent>
    </dc:creator>
   </cc:Work>
  </rdf:RDF>
 </metadata>
 <defs>
  <style type="text/css">*{stroke-linejoin: round; stroke-linecap: butt}</style>
 </defs>
 <g id="figure_1">
  <g id="patch_1">
   <path d="M 0 504 
L 720 504 
L 720 0 
L 0 0 
z
" style="fill: #ffffff"/>
  </g>
  <g id="axes_1">
   <g id="patch_2">
    <path d="M 90 448.56 
L 648 448.56 
L 648 60.48 
L 90 60.48 
z
" style="fill: #ffffff"/>
   </g>
   <g id="matplotlib.axis_1">
    <g id="xtick_1">
     <g id="line2d_1">
      <defs>
       <path id="m27e48f4d02" d="M 0 0 
L 0 3.5 
" style="stroke: #000000; stroke-width: 0.8"/>
      </defs>
      <g>
       <use xlink:href="#m27e48f4d02" x="121.211161" y="448.56" style="stroke: #000000; stroke-width: 0.8"/>
      </g>
     </g>
     <g id="text_1">
      <!-- 2021-01 -->
      <g transform="translate(100.319754 463.158437)scale(0.1 -0.1)">
       <defs>
        <path id="DejaVuSans-32" d="M 1228 531 
L 3431 531 
L 3431 0 
L 469 0 
L 469 531 
Q 828 903 1448 1529 
Q 2069 2156 2228 2338 
Q 2531 2678 2651 2914 
Q 2772 3150 2772 3378 
Q 2772 3750 2511 3984 
Q 2250 4219 1831 4219 
Q 1534 4219 1204 4116 
Q 875 4013 500 3803 
L 500 4441 
Q 881 4594 1212 4672 
Q 1544 4750 1819 4750 
Q 2544 4750 2975 4387 
Q 3406 4025 3406 3419 
Q 3406 3131 3298 2873 
Q 3191 2616 2906 2266 
Q 2828 2175 2409 1742 
Q 1991 1309 1228 531 
z
" transform="scale(0.015625)"/>
        <path id="DejaVuSans-30" d="M 2034 4250 
Q 1547 4250 1301 3770 
Q 1056 3291 1056 2328 
Q 1056 1369 1301 889 
Q 1547 409 2034 409 
Q 2525 409 2770 889 
Q 3016 1369 3016 2328 
Q 3016 3291 2770 3770 
Q 2525 4250 2034 4250 
z
M 2034 4750 
Q 2819 4750 3233 4129 
Q 3647 3509 3647 2328 
Q 3647 1150 3233 529 
Q 2819 -91 2034 -91 
Q 1250 -91 836 529 
Q 422 1150 422 2328 
Q 422 3509 836 4129 
Q 1250 4750 2034 4750 
z
" transform="scale(0.015625)"/>
        <path id="DejaVuSans-31" d="M 794 531 
L 1825 531 
L 1825 4091 
L 703 3866 
L 703 4441 
L 1819 4666 
L 2450 4666 
L 2450 531 
L 3481 531 
L 3481 0 
L 794 0 
L 794 531 
z
" transform="scale(0.015625)"/>
        <path id="DejaVuSans-2d" d="M 313 2009 
L 1997 2009 
L 1997 1497 
L 313 1497 
L 313 2009 
z
" transform="scale(0.015625)"/>
       </defs>
       <use xlink:href="#DejaVuSans-32"/>
       <use xlink:href="#DejaVuSans-30" x="63.623047"/>
       <use xlink:href="#DejaVuSans-32" x="127.246094"/>
       <use xlink:href="#DejaVuSans-31" x="190.869141"/>
       <use xlink:href="#DejaVuSans-2d" x="254.492188"/>
       <use xlink:href="#DejaVuSans-30" x="290.576172"/>
       <use xlink:href="#DejaVuSans-31" x="354.199219"/>
      </g>
     </g>
    </g>
    <g id="xtick_2">
     <g id="line2d_2">
      <g>
       <use xlink:href="#m27e48f4d02" x="207.462143" y="448.56" style="stroke: #000000; stroke-width: 0.8"/>
      </g>
     </g>
     <g id="text_2">
      <!-- 2021-03 -->
      <g transform="translate(186.570737 463.158437)scale(0.1 -0.1)">
       <defs>
        <path id="DejaVuSans-33" d="M 2597 2516 
Q 3050 2419 3304 2112 
Q 3559 1806 3559 1356 
Q 3559 666 3084 287 
Q 2609 -91 1734 -91 
Q 1441 -91 1130 -33 
Q 819 25 488 141 
L 488 750 
Q 750 597 1062 519 
Q 1375 441 1716 441 
Q 2309 441 2620 675 
Q 2931 909 2931 1356 
Q 2931 1769 2642 2001 
Q 2353 2234 1838 2234 
L 1294 2234 
L 1294 2753 
L 1863 2753 
Q 2328 2753 2575 2939 
Q 2822 3125 2822 3475 
Q 2822 3834 2567 4026 
Q 2313 4219 1838 4219 
Q 1578 4219 1281 4162 
Q 984 4106 628 3988 
L 628 4550 
Q 988 4650 1302 4700 
Q 1616 4750 1894 4750 
Q 2613 4750 3031 4423 
Q 3450 4097 3450 3541 
Q 3450 3153 3228 2886 
Q 3006 2619 2597 2516 
z
" transform="scale(0.015625)"/>
       </defs>
       <use xlink:href="#DejaVuSans-32"/>
       <use xlink:href="#DejaVuSans-30" x="63.623047"/>
       <use xlink:href="#DejaVuSans-32" x="127.246094"/>
       <use xlink:href="#DejaVuSans-31" x="190.869141"/>
       <use xlink:href="#DejaVuSans-2d" x="254.492188"/>
       <use xlink:href="#DejaVuSans-30" x="290.576172"/>
       <use xlink:href="#DejaVuSans-33" x="354.199219"/>
      </g>
     </g>
    </g>
    <g id="xtick_3">
     <g id="line2d_3">
      <g>
       <use xlink:href="#m27e48f4d02" x="296.636888" y="448.56" style="stroke: #000000; stroke-width: 0.8"/>
      </g>
     </g>
     <g id="text_3">
      <!-- 2021-05 -->
      <g transform="translate(275.745481 463.158437)scale(0.1 -0.1)">
       <defs>
        <path id="DejaVuSans-35" d="M 691 4666 
L 3169 4666 
L 3169 4134 
L 1269 4134 
L 1269 2991 
Q 1406 3038 1543 3061 
Q 1681 3084 1819 3084 
Q 2600 3084 3056 2656 
Q 3513 2228 3513 1497 
Q 3513 744 3044 326 
Q 2575 -91 1722 -91 
Q 1428 -91 1123 -41 
Q 819 9 494 109 
L 494 744 
Q 775 591 1075 516 
Q 1375 441 1709 441 
Q 2250 441 2565 725 
Q 2881 1009 2881 1497 
Q 2881 1984 2565 2268 
Q 2250 2553 1709 2553 
Q 1456 2553 1204 2497 
Q 953 2441 691 2322 
L 691 4666 
z
" transform="scale(0.015625)"/>
       </defs>
       <use xlink:href="#DejaVuSans-32"/>
       <use xlink:href="#DejaVuSans-30" x="63.623047"/>
       <use xlink:href="#DejaVuSans-32" x="127.246094"/>
       <use xlink:href="#DejaVuSans-31" x="190.869141"/>
       <use xlink:href="#DejaVuSans-2d" x="254.492188"/>
       <use xlink:href="#DejaVuSans-30" x="290.576172"/>
       <use xlink:href="#DejaVuSans-35" x="354.199219"/>
      </g>
     </g>
    </g>
    <g id="xtick_4">
     <g id="line2d_4">
      <g>
       <use xlink:href="#m27e48f4d02" x="385.811632" y="448.56" style="stroke: #000000; stroke-width: 0.8"/>
      </g>
     </g>
     <g id="text_4">
      <!-- 2021-07 -->
      <g transform="translate(364.920226 463.158437)scale(0.1 -0.1)">
       <defs>
        <path id="DejaVuSans-37" d="M 525 4666 
L 3525 4666 
L 3525 4397 
L 1831 0 
L 1172 0 
L 2766 4134 
L 525 4134 
L 525 4666 
z
" transform="scale(0.015625)"/>
       </defs>
       <use xlink:href="#DejaVuSans-32"/>
       <use xlink:href="#DejaVuSans-30" x="63.623047"/>
       <use xlink:href="#DejaVuSans-32" x="127.246094"/>
       <use xlink:href="#DejaVuSans-31" x="190.869141"/>
       <use xlink:href="#DejaVuSans-2d" x="254.492188"/>
       <use xlink:href="#DejaVuSans-30" x="290.576172"/>
       <use xlink:href="#DejaVuSans-37" x="354.199219"/>
      </g>
     </g>
    </g>
    <g id="xtick_5">
     <g id="line2d_5">
      <g>
       <use xlink:href="#m27e48f4d02" x="476.448258" y="448.56" style="stroke: #000000; stroke-width: 0.8"/>
      </g>
     </g>
     <g id="text_5">
      <!-- 2021-09 -->
      <g transform="translate(455.556852 463.158437)scale(0.1 -0.1)">
       <defs>
        <path id="DejaVuSans-39" d="M 703 97 
L 703 672 
Q 941 559 1184 500 
Q 1428 441 1663 441 
Q 2288 441 2617 861 
Q 2947 1281 2994 2138 
Q 2813 1869 2534 1725 
Q 2256 1581 1919 1581 
Q 1219 1581 811 2004 
Q 403 2428 403 3163 
Q 403 3881 828 4315 
Q 1253 4750 1959 4750 
Q 2769 4750 3195 4129 
Q 3622 3509 3622 2328 
Q 3622 1225 3098 567 
Q 2575 -91 1691 -91 
Q 1453 -91 1209 -44 
Q 966 3 703 97 
z
M 1959 2075 
Q 2384 2075 2632 2365 
Q 2881 2656 2881 3163 
Q 2881 3666 2632 3958 
Q 2384 4250 1959 4250 
Q 1534 4250 1286 3958 
Q 1038 3666 1038 3163 
Q 1038 2656 1286 2365 
Q 1534 2075 1959 2075 
z
" transform="scale(0.015625)"/>
       </defs>
       <use xlink:href="#DejaVuSans-32"/>
       <use xlink:href="#DejaVuSans-30" x="63.623047"/>
       <use xlink:href="#DejaVuSans-32" x="127.246094"/>
       <use xlink:href="#DejaVuSans-31" x="190.869141"/>
       <use xlink:href="#DejaVuSans-2d" x="254.492188"/>
       <use xlink:href="#DejaVuSans-30" x="290.576172"/>
       <use xlink:href="#DejaVuSans-39" x="354.199219"/>
      </g>
     </g>
    </g>
    <g id="xtick_6">
     <g id="line2d_6">
      <g>
       <use xlink:href="#m27e48f4d02" x="565.623002" y="448.56" style="stroke: #000000; stroke-width: 0.8"/>
      </g>
     </g>
     <g id="text_6">
      <!-- 2021-11 -->
      <g transform="translate(544.731596 463.158437)scale(0.1 -0.1)">
       <use xlink:href="#DejaVuSans-32"/>
       <use xlink:href="#DejaVuSans-30" x="63.623047"/>
       <use xlink:href="#DejaVuSans-32" x="127.246094"/>
       <use xlink:href="#DejaVuSans-31" x="190.869141"/>
       <use xlink:href="#DejaVuSans-2d" x="254.492188"/>
       <use xlink:href="#DejaVuSans-31" x="290.576172"/>
       <use xlink:href="#DejaVuSans-31" x="354.199219"/>
      </g>
     </g>
    </g>
    <g id="text_7">
     <!-- Time -->
     <g transform="translate(356.766406 476.836563)scale(0.1 -0.1)">
      <defs>
       <path id="DejaVuSans-54" d="M -19 4666 
L 3928 4666 
L 3928 4134 
L 2272 4134 
L 2272 0 
L 1638 0 
L 1638 4134 
L -19 4134 
L -19 4666 
z
" transform="scale(0.015625)"/>
       <path id="DejaVuSans-69" d="M 603 3500 
L 1178 3500 
L 1178 0 
L 603 0 
L 603 3500 
z
M 603 4863 
L 1178 4863 
L 1178 4134 
L 603 4134 
L 603 4863 
z
" transform="scale(0.015625)"/>
       <path id="DejaVuSans-6d" d="M 3328 2828 
Q 3544 3216 3844 3400 
Q 4144 3584 4550 3584 
Q 5097 3584 5394 3201 
Q 5691 2819 5691 2113 
L 5691 0 
L 5113 0 
L 5113 2094 
Q 5113 2597 4934 2840 
Q 4756 3084 4391 3084 
Q 3944 3084 3684 2787 
Q 3425 2491 3425 1978 
L 3425 0 
L 2847 0 
L 2847 2094 
Q 2847 2600 2669 2842 
Q 2491 3084 2119 3084 
Q 1678 3084 1418 2786 
Q 1159 2488 1159 1978 
L 1159 0 
L 581 0 
L 581 3500 
L 1159 3500 
L 1159 2956 
Q 1356 3278 1631 3431 
Q 1906 3584 2284 3584 
Q 2666 3584 2933 3390 
Q 3200 3197 3328 2828 
z
" transform="scale(0.015625)"/>
       <path id="DejaVuSans-65" d="M 3597 1894 
L 3597 1613 
L 953 1613 
Q 991 1019 1311 708 
Q 1631 397 2203 397 
Q 2534 397 2845 478 
Q 3156 559 3463 722 
L 3463 178 
Q 3153 47 2828 -22 
Q 2503 -91 2169 -91 
Q 1331 -91 842 396 
Q 353 884 353 1716 
Q 353 2575 817 3079 
Q 1281 3584 2069 3584 
Q 2775 3584 3186 3129 
Q 3597 2675 3597 1894 
z
M 3022 2063 
Q 3016 2534 2758 2815 
Q 2500 3097 2075 3097 
Q 1594 3097 1305 2825 
Q 1016 2553 972 2059 
L 3022 2063 
z
" transform="scale(0.015625)"/>
      </defs>
      <use xlink:href="#DejaVuSans-54"/>
      <use xlink:href="#DejaVuSans-69" x="57.958984"/>
      <use xlink:href="#DejaVuSans-6d" x="85.742188"/>
      <use xlink:href="#DejaVuSans-65" x="183.154297"/>
     </g>
    </g>
   </g>
   <g id="matplotlib.axis_2">
    <g id="ytick_1">
     <g id="line2d_7">
      <defs>
       <path id="m3ad50caa91" d="M 0 0 
L -3.5 0 
" style="stroke: #000000; stroke-width: 0.8"/>
      </defs>
      <g>
       <use xlink:href="#m3ad50caa91" x="90" y="430.123089" style="stroke: #000000; stroke-width: 0.8"/>
      </g>
     </g>
     <g id="text_8">
      <!-- −5 -->
      <g transform="translate(68.257812 433.922308)scale(0.1 -0.1)">
       <defs>
        <path id="DejaVuSans-2212" d="M 678 2272 
L 4684 2272 
L 4684 1741 
L 678 1741 
L 678 2272 
z
" transform="scale(0.015625)"/>
       </defs>
       <use xlink:href="#DejaVuSans-2212"/>
       <use xlink:href="#DejaVuSans-35" x="83.789062"/>
      </g>
     </g>
    </g>
    <g id="ytick_2">
     <g id="line2d_8">
      <g>
       <use xlink:href="#m3ad50caa91" x="90" y="376.136969" style="stroke: #000000; stroke-width: 0.8"/>
      </g>
     </g>
     <g id="text_9">
      <!-- 0 -->
      <g transform="translate(76.6375 379.936188)scale(0.1 -0.1)">
       <use xlink:href="#DejaVuSans-30"/>
      </g>
     </g>
    </g>
    <g id="ytick_3">
     <g id="line2d_9">
      <g>
       <use xlink:href="#m3ad50caa91" x="90" y="322.150849" style="stroke: #000000; stroke-width: 0.8"/>
      </g>
     </g>
     <g id="text_10">
      <!-- 5 -->
      <g transform="translate(76.6375 325.950067)scale(0.1 -0.1)">
       <use xlink:href="#DejaVuSans-35"/>
      </g>
     </g>
    </g>
    <g id="ytick_4">
     <g id="line2d_10">
      <g>
       <use xlink:href="#m3ad50caa91" x="90" y="268.164728" style="stroke: #000000; stroke-width: 0.8"/>
      </g>
     </g>
     <g id="text_11">
      <!-- 10 -->
      <g transform="translate(70.275 271.963947)scale(0.1 -0.1)">
       <use xlink:href="#DejaVuSans-31"/>
       <use xlink:href="#DejaVuSans-30" x="63.623047"/>
      </g>
     </g>
    </g>
    <g id="ytick_5">
     <g id="line2d_11">
      <g>
       <use xlink:href="#m3ad50caa91" x="90" y="214.178608" style="stroke: #000000; stroke-width: 0.8"/>
      </g>
     </g>
     <g id="text_12">
      <!-- 15 -->
      <g transform="translate(70.275 217.977827)scale(0.1 -0.1)">
       <use xlink:href="#DejaVuSans-31"/>
       <use xlink:href="#DejaVuSans-35" x="63.623047"/>
      </g>
     </g>
    </g>
    <g id="ytick_6">
     <g id="line2d_12">
      <g>
       <use xlink:href="#m3ad50caa91" x="90" y="160.192488" style="stroke: #000000; stroke-width: 0.8"/>
      </g>
     </g>
     <g id="text_13">
      <!-- 20 -->
      <g transform="translate(70.275 163.991706)scale(0.1 -0.1)">
       <use xlink:href="#DejaVuSans-32"/>
       <use xlink:href="#DejaVuSans-30" x="63.623047"/>
      </g>
     </g>
    </g>
    <g id="ytick_7">
     <g id="line2d_13">
      <g>
       <use xlink:href="#m3ad50caa91" x="90" y="106.206367" style="stroke: #000000; stroke-width: 0.8"/>
      </g>
     </g>
     <g id="text_14">
      <!-- 25 -->
      <g transform="translate(70.275 110.005586)scale(0.1 -0.1)">
       <use xlink:href="#DejaVuSans-32"/>
       <use xlink:href="#DejaVuSans-35" x="63.623047"/>
      </g>
     </g>
    </g>
    <g id="text_15">
     <!-- Return [%] -->
     <g transform="translate(62.178125 281.352813)rotate(-90)scale(0.1 -0.1)">
      <defs>
       <path id="DejaVuSans-52" d="M 2841 2188 
Q 3044 2119 3236 1894 
Q 3428 1669 3622 1275 
L 4263 0 
L 3584 0 
L 2988 1197 
Q 2756 1666 2539 1819 
Q 2322 1972 1947 1972 
L 1259 1972 
L 1259 0 
L 628 0 
L 628 4666 
L 2053 4666 
Q 2853 4666 3247 4331 
Q 3641 3997 3641 3322 
Q 3641 2881 3436 2590 
Q 3231 2300 2841 2188 
z
M 1259 4147 
L 1259 2491 
L 2053 2491 
Q 2509 2491 2742 2702 
Q 2975 2913 2975 3322 
Q 2975 3731 2742 3939 
Q 2509 4147 2053 4147 
L 1259 4147 
z
" transform="scale(0.015625)"/>
       <path id="DejaVuSans-74" d="M 1172 4494 
L 1172 3500 
L 2356 3500 
L 2356 3053 
L 1172 3053 
L 1172 1153 
Q 1172 725 1289 603 
Q 1406 481 1766 481 
L 2356 481 
L 2356 0 
L 1766 0 
Q 1100 0 847 248 
Q 594 497 594 1153 
L 594 3053 
L 172 3053 
L 172 3500 
L 594 3500 
L 594 4494 
L 1172 4494 
z
" transform="scale(0.015625)"/>
       <path id="DejaVuSans-75" d="M 544 1381 
L 544 3500 
L 1119 3500 
L 1119 1403 
Q 1119 906 1312 657 
Q 1506 409 1894 409 
Q 2359 409 2629 706 
Q 2900 1003 2900 1516 
L 2900 3500 
L 3475 3500 
L 3475 0 
L 2900 0 
L 2900 538 
Q 2691 219 2414 64 
Q 2138 -91 1772 -91 
Q 1169 -91 856 284 
Q 544 659 544 1381 
z
M 1991 3584 
L 1991 3584 
z
" transform="scale(0.015625)"/>
       <path id="DejaVuSans-72" d="M 2631 2963 
Q 2534 3019 2420 3045 
Q 2306 3072 2169 3072 
Q 1681 3072 1420 2755 
Q 1159 2438 1159 1844 
L 1159 0 
L 581 0 
L 581 3500 
L 1159 3500 
L 1159 2956 
Q 1341 3275 1631 3429 
Q 1922 3584 2338 3584 
Q 2397 3584 2469 3576 
Q 2541 3569 2628 3553 
L 2631 2963 
z
" transform="scale(0.015625)"/>
       <path id="DejaVuSans-6e" d="M 3513 2113 
L 3513 0 
L 2938 0 
L 2938 2094 
Q 2938 2591 2744 2837 
Q 2550 3084 2163 3084 
Q 1697 3084 1428 2787 
Q 1159 2491 1159 1978 
L 1159 0 
L 581 0 
L 581 3500 
L 1159 3500 
L 1159 2956 
Q 1366 3272 1645 3428 
Q 1925 3584 2291 3584 
Q 2894 3584 3203 3211 
Q 3513 2838 3513 2113 
z
" transform="scale(0.015625)"/>
       <path id="DejaVuSans-20" transform="scale(0.015625)"/>
       <path id="DejaVuSans-5b" d="M 550 4863 
L 1875 4863 
L 1875 4416 
L 1125 4416 
L 1125 -397 
L 1875 -397 
L 1875 -844 
L 550 -844 
L 550 4863 
z
" transform="scale(0.015625)"/>
       <path id="DejaVuSans-25" d="M 4653 2053 
Q 4381 2053 4226 1822 
Q 4072 1591 4072 1178 
Q 4072 772 4226 539 
Q 4381 306 4653 306 
Q 4919 306 5073 539 
Q 5228 772 5228 1178 
Q 5228 1588 5073 1820 
Q 4919 2053 4653 2053 
z
M 4653 2450 
Q 5147 2450 5437 2106 
Q 5728 1763 5728 1178 
Q 5728 594 5436 251 
Q 5144 -91 4653 -91 
Q 4153 -91 3862 251 
Q 3572 594 3572 1178 
Q 3572 1766 3864 2108 
Q 4156 2450 4653 2450 
z
M 1428 4353 
Q 1159 4353 1004 4120 
Q 850 3888 850 3481 
Q 850 3069 1003 2837 
Q 1156 2606 1428 2606 
Q 1700 2606 1854 2837 
Q 2009 3069 2009 3481 
Q 2009 3884 1853 4118 
Q 1697 4353 1428 4353 
z
M 4250 4750 
L 4750 4750 
L 1831 -91 
L 1331 -91 
L 4250 4750 
z
M 1428 4750 
Q 1922 4750 2215 4408 
Q 2509 4066 2509 3481 
Q 2509 2891 2217 2550 
Q 1925 2209 1428 2209 
Q 931 2209 642 2551 
Q 353 2894 353 3481 
Q 353 4063 643 4406 
Q 934 4750 1428 4750 
z
" transform="scale(0.015625)"/>
       <path id="DejaVuSans-5d" d="M 1947 4863 
L 1947 -844 
L 622 -844 
L 622 -397 
L 1369 -397 
L 1369 4416 
L 622 4416 
L 622 4863 
L 1947 4863 
z
" transform="scale(0.015625)"/>
      </defs>
      <use xlink:href="#DejaVuSans-52"/>
      <use xlink:href="#DejaVuSans-65" x="64.982422"/>
      <use xlink:href="#DejaVuSans-74" x="126.505859"/>
      <use xlink:href="#DejaVuSans-75" x="165.714844"/>
      <use xlink:href="#DejaVuSans-72" x="229.09375"/>
      <use xlink:href="#DejaVuSans-6e" x="268.457031"/>
      <use xlink:href="#DejaVuSans-20" x="331.835938"/>
      <use xlink:href="#DejaVuSans-5b" x="363.623047"/>
      <use xlink:href="#DejaVuSans-25" x="402.636719"/>
      <use xlink:href="#DejaVuSans-5d" x="497.65625"/>
     </g>
    </g>
   </g>
   <g id="line2d_14">
    <path d="M 115.363636 376.136969 
L 116.825517 372.311535 
L 118.287398 382.798596 
L 125.596804 370.91951 
L 127.058685 372.717065 
L 129.982447 345.736862 
L 131.444328 340.082221 
L 135.829971 344.594337 
L 137.291852 334.78835 
L 138.753733 332.702373 
L 140.215614 327.000339 
L 141.677495 337.028181 
L 146.063139 332.608961 
L 147.52502 335.22599 
L 148.986901 323.481986 
L 150.448782 318.393027 
L 151.910663 318.979486 
L 156.296306 325.378619 
L 157.758187 315.878683 
L 159.220068 324.727196 
L 160.681949 327.470663 
L 162.14383 340.412426 
L 166.529473 323.805781 
L 167.991354 317.690661 
L 170.915117 307.478914 
L 172.376998 317.203109 
L 176.762641 309.662309 
L 178.224522 311.56667 
L 179.686403 312.210824 
L 181.148284 305.341024 
L 182.610165 296.95173 
L 186.995808 288.616583 
L 188.457689 289.309791 
L 189.91957 301.223734 
L 191.381451 302.050878 
L 192.843332 289.940151 
L 197.228976 293.337561 
L 198.690857 301.46688 
L 200.152738 289.778912 
L 201.614619 288.82075 
L 203.0765 305.433348 
L 207.462143 279.812601 
L 208.924024 272.695876 
L 210.385905 268.873705 
L 211.847786 273.810984 
L 213.309667 283.30451 
L 217.69531 252.089336 
L 219.157192 239.642795 
L 220.619073 234.13806 
L 222.080954 216.282027 
L 223.542835 214.392434 
L 227.928478 218.475496 
L 229.390359 207.993758 
L 230.85224 212.163249 
L 232.314121 208.082248 
L 233.776002 214.265538 
L 238.161645 211.147793 
L 239.623526 214.873576 
L 241.085407 205.441923 
L 242.547288 211.942197 
L 244.00917 197.315638 
L 248.394813 206.807676 
L 249.856694 193.531758 
L 251.318575 200.715165 
L 252.780456 195.134017 
L 260.089861 179.312904 
L 261.551742 179.708132 
L 264.475504 167.777189 
L 268.861147 177.62622 
L 270.323029 169.607484 
L 271.78491 180.50969 
L 273.246791 172.023894 
L 274.708672 150.548369 
L 279.094315 163.657037 
L 280.556196 193.871179 
L 282.018077 180.43448 
L 283.479958 178.071072 
L 284.941839 173.190229 
L 289.327482 171.236415 
L 290.789363 160.657316 
L 292.251244 174.160525 
L 293.713125 177.831474 
L 295.175007 186.883182 
L 299.56065 178.544372 
L 301.022531 199.727984 
L 302.484412 164.86321 
L 303.946293 169.945645 
L 305.408174 162.209263 
L 309.793817 159.416285 
L 311.255698 200.200597 
L 312.717579 193.309847 
L 315.641341 169.222502 
L 320.026985 179.228307 
L 321.488866 168.190847 
L 322.950747 195.761516 
L 324.412628 173.573093 
L 325.874509 173.251646 
L 330.260152 170.847198 
L 331.722033 171.916802 
L 333.183914 181.134041 
L 334.645795 171.177747 
L 336.107676 164.885648 
L 340.493319 172.662611 
L 341.9552 159.693774 
L 344.878963 154.642878 
L 346.340844 155.744191 
L 350.726487 157.871779 
L 352.188368 153.768513 
L 353.650249 155.2504 
L 355.11213 157.749863 
L 356.574011 151.637261 
L 360.959654 148.179809 
L 362.421535 150.794835 
L 363.883416 147.168588 
L 365.345297 154.950989 
L 366.807178 169.142025 
L 371.192822 158.925356 
L 372.654703 157.70287 
L 374.116584 172.449056 
L 375.578465 156.022482 
L 381.425989 164.379779 
L 382.88787 150.976737 
L 384.349751 160.492071 
L 385.811632 154.33448 
L 387.273513 145.72568 
L 391.659156 139.923536 
L 393.121037 145.85933 
L 394.582919 124.464224 
L 396.0448 145.145002 
L 397.506681 128.208896 
L 401.892324 117.793039 
L 403.354205 111.234612 
L 404.816086 107.141362 
L 406.277967 113.924218 
L 407.739848 117.178075 
L 412.125491 146.563985 
L 413.587372 137.362544 
L 415.049253 119.714742 
L 416.511134 109.427098 
L 417.973015 90.915978 
L 422.358659 89.215098 
L 423.82054 95.904027 
L 425.282421 92.516749 
L 426.744302 91.198504 
L 428.206183 99.383573 
L 432.591826 92.649941 
L 434.053707 93.516637 
L 435.515588 86.098612 
L 436.977469 85.769895 
L 438.43935 93.33422 
L 442.824993 90.875339 
L 444.286875 85.73664 
L 445.748756 81.300077 
L 447.210637 78.987668 
L 448.672518 78.12 
L 453.058161 97.291873 
L 454.520042 91.622236 
L 455.981923 98.535995 
L 457.443804 122.048043 
L 458.905685 104.76147 
L 463.291328 98.43291 
L 464.753209 101.009929 
L 466.21509 95.794818 
L 467.676971 98.348198 
L 469.138853 97.526491 
L 473.524496 97.716407 
L 474.986377 110.056371 
L 476.448258 100.08405 
L 477.910139 88.789878 
L 479.37202 99.475211 
L 483.757663 85.434768 
L 485.219544 94.77524 
L 486.681425 112.393964 
L 488.143306 108.827188 
L 489.605187 110.956379 
L 493.99083 119.16171 
L 495.452712 115.479714 
L 496.914593 125.225087 
L 498.376474 114.188142 
L 499.838355 125.908163 
L 504.223998 155.150005 
L 505.685879 153.765994 
L 507.14776 139.877746 
L 508.609641 117.636264 
L 510.071522 131.791584 
L 514.457165 137.092495 
L 515.919046 165.704378 
L 517.380927 164.831672 
L 518.842808 162.756056 
L 520.30469 165.615831 
L 524.690333 177.567951 
L 526.152214 165.24035 
L 527.614095 184.570258 
L 529.075976 163.580281 
L 530.537857 173.604231 
L 534.9235 177.441513 
L 536.385381 167.43027 
L 537.847262 152.580484 
L 539.309143 141.237202 
L 540.771024 130.817167 
L 545.156668 132.691935 
L 546.618549 124.129497 
L 548.08043 124.363371 
L 549.542311 124.993102 
L 551.004192 111.434258 
L 555.389835 122.142943 
L 556.851716 114.089807 
L 558.313597 126.127899 
L 559.775478 131.81259 
L 561.237359 144.624023 
L 565.623002 138.096275 
L 567.084883 137.86223 
L 568.546764 129.275237 
L 570.008646 122.179862 
L 571.470527 125.137685 
L 575.85617 121.161486 
L 577.318051 123.86689 
L 578.779932 121.402514 
L 580.241813 112.795259 
L 581.703694 101.926822 
L 586.089337 96.761508 
L 587.551218 90.378286 
L 589.013099 91.252308 
L 590.47498 97.584702 
L 591.936861 97.077174 
L 596.322505 100.142146 
L 597.784386 119.74794 
L 599.246267 118.494603 
L 600.708148 119.018158 
L 602.170029 172.484258 
L 606.555672 155.258242 
L 608.017553 172.780292 
L 609.479434 144.69826 
L 610.941315 160.451947 
L 612.403196 173.255137 
L 616.788839 147.670793 
L 618.25072 119.444351 
L 619.712602 124.189998 
L 621.174483 125.713154 
L 622.636364 130.38359 
L 622.636364 130.38359 
" clip-path="url(#p5926769ada)" style="fill: none; stroke: #1f77b4; stroke-width: 1.5; stroke-linecap: square"/>
   </g>
   <g id="line2d_15">
    <path d="M 115.363636 376.136969 
L 116.825517 374.712212 
L 118.287398 360.084109 
L 125.596804 368.141618 
L 127.058685 364.003167 
L 129.982447 336.066362 
L 131.444328 339.220087 
L 135.829971 329.487392 
L 137.291852 332.360981 
L 138.753733 346.606187 
L 140.215614 354.14158 
L 141.677495 345.448891 
L 146.063139 367.090935 
L 147.52502 349.532532 
L 148.986901 361.524493 
L 150.448782 345.223476 
L 151.910663 360.132132 
L 156.296306 365.681317 
L 157.758187 396.40717 
L 159.220068 388.401767 
L 160.681949 415.869059 
L 162.14383 419.404519 
L 166.529473 412.333733 
L 167.991354 387.329988 
L 169.453236 377.334252 
L 170.915117 378.739568 
L 172.376998 386.231427 
L 176.762641 391.884581 
L 178.224522 395.574288 
L 179.686403 419.751219 
L 181.148284 422.680884 
L 182.610165 423.751647 
L 186.995808 403.536527 
L 188.457689 405.973226 
L 189.91957 408.778208 
L 191.381451 420.777497 
L 192.843332 430.92 
L 197.228976 412.635806 
L 198.690857 412.220236 
L 200.152738 426.041565 
L 201.614619 405.279188 
L 203.0765 423.752842 
L 207.462143 411.238252 
L 210.385905 380.345642 
L 211.847786 369.89548 
L 213.309667 382.885316 
L 217.69531 384.164689 
L 219.157192 366.488028 
L 220.619073 362.406796 
L 222.080954 354.485577 
L 223.542835 350.742376 
L 227.928478 346.384862 
L 229.390359 338.88224 
L 230.85224 335.07757 
L 232.314121 343.040813 
L 233.776002 335.782889 
L 238.161645 334.984377 
L 239.623526 349.465411 
L 241.085407 348.947643 
L 242.547288 346.312569 
L 244.00917 342.130543 
L 248.394813 338.73444 
L 249.856694 337.443834 
L 251.318575 326.226642 
L 252.780456 331.099361 
L 260.089861 319.43391 
L 261.551742 313.010352 
L 263.013623 307.828498 
L 264.475504 292.850273 
L 268.861147 287.030147 
L 270.323029 300.487951 
L 271.78491 289.841387 
L 273.246791 286.580394 
L 274.708672 288.266 
L 279.094315 278.555218 
L 280.556196 284.832394 
L 282.018077 306.731559 
L 283.479958 303.162017 
L 284.941839 294.701172 
L 289.327482 289.483601 
L 290.789363 278.151451 
L 292.251244 276.961245 
L 293.713125 279.800029 
L 295.175007 273.356277 
L 299.56065 283.904776 
L 301.022531 279.523331 
L 302.484412 291.816995 
L 303.946293 280.089666 
L 305.408174 289.527387 
L 309.793817 284.465568 
L 311.255698 292.562264 
L 325.874509 292.562264 
L 330.260152 298.314997 
L 331.722033 298.314997 
L 333.183914 295.397735 
L 334.645795 300.771909 
L 336.107676 297.802348 
L 340.493319 294.557452 
L 341.9552 289.022071 
L 343.417081 285.903468 
L 344.878963 292.820272 
L 346.340844 284.380146 
L 350.726487 286.398131 
L 352.188368 283.922455 
L 353.650249 285.689324 
L 355.11213 281.011133 
L 356.574011 272.459352 
L 360.959654 273.924399 
L 362.421535 270.264575 
L 363.883416 272.738711 
L 365.345297 280.551833 
L 382.88787 280.551833 
L 384.349751 275.256808 
L 385.811632 275.256808 
L 387.273513 263.305821 
L 391.659156 250.328861 
L 393.121037 254.526848 
L 396.0448 226.366096 
L 397.506681 241.29101 
L 401.892324 247.967912 
L 403.354205 243.863708 
L 404.816086 242.989063 
L 406.277967 253.884143 
L 407.739848 252.961424 
L 412.125491 242.615655 
L 413.587372 273.412429 
L 415.049253 262.151827 
L 416.511134 263.468013 
L 417.973015 251.531861 
L 422.358659 254.714571 
L 423.82054 240.91964 
L 425.282421 254.890611 
L 426.744302 249.853628 
L 428.206183 248.032889 
L 432.591826 229.933067 
L 434.053707 240.548189 
L 435.515588 229.662399 
L 436.977469 220.038 
L 438.43935 216.334979 
L 442.824993 228.864741 
L 444.286875 234.87651 
L 445.748756 235.295979 
L 447.210637 219.976442 
L 448.672518 219.987728 
L 453.058161 221.30206 
L 454.520042 234.098227 
L 455.981923 232.069953 
L 457.443804 242.301026 
L 463.291328 242.301026 
L 464.753209 244.87593 
L 466.21509 253.156366 
L 467.676971 256.129416 
L 469.138853 257.11044 
L 473.524496 260.27179 
L 474.986377 252.076645 
L 476.448258 247.276075 
L 477.910139 249.179619 
L 479.37202 238.855691 
L 483.757663 240.415303 
L 485.219544 232.186095 
L 486.681425 246.994485 
L 488.143306 267.097319 
L 489.605187 280.08734 
L 493.99083 284.14032 
L 495.452712 292.597861 
L 527.614095 292.597861 
L 529.075976 293.499735 
L 530.537857 281.797227 
L 539.309143 281.797227 
L 540.771024 265.742443 
L 546.618549 252.941488 
L 548.08043 252.382802 
L 549.542311 261.095047 
L 551.004192 246.921991 
L 555.389835 246.124985 
L 556.851716 244.941662 
L 558.313597 255.47529 
L 559.775478 252.729875 
L 561.237359 253.395008 
L 565.623002 266.40943 
L 567.084883 256.579455 
L 568.546764 270.419898 
L 570.008646 240.356568 
L 571.470527 225.980618 
L 575.85617 217.006058 
L 577.318051 211.255074 
L 578.779932 204.141175 
L 580.241813 204.751991 
L 581.703694 198.674625 
L 586.089337 195.187502 
L 587.551218 182.654702 
L 589.013099 185.292965 
L 590.47498 181.383747 
L 591.936861 172.158349 
L 596.322505 172.576134 
L 597.784386 183.341206 
L 599.246267 200.292022 
L 600.708148 203.731551 
L 602.170029 217.578393 
L 622.636364 217.578393 
L 622.636364 217.578393 
" clip-path="url(#p5926769ada)" style="fill: none; stroke: #ff7f0e; stroke-width: 1.5; stroke-linecap: square"/>
   </g>
   <g id="patch_3">
    <path d="M 90 448.56 
L 90 60.48 
" style="fill: none; stroke: #000000; stroke-width: 0.8; stroke-linejoin: miter; stroke-linecap: square"/>
   </g>
   <g id="patch_4">
    <path d="M 648 448.56 
L 648 60.48 
" style="fill: none; stroke: #000000; stroke-width: 0.8; stroke-linejoin: miter; stroke-linecap: square"/>
   </g>
   <g id="patch_5">
    <path d="M 90 448.56 
L 648 448.56 
" style="fill: none; stroke: #000000; stroke-width: 0.8; stroke-linejoin: miter; stroke-linecap: square"/>
   </g>
   <g id="patch_6">
    <path d="M 90 60.48 
L 648 60.48 
" style="fill: none; stroke: #000000; stroke-width: 0.8; stroke-linejoin: miter; stroke-linecap: square"/>
   </g>
   <g id="text_16">
    <!-- Performance of AVAN-strategy year 2021 -->
    <g transform="translate(245.686875 54.48)scale(0.12 -0.12)">
     <defs>
      <path id="DejaVuSans-50" d="M 1259 4147 
L 1259 2394 
L 2053 2394 
Q 2494 2394 2734 2622 
Q 2975 2850 2975 3272 
Q 2975 3691 2734 3919 
Q 2494 4147 2053 4147 
L 1259 4147 
z
M 628 4666 
L 2053 4666 
Q 2838 4666 3239 4311 
Q 3641 3956 3641 3272 
Q 3641 2581 3239 2228 
Q 2838 1875 2053 1875 
L 1259 1875 
L 1259 0 
L 628 0 
L 628 4666 
z
" transform="scale(0.015625)"/>
      <path id="DejaVuSans-66" d="M 2375 4863 
L 2375 4384 
L 1825 4384 
Q 1516 4384 1395 4259 
Q 1275 4134 1275 3809 
L 1275 3500 
L 2222 3500 
L 2222 3053 
L 1275 3053 
L 1275 0 
L 697 0 
L 697 3053 
L 147 3053 
L 147 3500 
L 697 3500 
L 697 3744 
Q 697 4328 969 4595 
Q 1241 4863 1831 4863 
L 2375 4863 
z
" transform="scale(0.015625)"/>
      <path id="DejaVuSans-6f" d="M 1959 3097 
Q 1497 3097 1228 2736 
Q 959 2375 959 1747 
Q 959 1119 1226 758 
Q 1494 397 1959 397 
Q 2419 397 2687 759 
Q 2956 1122 2956 1747 
Q 2956 2369 2687 2733 
Q 2419 3097 1959 3097 
z
M 1959 3584 
Q 2709 3584 3137 3096 
Q 3566 2609 3566 1747 
Q 3566 888 3137 398 
Q 2709 -91 1959 -91 
Q 1206 -91 779 398 
Q 353 888 353 1747 
Q 353 2609 779 3096 
Q 1206 3584 1959 3584 
z
" transform="scale(0.015625)"/>
      <path id="DejaVuSans-61" d="M 2194 1759 
Q 1497 1759 1228 1600 
Q 959 1441 959 1056 
Q 959 750 1161 570 
Q 1363 391 1709 391 
Q 2188 391 2477 730 
Q 2766 1069 2766 1631 
L 2766 1759 
L 2194 1759 
z
M 3341 1997 
L 3341 0 
L 2766 0 
L 2766 531 
Q 2569 213 2275 61 
Q 1981 -91 1556 -91 
Q 1019 -91 701 211 
Q 384 513 384 1019 
Q 384 1609 779 1909 
Q 1175 2209 1959 2209 
L 2766 2209 
L 2766 2266 
Q 2766 2663 2505 2880 
Q 2244 3097 1772 3097 
Q 1472 3097 1187 3025 
Q 903 2953 641 2809 
L 641 3341 
Q 956 3463 1253 3523 
Q 1550 3584 1831 3584 
Q 2591 3584 2966 3190 
Q 3341 2797 3341 1997 
z
" transform="scale(0.015625)"/>
      <path id="DejaVuSans-63" d="M 3122 3366 
L 3122 2828 
Q 2878 2963 2633 3030 
Q 2388 3097 2138 3097 
Q 1578 3097 1268 2742 
Q 959 2388 959 1747 
Q 959 1106 1268 751 
Q 1578 397 2138 397 
Q 2388 397 2633 464 
Q 2878 531 3122 666 
L 3122 134 
Q 2881 22 2623 -34 
Q 2366 -91 2075 -91 
Q 1284 -91 818 406 
Q 353 903 353 1747 
Q 353 2603 823 3093 
Q 1294 3584 2113 3584 
Q 2378 3584 2631 3529 
Q 2884 3475 3122 3366 
z
" transform="scale(0.015625)"/>
      <path id="DejaVuSans-41" d="M 2188 4044 
L 1331 1722 
L 3047 1722 
L 2188 4044 
z
M 1831 4666 
L 2547 4666 
L 4325 0 
L 3669 0 
L 3244 1197 
L 1141 1197 
L 716 0 
L 50 0 
L 1831 4666 
z
" transform="scale(0.015625)"/>
      <path id="DejaVuSans-56" d="M 1831 0 
L 50 4666 
L 709 4666 
L 2188 738 
L 3669 4666 
L 4325 4666 
L 2547 0 
L 1831 0 
z
" transform="scale(0.015625)"/>
      <path id="DejaVuSans-4e" d="M 628 4666 
L 1478 4666 
L 3547 763 
L 3547 4666 
L 4159 4666 
L 4159 0 
L 3309 0 
L 1241 3903 
L 1241 0 
L 628 0 
L 628 4666 
z
" transform="scale(0.015625)"/>
      <path id="DejaVuSans-73" d="M 2834 3397 
L 2834 2853 
Q 2591 2978 2328 3040 
Q 2066 3103 1784 3103 
Q 1356 3103 1142 2972 
Q 928 2841 928 2578 
Q 928 2378 1081 2264 
Q 1234 2150 1697 2047 
L 1894 2003 
Q 2506 1872 2764 1633 
Q 3022 1394 3022 966 
Q 3022 478 2636 193 
Q 2250 -91 1575 -91 
Q 1294 -91 989 -36 
Q 684 19 347 128 
L 347 722 
Q 666 556 975 473 
Q 1284 391 1588 391 
Q 1994 391 2212 530 
Q 2431 669 2431 922 
Q 2431 1156 2273 1281 
Q 2116 1406 1581 1522 
L 1381 1569 
Q 847 1681 609 1914 
Q 372 2147 372 2553 
Q 372 3047 722 3315 
Q 1072 3584 1716 3584 
Q 2034 3584 2315 3537 
Q 2597 3491 2834 3397 
z
" transform="scale(0.015625)"/>
      <path id="DejaVuSans-67" d="M 2906 1791 
Q 2906 2416 2648 2759 
Q 2391 3103 1925 3103 
Q 1463 3103 1205 2759 
Q 947 2416 947 1791 
Q 947 1169 1205 825 
Q 1463 481 1925 481 
Q 2391 481 2648 825 
Q 2906 1169 2906 1791 
z
M 3481 434 
Q 3481 -459 3084 -895 
Q 2688 -1331 1869 -1331 
Q 1566 -1331 1297 -1286 
Q 1028 -1241 775 -1147 
L 775 -588 
Q 1028 -725 1275 -790 
Q 1522 -856 1778 -856 
Q 2344 -856 2625 -561 
Q 2906 -266 2906 331 
L 2906 616 
Q 2728 306 2450 153 
Q 2172 0 1784 0 
Q 1141 0 747 490 
Q 353 981 353 1791 
Q 353 2603 747 3093 
Q 1141 3584 1784 3584 
Q 2172 3584 2450 3431 
Q 2728 3278 2906 2969 
L 2906 3500 
L 3481 3500 
L 3481 434 
z
" transform="scale(0.015625)"/>
      <path id="DejaVuSans-79" d="M 2059 -325 
Q 1816 -950 1584 -1140 
Q 1353 -1331 966 -1331 
L 506 -1331 
L 506 -850 
L 844 -850 
Q 1081 -850 1212 -737 
Q 1344 -625 1503 -206 
L 1606 56 
L 191 3500 
L 800 3500 
L 1894 763 
L 2988 3500 
L 3597 3500 
L 2059 -325 
z
" transform="scale(0.015625)"/>
     </defs>
     <use xlink:href="#DejaVuSans-50"/>
     <use xlink:href="#DejaVuSans-65" x="56.677734"/>
     <use xlink:href="#DejaVuSans-72" x="118.201172"/>
     <use xlink:href="#DejaVuSans-66" x="159.314453"/>
     <use xlink:href="#DejaVuSans-6f" x="194.519531"/>
     <use xlink:href="#DejaVuSans-72" x="255.701172"/>
     <use xlink:href="#DejaVuSans-6d" x="295.064453"/>
     <use xlink:href="#DejaVuSans-61" x="392.476562"/>
     <use xlink:href="#DejaVuSans-6e" x="453.755859"/>
     <use xlink:href="#DejaVuSans-63" x="517.134766"/>
     <use xlink:href="#DejaVuSans-65" x="572.115234"/>
     <use xlink:href="#DejaVuSans-20" x="633.638672"/>
     <use xlink:href="#DejaVuSans-6f" x="665.425781"/>
     <use xlink:href="#DejaVuSans-66" x="726.607422"/>
     <use xlink:href="#DejaVuSans-20" x="761.8125"/>
     <use xlink:href="#DejaVuSans-41" x="793.599609"/>
     <use xlink:href="#DejaVuSans-56" x="855.632812"/>
     <use xlink:href="#DejaVuSans-41" x="917.666016"/>
     <use xlink:href="#DejaVuSans-4e" x="986.074219"/>
     <use xlink:href="#DejaVuSans-2d" x="1060.878906"/>
     <use xlink:href="#DejaVuSans-73" x="1096.962891"/>
     <use xlink:href="#DejaVuSans-74" x="1149.0625"/>
     <use xlink:href="#DejaVuSans-72" x="1188.271484"/>
     <use xlink:href="#DejaVuSans-61" x="1229.384766"/>
     <use xlink:href="#DejaVuSans-74" x="1290.664062"/>
     <use xlink:href="#DejaVuSans-65" x="1329.873047"/>
     <use xlink:href="#DejaVuSans-67" x="1391.396484"/>
     <use xlink:href="#DejaVuSans-79" x="1454.873047"/>
     <use xlink:href="#DejaVuSans-20" x="1514.052734"/>
     <use xlink:href="#DejaVuSans-79" x="1545.839844"/>
     <use xlink:href="#DejaVuSans-65" x="1605.019531"/>
     <use xlink:href="#DejaVuSans-61" x="1666.542969"/>
     <use xlink:href="#DejaVuSans-72" x="1727.822266"/>
     <use xlink:href="#DejaVuSans-20" x="1768.935547"/>
     <use xlink:href="#DejaVuSans-32" x="1800.722656"/>
     <use xlink:href="#DejaVuSans-30" x="1864.345703"/>
     <use xlink:href="#DejaVuSans-32" x="1927.96875"/>
     <use xlink:href="#DejaVuSans-31" x="1991.591797"/>
    </g>
   </g>
   <g id="legend_1">
    <g id="patch_7">
     <path d="M 97 97.83625 
L 243.509375 97.83625 
Q 245.509375 97.83625 245.509375 95.83625 
L 245.509375 67.48 
Q 245.509375 65.48 243.509375 65.48 
L 97 65.48 
Q 95 65.48 95 67.48 
L 95 95.83625 
Q 95 97.83625 97 97.83625 
z
" style="fill: #ffffff; opacity: 0.8; stroke: #cccccc; stroke-linejoin: miter"/>
    </g>
    <g id="line2d_16">
     <path d="M 99 73.578438 
L 109 73.578438 
L 119 73.578438 
" style="fill: none; stroke: #1f77b4; stroke-width: 1.5; stroke-linecap: square"/>
    </g>
    <g id="text_17">
     <!-- 22.7608% return omx -->
     <g transform="translate(127 77.078438)scale(0.1 -0.1)">
      <defs>
       <path id="DejaVuSans-2e" d="M 684 794 
L 1344 794 
L 1344 0 
L 684 0 
L 684 794 
z
" transform="scale(0.015625)"/>
       <path id="DejaVuSans-36" d="M 2113 2584 
Q 1688 2584 1439 2293 
Q 1191 2003 1191 1497 
Q 1191 994 1439 701 
Q 1688 409 2113 409 
Q 2538 409 2786 701 
Q 3034 994 3034 1497 
Q 3034 2003 2786 2293 
Q 2538 2584 2113 2584 
z
M 3366 4563 
L 3366 3988 
Q 3128 4100 2886 4159 
Q 2644 4219 2406 4219 
Q 1781 4219 1451 3797 
Q 1122 3375 1075 2522 
Q 1259 2794 1537 2939 
Q 1816 3084 2150 3084 
Q 2853 3084 3261 2657 
Q 3669 2231 3669 1497 
Q 3669 778 3244 343 
Q 2819 -91 2113 -91 
Q 1303 -91 875 529 
Q 447 1150 447 2328 
Q 447 3434 972 4092 
Q 1497 4750 2381 4750 
Q 2619 4750 2861 4703 
Q 3103 4656 3366 4563 
z
" transform="scale(0.015625)"/>
       <path id="DejaVuSans-38" d="M 2034 2216 
Q 1584 2216 1326 1975 
Q 1069 1734 1069 1313 
Q 1069 891 1326 650 
Q 1584 409 2034 409 
Q 2484 409 2743 651 
Q 3003 894 3003 1313 
Q 3003 1734 2745 1975 
Q 2488 2216 2034 2216 
z
M 1403 2484 
Q 997 2584 770 2862 
Q 544 3141 544 3541 
Q 544 4100 942 4425 
Q 1341 4750 2034 4750 
Q 2731 4750 3128 4425 
Q 3525 4100 3525 3541 
Q 3525 3141 3298 2862 
Q 3072 2584 2669 2484 
Q 3125 2378 3379 2068 
Q 3634 1759 3634 1313 
Q 3634 634 3220 271 
Q 2806 -91 2034 -91 
Q 1263 -91 848 271 
Q 434 634 434 1313 
Q 434 1759 690 2068 
Q 947 2378 1403 2484 
z
M 1172 3481 
Q 1172 3119 1398 2916 
Q 1625 2713 2034 2713 
Q 2441 2713 2670 2916 
Q 2900 3119 2900 3481 
Q 2900 3844 2670 4047 
Q 2441 4250 2034 4250 
Q 1625 4250 1398 4047 
Q 1172 3844 1172 3481 
z
" transform="scale(0.015625)"/>
       <path id="DejaVuSans-78" d="M 3513 3500 
L 2247 1797 
L 3578 0 
L 2900 0 
L 1881 1375 
L 863 0 
L 184 0 
L 1544 1831 
L 300 3500 
L 978 3500 
L 1906 2253 
L 2834 3500 
L 3513 3500 
z
" transform="scale(0.015625)"/>
      </defs>
      <use xlink:href="#DejaVuSans-32"/>
      <use xlink:href="#DejaVuSans-32" x="63.623047"/>
      <use xlink:href="#DejaVuSans-2e" x="127.246094"/>
      <use xlink:href="#DejaVuSans-37" x="159.033203"/>
      <use xlink:href="#DejaVuSans-36" x="222.65625"/>
      <use xlink:href="#DejaVuSans-30" x="286.279297"/>
      <use xlink:href="#DejaVuSans-38" x="349.902344"/>
      <use xlink:href="#DejaVuSans-25" x="413.525391"/>
      <use xlink:href="#DejaVuSans-20" x="508.544922"/>
      <use xlink:href="#DejaVuSans-72" x="540.332031"/>
      <use xlink:href="#DejaVuSans-65" x="579.195312"/>
      <use xlink:href="#DejaVuSans-74" x="640.71875"/>
      <use xlink:href="#DejaVuSans-75" x="679.927734"/>
      <use xlink:href="#DejaVuSans-72" x="743.306641"/>
      <use xlink:href="#DejaVuSans-6e" x="782.669922"/>
      <use xlink:href="#DejaVuSans-20" x="846.048828"/>
      <use xlink:href="#DejaVuSans-6f" x="877.835938"/>
      <use xlink:href="#DejaVuSans-6d" x="939.017578"/>
      <use xlink:href="#DejaVuSans-78" x="1036.429688"/>
     </g>
    </g>
    <g id="line2d_17">
     <path d="M 99 88.256563 
L 109 88.256563 
L 119 88.256563 
" style="fill: none; stroke: #ff7f0e; stroke-width: 1.5; stroke-linecap: square"/>
    </g>
    <g id="text_18">
     <!-- 14.6851% return AVAN -->
     <g transform="translate(127 91.756563)scale(0.1 -0.1)">
      <defs>
       <path id="DejaVuSans-34" d="M 2419 4116 
L 825 1625 
L 2419 1625 
L 2419 4116 
z
M 2253 4666 
L 3047 4666 
L 3047 1625 
L 3713 1625 
L 3713 1100 
L 3047 1100 
L 3047 0 
L 2419 0 
L 2419 1100 
L 313 1100 
L 313 1709 
L 2253 4666 
z
" transform="scale(0.015625)"/>
      </defs>
      <use xlink:href="#DejaVuSans-31"/>
      <use xlink:href="#DejaVuSans-34" x="63.623047"/>
      <use xlink:href="#DejaVuSans-2e" x="127.246094"/>
      <use xlink:href="#DejaVuSans-36" x="159.033203"/>
      <use xlink:href="#DejaVuSans-38" x="222.65625"/>
      <use xlink:href="#DejaVuSans-35" x="286.279297"/>
      <use xlink:href="#DejaVuSans-31" x="349.902344"/>
      <use xlink:href="#DejaVuSans-25" x="413.525391"/>
      <use xlink:href="#DejaVuSans-20" x="508.544922"/>
      <use xlink:href="#DejaVuSans-72" x="540.332031"/>
      <use xlink:href="#DejaVuSans-65" x="579.195312"/>
      <use xlink:href="#DejaVuSans-74" x="640.71875"/>
      <use xlink:href="#DejaVuSans-75" x="679.927734"/>
      <use xlink:href="#DejaVuSans-72" x="743.306641"/>
      <use xlink:href="#DejaVuSans-6e" x="782.669922"/>
      <use xlink:href="#DejaVuSans-20" x="846.048828"/>
      <use xlink:href="#DejaVuSans-41" x="877.835938"/>
      <use xlink:href="#DejaVuSans-56" x="939.869141"/>
      <use xlink:href="#DejaVuSans-41" x="1001.902344"/>
      <use xlink:href="#DejaVuSans-4e" x="1070.310547"/>
     </g>
    </g>
   </g>
  </g>
 </g>
 <defs>
  <clipPath id="p5926769ada">
   <rect x="90" y="60.48" width="558" height="388.08"/>
  </clipPath>
 </defs>
</svg>
