<?xml version="1.0" encoding="utf-8" standalone="no"?>
<!DOCTYPE svg PUBLIC "-//W3C//DTD SVG 1.1//EN"
  "http://www.w3.org/Graphics/SVG/1.1/DTD/svg11.dtd">
<svg xmlns:xlink="http://www.w3.org/1999/xlink" width="576pt" height="432pt" viewBox="0 0 576 432" xmlns="http://www.w3.org/2000/svg" version="1.1">
 <metadata>
  <rdf:RDF xmlns:dc="http://purl.org/dc/elements/1.1/" xmlns:cc="http://creativecommons.org/ns#" xmlns:rdf="http://www.w3.org/1999/02/22-rdf-syntax-ns#">
   <cc:Work>
    <dc:type rdf:resource="http://purl.org/dc/dcmitype/StillImage"/>
    <dc:date>2023-01-15T23:56:29.002413</dc:date>
    <dc:format>image/svg+xml</dc:format>
    <dc:creator>
     <cc:Agent>
      <dc:title>Matplotlib v3.5.0, https://matplotlib.org/</dc:title>
     </cc:Agent>
    </dc:creator>
   </cc:Work>
  </rdf:RDF>
 </metadata>
 <defs>
  <style type="text/css">*{stroke-linejoin: round; stroke-linecap: butt}</style>
 </defs>
 <g id="figure_1">
  <g id="patch_1">
   <path d="M 0 432 
L 576 432 
L 576 0 
L 0 0 
z
" style="fill: #ffffff"/>
  </g>
  <g id="axes_1">
   <g id="patch_2">
    <path d="M 56 286.833327 
L 562.54882 286.833327 
L 562.54882 26.88 
L 56 26.88 
z
" style="fill: #ffffff"/>
   </g>
   <g id="matplotlib.axis_1">
    <g id="xtick_1">
     <g id="line2d_1">
      <defs>
       <path id="m188a68af76" d="M 0 0 
L 0 3.5 
" style="stroke: #000000; stroke-width: 0.8"/>
      </defs>
      <g>
       <use xlink:href="#m188a68af76" x="77.75285" y="286.833327" style="stroke: #000000; stroke-width: 0.8"/>
      </g>
     </g>
    </g>
    <g id="xtick_2">
     <g id="line2d_2">
      <g>
       <use xlink:href="#m188a68af76" x="152.806542" y="286.833327" style="stroke: #000000; stroke-width: 0.8"/>
      </g>
     </g>
    </g>
    <g id="xtick_3">
     <g id="line2d_3">
      <g>
       <use xlink:href="#m188a68af76" x="230.404428" y="286.833327" style="stroke: #000000; stroke-width: 0.8"/>
      </g>
     </g>
    </g>
    <g id="xtick_4">
     <g id="line2d_4">
      <g>
       <use xlink:href="#m188a68af76" x="308.002313" y="286.833327" style="stroke: #000000; stroke-width: 0.8"/>
      </g>
     </g>
    </g>
    <g id="xtick_5">
     <g id="line2d_5">
      <g>
       <use xlink:href="#m188a68af76" x="386.872295" y="286.833327" style="stroke: #000000; stroke-width: 0.8"/>
      </g>
     </g>
    </g>
    <g id="xtick_6">
     <g id="line2d_6">
      <g>
       <use xlink:href="#m188a68af76" x="464.470181" y="286.833327" style="stroke: #000000; stroke-width: 0.8"/>
      </g>
     </g>
    </g>
    <g id="xtick_7">
     <g id="line2d_7">
      <g>
       <use xlink:href="#m188a68af76" x="542.068066" y="286.833327" style="stroke: #000000; stroke-width: 0.8"/>
      </g>
     </g>
    </g>
   </g>
   <g id="matplotlib.axis_2">
    <g id="ytick_1">
     <g id="line2d_8">
      <defs>
       <path id="m3a266c8f91" d="M 0 0 
L -3.5 0 
" style="stroke: #000000; stroke-width: 0.8"/>
      </defs>
      <g>
       <use xlink:href="#m3a266c8f91" x="56" y="285.815437" style="stroke: #000000; stroke-width: 0.8"/>
      </g>
     </g>
     <g id="text_1">
      <!-- −20 -->
      <g transform="translate(27.895312 289.614656)scale(0.1 -0.1)">
       <defs>
        <path id="DejaVuSans-2212" d="M 678 2272 
L 4684 2272 
L 4684 1741 
L 678 1741 
L 678 2272 
z
" transform="scale(0.015625)"/>
        <path id="DejaVuSans-32" d="M 1228 531 
L 3431 531 
L 3431 0 
L 469 0 
L 469 531 
Q 828 903 1448 1529 
Q 2069 2156 2228 2338 
Q 2531 2678 2651 2914 
Q 2772 3150 2772 3378 
Q 2772 3750 2511 3984 
Q 2250 4219 1831 4219 
Q 1534 4219 1204 4116 
Q 875 4013 500 3803 
L 500 4441 
Q 881 4594 1212 4672 
Q 1544 4750 1819 4750 
Q 2544 4750 2975 4387 
Q 3406 4025 3406 3419 
Q 3406 3131 3298 2873 
Q 3191 2616 2906 2266 
Q 2828 2175 2409 1742 
Q 1991 1309 1228 531 
z
" transform="scale(0.015625)"/>
        <path id="DejaVuSans-30" d="M 2034 4250 
Q 1547 4250 1301 3770 
Q 1056 3291 1056 2328 
Q 1056 1369 1301 889 
Q 1547 409 2034 409 
Q 2525 409 2770 889 
Q 3016 1369 3016 2328 
Q 3016 3291 2770 3770 
Q 2525 4250 2034 4250 
z
M 2034 4750 
Q 2819 4750 3233 4129 
Q 3647 3509 3647 2328 
Q 3647 1150 3233 529 
Q 2819 -91 2034 -91 
Q 1250 -91 836 529 
Q 422 1150 422 2328 
Q 422 3509 836 4129 
Q 1250 4750 2034 4750 
z
" transform="scale(0.015625)"/>
       </defs>
       <use xlink:href="#DejaVuSans-2212"/>
       <use xlink:href="#DejaVuSans-32" x="83.789062"/>
       <use xlink:href="#DejaVuSans-30" x="147.412109"/>
      </g>
     </g>
    </g>
    <g id="ytick_2">
     <g id="line2d_9">
      <g>
       <use xlink:href="#m3a266c8f91" x="56" y="249.032228" style="stroke: #000000; stroke-width: 0.8"/>
      </g>
     </g>
     <g id="text_2">
      <!-- −10 -->
      <g transform="translate(27.895312 252.831447)scale(0.1 -0.1)">
       <defs>
        <path id="DejaVuSans-31" d="M 794 531 
L 1825 531 
L 1825 4091 
L 703 3866 
L 703 4441 
L 1819 4666 
L 2450 4666 
L 2450 531 
L 3481 531 
L 3481 0 
L 794 0 
L 794 531 
z
" transform="scale(0.015625)"/>
       </defs>
       <use xlink:href="#DejaVuSans-2212"/>
       <use xlink:href="#DejaVuSans-31" x="83.789062"/>
       <use xlink:href="#DejaVuSans-30" x="147.412109"/>
      </g>
     </g>
    </g>
    <g id="ytick_3">
     <g id="line2d_10">
      <g>
       <use xlink:href="#m3a266c8f91" x="56" y="212.24902" style="stroke: #000000; stroke-width: 0.8"/>
      </g>
     </g>
     <g id="text_3">
      <!-- 0 -->
      <g transform="translate(42.6375 216.048238)scale(0.1 -0.1)">
       <use xlink:href="#DejaVuSans-30"/>
      </g>
     </g>
    </g>
    <g id="ytick_4">
     <g id="line2d_11">
      <g>
       <use xlink:href="#m3a266c8f91" x="56" y="175.465811" style="stroke: #000000; stroke-width: 0.8"/>
      </g>
     </g>
     <g id="text_4">
      <!-- 10 -->
      <g transform="translate(36.275 179.26503)scale(0.1 -0.1)">
       <use xlink:href="#DejaVuSans-31"/>
       <use xlink:href="#DejaVuSans-30" x="63.623047"/>
      </g>
     </g>
    </g>
    <g id="ytick_5">
     <g id="line2d_12">
      <g>
       <use xlink:href="#m3a266c8f91" x="56" y="138.682602" style="stroke: #000000; stroke-width: 0.8"/>
      </g>
     </g>
     <g id="text_5">
      <!-- 20 -->
      <g transform="translate(36.275 142.481821)scale(0.1 -0.1)">
       <use xlink:href="#DejaVuSans-32"/>
       <use xlink:href="#DejaVuSans-30" x="63.623047"/>
      </g>
     </g>
    </g>
    <g id="ytick_6">
     <g id="line2d_13">
      <g>
       <use xlink:href="#m3a266c8f91" x="56" y="101.899393" style="stroke: #000000; stroke-width: 0.8"/>
      </g>
     </g>
     <g id="text_6">
      <!-- 30 -->
      <g transform="translate(36.275 105.698612)scale(0.1 -0.1)">
       <defs>
        <path id="DejaVuSans-33" d="M 2597 2516 
Q 3050 2419 3304 2112 
Q 3559 1806 3559 1356 
Q 3559 666 3084 287 
Q 2609 -91 1734 -91 
Q 1441 -91 1130 -33 
Q 819 25 488 141 
L 488 750 
Q 750 597 1062 519 
Q 1375 441 1716 441 
Q 2309 441 2620 675 
Q 2931 909 2931 1356 
Q 2931 1769 2642 2001 
Q 2353 2234 1838 2234 
L 1294 2234 
L 1294 2753 
L 1863 2753 
Q 2328 2753 2575 2939 
Q 2822 3125 2822 3475 
Q 2822 3834 2567 4026 
Q 2313 4219 1838 4219 
Q 1578 4219 1281 4162 
Q 984 4106 628 3988 
L 628 4550 
Q 988 4650 1302 4700 
Q 1616 4750 1894 4750 
Q 2613 4750 3031 4423 
Q 3450 4097 3450 3541 
Q 3450 3153 3228 2886 
Q 3006 2619 2597 2516 
z
" transform="scale(0.015625)"/>
       </defs>
       <use xlink:href="#DejaVuSans-33"/>
       <use xlink:href="#DejaVuSans-30" x="63.623047"/>
      </g>
     </g>
    </g>
    <g id="ytick_7">
     <g id="line2d_14">
      <g>
       <use xlink:href="#m3a266c8f91" x="56" y="65.116184" style="stroke: #000000; stroke-width: 0.8"/>
      </g>
     </g>
     <g id="text_7">
      <!-- 40 -->
      <g transform="translate(36.275 68.915403)scale(0.1 -0.1)">
       <defs>
        <path id="DejaVuSans-34" d="M 2419 4116 
L 825 1625 
L 2419 1625 
L 2419 4116 
z
M 2253 4666 
L 3047 4666 
L 3047 1625 
L 3713 1625 
L 3713 1100 
L 3047 1100 
L 3047 0 
L 2419 0 
L 2419 1100 
L 313 1100 
L 313 1709 
L 2253 4666 
z
" transform="scale(0.015625)"/>
       </defs>
       <use xlink:href="#DejaVuSans-34"/>
       <use xlink:href="#DejaVuSans-30" x="63.623047"/>
      </g>
     </g>
    </g>
    <g id="ytick_8">
     <g id="line2d_15">
      <g>
       <use xlink:href="#m3a266c8f91" x="56" y="28.332975" style="stroke: #000000; stroke-width: 0.8"/>
      </g>
     </g>
     <g id="text_8">
      <!-- 50 -->
      <g transform="translate(36.275 32.132194)scale(0.1 -0.1)">
       <defs>
        <path id="DejaVuSans-35" d="M 691 4666 
L 3169 4666 
L 3169 4134 
L 1269 4134 
L 1269 2991 
Q 1406 3038 1543 3061 
Q 1681 3084 1819 3084 
Q 2600 3084 3056 2656 
Q 3513 2228 3513 1497 
Q 3513 744 3044 326 
Q 2575 -91 1722 -91 
Q 1428 -91 1123 -41 
Q 819 9 494 109 
L 494 744 
Q 775 591 1075 516 
Q 1375 441 1709 441 
Q 2250 441 2565 725 
Q 2881 1009 2881 1497 
Q 2881 1984 2565 2268 
Q 2250 2553 1709 2553 
Q 1456 2553 1204 2497 
Q 953 2441 691 2322 
L 691 4666 
z
" transform="scale(0.015625)"/>
       </defs>
       <use xlink:href="#DejaVuSans-35"/>
       <use xlink:href="#DejaVuSans-30" x="63.623047"/>
      </g>
     </g>
    </g>
    <g id="text_9">
     <!-- Return [%] -->
     <g transform="translate(21.815625 183.689476)rotate(-90)scale(0.1 -0.1)">
      <defs>
       <path id="DejaVuSans-52" d="M 2841 2188 
Q 3044 2119 3236 1894 
Q 3428 1669 3622 1275 
L 4263 0 
L 3584 0 
L 2988 1197 
Q 2756 1666 2539 1819 
Q 2322 1972 1947 1972 
L 1259 1972 
L 1259 0 
L 628 0 
L 628 4666 
L 2053 4666 
Q 2853 4666 3247 4331 
Q 3641 3997 3641 3322 
Q 3641 2881 3436 2590 
Q 3231 2300 2841 2188 
z
M 1259 4147 
L 1259 2491 
L 2053 2491 
Q 2509 2491 2742 2702 
Q 2975 2913 2975 3322 
Q 2975 3731 2742 3939 
Q 2509 4147 2053 4147 
L 1259 4147 
z
" transform="scale(0.015625)"/>
       <path id="DejaVuSans-65" d="M 3597 1894 
L 3597 1613 
L 953 1613 
Q 991 1019 1311 708 
Q 1631 397 2203 397 
Q 2534 397 2845 478 
Q 3156 559 3463 722 
L 3463 178 
Q 3153 47 2828 -22 
Q 2503 -91 2169 -91 
Q 1331 -91 842 396 
Q 353 884 353 1716 
Q 353 2575 817 3079 
Q 1281 3584 2069 3584 
Q 2775 3584 3186 3129 
Q 3597 2675 3597 1894 
z
M 3022 2063 
Q 3016 2534 2758 2815 
Q 2500 3097 2075 3097 
Q 1594 3097 1305 2825 
Q 1016 2553 972 2059 
L 3022 2063 
z
" transform="scale(0.015625)"/>
       <path id="DejaVuSans-74" d="M 1172 4494 
L 1172 3500 
L 2356 3500 
L 2356 3053 
L 1172 3053 
L 1172 1153 
Q 1172 725 1289 603 
Q 1406 481 1766 481 
L 2356 481 
L 2356 0 
L 1766 0 
Q 1100 0 847 248 
Q 594 497 594 1153 
L 594 3053 
L 172 3053 
L 172 3500 
L 594 3500 
L 594 4494 
L 1172 4494 
z
" transform="scale(0.015625)"/>
       <path id="DejaVuSans-75" d="M 544 1381 
L 544 3500 
L 1119 3500 
L 1119 1403 
Q 1119 906 1312 657 
Q 1506 409 1894 409 
Q 2359 409 2629 706 
Q 2900 1003 2900 1516 
L 2900 3500 
L 3475 3500 
L 3475 0 
L 2900 0 
L 2900 538 
Q 2691 219 2414 64 
Q 2138 -91 1772 -91 
Q 1169 -91 856 284 
Q 544 659 544 1381 
z
M 1991 3584 
L 1991 3584 
z
" transform="scale(0.015625)"/>
       <path id="DejaVuSans-72" d="M 2631 2963 
Q 2534 3019 2420 3045 
Q 2306 3072 2169 3072 
Q 1681 3072 1420 2755 
Q 1159 2438 1159 1844 
L 1159 0 
L 581 0 
L 581 3500 
L 1159 3500 
L 1159 2956 
Q 1341 3275 1631 3429 
Q 1922 3584 2338 3584 
Q 2397 3584 2469 3576 
Q 2541 3569 2628 3553 
L 2631 2963 
z
" transform="scale(0.015625)"/>
       <path id="DejaVuSans-6e" d="M 3513 2113 
L 3513 0 
L 2938 0 
L 2938 2094 
Q 2938 2591 2744 2837 
Q 2550 3084 2163 3084 
Q 1697 3084 1428 2787 
Q 1159 2491 1159 1978 
L 1159 0 
L 581 0 
L 581 3500 
L 1159 3500 
L 1159 2956 
Q 1366 3272 1645 3428 
Q 1925 3584 2291 3584 
Q 2894 3584 3203 3211 
Q 3513 2838 3513 2113 
z
" transform="scale(0.015625)"/>
       <path id="DejaVuSans-20" transform="scale(0.015625)"/>
       <path id="DejaVuSans-5b" d="M 550 4863 
L 1875 4863 
L 1875 4416 
L 1125 4416 
L 1125 -397 
L 1875 -397 
L 1875 -844 
L 550 -844 
L 550 4863 
z
" transform="scale(0.015625)"/>
       <path id="DejaVuSans-25" d="M 4653 2053 
Q 4381 2053 4226 1822 
Q 4072 1591 4072 1178 
Q 4072 772 4226 539 
Q 4381 306 4653 306 
Q 4919 306 5073 539 
Q 5228 772 5228 1178 
Q 5228 1588 5073 1820 
Q 4919 2053 4653 2053 
z
M 4653 2450 
Q 5147 2450 5437 2106 
Q 5728 1763 5728 1178 
Q 5728 594 5436 251 
Q 5144 -91 4653 -91 
Q 4153 -91 3862 251 
Q 3572 594 3572 1178 
Q 3572 1766 3864 2108 
Q 4156 2450 4653 2450 
z
M 1428 4353 
Q 1159 4353 1004 4120 
Q 850 3888 850 3481 
Q 850 3069 1003 2837 
Q 1156 2606 1428 2606 
Q 1700 2606 1854 2837 
Q 2009 3069 2009 3481 
Q 2009 3884 1853 4118 
Q 1697 4353 1428 4353 
z
M 4250 4750 
L 4750 4750 
L 1831 -91 
L 1331 -91 
L 4250 4750 
z
M 1428 4750 
Q 1922 4750 2215 4408 
Q 2509 4066 2509 3481 
Q 2509 2891 2217 2550 
Q 1925 2209 1428 2209 
Q 931 2209 642 2551 
Q 353 2894 353 3481 
Q 353 4063 643 4406 
Q 934 4750 1428 4750 
z
" transform="scale(0.015625)"/>
       <path id="DejaVuSans-5d" d="M 1947 4863 
L 1947 -844 
L 622 -844 
L 622 -397 
L 1369 -397 
L 1369 4416 
L 622 4416 
L 622 4863 
L 1947 4863 
z
" transform="scale(0.015625)"/>
      </defs>
      <use xlink:href="#DejaVuSans-52"/>
      <use xlink:href="#DejaVuSans-65" x="64.982422"/>
      <use xlink:href="#DejaVuSans-74" x="126.505859"/>
      <use xlink:href="#DejaVuSans-75" x="165.714844"/>
      <use xlink:href="#DejaVuSans-72" x="229.09375"/>
      <use xlink:href="#DejaVuSans-6e" x="268.457031"/>
      <use xlink:href="#DejaVuSans-20" x="331.835938"/>
      <use xlink:href="#DejaVuSans-5b" x="363.623047"/>
      <use xlink:href="#DejaVuSans-25" x="402.636719"/>
      <use xlink:href="#DejaVuSans-5d" x="497.65625"/>
     </g>
    </g>
   </g>
   <g id="line2d_16">
    <path d="M 79.024946 212.24902 
L 96.834297 212.16435 
L 98.106394 220.511342 
L 101.922683 216.164979 
L 103.19478 221.195753 
L 104.466876 227.02383 
L 105.738973 228.724273 
L 107.011069 231.398415 
L 112.099455 249.051985 
L 113.371551 250.703038 
L 114.643648 241.629301 
L 115.915744 242.955788 
L 119.732034 240.133475 
L 121.00413 252.692769 
L 122.276227 243.985932 
L 123.548323 245.460591 
L 124.82042 250.597201 
L 128.636709 257.963439 
L 129.908806 249.115487 
L 131.180902 246.222616 
L 132.452999 245.425312 
L 133.725095 241.840974 
L 138.813481 227.877579 
L 140.085578 233.437537 
L 141.357674 241.417627 
L 142.629771 242.680612 
L 146.44606 245.305364 
L 147.718156 254.484938 
L 148.990253 256.150103 
L 150.262349 252.692769 
L 151.534446 248.480466 
L 155.350735 247.450322 
L 156.622832 253.306622 
L 157.894928 255.76909 
L 159.167025 257.130856 
L 160.439121 261.138541 
L 164.255411 265.393179 
L 165.527507 269.048074 
L 166.799604 275.017267 
L 168.0717 256.157158 
L 169.343797 251.443895 
L 173.160086 238.581202 
L 174.432183 237.720397 
L 175.704279 234.065501 
L 176.976376 231.426638 
L 178.248472 224.892983 
L 182.064762 234.785191 
L 183.336858 234.841637 
L 184.608954 236.591472 
L 185.881051 242.179652 
L 187.153147 244.656232 
L 190.969437 257.081466 
L 192.241533 254.322655 
L 193.51363 241.086005 
L 194.785726 240.796718 
L 196.057823 239.364394 
L 199.874112 225.175214 
L 201.146209 231.730037 
L 202.418305 232.633177 
L 203.690402 239.202111 
L 204.962498 238.948103 
L 208.778788 238.672928 
L 210.050884 230.396494 
L 211.322981 231.57481 
L 212.595077 230.40355 
L 218.95556 228.717218 
L 220.227656 224.702477 
L 221.499752 224.843593 
L 222.771849 228.759552 
L 226.588138 217.70314 
L 227.860235 212.129071 
L 229.132331 211.825673 
L 231.676524 213.681344 
L 236.76491 209.10214 
L 238.037007 216.475434 
L 239.309103 222.92442 
L 240.5812 217.808977 
L 244.397489 216.136756 
L 245.669586 210.35807 
L 246.941682 213.33561 
L 248.213779 213.173327 
L 249.485875 214.274029 
L 253.302165 223.940452 
L 254.574261 227.65885 
L 255.846358 232.717847 
L 257.118454 229.168788 
L 258.390551 228.032807 
L 262.20684 230.431773 
L 263.478936 225.63384 
L 264.751033 218.161766 
L 267.295226 217.089287 
L 271.111515 214.224639 
L 272.383612 218.930846 
L 273.655708 215.325341 
L 274.927805 215.275951 
L 276.199901 206.914848 
L 281.288287 208.206056 
L 282.560384 203.471625 
L 283.83248 199.746172 
L 285.104577 206.52678 
L 288.920866 202.702545 
L 290.192963 197.954003 
L 291.465059 195.392754 
L 292.737156 199.668558 
L 297.825541 204.939228 
L 299.097638 209.588989 
L 300.369734 207.56398 
L 301.641831 207.055963 
L 302.913927 201.510118 
L 306.730217 205.094456 
L 308.002313 211.543441 
L 310.546506 200.515252 
L 311.818603 199.739116 
L 315.634892 190.644212 
L 316.906989 191.893085 
L 318.179085 194.637785 
L 319.451182 198.483187 
L 320.723278 196.133611 
L 324.539568 189.423561 
L 325.811664 188.816764 
L 327.083761 192.076536 
L 328.355857 194.673064 
L 329.627954 190.129139 
L 333.444243 191.124005 
L 334.71634 192.372878 
L 335.988436 194.320275 
L 337.260532 188.01946 
L 338.532629 190.051526 
L 342.348918 183.073356 
L 343.621015 184.675019 
L 344.893111 181.52814 
L 346.165208 177.188833 
L 347.437304 178.952779 
L 351.253594 179.510186 
L 352.52569 177.464009 
L 353.797787 186.057953 
L 355.069883 187.963014 
L 356.34198 186.460132 
L 360.158269 186.431909 
L 361.430366 179.566632 
L 362.702462 174.712253 
L 363.974559 171.995777 
L 365.246655 174.41591 
L 369.062945 167.134342 
L 370.335041 162.040067 
L 371.607138 161.927174 
L 372.879234 157.347971 
L 374.15133 158.780295 
L 377.96762 163.902793 
L 379.239716 168.093929 
L 380.511813 165.158723 
L 381.783909 163.811068 
L 383.056006 166.308815 
L 386.872295 157.827764 
L 388.144392 155.957981 
L 389.416488 148.888087 
L 390.688585 149.170318 
L 391.960681 147.921444 
L 395.776971 146.051662 
L 397.049067 150.306299 
L 398.321164 157.312692 
L 399.59326 156.423663 
L 400.865357 154.779666 
L 404.681646 154.116422 
L 405.953743 150.009956 
L 408.497936 150.750814 
L 409.770032 154.596215 
L 413.586321 164.241471 
L 414.858418 165.144611 
L 416.130514 169.984878 
L 417.402611 173.117646 
L 418.674707 169.68148 
L 422.490997 173.943173 
L 423.763093 180.004091 
L 425.03519 176.095187 
L 426.307286 177.626292 
L 427.579383 162.914984 
L 431.395672 163.091378 
L 432.667769 163.980407 
L 433.939865 161.701389 
L 435.211962 155.499356 
L 436.484058 159.408259 
L 440.300348 152.973385 
L 441.572444 149.191485 
L 442.844541 146.093997 
L 444.116637 149.911175 
L 445.388734 149.664223 
L 449.205023 147.547488 
L 450.47712 151.011877 
L 451.749216 160.748858 
L 453.021312 156.219045 
L 454.293409 152.789935 
L 458.109698 146.312726 
L 459.381795 141.190227 
L 460.653891 143.638584 
L 461.925988 142.424989 
L 463.198084 144.337107 
L 467.014374 141.147893 
L 468.28647 143.215237 
L 469.558567 148.210732 
L 470.830663 144.979183 
L 472.10276 140.943275 
L 475.919049 143.793811 
L 477.191146 146.62318 
L 478.463242 144.591115 
L 479.735339 139.341612 
L 481.007435 134.649516 
L 484.823725 144.372386 
L 486.095821 146.044606 
L 487.367918 150.821371 
L 488.640014 152.909883 
L 489.91211 154.525658 
L 493.7284 147.131197 
L 495.000496 147.999058 
L 496.272593 150.045235 
L 497.544689 144.725175 
L 498.816786 146.48912 
L 502.633075 141.733523 
L 505.177268 140.830382 
L 506.449365 138.191519 
L 507.721461 140.336478 
L 511.537751 145.197912 
L 512.809847 144.760454 
L 514.081944 145.282582 
L 515.35404 144.428832 
L 516.626137 144.36533 
L 520.442426 141.493626 
L 522.986619 152.444201 
L 524.258716 147.011248 
L 525.530812 143.64564 
L 529.347101 143.758532 
L 530.619198 136.900311 
L 538.251777 129.484683 
L 539.523873 131.128681 
L 539.523873 131.128681 
" clip-path="url(#p7b26780dd8)" style="fill: none; stroke: #008000; stroke-width: 1.5; stroke-linecap: square"/>
   </g>
   <g id="line2d_17">
    <path d="M 79.024946 212.24902 
L 85.385429 212.24902 
L 86.657525 215.293095 
L 89.201718 215.186704 
L 93.018008 212.412611 
L 94.290104 211.049609 
L 95.562201 210.850313 
L 96.834297 211.892325 
L 98.106394 211.900148 
L 101.922683 210.293556 
L 103.19478 212.876391 
L 104.466876 212.089088 
L 105.738973 213.835723 
L 107.011069 217.913931 
L 110.827358 216.697696 
L 112.099455 225.528973 
L 113.371551 230.185227 
L 133.725095 230.185227 
L 137.541385 221.838328 
L 138.813481 220.290994 
L 140.085578 218.556433 
L 142.629771 225.02031 
L 146.44606 224.262414 
L 147.718156 225.417526 
L 148.990253 227.881658 
L 150.262349 228.459568 
L 151.534446 224.654021 
L 155.350735 222.611153 
L 157.894928 231.937477 
L 173.160086 231.937477 
L 174.432183 222.093212 
L 175.704279 220.937827 
L 176.976376 219.385603 
L 178.248472 217.201523 
L 182.064762 217.384434 
L 183.336858 219.116779 
L 184.608954 220.111939 
L 185.881051 222.262179 
L 187.153147 220.857053 
L 190.969437 227.334736 
L 192.241533 231.289439 
L 193.51363 228.164102 
L 194.785726 229.715357 
L 199.874112 229.715357 
L 201.146209 227.020895 
L 202.418305 230.928655 
L 203.690402 229.499301 
L 204.962498 232.185048 
L 208.778788 231.969324 
L 210.050884 230.210641 
L 211.322981 226.244864 
L 212.595077 224.727637 
L 218.95556 221.842873 
L 220.227656 220.504668 
L 221.499752 217.583875 
L 222.771849 215.900844 
L 226.588138 216.289059 
L 227.860235 206.713091 
L 229.132331 208.242726 
L 231.676524 205.02514 
L 235.492814 201.890725 
L 236.76491 199.018932 
L 238.037007 202.624345 
L 239.309103 201.079403 
L 240.5812 204.109621 
L 244.397489 197.410454 
L 245.669586 198.531125 
L 246.941682 197.569983 
L 248.213779 201.146841 
L 249.485875 201.360493 
L 253.302165 202.819705 
L 254.574261 209.273417 
L 255.846358 206.585799 
L 257.118454 205.530967 
L 258.390551 204.65685 
L 262.20684 205.197643 
L 263.478936 207.774081 
L 264.751033 205.284468 
L 267.295226 204.964504 
L 271.111515 199.6342 
L 272.383612 203.51985 
L 273.655708 199.549032 
L 274.927805 196.757582 
L 276.199901 195.229558 
L 281.288287 187.894336 
L 282.560384 185.564924 
L 283.83248 178.477017 
L 285.104577 176.812419 
L 288.920866 180.172344 
L 290.192963 177.179775 
L 291.465059 172.936741 
L 292.737156 171.244685 
L 297.825541 172.873475 
L 299.097638 169.226591 
L 300.369734 175.415345 
L 301.641831 174.965888 
L 302.913927 175.050609 
L 306.730217 172.734094 
L 308.002313 171.60936 
L 309.27441 166.928916 
L 310.546506 165.675571 
L 311.818603 167.124911 
L 315.634892 159.036084 
L 316.906989 157.170434 
L 318.179085 156.984758 
L 319.451182 158.686363 
L 320.723278 160.774783 
L 324.539568 159.417424 
L 325.811664 154.810502 
L 327.083761 148.988439 
L 328.355857 151.35091 
L 329.627954 151.981337 
L 333.444243 151.407413 
L 334.71634 150.129952 
L 335.988436 153.037355 
L 337.260532 149.949318 
L 338.532629 152.505003 
L 342.348918 150.870641 
L 343.621015 157.034684 
L 344.893111 158.096873 
L 346.165208 155.65827 
L 347.437304 155.545593 
L 351.253594 152.790836 
L 352.52569 152.012462 
L 353.797787 151.952213 
L 355.069883 149.840728 
L 356.34198 149.831634 
L 360.158269 150.048253 
L 361.430366 146.812144 
L 362.702462 138.853699 
L 363.974559 135.236328 
L 365.246655 133.693635 
L 369.062945 132.295923 
L 370.335041 130.799081 
L 371.607138 127.410647 
L 372.879234 129.403014 
L 374.15133 125.825208 
L 377.96762 126.605511 
L 379.239716 128.65444 
L 380.511813 125.339609 
L 381.783909 118.86002 
L 383.056006 117.997463 
L 386.872295 120.961044 
L 388.144392 115.128216 
L 389.416488 114.703457 
L 390.688585 110.289177 
L 391.960681 112.61875 
L 395.776971 114.03839 
L 397.049067 109.71788 
L 398.321164 110.44006 
L 399.59326 115.900578 
L 400.865357 110.416894 
L 404.681646 108.468979 
L 405.953743 108.620317 
L 407.225839 106.206189 
L 408.497936 106.204963 
L 409.770032 104.559423 
L 413.586321 109.697855 
L 414.858418 114.69554 
L 416.130514 112.782868 
L 417.402611 117.946467 
L 418.674707 117.88678 
L 422.490997 117.819761 
L 423.763093 117.980538 
L 433.939865 117.980538 
L 435.211962 113.929631 
L 436.484058 111.336529 
L 440.300348 109.684284 
L 441.572444 106.210675 
L 442.844541 101.415147 
L 444.116637 101.502698 
L 445.388734 102.452598 
L 449.205023 99.440908 
L 450.47712 98.711404 
L 451.749216 103.083675 
L 453.021312 109.498954 
L 454.293409 104.110117 
L 458.109698 101.767898 
L 459.381795 100.658911 
L 460.653891 98.700382 
L 461.925988 95.289655 
L 463.198084 96.329606 
L 467.014374 93.532631 
L 468.28647 85.620112 
L 469.558567 86.876575 
L 470.830663 86.31842 
L 472.10276 78.286276 
L 475.919049 72.641002 
L 477.191146 74.644036 
L 478.463242 77.253343 
L 479.735339 74.912989 
L 481.007435 74.908916 
L 484.823725 74.276897 
L 486.095821 79.616203 
L 487.367918 83.179187 
L 488.640014 81.996463 
L 489.91211 81.658084 
L 493.7284 82.969369 
L 495.000496 75.889767 
L 496.272593 74.016331 
L 497.544689 74.056341 
L 498.816786 75.149611 
L 502.633075 70.114841 
L 503.905172 65.694819 
L 505.177268 60.69601 
L 506.449365 55.121832 
L 507.721461 50.330816 
L 511.537751 51.176963 
L 512.809847 46.887235 
L 514.081944 51.327974 
L 515.35404 54.803355 
L 516.626137 53.524982 
L 520.442426 51.320949 
L 521.714523 52.52715 
L 522.986619 54.345445 
L 524.258716 54.345445 
L 525.530812 46.941596 
L 529.347101 46.923288 
L 530.619198 48.916803 
L 538.251777 45.977822 
L 539.523873 38.69606 
L 539.523873 38.69606 
" clip-path="url(#p7b26780dd8)" style="fill: none; stroke: #0000ff; stroke-width: 1.5; stroke-linecap: square"/>
   </g>
   <g id="line2d_18">
    <path d="M 79.024946 212.24902 
L 93.018008 212.24902 
L 94.290104 211.049609 
L 95.562201 210.850313 
L 98.106394 210.850313 
L 101.922683 210.293556 
L 226.588138 210.293556 
L 227.860235 206.713091 
L 229.132331 206.713091 
L 231.676524 205.02514 
L 235.492814 201.890725 
L 236.76491 199.018932 
L 240.5812 199.018932 
L 244.397489 197.410454 
L 273.655708 197.410454 
L 274.927805 196.757582 
L 276.199901 195.229558 
L 281.288287 187.894336 
L 282.560384 185.564924 
L 283.83248 178.477017 
L 285.104577 176.812419 
L 290.192963 176.812419 
L 291.465059 172.936741 
L 292.737156 171.244685 
L 297.825541 171.244685 
L 299.097638 169.226591 
L 308.002313 169.226591 
L 309.27441 166.928916 
L 310.546506 165.675571 
L 311.818603 165.675571 
L 315.634892 159.036084 
L 316.906989 157.170434 
L 318.179085 156.984758 
L 324.539568 156.984758 
L 325.811664 154.810502 
L 327.083761 148.988439 
L 360.158269 148.988439 
L 361.430366 146.812144 
L 362.702462 138.853699 
L 363.974559 135.236328 
L 365.246655 133.693635 
L 369.062945 132.295923 
L 370.335041 130.799081 
L 371.607138 127.410647 
L 372.879234 127.410647 
L 374.15133 125.825208 
L 379.239716 125.825208 
L 380.511813 125.339609 
L 381.783909 118.86002 
L 383.056006 117.997463 
L 386.872295 117.997463 
L 388.144392 115.128216 
L 389.416488 114.703457 
L 390.688585 110.289177 
L 395.776971 110.289177 
L 397.049067 109.71788 
L 400.865357 109.71788 
L 404.681646 108.468979 
L 405.953743 108.468979 
L 407.225839 106.206189 
L 408.497936 106.204963 
L 409.770032 104.559423 
L 441.572444 104.559423 
L 442.844541 101.415147 
L 445.388734 101.415147 
L 450.47712 98.711404 
L 460.653891 98.700382 
L 461.925988 95.289655 
L 463.198084 95.289655 
L 467.014374 93.532631 
L 468.28647 85.620112 
L 470.830663 85.620112 
L 472.10276 78.286276 
L 475.919049 72.641002 
L 498.816786 72.641002 
L 502.633075 70.114841 
L 503.905172 65.694819 
L 505.177268 60.69601 
L 506.449365 55.121832 
L 507.721461 50.330816 
L 511.537751 50.330816 
L 512.809847 46.887235 
L 530.619198 46.887235 
L 538.251777 45.977822 
L 539.523873 38.69606 
L 539.523873 38.69606 
" clip-path="url(#p7b26780dd8)" style="fill: none; stroke: #ff0000; stroke-width: 1.5; stroke-linecap: square"/>
   </g>
   <g id="patch_3">
    <path d="M 56 286.833327 
L 56 26.88 
" style="fill: none; stroke: #000000; stroke-width: 0.8; stroke-linejoin: miter; stroke-linecap: square"/>
   </g>
   <g id="patch_4">
    <path d="M 562.54882 286.833327 
L 562.54882 26.88 
" style="fill: none; stroke: #000000; stroke-width: 0.8; stroke-linejoin: miter; stroke-linecap: square"/>
   </g>
   <g id="patch_5">
    <path d="M 56 286.833327 
L 562.54882 286.833327 
" style="fill: none; stroke: #000000; stroke-width: 0.8; stroke-linejoin: miter; stroke-linecap: square"/>
   </g>
   <g id="patch_6">
    <path d="M 56 26.88 
L 562.54882 26.88 
" style="fill: none; stroke: #000000; stroke-width: 0.8; stroke-linejoin: miter; stroke-linecap: square"/>
   </g>
   <g id="text_10">
    <!-- Performance of AVAN-strategy year 2003 -->
    <g transform="translate(185.961285 20.88)scale(0.12 -0.12)">
     <defs>
      <path id="DejaVuSans-50" d="M 1259 4147 
L 1259 2394 
L 2053 2394 
Q 2494 2394 2734 2622 
Q 2975 2850 2975 3272 
Q 2975 3691 2734 3919 
Q 2494 4147 2053 4147 
L 1259 4147 
z
M 628 4666 
L 2053 4666 
Q 2838 4666 3239 4311 
Q 3641 3956 3641 3272 
Q 3641 2581 3239 2228 
Q 2838 1875 2053 1875 
L 1259 1875 
L 1259 0 
L 628 0 
L 628 4666 
z
" transform="scale(0.015625)"/>
      <path id="DejaVuSans-66" d="M 2375 4863 
L 2375 4384 
L 1825 4384 
Q 1516 4384 1395 4259 
Q 1275 4134 1275 3809 
L 1275 3500 
L 2222 3500 
L 2222 3053 
L 1275 3053 
L 1275 0 
L 697 0 
L 697 3053 
L 147 3053 
L 147 3500 
L 697 3500 
L 697 3744 
Q 697 4328 969 4595 
Q 1241 4863 1831 4863 
L 2375 4863 
z
" transform="scale(0.015625)"/>
      <path id="DejaVuSans-6f" d="M 1959 3097 
Q 1497 3097 1228 2736 
Q 959 2375 959 1747 
Q 959 1119 1226 758 
Q 1494 397 1959 397 
Q 2419 397 2687 759 
Q 2956 1122 2956 1747 
Q 2956 2369 2687 2733 
Q 2419 3097 1959 3097 
z
M 1959 3584 
Q 2709 3584 3137 3096 
Q 3566 2609 3566 1747 
Q 3566 888 3137 398 
Q 2709 -91 1959 -91 
Q 1206 -91 779 398 
Q 353 888 353 1747 
Q 353 2609 779 3096 
Q 1206 3584 1959 3584 
z
" transform="scale(0.015625)"/>
      <path id="DejaVuSans-6d" d="M 3328 2828 
Q 3544 3216 3844 3400 
Q 4144 3584 4550 3584 
Q 5097 3584 5394 3201 
Q 5691 2819 5691 2113 
L 5691 0 
L 5113 0 
L 5113 2094 
Q 5113 2597 4934 2840 
Q 4756 3084 4391 3084 
Q 3944 3084 3684 2787 
Q 3425 2491 3425 1978 
L 3425 0 
L 2847 0 
L 2847 2094 
Q 2847 2600 2669 2842 
Q 2491 3084 2119 3084 
Q 1678 3084 1418 2786 
Q 1159 2488 1159 1978 
L 1159 0 
L 581 0 
L 581 3500 
L 1159 3500 
L 1159 2956 
Q 1356 3278 1631 3431 
Q 1906 3584 2284 3584 
Q 2666 3584 2933 3390 
Q 3200 3197 3328 2828 
z
" transform="scale(0.015625)"/>
      <path id="DejaVuSans-61" d="M 2194 1759 
Q 1497 1759 1228 1600 
Q 959 1441 959 1056 
Q 959 750 1161 570 
Q 1363 391 1709 391 
Q 2188 391 2477 730 
Q 2766 1069 2766 1631 
L 2766 1759 
L 2194 1759 
z
M 3341 1997 
L 3341 0 
L 2766 0 
L 2766 531 
Q 2569 213 2275 61 
Q 1981 -91 1556 -91 
Q 1019 -91 701 211 
Q 384 513 384 1019 
Q 384 1609 779 1909 
Q 1175 2209 1959 2209 
L 2766 2209 
L 2766 2266 
Q 2766 2663 2505 2880 
Q 2244 3097 1772 3097 
Q 1472 3097 1187 3025 
Q 903 2953 641 2809 
L 641 3341 
Q 956 3463 1253 3523 
Q 1550 3584 1831 3584 
Q 2591 3584 2966 3190 
Q 3341 2797 3341 1997 
z
" transform="scale(0.015625)"/>
      <path id="DejaVuSans-63" d="M 3122 3366 
L 3122 2828 
Q 2878 2963 2633 3030 
Q 2388 3097 2138 3097 
Q 1578 3097 1268 2742 
Q 959 2388 959 1747 
Q 959 1106 1268 751 
Q 1578 397 2138 397 
Q 2388 397 2633 464 
Q 2878 531 3122 666 
L 3122 134 
Q 2881 22 2623 -34 
Q 2366 -91 2075 -91 
Q 1284 -91 818 406 
Q 353 903 353 1747 
Q 353 2603 823 3093 
Q 1294 3584 2113 3584 
Q 2378 3584 2631 3529 
Q 2884 3475 3122 3366 
z
" transform="scale(0.015625)"/>
      <path id="DejaVuSans-41" d="M 2188 4044 
L 1331 1722 
L 3047 1722 
L 2188 4044 
z
M 1831 4666 
L 2547 4666 
L 4325 0 
L 3669 0 
L 3244 1197 
L 1141 1197 
L 716 0 
L 50 0 
L 1831 4666 
z
" transform="scale(0.015625)"/>
      <path id="DejaVuSans-56" d="M 1831 0 
L 50 4666 
L 709 4666 
L 2188 738 
L 3669 4666 
L 4325 4666 
L 2547 0 
L 1831 0 
z
" transform="scale(0.015625)"/>
      <path id="DejaVuSans-4e" d="M 628 4666 
L 1478 4666 
L 3547 763 
L 3547 4666 
L 4159 4666 
L 4159 0 
L 3309 0 
L 1241 3903 
L 1241 0 
L 628 0 
L 628 4666 
z
" transform="scale(0.015625)"/>
      <path id="DejaVuSans-2d" d="M 313 2009 
L 1997 2009 
L 1997 1497 
L 313 1497 
L 313 2009 
z
" transform="scale(0.015625)"/>
      <path id="DejaVuSans-73" d="M 2834 3397 
L 2834 2853 
Q 2591 2978 2328 3040 
Q 2066 3103 1784 3103 
Q 1356 3103 1142 2972 
Q 928 2841 928 2578 
Q 928 2378 1081 2264 
Q 1234 2150 1697 2047 
L 1894 2003 
Q 2506 1872 2764 1633 
Q 3022 1394 3022 966 
Q 3022 478 2636 193 
Q 2250 -91 1575 -91 
Q 1294 -91 989 -36 
Q 684 19 347 128 
L 347 722 
Q 666 556 975 473 
Q 1284 391 1588 391 
Q 1994 391 2212 530 
Q 2431 669 2431 922 
Q 2431 1156 2273 1281 
Q 2116 1406 1581 1522 
L 1381 1569 
Q 847 1681 609 1914 
Q 372 2147 372 2553 
Q 372 3047 722 3315 
Q 1072 3584 1716 3584 
Q 2034 3584 2315 3537 
Q 2597 3491 2834 3397 
z
" transform="scale(0.015625)"/>
      <path id="DejaVuSans-67" d="M 2906 1791 
Q 2906 2416 2648 2759 
Q 2391 3103 1925 3103 
Q 1463 3103 1205 2759 
Q 947 2416 947 1791 
Q 947 1169 1205 825 
Q 1463 481 1925 481 
Q 2391 481 2648 825 
Q 2906 1169 2906 1791 
z
M 3481 434 
Q 3481 -459 3084 -895 
Q 2688 -1331 1869 -1331 
Q 1566 -1331 1297 -1286 
Q 1028 -1241 775 -1147 
L 775 -588 
Q 1028 -725 1275 -790 
Q 1522 -856 1778 -856 
Q 2344 -856 2625 -561 
Q 2906 -266 2906 331 
L 2906 616 
Q 2728 306 2450 153 
Q 2172 0 1784 0 
Q 1141 0 747 490 
Q 353 981 353 1791 
Q 353 2603 747 3093 
Q 1141 3584 1784 3584 
Q 2172 3584 2450 3431 
Q 2728 3278 2906 2969 
L 2906 3500 
L 3481 3500 
L 3481 434 
z
" transform="scale(0.015625)"/>
      <path id="DejaVuSans-79" d="M 2059 -325 
Q 1816 -950 1584 -1140 
Q 1353 -1331 966 -1331 
L 506 -1331 
L 506 -850 
L 844 -850 
Q 1081 -850 1212 -737 
Q 1344 -625 1503 -206 
L 1606 56 
L 191 3500 
L 800 3500 
L 1894 763 
L 2988 3500 
L 3597 3500 
L 2059 -325 
z
" transform="scale(0.015625)"/>
     </defs>
     <use xlink:href="#DejaVuSans-50"/>
     <use xlink:href="#DejaVuSans-65" x="56.677734"/>
     <use xlink:href="#DejaVuSans-72" x="118.201172"/>
     <use xlink:href="#DejaVuSans-66" x="159.314453"/>
     <use xlink:href="#DejaVuSans-6f" x="194.519531"/>
     <use xlink:href="#DejaVuSans-72" x="255.701172"/>
     <use xlink:href="#DejaVuSans-6d" x="295.064453"/>
     <use xlink:href="#DejaVuSans-61" x="392.476562"/>
     <use xlink:href="#DejaVuSans-6e" x="453.755859"/>
     <use xlink:href="#DejaVuSans-63" x="517.134766"/>
     <use xlink:href="#DejaVuSans-65" x="572.115234"/>
     <use xlink:href="#DejaVuSans-20" x="633.638672"/>
     <use xlink:href="#DejaVuSans-6f" x="665.425781"/>
     <use xlink:href="#DejaVuSans-66" x="726.607422"/>
     <use xlink:href="#DejaVuSans-20" x="761.8125"/>
     <use xlink:href="#DejaVuSans-41" x="793.599609"/>
     <use xlink:href="#DejaVuSans-56" x="855.632812"/>
     <use xlink:href="#DejaVuSans-41" x="917.666016"/>
     <use xlink:href="#DejaVuSans-4e" x="986.074219"/>
     <use xlink:href="#DejaVuSans-2d" x="1060.878906"/>
     <use xlink:href="#DejaVuSans-73" x="1096.962891"/>
     <use xlink:href="#DejaVuSans-74" x="1149.0625"/>
     <use xlink:href="#DejaVuSans-72" x="1188.271484"/>
     <use xlink:href="#DejaVuSans-61" x="1229.384766"/>
     <use xlink:href="#DejaVuSans-74" x="1290.664062"/>
     <use xlink:href="#DejaVuSans-65" x="1329.873047"/>
     <use xlink:href="#DejaVuSans-67" x="1391.396484"/>
     <use xlink:href="#DejaVuSans-79" x="1454.873047"/>
     <use xlink:href="#DejaVuSans-20" x="1514.052734"/>
     <use xlink:href="#DejaVuSans-79" x="1545.839844"/>
     <use xlink:href="#DejaVuSans-65" x="1605.019531"/>
     <use xlink:href="#DejaVuSans-61" x="1666.542969"/>
     <use xlink:href="#DejaVuSans-72" x="1727.822266"/>
     <use xlink:href="#DejaVuSans-20" x="1768.935547"/>
     <use xlink:href="#DejaVuSans-32" x="1800.722656"/>
     <use xlink:href="#DejaVuSans-30" x="1864.345703"/>
     <use xlink:href="#DejaVuSans-30" x="1927.96875"/>
     <use xlink:href="#DejaVuSans-33" x="1991.591797"/>
    </g>
   </g>
   <g id="legend_1">
    <g id="patch_7">
     <path d="M 63 78.914375 
L 190.421875 78.914375 
Q 192.421875 78.914375 192.421875 76.914375 
L 192.421875 33.88 
Q 192.421875 31.88 190.421875 31.88 
L 63 31.88 
Q 61 31.88 61 33.88 
L 61 76.914375 
Q 61 78.914375 63 78.914375 
z
" style="fill: #ffffff; opacity: 0.8; stroke: #cccccc; stroke-linejoin: miter"/>
    </g>
    <g id="line2d_19">
     <path d="M 65 39.978438 
L 75 39.978438 
L 85 39.978438 
" style="fill: none; stroke: #008000; stroke-width: 1.5; stroke-linecap: square"/>
    </g>
    <g id="text_11">
     <!-- 22.1% return omx -->
     <g transform="translate(93 43.478438)scale(0.1 -0.1)">
      <defs>
       <path id="DejaVuSans-2e" d="M 684 794 
L 1344 794 
L 1344 0 
L 684 0 
L 684 794 
z
" transform="scale(0.015625)"/>
       <path id="DejaVuSans-78" d="M 3513 3500 
L 2247 1797 
L 3578 0 
L 2900 0 
L 1881 1375 
L 863 0 
L 184 0 
L 1544 1831 
L 300 3500 
L 978 3500 
L 1906 2253 
L 2834 3500 
L 3513 3500 
z
" transform="scale(0.015625)"/>
      </defs>
      <use xlink:href="#DejaVuSans-32"/>
      <use xlink:href="#DejaVuSans-32" x="63.623047"/>
      <use xlink:href="#DejaVuSans-2e" x="127.246094"/>
      <use xlink:href="#DejaVuSans-31" x="159.033203"/>
      <use xlink:href="#DejaVuSans-25" x="222.65625"/>
      <use xlink:href="#DejaVuSans-20" x="317.675781"/>
      <use xlink:href="#DejaVuSans-72" x="349.462891"/>
      <use xlink:href="#DejaVuSans-65" x="388.326172"/>
      <use xlink:href="#DejaVuSans-74" x="449.849609"/>
      <use xlink:href="#DejaVuSans-75" x="489.058594"/>
      <use xlink:href="#DejaVuSans-72" x="552.4375"/>
      <use xlink:href="#DejaVuSans-6e" x="591.800781"/>
      <use xlink:href="#DejaVuSans-20" x="655.179688"/>
      <use xlink:href="#DejaVuSans-6f" x="686.966797"/>
      <use xlink:href="#DejaVuSans-6d" x="748.148438"/>
      <use xlink:href="#DejaVuSans-78" x="845.560547"/>
     </g>
    </g>
    <g id="line2d_20">
     <path d="M 65 54.656563 
L 75 54.656563 
L 85 54.656563 
" style="fill: none; stroke: #0000ff; stroke-width: 1.5; stroke-linecap: square"/>
    </g>
    <g id="text_12">
     <!-- 47.2% return AVAN -->
     <g transform="translate(93 58.156563)scale(0.1 -0.1)">
      <defs>
       <path id="DejaVuSans-37" d="M 525 4666 
L 3525 4666 
L 3525 4397 
L 1831 0 
L 1172 0 
L 2766 4134 
L 525 4134 
L 525 4666 
z
" transform="scale(0.015625)"/>
      </defs>
      <use xlink:href="#DejaVuSans-34"/>
      <use xlink:href="#DejaVuSans-37" x="63.623047"/>
      <use xlink:href="#DejaVuSans-2e" x="127.246094"/>
      <use xlink:href="#DejaVuSans-32" x="159.033203"/>
      <use xlink:href="#DejaVuSans-25" x="222.65625"/>
      <use xlink:href="#DejaVuSans-20" x="317.675781"/>
      <use xlink:href="#DejaVuSans-72" x="349.462891"/>
      <use xlink:href="#DejaVuSans-65" x="388.326172"/>
      <use xlink:href="#DejaVuSans-74" x="449.849609"/>
      <use xlink:href="#DejaVuSans-75" x="489.058594"/>
      <use xlink:href="#DejaVuSans-72" x="552.4375"/>
      <use xlink:href="#DejaVuSans-6e" x="591.800781"/>
      <use xlink:href="#DejaVuSans-20" x="655.179688"/>
      <use xlink:href="#DejaVuSans-41" x="686.966797"/>
      <use xlink:href="#DejaVuSans-56" x="749"/>
      <use xlink:href="#DejaVuSans-41" x="811.033203"/>
      <use xlink:href="#DejaVuSans-4e" x="879.441406"/>
     </g>
    </g>
    <g id="line2d_21">
     <path d="M 65 69.334688 
L 75 69.334688 
L 85 69.334688 
" style="fill: none; stroke: #ff0000; stroke-width: 1.5; stroke-linecap: square"/>
    </g>
    <g id="text_13">
     <!-- cummax -->
     <g transform="translate(93 72.834688)scale(0.1 -0.1)">
      <use xlink:href="#DejaVuSans-63"/>
      <use xlink:href="#DejaVuSans-75" x="54.980469"/>
      <use xlink:href="#DejaVuSans-6d" x="118.359375"/>
      <use xlink:href="#DejaVuSans-6d" x="215.771484"/>
      <use xlink:href="#DejaVuSans-61" x="313.183594"/>
      <use xlink:href="#DejaVuSans-78" x="374.462891"/>
     </g>
    </g>
   </g>
  </g>
  <g id="axes_2">
   <g id="patch_8">
    <path d="M 56 390.04 
L 562.54882 390.04 
L 562.54882 303.388891 
L 56 303.388891 
z
" style="fill: #ffffff"/>
   </g>
   <g id="matplotlib.axis_3">
    <g id="xtick_8">
     <g id="line2d_22">
      <g>
       <use xlink:href="#m188a68af76" x="77.75285" y="390.04" style="stroke: #000000; stroke-width: 0.8"/>
      </g>
     </g>
     <g id="text_14">
      <!-- 2003-01 -->
      <g transform="translate(56.861444 404.638438)scale(0.1 -0.1)">
       <use xlink:href="#DejaVuSans-32"/>
       <use xlink:href="#DejaVuSans-30" x="63.623047"/>
       <use xlink:href="#DejaVuSans-30" x="127.246094"/>
       <use xlink:href="#DejaVuSans-33" x="190.869141"/>
       <use xlink:href="#DejaVuSans-2d" x="254.492188"/>
       <use xlink:href="#DejaVuSans-30" x="290.576172"/>
       <use xlink:href="#DejaVuSans-31" x="354.199219"/>
      </g>
     </g>
    </g>
    <g id="xtick_9">
     <g id="line2d_23">
      <g>
       <use xlink:href="#m188a68af76" x="152.806542" y="390.04" style="stroke: #000000; stroke-width: 0.8"/>
      </g>
     </g>
     <g id="text_15">
      <!-- 2003-03 -->
      <g transform="translate(131.915136 404.638438)scale(0.1 -0.1)">
       <use xlink:href="#DejaVuSans-32"/>
       <use xlink:href="#DejaVuSans-30" x="63.623047"/>
       <use xlink:href="#DejaVuSans-30" x="127.246094"/>
       <use xlink:href="#DejaVuSans-33" x="190.869141"/>
       <use xlink:href="#DejaVuSans-2d" x="254.492188"/>
       <use xlink:href="#DejaVuSans-30" x="290.576172"/>
       <use xlink:href="#DejaVuSans-33" x="354.199219"/>
      </g>
     </g>
    </g>
    <g id="xtick_10">
     <g id="line2d_24">
      <g>
       <use xlink:href="#m188a68af76" x="230.404428" y="390.04" style="stroke: #000000; stroke-width: 0.8"/>
      </g>
     </g>
     <g id="text_16">
      <!-- 2003-05 -->
      <g transform="translate(209.513022 404.638438)scale(0.1 -0.1)">
       <use xlink:href="#DejaVuSans-32"/>
       <use xlink:href="#DejaVuSans-30" x="63.623047"/>
       <use xlink:href="#DejaVuSans-30" x="127.246094"/>
       <use xlink:href="#DejaVuSans-33" x="190.869141"/>
       <use xlink:href="#DejaVuSans-2d" x="254.492188"/>
       <use xlink:href="#DejaVuSans-30" x="290.576172"/>
       <use xlink:href="#DejaVuSans-35" x="354.199219"/>
      </g>
     </g>
    </g>
    <g id="xtick_11">
     <g id="line2d_25">
      <g>
       <use xlink:href="#m188a68af76" x="308.002313" y="390.04" style="stroke: #000000; stroke-width: 0.8"/>
      </g>
     </g>
     <g id="text_17">
      <!-- 2003-07 -->
      <g transform="translate(287.110907 404.638438)scale(0.1 -0.1)">
       <use xlink:href="#DejaVuSans-32"/>
       <use xlink:href="#DejaVuSans-30" x="63.623047"/>
       <use xlink:href="#DejaVuSans-30" x="127.246094"/>
       <use xlink:href="#DejaVuSans-33" x="190.869141"/>
       <use xlink:href="#DejaVuSans-2d" x="254.492188"/>
       <use xlink:href="#DejaVuSans-30" x="290.576172"/>
       <use xlink:href="#DejaVuSans-37" x="354.199219"/>
      </g>
     </g>
    </g>
    <g id="xtick_12">
     <g id="line2d_26">
      <g>
       <use xlink:href="#m188a68af76" x="386.872295" y="390.04" style="stroke: #000000; stroke-width: 0.8"/>
      </g>
     </g>
     <g id="text_18">
      <!-- 2003-09 -->
      <g transform="translate(365.980889 404.638438)scale(0.1 -0.1)">
       <defs>
        <path id="DejaVuSans-39" d="M 703 97 
L 703 672 
Q 941 559 1184 500 
Q 1428 441 1663 441 
Q 2288 441 2617 861 
Q 2947 1281 2994 2138 
Q 2813 1869 2534 1725 
Q 2256 1581 1919 1581 
Q 1219 1581 811 2004 
Q 403 2428 403 3163 
Q 403 3881 828 4315 
Q 1253 4750 1959 4750 
Q 2769 4750 3195 4129 
Q 3622 3509 3622 2328 
Q 3622 1225 3098 567 
Q 2575 -91 1691 -91 
Q 1453 -91 1209 -44 
Q 966 3 703 97 
z
M 1959 2075 
Q 2384 2075 2632 2365 
Q 2881 2656 2881 3163 
Q 2881 3666 2632 3958 
Q 2384 4250 1959 4250 
Q 1534 4250 1286 3958 
Q 1038 3666 1038 3163 
Q 1038 2656 1286 2365 
Q 1534 2075 1959 2075 
z
" transform="scale(0.015625)"/>
       </defs>
       <use xlink:href="#DejaVuSans-32"/>
       <use xlink:href="#DejaVuSans-30" x="63.623047"/>
       <use xlink:href="#DejaVuSans-30" x="127.246094"/>
       <use xlink:href="#DejaVuSans-33" x="190.869141"/>
       <use xlink:href="#DejaVuSans-2d" x="254.492188"/>
       <use xlink:href="#DejaVuSans-30" x="290.576172"/>
       <use xlink:href="#DejaVuSans-39" x="354.199219"/>
      </g>
     </g>
    </g>
    <g id="xtick_13">
     <g id="line2d_27">
      <g>
       <use xlink:href="#m188a68af76" x="464.470181" y="390.04" style="stroke: #000000; stroke-width: 0.8"/>
      </g>
     </g>
     <g id="text_19">
      <!-- 2003-11 -->
      <g transform="translate(443.578775 404.638438)scale(0.1 -0.1)">
       <use xlink:href="#DejaVuSans-32"/>
       <use xlink:href="#DejaVuSans-30" x="63.623047"/>
       <use xlink:href="#DejaVuSans-30" x="127.246094"/>
       <use xlink:href="#DejaVuSans-33" x="190.869141"/>
       <use xlink:href="#DejaVuSans-2d" x="254.492188"/>
       <use xlink:href="#DejaVuSans-31" x="290.576172"/>
       <use xlink:href="#DejaVuSans-31" x="354.199219"/>
      </g>
     </g>
    </g>
    <g id="xtick_14">
     <g id="line2d_28">
      <g>
       <use xlink:href="#m188a68af76" x="542.068066" y="390.04" style="stroke: #000000; stroke-width: 0.8"/>
      </g>
     </g>
     <g id="text_20">
      <!-- 2004-01 -->
      <g transform="translate(521.17666 404.638438)scale(0.1 -0.1)">
       <use xlink:href="#DejaVuSans-32"/>
       <use xlink:href="#DejaVuSans-30" x="63.623047"/>
       <use xlink:href="#DejaVuSans-30" x="127.246094"/>
       <use xlink:href="#DejaVuSans-34" x="190.869141"/>
       <use xlink:href="#DejaVuSans-2d" x="254.492188"/>
       <use xlink:href="#DejaVuSans-30" x="290.576172"/>
       <use xlink:href="#DejaVuSans-31" x="354.199219"/>
      </g>
     </g>
    </g>
    <g id="text_21">
     <!-- Time -->
     <g transform="translate(297.040816 418.316563)scale(0.1 -0.1)">
      <defs>
       <path id="DejaVuSans-54" d="M -19 4666 
L 3928 4666 
L 3928 4134 
L 2272 4134 
L 2272 0 
L 1638 0 
L 1638 4134 
L -19 4134 
L -19 4666 
z
" transform="scale(0.015625)"/>
       <path id="DejaVuSans-69" d="M 603 3500 
L 1178 3500 
L 1178 0 
L 603 0 
L 603 3500 
z
M 603 4863 
L 1178 4863 
L 1178 4134 
L 603 4134 
L 603 4863 
z
" transform="scale(0.015625)"/>
      </defs>
      <use xlink:href="#DejaVuSans-54"/>
      <use xlink:href="#DejaVuSans-69" x="57.958984"/>
      <use xlink:href="#DejaVuSans-6d" x="85.742188"/>
      <use xlink:href="#DejaVuSans-65" x="183.154297"/>
     </g>
    </g>
   </g>
   <g id="matplotlib.axis_4">
    <g id="ytick_9">
     <g id="line2d_29">
      <g>
       <use xlink:href="#m3a266c8f91" x="56" y="387.165573" style="stroke: #000000; stroke-width: 0.8"/>
      </g>
     </g>
     <g id="text_22">
      <!-- −6 -->
      <g transform="translate(34.257812 390.964792)scale(0.1 -0.1)">
       <defs>
        <path id="DejaVuSans-36" d="M 2113 2584 
Q 1688 2584 1439 2293 
Q 1191 2003 1191 1497 
Q 1191 994 1439 701 
Q 1688 409 2113 409 
Q 2538 409 2786 701 
Q 3034 994 3034 1497 
Q 3034 2003 2786 2293 
Q 2538 2584 2113 2584 
z
M 3366 4563 
L 3366 3988 
Q 3128 4100 2886 4159 
Q 2644 4219 2406 4219 
Q 1781 4219 1451 3797 
Q 1122 3375 1075 2522 
Q 1259 2794 1537 2939 
Q 1816 3084 2150 3084 
Q 2853 3084 3261 2657 
Q 3669 2231 3669 1497 
Q 3669 778 3244 343 
Q 2819 -91 2113 -91 
Q 1303 -91 875 529 
Q 447 1150 447 2328 
Q 447 3434 972 4092 
Q 1497 4750 2381 4750 
Q 2619 4750 2861 4703 
Q 3103 4656 3366 4563 
z
" transform="scale(0.015625)"/>
       </defs>
       <use xlink:href="#DejaVuSans-2212"/>
       <use xlink:href="#DejaVuSans-36" x="83.789062"/>
      </g>
     </g>
    </g>
    <g id="ytick_10">
     <g id="line2d_30">
      <g>
       <use xlink:href="#m3a266c8f91" x="56" y="360.552908" style="stroke: #000000; stroke-width: 0.8"/>
      </g>
     </g>
     <g id="text_23">
      <!-- −4 -->
      <g transform="translate(34.257812 364.352127)scale(0.1 -0.1)">
       <use xlink:href="#DejaVuSans-2212"/>
       <use xlink:href="#DejaVuSans-34" x="83.789062"/>
      </g>
     </g>
    </g>
    <g id="ytick_11">
     <g id="line2d_31">
      <g>
       <use xlink:href="#m3a266c8f91" x="56" y="333.940243" style="stroke: #000000; stroke-width: 0.8"/>
      </g>
     </g>
     <g id="text_24">
      <!-- −2 -->
      <g transform="translate(34.257812 337.739462)scale(0.1 -0.1)">
       <use xlink:href="#DejaVuSans-2212"/>
       <use xlink:href="#DejaVuSans-32" x="83.789062"/>
      </g>
     </g>
    </g>
    <g id="ytick_12">
     <g id="line2d_32">
      <g>
       <use xlink:href="#m3a266c8f91" x="56" y="307.327578" style="stroke: #000000; stroke-width: 0.8"/>
      </g>
     </g>
     <g id="text_25">
      <!-- 0 -->
      <g transform="translate(42.6375 311.126796)scale(0.1 -0.1)">
       <use xlink:href="#DejaVuSans-30"/>
      </g>
     </g>
    </g>
    <g id="text_26">
     <!-- DD % -->
     <g transform="translate(28.178125 360.754289)rotate(-90)scale(0.1 -0.1)">
      <defs>
       <path id="DejaVuSans-44" d="M 1259 4147 
L 1259 519 
L 2022 519 
Q 2988 519 3436 956 
Q 3884 1394 3884 2338 
Q 3884 3275 3436 3711 
Q 2988 4147 2022 4147 
L 1259 4147 
z
M 628 4666 
L 1925 4666 
Q 3281 4666 3915 4102 
Q 4550 3538 4550 2338 
Q 4550 1131 3912 565 
Q 3275 0 1925 0 
L 628 0 
L 628 4666 
z
" transform="scale(0.015625)"/>
      </defs>
      <use xlink:href="#DejaVuSans-44"/>
      <use xlink:href="#DejaVuSans-44" x="77.001953"/>
      <use xlink:href="#DejaVuSans-20" x="154.003906"/>
      <use xlink:href="#DejaVuSans-25" x="185.791016"/>
     </g>
    </g>
   </g>
   <g id="line2d_33">
    <path d="M 79.024946 307.327578 
L 85.385429 307.327578 
L 86.657525 318.339525 
L 87.929622 318.339525 
L 89.201718 317.954655 
L 93.018008 307.91937 
L 94.290104 307.327578 
L 95.562201 307.327578 
L 96.834297 311.08278 
L 98.106394 311.11097 
L 101.922683 307.327578 
L 103.19478 316.621578 
L 104.466876 313.78857 
L 105.738973 320.073613 
L 107.011069 334.748522 
L 110.827358 330.372055 
L 112.099455 362.150281 
L 113.371551 378.905216 
L 133.725095 378.905216 
L 137.541385 348.869966 
L 138.813481 343.302081 
L 140.085578 337.060483 
L 142.629771 360.31992 
L 146.44606 357.592729 
L 147.718156 361.749252 
L 148.990253 370.616115 
L 150.262349 372.695652 
L 151.534446 359.001878 
L 155.350735 351.650878 
L 157.894928 385.210463 
L 173.160086 385.210463 
L 174.432183 349.787133 
L 175.704279 345.629627 
L 176.976376 340.044148 
L 178.248472 332.185014 
L 182.064762 332.843195 
L 183.336858 339.07682 
L 184.608954 342.657776 
L 185.881051 350.395137 
L 187.153147 345.338971 
L 190.969437 368.648088 
L 192.241533 382.878578 
L 193.51363 371.632455 
L 194.785726 377.214448 
L 199.874112 377.214448 
L 201.146209 367.51877 
L 202.418305 381.580344 
L 203.690402 376.436999 
L 204.962498 386.101313 
L 208.778788 385.32506 
L 210.050884 378.996662 
L 211.322981 364.726321 
L 212.595077 359.266774 
L 218.95556 348.88632 
L 220.227656 344.070959 
L 221.499752 333.56086 
L 222.771849 327.504686 
L 226.588138 328.901629 
L 227.860235 307.327578 
L 229.132331 312.778992 
L 231.676524 307.327578 
L 236.76491 307.327578 
L 238.037007 319.91734 
L 239.309103 314.52255 
L 240.5812 325.103787 
L 244.397489 307.327578 
L 245.669586 311.224409 
L 246.941682 307.882297 
L 248.213779 320.31985 
L 249.485875 321.062766 
L 253.302165 326.136781 
L 254.574261 348.577811 
L 255.846358 339.232349 
L 257.118454 335.564455 
L 258.390551 332.524952 
L 262.20684 334.405412 
L 263.478936 343.364276 
L 264.751033 334.707324 
L 267.295226 333.594736 
L 271.111515 315.06005 
L 272.383612 328.571344 
L 273.655708 314.763903 
L 274.927805 307.327578 
L 285.104577 307.327578 
L 288.920866 318.414052 
L 290.192963 308.539715 
L 291.465059 307.327578 
L 292.737156 307.327578 
L 297.825541 312.628774 
L 299.097638 307.327578 
L 300.369734 327.371078 
L 301.641831 325.915424 
L 302.913927 326.189806 
L 306.730217 318.687318 
L 308.002313 315.044644 
L 309.27441 307.327578 
L 310.546506 307.327578 
L 311.818603 311.98133 
L 315.634892 307.327578 
L 318.179085 307.327578 
L 319.451182 312.679106 
L 320.723278 319.247163 
L 324.539568 314.978285 
L 325.811664 307.327578 
L 327.083761 307.327578 
L 328.355857 314.619702 
L 329.627954 316.565613 
L 333.444243 314.794108 
L 334.71634 310.85103 
L 335.988436 319.825174 
L 337.260532 310.293475 
L 338.532629 318.181986 
L 342.348918 313.13728 
L 343.621015 332.163539 
L 344.893111 335.442149 
L 346.165208 327.915027 
L 347.437304 327.567231 
L 351.253594 319.064254 
L 352.52569 316.661685 
L 353.797787 316.475718 
L 355.069883 309.958298 
L 356.34198 309.930226 
L 360.158269 310.598854 
L 361.430366 307.327578 
L 371.607138 307.327578 
L 372.879234 313.184176 
L 374.15133 307.327578 
L 377.96762 309.613285 
L 379.239716 315.615132 
L 380.511813 307.327578 
L 383.056006 307.327578 
L 386.872295 315.861616 
L 388.144392 307.327578 
L 390.688585 307.327578 
L 391.960681 313.925833 
L 395.776971 317.946804 
L 397.049067 307.327578 
L 398.321164 309.370589 
L 399.59326 324.818112 
L 400.865357 309.305054 
L 404.681646 307.327578 
L 405.953743 307.754572 
L 407.225839 307.327578 
L 409.770032 307.327578 
L 413.586321 321.706244 
L 414.858418 335.691068 
L 416.130514 330.338913 
L 417.402611 344.788005 
L 418.674707 344.620987 
L 422.490997 344.433449 
L 423.763093 344.883346 
L 433.939865 344.883346 
L 435.211962 333.547855 
L 436.484058 326.291683 
L 440.300348 321.668272 
L 441.572444 311.94821 
L 442.844541 307.327578 
L 444.116637 307.57096 
L 445.388734 310.211567 
L 449.205023 307.327578 
L 450.47712 307.327578 
L 451.749216 319.413693 
L 453.021312 337.147221 
L 454.293409 322.25105 
L 458.109698 315.776538 
L 459.381795 312.711004 
L 460.653891 307.327578 
L 461.925988 307.327578 
L 463.198084 310.181986 
L 467.014374 307.327578 
L 468.28647 307.327578 
L 469.558567 310.708816 
L 470.830663 309.206778 
L 472.10276 307.327578 
L 475.919049 307.327578 
L 477.191146 312.580027 
L 478.463242 319.422275 
L 479.735339 313.28529 
L 481.007435 313.27461 
L 484.823725 311.617298 
L 486.095821 325.618276 
L 487.367918 334.961301 
L 488.640014 331.859907 
L 489.91211 330.972595 
L 493.7284 334.411107 
L 495.000496 315.846642 
L 496.272593 310.934029 
L 497.544689 311.038947 
L 498.816786 313.905769 
L 502.633075 307.327578 
L 507.721461 307.327578 
L 511.537751 309.45294 
L 512.809847 307.327578 
L 514.081944 318.409842 
L 515.35404 327.082967 
L 516.626137 323.892673 
L 520.442426 318.392309 
L 521.714523 321.402493 
L 522.986619 325.940211 
L 524.258716 325.940211 
L 525.530812 307.463241 
L 529.347101 307.417552 
L 530.619198 312.392546 
L 538.251777 307.327578 
L 539.523873 307.327578 
L 539.523873 307.327578 
" clip-path="url(#p53fbf027e9)" style="fill: none; stroke: #0000ff; stroke-width: 1.5; stroke-linecap: square"/>
   </g>
   <g id="patch_9">
    <path d="M 56 390.04 
L 56 303.388891 
" style="fill: none; stroke: #000000; stroke-width: 0.8; stroke-linejoin: miter; stroke-linecap: square"/>
   </g>
   <g id="patch_10">
    <path d="M 562.54882 390.04 
L 562.54882 303.388891 
" style="fill: none; stroke: #000000; stroke-width: 0.8; stroke-linejoin: miter; stroke-linecap: square"/>
   </g>
   <g id="patch_11">
    <path d="M 56 390.04 
L 562.54882 390.04 
" style="fill: none; stroke: #000000; stroke-width: 0.8; stroke-linejoin: miter; stroke-linecap: square"/>
   </g>
   <g id="patch_12">
    <path d="M 56 303.388891 
L 562.54882 303.388891 
" style="fill: none; stroke: #000000; stroke-width: 0.8; stroke-linejoin: miter; stroke-linecap: square"/>
   </g>
  </g>
 </g>
 <defs>
  <clipPath id="p7b26780dd8">
   <rect x="56" y="26.88" width="506.54882" height="259.953327"/>
  </clipPath>
  <clipPath id="p53fbf027e9">
   <rect x="56" y="303.388891" width="506.54882" height="86.651109"/>
  </clipPath>
 </defs>
</svg>
