<?xml version="1.0" encoding="utf-8" standalone="no"?>
<!DOCTYPE svg PUBLIC "-//W3C//DTD SVG 1.1//EN"
  "http://www.w3.org/Graphics/SVG/1.1/DTD/svg11.dtd">
<svg xmlns:xlink="http://www.w3.org/1999/xlink" width="576pt" height="432pt" viewBox="0 0 576 432" xmlns="http://www.w3.org/2000/svg" version="1.1">
 <metadata>
  <rdf:RDF xmlns:dc="http://purl.org/dc/elements/1.1/" xmlns:cc="http://creativecommons.org/ns#" xmlns:rdf="http://www.w3.org/1999/02/22-rdf-syntax-ns#">
   <cc:Work>
    <dc:type rdf:resource="http://purl.org/dc/dcmitype/StillImage"/>
    <dc:date>2023-01-15T23:56:30.273669</dc:date>
    <dc:format>image/svg+xml</dc:format>
    <dc:creator>
     <cc:Agent>
      <dc:title>Matplotlib v3.5.0, https://matplotlib.org/</dc:title>
     </cc:Agent>
    </dc:creator>
   </cc:Work>
  </rdf:RDF>
 </metadata>
 <defs>
  <style type="text/css">*{stroke-linejoin: round; stroke-linecap: butt}</style>
 </defs>
 <g id="figure_1">
  <g id="patch_1">
   <path d="M 0 432 
L 576 432 
L 576 0 
L 0 0 
z
" style="fill: #ffffff"/>
  </g>
  <g id="axes_1">
   <g id="patch_2">
    <path d="M 46.55 288.132273 
L 560.229083 288.132273 
L 560.229083 26.88 
L 46.55 26.88 
z
" style="fill: #ffffff"/>
   </g>
   <g id="matplotlib.axis_1">
    <g id="xtick_1">
     <g id="line2d_1">
      <defs>
       <path id="m409bcd9917" d="M 0 0 
L 0 3.5 
" style="stroke: #000000; stroke-width: 0.8"/>
      </defs>
      <g>
       <use xlink:href="#m409bcd9917" x="72.471947" y="288.132273" style="stroke: #000000; stroke-width: 0.8"/>
      </g>
     </g>
    </g>
    <g id="xtick_2">
     <g id="line2d_2">
      <g>
       <use xlink:href="#m409bcd9917" x="148.372438" y="288.132273" style="stroke: #000000; stroke-width: 0.8"/>
      </g>
     </g>
    </g>
    <g id="xtick_3">
     <g id="line2d_3">
      <g>
       <use xlink:href="#m409bcd9917" x="226.845827" y="288.132273" style="stroke: #000000; stroke-width: 0.8"/>
      </g>
     </g>
    </g>
    <g id="xtick_4">
     <g id="line2d_4">
      <g>
       <use xlink:href="#m409bcd9917" x="305.319215" y="288.132273" style="stroke: #000000; stroke-width: 0.8"/>
      </g>
     </g>
    </g>
    <g id="xtick_5">
     <g id="line2d_5">
      <g>
       <use xlink:href="#m409bcd9917" x="385.079053" y="288.132273" style="stroke: #000000; stroke-width: 0.8"/>
      </g>
     </g>
    </g>
    <g id="xtick_6">
     <g id="line2d_6">
      <g>
       <use xlink:href="#m409bcd9917" x="463.552441" y="288.132273" style="stroke: #000000; stroke-width: 0.8"/>
      </g>
     </g>
    </g>
    <g id="xtick_7">
     <g id="line2d_7">
      <g>
       <use xlink:href="#m409bcd9917" x="542.02583" y="288.132273" style="stroke: #000000; stroke-width: 0.8"/>
      </g>
     </g>
    </g>
   </g>
   <g id="matplotlib.axis_2">
    <g id="ytick_1">
     <g id="line2d_8">
      <defs>
       <path id="m576c709f39" d="M 0 0 
L -3.5 0 
" style="stroke: #000000; stroke-width: 0.8"/>
      </defs>
      <g>
       <use xlink:href="#m576c709f39" x="46.55" y="259.259661" style="stroke: #000000; stroke-width: 0.8"/>
      </g>
     </g>
     <g id="text_1">
      <!-- 0 -->
      <g transform="translate(33.1875 263.058879)scale(0.1 -0.1)">
       <defs>
        <path id="DejaVuSans-30" d="M 2034 4250 
Q 1547 4250 1301 3770 
Q 1056 3291 1056 2328 
Q 1056 1369 1301 889 
Q 1547 409 2034 409 
Q 2525 409 2770 889 
Q 3016 1369 3016 2328 
Q 3016 3291 2770 3770 
Q 2525 4250 2034 4250 
z
M 2034 4750 
Q 2819 4750 3233 4129 
Q 3647 3509 3647 2328 
Q 3647 1150 3233 529 
Q 2819 -91 2034 -91 
Q 1250 -91 836 529 
Q 422 1150 422 2328 
Q 422 3509 836 4129 
Q 1250 4750 2034 4750 
z
" transform="scale(0.015625)"/>
       </defs>
       <use xlink:href="#DejaVuSans-30"/>
      </g>
     </g>
    </g>
    <g id="ytick_2">
     <g id="line2d_9">
      <g>
       <use xlink:href="#m576c709f39" x="46.55" y="220.569597" style="stroke: #000000; stroke-width: 0.8"/>
      </g>
     </g>
     <g id="text_2">
      <!-- 10 -->
      <g transform="translate(26.825 224.368816)scale(0.1 -0.1)">
       <defs>
        <path id="DejaVuSans-31" d="M 794 531 
L 1825 531 
L 1825 4091 
L 703 3866 
L 703 4441 
L 1819 4666 
L 2450 4666 
L 2450 531 
L 3481 531 
L 3481 0 
L 794 0 
L 794 531 
z
" transform="scale(0.015625)"/>
       </defs>
       <use xlink:href="#DejaVuSans-31"/>
       <use xlink:href="#DejaVuSans-30" x="63.623047"/>
      </g>
     </g>
    </g>
    <g id="ytick_3">
     <g id="line2d_10">
      <g>
       <use xlink:href="#m576c709f39" x="46.55" y="181.879533" style="stroke: #000000; stroke-width: 0.8"/>
      </g>
     </g>
     <g id="text_3">
      <!-- 20 -->
      <g transform="translate(26.825 185.678752)scale(0.1 -0.1)">
       <defs>
        <path id="DejaVuSans-32" d="M 1228 531 
L 3431 531 
L 3431 0 
L 469 0 
L 469 531 
Q 828 903 1448 1529 
Q 2069 2156 2228 2338 
Q 2531 2678 2651 2914 
Q 2772 3150 2772 3378 
Q 2772 3750 2511 3984 
Q 2250 4219 1831 4219 
Q 1534 4219 1204 4116 
Q 875 4013 500 3803 
L 500 4441 
Q 881 4594 1212 4672 
Q 1544 4750 1819 4750 
Q 2544 4750 2975 4387 
Q 3406 4025 3406 3419 
Q 3406 3131 3298 2873 
Q 3191 2616 2906 2266 
Q 2828 2175 2409 1742 
Q 1991 1309 1228 531 
z
" transform="scale(0.015625)"/>
       </defs>
       <use xlink:href="#DejaVuSans-32"/>
       <use xlink:href="#DejaVuSans-30" x="63.623047"/>
      </g>
     </g>
    </g>
    <g id="ytick_4">
     <g id="line2d_11">
      <g>
       <use xlink:href="#m576c709f39" x="46.55" y="143.18947" style="stroke: #000000; stroke-width: 0.8"/>
      </g>
     </g>
     <g id="text_4">
      <!-- 30 -->
      <g transform="translate(26.825 146.988689)scale(0.1 -0.1)">
       <defs>
        <path id="DejaVuSans-33" d="M 2597 2516 
Q 3050 2419 3304 2112 
Q 3559 1806 3559 1356 
Q 3559 666 3084 287 
Q 2609 -91 1734 -91 
Q 1441 -91 1130 -33 
Q 819 25 488 141 
L 488 750 
Q 750 597 1062 519 
Q 1375 441 1716 441 
Q 2309 441 2620 675 
Q 2931 909 2931 1356 
Q 2931 1769 2642 2001 
Q 2353 2234 1838 2234 
L 1294 2234 
L 1294 2753 
L 1863 2753 
Q 2328 2753 2575 2939 
Q 2822 3125 2822 3475 
Q 2822 3834 2567 4026 
Q 2313 4219 1838 4219 
Q 1578 4219 1281 4162 
Q 984 4106 628 3988 
L 628 4550 
Q 988 4650 1302 4700 
Q 1616 4750 1894 4750 
Q 2613 4750 3031 4423 
Q 3450 4097 3450 3541 
Q 3450 3153 3228 2886 
Q 3006 2619 2597 2516 
z
" transform="scale(0.015625)"/>
       </defs>
       <use xlink:href="#DejaVuSans-33"/>
       <use xlink:href="#DejaVuSans-30" x="63.623047"/>
      </g>
     </g>
    </g>
    <g id="ytick_5">
     <g id="line2d_12">
      <g>
       <use xlink:href="#m576c709f39" x="46.55" y="104.499406" style="stroke: #000000; stroke-width: 0.8"/>
      </g>
     </g>
     <g id="text_5">
      <!-- 40 -->
      <g transform="translate(26.825 108.298625)scale(0.1 -0.1)">
       <defs>
        <path id="DejaVuSans-34" d="M 2419 4116 
L 825 1625 
L 2419 1625 
L 2419 4116 
z
M 2253 4666 
L 3047 4666 
L 3047 1625 
L 3713 1625 
L 3713 1100 
L 3047 1100 
L 3047 0 
L 2419 0 
L 2419 1100 
L 313 1100 
L 313 1709 
L 2253 4666 
z
" transform="scale(0.015625)"/>
       </defs>
       <use xlink:href="#DejaVuSans-34"/>
       <use xlink:href="#DejaVuSans-30" x="63.623047"/>
      </g>
     </g>
    </g>
    <g id="ytick_6">
     <g id="line2d_13">
      <g>
       <use xlink:href="#m576c709f39" x="46.55" y="65.809343" style="stroke: #000000; stroke-width: 0.8"/>
      </g>
     </g>
     <g id="text_6">
      <!-- 50 -->
      <g transform="translate(26.825 69.608561)scale(0.1 -0.1)">
       <defs>
        <path id="DejaVuSans-35" d="M 691 4666 
L 3169 4666 
L 3169 4134 
L 1269 4134 
L 1269 2991 
Q 1406 3038 1543 3061 
Q 1681 3084 1819 3084 
Q 2600 3084 3056 2656 
Q 3513 2228 3513 1497 
Q 3513 744 3044 326 
Q 2575 -91 1722 -91 
Q 1428 -91 1123 -41 
Q 819 9 494 109 
L 494 744 
Q 775 591 1075 516 
Q 1375 441 1709 441 
Q 2250 441 2565 725 
Q 2881 1009 2881 1497 
Q 2881 1984 2565 2268 
Q 2250 2553 1709 2553 
Q 1456 2553 1204 2497 
Q 953 2441 691 2322 
L 691 4666 
z
" transform="scale(0.015625)"/>
       </defs>
       <use xlink:href="#DejaVuSans-35"/>
       <use xlink:href="#DejaVuSans-30" x="63.623047"/>
      </g>
     </g>
    </g>
    <g id="ytick_7">
     <g id="line2d_14">
      <g>
       <use xlink:href="#m576c709f39" x="46.55" y="27.119279" style="stroke: #000000; stroke-width: 0.8"/>
      </g>
     </g>
     <g id="text_7">
      <!-- 60 -->
      <g transform="translate(26.825 30.918498)scale(0.1 -0.1)">
       <defs>
        <path id="DejaVuSans-36" d="M 2113 2584 
Q 1688 2584 1439 2293 
Q 1191 2003 1191 1497 
Q 1191 994 1439 701 
Q 1688 409 2113 409 
Q 2538 409 2786 701 
Q 3034 994 3034 1497 
Q 3034 2003 2786 2293 
Q 2538 2584 2113 2584 
z
M 3366 4563 
L 3366 3988 
Q 3128 4100 2886 4159 
Q 2644 4219 2406 4219 
Q 1781 4219 1451 3797 
Q 1122 3375 1075 2522 
Q 1259 2794 1537 2939 
Q 1816 3084 2150 3084 
Q 2853 3084 3261 2657 
Q 3669 2231 3669 1497 
Q 3669 778 3244 343 
Q 2819 -91 2113 -91 
Q 1303 -91 875 529 
Q 447 1150 447 2328 
Q 447 3434 972 4092 
Q 1497 4750 2381 4750 
Q 2619 4750 2861 4703 
Q 3103 4656 3366 4563 
z
" transform="scale(0.015625)"/>
       </defs>
       <use xlink:href="#DejaVuSans-36"/>
       <use xlink:href="#DejaVuSans-30" x="63.623047"/>
      </g>
     </g>
    </g>
    <g id="text_8">
     <!-- Return [%] -->
     <g transform="translate(20.745313 184.338949)rotate(-90)scale(0.1 -0.1)">
      <defs>
       <path id="DejaVuSans-52" d="M 2841 2188 
Q 3044 2119 3236 1894 
Q 3428 1669 3622 1275 
L 4263 0 
L 3584 0 
L 2988 1197 
Q 2756 1666 2539 1819 
Q 2322 1972 1947 1972 
L 1259 1972 
L 1259 0 
L 628 0 
L 628 4666 
L 2053 4666 
Q 2853 4666 3247 4331 
Q 3641 3997 3641 3322 
Q 3641 2881 3436 2590 
Q 3231 2300 2841 2188 
z
M 1259 4147 
L 1259 2491 
L 2053 2491 
Q 2509 2491 2742 2702 
Q 2975 2913 2975 3322 
Q 2975 3731 2742 3939 
Q 2509 4147 2053 4147 
L 1259 4147 
z
" transform="scale(0.015625)"/>
       <path id="DejaVuSans-65" d="M 3597 1894 
L 3597 1613 
L 953 1613 
Q 991 1019 1311 708 
Q 1631 397 2203 397 
Q 2534 397 2845 478 
Q 3156 559 3463 722 
L 3463 178 
Q 3153 47 2828 -22 
Q 2503 -91 2169 -91 
Q 1331 -91 842 396 
Q 353 884 353 1716 
Q 353 2575 817 3079 
Q 1281 3584 2069 3584 
Q 2775 3584 3186 3129 
Q 3597 2675 3597 1894 
z
M 3022 2063 
Q 3016 2534 2758 2815 
Q 2500 3097 2075 3097 
Q 1594 3097 1305 2825 
Q 1016 2553 972 2059 
L 3022 2063 
z
" transform="scale(0.015625)"/>
       <path id="DejaVuSans-74" d="M 1172 4494 
L 1172 3500 
L 2356 3500 
L 2356 3053 
L 1172 3053 
L 1172 1153 
Q 1172 725 1289 603 
Q 1406 481 1766 481 
L 2356 481 
L 2356 0 
L 1766 0 
Q 1100 0 847 248 
Q 594 497 594 1153 
L 594 3053 
L 172 3053 
L 172 3500 
L 594 3500 
L 594 4494 
L 1172 4494 
z
" transform="scale(0.015625)"/>
       <path id="DejaVuSans-75" d="M 544 1381 
L 544 3500 
L 1119 3500 
L 1119 1403 
Q 1119 906 1312 657 
Q 1506 409 1894 409 
Q 2359 409 2629 706 
Q 2900 1003 2900 1516 
L 2900 3500 
L 3475 3500 
L 3475 0 
L 2900 0 
L 2900 538 
Q 2691 219 2414 64 
Q 2138 -91 1772 -91 
Q 1169 -91 856 284 
Q 544 659 544 1381 
z
M 1991 3584 
L 1991 3584 
z
" transform="scale(0.015625)"/>
       <path id="DejaVuSans-72" d="M 2631 2963 
Q 2534 3019 2420 3045 
Q 2306 3072 2169 3072 
Q 1681 3072 1420 2755 
Q 1159 2438 1159 1844 
L 1159 0 
L 581 0 
L 581 3500 
L 1159 3500 
L 1159 2956 
Q 1341 3275 1631 3429 
Q 1922 3584 2338 3584 
Q 2397 3584 2469 3576 
Q 2541 3569 2628 3553 
L 2631 2963 
z
" transform="scale(0.015625)"/>
       <path id="DejaVuSans-6e" d="M 3513 2113 
L 3513 0 
L 2938 0 
L 2938 2094 
Q 2938 2591 2744 2837 
Q 2550 3084 2163 3084 
Q 1697 3084 1428 2787 
Q 1159 2491 1159 1978 
L 1159 0 
L 581 0 
L 581 3500 
L 1159 3500 
L 1159 2956 
Q 1366 3272 1645 3428 
Q 1925 3584 2291 3584 
Q 2894 3584 3203 3211 
Q 3513 2838 3513 2113 
z
" transform="scale(0.015625)"/>
       <path id="DejaVuSans-20" transform="scale(0.015625)"/>
       <path id="DejaVuSans-5b" d="M 550 4863 
L 1875 4863 
L 1875 4416 
L 1125 4416 
L 1125 -397 
L 1875 -397 
L 1875 -844 
L 550 -844 
L 550 4863 
z
" transform="scale(0.015625)"/>
       <path id="DejaVuSans-25" d="M 4653 2053 
Q 4381 2053 4226 1822 
Q 4072 1591 4072 1178 
Q 4072 772 4226 539 
Q 4381 306 4653 306 
Q 4919 306 5073 539 
Q 5228 772 5228 1178 
Q 5228 1588 5073 1820 
Q 4919 2053 4653 2053 
z
M 4653 2450 
Q 5147 2450 5437 2106 
Q 5728 1763 5728 1178 
Q 5728 594 5436 251 
Q 5144 -91 4653 -91 
Q 4153 -91 3862 251 
Q 3572 594 3572 1178 
Q 3572 1766 3864 2108 
Q 4156 2450 4653 2450 
z
M 1428 4353 
Q 1159 4353 1004 4120 
Q 850 3888 850 3481 
Q 850 3069 1003 2837 
Q 1156 2606 1428 2606 
Q 1700 2606 1854 2837 
Q 2009 3069 2009 3481 
Q 2009 3884 1853 4118 
Q 1697 4353 1428 4353 
z
M 4250 4750 
L 4750 4750 
L 1831 -91 
L 1331 -91 
L 4250 4750 
z
M 1428 4750 
Q 1922 4750 2215 4408 
Q 2509 4066 2509 3481 
Q 2509 2891 2217 2550 
Q 1925 2209 1428 2209 
Q 931 2209 642 2551 
Q 353 2894 353 3481 
Q 353 4063 643 4406 
Q 934 4750 1428 4750 
z
" transform="scale(0.015625)"/>
       <path id="DejaVuSans-5d" d="M 1947 4863 
L 1947 -844 
L 622 -844 
L 622 -397 
L 1369 -397 
L 1369 4416 
L 622 4416 
L 622 4863 
L 1947 4863 
z
" transform="scale(0.015625)"/>
      </defs>
      <use xlink:href="#DejaVuSans-52"/>
      <use xlink:href="#DejaVuSans-65" x="64.982422"/>
      <use xlink:href="#DejaVuSans-74" x="126.505859"/>
      <use xlink:href="#DejaVuSans-75" x="165.714844"/>
      <use xlink:href="#DejaVuSans-72" x="229.09375"/>
      <use xlink:href="#DejaVuSans-6e" x="268.457031"/>
      <use xlink:href="#DejaVuSans-20" x="331.835938"/>
      <use xlink:href="#DejaVuSans-5b" x="363.623047"/>
      <use xlink:href="#DejaVuSans-25" x="402.636719"/>
      <use xlink:href="#DejaVuSans-5d" x="497.65625"/>
     </g>
    </g>
   </g>
   <g id="line2d_15">
    <path d="M 69.899049 264.900125 
L 76.331294 260.157007 
L 77.617743 258.670777 
L 80.190641 259.251649 
L 81.47709 256.199067 
L 85.336437 254.300218 
L 86.622886 257.757406 
L 87.909335 255.590154 
L 89.195784 252.970222 
L 90.482233 257.316745 
L 94.34158 255.954701 
L 95.628029 255.173528 
L 96.914478 262.572633 
L 98.200927 263.978743 
L 99.487376 265.164522 
L 103.346723 266.566626 
L 104.633172 268.417404 
L 105.919621 266.911143 
L 107.20607 270.708843 
L 108.492519 264.102929 
L 112.351866 258.470476 
L 113.638315 256.856053 
L 114.924764 257.577136 
L 116.211213 266.141989 
L 117.497662 271.241642 
L 121.357009 270.228121 
L 122.643458 267.672286 
L 123.929907 270.776945 
L 125.216356 268.128971 
L 126.502805 273.060372 
L 130.362152 276.257169 
L 131.648601 271.874592 
L 132.93505 268.116953 
L 134.221499 266.802981 
L 135.507948 262.676789 
L 139.367295 263.946695 
L 140.653744 268.773939 
L 141.940193 267.86858 
L 143.226642 269.390865 
L 144.513091 266.634729 
L 148.372438 259.027312 
L 149.658887 256.908132 
L 150.945336 253.094408 
L 152.231785 251.83652 
L 153.518234 246.33226 
L 157.377581 244.201062 
L 158.66403 245.358799 
L 159.950479 240.33526 
L 161.236928 241.981731 
L 162.523377 238.288188 
L 166.382724 240.146978 
L 167.669173 237.527046 
L 168.955622 235.311721 
L 170.242071 238.272164 
L 171.52852 237.442919 
L 175.387867 236.978222 
L 176.674316 233.488986 
L 177.960765 234.710819 
L 179.247214 232.203056 
L 180.533663 234.574615 
L 184.39301 234.863048 
L 185.679459 236.429398 
L 186.965908 237.114426 
L 188.252357 230.764897 
L 194.684602 227.131445 
L 195.971051 228.42138 
L 197.2575 230.845018 
L 198.543949 227.700298 
L 202.403296 226.22208 
L 203.689745 226.931144 
L 204.976194 224.823982 
L 206.262643 224.227086 
L 207.549092 225.432896 
L 211.408439 228.317224 
L 212.694888 223.389829 
L 213.981337 228.541561 
L 215.267786 230.20005 
L 216.554235 218.790928 
L 220.413582 218.358278 
L 221.700031 228.405356 
L 222.98648 228.385326 
L 224.272929 220.813964 
L 225.559378 223.974707 
L 229.418725 221.747365 
L 230.705174 234.542567 
L 231.991623 245.278679 
L 233.278072 254.672777 
L 234.564521 267.764424 
L 238.423867 243.419889 
L 239.710316 248.347284 
L 240.996765 241.452937 
L 243.569663 251.604172 
L 247.42901 248.932162 
L 248.715459 245.394853 
L 250.001908 257.953701 
L 251.288357 266.418404 
L 252.574806 264.078893 
L 256.434153 264.171031 
L 257.720602 273.008294 
L 259.007051 262.764921 
L 260.2935 254.151995 
L 266.725745 253.070372 
L 268.012194 249.65725 
L 269.298643 243.183535 
L 270.585092 250.182038 
L 274.444439 254.520548 
L 275.730888 256.775933 
L 277.017337 246.824999 
L 278.303786 238.452434 
L 279.590235 239.033306 
L 283.449582 232.499501 
L 284.736031 227.415871 
L 286.02248 227.239607 
L 287.308929 226.927138 
L 288.595378 223.694286 
L 292.454725 221.318721 
L 293.741174 221.771401 
L 295.027623 226.462441 
L 296.314072 236.974216 
L 301.459868 235.187535 
L 302.746317 247.994755 
L 304.032766 243.183535 
L 305.319215 252.954198 
L 306.605664 252.24914 
L 310.465011 253.194559 
L 311.75146 241.789442 
L 313.037909 237.374817 
L 314.324358 240.287188 
L 315.610807 234.294194 
L 319.470154 233.468956 
L 320.756603 221.082367 
L 322.043052 220.024779 
L 323.329501 223.317721 
L 324.61595 231.662244 
L 328.475297 232.447423 
L 329.761746 234.598651 
L 331.048195 229.198547 
L 332.334644 219.371799 
L 333.621093 222.416369 
L 337.48044 221.747365 
L 338.766889 221.807455 
L 340.053338 225.192535 
L 342.626236 226.626687 
L 346.485583 215.670244 
L 347.772032 216.24711 
L 349.058481 217.004246 
L 350.34493 215.754371 
L 351.631379 219.43189 
L 355.490726 216.102894 
L 356.777175 220.193032 
L 358.063624 231.025288 
L 359.350073 233.048324 
L 360.636522 230.957186 
L 364.495869 227.095391 
L 365.782318 222.668747 
L 367.068767 222.644711 
L 368.355216 229.366799 
L 369.641665 237.294697 
L 373.501012 236.834006 
L 374.787461 243.419889 
L 376.07391 247.289697 
L 377.360359 243.091396 
L 378.646808 237.991743 
L 382.506155 242.145978 
L 383.792604 240.872066 
L 385.079053 225.825485 
L 386.365502 228.297194 
L 387.651951 226.334248 
L 391.511298 224.515519 
L 392.797747 226.069851 
L 394.084196 221.683268 
L 395.370645 218.702795 
L 396.657094 217.961683 
L 400.516441 213.222571 
L 401.80289 212.513507 
L 404.375788 214.236092 
L 405.662237 212.717814 
L 409.521584 208.507495 
L 410.808033 208.138942 
L 412.094482 211.463932 
L 413.380931 215.886569 
L 414.66738 207.265631 
L 418.526727 211.011252 
L 419.813176 209.196529 
L 421.099625 211.471944 
L 422.386074 210.422369 
L 423.672523 212.561579 
L 427.53187 218.021773 
L 428.818319 209.781407 
L 430.104768 209.873545 
L 431.391217 211.195529 
L 432.677666 211.303691 
L 436.537013 208.567585 
L 437.823462 209.549058 
L 439.109911 203.864527 
L 440.39636 206.127924 
L 441.682809 207.694275 
L 445.542156 206.580603 
L 446.828605 207.317709 
L 448.115054 205.947653 
L 449.401503 198.836982 
L 450.687952 201.508992 
L 454.547299 201.34074 
L 455.833748 202.903084 
L 457.120197 203.952659 
L 458.406646 208.844 
L 459.693094 209.777401 
L 463.552441 208.827976 
L 464.83889 206.86503 
L 466.125339 209.717311 
L 467.411788 201.745347 
L 468.698237 206.023768 
L 472.557584 203.371788 
L 473.844033 200.122912 
L 475.130482 202.959168 
L 476.416931 204.249104 
L 477.70338 207.682257 
L 481.562727 203.880551 
L 482.849176 211.940647 
L 484.135625 210.895078 
L 485.422074 202.96718 
L 486.708523 201.272637 
L 490.56787 202.875042 
L 491.854319 209.981707 
L 494.427217 201.028271 
L 495.713666 201.448902 
L 499.573013 203.756365 
L 500.859462 202.674742 
L 502.145911 191.770377 
L 503.43236 187.26762 
L 504.718809 185.645185 
L 508.578156 187.696263 
L 509.864605 185.877533 
L 511.151054 187.219547 
L 512.437503 192.070828 
L 513.723952 189.811437 
L 517.583299 187.011235 
L 518.869748 183.129409 
L 520.156197 182.905073 
L 521.442646 183.926606 
L 522.729095 184.215038 
L 526.588442 183.790401 
L 527.874891 179.059301 
L 530.447789 181.242578 
L 535.593585 181.35074 
L 536.880034 181.543028 
L 536.880034 181.543028 
" clip-path="url(#p8658901c48)" style="fill: none; stroke: #008000; stroke-width: 1.5; stroke-linecap: square"/>
   </g>
   <g id="line2d_16">
    <path d="M 69.899049 259.259661 
L 76.331294 259.565557 
L 77.617743 253.275112 
L 80.190641 249.512366 
L 81.47709 252.027066 
L 85.336437 246.137403 
L 86.622886 246.436137 
L 87.909335 251.420945 
L 89.195784 245.806935 
L 90.482233 241.451683 
L 94.34158 241.376301 
L 95.628029 239.864982 
L 96.914478 236.996505 
L 98.200927 241.623517 
L 99.487376 243.290169 
L 103.346723 250.29637 
L 104.633172 248.55078 
L 105.919621 252.887656 
L 107.20607 248.31652 
L 108.492519 249.450884 
L 112.351866 249.108656 
L 113.638315 243.475224 
L 114.924764 241.202359 
L 116.211213 241.06156 
L 117.497662 246.406029 
L 121.357009 245.974639 
L 122.643458 254.919735 
L 123.929907 250.911449 
L 125.216356 252.327586 
L 126.502805 250.573283 
L 130.362152 253.036129 
L 131.648601 253.036129 
L 132.93505 253.549917 
L 134.221499 250.211125 
L 135.507948 251.686001 
L 139.367295 245.506164 
L 140.653744 246.525139 
L 141.940193 248.209125 
L 143.226642 248.188845 
L 144.513091 249.193513 
L 148.372438 247.661611 
L 150.945336 238.114701 
L 152.231785 235.491018 
L 153.518234 233.233354 
L 157.377581 234.552964 
L 158.66403 230.869055 
L 159.950479 230.174421 
L 161.236928 226.853456 
L 162.523377 227.74566 
L 166.382724 223.941937 
L 167.669173 222.141488 
L 168.955622 221.289427 
L 170.242071 221.83941 
L 171.52852 221.774273 
L 175.387867 220.504887 
L 176.674316 218.341295 
L 177.960765 217.934704 
L 179.247214 219.076571 
L 180.533663 219.011226 
L 184.39301 215.507507 
L 185.679459 213.35102 
L 186.965908 212.440552 
L 188.252357 210.95701 
L 194.684602 207.281522 
L 195.971051 207.321162 
L 197.2575 209.327936 
L 198.543949 207.312027 
L 202.403296 208.732431 
L 203.689745 208.698478 
L 204.976194 210.783673 
L 206.262643 205.753505 
L 207.549092 206.675868 
L 211.408439 207.647417 
L 212.694888 206.467119 
L 213.981337 203.152238 
L 215.267786 204.841741 
L 216.554235 210.110251 
L 220.413582 203.864205 
L 221.700031 199.307053 
L 259.007051 199.307053 
L 260.2935 188.167282 
L 261.579949 188.167282 
L 265.439296 185.830753 
L 268.012194 185.830753 
L 269.298643 176.305196 
L 270.585092 174.415022 
L 274.444439 188.652395 
L 275.730888 185.622408 
L 277.017337 188.718104 
L 278.303786 180.917879 
L 279.590235 179.126161 
L 284.736031 175.018533 
L 286.02248 170.908699 
L 287.308929 172.626528 
L 288.595378 169.549841 
L 292.454725 162.127533 
L 293.741174 165.547332 
L 295.027623 166.308408 
L 296.314072 166.476909 
L 301.459868 175.038094 
L 302.746317 181.426035 
L 323.329501 181.426035 
L 324.61595 181.922412 
L 328.475297 181.922412 
L 329.761746 182.458696 
L 331.048195 180.751242 
L 332.334644 178.677563 
L 333.621093 175.665138 
L 337.48044 173.723131 
L 338.766889 172.107563 
L 340.053338 172.334549 
L 341.339787 171.87608 
L 342.626236 173.818617 
L 346.485583 173.210302 
L 347.772032 171.191711 
L 349.058481 170.058656 
L 350.34493 170.235557 
L 351.631379 167.600167 
L 355.490726 167.370715 
L 356.777175 165.876129 
L 358.063624 165.894332 
L 359.350073 174.567079 
L 360.636522 172.738251 
L 364.495869 172.76735 
L 365.782318 171.454233 
L 367.068767 167.365552 
L 369.641665 167.322927 
L 373.501012 170.236794 
L 374.787461 171.866206 
L 385.079053 171.866206 
L 386.365502 163.843516 
L 387.651951 163.843516 
L 391.511298 159.62384 
L 392.797747 157.171989 
L 394.084196 161.00019 
L 396.657094 149.079373 
L 400.516441 144.099923 
L 401.80289 134.396092 
L 403.089339 129.474767 
L 404.375788 130.56812 
L 405.662237 125.86407 
L 409.521584 130.374835 
L 410.808033 119.746968 
L 412.094482 125.074799 
L 413.380931 120.143437 
L 414.66738 126.613575 
L 418.526727 122.309664 
L 419.813176 116.685523 
L 421.099625 99.482698 
L 422.386074 97.171606 
L 423.672523 97.528024 
L 427.53187 92.53098 
L 428.818319 98.018908 
L 430.104768 100.193325 
L 431.391217 95.045064 
L 432.677666 97.765229 
L 436.537013 92.855863 
L 437.823462 95.527826 
L 439.109911 93.615629 
L 440.39636 84.201897 
L 441.682809 79.437804 
L 445.542156 82.791881 
L 446.828605 80.239864 
L 448.115054 84.284432 
L 449.401503 83.889432 
L 450.687952 79.642925 
L 454.547299 77.85745 
L 455.833748 88.226926 
L 457.120197 84.547415 
L 458.406646 87.070858 
L 459.693094 93.564549 
L 463.552441 84.718164 
L 464.83889 83.023205 
L 466.125339 82.111751 
L 467.411788 82.923177 
L 468.698237 77.077323 
L 472.557584 77.491351 
L 473.844033 78.261011 
L 475.130482 80.123107 
L 476.416931 84.393278 
L 477.70338 87.673346 
L 481.562727 91.95521 
L 482.849176 93.212711 
L 484.135625 95.723098 
L 485.422074 92.429058 
L 486.708523 87.705274 
L 490.56787 79.780402 
L 491.854319 81.15872 
L 493.140768 88.736443 
L 494.427217 83.861818 
L 495.713666 82.00713 
L 499.573013 80.996087 
L 500.859462 81.797119 
L 502.145911 80.154443 
L 503.43236 71.868377 
L 504.718809 69.414623 
L 508.578156 67.208379 
L 509.864605 64.64575 
L 511.151054 64.02092 
L 512.437503 63.985302 
L 513.723952 69.339557 
L 517.583299 66.125975 
L 518.869748 61.144031 
L 520.156197 57.731952 
L 521.442646 56.758984 
L 522.729095 55.990675 
L 526.588442 52.629048 
L 527.874891 49.501315 
L 529.16134 45.51224 
L 530.447789 42.088891 
L 535.593585 42.616929 
L 536.880034 38.755103 
L 536.880034 38.755103 
" clip-path="url(#p8658901c48)" style="fill: none; stroke: #0000ff; stroke-width: 1.5; stroke-linecap: square"/>
   </g>
   <g id="line2d_17">
    <path d="M 69.899049 259.259661 
L 76.331294 259.259661 
L 77.617743 253.275112 
L 80.190641 249.512366 
L 81.47709 249.512366 
L 85.336437 246.137403 
L 87.909335 246.137403 
L 89.195784 245.806935 
L 90.482233 241.451683 
L 94.34158 241.376301 
L 95.628029 239.864982 
L 96.914478 236.996505 
L 150.945336 236.996505 
L 152.231785 235.491018 
L 153.518234 233.233354 
L 157.377581 233.233354 
L 158.66403 230.869055 
L 159.950479 230.174421 
L 161.236928 226.853456 
L 162.523377 226.853456 
L 166.382724 223.941937 
L 167.669173 222.141488 
L 168.955622 221.289427 
L 171.52852 221.289427 
L 175.387867 220.504887 
L 176.674316 218.341295 
L 177.960765 217.934704 
L 180.533663 217.934704 
L 184.39301 215.507507 
L 185.679459 213.35102 
L 186.965908 212.440552 
L 188.252357 210.95701 
L 194.684602 207.281522 
L 204.976194 207.281522 
L 206.262643 205.753505 
L 212.694888 205.753505 
L 213.981337 203.152238 
L 220.413582 203.152238 
L 221.700031 199.307053 
L 259.007051 199.307053 
L 260.2935 188.167282 
L 261.579949 188.167282 
L 265.439296 185.830753 
L 268.012194 185.830753 
L 269.298643 176.305196 
L 270.585092 174.415022 
L 284.736031 174.415022 
L 286.02248 170.908699 
L 287.308929 170.908699 
L 288.595378 169.549841 
L 292.454725 162.127533 
L 387.651951 162.127533 
L 391.511298 159.62384 
L 392.797747 157.171989 
L 394.084196 157.171989 
L 395.370645 155.047029 
L 396.657094 149.079373 
L 400.516441 144.099923 
L 401.80289 134.396092 
L 403.089339 129.474767 
L 404.375788 129.474767 
L 405.662237 125.86407 
L 409.521584 125.86407 
L 410.808033 119.746968 
L 418.526727 119.746968 
L 419.813176 116.685523 
L 421.099625 99.482698 
L 422.386074 97.171606 
L 423.672523 97.171606 
L 427.53187 92.53098 
L 439.109911 92.53098 
L 440.39636 84.201897 
L 441.682809 79.437804 
L 450.687952 79.437804 
L 454.547299 77.85745 
L 467.411788 77.85745 
L 468.698237 77.077323 
L 502.145911 77.077323 
L 503.43236 71.868377 
L 504.718809 69.414623 
L 508.578156 67.208379 
L 509.864605 64.64575 
L 511.151054 64.02092 
L 513.723952 63.985302 
L 517.583299 63.985302 
L 518.869748 61.144031 
L 520.156197 57.731952 
L 521.442646 56.758984 
L 522.729095 55.990675 
L 526.588442 52.629048 
L 527.874891 49.501315 
L 529.16134 45.51224 
L 530.447789 42.088891 
L 535.593585 42.088891 
L 536.880034 38.755103 
L 536.880034 38.755103 
" clip-path="url(#p8658901c48)" style="fill: none; stroke: #ff0000; stroke-width: 1.5; stroke-linecap: square"/>
   </g>
   <g id="patch_3">
    <path d="M 46.55 288.132273 
L 46.55 26.88 
" style="fill: none; stroke: #000000; stroke-width: 0.8; stroke-linejoin: miter; stroke-linecap: square"/>
   </g>
   <g id="patch_4">
    <path d="M 560.229083 288.132273 
L 560.229083 26.88 
" style="fill: none; stroke: #000000; stroke-width: 0.8; stroke-linejoin: miter; stroke-linecap: square"/>
   </g>
   <g id="patch_5">
    <path d="M 46.55 288.132273 
L 560.229083 288.132273 
" style="fill: none; stroke: #000000; stroke-width: 0.8; stroke-linejoin: miter; stroke-linecap: square"/>
   </g>
   <g id="patch_6">
    <path d="M 46.55 26.88 
L 560.229083 26.88 
" style="fill: none; stroke: #000000; stroke-width: 0.8; stroke-linejoin: miter; stroke-linecap: square"/>
   </g>
   <g id="text_9">
    <!-- Performance of AVAN-strategy year 2010 -->
    <g transform="translate(180.076417 20.88)scale(0.12 -0.12)">
     <defs>
      <path id="DejaVuSans-50" d="M 1259 4147 
L 1259 2394 
L 2053 2394 
Q 2494 2394 2734 2622 
Q 2975 2850 2975 3272 
Q 2975 3691 2734 3919 
Q 2494 4147 2053 4147 
L 1259 4147 
z
M 628 4666 
L 2053 4666 
Q 2838 4666 3239 4311 
Q 3641 3956 3641 3272 
Q 3641 2581 3239 2228 
Q 2838 1875 2053 1875 
L 1259 1875 
L 1259 0 
L 628 0 
L 628 4666 
z
" transform="scale(0.015625)"/>
      <path id="DejaVuSans-66" d="M 2375 4863 
L 2375 4384 
L 1825 4384 
Q 1516 4384 1395 4259 
Q 1275 4134 1275 3809 
L 1275 3500 
L 2222 3500 
L 2222 3053 
L 1275 3053 
L 1275 0 
L 697 0 
L 697 3053 
L 147 3053 
L 147 3500 
L 697 3500 
L 697 3744 
Q 697 4328 969 4595 
Q 1241 4863 1831 4863 
L 2375 4863 
z
" transform="scale(0.015625)"/>
      <path id="DejaVuSans-6f" d="M 1959 3097 
Q 1497 3097 1228 2736 
Q 959 2375 959 1747 
Q 959 1119 1226 758 
Q 1494 397 1959 397 
Q 2419 397 2687 759 
Q 2956 1122 2956 1747 
Q 2956 2369 2687 2733 
Q 2419 3097 1959 3097 
z
M 1959 3584 
Q 2709 3584 3137 3096 
Q 3566 2609 3566 1747 
Q 3566 888 3137 398 
Q 2709 -91 1959 -91 
Q 1206 -91 779 398 
Q 353 888 353 1747 
Q 353 2609 779 3096 
Q 1206 3584 1959 3584 
z
" transform="scale(0.015625)"/>
      <path id="DejaVuSans-6d" d="M 3328 2828 
Q 3544 3216 3844 3400 
Q 4144 3584 4550 3584 
Q 5097 3584 5394 3201 
Q 5691 2819 5691 2113 
L 5691 0 
L 5113 0 
L 5113 2094 
Q 5113 2597 4934 2840 
Q 4756 3084 4391 3084 
Q 3944 3084 3684 2787 
Q 3425 2491 3425 1978 
L 3425 0 
L 2847 0 
L 2847 2094 
Q 2847 2600 2669 2842 
Q 2491 3084 2119 3084 
Q 1678 3084 1418 2786 
Q 1159 2488 1159 1978 
L 1159 0 
L 581 0 
L 581 3500 
L 1159 3500 
L 1159 2956 
Q 1356 3278 1631 3431 
Q 1906 3584 2284 3584 
Q 2666 3584 2933 3390 
Q 3200 3197 3328 2828 
z
" transform="scale(0.015625)"/>
      <path id="DejaVuSans-61" d="M 2194 1759 
Q 1497 1759 1228 1600 
Q 959 1441 959 1056 
Q 959 750 1161 570 
Q 1363 391 1709 391 
Q 2188 391 2477 730 
Q 2766 1069 2766 1631 
L 2766 1759 
L 2194 1759 
z
M 3341 1997 
L 3341 0 
L 2766 0 
L 2766 531 
Q 2569 213 2275 61 
Q 1981 -91 1556 -91 
Q 1019 -91 701 211 
Q 384 513 384 1019 
Q 384 1609 779 1909 
Q 1175 2209 1959 2209 
L 2766 2209 
L 2766 2266 
Q 2766 2663 2505 2880 
Q 2244 3097 1772 3097 
Q 1472 3097 1187 3025 
Q 903 2953 641 2809 
L 641 3341 
Q 956 3463 1253 3523 
Q 1550 3584 1831 3584 
Q 2591 3584 2966 3190 
Q 3341 2797 3341 1997 
z
" transform="scale(0.015625)"/>
      <path id="DejaVuSans-63" d="M 3122 3366 
L 3122 2828 
Q 2878 2963 2633 3030 
Q 2388 3097 2138 3097 
Q 1578 3097 1268 2742 
Q 959 2388 959 1747 
Q 959 1106 1268 751 
Q 1578 397 2138 397 
Q 2388 397 2633 464 
Q 2878 531 3122 666 
L 3122 134 
Q 2881 22 2623 -34 
Q 2366 -91 2075 -91 
Q 1284 -91 818 406 
Q 353 903 353 1747 
Q 353 2603 823 3093 
Q 1294 3584 2113 3584 
Q 2378 3584 2631 3529 
Q 2884 3475 3122 3366 
z
" transform="scale(0.015625)"/>
      <path id="DejaVuSans-41" d="M 2188 4044 
L 1331 1722 
L 3047 1722 
L 2188 4044 
z
M 1831 4666 
L 2547 4666 
L 4325 0 
L 3669 0 
L 3244 1197 
L 1141 1197 
L 716 0 
L 50 0 
L 1831 4666 
z
" transform="scale(0.015625)"/>
      <path id="DejaVuSans-56" d="M 1831 0 
L 50 4666 
L 709 4666 
L 2188 738 
L 3669 4666 
L 4325 4666 
L 2547 0 
L 1831 0 
z
" transform="scale(0.015625)"/>
      <path id="DejaVuSans-4e" d="M 628 4666 
L 1478 4666 
L 3547 763 
L 3547 4666 
L 4159 4666 
L 4159 0 
L 3309 0 
L 1241 3903 
L 1241 0 
L 628 0 
L 628 4666 
z
" transform="scale(0.015625)"/>
      <path id="DejaVuSans-2d" d="M 313 2009 
L 1997 2009 
L 1997 1497 
L 313 1497 
L 313 2009 
z
" transform="scale(0.015625)"/>
      <path id="DejaVuSans-73" d="M 2834 3397 
L 2834 2853 
Q 2591 2978 2328 3040 
Q 2066 3103 1784 3103 
Q 1356 3103 1142 2972 
Q 928 2841 928 2578 
Q 928 2378 1081 2264 
Q 1234 2150 1697 2047 
L 1894 2003 
Q 2506 1872 2764 1633 
Q 3022 1394 3022 966 
Q 3022 478 2636 193 
Q 2250 -91 1575 -91 
Q 1294 -91 989 -36 
Q 684 19 347 128 
L 347 722 
Q 666 556 975 473 
Q 1284 391 1588 391 
Q 1994 391 2212 530 
Q 2431 669 2431 922 
Q 2431 1156 2273 1281 
Q 2116 1406 1581 1522 
L 1381 1569 
Q 847 1681 609 1914 
Q 372 2147 372 2553 
Q 372 3047 722 3315 
Q 1072 3584 1716 3584 
Q 2034 3584 2315 3537 
Q 2597 3491 2834 3397 
z
" transform="scale(0.015625)"/>
      <path id="DejaVuSans-67" d="M 2906 1791 
Q 2906 2416 2648 2759 
Q 2391 3103 1925 3103 
Q 1463 3103 1205 2759 
Q 947 2416 947 1791 
Q 947 1169 1205 825 
Q 1463 481 1925 481 
Q 2391 481 2648 825 
Q 2906 1169 2906 1791 
z
M 3481 434 
Q 3481 -459 3084 -895 
Q 2688 -1331 1869 -1331 
Q 1566 -1331 1297 -1286 
Q 1028 -1241 775 -1147 
L 775 -588 
Q 1028 -725 1275 -790 
Q 1522 -856 1778 -856 
Q 2344 -856 2625 -561 
Q 2906 -266 2906 331 
L 2906 616 
Q 2728 306 2450 153 
Q 2172 0 1784 0 
Q 1141 0 747 490 
Q 353 981 353 1791 
Q 353 2603 747 3093 
Q 1141 3584 1784 3584 
Q 2172 3584 2450 3431 
Q 2728 3278 2906 2969 
L 2906 3500 
L 3481 3500 
L 3481 434 
z
" transform="scale(0.015625)"/>
      <path id="DejaVuSans-79" d="M 2059 -325 
Q 1816 -950 1584 -1140 
Q 1353 -1331 966 -1331 
L 506 -1331 
L 506 -850 
L 844 -850 
Q 1081 -850 1212 -737 
Q 1344 -625 1503 -206 
L 1606 56 
L 191 3500 
L 800 3500 
L 1894 763 
L 2988 3500 
L 3597 3500 
L 2059 -325 
z
" transform="scale(0.015625)"/>
     </defs>
     <use xlink:href="#DejaVuSans-50"/>
     <use xlink:href="#DejaVuSans-65" x="56.677734"/>
     <use xlink:href="#DejaVuSans-72" x="118.201172"/>
     <use xlink:href="#DejaVuSans-66" x="159.314453"/>
     <use xlink:href="#DejaVuSans-6f" x="194.519531"/>
     <use xlink:href="#DejaVuSans-72" x="255.701172"/>
     <use xlink:href="#DejaVuSans-6d" x="295.064453"/>
     <use xlink:href="#DejaVuSans-61" x="392.476562"/>
     <use xlink:href="#DejaVuSans-6e" x="453.755859"/>
     <use xlink:href="#DejaVuSans-63" x="517.134766"/>
     <use xlink:href="#DejaVuSans-65" x="572.115234"/>
     <use xlink:href="#DejaVuSans-20" x="633.638672"/>
     <use xlink:href="#DejaVuSans-6f" x="665.425781"/>
     <use xlink:href="#DejaVuSans-66" x="726.607422"/>
     <use xlink:href="#DejaVuSans-20" x="761.8125"/>
     <use xlink:href="#DejaVuSans-41" x="793.599609"/>
     <use xlink:href="#DejaVuSans-56" x="855.632812"/>
     <use xlink:href="#DejaVuSans-41" x="917.666016"/>
     <use xlink:href="#DejaVuSans-4e" x="986.074219"/>
     <use xlink:href="#DejaVuSans-2d" x="1060.878906"/>
     <use xlink:href="#DejaVuSans-73" x="1096.962891"/>
     <use xlink:href="#DejaVuSans-74" x="1149.0625"/>
     <use xlink:href="#DejaVuSans-72" x="1188.271484"/>
     <use xlink:href="#DejaVuSans-61" x="1229.384766"/>
     <use xlink:href="#DejaVuSans-74" x="1290.664062"/>
     <use xlink:href="#DejaVuSans-65" x="1329.873047"/>
     <use xlink:href="#DejaVuSans-67" x="1391.396484"/>
     <use xlink:href="#DejaVuSans-79" x="1454.873047"/>
     <use xlink:href="#DejaVuSans-20" x="1514.052734"/>
     <use xlink:href="#DejaVuSans-79" x="1545.839844"/>
     <use xlink:href="#DejaVuSans-65" x="1605.019531"/>
     <use xlink:href="#DejaVuSans-61" x="1666.542969"/>
     <use xlink:href="#DejaVuSans-72" x="1727.822266"/>
     <use xlink:href="#DejaVuSans-20" x="1768.935547"/>
     <use xlink:href="#DejaVuSans-32" x="1800.722656"/>
     <use xlink:href="#DejaVuSans-30" x="1864.345703"/>
     <use xlink:href="#DejaVuSans-31" x="1927.96875"/>
     <use xlink:href="#DejaVuSans-30" x="1991.591797"/>
    </g>
   </g>
   <g id="legend_1">
    <g id="patch_7">
     <path d="M 53.55 78.914375 
L 180.971875 78.914375 
Q 182.971875 78.914375 182.971875 76.914375 
L 182.971875 33.88 
Q 182.971875 31.88 180.971875 31.88 
L 53.55 31.88 
Q 51.55 31.88 51.55 33.88 
L 51.55 76.914375 
Q 51.55 78.914375 53.55 78.914375 
z
" style="fill: #ffffff; opacity: 0.8; stroke: #cccccc; stroke-linejoin: miter"/>
    </g>
    <g id="line2d_18">
     <path d="M 55.55 39.978438 
L 65.55 39.978438 
L 75.55 39.978438 
" style="fill: none; stroke: #008000; stroke-width: 1.5; stroke-linecap: square"/>
    </g>
    <g id="text_10">
     <!-- 20.1% return omx -->
     <g transform="translate(83.55 43.478438)scale(0.1 -0.1)">
      <defs>
       <path id="DejaVuSans-2e" d="M 684 794 
L 1344 794 
L 1344 0 
L 684 0 
L 684 794 
z
" transform="scale(0.015625)"/>
       <path id="DejaVuSans-78" d="M 3513 3500 
L 2247 1797 
L 3578 0 
L 2900 0 
L 1881 1375 
L 863 0 
L 184 0 
L 1544 1831 
L 300 3500 
L 978 3500 
L 1906 2253 
L 2834 3500 
L 3513 3500 
z
" transform="scale(0.015625)"/>
      </defs>
      <use xlink:href="#DejaVuSans-32"/>
      <use xlink:href="#DejaVuSans-30" x="63.623047"/>
      <use xlink:href="#DejaVuSans-2e" x="127.246094"/>
      <use xlink:href="#DejaVuSans-31" x="159.033203"/>
      <use xlink:href="#DejaVuSans-25" x="222.65625"/>
      <use xlink:href="#DejaVuSans-20" x="317.675781"/>
      <use xlink:href="#DejaVuSans-72" x="349.462891"/>
      <use xlink:href="#DejaVuSans-65" x="388.326172"/>
      <use xlink:href="#DejaVuSans-74" x="449.849609"/>
      <use xlink:href="#DejaVuSans-75" x="489.058594"/>
      <use xlink:href="#DejaVuSans-72" x="552.4375"/>
      <use xlink:href="#DejaVuSans-6e" x="591.800781"/>
      <use xlink:href="#DejaVuSans-20" x="655.179688"/>
      <use xlink:href="#DejaVuSans-6f" x="686.966797"/>
      <use xlink:href="#DejaVuSans-6d" x="748.148438"/>
      <use xlink:href="#DejaVuSans-78" x="845.560547"/>
     </g>
    </g>
    <g id="line2d_19">
     <path d="M 55.55 54.656563 
L 65.55 54.656563 
L 75.55 54.656563 
" style="fill: none; stroke: #0000ff; stroke-width: 1.5; stroke-linecap: square"/>
    </g>
    <g id="text_11">
     <!-- 57.0% return AVAN -->
     <g transform="translate(83.55 58.156563)scale(0.1 -0.1)">
      <defs>
       <path id="DejaVuSans-37" d="M 525 4666 
L 3525 4666 
L 3525 4397 
L 1831 0 
L 1172 0 
L 2766 4134 
L 525 4134 
L 525 4666 
z
" transform="scale(0.015625)"/>
      </defs>
      <use xlink:href="#DejaVuSans-35"/>
      <use xlink:href="#DejaVuSans-37" x="63.623047"/>
      <use xlink:href="#DejaVuSans-2e" x="127.246094"/>
      <use xlink:href="#DejaVuSans-30" x="159.033203"/>
      <use xlink:href="#DejaVuSans-25" x="222.65625"/>
      <use xlink:href="#DejaVuSans-20" x="317.675781"/>
      <use xlink:href="#DejaVuSans-72" x="349.462891"/>
      <use xlink:href="#DejaVuSans-65" x="388.326172"/>
      <use xlink:href="#DejaVuSans-74" x="449.849609"/>
      <use xlink:href="#DejaVuSans-75" x="489.058594"/>
      <use xlink:href="#DejaVuSans-72" x="552.4375"/>
      <use xlink:href="#DejaVuSans-6e" x="591.800781"/>
      <use xlink:href="#DejaVuSans-20" x="655.179688"/>
      <use xlink:href="#DejaVuSans-41" x="686.966797"/>
      <use xlink:href="#DejaVuSans-56" x="749"/>
      <use xlink:href="#DejaVuSans-41" x="811.033203"/>
      <use xlink:href="#DejaVuSans-4e" x="879.441406"/>
     </g>
    </g>
    <g id="line2d_20">
     <path d="M 55.55 69.334688 
L 65.55 69.334688 
L 75.55 69.334688 
" style="fill: none; stroke: #ff0000; stroke-width: 1.5; stroke-linecap: square"/>
    </g>
    <g id="text_12">
     <!-- cummax -->
     <g transform="translate(83.55 72.834688)scale(0.1 -0.1)">
      <use xlink:href="#DejaVuSans-63"/>
      <use xlink:href="#DejaVuSans-75" x="54.980469"/>
      <use xlink:href="#DejaVuSans-6d" x="118.359375"/>
      <use xlink:href="#DejaVuSans-6d" x="215.771484"/>
      <use xlink:href="#DejaVuSans-61" x="313.183594"/>
      <use xlink:href="#DejaVuSans-78" x="374.462891"/>
     </g>
    </g>
   </g>
  </g>
  <g id="axes_2">
   <g id="patch_8">
    <path d="M 46.55 390.04 
L 560.229083 390.04 
L 560.229083 302.955909 
L 46.55 302.955909 
z
" style="fill: #ffffff"/>
   </g>
   <g id="matplotlib.axis_3">
    <g id="xtick_8">
     <g id="line2d_21">
      <g>
       <use xlink:href="#m409bcd9917" x="72.471947" y="390.04" style="stroke: #000000; stroke-width: 0.8"/>
      </g>
     </g>
     <g id="text_13">
      <!-- 2010-01 -->
      <g transform="translate(51.580541 404.638438)scale(0.1 -0.1)">
       <use xlink:href="#DejaVuSans-32"/>
       <use xlink:href="#DejaVuSans-30" x="63.623047"/>
       <use xlink:href="#DejaVuSans-31" x="127.246094"/>
       <use xlink:href="#DejaVuSans-30" x="190.869141"/>
       <use xlink:href="#DejaVuSans-2d" x="254.492188"/>
       <use xlink:href="#DejaVuSans-30" x="290.576172"/>
       <use xlink:href="#DejaVuSans-31" x="354.199219"/>
      </g>
     </g>
    </g>
    <g id="xtick_9">
     <g id="line2d_22">
      <g>
       <use xlink:href="#m409bcd9917" x="148.372438" y="390.04" style="stroke: #000000; stroke-width: 0.8"/>
      </g>
     </g>
     <g id="text_14">
      <!-- 2010-03 -->
      <g transform="translate(127.481032 404.638438)scale(0.1 -0.1)">
       <use xlink:href="#DejaVuSans-32"/>
       <use xlink:href="#DejaVuSans-30" x="63.623047"/>
       <use xlink:href="#DejaVuSans-31" x="127.246094"/>
       <use xlink:href="#DejaVuSans-30" x="190.869141"/>
       <use xlink:href="#DejaVuSans-2d" x="254.492188"/>
       <use xlink:href="#DejaVuSans-30" x="290.576172"/>
       <use xlink:href="#DejaVuSans-33" x="354.199219"/>
      </g>
     </g>
    </g>
    <g id="xtick_10">
     <g id="line2d_23">
      <g>
       <use xlink:href="#m409bcd9917" x="226.845827" y="390.04" style="stroke: #000000; stroke-width: 0.8"/>
      </g>
     </g>
     <g id="text_15">
      <!-- 2010-05 -->
      <g transform="translate(205.95442 404.638438)scale(0.1 -0.1)">
       <use xlink:href="#DejaVuSans-32"/>
       <use xlink:href="#DejaVuSans-30" x="63.623047"/>
       <use xlink:href="#DejaVuSans-31" x="127.246094"/>
       <use xlink:href="#DejaVuSans-30" x="190.869141"/>
       <use xlink:href="#DejaVuSans-2d" x="254.492188"/>
       <use xlink:href="#DejaVuSans-30" x="290.576172"/>
       <use xlink:href="#DejaVuSans-35" x="354.199219"/>
      </g>
     </g>
    </g>
    <g id="xtick_11">
     <g id="line2d_24">
      <g>
       <use xlink:href="#m409bcd9917" x="305.319215" y="390.04" style="stroke: #000000; stroke-width: 0.8"/>
      </g>
     </g>
     <g id="text_16">
      <!-- 2010-07 -->
      <g transform="translate(284.427809 404.638438)scale(0.1 -0.1)">
       <use xlink:href="#DejaVuSans-32"/>
       <use xlink:href="#DejaVuSans-30" x="63.623047"/>
       <use xlink:href="#DejaVuSans-31" x="127.246094"/>
       <use xlink:href="#DejaVuSans-30" x="190.869141"/>
       <use xlink:href="#DejaVuSans-2d" x="254.492188"/>
       <use xlink:href="#DejaVuSans-30" x="290.576172"/>
       <use xlink:href="#DejaVuSans-37" x="354.199219"/>
      </g>
     </g>
    </g>
    <g id="xtick_12">
     <g id="line2d_25">
      <g>
       <use xlink:href="#m409bcd9917" x="385.079053" y="390.04" style="stroke: #000000; stroke-width: 0.8"/>
      </g>
     </g>
     <g id="text_17">
      <!-- 2010-09 -->
      <g transform="translate(364.187647 404.638438)scale(0.1 -0.1)">
       <defs>
        <path id="DejaVuSans-39" d="M 703 97 
L 703 672 
Q 941 559 1184 500 
Q 1428 441 1663 441 
Q 2288 441 2617 861 
Q 2947 1281 2994 2138 
Q 2813 1869 2534 1725 
Q 2256 1581 1919 1581 
Q 1219 1581 811 2004 
Q 403 2428 403 3163 
Q 403 3881 828 4315 
Q 1253 4750 1959 4750 
Q 2769 4750 3195 4129 
Q 3622 3509 3622 2328 
Q 3622 1225 3098 567 
Q 2575 -91 1691 -91 
Q 1453 -91 1209 -44 
Q 966 3 703 97 
z
M 1959 2075 
Q 2384 2075 2632 2365 
Q 2881 2656 2881 3163 
Q 2881 3666 2632 3958 
Q 2384 4250 1959 4250 
Q 1534 4250 1286 3958 
Q 1038 3666 1038 3163 
Q 1038 2656 1286 2365 
Q 1534 2075 1959 2075 
z
" transform="scale(0.015625)"/>
       </defs>
       <use xlink:href="#DejaVuSans-32"/>
       <use xlink:href="#DejaVuSans-30" x="63.623047"/>
       <use xlink:href="#DejaVuSans-31" x="127.246094"/>
       <use xlink:href="#DejaVuSans-30" x="190.869141"/>
       <use xlink:href="#DejaVuSans-2d" x="254.492188"/>
       <use xlink:href="#DejaVuSans-30" x="290.576172"/>
       <use xlink:href="#DejaVuSans-39" x="354.199219"/>
      </g>
     </g>
    </g>
    <g id="xtick_13">
     <g id="line2d_26">
      <g>
       <use xlink:href="#m409bcd9917" x="463.552441" y="390.04" style="stroke: #000000; stroke-width: 0.8"/>
      </g>
     </g>
     <g id="text_18">
      <!-- 2010-11 -->
      <g transform="translate(442.661035 404.638438)scale(0.1 -0.1)">
       <use xlink:href="#DejaVuSans-32"/>
       <use xlink:href="#DejaVuSans-30" x="63.623047"/>
       <use xlink:href="#DejaVuSans-31" x="127.246094"/>
       <use xlink:href="#DejaVuSans-30" x="190.869141"/>
       <use xlink:href="#DejaVuSans-2d" x="254.492188"/>
       <use xlink:href="#DejaVuSans-31" x="290.576172"/>
       <use xlink:href="#DejaVuSans-31" x="354.199219"/>
      </g>
     </g>
    </g>
    <g id="xtick_14">
     <g id="line2d_27">
      <g>
       <use xlink:href="#m409bcd9917" x="542.02583" y="390.04" style="stroke: #000000; stroke-width: 0.8"/>
      </g>
     </g>
     <g id="text_19">
      <!-- 2011-01 -->
      <g transform="translate(521.134424 404.638438)scale(0.1 -0.1)">
       <use xlink:href="#DejaVuSans-32"/>
       <use xlink:href="#DejaVuSans-30" x="63.623047"/>
       <use xlink:href="#DejaVuSans-31" x="127.246094"/>
       <use xlink:href="#DejaVuSans-31" x="190.869141"/>
       <use xlink:href="#DejaVuSans-2d" x="254.492188"/>
       <use xlink:href="#DejaVuSans-30" x="290.576172"/>
       <use xlink:href="#DejaVuSans-31" x="354.199219"/>
      </g>
     </g>
    </g>
    <g id="text_20">
     <!-- Time -->
     <g transform="translate(291.155948 418.316562)scale(0.1 -0.1)">
      <defs>
       <path id="DejaVuSans-54" d="M -19 4666 
L 3928 4666 
L 3928 4134 
L 2272 4134 
L 2272 0 
L 1638 0 
L 1638 4134 
L -19 4134 
L -19 4666 
z
" transform="scale(0.015625)"/>
       <path id="DejaVuSans-69" d="M 603 3500 
L 1178 3500 
L 1178 0 
L 603 0 
L 603 3500 
z
M 603 4863 
L 1178 4863 
L 1178 4134 
L 603 4134 
L 603 4863 
z
" transform="scale(0.015625)"/>
      </defs>
      <use xlink:href="#DejaVuSans-54"/>
      <use xlink:href="#DejaVuSans-69" x="57.958984"/>
      <use xlink:href="#DejaVuSans-6d" x="85.742188"/>
      <use xlink:href="#DejaVuSans-65" x="183.154297"/>
     </g>
    </g>
   </g>
   <g id="matplotlib.axis_4">
    <g id="ytick_8">
     <g id="line2d_28">
      <g>
       <use xlink:href="#m576c709f39" x="46.55" y="379.205747" style="stroke: #000000; stroke-width: 0.8"/>
      </g>
     </g>
     <g id="text_21">
      <!-- −4 -->
      <g transform="translate(24.807813 383.004966)scale(0.1 -0.1)">
       <defs>
        <path id="DejaVuSans-2212" d="M 678 2272 
L 4684 2272 
L 4684 1741 
L 678 1741 
L 678 2272 
z
" transform="scale(0.015625)"/>
       </defs>
       <use xlink:href="#DejaVuSans-2212"/>
       <use xlink:href="#DejaVuSans-34" x="83.789062"/>
      </g>
     </g>
    </g>
    <g id="ytick_9">
     <g id="line2d_29">
      <g>
       <use xlink:href="#m576c709f39" x="46.55" y="343.060012" style="stroke: #000000; stroke-width: 0.8"/>
      </g>
     </g>
     <g id="text_22">
      <!-- −2 -->
      <g transform="translate(24.807813 346.859231)scale(0.1 -0.1)">
       <use xlink:href="#DejaVuSans-2212"/>
       <use xlink:href="#DejaVuSans-32" x="83.789062"/>
      </g>
     </g>
    </g>
    <g id="ytick_10">
     <g id="line2d_30">
      <g>
       <use xlink:href="#m576c709f39" x="46.55" y="306.914277" style="stroke: #000000; stroke-width: 0.8"/>
      </g>
     </g>
     <g id="text_23">
      <!-- 0 -->
      <g transform="translate(33.1875 310.713496)scale(0.1 -0.1)">
       <use xlink:href="#DejaVuSans-30"/>
      </g>
     </g>
    </g>
    <g id="text_24">
     <!-- DD % -->
     <g transform="translate(18.728125 360.537798)rotate(-90)scale(0.1 -0.1)">
      <defs>
       <path id="DejaVuSans-44" d="M 1259 4147 
L 1259 519 
L 2022 519 
Q 2988 519 3436 956 
Q 3884 1394 3884 2338 
Q 3884 3275 3436 3711 
Q 2988 4147 2022 4147 
L 1259 4147 
z
M 628 4666 
L 1925 4666 
Q 3281 4666 3915 4102 
Q 4550 3538 4550 2338 
Q 4550 1131 3912 565 
Q 3275 0 1925 0 
L 628 0 
L 628 4666 
z
" transform="scale(0.015625)"/>
      </defs>
      <use xlink:href="#DejaVuSans-44"/>
      <use xlink:href="#DejaVuSans-44" x="77.001953"/>
      <use xlink:href="#DejaVuSans-20" x="154.003906"/>
      <use xlink:href="#DejaVuSans-25" x="185.791016"/>
     </g>
    </g>
   </g>
   <g id="line2d_31">
    <path d="M 69.899049 306.914277 
L 76.331294 308.343178 
L 77.617743 306.914277 
L 80.190641 306.914277 
L 81.47709 318.372257 
L 85.336437 306.914277 
L 86.622886 308.263944 
L 87.909335 330.7851 
L 89.195784 306.914277 
L 96.914478 306.914277 
L 98.200927 327.351903 
L 99.487376 334.713549 
L 103.346723 365.660116 
L 104.633172 357.949799 
L 105.919621 377.105889 
L 107.20607 356.915069 
L 108.492519 361.925582 
L 112.351866 360.413951 
L 113.638315 335.53094 
L 114.924764 325.491641 
L 116.211213 324.869727 
L 117.497662 348.476381 
L 121.357009 346.570919 
L 122.643458 386.081632 
L 123.929907 368.376933 
L 125.216356 374.632045 
L 126.502805 366.883246 
L 130.362152 377.761697 
L 131.648601 377.761697 
L 132.93505 380.031111 
L 134.221499 365.283586 
L 135.507948 371.798147 
L 139.367295 344.501652 
L 140.653744 349.00249 
L 141.940193 356.4407 
L 143.226642 356.351122 
L 144.513091 360.788769 
L 148.372438 354.022319 
L 150.945336 311.853377 
L 152.231785 306.914277 
L 153.518234 306.914277 
L 157.377581 312.689908 
L 158.66403 306.914277 
L 161.236928 306.914277 
L 162.523377 310.759833 
L 166.382724 306.914277 
L 168.955622 306.914277 
L 170.242071 309.253754 
L 171.52852 308.976678 
L 175.387867 306.914277 
L 177.960765 306.914277 
L 179.247214 311.733422 
L 180.533663 311.457639 
L 184.39301 306.914277 
L 194.684602 306.914277 
L 195.971051 307.077512 
L 197.2575 315.341332 
L 198.543949 307.039893 
L 202.403296 312.889066 
L 203.689745 312.749251 
L 204.976194 321.336008 
L 206.262643 306.914277 
L 207.549092 310.699358 
L 211.408439 314.686281 
L 212.694888 309.842718 
L 213.981337 306.914277 
L 215.267786 313.806741 
L 216.554235 335.300046 
L 220.413582 309.818801 
L 221.700031 306.914277 
L 270.585092 306.914277 
L 274.444439 361.458575 
L 275.730888 349.8505 
L 277.017337 361.710311 
L 278.303786 331.827143 
L 279.590235 324.962958 
L 283.449582 313.473623 
L 284.736031 309.226367 
L 286.02248 306.914277 
L 287.308929 313.446837 
L 288.595378 306.914277 
L 292.454725 306.914277 
L 293.741174 319.683158 
L 295.027623 322.524871 
L 296.314072 323.154022 
L 301.459868 355.119866 
L 302.746317 378.971228 
L 323.329501 378.971228 
L 324.61595 380.824608 
L 328.475297 380.824608 
L 329.761746 382.826991 
L 331.048195 376.45168 
L 332.334644 368.708956 
L 333.621093 357.461132 
L 337.48044 350.210044 
L 338.766889 344.17782 
L 340.053338 345.025342 
L 341.339787 343.313507 
L 342.626236 350.566572 
L 346.485583 348.295238 
L 347.772032 340.758201 
L 349.058481 336.527589 
L 350.34493 337.188102 
L 351.631379 327.348057 
L 355.490726 326.491324 
L 356.777175 320.910823 
L 358.063624 320.978789 
L 359.350073 353.361185 
L 360.636522 346.53269 
L 364.495869 346.641338 
L 365.782318 341.73841 
L 367.068767 326.472048 
L 368.355216 326.312895 
L 369.641665 326.312895 
L 373.501012 337.19272 
L 374.787461 343.276638 
L 385.079053 343.276638 
L 386.365502 313.321431 
L 387.651951 313.321431 
L 391.511298 306.914277 
L 392.797747 306.914277 
L 394.084196 321.063197 
L 395.370645 306.914277 
L 403.089339 306.914277 
L 404.375788 310.738659 
L 405.662237 306.914277 
L 409.521584 322.582745 
L 410.808033 306.914277 
L 412.094482 325.205833 
L 413.380931 308.275439 
L 414.66738 330.488771 
L 418.526727 315.712546 
L 419.813176 306.914277 
L 422.386074 306.914277 
L 423.672523 308.087615 
L 427.53187 306.914277 
L 428.818319 324.82926 
L 430.104768 331.927501 
L 431.391217 315.121339 
L 432.677666 324.001142 
L 436.537013 307.974836 
L 437.823462 316.697284 
L 439.109911 310.455042 
L 440.39636 306.914277 
L 441.682809 306.914277 
L 445.542156 317.610478 
L 446.828605 309.472057 
L 448.115054 322.370246 
L 449.401503 321.110586 
L 450.687952 307.568409 
L 454.547299 306.914277 
L 455.833748 339.890737 
L 457.120197 328.189349 
L 458.406646 336.214269 
L 459.693094 356.865165 
L 463.552441 328.732358 
L 464.83889 323.342137 
L 466.125339 320.443578 
L 467.411788 323.024035 
L 468.698237 306.914277 
L 472.557584 308.229144 
L 473.844033 310.673419 
L 475.130482 316.587041 
L 476.416931 330.148199 
L 477.70338 340.564997 
L 481.562727 354.16329 
L 482.849176 358.156845 
L 484.135625 366.129302 
L 485.422074 355.668129 
L 486.708523 340.666395 
L 490.56787 315.498684 
L 491.854319 319.875928 
L 493.140768 343.94117 
L 494.427217 328.460394 
L 495.713666 322.570298 
L 499.573013 319.359441 
L 500.859462 321.903347 
L 502.145911 316.686557 
L 503.43236 306.914277 
L 512.437503 306.914277 
L 513.723952 323.535866 
L 517.583299 313.559719 
L 518.869748 306.914277 
L 530.447789 306.914277 
L 535.593585 308.494084 
L 536.880034 306.914277 
L 536.880034 306.914277 
" clip-path="url(#pa6e50971d3)" style="fill: none; stroke: #0000ff; stroke-width: 1.5; stroke-linecap: square"/>
   </g>
   <g id="patch_9">
    <path d="M 46.55 390.04 
L 46.55 302.955909 
" style="fill: none; stroke: #000000; stroke-width: 0.8; stroke-linejoin: miter; stroke-linecap: square"/>
   </g>
   <g id="patch_10">
    <path d="M 560.229083 390.04 
L 560.229083 302.955909 
" style="fill: none; stroke: #000000; stroke-width: 0.8; stroke-linejoin: miter; stroke-linecap: square"/>
   </g>
   <g id="patch_11">
    <path d="M 46.55 390.04 
L 560.229083 390.04 
" style="fill: none; stroke: #000000; stroke-width: 0.8; stroke-linejoin: miter; stroke-linecap: square"/>
   </g>
   <g id="patch_12">
    <path d="M 46.55 302.955909 
L 560.229083 302.955909 
" style="fill: none; stroke: #000000; stroke-width: 0.8; stroke-linejoin: miter; stroke-linecap: square"/>
   </g>
  </g>
 </g>
 <defs>
  <clipPath id="p8658901c48">
   <rect x="46.55" y="26.88" width="513.679083" height="261.252273"/>
  </clipPath>
  <clipPath id="pa6e50971d3">
   <rect x="46.55" y="302.955909" width="513.679083" height="87.084091"/>
  </clipPath>
 </defs>
</svg>
