<?xml version="1.0" encoding="utf-8" standalone="no"?>
<!DOCTYPE svg PUBLIC "-//W3C//DTD SVG 1.1//EN"
  "http://www.w3.org/Graphics/SVG/1.1/DTD/svg11.dtd">
<svg xmlns:xlink="http://www.w3.org/1999/xlink" width="576pt" height="432pt" viewBox="0 0 576 432" xmlns="http://www.w3.org/2000/svg" version="1.1">
 <metadata>
  <rdf:RDF xmlns:dc="http://purl.org/dc/elements/1.1/" xmlns:cc="http://creativecommons.org/ns#" xmlns:rdf="http://www.w3.org/1999/02/22-rdf-syntax-ns#">
   <cc:Work>
    <dc:type rdf:resource="http://purl.org/dc/dcmitype/StillImage"/>
    <dc:date>2023-01-15T23:56:31.605451</dc:date>
    <dc:format>image/svg+xml</dc:format>
    <dc:creator>
     <cc:Agent>
      <dc:title>Matplotlib v3.5.0, https://matplotlib.org/</dc:title>
     </cc:Agent>
    </dc:creator>
   </cc:Work>
  </rdf:RDF>
 </metadata>
 <defs>
  <style type="text/css">*{stroke-linejoin: round; stroke-linecap: butt}</style>
 </defs>
 <g id="figure_1">
  <g id="patch_1">
   <path d="M 0 432 
L 576 432 
L 576 0 
L 0 0 
z
" style="fill: #ffffff"/>
  </g>
  <g id="axes_1">
   <g id="patch_2">
    <path d="M 52.85 288.132273 
L 554.572194 288.132273 
L 554.572194 26.88 
L 52.85 26.88 
z
" style="fill: #ffffff"/>
   </g>
   <g id="matplotlib.axis_1">
    <g id="xtick_1">
     <g id="line2d_1">
      <defs>
       <path id="mfaabaf2581" d="M 0 0 
L 0 3.5 
" style="stroke: #000000; stroke-width: 0.8"/>
      </defs>
      <g>
       <use xlink:href="#mfaabaf2581" x="78.196563" y="288.132273" style="stroke: #000000; stroke-width: 0.8"/>
      </g>
     </g>
    </g>
    <g id="xtick_2">
     <g id="line2d_2">
      <g>
       <use xlink:href="#mfaabaf2581" x="154.426828" y="288.132273" style="stroke: #000000; stroke-width: 0.8"/>
      </g>
     </g>
    </g>
    <g id="xtick_3">
     <g id="line2d_3">
      <g>
       <use xlink:href="#mfaabaf2581" x="231.927598" y="288.132273" style="stroke: #000000; stroke-width: 0.8"/>
      </g>
     </g>
    </g>
    <g id="xtick_4">
     <g id="line2d_4">
      <g>
       <use xlink:href="#mfaabaf2581" x="309.428367" y="288.132273" style="stroke: #000000; stroke-width: 0.8"/>
      </g>
     </g>
    </g>
    <g id="xtick_5">
     <g id="line2d_5">
      <g>
       <use xlink:href="#mfaabaf2581" x="388.199641" y="288.132273" style="stroke: #000000; stroke-width: 0.8"/>
      </g>
     </g>
    </g>
    <g id="xtick_6">
     <g id="line2d_6">
      <g>
       <use xlink:href="#mfaabaf2581" x="465.70041" y="288.132273" style="stroke: #000000; stroke-width: 0.8"/>
      </g>
     </g>
    </g>
    <g id="xtick_7">
     <g id="line2d_7">
      <g>
       <use xlink:href="#mfaabaf2581" x="543.20118" y="288.132273" style="stroke: #000000; stroke-width: 0.8"/>
      </g>
     </g>
    </g>
   </g>
   <g id="matplotlib.axis_2">
    <g id="ytick_1">
     <g id="line2d_8">
      <defs>
       <path id="m632282279c" d="M 0 0 
L -3.5 0 
" style="stroke: #000000; stroke-width: 0.8"/>
      </defs>
      <g>
       <use xlink:href="#m632282279c" x="52.85" y="257.038048" style="stroke: #000000; stroke-width: 0.8"/>
      </g>
     </g>
     <g id="text_1">
      <!-- −20 -->
      <g transform="translate(24.745313 260.837267)scale(0.1 -0.1)">
       <defs>
        <path id="DejaVuSans-2212" d="M 678 2272 
L 4684 2272 
L 4684 1741 
L 678 1741 
L 678 2272 
z
" transform="scale(0.015625)"/>
        <path id="DejaVuSans-32" d="M 1228 531 
L 3431 531 
L 3431 0 
L 469 0 
L 469 531 
Q 828 903 1448 1529 
Q 2069 2156 2228 2338 
Q 2531 2678 2651 2914 
Q 2772 3150 2772 3378 
Q 2772 3750 2511 3984 
Q 2250 4219 1831 4219 
Q 1534 4219 1204 4116 
Q 875 4013 500 3803 
L 500 4441 
Q 881 4594 1212 4672 
Q 1544 4750 1819 4750 
Q 2544 4750 2975 4387 
Q 3406 4025 3406 3419 
Q 3406 3131 3298 2873 
Q 3191 2616 2906 2266 
Q 2828 2175 2409 1742 
Q 1991 1309 1228 531 
z
" transform="scale(0.015625)"/>
        <path id="DejaVuSans-30" d="M 2034 4250 
Q 1547 4250 1301 3770 
Q 1056 3291 1056 2328 
Q 1056 1369 1301 889 
Q 1547 409 2034 409 
Q 2525 409 2770 889 
Q 3016 1369 3016 2328 
Q 3016 3291 2770 3770 
Q 2525 4250 2034 4250 
z
M 2034 4750 
Q 2819 4750 3233 4129 
Q 3647 3509 3647 2328 
Q 3647 1150 3233 529 
Q 2819 -91 2034 -91 
Q 1250 -91 836 529 
Q 422 1150 422 2328 
Q 422 3509 836 4129 
Q 1250 4750 2034 4750 
z
" transform="scale(0.015625)"/>
       </defs>
       <use xlink:href="#DejaVuSans-2212"/>
       <use xlink:href="#DejaVuSans-32" x="83.789062"/>
       <use xlink:href="#DejaVuSans-30" x="147.412109"/>
      </g>
     </g>
    </g>
    <g id="ytick_2">
     <g id="line2d_9">
      <g>
       <use xlink:href="#m632282279c" x="52.85" y="209.750851" style="stroke: #000000; stroke-width: 0.8"/>
      </g>
     </g>
     <g id="text_2">
      <!-- 0 -->
      <g transform="translate(39.4875 213.55007)scale(0.1 -0.1)">
       <use xlink:href="#DejaVuSans-30"/>
      </g>
     </g>
    </g>
    <g id="ytick_3">
     <g id="line2d_10">
      <g>
       <use xlink:href="#m632282279c" x="52.85" y="162.463655" style="stroke: #000000; stroke-width: 0.8"/>
      </g>
     </g>
     <g id="text_3">
      <!-- 20 -->
      <g transform="translate(33.125 166.262874)scale(0.1 -0.1)">
       <use xlink:href="#DejaVuSans-32"/>
       <use xlink:href="#DejaVuSans-30" x="63.623047"/>
      </g>
     </g>
    </g>
    <g id="ytick_4">
     <g id="line2d_11">
      <g>
       <use xlink:href="#m632282279c" x="52.85" y="115.176458" style="stroke: #000000; stroke-width: 0.8"/>
      </g>
     </g>
     <g id="text_4">
      <!-- 40 -->
      <g transform="translate(33.125 118.975677)scale(0.1 -0.1)">
       <defs>
        <path id="DejaVuSans-34" d="M 2419 4116 
L 825 1625 
L 2419 1625 
L 2419 4116 
z
M 2253 4666 
L 3047 4666 
L 3047 1625 
L 3713 1625 
L 3713 1100 
L 3047 1100 
L 3047 0 
L 2419 0 
L 2419 1100 
L 313 1100 
L 313 1709 
L 2253 4666 
z
" transform="scale(0.015625)"/>
       </defs>
       <use xlink:href="#DejaVuSans-34"/>
       <use xlink:href="#DejaVuSans-30" x="63.623047"/>
      </g>
     </g>
    </g>
    <g id="ytick_5">
     <g id="line2d_12">
      <g>
       <use xlink:href="#m632282279c" x="52.85" y="67.889262" style="stroke: #000000; stroke-width: 0.8"/>
      </g>
     </g>
     <g id="text_5">
      <!-- 60 -->
      <g transform="translate(33.125 71.68848)scale(0.1 -0.1)">
       <defs>
        <path id="DejaVuSans-36" d="M 2113 2584 
Q 1688 2584 1439 2293 
Q 1191 2003 1191 1497 
Q 1191 994 1439 701 
Q 1688 409 2113 409 
Q 2538 409 2786 701 
Q 3034 994 3034 1497 
Q 3034 2003 2786 2293 
Q 2538 2584 2113 2584 
z
M 3366 4563 
L 3366 3988 
Q 3128 4100 2886 4159 
Q 2644 4219 2406 4219 
Q 1781 4219 1451 3797 
Q 1122 3375 1075 2522 
Q 1259 2794 1537 2939 
Q 1816 3084 2150 3084 
Q 2853 3084 3261 2657 
Q 3669 2231 3669 1497 
Q 3669 778 3244 343 
Q 2819 -91 2113 -91 
Q 1303 -91 875 529 
Q 447 1150 447 2328 
Q 447 3434 972 4092 
Q 1497 4750 2381 4750 
Q 2619 4750 2861 4703 
Q 3103 4656 3366 4563 
z
" transform="scale(0.015625)"/>
       </defs>
       <use xlink:href="#DejaVuSans-36"/>
       <use xlink:href="#DejaVuSans-30" x="63.623047"/>
      </g>
     </g>
    </g>
    <g id="text_6">
     <!-- Return [%] -->
     <g transform="translate(18.665625 184.338949)rotate(-90)scale(0.1 -0.1)">
      <defs>
       <path id="DejaVuSans-52" d="M 2841 2188 
Q 3044 2119 3236 1894 
Q 3428 1669 3622 1275 
L 4263 0 
L 3584 0 
L 2988 1197 
Q 2756 1666 2539 1819 
Q 2322 1972 1947 1972 
L 1259 1972 
L 1259 0 
L 628 0 
L 628 4666 
L 2053 4666 
Q 2853 4666 3247 4331 
Q 3641 3997 3641 3322 
Q 3641 2881 3436 2590 
Q 3231 2300 2841 2188 
z
M 1259 4147 
L 1259 2491 
L 2053 2491 
Q 2509 2491 2742 2702 
Q 2975 2913 2975 3322 
Q 2975 3731 2742 3939 
Q 2509 4147 2053 4147 
L 1259 4147 
z
" transform="scale(0.015625)"/>
       <path id="DejaVuSans-65" d="M 3597 1894 
L 3597 1613 
L 953 1613 
Q 991 1019 1311 708 
Q 1631 397 2203 397 
Q 2534 397 2845 478 
Q 3156 559 3463 722 
L 3463 178 
Q 3153 47 2828 -22 
Q 2503 -91 2169 -91 
Q 1331 -91 842 396 
Q 353 884 353 1716 
Q 353 2575 817 3079 
Q 1281 3584 2069 3584 
Q 2775 3584 3186 3129 
Q 3597 2675 3597 1894 
z
M 3022 2063 
Q 3016 2534 2758 2815 
Q 2500 3097 2075 3097 
Q 1594 3097 1305 2825 
Q 1016 2553 972 2059 
L 3022 2063 
z
" transform="scale(0.015625)"/>
       <path id="DejaVuSans-74" d="M 1172 4494 
L 1172 3500 
L 2356 3500 
L 2356 3053 
L 1172 3053 
L 1172 1153 
Q 1172 725 1289 603 
Q 1406 481 1766 481 
L 2356 481 
L 2356 0 
L 1766 0 
Q 1100 0 847 248 
Q 594 497 594 1153 
L 594 3053 
L 172 3053 
L 172 3500 
L 594 3500 
L 594 4494 
L 1172 4494 
z
" transform="scale(0.015625)"/>
       <path id="DejaVuSans-75" d="M 544 1381 
L 544 3500 
L 1119 3500 
L 1119 1403 
Q 1119 906 1312 657 
Q 1506 409 1894 409 
Q 2359 409 2629 706 
Q 2900 1003 2900 1516 
L 2900 3500 
L 3475 3500 
L 3475 0 
L 2900 0 
L 2900 538 
Q 2691 219 2414 64 
Q 2138 -91 1772 -91 
Q 1169 -91 856 284 
Q 544 659 544 1381 
z
M 1991 3584 
L 1991 3584 
z
" transform="scale(0.015625)"/>
       <path id="DejaVuSans-72" d="M 2631 2963 
Q 2534 3019 2420 3045 
Q 2306 3072 2169 3072 
Q 1681 3072 1420 2755 
Q 1159 2438 1159 1844 
L 1159 0 
L 581 0 
L 581 3500 
L 1159 3500 
L 1159 2956 
Q 1341 3275 1631 3429 
Q 1922 3584 2338 3584 
Q 2397 3584 2469 3576 
Q 2541 3569 2628 3553 
L 2631 2963 
z
" transform="scale(0.015625)"/>
       <path id="DejaVuSans-6e" d="M 3513 2113 
L 3513 0 
L 2938 0 
L 2938 2094 
Q 2938 2591 2744 2837 
Q 2550 3084 2163 3084 
Q 1697 3084 1428 2787 
Q 1159 2491 1159 1978 
L 1159 0 
L 581 0 
L 581 3500 
L 1159 3500 
L 1159 2956 
Q 1366 3272 1645 3428 
Q 1925 3584 2291 3584 
Q 2894 3584 3203 3211 
Q 3513 2838 3513 2113 
z
" transform="scale(0.015625)"/>
       <path id="DejaVuSans-20" transform="scale(0.015625)"/>
       <path id="DejaVuSans-5b" d="M 550 4863 
L 1875 4863 
L 1875 4416 
L 1125 4416 
L 1125 -397 
L 1875 -397 
L 1875 -844 
L 550 -844 
L 550 4863 
z
" transform="scale(0.015625)"/>
       <path id="DejaVuSans-25" d="M 4653 2053 
Q 4381 2053 4226 1822 
Q 4072 1591 4072 1178 
Q 4072 772 4226 539 
Q 4381 306 4653 306 
Q 4919 306 5073 539 
Q 5228 772 5228 1178 
Q 5228 1588 5073 1820 
Q 4919 2053 4653 2053 
z
M 4653 2450 
Q 5147 2450 5437 2106 
Q 5728 1763 5728 1178 
Q 5728 594 5436 251 
Q 5144 -91 4653 -91 
Q 4153 -91 3862 251 
Q 3572 594 3572 1178 
Q 3572 1766 3864 2108 
Q 4156 2450 4653 2450 
z
M 1428 4353 
Q 1159 4353 1004 4120 
Q 850 3888 850 3481 
Q 850 3069 1003 2837 
Q 1156 2606 1428 2606 
Q 1700 2606 1854 2837 
Q 2009 3069 2009 3481 
Q 2009 3884 1853 4118 
Q 1697 4353 1428 4353 
z
M 4250 4750 
L 4750 4750 
L 1831 -91 
L 1331 -91 
L 4250 4750 
z
M 1428 4750 
Q 1922 4750 2215 4408 
Q 2509 4066 2509 3481 
Q 2509 2891 2217 2550 
Q 1925 2209 1428 2209 
Q 931 2209 642 2551 
Q 353 2894 353 3481 
Q 353 4063 643 4406 
Q 934 4750 1428 4750 
z
" transform="scale(0.015625)"/>
       <path id="DejaVuSans-5d" d="M 1947 4863 
L 1947 -844 
L 622 -844 
L 622 -397 
L 1369 -397 
L 1369 4416 
L 622 4416 
L 622 4863 
L 1947 4863 
z
" transform="scale(0.015625)"/>
      </defs>
      <use xlink:href="#DejaVuSans-52"/>
      <use xlink:href="#DejaVuSans-65" x="64.982422"/>
      <use xlink:href="#DejaVuSans-74" x="126.505859"/>
      <use xlink:href="#DejaVuSans-75" x="165.714844"/>
      <use xlink:href="#DejaVuSans-72" x="229.09375"/>
      <use xlink:href="#DejaVuSans-6e" x="268.457031"/>
      <use xlink:href="#DejaVuSans-20" x="331.835938"/>
      <use xlink:href="#DejaVuSans-5b" x="363.623047"/>
      <use xlink:href="#DejaVuSans-25" x="402.636719"/>
      <use xlink:href="#DejaVuSans-5d" x="497.65625"/>
     </g>
    </g>
   </g>
   <g id="line2d_13">
    <path d="M 75.655554 213.194498 
L 79.467068 208.358579 
L 80.737572 211.434666 
L 85.81959 209.907188 
L 87.090094 210.096832 
L 88.360598 209.922297 
L 89.631103 211.469105 
L 94.713121 210.426152 
L 95.983625 211.164177 
L 97.254129 207.875894 
L 98.524634 206.081649 
L 102.336147 206.693397 
L 103.606651 206.124214 
L 104.877156 207.946481 
L 106.14766 210.094163 
L 107.418165 207.803715 
L 111.229678 213.243862 
L 112.500182 211.28781 
L 113.770687 210.588038 
L 115.041191 211.076692 
L 116.311696 211.693767 
L 120.123209 211.740369 
L 121.393713 206.726377 
L 122.664218 203.266556 
L 123.934722 202.662316 
L 125.205227 202.936631 
L 129.01674 201.866657 
L 130.287244 198.430637 
L 131.557749 197.690679 
L 132.828253 198.57602 
L 134.098757 198.233839 
L 137.910271 197.875287 
L 139.180775 199.131895 
L 140.45128 196.306243 
L 141.721784 196.484605 
L 142.992288 199.092118 
L 148.074306 213.550827 
L 149.34481 211.847315 
L 150.615315 219.803754 
L 151.885819 226.74045 
L 155.697333 225.38643 
L 156.967837 223.358173 
L 158.238341 222.09006 
L 159.508846 224.853553 
L 160.77935 231.979196 
L 164.590863 243.36107 
L 165.861368 244.499226 
L 167.131872 247.369086 
L 168.402377 268.386413 
L 169.672881 265.18764 
L 173.484394 271.407075 
L 174.754899 265.669878 
L 176.025403 270.344595 
L 177.295908 264.644783 
L 178.566412 267.937642 
L 182.377925 276.257169 
L 183.64843 264.211528 
L 184.918934 255.968518 
L 186.189439 252.769442 
L 187.459943 259.555259 
L 191.271456 255.621722 
L 192.541961 251.252366 
L 193.812465 258.673364 
L 195.082969 258.516541 
L 196.353474 261.488114 
L 200.164987 254.039673 
L 201.435492 247.515732 
L 202.705996 249.006114 
L 203.9765 249.10446 
L 210.329022 244.228882 
L 211.599527 251.493096 
L 212.870031 251.073162 
L 214.140536 244.398552 
L 217.952049 243.528794 
L 219.222553 249.802707 
L 220.493058 245.308232 
L 221.763562 243.433643 
L 223.034067 247.08391 
L 226.84558 243.74596 
L 228.116084 239.93411 
L 229.386589 235.679787 
L 230.657093 238.696109 
L 235.739111 248.256689 
L 237.009615 243.921627 
L 238.28012 246.127916 
L 239.550624 243.979893 
L 240.821128 240.632936 
L 244.632642 241.513976 
L 245.903146 239.733262 
L 248.444155 252.029787 
L 249.714659 249.781458 
L 253.526173 240.242575 
L 254.796677 241.015709 
L 256.067181 241.519894 
L 258.60819 241.64475 
L 262.419704 237.291173 
L 264.960712 232.716025 
L 266.231217 228.220418 
L 267.501721 231.878404 
L 271.313234 229.298572 
L 272.583739 226.985139 
L 273.854243 221.332942 
L 275.124748 222.579069 
L 276.395252 218.630371 
L 280.206765 220.319878 
L 281.47727 223.076284 
L 282.747774 223.652279 
L 284.018279 234.601199 
L 285.288783 234.599266 
L 289.100296 233.67023 
L 290.370801 226.345763 
L 291.641305 225.596864 
L 292.91181 226.86027 
L 297.993827 228.203732 
L 299.264332 224.830239 
L 300.534836 230.149868 
L 301.80534 227.776552 
L 303.075845 228.209701 
L 306.887358 226.38654 
L 308.157863 227.326465 
L 309.428367 225.925119 
L 310.698871 222.139818 
L 311.969376 223.266428 
L 315.780889 218.581546 
L 317.051393 219.952911 
L 318.321898 220.994759 
L 319.592402 222.926378 
L 320.862907 221.114368 
L 324.67442 217.023719 
L 325.944924 217.567168 
L 327.215429 213.721076 
L 328.485933 215.47006 
L 329.756438 213.418055 
L 333.567951 211.526424 
L 334.838455 212.729421 
L 336.10896 212.143235 
L 337.379464 211.978378 
L 338.649969 216.035969 
L 342.461482 214.711877 
L 343.731986 215.508851 
L 345.002491 214.675886 
L 346.272995 219.975726 
L 347.543499 221.675911 
L 351.355013 216.551541 
L 352.625517 218.13927 
L 353.896022 216.660854 
L 355.166526 217.495436 
L 356.43703 217.322505 
L 360.248544 216.210623 
L 361.519048 211.296528 
L 362.789552 210.940146 
L 364.060057 211.2289 
L 365.330561 215.515045 
L 369.142075 212.973597 
L 370.412579 214.74103 
L 371.683083 212.74929 
L 372.953588 215.813818 
L 374.224092 215.655602 
L 378.035606 211.018637 
L 379.30611 211.299027 
L 380.576614 209.71519 
L 381.847119 210.285937 
L 383.117623 212.574097 
L 386.929136 213.920359 
L 388.199641 213.510971 
L 389.470145 211.746628 
L 390.74065 214.672231 
L 392.011154 214.490502 
L 395.822667 209.59032 
L 397.093172 211.781606 
L 398.363676 207.83847 
L 399.634181 209.117958 
L 400.904685 209.301173 
L 404.716198 209.138879 
L 405.986703 207.020416 
L 407.257207 204.461558 
L 408.527712 205.055555 
L 409.798216 204.842793 
L 413.609729 213.357711 
L 414.880234 211.870669 
L 416.150738 210.066312 
L 417.421242 212.449727 
L 418.691747 211.614277 
L 422.50326 204.93797 
L 423.773765 204.680434 
L 425.044269 205.626289 
L 426.314773 205.542565 
L 427.585278 207.693311 
L 431.396791 204.275556 
L 433.9378 204.335545 
L 435.208304 204.049592 
L 436.478809 204.22418 
L 440.290322 202.209547 
L 441.560826 205.093636 
L 442.831331 204.120811 
L 444.101835 207.789461 
L 445.37234 204.850512 
L 449.183853 204.024358 
L 450.454357 204.024542 
L 451.724862 206.768719 
L 452.995366 207.350433 
L 454.265871 206.870984 
L 458.077384 212.778785 
L 459.347888 214.225694 
L 460.618393 219.662251 
L 461.888897 220.535138 
L 463.159401 220.325309 
L 466.970915 216.274964 
L 470.782428 206.572158 
L 472.052932 206.926528 
L 475.864446 197.824411 
L 477.13495 198.245135 
L 478.405454 195.963379 
L 479.675959 197.341753 
L 480.946463 196.698932 
L 484.757977 193.915872 
L 486.028481 193.424364 
L 487.298985 193.380773 
L 488.56949 194.318317 
L 489.839994 192.862439 
L 493.651507 193.480539 
L 494.922012 191.328203 
L 496.192516 192.210242 
L 497.463021 192.139142 
L 498.733525 191.465945 
L 502.545038 194.036572 
L 503.815543 193.187512 
L 505.086047 193.845521 
L 506.356552 194.742262 
L 507.627056 194.115944 
L 511.438569 195.342649 
L 512.709074 192.989544 
L 513.979578 192.868672 
L 515.250083 195.447084 
L 516.520587 197.498392 
L 521.602605 197.679634 
L 522.873109 197.361228 
L 524.143613 198.2925 
L 525.414118 198.06793 
L 529.225631 203.56078 
L 530.496136 201.171565 
L 531.76664 200.552032 
L 531.76664 200.552032 
" clip-path="url(#pad7e9e6c25)" style="fill: none; stroke: #008000; stroke-width: 1.5; stroke-linecap: square"/>
   </g>
   <g id="line2d_14">
    <path d="M 75.655554 209.660179 
L 79.467068 210.491777 
L 80.737572 207.729503 
L 85.81959 209.767847 
L 87.090094 210.653473 
L 88.360598 210.71571 
L 89.631103 209.142445 
L 94.713121 209.554504 
L 95.983625 211.242244 
L 97.254129 211.709738 
L 98.524634 209.550565 
L 102.336147 208.770329 
L 103.606651 210.657966 
L 104.877156 211.372376 
L 106.14766 212.77831 
L 107.418165 215.927441 
L 111.229678 215.125077 
L 112.500182 218.910311 
L 113.770687 215.565131 
L 115.041191 216.287657 
L 116.311696 217.227498 
L 120.123209 218.600687 
L 121.393713 219.406207 
L 122.664218 217.092606 
L 123.934722 213.810444 
L 125.205227 215.45153 
L 129.01674 215.536355 
L 130.287244 211.75157 
L 132.828253 205.704578 
L 134.098757 204.460721 
L 137.910271 201.885344 
L 139.180775 202.010925 
L 140.45128 200.988251 
L 141.721784 198.310262 
L 142.992288 198.725502 
L 146.803802 204.175221 
L 191.271456 204.175221 
L 192.541961 186.726953 
L 193.812465 186.837056 
L 195.082969 189.796664 
L 196.353474 189.396162 
L 200.164987 183.192071 
L 201.435492 172.316918 
L 202.705996 170.950826 
L 203.9765 166.076249 
L 210.329022 157.088058 
L 211.599527 154.183142 
L 212.870031 164.869352 
L 214.140536 158.858001 
L 217.952049 155.45557 
L 219.222553 154.756849 
L 220.493058 153.545028 
L 221.763562 153.968105 
L 223.034067 151.870968 
L 226.84558 147.824504 
L 228.116084 149.20283 
L 229.386589 146.065069 
L 230.657093 139.742084 
L 235.739111 151.451043 
L 237.009615 155.390829 
L 238.28012 154.548285 
L 239.550624 155.597066 
L 240.821128 148.208258 
L 244.632642 147.252857 
L 245.903146 146.589074 
L 247.173651 146.151245 
L 248.444155 152.225521 
L 249.714659 153.437349 
L 253.526173 152.189759 
L 256.067181 145.128775 
L 258.60819 146.404148 
L 262.419704 147.038514 
L 263.690208 141.961644 
L 264.960712 137.88335 
L 266.231217 137.199334 
L 267.501721 137.092534 
L 271.313234 128.946158 
L 272.583739 130.363897 
L 273.854243 127.727478 
L 275.124748 123.079734 
L 276.395252 113.789177 
L 280.206765 111.114679 
L 281.47727 111.989772 
L 282.747774 114.596791 
L 284.018279 118.206611 
L 285.288783 138.957143 
L 289.100296 131.819162 
L 290.370801 126.049448 
L 291.641305 122.574202 
L 292.91181 121.874734 
L 297.993827 122.931296 
L 299.264332 126.340063 
L 300.534836 125.22351 
L 301.80534 131.63962 
L 303.075845 129.388921 
L 306.887358 130.954391 
L 308.157863 129.869542 
L 309.428367 127.584263 
L 310.698871 121.704238 
L 311.969376 117.198267 
L 315.780889 111.965104 
L 317.051393 109.560862 
L 318.321898 102.453717 
L 319.592402 93.885785 
L 320.862907 97.910648 
L 324.67442 97.185028 
L 325.944924 68.17058 
L 327.215429 72.050974 
L 328.485933 73.694914 
L 329.756438 76.933141 
L 333.567951 75.34513 
L 334.838455 74.485049 
L 336.10896 79.714411 
L 337.379464 77.751594 
L 338.649969 70.502122 
L 342.461482 69.533678 
L 343.731986 64.795621 
L 345.002491 67.805542 
L 346.272995 60.232479 
L 347.543499 69.658047 
L 351.355013 66.928071 
L 352.625517 62.78126 
L 353.896022 56.004012 
L 355.166526 44.743899 
L 356.43703 41.321462 
L 360.248544 45.352362 
L 361.519048 50.180569 
L 362.789552 49.414822 
L 364.060057 74.267349 
L 365.330561 73.221016 
L 369.142075 79.270651 
L 370.412579 71.515216 
L 371.683083 71.396253 
L 372.953588 74.622807 
L 374.224092 76.904207 
L 378.035606 71.297298 
L 379.30611 71.135971 
L 380.576614 71.989833 
L 381.847119 68.269085 
L 383.117623 68.817397 
L 386.929136 66.441357 
L 388.199641 67.330936 
L 389.470145 66.301636 
L 390.74065 61.770895 
L 392.011154 70.73561 
L 395.822667 70.73561 
L 397.093172 66.83371 
L 398.363676 71.801379 
L 399.634181 67.621081 
L 400.904685 69.510503 
L 404.716198 67.288216 
L 405.986703 65.211322 
L 407.257207 64.962292 
L 408.527712 63.916721 
L 409.798216 58.756504 
L 413.609729 58.005959 
L 414.880234 68.337622 
L 416.150738 66.03455 
L 417.421242 67.788881 
L 418.691747 68.322869 
L 422.50326 66.537283 
L 423.773765 63.353618 
L 425.044269 57.936148 
L 426.314773 56.126252 
L 427.585278 53.913273 
L 431.396791 54.105452 
L 432.667295 50.167572 
L 433.9378 52.636853 
L 435.208304 44.382849 
L 436.478809 41.661024 
L 440.290322 43.876763 
L 441.560826 44.059684 
L 442.831331 42.491271 
L 444.101835 41.220728 
L 445.37234 44.991415 
L 449.183853 45.452251 
L 450.454357 46.32964 
L 451.724862 46.850357 
L 472.052932 46.850357 
L 475.864446 40.815 
L 477.13495 47.731117 
L 478.405454 49.349889 
L 479.675959 47.249552 
L 480.946463 49.700957 
L 484.757977 43.31057 
L 486.028481 40.159819 
L 487.298985 44.20119 
L 488.56949 45.937521 
L 489.839994 46.516749 
L 493.651507 45.880809 
L 494.922012 44.150186 
L 496.192516 40.788132 
L 497.463021 43.494988 
L 498.733525 43.122601 
L 502.545038 43.911879 
L 503.815543 42.445748 
L 505.086047 41.92083 
L 506.356552 40.695537 
L 507.627056 43.704344 
L 511.438569 42.893595 
L 512.709074 44.283521 
L 513.979578 40.545664 
L 515.250083 38.810389 
L 516.520587 42.378926 
L 520.3321 43.009162 
L 521.602605 43.669453 
L 522.873109 42.252506 
L 524.143613 39.676708 
L 525.414118 39.256729 
L 529.225631 38.755103 
L 530.496136 44.519728 
L 531.76664 38.846537 
L 531.76664 38.846537 
" clip-path="url(#pad7e9e6c25)" style="fill: none; stroke: #0000ff; stroke-width: 1.5; stroke-linecap: square"/>
   </g>
   <g id="line2d_15">
    <path d="M 75.655554 209.660179 
L 79.467068 209.660179 
L 80.737572 207.729503 
L 131.557749 207.729503 
L 132.828253 205.704578 
L 134.098757 204.460721 
L 137.910271 201.885344 
L 139.180775 201.885344 
L 140.45128 200.988251 
L 141.721784 198.310262 
L 191.271456 198.310262 
L 192.541961 186.726953 
L 196.353474 186.726953 
L 200.164987 183.192071 
L 201.435492 172.316918 
L 202.705996 170.950826 
L 203.9765 166.076249 
L 210.329022 157.088058 
L 211.599527 154.183142 
L 219.222553 154.183142 
L 220.493058 153.545028 
L 221.763562 153.545028 
L 223.034067 151.870968 
L 226.84558 147.824504 
L 228.116084 147.824504 
L 229.386589 146.065069 
L 230.657093 139.742084 
L 263.690208 139.742084 
L 264.960712 137.88335 
L 266.231217 137.199334 
L 267.501721 137.092534 
L 271.313234 128.946158 
L 272.583739 128.946158 
L 273.854243 127.727478 
L 275.124748 123.079734 
L 276.395252 113.789177 
L 280.206765 111.114679 
L 315.780889 111.114679 
L 317.051393 109.560862 
L 318.321898 102.453717 
L 319.592402 93.885785 
L 324.67442 93.885785 
L 325.944924 68.17058 
L 342.461482 68.17058 
L 343.731986 64.795621 
L 345.002491 64.795621 
L 346.272995 60.232479 
L 352.625517 60.232479 
L 353.896022 56.004012 
L 355.166526 44.743899 
L 356.43703 41.321462 
L 472.052932 41.220728 
L 475.864446 40.815 
L 484.757977 40.815 
L 486.028481 40.159819 
L 513.979578 40.159819 
L 515.250083 38.810389 
L 531.76664 38.755103 
L 531.76664 38.755103 
" clip-path="url(#pad7e9e6c25)" style="fill: none; stroke: #ff0000; stroke-width: 1.5; stroke-linecap: square"/>
   </g>
   <g id="patch_3">
    <path d="M 52.85 288.132273 
L 52.85 26.88 
" style="fill: none; stroke: #000000; stroke-width: 0.8; stroke-linejoin: miter; stroke-linecap: square"/>
   </g>
   <g id="patch_4">
    <path d="M 554.572194 288.132273 
L 554.572194 26.88 
" style="fill: none; stroke: #000000; stroke-width: 0.8; stroke-linejoin: miter; stroke-linecap: square"/>
   </g>
   <g id="patch_5">
    <path d="M 52.85 288.132273 
L 554.572194 288.132273 
" style="fill: none; stroke: #000000; stroke-width: 0.8; stroke-linejoin: miter; stroke-linecap: square"/>
   </g>
   <g id="patch_6">
    <path d="M 52.85 26.88 
L 554.572194 26.88 
" style="fill: none; stroke: #000000; stroke-width: 0.8; stroke-linejoin: miter; stroke-linecap: square"/>
   </g>
   <g id="text_7">
    <!-- Performance of AVAN-strategy year 2020 -->
    <g transform="translate(180.397972 20.88)scale(0.12 -0.12)">
     <defs>
      <path id="DejaVuSans-50" d="M 1259 4147 
L 1259 2394 
L 2053 2394 
Q 2494 2394 2734 2622 
Q 2975 2850 2975 3272 
Q 2975 3691 2734 3919 
Q 2494 4147 2053 4147 
L 1259 4147 
z
M 628 4666 
L 2053 4666 
Q 2838 4666 3239 4311 
Q 3641 3956 3641 3272 
Q 3641 2581 3239 2228 
Q 2838 1875 2053 1875 
L 1259 1875 
L 1259 0 
L 628 0 
L 628 4666 
z
" transform="scale(0.015625)"/>
      <path id="DejaVuSans-66" d="M 2375 4863 
L 2375 4384 
L 1825 4384 
Q 1516 4384 1395 4259 
Q 1275 4134 1275 3809 
L 1275 3500 
L 2222 3500 
L 2222 3053 
L 1275 3053 
L 1275 0 
L 697 0 
L 697 3053 
L 147 3053 
L 147 3500 
L 697 3500 
L 697 3744 
Q 697 4328 969 4595 
Q 1241 4863 1831 4863 
L 2375 4863 
z
" transform="scale(0.015625)"/>
      <path id="DejaVuSans-6f" d="M 1959 3097 
Q 1497 3097 1228 2736 
Q 959 2375 959 1747 
Q 959 1119 1226 758 
Q 1494 397 1959 397 
Q 2419 397 2687 759 
Q 2956 1122 2956 1747 
Q 2956 2369 2687 2733 
Q 2419 3097 1959 3097 
z
M 1959 3584 
Q 2709 3584 3137 3096 
Q 3566 2609 3566 1747 
Q 3566 888 3137 398 
Q 2709 -91 1959 -91 
Q 1206 -91 779 398 
Q 353 888 353 1747 
Q 353 2609 779 3096 
Q 1206 3584 1959 3584 
z
" transform="scale(0.015625)"/>
      <path id="DejaVuSans-6d" d="M 3328 2828 
Q 3544 3216 3844 3400 
Q 4144 3584 4550 3584 
Q 5097 3584 5394 3201 
Q 5691 2819 5691 2113 
L 5691 0 
L 5113 0 
L 5113 2094 
Q 5113 2597 4934 2840 
Q 4756 3084 4391 3084 
Q 3944 3084 3684 2787 
Q 3425 2491 3425 1978 
L 3425 0 
L 2847 0 
L 2847 2094 
Q 2847 2600 2669 2842 
Q 2491 3084 2119 3084 
Q 1678 3084 1418 2786 
Q 1159 2488 1159 1978 
L 1159 0 
L 581 0 
L 581 3500 
L 1159 3500 
L 1159 2956 
Q 1356 3278 1631 3431 
Q 1906 3584 2284 3584 
Q 2666 3584 2933 3390 
Q 3200 3197 3328 2828 
z
" transform="scale(0.015625)"/>
      <path id="DejaVuSans-61" d="M 2194 1759 
Q 1497 1759 1228 1600 
Q 959 1441 959 1056 
Q 959 750 1161 570 
Q 1363 391 1709 391 
Q 2188 391 2477 730 
Q 2766 1069 2766 1631 
L 2766 1759 
L 2194 1759 
z
M 3341 1997 
L 3341 0 
L 2766 0 
L 2766 531 
Q 2569 213 2275 61 
Q 1981 -91 1556 -91 
Q 1019 -91 701 211 
Q 384 513 384 1019 
Q 384 1609 779 1909 
Q 1175 2209 1959 2209 
L 2766 2209 
L 2766 2266 
Q 2766 2663 2505 2880 
Q 2244 3097 1772 3097 
Q 1472 3097 1187 3025 
Q 903 2953 641 2809 
L 641 3341 
Q 956 3463 1253 3523 
Q 1550 3584 1831 3584 
Q 2591 3584 2966 3190 
Q 3341 2797 3341 1997 
z
" transform="scale(0.015625)"/>
      <path id="DejaVuSans-63" d="M 3122 3366 
L 3122 2828 
Q 2878 2963 2633 3030 
Q 2388 3097 2138 3097 
Q 1578 3097 1268 2742 
Q 959 2388 959 1747 
Q 959 1106 1268 751 
Q 1578 397 2138 397 
Q 2388 397 2633 464 
Q 2878 531 3122 666 
L 3122 134 
Q 2881 22 2623 -34 
Q 2366 -91 2075 -91 
Q 1284 -91 818 406 
Q 353 903 353 1747 
Q 353 2603 823 3093 
Q 1294 3584 2113 3584 
Q 2378 3584 2631 3529 
Q 2884 3475 3122 3366 
z
" transform="scale(0.015625)"/>
      <path id="DejaVuSans-41" d="M 2188 4044 
L 1331 1722 
L 3047 1722 
L 2188 4044 
z
M 1831 4666 
L 2547 4666 
L 4325 0 
L 3669 0 
L 3244 1197 
L 1141 1197 
L 716 0 
L 50 0 
L 1831 4666 
z
" transform="scale(0.015625)"/>
      <path id="DejaVuSans-56" d="M 1831 0 
L 50 4666 
L 709 4666 
L 2188 738 
L 3669 4666 
L 4325 4666 
L 2547 0 
L 1831 0 
z
" transform="scale(0.015625)"/>
      <path id="DejaVuSans-4e" d="M 628 4666 
L 1478 4666 
L 3547 763 
L 3547 4666 
L 4159 4666 
L 4159 0 
L 3309 0 
L 1241 3903 
L 1241 0 
L 628 0 
L 628 4666 
z
" transform="scale(0.015625)"/>
      <path id="DejaVuSans-2d" d="M 313 2009 
L 1997 2009 
L 1997 1497 
L 313 1497 
L 313 2009 
z
" transform="scale(0.015625)"/>
      <path id="DejaVuSans-73" d="M 2834 3397 
L 2834 2853 
Q 2591 2978 2328 3040 
Q 2066 3103 1784 3103 
Q 1356 3103 1142 2972 
Q 928 2841 928 2578 
Q 928 2378 1081 2264 
Q 1234 2150 1697 2047 
L 1894 2003 
Q 2506 1872 2764 1633 
Q 3022 1394 3022 966 
Q 3022 478 2636 193 
Q 2250 -91 1575 -91 
Q 1294 -91 989 -36 
Q 684 19 347 128 
L 347 722 
Q 666 556 975 473 
Q 1284 391 1588 391 
Q 1994 391 2212 530 
Q 2431 669 2431 922 
Q 2431 1156 2273 1281 
Q 2116 1406 1581 1522 
L 1381 1569 
Q 847 1681 609 1914 
Q 372 2147 372 2553 
Q 372 3047 722 3315 
Q 1072 3584 1716 3584 
Q 2034 3584 2315 3537 
Q 2597 3491 2834 3397 
z
" transform="scale(0.015625)"/>
      <path id="DejaVuSans-67" d="M 2906 1791 
Q 2906 2416 2648 2759 
Q 2391 3103 1925 3103 
Q 1463 3103 1205 2759 
Q 947 2416 947 1791 
Q 947 1169 1205 825 
Q 1463 481 1925 481 
Q 2391 481 2648 825 
Q 2906 1169 2906 1791 
z
M 3481 434 
Q 3481 -459 3084 -895 
Q 2688 -1331 1869 -1331 
Q 1566 -1331 1297 -1286 
Q 1028 -1241 775 -1147 
L 775 -588 
Q 1028 -725 1275 -790 
Q 1522 -856 1778 -856 
Q 2344 -856 2625 -561 
Q 2906 -266 2906 331 
L 2906 616 
Q 2728 306 2450 153 
Q 2172 0 1784 0 
Q 1141 0 747 490 
Q 353 981 353 1791 
Q 353 2603 747 3093 
Q 1141 3584 1784 3584 
Q 2172 3584 2450 3431 
Q 2728 3278 2906 2969 
L 2906 3500 
L 3481 3500 
L 3481 434 
z
" transform="scale(0.015625)"/>
      <path id="DejaVuSans-79" d="M 2059 -325 
Q 1816 -950 1584 -1140 
Q 1353 -1331 966 -1331 
L 506 -1331 
L 506 -850 
L 844 -850 
Q 1081 -850 1212 -737 
Q 1344 -625 1503 -206 
L 1606 56 
L 191 3500 
L 800 3500 
L 1894 763 
L 2988 3500 
L 3597 3500 
L 2059 -325 
z
" transform="scale(0.015625)"/>
     </defs>
     <use xlink:href="#DejaVuSans-50"/>
     <use xlink:href="#DejaVuSans-65" x="56.677734"/>
     <use xlink:href="#DejaVuSans-72" x="118.201172"/>
     <use xlink:href="#DejaVuSans-66" x="159.314453"/>
     <use xlink:href="#DejaVuSans-6f" x="194.519531"/>
     <use xlink:href="#DejaVuSans-72" x="255.701172"/>
     <use xlink:href="#DejaVuSans-6d" x="295.064453"/>
     <use xlink:href="#DejaVuSans-61" x="392.476562"/>
     <use xlink:href="#DejaVuSans-6e" x="453.755859"/>
     <use xlink:href="#DejaVuSans-63" x="517.134766"/>
     <use xlink:href="#DejaVuSans-65" x="572.115234"/>
     <use xlink:href="#DejaVuSans-20" x="633.638672"/>
     <use xlink:href="#DejaVuSans-6f" x="665.425781"/>
     <use xlink:href="#DejaVuSans-66" x="726.607422"/>
     <use xlink:href="#DejaVuSans-20" x="761.8125"/>
     <use xlink:href="#DejaVuSans-41" x="793.599609"/>
     <use xlink:href="#DejaVuSans-56" x="855.632812"/>
     <use xlink:href="#DejaVuSans-41" x="917.666016"/>
     <use xlink:href="#DejaVuSans-4e" x="986.074219"/>
     <use xlink:href="#DejaVuSans-2d" x="1060.878906"/>
     <use xlink:href="#DejaVuSans-73" x="1096.962891"/>
     <use xlink:href="#DejaVuSans-74" x="1149.0625"/>
     <use xlink:href="#DejaVuSans-72" x="1188.271484"/>
     <use xlink:href="#DejaVuSans-61" x="1229.384766"/>
     <use xlink:href="#DejaVuSans-74" x="1290.664062"/>
     <use xlink:href="#DejaVuSans-65" x="1329.873047"/>
     <use xlink:href="#DejaVuSans-67" x="1391.396484"/>
     <use xlink:href="#DejaVuSans-79" x="1454.873047"/>
     <use xlink:href="#DejaVuSans-20" x="1514.052734"/>
     <use xlink:href="#DejaVuSans-79" x="1545.839844"/>
     <use xlink:href="#DejaVuSans-65" x="1605.019531"/>
     <use xlink:href="#DejaVuSans-61" x="1666.542969"/>
     <use xlink:href="#DejaVuSans-72" x="1727.822266"/>
     <use xlink:href="#DejaVuSans-20" x="1768.935547"/>
     <use xlink:href="#DejaVuSans-32" x="1800.722656"/>
     <use xlink:href="#DejaVuSans-30" x="1864.345703"/>
     <use xlink:href="#DejaVuSans-32" x="1927.96875"/>
     <use xlink:href="#DejaVuSans-30" x="1991.591797"/>
    </g>
   </g>
   <g id="legend_1">
    <g id="patch_7">
     <path d="M 59.85 78.914375 
L 187.271875 78.914375 
Q 189.271875 78.914375 189.271875 76.914375 
L 189.271875 33.88 
Q 189.271875 31.88 187.271875 31.88 
L 59.85 31.88 
Q 57.85 31.88 57.85 33.88 
L 57.85 76.914375 
Q 57.85 78.914375 59.85 78.914375 
z
" style="fill: #ffffff; opacity: 0.8; stroke: #cccccc; stroke-linejoin: miter"/>
    </g>
    <g id="line2d_16">
     <path d="M 61.85 39.978438 
L 71.85 39.978438 
L 81.85 39.978438 
" style="fill: none; stroke: #008000; stroke-width: 1.5; stroke-linecap: square"/>
    </g>
    <g id="text_8">
     <!-- 3.9% return omx -->
     <g transform="translate(89.85 43.478438)scale(0.1 -0.1)">
      <defs>
       <path id="DejaVuSans-33" d="M 2597 2516 
Q 3050 2419 3304 2112 
Q 3559 1806 3559 1356 
Q 3559 666 3084 287 
Q 2609 -91 1734 -91 
Q 1441 -91 1130 -33 
Q 819 25 488 141 
L 488 750 
Q 750 597 1062 519 
Q 1375 441 1716 441 
Q 2309 441 2620 675 
Q 2931 909 2931 1356 
Q 2931 1769 2642 2001 
Q 2353 2234 1838 2234 
L 1294 2234 
L 1294 2753 
L 1863 2753 
Q 2328 2753 2575 2939 
Q 2822 3125 2822 3475 
Q 2822 3834 2567 4026 
Q 2313 4219 1838 4219 
Q 1578 4219 1281 4162 
Q 984 4106 628 3988 
L 628 4550 
Q 988 4650 1302 4700 
Q 1616 4750 1894 4750 
Q 2613 4750 3031 4423 
Q 3450 4097 3450 3541 
Q 3450 3153 3228 2886 
Q 3006 2619 2597 2516 
z
" transform="scale(0.015625)"/>
       <path id="DejaVuSans-2e" d="M 684 794 
L 1344 794 
L 1344 0 
L 684 0 
L 684 794 
z
" transform="scale(0.015625)"/>
       <path id="DejaVuSans-39" d="M 703 97 
L 703 672 
Q 941 559 1184 500 
Q 1428 441 1663 441 
Q 2288 441 2617 861 
Q 2947 1281 2994 2138 
Q 2813 1869 2534 1725 
Q 2256 1581 1919 1581 
Q 1219 1581 811 2004 
Q 403 2428 403 3163 
Q 403 3881 828 4315 
Q 1253 4750 1959 4750 
Q 2769 4750 3195 4129 
Q 3622 3509 3622 2328 
Q 3622 1225 3098 567 
Q 2575 -91 1691 -91 
Q 1453 -91 1209 -44 
Q 966 3 703 97 
z
M 1959 2075 
Q 2384 2075 2632 2365 
Q 2881 2656 2881 3163 
Q 2881 3666 2632 3958 
Q 2384 4250 1959 4250 
Q 1534 4250 1286 3958 
Q 1038 3666 1038 3163 
Q 1038 2656 1286 2365 
Q 1534 2075 1959 2075 
z
" transform="scale(0.015625)"/>
       <path id="DejaVuSans-78" d="M 3513 3500 
L 2247 1797 
L 3578 0 
L 2900 0 
L 1881 1375 
L 863 0 
L 184 0 
L 1544 1831 
L 300 3500 
L 978 3500 
L 1906 2253 
L 2834 3500 
L 3513 3500 
z
" transform="scale(0.015625)"/>
      </defs>
      <use xlink:href="#DejaVuSans-33"/>
      <use xlink:href="#DejaVuSans-2e" x="63.623047"/>
      <use xlink:href="#DejaVuSans-39" x="95.410156"/>
      <use xlink:href="#DejaVuSans-25" x="159.033203"/>
      <use xlink:href="#DejaVuSans-20" x="254.052734"/>
      <use xlink:href="#DejaVuSans-72" x="285.839844"/>
      <use xlink:href="#DejaVuSans-65" x="324.703125"/>
      <use xlink:href="#DejaVuSans-74" x="386.226562"/>
      <use xlink:href="#DejaVuSans-75" x="425.435547"/>
      <use xlink:href="#DejaVuSans-72" x="488.814453"/>
      <use xlink:href="#DejaVuSans-6e" x="528.177734"/>
      <use xlink:href="#DejaVuSans-20" x="591.556641"/>
      <use xlink:href="#DejaVuSans-6f" x="623.34375"/>
      <use xlink:href="#DejaVuSans-6d" x="684.525391"/>
      <use xlink:href="#DejaVuSans-78" x="781.9375"/>
     </g>
    </g>
    <g id="line2d_17">
     <path d="M 61.85 54.656563 
L 71.85 54.656563 
L 81.85 54.656563 
" style="fill: none; stroke: #0000ff; stroke-width: 1.5; stroke-linecap: square"/>
    </g>
    <g id="text_9">
     <!-- 72.3% return AVAN -->
     <g transform="translate(89.85 58.156563)scale(0.1 -0.1)">
      <defs>
       <path id="DejaVuSans-37" d="M 525 4666 
L 3525 4666 
L 3525 4397 
L 1831 0 
L 1172 0 
L 2766 4134 
L 525 4134 
L 525 4666 
z
" transform="scale(0.015625)"/>
      </defs>
      <use xlink:href="#DejaVuSans-37"/>
      <use xlink:href="#DejaVuSans-32" x="63.623047"/>
      <use xlink:href="#DejaVuSans-2e" x="127.246094"/>
      <use xlink:href="#DejaVuSans-33" x="159.033203"/>
      <use xlink:href="#DejaVuSans-25" x="222.65625"/>
      <use xlink:href="#DejaVuSans-20" x="317.675781"/>
      <use xlink:href="#DejaVuSans-72" x="349.462891"/>
      <use xlink:href="#DejaVuSans-65" x="388.326172"/>
      <use xlink:href="#DejaVuSans-74" x="449.849609"/>
      <use xlink:href="#DejaVuSans-75" x="489.058594"/>
      <use xlink:href="#DejaVuSans-72" x="552.4375"/>
      <use xlink:href="#DejaVuSans-6e" x="591.800781"/>
      <use xlink:href="#DejaVuSans-20" x="655.179688"/>
      <use xlink:href="#DejaVuSans-41" x="686.966797"/>
      <use xlink:href="#DejaVuSans-56" x="749"/>
      <use xlink:href="#DejaVuSans-41" x="811.033203"/>
      <use xlink:href="#DejaVuSans-4e" x="879.441406"/>
     </g>
    </g>
    <g id="line2d_18">
     <path d="M 61.85 69.334688 
L 71.85 69.334688 
L 81.85 69.334688 
" style="fill: none; stroke: #ff0000; stroke-width: 1.5; stroke-linecap: square"/>
    </g>
    <g id="text_10">
     <!-- cummax -->
     <g transform="translate(89.85 72.834688)scale(0.1 -0.1)">
      <use xlink:href="#DejaVuSans-63"/>
      <use xlink:href="#DejaVuSans-75" x="54.980469"/>
      <use xlink:href="#DejaVuSans-6d" x="118.359375"/>
      <use xlink:href="#DejaVuSans-6d" x="215.771484"/>
      <use xlink:href="#DejaVuSans-61" x="313.183594"/>
      <use xlink:href="#DejaVuSans-78" x="374.462891"/>
     </g>
    </g>
   </g>
  </g>
  <g id="axes_2">
   <g id="patch_8">
    <path d="M 52.85 390.04 
L 554.572194 390.04 
L 554.572194 302.955909 
L 52.85 302.955909 
z
" style="fill: #ffffff"/>
   </g>
   <g id="matplotlib.axis_3">
    <g id="xtick_8">
     <g id="line2d_19">
      <g>
       <use xlink:href="#mfaabaf2581" x="78.196563" y="390.04" style="stroke: #000000; stroke-width: 0.8"/>
      </g>
     </g>
     <g id="text_11">
      <!-- 2020-01 -->
      <g transform="translate(57.305157 404.638438)scale(0.1 -0.1)">
       <defs>
        <path id="DejaVuSans-31" d="M 794 531 
L 1825 531 
L 1825 4091 
L 703 3866 
L 703 4441 
L 1819 4666 
L 2450 4666 
L 2450 531 
L 3481 531 
L 3481 0 
L 794 0 
L 794 531 
z
" transform="scale(0.015625)"/>
       </defs>
       <use xlink:href="#DejaVuSans-32"/>
       <use xlink:href="#DejaVuSans-30" x="63.623047"/>
       <use xlink:href="#DejaVuSans-32" x="127.246094"/>
       <use xlink:href="#DejaVuSans-30" x="190.869141"/>
       <use xlink:href="#DejaVuSans-2d" x="254.492188"/>
       <use xlink:href="#DejaVuSans-30" x="290.576172"/>
       <use xlink:href="#DejaVuSans-31" x="354.199219"/>
      </g>
     </g>
    </g>
    <g id="xtick_9">
     <g id="line2d_20">
      <g>
       <use xlink:href="#mfaabaf2581" x="154.426828" y="390.04" style="stroke: #000000; stroke-width: 0.8"/>
      </g>
     </g>
     <g id="text_12">
      <!-- 2020-03 -->
      <g transform="translate(133.535422 404.638438)scale(0.1 -0.1)">
       <use xlink:href="#DejaVuSans-32"/>
       <use xlink:href="#DejaVuSans-30" x="63.623047"/>
       <use xlink:href="#DejaVuSans-32" x="127.246094"/>
       <use xlink:href="#DejaVuSans-30" x="190.869141"/>
       <use xlink:href="#DejaVuSans-2d" x="254.492188"/>
       <use xlink:href="#DejaVuSans-30" x="290.576172"/>
       <use xlink:href="#DejaVuSans-33" x="354.199219"/>
      </g>
     </g>
    </g>
    <g id="xtick_10">
     <g id="line2d_21">
      <g>
       <use xlink:href="#mfaabaf2581" x="231.927598" y="390.04" style="stroke: #000000; stroke-width: 0.8"/>
      </g>
     </g>
     <g id="text_13">
      <!-- 2020-05 -->
      <g transform="translate(211.036191 404.638438)scale(0.1 -0.1)">
       <defs>
        <path id="DejaVuSans-35" d="M 691 4666 
L 3169 4666 
L 3169 4134 
L 1269 4134 
L 1269 2991 
Q 1406 3038 1543 3061 
Q 1681 3084 1819 3084 
Q 2600 3084 3056 2656 
Q 3513 2228 3513 1497 
Q 3513 744 3044 326 
Q 2575 -91 1722 -91 
Q 1428 -91 1123 -41 
Q 819 9 494 109 
L 494 744 
Q 775 591 1075 516 
Q 1375 441 1709 441 
Q 2250 441 2565 725 
Q 2881 1009 2881 1497 
Q 2881 1984 2565 2268 
Q 2250 2553 1709 2553 
Q 1456 2553 1204 2497 
Q 953 2441 691 2322 
L 691 4666 
z
" transform="scale(0.015625)"/>
       </defs>
       <use xlink:href="#DejaVuSans-32"/>
       <use xlink:href="#DejaVuSans-30" x="63.623047"/>
       <use xlink:href="#DejaVuSans-32" x="127.246094"/>
       <use xlink:href="#DejaVuSans-30" x="190.869141"/>
       <use xlink:href="#DejaVuSans-2d" x="254.492188"/>
       <use xlink:href="#DejaVuSans-30" x="290.576172"/>
       <use xlink:href="#DejaVuSans-35" x="354.199219"/>
      </g>
     </g>
    </g>
    <g id="xtick_11">
     <g id="line2d_22">
      <g>
       <use xlink:href="#mfaabaf2581" x="309.428367" y="390.04" style="stroke: #000000; stroke-width: 0.8"/>
      </g>
     </g>
     <g id="text_14">
      <!-- 2020-07 -->
      <g transform="translate(288.536961 404.638438)scale(0.1 -0.1)">
       <use xlink:href="#DejaVuSans-32"/>
       <use xlink:href="#DejaVuSans-30" x="63.623047"/>
       <use xlink:href="#DejaVuSans-32" x="127.246094"/>
       <use xlink:href="#DejaVuSans-30" x="190.869141"/>
       <use xlink:href="#DejaVuSans-2d" x="254.492188"/>
       <use xlink:href="#DejaVuSans-30" x="290.576172"/>
       <use xlink:href="#DejaVuSans-37" x="354.199219"/>
      </g>
     </g>
    </g>
    <g id="xtick_12">
     <g id="line2d_23">
      <g>
       <use xlink:href="#mfaabaf2581" x="388.199641" y="390.04" style="stroke: #000000; stroke-width: 0.8"/>
      </g>
     </g>
     <g id="text_15">
      <!-- 2020-09 -->
      <g transform="translate(367.308235 404.638438)scale(0.1 -0.1)">
       <use xlink:href="#DejaVuSans-32"/>
       <use xlink:href="#DejaVuSans-30" x="63.623047"/>
       <use xlink:href="#DejaVuSans-32" x="127.246094"/>
       <use xlink:href="#DejaVuSans-30" x="190.869141"/>
       <use xlink:href="#DejaVuSans-2d" x="254.492188"/>
       <use xlink:href="#DejaVuSans-30" x="290.576172"/>
       <use xlink:href="#DejaVuSans-39" x="354.199219"/>
      </g>
     </g>
    </g>
    <g id="xtick_13">
     <g id="line2d_24">
      <g>
       <use xlink:href="#mfaabaf2581" x="465.70041" y="390.04" style="stroke: #000000; stroke-width: 0.8"/>
      </g>
     </g>
     <g id="text_16">
      <!-- 2020-11 -->
      <g transform="translate(444.809004 404.638438)scale(0.1 -0.1)">
       <use xlink:href="#DejaVuSans-32"/>
       <use xlink:href="#DejaVuSans-30" x="63.623047"/>
       <use xlink:href="#DejaVuSans-32" x="127.246094"/>
       <use xlink:href="#DejaVuSans-30" x="190.869141"/>
       <use xlink:href="#DejaVuSans-2d" x="254.492188"/>
       <use xlink:href="#DejaVuSans-31" x="290.576172"/>
       <use xlink:href="#DejaVuSans-31" x="354.199219"/>
      </g>
     </g>
    </g>
    <g id="xtick_14">
     <g id="line2d_25">
      <g>
       <use xlink:href="#mfaabaf2581" x="543.20118" y="390.04" style="stroke: #000000; stroke-width: 0.8"/>
      </g>
     </g>
     <g id="text_17">
      <!-- 2021-01 -->
      <g transform="translate(522.309773 404.638438)scale(0.1 -0.1)">
       <use xlink:href="#DejaVuSans-32"/>
       <use xlink:href="#DejaVuSans-30" x="63.623047"/>
       <use xlink:href="#DejaVuSans-32" x="127.246094"/>
       <use xlink:href="#DejaVuSans-31" x="190.869141"/>
       <use xlink:href="#DejaVuSans-2d" x="254.492188"/>
       <use xlink:href="#DejaVuSans-30" x="290.576172"/>
       <use xlink:href="#DejaVuSans-31" x="354.199219"/>
      </g>
     </g>
    </g>
    <g id="text_18">
     <!-- Time -->
     <g transform="translate(291.477503 418.316562)scale(0.1 -0.1)">
      <defs>
       <path id="DejaVuSans-54" d="M -19 4666 
L 3928 4666 
L 3928 4134 
L 2272 4134 
L 2272 0 
L 1638 0 
L 1638 4134 
L -19 4134 
L -19 4666 
z
" transform="scale(0.015625)"/>
       <path id="DejaVuSans-69" d="M 603 3500 
L 1178 3500 
L 1178 0 
L 603 0 
L 603 3500 
z
M 603 4863 
L 1178 4863 
L 1178 4134 
L 603 4134 
L 603 4863 
z
" transform="scale(0.015625)"/>
      </defs>
      <use xlink:href="#DejaVuSans-54"/>
      <use xlink:href="#DejaVuSans-69" x="57.958984"/>
      <use xlink:href="#DejaVuSans-6d" x="85.742188"/>
      <use xlink:href="#DejaVuSans-65" x="183.154297"/>
     </g>
    </g>
   </g>
   <g id="matplotlib.axis_4">
    <g id="ytick_6">
     <g id="line2d_26">
      <g>
       <use xlink:href="#m632282279c" x="52.85" y="349.144588" style="stroke: #000000; stroke-width: 0.8"/>
      </g>
     </g>
     <g id="text_19">
      <!-- −5 -->
      <g transform="translate(31.107813 352.943807)scale(0.1 -0.1)">
       <use xlink:href="#DejaVuSans-2212"/>
       <use xlink:href="#DejaVuSans-35" x="83.789062"/>
      </g>
     </g>
    </g>
    <g id="ytick_7">
     <g id="line2d_27">
      <g>
       <use xlink:href="#m632282279c" x="52.85" y="306.914277" style="stroke: #000000; stroke-width: 0.8"/>
      </g>
     </g>
     <g id="text_20">
      <!-- 0 -->
      <g transform="translate(39.4875 310.713496)scale(0.1 -0.1)">
       <use xlink:href="#DejaVuSans-30"/>
      </g>
     </g>
    </g>
    <g id="text_21">
     <!-- DD % -->
     <g transform="translate(25.028125 360.537798)rotate(-90)scale(0.1 -0.1)">
      <defs>
       <path id="DejaVuSans-44" d="M 1259 4147 
L 1259 519 
L 2022 519 
Q 2988 519 3436 956 
Q 3884 1394 3884 2338 
Q 3884 3275 3436 3711 
Q 2988 4147 2022 4147 
L 1259 4147 
z
M 628 4666 
L 1925 4666 
Q 3281 4666 3915 4102 
Q 4550 3538 4550 2338 
Q 4550 1131 3912 565 
Q 3275 0 1925 0 
L 628 0 
L 628 4666 
z
" transform="scale(0.015625)"/>
      </defs>
      <use xlink:href="#DejaVuSans-44"/>
      <use xlink:href="#DejaVuSans-44" x="77.001953"/>
      <use xlink:href="#DejaVuSans-20" x="154.003906"/>
      <use xlink:href="#DejaVuSans-25" x="185.791016"/>
     </g>
    </g>
   </g>
   <g id="line2d_28">
    <path d="M 75.655554 306.914277 
L 79.467068 309.883808 
L 80.737572 306.914277 
L 85.81959 314.134008 
L 87.090094 317.270858 
L 88.360598 317.491301 
L 89.631103 311.918857 
L 93.442616 312.819965 
L 94.713121 313.378355 
L 95.983625 319.35626 
L 97.254129 321.012105 
L 98.524634 313.364402 
L 102.336147 310.600838 
L 103.606651 317.286773 
L 104.877156 319.817183 
L 106.14766 324.796945 
L 107.418165 335.951038 
L 111.229678 333.109099 
L 112.500182 346.516246 
L 113.770687 334.667753 
L 115.041191 337.226909 
L 116.311696 340.555791 
L 120.123209 345.41957 
L 121.393713 348.272687 
L 122.664218 340.078008 
L 123.934722 328.452724 
L 125.205227 334.265384 
L 129.01674 334.565829 
L 130.287244 321.160273 
L 131.557749 310.057624 
L 132.828253 306.914277 
L 137.910271 306.914277 
L 139.180775 307.34844 
L 140.45128 306.914277 
L 141.721784 306.914277 
L 142.992288 308.329151 
L 146.803802 326.898338 
L 191.271456 326.898338 
L 192.541961 306.914277 
L 193.812465 307.272687 
L 195.082969 316.906946 
L 196.353474 315.603212 
L 200.164987 306.914277 
L 211.599527 306.914277 
L 212.870031 337.823612 
L 214.140536 320.436075 
L 217.952049 310.594712 
L 219.222553 308.573696 
L 220.493058 306.914277 
L 221.763562 308.135337 
L 223.034067 306.914277 
L 226.84558 306.914277 
L 228.116084 310.81605 
L 229.386589 306.914277 
L 230.657093 306.914277 
L 235.739111 339.185868 
L 237.009615 350.04449 
L 238.28012 347.722316 
L 239.550624 350.612908 
L 240.821128 330.248281 
L 244.632642 327.615056 
L 245.903146 325.785576 
L 247.173651 324.578856 
L 248.444155 341.320442 
L 249.714659 344.660415 
L 253.526173 341.221876 
L 256.067181 321.760779 
L 258.60819 325.275891 
L 262.419704 327.024296 
L 263.690208 313.031705 
L 264.960712 306.914277 
L 271.313234 306.914277 
L 272.583739 310.688797 
L 273.854243 306.914277 
L 280.206765 306.914277 
L 281.47727 309.120097 
L 282.747774 315.691532 
L 284.018279 324.790695 
L 285.288783 377.095932 
L 289.100296 359.103438 
L 290.370801 344.559896 
L 291.641305 335.79995 
L 292.91181 334.03682 
L 297.993827 336.700065 
L 299.264332 345.292439 
L 300.534836 342.47798 
L 301.80534 358.650873 
L 303.075845 352.977603 
L 306.887358 356.923637 
L 308.157863 354.18909 
L 309.428367 348.428657 
L 310.698871 333.607058 
L 311.969376 322.248993 
L 315.780889 309.057918 
L 317.051393 306.914277 
L 319.592402 306.914277 
L 320.862907 316.563481 
L 324.67442 314.82388 
L 325.944924 306.914277 
L 327.215429 315.584287 
L 328.485933 319.257361 
L 329.756438 326.492571 
L 333.567951 322.944459 
L 334.838455 321.02277 
L 336.10896 332.706795 
L 337.379464 328.32125 
L 338.649969 312.123668 
L 342.461482 309.959863 
L 343.731986 306.914277 
L 345.002491 313.579868 
L 346.272995 306.914277 
L 347.543499 327.540791 
L 351.355013 321.566626 
L 352.625517 312.49192 
L 353.896022 306.914277 
L 356.43703 306.914277 
L 360.248544 315.323302 
L 361.519048 325.395622 
L 362.789552 323.798165 
L 364.060057 375.644038 
L 365.330561 373.46124 
L 369.142075 386.081632 
L 370.412579 369.902701 
L 371.683083 369.654528 
L 372.953588 376.385575 
L 374.224092 381.144897 
L 378.035606 369.448093 
L 379.30611 369.111543 
L 380.576614 370.892819 
L 381.847119 363.130815 
L 383.117623 364.274671 
L 386.929136 359.317918 
L 388.199641 361.173704 
L 389.470145 359.02644 
L 390.74065 349.574676 
L 392.011154 368.276334 
L 395.822667 368.276334 
L 397.093172 360.13642 
L 398.363676 370.499677 
L 399.634181 361.778987 
L 400.904685 365.720588 
L 404.716198 361.084584 
L 405.986703 356.75189 
L 407.257207 356.232379 
L 408.527712 354.051171 
L 409.798216 343.286231 
L 413.609729 341.720488 
L 414.880234 363.273793 
L 416.150738 358.469261 
L 417.421242 362.129043 
L 418.691747 363.243015 
L 422.50326 359.518031 
L 423.773765 352.876459 
L 425.044269 341.574853 
L 426.314773 337.799155 
L 427.585278 333.182569 
L 431.396791 333.58348 
L 432.667295 325.368507 
L 433.9378 330.519776 
L 435.208304 313.300761 
L 436.478809 307.62265 
L 440.290322 312.244994 
L 441.560826 312.626593 
L 442.831331 309.354662 
L 444.101835 306.914277 
L 445.37234 314.778504 
L 449.183853 315.739634 
L 450.454357 317.569536 
L 451.724862 318.655554 
L 472.052932 318.655554 
L 475.864446 306.914277 
L 477.13495 321.324245 
L 478.405454 324.697013 
L 479.675959 320.320888 
L 480.946463 325.428474 
L 484.757977 312.113882 
L 486.028481 306.914277 
L 487.298985 315.321025 
L 488.56949 318.932894 
L 489.839994 320.137787 
L 493.651507 318.814922 
L 494.922012 315.214928 
L 496.192516 308.221275 
L 497.463021 313.852004 
L 498.733525 313.077374 
L 502.545038 314.719208 
L 503.815543 311.669404 
L 505.086047 310.577484 
L 506.356552 308.028662 
L 507.627056 314.2875 
L 511.438569 312.601003 
L 512.709074 315.492287 
L 513.979578 307.716901 
L 515.250083 306.914277 
L 516.520587 314.31286 
L 520.3321 315.619517 
L 521.602605 316.988487 
L 522.873109 314.050757 
L 524.143613 308.7104 
L 525.414118 307.839666 
L 529.225631 306.914277 
L 530.496136 318.864347 
L 531.76664 307.103818 
L 531.76664 307.103818 
" clip-path="url(#p0044688538)" style="fill: none; stroke: #0000ff; stroke-width: 1.5; stroke-linecap: square"/>
   </g>
   <g id="patch_9">
    <path d="M 52.85 390.04 
L 52.85 302.955909 
" style="fill: none; stroke: #000000; stroke-width: 0.8; stroke-linejoin: miter; stroke-linecap: square"/>
   </g>
   <g id="patch_10">
    <path d="M 554.572194 390.04 
L 554.572194 302.955909 
" style="fill: none; stroke: #000000; stroke-width: 0.8; stroke-linejoin: miter; stroke-linecap: square"/>
   </g>
   <g id="patch_11">
    <path d="M 52.85 390.04 
L 554.572194 390.04 
" style="fill: none; stroke: #000000; stroke-width: 0.8; stroke-linejoin: miter; stroke-linecap: square"/>
   </g>
   <g id="patch_12">
    <path d="M 52.85 302.955909 
L 554.572194 302.955909 
" style="fill: none; stroke: #000000; stroke-width: 0.8; stroke-linejoin: miter; stroke-linecap: square"/>
   </g>
  </g>
 </g>
 <defs>
  <clipPath id="pad7e9e6c25">
   <rect x="52.85" y="26.88" width="501.722194" height="261.252273"/>
  </clipPath>
  <clipPath id="p0044688538">
   <rect x="52.85" y="302.955909" width="501.722194" height="87.084091"/>
  </clipPath>
 </defs>
</svg>
