<?xml version="1.0" encoding="utf-8" standalone="no"?>
<!DOCTYPE svg PUBLIC "-//W3C//DTD SVG 1.1//EN"
  "http://www.w3.org/Graphics/SVG/1.1/DTD/svg11.dtd">
<svg xmlns:xlink="http://www.w3.org/1999/xlink" width="576pt" height="432pt" viewBox="0 0 576 432" xmlns="http://www.w3.org/2000/svg" version="1.1">
 <metadata>
  <rdf:RDF xmlns:dc="http://purl.org/dc/elements/1.1/" xmlns:cc="http://creativecommons.org/ns#" xmlns:rdf="http://www.w3.org/1999/02/22-rdf-syntax-ns#">
   <cc:Work>
    <dc:type rdf:resource="http://purl.org/dc/dcmitype/StillImage"/>
    <dc:date>2023-01-15T23:56:31.334449</dc:date>
    <dc:format>image/svg+xml</dc:format>
    <dc:creator>
     <cc:Agent>
      <dc:title>Matplotlib v3.5.0, https://matplotlib.org/</dc:title>
     </cc:Agent>
    </dc:creator>
   </cc:Work>
  </rdf:RDF>
 </metadata>
 <defs>
  <style type="text/css">*{stroke-linejoin: round; stroke-linecap: butt}</style>
 </defs>
 <g id="figure_1">
  <g id="patch_1">
   <path d="M 0 432 
L 576 432 
L 576 0 
L 0 0 
z
" style="fill: #ffffff"/>
  </g>
  <g id="axes_1">
   <g id="patch_2">
    <path d="M 52.94 288.132273 
L 552.231635 288.132273 
L 552.231635 26.88 
L 52.94 26.88 
z
" style="fill: #ffffff"/>
   </g>
   <g id="matplotlib.axis_1">
    <g id="xtick_1">
     <g id="line2d_1">
      <defs>
       <path id="m2ecd84f8a6" d="M 0 0 
L 0 3.5 
" style="stroke: #000000; stroke-width: 0.8"/>
      </defs>
      <g>
       <use xlink:href="#m2ecd84f8a6" x="80.706599" y="288.132273" style="stroke: #000000; stroke-width: 0.8"/>
      </g>
     </g>
    </g>
    <g id="xtick_2">
     <g id="line2d_2">
      <g>
       <use xlink:href="#m2ecd84f8a6" x="155.511593" y="288.132273" style="stroke: #000000; stroke-width: 0.8"/>
      </g>
     </g>
    </g>
    <g id="xtick_3">
     <g id="line2d_3">
      <g>
       <use xlink:href="#m2ecd84f8a6" x="232.852349" y="288.132273" style="stroke: #000000; stroke-width: 0.8"/>
      </g>
     </g>
    </g>
    <g id="xtick_4">
     <g id="line2d_4">
      <g>
       <use xlink:href="#m2ecd84f8a6" x="310.193105" y="288.132273" style="stroke: #000000; stroke-width: 0.8"/>
      </g>
     </g>
    </g>
    <g id="xtick_5">
     <g id="line2d_5">
      <g>
       <use xlink:href="#m2ecd84f8a6" x="388.801743" y="288.132273" style="stroke: #000000; stroke-width: 0.8"/>
      </g>
     </g>
    </g>
    <g id="xtick_6">
     <g id="line2d_6">
      <g>
       <use xlink:href="#m2ecd84f8a6" x="466.142499" y="288.132273" style="stroke: #000000; stroke-width: 0.8"/>
      </g>
     </g>
    </g>
    <g id="xtick_7">
     <g id="line2d_7">
      <g>
       <use xlink:href="#m2ecd84f8a6" x="543.483255" y="288.132273" style="stroke: #000000; stroke-width: 0.8"/>
      </g>
     </g>
    </g>
   </g>
   <g id="matplotlib.axis_2">
    <g id="ytick_1">
     <g id="line2d_8">
      <defs>
       <path id="m542ed40c83" d="M 0 0 
L -3.5 0 
" style="stroke: #000000; stroke-width: 0.8"/>
      </defs>
      <g>
       <use xlink:href="#m542ed40c83" x="52.94" y="266.757605" style="stroke: #000000; stroke-width: 0.8"/>
      </g>
     </g>
     <g id="text_1">
      <!-- −10 -->
      <g transform="translate(24.835313 270.556824)scale(0.1 -0.1)">
       <defs>
        <path id="DejaVuSans-2212" d="M 678 2272 
L 4684 2272 
L 4684 1741 
L 678 1741 
L 678 2272 
z
" transform="scale(0.015625)"/>
        <path id="DejaVuSans-31" d="M 794 531 
L 1825 531 
L 1825 4091 
L 703 3866 
L 703 4441 
L 1819 4666 
L 2450 4666 
L 2450 531 
L 3481 531 
L 3481 0 
L 794 0 
L 794 531 
z
" transform="scale(0.015625)"/>
        <path id="DejaVuSans-30" d="M 2034 4250 
Q 1547 4250 1301 3770 
Q 1056 3291 1056 2328 
Q 1056 1369 1301 889 
Q 1547 409 2034 409 
Q 2525 409 2770 889 
Q 3016 1369 3016 2328 
Q 3016 3291 2770 3770 
Q 2525 4250 2034 4250 
z
M 2034 4750 
Q 2819 4750 3233 4129 
Q 3647 3509 3647 2328 
Q 3647 1150 3233 529 
Q 2819 -91 2034 -91 
Q 1250 -91 836 529 
Q 422 1150 422 2328 
Q 422 3509 836 4129 
Q 1250 4750 2034 4750 
z
" transform="scale(0.015625)"/>
       </defs>
       <use xlink:href="#DejaVuSans-2212"/>
       <use xlink:href="#DejaVuSans-31" x="83.789062"/>
       <use xlink:href="#DejaVuSans-30" x="147.412109"/>
      </g>
     </g>
    </g>
    <g id="ytick_2">
     <g id="line2d_9">
      <g>
       <use xlink:href="#m542ed40c83" x="52.94" y="210.944995" style="stroke: #000000; stroke-width: 0.8"/>
      </g>
     </g>
     <g id="text_2">
      <!-- 0 -->
      <g transform="translate(39.5775 214.744214)scale(0.1 -0.1)">
       <use xlink:href="#DejaVuSans-30"/>
      </g>
     </g>
    </g>
    <g id="ytick_3">
     <g id="line2d_10">
      <g>
       <use xlink:href="#m542ed40c83" x="52.94" y="155.132386" style="stroke: #000000; stroke-width: 0.8"/>
      </g>
     </g>
     <g id="text_3">
      <!-- 10 -->
      <g transform="translate(33.215 158.931604)scale(0.1 -0.1)">
       <use xlink:href="#DejaVuSans-31"/>
       <use xlink:href="#DejaVuSans-30" x="63.623047"/>
      </g>
     </g>
    </g>
    <g id="ytick_4">
     <g id="line2d_11">
      <g>
       <use xlink:href="#m542ed40c83" x="52.94" y="99.319776" style="stroke: #000000; stroke-width: 0.8"/>
      </g>
     </g>
     <g id="text_4">
      <!-- 20 -->
      <g transform="translate(33.215 103.118995)scale(0.1 -0.1)">
       <defs>
        <path id="DejaVuSans-32" d="M 1228 531 
L 3431 531 
L 3431 0 
L 469 0 
L 469 531 
Q 828 903 1448 1529 
Q 2069 2156 2228 2338 
Q 2531 2678 2651 2914 
Q 2772 3150 2772 3378 
Q 2772 3750 2511 3984 
Q 2250 4219 1831 4219 
Q 1534 4219 1204 4116 
Q 875 4013 500 3803 
L 500 4441 
Q 881 4594 1212 4672 
Q 1544 4750 1819 4750 
Q 2544 4750 2975 4387 
Q 3406 4025 3406 3419 
Q 3406 3131 3298 2873 
Q 3191 2616 2906 2266 
Q 2828 2175 2409 1742 
Q 1991 1309 1228 531 
z
" transform="scale(0.015625)"/>
       </defs>
       <use xlink:href="#DejaVuSans-32"/>
       <use xlink:href="#DejaVuSans-30" x="63.623047"/>
      </g>
     </g>
    </g>
    <g id="ytick_5">
     <g id="line2d_12">
      <g>
       <use xlink:href="#m542ed40c83" x="52.94" y="43.507166" style="stroke: #000000; stroke-width: 0.8"/>
      </g>
     </g>
     <g id="text_5">
      <!-- 30 -->
      <g transform="translate(33.215 47.306385)scale(0.1 -0.1)">
       <defs>
        <path id="DejaVuSans-33" d="M 2597 2516 
Q 3050 2419 3304 2112 
Q 3559 1806 3559 1356 
Q 3559 666 3084 287 
Q 2609 -91 1734 -91 
Q 1441 -91 1130 -33 
Q 819 25 488 141 
L 488 750 
Q 750 597 1062 519 
Q 1375 441 1716 441 
Q 2309 441 2620 675 
Q 2931 909 2931 1356 
Q 2931 1769 2642 2001 
Q 2353 2234 1838 2234 
L 1294 2234 
L 1294 2753 
L 1863 2753 
Q 2328 2753 2575 2939 
Q 2822 3125 2822 3475 
Q 2822 3834 2567 4026 
Q 2313 4219 1838 4219 
Q 1578 4219 1281 4162 
Q 984 4106 628 3988 
L 628 4550 
Q 988 4650 1302 4700 
Q 1616 4750 1894 4750 
Q 2613 4750 3031 4423 
Q 3450 4097 3450 3541 
Q 3450 3153 3228 2886 
Q 3006 2619 2597 2516 
z
" transform="scale(0.015625)"/>
       </defs>
       <use xlink:href="#DejaVuSans-33"/>
       <use xlink:href="#DejaVuSans-30" x="63.623047"/>
      </g>
     </g>
    </g>
    <g id="text_6">
     <!-- Return [%] -->
     <g transform="translate(18.755625 184.338949)rotate(-90)scale(0.1 -0.1)">
      <defs>
       <path id="DejaVuSans-52" d="M 2841 2188 
Q 3044 2119 3236 1894 
Q 3428 1669 3622 1275 
L 4263 0 
L 3584 0 
L 2988 1197 
Q 2756 1666 2539 1819 
Q 2322 1972 1947 1972 
L 1259 1972 
L 1259 0 
L 628 0 
L 628 4666 
L 2053 4666 
Q 2853 4666 3247 4331 
Q 3641 3997 3641 3322 
Q 3641 2881 3436 2590 
Q 3231 2300 2841 2188 
z
M 1259 4147 
L 1259 2491 
L 2053 2491 
Q 2509 2491 2742 2702 
Q 2975 2913 2975 3322 
Q 2975 3731 2742 3939 
Q 2509 4147 2053 4147 
L 1259 4147 
z
" transform="scale(0.015625)"/>
       <path id="DejaVuSans-65" d="M 3597 1894 
L 3597 1613 
L 953 1613 
Q 991 1019 1311 708 
Q 1631 397 2203 397 
Q 2534 397 2845 478 
Q 3156 559 3463 722 
L 3463 178 
Q 3153 47 2828 -22 
Q 2503 -91 2169 -91 
Q 1331 -91 842 396 
Q 353 884 353 1716 
Q 353 2575 817 3079 
Q 1281 3584 2069 3584 
Q 2775 3584 3186 3129 
Q 3597 2675 3597 1894 
z
M 3022 2063 
Q 3016 2534 2758 2815 
Q 2500 3097 2075 3097 
Q 1594 3097 1305 2825 
Q 1016 2553 972 2059 
L 3022 2063 
z
" transform="scale(0.015625)"/>
       <path id="DejaVuSans-74" d="M 1172 4494 
L 1172 3500 
L 2356 3500 
L 2356 3053 
L 1172 3053 
L 1172 1153 
Q 1172 725 1289 603 
Q 1406 481 1766 481 
L 2356 481 
L 2356 0 
L 1766 0 
Q 1100 0 847 248 
Q 594 497 594 1153 
L 594 3053 
L 172 3053 
L 172 3500 
L 594 3500 
L 594 4494 
L 1172 4494 
z
" transform="scale(0.015625)"/>
       <path id="DejaVuSans-75" d="M 544 1381 
L 544 3500 
L 1119 3500 
L 1119 1403 
Q 1119 906 1312 657 
Q 1506 409 1894 409 
Q 2359 409 2629 706 
Q 2900 1003 2900 1516 
L 2900 3500 
L 3475 3500 
L 3475 0 
L 2900 0 
L 2900 538 
Q 2691 219 2414 64 
Q 2138 -91 1772 -91 
Q 1169 -91 856 284 
Q 544 659 544 1381 
z
M 1991 3584 
L 1991 3584 
z
" transform="scale(0.015625)"/>
       <path id="DejaVuSans-72" d="M 2631 2963 
Q 2534 3019 2420 3045 
Q 2306 3072 2169 3072 
Q 1681 3072 1420 2755 
Q 1159 2438 1159 1844 
L 1159 0 
L 581 0 
L 581 3500 
L 1159 3500 
L 1159 2956 
Q 1341 3275 1631 3429 
Q 1922 3584 2338 3584 
Q 2397 3584 2469 3576 
Q 2541 3569 2628 3553 
L 2631 2963 
z
" transform="scale(0.015625)"/>
       <path id="DejaVuSans-6e" d="M 3513 2113 
L 3513 0 
L 2938 0 
L 2938 2094 
Q 2938 2591 2744 2837 
Q 2550 3084 2163 3084 
Q 1697 3084 1428 2787 
Q 1159 2491 1159 1978 
L 1159 0 
L 581 0 
L 581 3500 
L 1159 3500 
L 1159 2956 
Q 1366 3272 1645 3428 
Q 1925 3584 2291 3584 
Q 2894 3584 3203 3211 
Q 3513 2838 3513 2113 
z
" transform="scale(0.015625)"/>
       <path id="DejaVuSans-20" transform="scale(0.015625)"/>
       <path id="DejaVuSans-5b" d="M 550 4863 
L 1875 4863 
L 1875 4416 
L 1125 4416 
L 1125 -397 
L 1875 -397 
L 1875 -844 
L 550 -844 
L 550 4863 
z
" transform="scale(0.015625)"/>
       <path id="DejaVuSans-25" d="M 4653 2053 
Q 4381 2053 4226 1822 
Q 4072 1591 4072 1178 
Q 4072 772 4226 539 
Q 4381 306 4653 306 
Q 4919 306 5073 539 
Q 5228 772 5228 1178 
Q 5228 1588 5073 1820 
Q 4919 2053 4653 2053 
z
M 4653 2450 
Q 5147 2450 5437 2106 
Q 5728 1763 5728 1178 
Q 5728 594 5436 251 
Q 5144 -91 4653 -91 
Q 4153 -91 3862 251 
Q 3572 594 3572 1178 
Q 3572 1766 3864 2108 
Q 4156 2450 4653 2450 
z
M 1428 4353 
Q 1159 4353 1004 4120 
Q 850 3888 850 3481 
Q 850 3069 1003 2837 
Q 1156 2606 1428 2606 
Q 1700 2606 1854 2837 
Q 2009 3069 2009 3481 
Q 2009 3884 1853 4118 
Q 1697 4353 1428 4353 
z
M 4250 4750 
L 4750 4750 
L 1831 -91 
L 1331 -91 
L 4250 4750 
z
M 1428 4750 
Q 1922 4750 2215 4408 
Q 2509 4066 2509 3481 
Q 2509 2891 2217 2550 
Q 1925 2209 1428 2209 
Q 931 2209 642 2551 
Q 353 2894 353 3481 
Q 353 4063 643 4406 
Q 934 4750 1428 4750 
z
" transform="scale(0.015625)"/>
       <path id="DejaVuSans-5d" d="M 1947 4863 
L 1947 -844 
L 622 -844 
L 622 -397 
L 1369 -397 
L 1369 4416 
L 622 4416 
L 622 4863 
L 1947 4863 
z
" transform="scale(0.015625)"/>
      </defs>
      <use xlink:href="#DejaVuSans-52"/>
      <use xlink:href="#DejaVuSans-65" x="64.982422"/>
      <use xlink:href="#DejaVuSans-74" x="126.505859"/>
      <use xlink:href="#DejaVuSans-75" x="165.714844"/>
      <use xlink:href="#DejaVuSans-72" x="229.09375"/>
      <use xlink:href="#DejaVuSans-6e" x="268.457031"/>
      <use xlink:href="#DejaVuSans-20" x="331.835938"/>
      <use xlink:href="#DejaVuSans-5b" x="363.623047"/>
      <use xlink:href="#DejaVuSans-25" x="402.636719"/>
      <use xlink:href="#DejaVuSans-5d" x="497.65625"/>
     </g>
    </g>
   </g>
   <g id="line2d_13">
    <path d="M 75.635074 213.212512 
L 76.902956 217.261149 
L 81.974481 216.253013 
L 83.242362 213.542841 
L 84.510243 207.905543 
L 85.778124 205.234213 
L 89.581768 202.494647 
L 90.849649 197.893128 
L 92.117531 198.941155 
L 93.385412 198.592279 
L 94.653293 199.253988 
L 98.456937 199.641355 
L 99.724818 201.02811 
L 100.992699 201.193274 
L 102.260581 200.519668 
L 103.528462 198.475754 
L 107.332106 196.780015 
L 108.599987 193.894881 
L 109.867868 198.272797 
L 111.135749 207.620004 
L 112.403631 204.771961 
L 116.207274 205.551945 
L 117.475156 208.032216 
L 118.743037 211.586758 
L 120.010918 208.545557 
L 121.278799 214.512835 
L 125.082443 227.969565 
L 126.350324 240.124224 
L 127.618205 226.285724 
L 128.886087 237.266383 
L 130.153968 244.118622 
L 133.957612 236.616921 
L 135.225493 239.539498 
L 136.493374 232.931507 
L 137.761255 229.233496 
L 139.029137 224.261406 
L 142.83278 226.385103 
L 144.100662 219.800557 
L 145.368543 217.895913 
L 146.636424 218.329121 
L 151.707949 213.754546 
L 152.97583 213.308391 
L 154.243712 215.00133 
L 155.511593 222.991177 
L 156.779474 234.923283 
L 160.583118 227.406535 
L 161.850999 223.208131 
L 163.11888 221.722697 
L 164.386762 214.25249 
L 165.654643 212.822695 
L 169.458287 211.350909 
L 170.726168 216.837039 
L 173.26193 211.890494 
L 174.529812 218.469441 
L 178.333455 227.591296 
L 179.601337 225.997036 
L 180.869218 226.791366 
L 182.137099 238.64124 
L 183.40498 239.569942 
L 187.208624 245.374854 
L 188.476505 240.644563 
L 189.744387 239.937364 
L 191.012268 231.812796 
L 197.351674 241.104365 
L 198.619555 246.055459 
L 199.887437 234.658739 
L 201.155318 240.202957 
L 204.958962 240.222203 
L 206.226843 234.819705 
L 207.494724 242.53521 
L 208.762605 237.575017 
L 210.030487 234.852248 
L 213.83413 234.989768 
L 215.102012 228.380378 
L 216.369893 225.817174 
L 217.637774 223.806153 
L 218.905655 218.784374 
L 222.709299 213.512048 
L 223.97718 217.798284 
L 225.245062 224.134383 
L 226.512943 218.373211 
L 227.780824 215.916035 
L 231.584468 219.440134 
L 234.12023 212.350296 
L 235.388112 220.751304 
L 236.655993 217.209709 
L 240.459637 209.915165 
L 241.727518 206.063536 
L 242.995399 203.311373 
L 245.531162 208.052512 
L 249.334805 209.688763 
L 250.602687 206.839671 
L 251.870568 208.395439 
L 253.138449 202.558333 
L 254.40633 201.627182 
L 258.209974 200.003528 
L 259.477855 200.637943 
L 260.745736 208.456326 
L 262.013618 211.44014 
L 263.281499 213.745098 
L 267.085143 215.656041 
L 269.620905 222.299724 
L 270.888786 226.706685 
L 272.156668 219.858645 
L 275.960311 221.531638 
L 277.228193 223.518164 
L 279.763955 224.71071 
L 281.031836 224.631277 
L 284.83548 219.274969 
L 286.103361 218.8939 
L 287.371243 219.314161 
L 288.639124 213.389574 
L 289.907005 219.536363 
L 293.710649 222.609758 
L 294.97853 221.481949 
L 296.246411 218.887952 
L 297.514293 226.845255 
L 302.585818 232.056344 
L 303.853699 233.956089 
L 305.12158 229.879808 
L 306.389461 233.10472 
L 307.657343 223.580101 
L 311.460986 229.884007 
L 312.728868 230.747623 
L 313.996749 236.365325 
L 315.26463 234.873243 
L 316.532511 235.724962 
L 320.336155 229.813672 
L 321.604036 227.252218 
L 322.871918 234.98277 
L 324.139799 229.653406 
L 325.40768 226.379154 
L 329.211324 225.723394 
L 330.479205 224.374432 
L 333.014968 214.668901 
L 334.282849 216.400332 
L 338.086493 216.015064 
L 339.354374 208.709322 
L 340.622255 211.546167 
L 341.890136 206.109726 
L 343.158018 204.724722 
L 346.961661 205.316445 
L 348.229543 203.733033 
L 349.497424 204.801005 
L 350.765305 209.870024 
L 352.033186 205.008861 
L 355.83683 206.224152 
L 357.104711 202.229404 
L 358.372593 201.273057 
L 359.640474 198.2616 
L 360.908355 203.305424 
L 364.711999 205.063099 
L 365.97988 206.195808 
L 367.247761 211.432441 
L 368.515643 205.225815 
L 369.783524 201.242614 
L 373.587168 198.371826 
L 374.855049 196.032925 
L 376.12293 193.983762 
L 377.390811 193.89698 
L 378.658693 192.790516 
L 384.998099 182.17098 
L 386.26598 183.798833 
L 387.533861 188.837759 
L 391.337505 188.144557 
L 393.873268 198.084887 
L 395.141149 197.846238 
L 396.40903 202.822527 
L 400.212674 200.706178 
L 401.480555 202.05689 
L 402.748436 202.609423 
L 404.016317 201.545299 
L 405.284199 197.035461 
L 409.087842 194.983848 
L 410.355724 200.284168 
L 411.623605 198.517045 
L 414.159367 187.381719 
L 417.963011 189.941774 
L 420.498774 188.793668 
L 421.766655 182.465268 
L 423.034536 187.369822 
L 426.83818 185.589052 
L 428.106061 189.279015 
L 429.373942 186.39563 
L 430.641824 192.057772 
L 431.909705 196.99242 
L 435.713349 201.77555 
L 436.98123 200.621146 
L 438.249111 210.896006 
L 439.516992 226.54257 
L 440.784874 231.426128 
L 444.588517 231.552451 
L 445.856399 225.230699 
L 447.12428 227.293159 
L 448.392161 228.832131 
L 449.660042 233.103671 
L 453.463686 235.065702 
L 454.731567 241.07742 
L 455.999449 243.668268 
L 457.26733 242.076107 
L 458.535211 249.338459 
L 462.338855 243.083193 
L 463.606736 238.583852 
L 464.874617 230.80851 
L 466.142499 233.24574 
L 467.41038 226.198593 
L 472.481905 232.07594 
L 473.749786 230.644395 
L 475.017667 231.307504 
L 476.285549 233.507834 
L 480.089192 239.078997 
L 481.357074 237.09247 
L 482.624955 243.325691 
L 483.892836 247.757146 
L 485.160717 244.380716 
L 488.964361 250.310902 
L 490.232242 259.283688 
L 491.500124 251.7267 
L 492.768005 255.943301 
L 494.035886 252.108468 
L 497.83953 244.793628 
L 499.107411 245.437841 
L 500.375292 244.024142 
L 501.643174 238.799756 
L 502.911055 239.0622 
L 506.714699 233.76118 
L 507.98258 241.934038 
L 509.250461 251.546488 
L 510.518342 266.346233 
L 511.786224 260.269778 
L 515.589867 266.736749 
L 518.12563 246.208026 
L 519.393511 251.618923 
L 520.661392 254.094995 
L 524.465036 260.997623 
L 525.732917 262.453663 
L 527.000799 261.641136 
L 528.26868 272.523116 
L 529.536561 276.257169 
L 529.536561 276.257169 
" clip-path="url(#p84b189156f)" style="fill: none; stroke: #008000; stroke-width: 1.5; stroke-linecap: square"/>
   </g>
   <g id="line2d_14">
    <path d="M 75.635074 210.944995 
L 76.902956 210.944995 
L 81.974481 207.664583 
L 83.242362 208.071772 
L 84.510243 205.674796 
L 85.778124 197.971318 
L 89.581768 193.951177 
L 90.849649 185.876205 
L 92.117531 184.562629 
L 93.385412 187.068947 
L 94.653293 184.649232 
L 98.456937 178.22932 
L 99.724818 173.923823 
L 100.992699 179.610602 
L 102.260581 180.104059 
L 103.528462 184.218434 
L 107.332106 180.120848 
L 108.599987 180.981862 
L 109.867868 184.294931 
L 111.135749 194.129424 
L 112.403631 194.403515 
L 116.207274 193.250653 
L 117.475156 201.032656 
L 144.100662 201.032656 
L 145.368543 200.49972 
L 146.636424 202.69618 
L 147.904305 198.570159 
L 151.707949 192.481115 
L 152.97583 192.198911 
L 154.243712 193.267242 
L 155.511593 195.472101 
L 156.779474 204.393145 
L 160.583118 207.907527 
L 161.850999 196.981051 
L 163.11888 198.314974 
L 165.654643 198.314974 
L 169.458287 197.379554 
L 170.726168 196.053406 
L 171.994049 199.042771 
L 173.26193 197.864905 
L 174.529812 197.864905 
L 179.601337 196.085283 
L 180.869218 199.228316 
L 182.137099 200.495652 
L 183.40498 208.607183 
L 187.208624 200.827438 
L 201.155318 200.827438 
L 204.958962 194.740387 
L 207.494724 194.740387 
L 208.762605 195.413995 
L 210.030487 188.078721 
L 215.102012 183.380232 
L 216.369893 181.296719 
L 217.637774 176.117594 
L 218.905655 174.674353 
L 222.709299 171.320758 
L 223.97718 171.228657 
L 225.245062 175.934432 
L 226.512943 172.759542 
L 227.780824 168.262885 
L 231.584468 164.725801 
L 234.12023 160.928223 
L 235.388112 157.864904 
L 236.655993 158.563011 
L 240.459637 151.227334 
L 241.727518 146.554176 
L 242.995399 145.487526 
L 245.531162 143.993367 
L 249.334805 141.145238 
L 250.602687 141.633446 
L 251.870568 137.718916 
L 253.138449 135.897652 
L 254.40633 132.933732 
L 258.209974 126.433449 
L 259.477855 124.971487 
L 260.745736 130.896632 
L 262.013618 131.228986 
L 263.281499 129.681627 
L 267.085143 123.157059 
L 268.353024 127.47364 
L 269.620905 128.285353 
L 270.888786 132.213914 
L 272.156668 134.86635 
L 275.960311 126.810352 
L 277.228193 120.18595 
L 279.763955 115.22329 
L 281.031836 106.625842 
L 284.83548 107.037042 
L 287.371243 114.17224 
L 288.639124 116.163644 
L 289.907005 112.360499 
L 293.710649 117.224753 
L 294.97853 117.719074 
L 296.246411 115.252901 
L 297.514293 117.709839 
L 302.585818 119.403662 
L 312.728868 119.403662 
L 313.996749 119.565564 
L 315.26463 129.033089 
L 316.532511 128.8163 
L 320.336155 126.71955 
L 321.604036 122.412742 
L 322.871918 121.403463 
L 324.139799 119.913459 
L 325.40768 121.699807 
L 329.211324 122.568399 
L 330.479205 116.220231 
L 331.747086 110.817156 
L 333.014968 102.617989 
L 334.282849 105.186237 
L 338.086493 100.639369 
L 340.622255 85.854795 
L 341.890136 80.41075 
L 343.158018 78.460433 
L 346.961661 72.325436 
L 348.229543 72.634239 
L 349.497424 71.393591 
L 350.765305 71.421806 
L 352.033186 75.785573 
L 355.83683 69.674729 
L 357.104711 67.13777 
L 358.372593 61.822573 
L 359.640474 64.252723 
L 360.908355 64.832413 
L 365.97988 66.698282 
L 367.247761 71.072489 
L 368.515643 69.023785 
L 369.783524 66.664937 
L 373.587168 62.82363 
L 374.855049 62.425664 
L 376.12293 59.419938 
L 377.390811 60.726279 
L 378.658693 56.194185 
L 382.462336 56.816472 
L 383.730218 51.563634 
L 384.998099 52.221476 
L 386.26598 54.712338 
L 387.533861 54.899756 
L 391.337505 51.611105 
L 392.605386 50.121324 
L 393.873268 63.151902 
L 395.141149 64.341503 
L 396.40903 68.615613 
L 400.212674 68.615613 
L 401.480555 65.780056 
L 402.748436 65.780056 
L 404.016317 67.037492 
L 405.284199 63.33261 
L 409.087842 63.127003 
L 410.355724 60.868542 
L 411.623605 64.113543 
L 412.891486 66.507268 
L 414.159367 64.183285 
L 417.963011 59.53879 
L 419.230892 58.54243 
L 420.498774 57.820455 
L 421.766655 57.464936 
L 423.034536 47.946081 
L 426.83818 42.929895 
L 428.106061 42.098902 
L 429.373942 42.166365 
L 430.641824 38.755103 
L 431.909705 51.133307 
L 435.713349 65.586714 
L 436.98123 63.73854 
L 438.249111 65.161946 
L 439.516992 89.247474 
L 464.874617 89.247474 
L 466.142499 74.604617 
L 467.41038 74.604617 
L 471.214024 74.951277 
L 472.481905 71.149188 
L 473.749786 71.588552 
L 475.017667 72.679899 
L 476.285549 74.040786 
L 480.089192 75.34434 
L 481.357074 90.846573 
L 482.624955 100.234716 
L 483.892836 101.332474 
L 485.160717 108.300945 
L 506.714699 108.300945 
L 507.98258 103.75905 
L 529.536561 103.75905 
L 529.536561 103.75905 
" clip-path="url(#p84b189156f)" style="fill: none; stroke: #0000ff; stroke-width: 1.5; stroke-linecap: square"/>
   </g>
   <g id="line2d_15">
    <path d="M 75.635074 210.944995 
L 76.902956 210.944995 
L 81.974481 207.664583 
L 83.242362 207.664583 
L 84.510243 205.674796 
L 85.778124 197.971318 
L 89.581768 193.951177 
L 90.849649 185.876205 
L 92.117531 184.562629 
L 94.653293 184.562629 
L 98.456937 178.22932 
L 99.724818 173.923823 
L 218.905655 173.923823 
L 222.709299 171.320758 
L 225.245062 171.228657 
L 226.512943 171.228657 
L 227.780824 168.262885 
L 231.584468 164.725801 
L 234.12023 160.928223 
L 235.388112 157.864904 
L 236.655993 157.864904 
L 240.459637 151.227334 
L 241.727518 146.554176 
L 242.995399 145.487526 
L 245.531162 143.993367 
L 249.334805 141.145238 
L 250.602687 141.145238 
L 251.870568 137.718916 
L 253.138449 135.897652 
L 254.40633 132.933732 
L 258.209974 126.433449 
L 259.477855 124.971487 
L 263.281499 124.971487 
L 267.085143 123.157059 
L 275.960311 123.157059 
L 277.228193 120.18595 
L 279.763955 115.22329 
L 281.031836 106.625842 
L 331.747086 106.625842 
L 333.014968 102.617989 
L 334.282849 102.617989 
L 338.086493 100.639369 
L 340.622255 85.854795 
L 341.890136 80.41075 
L 343.158018 78.460433 
L 346.961661 72.325436 
L 348.229543 72.325436 
L 349.497424 71.393591 
L 352.033186 71.393591 
L 355.83683 69.674729 
L 357.104711 67.13777 
L 358.372593 61.822573 
L 374.855049 61.822573 
L 376.12293 59.419938 
L 377.390811 59.419938 
L 378.658693 56.194185 
L 382.462336 56.194185 
L 383.730218 51.563634 
L 391.337505 51.563634 
L 392.605386 50.121324 
L 421.766655 50.121324 
L 423.034536 47.946081 
L 426.83818 42.929895 
L 428.106061 42.098902 
L 429.373942 42.098902 
L 430.641824 38.755103 
L 529.536561 38.755103 
L 529.536561 38.755103 
" clip-path="url(#p84b189156f)" style="fill: none; stroke: #ff0000; stroke-width: 1.5; stroke-linecap: square"/>
   </g>
   <g id="patch_3">
    <path d="M 52.94 288.132273 
L 52.94 26.88 
" style="fill: none; stroke: #000000; stroke-width: 0.8; stroke-linejoin: miter; stroke-linecap: square"/>
   </g>
   <g id="patch_4">
    <path d="M 552.231635 288.132273 
L 552.231635 26.88 
" style="fill: none; stroke: #000000; stroke-width: 0.8; stroke-linejoin: miter; stroke-linecap: square"/>
   </g>
   <g id="patch_5">
    <path d="M 52.94 288.132273 
L 552.231635 288.132273 
" style="fill: none; stroke: #000000; stroke-width: 0.8; stroke-linejoin: miter; stroke-linecap: square"/>
   </g>
   <g id="patch_6">
    <path d="M 52.94 26.88 
L 552.231635 26.88 
" style="fill: none; stroke: #000000; stroke-width: 0.8; stroke-linejoin: miter; stroke-linecap: square"/>
   </g>
   <g id="text_7">
    <!-- Performance of AVAN-strategy year 2018 -->
    <g transform="translate(179.272693 20.88)scale(0.12 -0.12)">
     <defs>
      <path id="DejaVuSans-50" d="M 1259 4147 
L 1259 2394 
L 2053 2394 
Q 2494 2394 2734 2622 
Q 2975 2850 2975 3272 
Q 2975 3691 2734 3919 
Q 2494 4147 2053 4147 
L 1259 4147 
z
M 628 4666 
L 2053 4666 
Q 2838 4666 3239 4311 
Q 3641 3956 3641 3272 
Q 3641 2581 3239 2228 
Q 2838 1875 2053 1875 
L 1259 1875 
L 1259 0 
L 628 0 
L 628 4666 
z
" transform="scale(0.015625)"/>
      <path id="DejaVuSans-66" d="M 2375 4863 
L 2375 4384 
L 1825 4384 
Q 1516 4384 1395 4259 
Q 1275 4134 1275 3809 
L 1275 3500 
L 2222 3500 
L 2222 3053 
L 1275 3053 
L 1275 0 
L 697 0 
L 697 3053 
L 147 3053 
L 147 3500 
L 697 3500 
L 697 3744 
Q 697 4328 969 4595 
Q 1241 4863 1831 4863 
L 2375 4863 
z
" transform="scale(0.015625)"/>
      <path id="DejaVuSans-6f" d="M 1959 3097 
Q 1497 3097 1228 2736 
Q 959 2375 959 1747 
Q 959 1119 1226 758 
Q 1494 397 1959 397 
Q 2419 397 2687 759 
Q 2956 1122 2956 1747 
Q 2956 2369 2687 2733 
Q 2419 3097 1959 3097 
z
M 1959 3584 
Q 2709 3584 3137 3096 
Q 3566 2609 3566 1747 
Q 3566 888 3137 398 
Q 2709 -91 1959 -91 
Q 1206 -91 779 398 
Q 353 888 353 1747 
Q 353 2609 779 3096 
Q 1206 3584 1959 3584 
z
" transform="scale(0.015625)"/>
      <path id="DejaVuSans-6d" d="M 3328 2828 
Q 3544 3216 3844 3400 
Q 4144 3584 4550 3584 
Q 5097 3584 5394 3201 
Q 5691 2819 5691 2113 
L 5691 0 
L 5113 0 
L 5113 2094 
Q 5113 2597 4934 2840 
Q 4756 3084 4391 3084 
Q 3944 3084 3684 2787 
Q 3425 2491 3425 1978 
L 3425 0 
L 2847 0 
L 2847 2094 
Q 2847 2600 2669 2842 
Q 2491 3084 2119 3084 
Q 1678 3084 1418 2786 
Q 1159 2488 1159 1978 
L 1159 0 
L 581 0 
L 581 3500 
L 1159 3500 
L 1159 2956 
Q 1356 3278 1631 3431 
Q 1906 3584 2284 3584 
Q 2666 3584 2933 3390 
Q 3200 3197 3328 2828 
z
" transform="scale(0.015625)"/>
      <path id="DejaVuSans-61" d="M 2194 1759 
Q 1497 1759 1228 1600 
Q 959 1441 959 1056 
Q 959 750 1161 570 
Q 1363 391 1709 391 
Q 2188 391 2477 730 
Q 2766 1069 2766 1631 
L 2766 1759 
L 2194 1759 
z
M 3341 1997 
L 3341 0 
L 2766 0 
L 2766 531 
Q 2569 213 2275 61 
Q 1981 -91 1556 -91 
Q 1019 -91 701 211 
Q 384 513 384 1019 
Q 384 1609 779 1909 
Q 1175 2209 1959 2209 
L 2766 2209 
L 2766 2266 
Q 2766 2663 2505 2880 
Q 2244 3097 1772 3097 
Q 1472 3097 1187 3025 
Q 903 2953 641 2809 
L 641 3341 
Q 956 3463 1253 3523 
Q 1550 3584 1831 3584 
Q 2591 3584 2966 3190 
Q 3341 2797 3341 1997 
z
" transform="scale(0.015625)"/>
      <path id="DejaVuSans-63" d="M 3122 3366 
L 3122 2828 
Q 2878 2963 2633 3030 
Q 2388 3097 2138 3097 
Q 1578 3097 1268 2742 
Q 959 2388 959 1747 
Q 959 1106 1268 751 
Q 1578 397 2138 397 
Q 2388 397 2633 464 
Q 2878 531 3122 666 
L 3122 134 
Q 2881 22 2623 -34 
Q 2366 -91 2075 -91 
Q 1284 -91 818 406 
Q 353 903 353 1747 
Q 353 2603 823 3093 
Q 1294 3584 2113 3584 
Q 2378 3584 2631 3529 
Q 2884 3475 3122 3366 
z
" transform="scale(0.015625)"/>
      <path id="DejaVuSans-41" d="M 2188 4044 
L 1331 1722 
L 3047 1722 
L 2188 4044 
z
M 1831 4666 
L 2547 4666 
L 4325 0 
L 3669 0 
L 3244 1197 
L 1141 1197 
L 716 0 
L 50 0 
L 1831 4666 
z
" transform="scale(0.015625)"/>
      <path id="DejaVuSans-56" d="M 1831 0 
L 50 4666 
L 709 4666 
L 2188 738 
L 3669 4666 
L 4325 4666 
L 2547 0 
L 1831 0 
z
" transform="scale(0.015625)"/>
      <path id="DejaVuSans-4e" d="M 628 4666 
L 1478 4666 
L 3547 763 
L 3547 4666 
L 4159 4666 
L 4159 0 
L 3309 0 
L 1241 3903 
L 1241 0 
L 628 0 
L 628 4666 
z
" transform="scale(0.015625)"/>
      <path id="DejaVuSans-2d" d="M 313 2009 
L 1997 2009 
L 1997 1497 
L 313 1497 
L 313 2009 
z
" transform="scale(0.015625)"/>
      <path id="DejaVuSans-73" d="M 2834 3397 
L 2834 2853 
Q 2591 2978 2328 3040 
Q 2066 3103 1784 3103 
Q 1356 3103 1142 2972 
Q 928 2841 928 2578 
Q 928 2378 1081 2264 
Q 1234 2150 1697 2047 
L 1894 2003 
Q 2506 1872 2764 1633 
Q 3022 1394 3022 966 
Q 3022 478 2636 193 
Q 2250 -91 1575 -91 
Q 1294 -91 989 -36 
Q 684 19 347 128 
L 347 722 
Q 666 556 975 473 
Q 1284 391 1588 391 
Q 1994 391 2212 530 
Q 2431 669 2431 922 
Q 2431 1156 2273 1281 
Q 2116 1406 1581 1522 
L 1381 1569 
Q 847 1681 609 1914 
Q 372 2147 372 2553 
Q 372 3047 722 3315 
Q 1072 3584 1716 3584 
Q 2034 3584 2315 3537 
Q 2597 3491 2834 3397 
z
" transform="scale(0.015625)"/>
      <path id="DejaVuSans-67" d="M 2906 1791 
Q 2906 2416 2648 2759 
Q 2391 3103 1925 3103 
Q 1463 3103 1205 2759 
Q 947 2416 947 1791 
Q 947 1169 1205 825 
Q 1463 481 1925 481 
Q 2391 481 2648 825 
Q 2906 1169 2906 1791 
z
M 3481 434 
Q 3481 -459 3084 -895 
Q 2688 -1331 1869 -1331 
Q 1566 -1331 1297 -1286 
Q 1028 -1241 775 -1147 
L 775 -588 
Q 1028 -725 1275 -790 
Q 1522 -856 1778 -856 
Q 2344 -856 2625 -561 
Q 2906 -266 2906 331 
L 2906 616 
Q 2728 306 2450 153 
Q 2172 0 1784 0 
Q 1141 0 747 490 
Q 353 981 353 1791 
Q 353 2603 747 3093 
Q 1141 3584 1784 3584 
Q 2172 3584 2450 3431 
Q 2728 3278 2906 2969 
L 2906 3500 
L 3481 3500 
L 3481 434 
z
" transform="scale(0.015625)"/>
      <path id="DejaVuSans-79" d="M 2059 -325 
Q 1816 -950 1584 -1140 
Q 1353 -1331 966 -1331 
L 506 -1331 
L 506 -850 
L 844 -850 
Q 1081 -850 1212 -737 
Q 1344 -625 1503 -206 
L 1606 56 
L 191 3500 
L 800 3500 
L 1894 763 
L 2988 3500 
L 3597 3500 
L 2059 -325 
z
" transform="scale(0.015625)"/>
      <path id="DejaVuSans-38" d="M 2034 2216 
Q 1584 2216 1326 1975 
Q 1069 1734 1069 1313 
Q 1069 891 1326 650 
Q 1584 409 2034 409 
Q 2484 409 2743 651 
Q 3003 894 3003 1313 
Q 3003 1734 2745 1975 
Q 2488 2216 2034 2216 
z
M 1403 2484 
Q 997 2584 770 2862 
Q 544 3141 544 3541 
Q 544 4100 942 4425 
Q 1341 4750 2034 4750 
Q 2731 4750 3128 4425 
Q 3525 4100 3525 3541 
Q 3525 3141 3298 2862 
Q 3072 2584 2669 2484 
Q 3125 2378 3379 2068 
Q 3634 1759 3634 1313 
Q 3634 634 3220 271 
Q 2806 -91 2034 -91 
Q 1263 -91 848 271 
Q 434 634 434 1313 
Q 434 1759 690 2068 
Q 947 2378 1403 2484 
z
M 1172 3481 
Q 1172 3119 1398 2916 
Q 1625 2713 2034 2713 
Q 2441 2713 2670 2916 
Q 2900 3119 2900 3481 
Q 2900 3844 2670 4047 
Q 2441 4250 2034 4250 
Q 1625 4250 1398 4047 
Q 1172 3844 1172 3481 
z
" transform="scale(0.015625)"/>
     </defs>
     <use xlink:href="#DejaVuSans-50"/>
     <use xlink:href="#DejaVuSans-65" x="56.677734"/>
     <use xlink:href="#DejaVuSans-72" x="118.201172"/>
     <use xlink:href="#DejaVuSans-66" x="159.314453"/>
     <use xlink:href="#DejaVuSans-6f" x="194.519531"/>
     <use xlink:href="#DejaVuSans-72" x="255.701172"/>
     <use xlink:href="#DejaVuSans-6d" x="295.064453"/>
     <use xlink:href="#DejaVuSans-61" x="392.476562"/>
     <use xlink:href="#DejaVuSans-6e" x="453.755859"/>
     <use xlink:href="#DejaVuSans-63" x="517.134766"/>
     <use xlink:href="#DejaVuSans-65" x="572.115234"/>
     <use xlink:href="#DejaVuSans-20" x="633.638672"/>
     <use xlink:href="#DejaVuSans-6f" x="665.425781"/>
     <use xlink:href="#DejaVuSans-66" x="726.607422"/>
     <use xlink:href="#DejaVuSans-20" x="761.8125"/>
     <use xlink:href="#DejaVuSans-41" x="793.599609"/>
     <use xlink:href="#DejaVuSans-56" x="855.632812"/>
     <use xlink:href="#DejaVuSans-41" x="917.666016"/>
     <use xlink:href="#DejaVuSans-4e" x="986.074219"/>
     <use xlink:href="#DejaVuSans-2d" x="1060.878906"/>
     <use xlink:href="#DejaVuSans-73" x="1096.962891"/>
     <use xlink:href="#DejaVuSans-74" x="1149.0625"/>
     <use xlink:href="#DejaVuSans-72" x="1188.271484"/>
     <use xlink:href="#DejaVuSans-61" x="1229.384766"/>
     <use xlink:href="#DejaVuSans-74" x="1290.664062"/>
     <use xlink:href="#DejaVuSans-65" x="1329.873047"/>
     <use xlink:href="#DejaVuSans-67" x="1391.396484"/>
     <use xlink:href="#DejaVuSans-79" x="1454.873047"/>
     <use xlink:href="#DejaVuSans-20" x="1514.052734"/>
     <use xlink:href="#DejaVuSans-79" x="1545.839844"/>
     <use xlink:href="#DejaVuSans-65" x="1605.019531"/>
     <use xlink:href="#DejaVuSans-61" x="1666.542969"/>
     <use xlink:href="#DejaVuSans-72" x="1727.822266"/>
     <use xlink:href="#DejaVuSans-20" x="1768.935547"/>
     <use xlink:href="#DejaVuSans-32" x="1800.722656"/>
     <use xlink:href="#DejaVuSans-30" x="1864.345703"/>
     <use xlink:href="#DejaVuSans-31" x="1927.96875"/>
     <use xlink:href="#DejaVuSans-38" x="1991.591797"/>
    </g>
   </g>
   <g id="legend_1">
    <g id="patch_7">
     <path d="M 59.94 78.914375 
L 187.361875 78.914375 
Q 189.361875 78.914375 189.361875 76.914375 
L 189.361875 33.88 
Q 189.361875 31.88 187.361875 31.88 
L 59.94 31.88 
Q 57.94 31.88 57.94 33.88 
L 57.94 76.914375 
Q 57.94 78.914375 59.94 78.914375 
z
" style="fill: #ffffff; opacity: 0.8; stroke: #cccccc; stroke-linejoin: miter"/>
    </g>
    <g id="line2d_16">
     <path d="M 61.94 39.978438 
L 71.94 39.978438 
L 81.94 39.978438 
" style="fill: none; stroke: #008000; stroke-width: 1.5; stroke-linecap: square"/>
    </g>
    <g id="text_8">
     <!-- -11.7% return omx -->
     <g transform="translate(89.94 43.478438)scale(0.1 -0.1)">
      <defs>
       <path id="DejaVuSans-2e" d="M 684 794 
L 1344 794 
L 1344 0 
L 684 0 
L 684 794 
z
" transform="scale(0.015625)"/>
       <path id="DejaVuSans-37" d="M 525 4666 
L 3525 4666 
L 3525 4397 
L 1831 0 
L 1172 0 
L 2766 4134 
L 525 4134 
L 525 4666 
z
" transform="scale(0.015625)"/>
       <path id="DejaVuSans-78" d="M 3513 3500 
L 2247 1797 
L 3578 0 
L 2900 0 
L 1881 1375 
L 863 0 
L 184 0 
L 1544 1831 
L 300 3500 
L 978 3500 
L 1906 2253 
L 2834 3500 
L 3513 3500 
z
" transform="scale(0.015625)"/>
      </defs>
      <use xlink:href="#DejaVuSans-2d"/>
      <use xlink:href="#DejaVuSans-31" x="36.083984"/>
      <use xlink:href="#DejaVuSans-31" x="99.707031"/>
      <use xlink:href="#DejaVuSans-2e" x="163.330078"/>
      <use xlink:href="#DejaVuSans-37" x="195.117188"/>
      <use xlink:href="#DejaVuSans-25" x="258.740234"/>
      <use xlink:href="#DejaVuSans-20" x="353.759766"/>
      <use xlink:href="#DejaVuSans-72" x="385.546875"/>
      <use xlink:href="#DejaVuSans-65" x="424.410156"/>
      <use xlink:href="#DejaVuSans-74" x="485.933594"/>
      <use xlink:href="#DejaVuSans-75" x="525.142578"/>
      <use xlink:href="#DejaVuSans-72" x="588.521484"/>
      <use xlink:href="#DejaVuSans-6e" x="627.884766"/>
      <use xlink:href="#DejaVuSans-20" x="691.263672"/>
      <use xlink:href="#DejaVuSans-6f" x="723.050781"/>
      <use xlink:href="#DejaVuSans-6d" x="784.232422"/>
      <use xlink:href="#DejaVuSans-78" x="881.644531"/>
     </g>
    </g>
    <g id="line2d_17">
     <path d="M 61.94 54.656563 
L 71.94 54.656563 
L 81.94 54.656563 
" style="fill: none; stroke: #0000ff; stroke-width: 1.5; stroke-linecap: square"/>
    </g>
    <g id="text_9">
     <!-- 19.2% return AVAN -->
     <g transform="translate(89.94 58.156563)scale(0.1 -0.1)">
      <defs>
       <path id="DejaVuSans-39" d="M 703 97 
L 703 672 
Q 941 559 1184 500 
Q 1428 441 1663 441 
Q 2288 441 2617 861 
Q 2947 1281 2994 2138 
Q 2813 1869 2534 1725 
Q 2256 1581 1919 1581 
Q 1219 1581 811 2004 
Q 403 2428 403 3163 
Q 403 3881 828 4315 
Q 1253 4750 1959 4750 
Q 2769 4750 3195 4129 
Q 3622 3509 3622 2328 
Q 3622 1225 3098 567 
Q 2575 -91 1691 -91 
Q 1453 -91 1209 -44 
Q 966 3 703 97 
z
M 1959 2075 
Q 2384 2075 2632 2365 
Q 2881 2656 2881 3163 
Q 2881 3666 2632 3958 
Q 2384 4250 1959 4250 
Q 1534 4250 1286 3958 
Q 1038 3666 1038 3163 
Q 1038 2656 1286 2365 
Q 1534 2075 1959 2075 
z
" transform="scale(0.015625)"/>
      </defs>
      <use xlink:href="#DejaVuSans-31"/>
      <use xlink:href="#DejaVuSans-39" x="63.623047"/>
      <use xlink:href="#DejaVuSans-2e" x="127.246094"/>
      <use xlink:href="#DejaVuSans-32" x="159.033203"/>
      <use xlink:href="#DejaVuSans-25" x="222.65625"/>
      <use xlink:href="#DejaVuSans-20" x="317.675781"/>
      <use xlink:href="#DejaVuSans-72" x="349.462891"/>
      <use xlink:href="#DejaVuSans-65" x="388.326172"/>
      <use xlink:href="#DejaVuSans-74" x="449.849609"/>
      <use xlink:href="#DejaVuSans-75" x="489.058594"/>
      <use xlink:href="#DejaVuSans-72" x="552.4375"/>
      <use xlink:href="#DejaVuSans-6e" x="591.800781"/>
      <use xlink:href="#DejaVuSans-20" x="655.179688"/>
      <use xlink:href="#DejaVuSans-41" x="686.966797"/>
      <use xlink:href="#DejaVuSans-56" x="749"/>
      <use xlink:href="#DejaVuSans-41" x="811.033203"/>
      <use xlink:href="#DejaVuSans-4e" x="879.441406"/>
     </g>
    </g>
    <g id="line2d_18">
     <path d="M 61.94 69.334688 
L 71.94 69.334688 
L 81.94 69.334688 
" style="fill: none; stroke: #ff0000; stroke-width: 1.5; stroke-linecap: square"/>
    </g>
    <g id="text_10">
     <!-- cummax -->
     <g transform="translate(89.94 72.834688)scale(0.1 -0.1)">
      <use xlink:href="#DejaVuSans-63"/>
      <use xlink:href="#DejaVuSans-75" x="54.980469"/>
      <use xlink:href="#DejaVuSans-6d" x="118.359375"/>
      <use xlink:href="#DejaVuSans-6d" x="215.771484"/>
      <use xlink:href="#DejaVuSans-61" x="313.183594"/>
      <use xlink:href="#DejaVuSans-78" x="374.462891"/>
     </g>
    </g>
   </g>
  </g>
  <g id="axes_2">
   <g id="patch_8">
    <path d="M 52.94 390.04 
L 552.231635 390.04 
L 552.231635 302.955909 
L 52.94 302.955909 
z
" style="fill: #ffffff"/>
   </g>
   <g id="matplotlib.axis_3">
    <g id="xtick_8">
     <g id="line2d_19">
      <g>
       <use xlink:href="#m2ecd84f8a6" x="80.706599" y="390.04" style="stroke: #000000; stroke-width: 0.8"/>
      </g>
     </g>
     <g id="text_11">
      <!-- 2018-01 -->
      <g transform="translate(59.815193 404.638438)scale(0.1 -0.1)">
       <use xlink:href="#DejaVuSans-32"/>
       <use xlink:href="#DejaVuSans-30" x="63.623047"/>
       <use xlink:href="#DejaVuSans-31" x="127.246094"/>
       <use xlink:href="#DejaVuSans-38" x="190.869141"/>
       <use xlink:href="#DejaVuSans-2d" x="254.492188"/>
       <use xlink:href="#DejaVuSans-30" x="290.576172"/>
       <use xlink:href="#DejaVuSans-31" x="354.199219"/>
      </g>
     </g>
    </g>
    <g id="xtick_9">
     <g id="line2d_20">
      <g>
       <use xlink:href="#m2ecd84f8a6" x="155.511593" y="390.04" style="stroke: #000000; stroke-width: 0.8"/>
      </g>
     </g>
     <g id="text_12">
      <!-- 2018-03 -->
      <g transform="translate(134.620187 404.638438)scale(0.1 -0.1)">
       <use xlink:href="#DejaVuSans-32"/>
       <use xlink:href="#DejaVuSans-30" x="63.623047"/>
       <use xlink:href="#DejaVuSans-31" x="127.246094"/>
       <use xlink:href="#DejaVuSans-38" x="190.869141"/>
       <use xlink:href="#DejaVuSans-2d" x="254.492188"/>
       <use xlink:href="#DejaVuSans-30" x="290.576172"/>
       <use xlink:href="#DejaVuSans-33" x="354.199219"/>
      </g>
     </g>
    </g>
    <g id="xtick_10">
     <g id="line2d_21">
      <g>
       <use xlink:href="#m2ecd84f8a6" x="232.852349" y="390.04" style="stroke: #000000; stroke-width: 0.8"/>
      </g>
     </g>
     <g id="text_13">
      <!-- 2018-05 -->
      <g transform="translate(211.960943 404.638438)scale(0.1 -0.1)">
       <defs>
        <path id="DejaVuSans-35" d="M 691 4666 
L 3169 4666 
L 3169 4134 
L 1269 4134 
L 1269 2991 
Q 1406 3038 1543 3061 
Q 1681 3084 1819 3084 
Q 2600 3084 3056 2656 
Q 3513 2228 3513 1497 
Q 3513 744 3044 326 
Q 2575 -91 1722 -91 
Q 1428 -91 1123 -41 
Q 819 9 494 109 
L 494 744 
Q 775 591 1075 516 
Q 1375 441 1709 441 
Q 2250 441 2565 725 
Q 2881 1009 2881 1497 
Q 2881 1984 2565 2268 
Q 2250 2553 1709 2553 
Q 1456 2553 1204 2497 
Q 953 2441 691 2322 
L 691 4666 
z
" transform="scale(0.015625)"/>
       </defs>
       <use xlink:href="#DejaVuSans-32"/>
       <use xlink:href="#DejaVuSans-30" x="63.623047"/>
       <use xlink:href="#DejaVuSans-31" x="127.246094"/>
       <use xlink:href="#DejaVuSans-38" x="190.869141"/>
       <use xlink:href="#DejaVuSans-2d" x="254.492188"/>
       <use xlink:href="#DejaVuSans-30" x="290.576172"/>
       <use xlink:href="#DejaVuSans-35" x="354.199219"/>
      </g>
     </g>
    </g>
    <g id="xtick_11">
     <g id="line2d_22">
      <g>
       <use xlink:href="#m2ecd84f8a6" x="310.193105" y="390.04" style="stroke: #000000; stroke-width: 0.8"/>
      </g>
     </g>
     <g id="text_14">
      <!-- 2018-07 -->
      <g transform="translate(289.301699 404.638438)scale(0.1 -0.1)">
       <use xlink:href="#DejaVuSans-32"/>
       <use xlink:href="#DejaVuSans-30" x="63.623047"/>
       <use xlink:href="#DejaVuSans-31" x="127.246094"/>
       <use xlink:href="#DejaVuSans-38" x="190.869141"/>
       <use xlink:href="#DejaVuSans-2d" x="254.492188"/>
       <use xlink:href="#DejaVuSans-30" x="290.576172"/>
       <use xlink:href="#DejaVuSans-37" x="354.199219"/>
      </g>
     </g>
    </g>
    <g id="xtick_12">
     <g id="line2d_23">
      <g>
       <use xlink:href="#m2ecd84f8a6" x="388.801743" y="390.04" style="stroke: #000000; stroke-width: 0.8"/>
      </g>
     </g>
     <g id="text_15">
      <!-- 2018-09 -->
      <g transform="translate(367.910336 404.638438)scale(0.1 -0.1)">
       <use xlink:href="#DejaVuSans-32"/>
       <use xlink:href="#DejaVuSans-30" x="63.623047"/>
       <use xlink:href="#DejaVuSans-31" x="127.246094"/>
       <use xlink:href="#DejaVuSans-38" x="190.869141"/>
       <use xlink:href="#DejaVuSans-2d" x="254.492188"/>
       <use xlink:href="#DejaVuSans-30" x="290.576172"/>
       <use xlink:href="#DejaVuSans-39" x="354.199219"/>
      </g>
     </g>
    </g>
    <g id="xtick_13">
     <g id="line2d_24">
      <g>
       <use xlink:href="#m2ecd84f8a6" x="466.142499" y="390.04" style="stroke: #000000; stroke-width: 0.8"/>
      </g>
     </g>
     <g id="text_16">
      <!-- 2018-11 -->
      <g transform="translate(445.251092 404.638438)scale(0.1 -0.1)">
       <use xlink:href="#DejaVuSans-32"/>
       <use xlink:href="#DejaVuSans-30" x="63.623047"/>
       <use xlink:href="#DejaVuSans-31" x="127.246094"/>
       <use xlink:href="#DejaVuSans-38" x="190.869141"/>
       <use xlink:href="#DejaVuSans-2d" x="254.492188"/>
       <use xlink:href="#DejaVuSans-31" x="290.576172"/>
       <use xlink:href="#DejaVuSans-31" x="354.199219"/>
      </g>
     </g>
    </g>
    <g id="xtick_14">
     <g id="line2d_25">
      <g>
       <use xlink:href="#m2ecd84f8a6" x="543.483255" y="390.04" style="stroke: #000000; stroke-width: 0.8"/>
      </g>
     </g>
     <g id="text_17">
      <!-- 2019-01 -->
      <g transform="translate(522.591848 404.638438)scale(0.1 -0.1)">
       <use xlink:href="#DejaVuSans-32"/>
       <use xlink:href="#DejaVuSans-30" x="63.623047"/>
       <use xlink:href="#DejaVuSans-31" x="127.246094"/>
       <use xlink:href="#DejaVuSans-39" x="190.869141"/>
       <use xlink:href="#DejaVuSans-2d" x="254.492188"/>
       <use xlink:href="#DejaVuSans-30" x="290.576172"/>
       <use xlink:href="#DejaVuSans-31" x="354.199219"/>
      </g>
     </g>
    </g>
    <g id="text_18">
     <!-- Time -->
     <g transform="translate(290.352224 418.316562)scale(0.1 -0.1)">
      <defs>
       <path id="DejaVuSans-54" d="M -19 4666 
L 3928 4666 
L 3928 4134 
L 2272 4134 
L 2272 0 
L 1638 0 
L 1638 4134 
L -19 4134 
L -19 4666 
z
" transform="scale(0.015625)"/>
       <path id="DejaVuSans-69" d="M 603 3500 
L 1178 3500 
L 1178 0 
L 603 0 
L 603 3500 
z
M 603 4863 
L 1178 4863 
L 1178 4134 
L 603 4134 
L 603 4863 
z
" transform="scale(0.015625)"/>
      </defs>
      <use xlink:href="#DejaVuSans-54"/>
      <use xlink:href="#DejaVuSans-69" x="57.958984"/>
      <use xlink:href="#DejaVuSans-6d" x="85.742188"/>
      <use xlink:href="#DejaVuSans-65" x="183.154297"/>
     </g>
    </g>
   </g>
   <g id="matplotlib.axis_4">
    <g id="ytick_6">
     <g id="line2d_26">
      <g>
       <use xlink:href="#m542ed40c83" x="52.94" y="348.481957" style="stroke: #000000; stroke-width: 0.8"/>
      </g>
     </g>
     <g id="text_19">
      <!-- −5 -->
      <g transform="translate(31.197813 352.281175)scale(0.1 -0.1)">
       <use xlink:href="#DejaVuSans-2212"/>
       <use xlink:href="#DejaVuSans-35" x="83.789062"/>
      </g>
     </g>
    </g>
    <g id="ytick_7">
     <g id="line2d_27">
      <g>
       <use xlink:href="#m542ed40c83" x="52.94" y="306.914277" style="stroke: #000000; stroke-width: 0.8"/>
      </g>
     </g>
     <g id="text_20">
      <!-- 0 -->
      <g transform="translate(39.5775 310.713496)scale(0.1 -0.1)">
       <use xlink:href="#DejaVuSans-30"/>
      </g>
     </g>
    </g>
    <g id="text_21">
     <!-- DD % -->
     <g transform="translate(25.118125 360.537798)rotate(-90)scale(0.1 -0.1)">
      <defs>
       <path id="DejaVuSans-44" d="M 1259 4147 
L 1259 519 
L 2022 519 
Q 2988 519 3436 956 
Q 3884 1394 3884 2338 
Q 3884 3275 3436 3711 
Q 2988 4147 2022 4147 
L 1259 4147 
z
M 628 4666 
L 1925 4666 
Q 3281 4666 3915 4102 
Q 4550 3538 4550 2338 
Q 4550 1131 3912 565 
Q 3275 0 1925 0 
L 628 0 
L 628 4666 
z
" transform="scale(0.015625)"/>
      </defs>
      <use xlink:href="#DejaVuSans-44"/>
      <use xlink:href="#DejaVuSans-44" x="77.001953"/>
      <use xlink:href="#DejaVuSans-20" x="154.003906"/>
      <use xlink:href="#DejaVuSans-25" x="185.791016"/>
     </g>
    </g>
   </g>
   <g id="line2d_28">
    <path d="M 75.635074 306.914277 
L 81.974481 306.914277 
L 83.242362 307.517259 
L 84.510243 306.914277 
L 92.117531 306.914277 
L 93.385412 310.479044 
L 94.653293 307.037454 
L 99.724818 306.914277 
L 100.992699 314.858066 
L 102.260581 315.54737 
L 103.528462 321.294688 
L 107.332106 315.570822 
L 108.599987 316.773561 
L 109.867868 321.401545 
L 111.135749 335.139222 
L 112.403631 335.522097 
L 116.207274 333.911678 
L 117.475156 344.78226 
L 144.100662 344.78226 
L 145.368543 344.037808 
L 146.636424 347.106014 
L 147.904305 341.342429 
L 151.707949 332.836721 
L 152.97583 332.442513 
L 154.243712 333.934852 
L 155.511593 337.014791 
L 156.779474 349.476483 
L 160.583118 354.385678 
L 161.850999 339.122624 
L 163.11888 340.985963 
L 165.654643 340.985963 
L 169.458287 339.679287 
L 170.726168 337.826808 
L 171.994049 342.002615 
L 173.26193 340.357268 
L 174.529812 340.357268 
L 178.333455 338.614647 
L 179.601337 337.871337 
L 180.869218 342.2618 
L 182.137099 344.032125 
L 183.40498 355.363018 
L 187.208624 344.495593 
L 201.155318 344.495593 
L 204.958962 335.992669 
L 207.494724 335.992669 
L 208.762605 336.933623 
L 210.030487 326.687073 
L 215.102012 320.123813 
L 216.369893 317.213381 
L 217.637774 309.978728 
L 218.905655 307.962683 
L 222.709299 306.914277 
L 223.97718 306.914277 
L 225.245062 313.458081 
L 226.512943 309.04311 
L 227.780824 306.914277 
L 235.388112 306.914277 
L 236.655993 307.863832 
L 240.459637 306.914277 
L 249.334805 306.914277 
L 250.602687 307.560649 
L 251.870568 306.914277 
L 259.477855 306.914277 
L 260.745736 314.561992 
L 262.013618 314.990969 
L 267.085143 306.914277 
L 268.353024 312.470133 
L 269.620905 313.514886 
L 270.888786 318.571322 
L 272.156668 321.985262 
L 275.960311 311.616416 
L 277.228193 306.914277 
L 281.031836 306.914277 
L 284.83548 307.430324 
L 287.371243 316.384834 
L 288.639124 318.884 
L 289.907005 314.11114 
L 293.710649 320.215667 
L 294.97853 320.83603 
L 296.246411 317.741039 
L 297.514293 320.824439 
L 302.585818 322.950148 
L 312.728868 322.950148 
L 313.996749 323.153332 
L 315.26463 335.034858 
L 316.532511 334.762793 
L 320.336155 332.13142 
L 321.604036 326.726475 
L 322.871918 325.459853 
L 324.139799 323.589932 
L 325.40768 325.831758 
L 329.211324 326.92182 
L 330.479205 318.955015 
L 331.747086 312.17428 
L 333.014968 306.914277 
L 334.282849 310.117985 
L 338.086493 306.914277 
L 346.961661 306.914277 
L 348.229543 307.28274 
L 349.497424 306.914277 
L 350.765305 306.947897 
L 352.033186 312.147769 
L 355.83683 306.914277 
L 358.372593 306.914277 
L 359.640474 309.770859 
L 360.908355 310.45227 
L 365.97988 312.645555 
L 367.247761 317.78733 
L 368.515643 315.379128 
L 369.783524 312.606359 
L 373.587168 308.090995 
L 374.855049 307.623195 
L 376.12293 306.914277 
L 377.390811 308.444649 
L 378.658693 306.914277 
L 382.462336 307.639985 
L 383.730218 306.914277 
L 384.998099 307.676499 
L 386.26598 310.562582 
L 387.533861 310.779737 
L 391.337505 306.96928 
L 392.605386 306.914277 
L 393.873268 321.982114 
L 395.141149 323.357702 
L 396.40903 328.300046 
L 400.212674 328.300046 
L 401.480555 325.021165 
L 402.748436 325.021165 
L 404.016317 326.475195 
L 405.284199 322.191074 
L 409.087842 321.953322 
L 410.355724 319.341764 
L 411.623605 323.094103 
L 412.891486 325.862073 
L 414.159367 323.174748 
L 417.963011 317.804112 
L 419.230892 316.651977 
L 420.498774 315.817125 
L 421.766655 315.406022 
L 423.034536 306.914277 
L 430.641824 306.914277 
L 431.909705 321.004978 
L 435.713349 337.457981 
L 436.98123 335.354116 
L 438.249111 336.974447 
L 439.516992 364.392155 
L 464.874617 364.392155 
L 466.142499 347.723492 
L 467.41038 347.723492 
L 471.214024 348.118111 
L 472.481905 343.790011 
L 473.749786 344.29016 
L 475.017667 345.532493 
L 476.285549 347.081656 
L 480.089192 348.565554 
L 481.357074 366.212486 
L 482.624955 376.899458 
L 483.892836 378.149089 
L 485.160717 386.081632 
L 506.714699 386.081632 
L 507.98258 380.911376 
L 529.536561 380.911376 
L 529.536561 380.911376 
" clip-path="url(#p41704968d3)" style="fill: none; stroke: #0000ff; stroke-width: 1.5; stroke-linecap: square"/>
   </g>
   <g id="patch_9">
    <path d="M 52.94 390.04 
L 52.94 302.955909 
" style="fill: none; stroke: #000000; stroke-width: 0.8; stroke-linejoin: miter; stroke-linecap: square"/>
   </g>
   <g id="patch_10">
    <path d="M 552.231635 390.04 
L 552.231635 302.955909 
" style="fill: none; stroke: #000000; stroke-width: 0.8; stroke-linejoin: miter; stroke-linecap: square"/>
   </g>
   <g id="patch_11">
    <path d="M 52.94 390.04 
L 552.231635 390.04 
" style="fill: none; stroke: #000000; stroke-width: 0.8; stroke-linejoin: miter; stroke-linecap: square"/>
   </g>
   <g id="patch_12">
    <path d="M 52.94 302.955909 
L 552.231635 302.955909 
" style="fill: none; stroke: #000000; stroke-width: 0.8; stroke-linejoin: miter; stroke-linecap: square"/>
   </g>
  </g>
 </g>
 <defs>
  <clipPath id="p84b189156f">
   <rect x="52.94" y="26.88" width="499.291635" height="261.252273"/>
  </clipPath>
  <clipPath id="p41704968d3">
   <rect x="52.94" y="302.955909" width="499.291635" height="87.084091"/>
  </clipPath>
 </defs>
</svg>
