<?xml version="1.0" encoding="utf-8" standalone="no"?>
<!DOCTYPE svg PUBLIC "-//W3C//DTD SVG 1.1//EN"
  "http://www.w3.org/Graphics/SVG/1.1/DTD/svg11.dtd">
<svg xmlns:xlink="http://www.w3.org/1999/xlink" width="576pt" height="432pt" viewBox="0 0 576 432" xmlns="http://www.w3.org/2000/svg" version="1.1">
 <metadata>
  <rdf:RDF xmlns:dc="http://purl.org/dc/elements/1.1/" xmlns:cc="http://creativecommons.org/ns#" xmlns:rdf="http://www.w3.org/1999/02/22-rdf-syntax-ns#">
   <cc:Work>
    <dc:type rdf:resource="http://purl.org/dc/dcmitype/StillImage"/>
    <dc:date>2023-01-15T23:56:29.658767</dc:date>
    <dc:format>image/svg+xml</dc:format>
    <dc:creator>
     <cc:Agent>
      <dc:title>Matplotlib v3.5.0, https://matplotlib.org/</dc:title>
     </cc:Agent>
    </dc:creator>
   </cc:Work>
  </rdf:RDF>
 </metadata>
 <defs>
  <style type="text/css">*{stroke-linejoin: round; stroke-linecap: butt}</style>
 </defs>
 <g id="figure_1">
  <g id="patch_1">
   <path d="M 0 432 
L 576 432 
L 576 0 
L 0 0 
z
" style="fill: #ffffff"/>
  </g>
  <g id="axes_1">
   <g id="patch_2">
    <path d="M 52.94 287.65685 
L 554.486461 287.65685 
L 554.486461 26.88 
L 52.94 26.88 
z
" style="fill: #ffffff"/>
   </g>
   <g id="matplotlib.axis_1">
    <g id="xtick_1">
     <g id="line2d_1">
      <defs>
       <path id="mfc5f29722c" d="M 0 0 
L 0 3.5 
" style="stroke: #000000; stroke-width: 0.8"/>
      </defs>
      <g>
       <use xlink:href="#mfc5f29722c" x="74.456804" y="287.65685" style="stroke: #000000; stroke-width: 0.8"/>
      </g>
     </g>
    </g>
    <g id="xtick_2">
     <g id="line2d_2">
      <g>
       <use xlink:href="#mfc5f29722c" x="151.302534" y="287.65685" style="stroke: #000000; stroke-width: 0.8"/>
      </g>
     </g>
    </g>
    <g id="xtick_3">
     <g id="line2d_3">
      <g>
       <use xlink:href="#mfc5f29722c" x="229.429025" y="287.65685" style="stroke: #000000; stroke-width: 0.8"/>
      </g>
     </g>
    </g>
    <g id="xtick_4">
     <g id="line2d_4">
      <g>
       <use xlink:href="#mfc5f29722c" x="307.555517" y="287.65685" style="stroke: #000000; stroke-width: 0.8"/>
      </g>
     </g>
    </g>
    <g id="xtick_5">
     <g id="line2d_5">
      <g>
       <use xlink:href="#mfc5f29722c" x="386.962771" y="287.65685" style="stroke: #000000; stroke-width: 0.8"/>
      </g>
     </g>
    </g>
    <g id="xtick_6">
     <g id="line2d_6">
      <g>
       <use xlink:href="#mfc5f29722c" x="465.089262" y="287.65685" style="stroke: #000000; stroke-width: 0.8"/>
      </g>
     </g>
    </g>
    <g id="xtick_7">
     <g id="line2d_7">
      <g>
       <use xlink:href="#mfc5f29722c" x="543.215754" y="287.65685" style="stroke: #000000; stroke-width: 0.8"/>
      </g>
     </g>
    </g>
   </g>
   <g id="matplotlib.axis_2">
    <g id="ytick_1">
     <g id="line2d_8">
      <defs>
       <path id="maa499ec1d4" d="M 0 0 
L -3.5 0 
" style="stroke: #000000; stroke-width: 0.8"/>
      </defs>
      <g>
       <use xlink:href="#maa499ec1d4" x="52.94" y="285.37321" style="stroke: #000000; stroke-width: 0.8"/>
      </g>
     </g>
     <g id="text_1">
      <!-- −50 -->
      <g transform="translate(24.835313 289.172428)scale(0.1 -0.1)">
       <defs>
        <path id="DejaVuSans-2212" d="M 678 2272 
L 4684 2272 
L 4684 1741 
L 678 1741 
L 678 2272 
z
" transform="scale(0.015625)"/>
        <path id="DejaVuSans-35" d="M 691 4666 
L 3169 4666 
L 3169 4134 
L 1269 4134 
L 1269 2991 
Q 1406 3038 1543 3061 
Q 1681 3084 1819 3084 
Q 2600 3084 3056 2656 
Q 3513 2228 3513 1497 
Q 3513 744 3044 326 
Q 2575 -91 1722 -91 
Q 1428 -91 1123 -41 
Q 819 9 494 109 
L 494 744 
Q 775 591 1075 516 
Q 1375 441 1709 441 
Q 2250 441 2565 725 
Q 2881 1009 2881 1497 
Q 2881 1984 2565 2268 
Q 2250 2553 1709 2553 
Q 1456 2553 1204 2497 
Q 953 2441 691 2322 
L 691 4666 
z
" transform="scale(0.015625)"/>
        <path id="DejaVuSans-30" d="M 2034 4250 
Q 1547 4250 1301 3770 
Q 1056 3291 1056 2328 
Q 1056 1369 1301 889 
Q 1547 409 2034 409 
Q 2525 409 2770 889 
Q 3016 1369 3016 2328 
Q 3016 3291 2770 3770 
Q 2525 4250 2034 4250 
z
M 2034 4750 
Q 2819 4750 3233 4129 
Q 3647 3509 3647 2328 
Q 3647 1150 3233 529 
Q 2819 -91 2034 -91 
Q 1250 -91 836 529 
Q 422 1150 422 2328 
Q 422 3509 836 4129 
Q 1250 4750 2034 4750 
z
" transform="scale(0.015625)"/>
       </defs>
       <use xlink:href="#DejaVuSans-2212"/>
       <use xlink:href="#DejaVuSans-35" x="83.789062"/>
       <use xlink:href="#DejaVuSans-30" x="147.412109"/>
      </g>
     </g>
    </g>
    <g id="ytick_2">
     <g id="line2d_9">
      <g>
       <use xlink:href="#maa499ec1d4" x="52.94" y="246.885958" style="stroke: #000000; stroke-width: 0.8"/>
      </g>
     </g>
     <g id="text_2">
      <!-- −40 -->
      <g transform="translate(24.835313 250.685177)scale(0.1 -0.1)">
       <defs>
        <path id="DejaVuSans-34" d="M 2419 4116 
L 825 1625 
L 2419 1625 
L 2419 4116 
z
M 2253 4666 
L 3047 4666 
L 3047 1625 
L 3713 1625 
L 3713 1100 
L 3047 1100 
L 3047 0 
L 2419 0 
L 2419 1100 
L 313 1100 
L 313 1709 
L 2253 4666 
z
" transform="scale(0.015625)"/>
       </defs>
       <use xlink:href="#DejaVuSans-2212"/>
       <use xlink:href="#DejaVuSans-34" x="83.789062"/>
       <use xlink:href="#DejaVuSans-30" x="147.412109"/>
      </g>
     </g>
    </g>
    <g id="ytick_3">
     <g id="line2d_10">
      <g>
       <use xlink:href="#maa499ec1d4" x="52.94" y="208.398707" style="stroke: #000000; stroke-width: 0.8"/>
      </g>
     </g>
     <g id="text_3">
      <!-- −30 -->
      <g transform="translate(24.835313 212.197926)scale(0.1 -0.1)">
       <defs>
        <path id="DejaVuSans-33" d="M 2597 2516 
Q 3050 2419 3304 2112 
Q 3559 1806 3559 1356 
Q 3559 666 3084 287 
Q 2609 -91 1734 -91 
Q 1441 -91 1130 -33 
Q 819 25 488 141 
L 488 750 
Q 750 597 1062 519 
Q 1375 441 1716 441 
Q 2309 441 2620 675 
Q 2931 909 2931 1356 
Q 2931 1769 2642 2001 
Q 2353 2234 1838 2234 
L 1294 2234 
L 1294 2753 
L 1863 2753 
Q 2328 2753 2575 2939 
Q 2822 3125 2822 3475 
Q 2822 3834 2567 4026 
Q 2313 4219 1838 4219 
Q 1578 4219 1281 4162 
Q 984 4106 628 3988 
L 628 4550 
Q 988 4650 1302 4700 
Q 1616 4750 1894 4750 
Q 2613 4750 3031 4423 
Q 3450 4097 3450 3541 
Q 3450 3153 3228 2886 
Q 3006 2619 2597 2516 
z
" transform="scale(0.015625)"/>
       </defs>
       <use xlink:href="#DejaVuSans-2212"/>
       <use xlink:href="#DejaVuSans-33" x="83.789062"/>
       <use xlink:href="#DejaVuSans-30" x="147.412109"/>
      </g>
     </g>
    </g>
    <g id="ytick_4">
     <g id="line2d_11">
      <g>
       <use xlink:href="#maa499ec1d4" x="52.94" y="169.911456" style="stroke: #000000; stroke-width: 0.8"/>
      </g>
     </g>
     <g id="text_4">
      <!-- −20 -->
      <g transform="translate(24.835313 173.710675)scale(0.1 -0.1)">
       <defs>
        <path id="DejaVuSans-32" d="M 1228 531 
L 3431 531 
L 3431 0 
L 469 0 
L 469 531 
Q 828 903 1448 1529 
Q 2069 2156 2228 2338 
Q 2531 2678 2651 2914 
Q 2772 3150 2772 3378 
Q 2772 3750 2511 3984 
Q 2250 4219 1831 4219 
Q 1534 4219 1204 4116 
Q 875 4013 500 3803 
L 500 4441 
Q 881 4594 1212 4672 
Q 1544 4750 1819 4750 
Q 2544 4750 2975 4387 
Q 3406 4025 3406 3419 
Q 3406 3131 3298 2873 
Q 3191 2616 2906 2266 
Q 2828 2175 2409 1742 
Q 1991 1309 1228 531 
z
" transform="scale(0.015625)"/>
       </defs>
       <use xlink:href="#DejaVuSans-2212"/>
       <use xlink:href="#DejaVuSans-32" x="83.789062"/>
       <use xlink:href="#DejaVuSans-30" x="147.412109"/>
      </g>
     </g>
    </g>
    <g id="ytick_5">
     <g id="line2d_12">
      <g>
       <use xlink:href="#maa499ec1d4" x="52.94" y="131.424205" style="stroke: #000000; stroke-width: 0.8"/>
      </g>
     </g>
     <g id="text_5">
      <!-- −10 -->
      <g transform="translate(24.835313 135.223424)scale(0.1 -0.1)">
       <defs>
        <path id="DejaVuSans-31" d="M 794 531 
L 1825 531 
L 1825 4091 
L 703 3866 
L 703 4441 
L 1819 4666 
L 2450 4666 
L 2450 531 
L 3481 531 
L 3481 0 
L 794 0 
L 794 531 
z
" transform="scale(0.015625)"/>
       </defs>
       <use xlink:href="#DejaVuSans-2212"/>
       <use xlink:href="#DejaVuSans-31" x="83.789062"/>
       <use xlink:href="#DejaVuSans-30" x="147.412109"/>
      </g>
     </g>
    </g>
    <g id="ytick_6">
     <g id="line2d_13">
      <g>
       <use xlink:href="#maa499ec1d4" x="52.94" y="92.936954" style="stroke: #000000; stroke-width: 0.8"/>
      </g>
     </g>
     <g id="text_6">
      <!-- 0 -->
      <g transform="translate(39.5775 96.736173)scale(0.1 -0.1)">
       <use xlink:href="#DejaVuSans-30"/>
      </g>
     </g>
    </g>
    <g id="ytick_7">
     <g id="line2d_14">
      <g>
       <use xlink:href="#maa499ec1d4" x="52.94" y="54.449703" style="stroke: #000000; stroke-width: 0.8"/>
      </g>
     </g>
     <g id="text_7">
      <!-- 10 -->
      <g transform="translate(33.215 58.248922)scale(0.1 -0.1)">
       <use xlink:href="#DejaVuSans-31"/>
       <use xlink:href="#DejaVuSans-30" x="63.623047"/>
      </g>
     </g>
    </g>
    <g id="text_8">
     <!-- Return [%] -->
     <g transform="translate(18.755625 184.101237)rotate(-90)scale(0.1 -0.1)">
      <defs>
       <path id="DejaVuSans-52" d="M 2841 2188 
Q 3044 2119 3236 1894 
Q 3428 1669 3622 1275 
L 4263 0 
L 3584 0 
L 2988 1197 
Q 2756 1666 2539 1819 
Q 2322 1972 1947 1972 
L 1259 1972 
L 1259 0 
L 628 0 
L 628 4666 
L 2053 4666 
Q 2853 4666 3247 4331 
Q 3641 3997 3641 3322 
Q 3641 2881 3436 2590 
Q 3231 2300 2841 2188 
z
M 1259 4147 
L 1259 2491 
L 2053 2491 
Q 2509 2491 2742 2702 
Q 2975 2913 2975 3322 
Q 2975 3731 2742 3939 
Q 2509 4147 2053 4147 
L 1259 4147 
z
" transform="scale(0.015625)"/>
       <path id="DejaVuSans-65" d="M 3597 1894 
L 3597 1613 
L 953 1613 
Q 991 1019 1311 708 
Q 1631 397 2203 397 
Q 2534 397 2845 478 
Q 3156 559 3463 722 
L 3463 178 
Q 3153 47 2828 -22 
Q 2503 -91 2169 -91 
Q 1331 -91 842 396 
Q 353 884 353 1716 
Q 353 2575 817 3079 
Q 1281 3584 2069 3584 
Q 2775 3584 3186 3129 
Q 3597 2675 3597 1894 
z
M 3022 2063 
Q 3016 2534 2758 2815 
Q 2500 3097 2075 3097 
Q 1594 3097 1305 2825 
Q 1016 2553 972 2059 
L 3022 2063 
z
" transform="scale(0.015625)"/>
       <path id="DejaVuSans-74" d="M 1172 4494 
L 1172 3500 
L 2356 3500 
L 2356 3053 
L 1172 3053 
L 1172 1153 
Q 1172 725 1289 603 
Q 1406 481 1766 481 
L 2356 481 
L 2356 0 
L 1766 0 
Q 1100 0 847 248 
Q 594 497 594 1153 
L 594 3053 
L 172 3053 
L 172 3500 
L 594 3500 
L 594 4494 
L 1172 4494 
z
" transform="scale(0.015625)"/>
       <path id="DejaVuSans-75" d="M 544 1381 
L 544 3500 
L 1119 3500 
L 1119 1403 
Q 1119 906 1312 657 
Q 1506 409 1894 409 
Q 2359 409 2629 706 
Q 2900 1003 2900 1516 
L 2900 3500 
L 3475 3500 
L 3475 0 
L 2900 0 
L 2900 538 
Q 2691 219 2414 64 
Q 2138 -91 1772 -91 
Q 1169 -91 856 284 
Q 544 659 544 1381 
z
M 1991 3584 
L 1991 3584 
z
" transform="scale(0.015625)"/>
       <path id="DejaVuSans-72" d="M 2631 2963 
Q 2534 3019 2420 3045 
Q 2306 3072 2169 3072 
Q 1681 3072 1420 2755 
Q 1159 2438 1159 1844 
L 1159 0 
L 581 0 
L 581 3500 
L 1159 3500 
L 1159 2956 
Q 1341 3275 1631 3429 
Q 1922 3584 2338 3584 
Q 2397 3584 2469 3576 
Q 2541 3569 2628 3553 
L 2631 2963 
z
" transform="scale(0.015625)"/>
       <path id="DejaVuSans-6e" d="M 3513 2113 
L 3513 0 
L 2938 0 
L 2938 2094 
Q 2938 2591 2744 2837 
Q 2550 3084 2163 3084 
Q 1697 3084 1428 2787 
Q 1159 2491 1159 1978 
L 1159 0 
L 581 0 
L 581 3500 
L 1159 3500 
L 1159 2956 
Q 1366 3272 1645 3428 
Q 1925 3584 2291 3584 
Q 2894 3584 3203 3211 
Q 3513 2838 3513 2113 
z
" transform="scale(0.015625)"/>
       <path id="DejaVuSans-20" transform="scale(0.015625)"/>
       <path id="DejaVuSans-5b" d="M 550 4863 
L 1875 4863 
L 1875 4416 
L 1125 4416 
L 1125 -397 
L 1875 -397 
L 1875 -844 
L 550 -844 
L 550 4863 
z
" transform="scale(0.015625)"/>
       <path id="DejaVuSans-25" d="M 4653 2053 
Q 4381 2053 4226 1822 
Q 4072 1591 4072 1178 
Q 4072 772 4226 539 
Q 4381 306 4653 306 
Q 4919 306 5073 539 
Q 5228 772 5228 1178 
Q 5228 1588 5073 1820 
Q 4919 2053 4653 2053 
z
M 4653 2450 
Q 5147 2450 5437 2106 
Q 5728 1763 5728 1178 
Q 5728 594 5436 251 
Q 5144 -91 4653 -91 
Q 4153 -91 3862 251 
Q 3572 594 3572 1178 
Q 3572 1766 3864 2108 
Q 4156 2450 4653 2450 
z
M 1428 4353 
Q 1159 4353 1004 4120 
Q 850 3888 850 3481 
Q 850 3069 1003 2837 
Q 1156 2606 1428 2606 
Q 1700 2606 1854 2837 
Q 2009 3069 2009 3481 
Q 2009 3884 1853 4118 
Q 1697 4353 1428 4353 
z
M 4250 4750 
L 4750 4750 
L 1831 -91 
L 1331 -91 
L 4250 4750 
z
M 1428 4750 
Q 1922 4750 2215 4408 
Q 2509 4066 2509 3481 
Q 2509 2891 2217 2550 
Q 1925 2209 1428 2209 
Q 931 2209 642 2551 
Q 353 2894 353 3481 
Q 353 4063 643 4406 
Q 934 4750 1428 4750 
z
" transform="scale(0.015625)"/>
       <path id="DejaVuSans-5d" d="M 1947 4863 
L 1947 -844 
L 622 -844 
L 622 -397 
L 1369 -397 
L 1369 4416 
L 622 4416 
L 622 4863 
L 1947 4863 
z
" transform="scale(0.015625)"/>
      </defs>
      <use xlink:href="#DejaVuSans-52"/>
      <use xlink:href="#DejaVuSans-65" x="64.982422"/>
      <use xlink:href="#DejaVuSans-74" x="126.505859"/>
      <use xlink:href="#DejaVuSans-75" x="165.714844"/>
      <use xlink:href="#DejaVuSans-72" x="229.09375"/>
      <use xlink:href="#DejaVuSans-6e" x="268.457031"/>
      <use xlink:href="#DejaVuSans-20" x="331.835938"/>
      <use xlink:href="#DejaVuSans-5b" x="363.623047"/>
      <use xlink:href="#DejaVuSans-25" x="402.636719"/>
      <use xlink:href="#DejaVuSans-5d" x="497.65625"/>
     </g>
    </g>
   </g>
   <g id="line2d_15">
    <path d="M 75.737566 101.147312 
L 77.018329 103.90901 
L 78.299091 116.713893 
L 82.141377 117.831384 
L 83.422139 113.22974 
L 84.702901 120.607318 
L 85.983664 125.586204 
L 87.264426 126.212568 
L 91.106712 119.073436 
L 92.387474 131.832054 
L 93.668237 134.15245 
L 94.948999 133.917563 
L 96.229761 136.999561 
L 100.072047 151.192411 
L 101.35281 137.604572 
L 102.633572 149.936123 
L 103.914334 136.672143 
L 105.195096 135.554652 
L 109.037382 140.042411 
L 110.318145 137.234448 
L 111.598907 139.30928 
L 112.879669 140.056647 
L 114.160431 130.308849 
L 118.002718 130.298173 
L 119.28348 141.270228 
L 120.564242 139.060158 
L 121.845004 148.302593 
L 123.125766 150.121185 
L 126.968053 153.455865 
L 128.248815 141.348524 
L 129.529577 140.053088 
L 130.810339 139.416047 
L 132.091101 143.704508 
L 135.933388 135.398061 
L 137.21415 133.515409 
L 138.494912 138.102817 
L 139.775674 136.230841 
L 141.056436 141.804061 
L 144.898723 135.487033 
L 146.179485 129.002737 
L 147.460247 126.796226 
L 148.741009 132.212855 
L 150.021771 134.273452 
L 153.864058 138.213142 
L 155.14482 146.224202 
L 156.425582 139.626021 
L 158.987107 148.420036 
L 162.829393 152.28499 
L 164.110155 146.964451 
L 165.390917 140.501508 
L 166.67168 144.512376 
L 167.952442 148.88981 
L 173.07549 152.331256 
L 174.356252 155.502226 
L 175.637015 159.36718 
L 182.040825 146.088964 
L 183.321588 146.16726 
L 184.60235 138.650886 
L 185.883112 139.106423 
L 189.725398 138.95695 
L 191.006161 128.600583 
L 192.286923 123.020244 
L 193.567685 126.369159 
L 194.848447 129.191358 
L 198.690733 124.290768 
L 199.971496 128.650407 
L 201.252258 129.572159 
L 202.53302 132.636363 
L 203.813782 137.394598 
L 207.656069 140.284416 
L 208.936831 139.647375 
L 210.217593 129.739427 
L 211.498355 134.807285 
L 212.779117 128.525846 
L 216.621404 132.885485 
L 217.902166 135.319765 
L 219.182928 130.276819 
L 220.46369 133.668441 
L 221.744452 122.336938 
L 225.586739 120.030778 
L 226.867501 125.223197 
L 228.148263 126.881639 
L 230.709787 119.002259 
L 234.552074 118.600104 
L 235.832836 119.525415 
L 237.113598 114.784975 
L 238.39436 114.920213 
L 239.675122 120.671378 
L 243.517409 118.96667 
L 244.798171 117.699705 
L 246.078933 117.343816 
L 248.640458 113.671043 
L 252.482744 108.802482 
L 253.763506 117.785118 
L 255.044268 120.368872 
L 256.325031 115.799258 
L 257.605793 123.974027 
L 261.448079 122.788917 
L 262.728841 124.41177 
L 264.009603 120.913382 
L 265.290366 121.269271 
L 266.571128 120.176692 
L 270.413414 123.490018 
L 271.694176 122.68215 
L 272.974939 127.789156 
L 274.255701 128.629054 
L 275.536463 128.629054 
L 279.378749 136.928383 
L 280.659512 139.191837 
L 281.940274 145.103152 
L 283.221036 140.615392 
L 284.501798 140.576245 
L 288.344084 140.608275 
L 289.624847 137.25936 
L 290.905609 142.697343 
L 292.186371 145.829165 
L 297.30942 152.384639 
L 298.590182 158.320866 
L 299.870944 153.722781 
L 301.151706 164.42792 
L 302.432468 170.80189 
L 306.274755 172.581335 
L 307.555517 178.481973 
L 308.836279 175.48183 
L 310.117041 174.741581 
L 311.397803 178.891246 
L 315.24009 174.186394 
L 316.520852 180.151092 
L 317.801614 174.791405 
L 319.082376 181.147581 
L 320.363138 188.258242 
L 324.205425 183.635245 
L 325.486187 187.763556 
L 326.766949 183.549831 
L 328.047711 172.314418 
L 329.328473 164.264211 
L 333.17076 162.271233 
L 334.451522 170.510062 
L 335.732284 164.424361 
L 337.013046 172.695219 
L 338.293809 172.353566 
L 342.136095 175.19356 
L 343.416857 174.723786 
L 344.697619 169.627457 
L 345.978382 169.097183 
L 347.259144 173.638325 
L 351.10143 176.318169 
L 352.382192 165.840799 
L 353.662954 162.306822 
L 354.943717 164.146768 
L 356.224479 162.844214 
L 360.066765 157.416908 
L 361.347527 159.644773 
L 362.62829 168.609615 
L 363.909052 166.502752 
L 365.189814 167.000997 
L 369.0321 166.310572 
L 370.312863 179.574552 
L 371.593625 177.994405 
L 372.874387 179.905529 
L 374.155149 169.958434 
L 377.997435 174.52093 
L 379.278198 171.492315 
L 380.55896 170.702242 
L 381.839722 165.787416 
L 383.120484 167.880042 
L 386.962771 166.972526 
L 388.243533 161.296097 
L 389.524295 164.360301 
L 390.805057 175.115264 
L 392.085819 184.197549 
L 395.928106 173.186346 
L 397.208868 176.513908 
L 398.48963 178.745331 
L 399.770392 183.254444 
L 401.051154 176.0904 
L 404.893441 185.055242 
L 406.174203 189.927361 
L 407.454965 200.440319 
L 408.735727 199.671599 
L 410.016489 174.691756 
L 413.858776 180.133298 
L 415.139538 185.585516 
L 416.4203 187.154986 
L 417.701062 179.980266 
L 422.824111 202.234 
L 424.104873 204.312391 
L 425.385635 204.013444 
L 426.666397 206.732436 
L 427.94716 200.077313 
L 431.789446 220.177919 
L 433.070208 226.121264 
L 434.35097 241.609549 
L 435.631733 243.253756 
L 436.912495 256.097787 
L 440.754781 237.28194 
L 442.035543 233.584254 
L 443.316305 247.538659 
L 444.597068 254.471375 
L 445.87783 252.766667 
L 449.720116 242.317768 
L 451.000878 240.502735 
L 452.281641 249.261161 
L 453.562403 253.175939 
L 454.843165 266.457714 
L 458.685451 272.920656 
L 459.966213 270.504171 
L 462.527738 247.873194 
L 463.8085 250.428477 
L 467.650786 240.118375 
L 468.931549 223.822221 
L 470.212311 227.790383 
L 471.493073 243.62744 
L 472.773835 236.089712 
L 476.616122 234.128764 
L 477.896884 246.673849 
L 479.177646 253.506916 
L 480.458408 251.919651 
L 481.73917 251.610028 
L 485.581457 252.91614 
L 486.862219 254.535435 
L 488.142981 266.368741 
L 489.423743 268.649989 
L 490.704505 275.803357 
L 494.546792 254.859294 
L 495.827554 252.168774 
L 497.108316 254.00516 
L 498.389078 248.07961 
L 499.66984 249.421311 
L 503.512127 261.752862 
L 504.792889 251.236345 
L 506.073651 248.738004 
L 507.354413 249.901761 
L 508.635175 261.201234 
L 513.758224 233.876083 
L 515.038986 232.840446 
L 516.319748 236.950963 
L 517.600511 242.993957 
L 521.442797 246.06172 
L 522.723559 240.431557 
L 524.004321 241.378222 
L 525.285083 238.559581 
L 526.565846 241.506342 
L 530.408132 244.478014 
L 531.688894 243.214608 
L 531.688894 243.214608 
" clip-path="url(#pcc4e73d6e3)" style="fill: none; stroke: #008000; stroke-width: 1.5; stroke-linecap: square"/>
   </g>
   <g id="line2d_16">
    <path d="M 75.737566 92.936954 
L 77.018329 90.115382 
L 78.299091 89.749676 
L 91.106712 89.749676 
L 92.387474 87.087937 
L 114.160431 87.087937 
L 118.002718 73.615793 
L 119.28348 72.07759 
L 120.564242 79.407263 
L 121.845004 75.541607 
L 123.125766 80.284033 
L 126.968053 78.907474 
L 128.248815 76.628767 
L 129.529577 70.61171 
L 130.810339 67.764513 
L 132.091101 66.962499 
L 135.933388 67.842723 
L 137.21415 68.657543 
L 138.494912 72.120231 
L 139.775674 66.849907 
L 141.056436 62.442152 
L 144.898723 61.588267 
L 147.460247 50.980944 
L 148.741009 49.331095 
L 150.021771 50.2415 
L 153.864058 53.155988 
L 155.14482 56.7816 
L 156.425582 63.177797 
L 157.706344 58.046315 
L 158.987107 64.248624 
L 162.829393 67.43569 
L 182.040825 67.43569 
L 183.321588 61.258198 
L 185.883112 61.258198 
L 189.725398 58.869086 
L 191.006161 54.248187 
L 192.286923 46.080909 
L 193.567685 45.650676 
L 194.848447 48.870477 
L 198.690733 50.675717 
L 199.971496 50.461239 
L 201.252258 54.374132 
L 202.53302 54.461515 
L 203.813782 52.834809 
L 207.656069 58.578009 
L 208.936831 60.882204 
L 210.217593 59.543035 
L 211.498355 55.915879 
L 212.779117 60.480291 
L 225.586739 60.480291 
L 226.867501 56.759301 
L 228.148263 58.101762 
L 230.709787 53.989364 
L 234.552074 50.413352 
L 235.832836 49.449534 
L 238.39436 53.752493 
L 239.675122 52.045584 
L 243.517409 51.966525 
L 244.798171 49.079312 
L 246.078933 46.563559 
L 247.359695 48.941171 
L 248.640458 44.725694 
L 252.482744 43.652725 
L 253.763506 44.703939 
L 255.044268 47.801621 
L 256.325031 50.200481 
L 257.605793 45.545712 
L 261.448079 50.01722 
L 262.728841 45.164289 
L 264.009603 47.243958 
L 266.571128 47.243958 
L 270.413414 48.274872 
L 329.328473 48.274872 
L 333.17076 43.61747 
L 334.451522 40.784503 
L 335.732284 42.990752 
L 337.013046 43.308942 
L 338.293809 51.752115 
L 342.136095 50.46551 
L 343.416857 52.209978 
L 344.697619 47.311609 
L 345.978382 45.212548 
L 347.259144 48.330731 
L 351.10143 51.906453 
L 352.382192 52.40273 
L 353.662954 47.989013 
L 354.943717 47.5142 
L 356.224479 47.219549 
L 360.066765 40.6646 
L 361.347527 38.733493 
L 362.62829 42.082489 
L 363.909052 40.344313 
L 365.189814 39.861632 
L 369.0321 42.03981 
L 370.312863 46.175796 
L 371.593625 54.050771 
L 372.874387 57.726214 
L 374.155149 57.726214 
L 377.997435 54.134123 
L 427.94716 54.134123 
L 431.789446 64.256868 
L 472.773835 64.256868 
L 476.616122 45.19739 
L 477.896884 56.72519 
L 479.177646 62.134009 
L 480.458408 74.95007 
L 481.73917 66.530649 
L 485.581457 75.584883 
L 486.862219 86.884325 
L 488.142981 94.534077 
L 531.688894 94.534077 
L 531.688894 94.534077 
" clip-path="url(#pcc4e73d6e3)" style="fill: none; stroke: #0000ff; stroke-width: 1.5; stroke-linecap: square"/>
   </g>
   <g id="line2d_17">
    <path d="M 75.737566 92.936954 
L 77.018329 90.115382 
L 78.299091 89.749676 
L 91.106712 89.749676 
L 92.387474 87.087937 
L 114.160431 87.087937 
L 118.002718 73.615793 
L 119.28348 72.07759 
L 128.248815 72.07759 
L 129.529577 70.61171 
L 130.810339 67.764513 
L 132.091101 66.962499 
L 138.494912 66.962499 
L 139.775674 66.849907 
L 141.056436 62.442152 
L 144.898723 61.588267 
L 147.460247 50.980944 
L 148.741009 49.331095 
L 191.006161 49.331095 
L 192.286923 46.080909 
L 193.567685 45.650676 
L 247.359695 45.650676 
L 248.640458 44.725694 
L 252.482744 43.652725 
L 333.17076 43.61747 
L 334.451522 40.784503 
L 356.224479 40.784503 
L 360.066765 40.6646 
L 361.347527 38.733493 
L 531.688894 38.733493 
L 531.688894 38.733493 
" clip-path="url(#pcc4e73d6e3)" style="fill: none; stroke: #ff0000; stroke-width: 1.5; stroke-linecap: square"/>
   </g>
   <g id="patch_3">
    <path d="M 52.94 287.65685 
L 52.94 26.88 
" style="fill: none; stroke: #000000; stroke-width: 0.8; stroke-linejoin: miter; stroke-linecap: square"/>
   </g>
   <g id="patch_4">
    <path d="M 554.486461 287.65685 
L 554.486461 26.88 
" style="fill: none; stroke: #000000; stroke-width: 0.8; stroke-linejoin: miter; stroke-linecap: square"/>
   </g>
   <g id="patch_5">
    <path d="M 52.94 287.65685 
L 554.486461 287.65685 
" style="fill: none; stroke: #000000; stroke-width: 0.8; stroke-linejoin: miter; stroke-linecap: square"/>
   </g>
   <g id="patch_6">
    <path d="M 52.94 26.88 
L 554.486461 26.88 
" style="fill: none; stroke: #000000; stroke-width: 0.8; stroke-linejoin: miter; stroke-linecap: square"/>
   </g>
   <g id="text_9">
    <!-- Performance of AVAN-strategy year 2008 -->
    <g transform="translate(180.400105 20.88)scale(0.12 -0.12)">
     <defs>
      <path id="DejaVuSans-50" d="M 1259 4147 
L 1259 2394 
L 2053 2394 
Q 2494 2394 2734 2622 
Q 2975 2850 2975 3272 
Q 2975 3691 2734 3919 
Q 2494 4147 2053 4147 
L 1259 4147 
z
M 628 4666 
L 2053 4666 
Q 2838 4666 3239 4311 
Q 3641 3956 3641 3272 
Q 3641 2581 3239 2228 
Q 2838 1875 2053 1875 
L 1259 1875 
L 1259 0 
L 628 0 
L 628 4666 
z
" transform="scale(0.015625)"/>
      <path id="DejaVuSans-66" d="M 2375 4863 
L 2375 4384 
L 1825 4384 
Q 1516 4384 1395 4259 
Q 1275 4134 1275 3809 
L 1275 3500 
L 2222 3500 
L 2222 3053 
L 1275 3053 
L 1275 0 
L 697 0 
L 697 3053 
L 147 3053 
L 147 3500 
L 697 3500 
L 697 3744 
Q 697 4328 969 4595 
Q 1241 4863 1831 4863 
L 2375 4863 
z
" transform="scale(0.015625)"/>
      <path id="DejaVuSans-6f" d="M 1959 3097 
Q 1497 3097 1228 2736 
Q 959 2375 959 1747 
Q 959 1119 1226 758 
Q 1494 397 1959 397 
Q 2419 397 2687 759 
Q 2956 1122 2956 1747 
Q 2956 2369 2687 2733 
Q 2419 3097 1959 3097 
z
M 1959 3584 
Q 2709 3584 3137 3096 
Q 3566 2609 3566 1747 
Q 3566 888 3137 398 
Q 2709 -91 1959 -91 
Q 1206 -91 779 398 
Q 353 888 353 1747 
Q 353 2609 779 3096 
Q 1206 3584 1959 3584 
z
" transform="scale(0.015625)"/>
      <path id="DejaVuSans-6d" d="M 3328 2828 
Q 3544 3216 3844 3400 
Q 4144 3584 4550 3584 
Q 5097 3584 5394 3201 
Q 5691 2819 5691 2113 
L 5691 0 
L 5113 0 
L 5113 2094 
Q 5113 2597 4934 2840 
Q 4756 3084 4391 3084 
Q 3944 3084 3684 2787 
Q 3425 2491 3425 1978 
L 3425 0 
L 2847 0 
L 2847 2094 
Q 2847 2600 2669 2842 
Q 2491 3084 2119 3084 
Q 1678 3084 1418 2786 
Q 1159 2488 1159 1978 
L 1159 0 
L 581 0 
L 581 3500 
L 1159 3500 
L 1159 2956 
Q 1356 3278 1631 3431 
Q 1906 3584 2284 3584 
Q 2666 3584 2933 3390 
Q 3200 3197 3328 2828 
z
" transform="scale(0.015625)"/>
      <path id="DejaVuSans-61" d="M 2194 1759 
Q 1497 1759 1228 1600 
Q 959 1441 959 1056 
Q 959 750 1161 570 
Q 1363 391 1709 391 
Q 2188 391 2477 730 
Q 2766 1069 2766 1631 
L 2766 1759 
L 2194 1759 
z
M 3341 1997 
L 3341 0 
L 2766 0 
L 2766 531 
Q 2569 213 2275 61 
Q 1981 -91 1556 -91 
Q 1019 -91 701 211 
Q 384 513 384 1019 
Q 384 1609 779 1909 
Q 1175 2209 1959 2209 
L 2766 2209 
L 2766 2266 
Q 2766 2663 2505 2880 
Q 2244 3097 1772 3097 
Q 1472 3097 1187 3025 
Q 903 2953 641 2809 
L 641 3341 
Q 956 3463 1253 3523 
Q 1550 3584 1831 3584 
Q 2591 3584 2966 3190 
Q 3341 2797 3341 1997 
z
" transform="scale(0.015625)"/>
      <path id="DejaVuSans-63" d="M 3122 3366 
L 3122 2828 
Q 2878 2963 2633 3030 
Q 2388 3097 2138 3097 
Q 1578 3097 1268 2742 
Q 959 2388 959 1747 
Q 959 1106 1268 751 
Q 1578 397 2138 397 
Q 2388 397 2633 464 
Q 2878 531 3122 666 
L 3122 134 
Q 2881 22 2623 -34 
Q 2366 -91 2075 -91 
Q 1284 -91 818 406 
Q 353 903 353 1747 
Q 353 2603 823 3093 
Q 1294 3584 2113 3584 
Q 2378 3584 2631 3529 
Q 2884 3475 3122 3366 
z
" transform="scale(0.015625)"/>
      <path id="DejaVuSans-41" d="M 2188 4044 
L 1331 1722 
L 3047 1722 
L 2188 4044 
z
M 1831 4666 
L 2547 4666 
L 4325 0 
L 3669 0 
L 3244 1197 
L 1141 1197 
L 716 0 
L 50 0 
L 1831 4666 
z
" transform="scale(0.015625)"/>
      <path id="DejaVuSans-56" d="M 1831 0 
L 50 4666 
L 709 4666 
L 2188 738 
L 3669 4666 
L 4325 4666 
L 2547 0 
L 1831 0 
z
" transform="scale(0.015625)"/>
      <path id="DejaVuSans-4e" d="M 628 4666 
L 1478 4666 
L 3547 763 
L 3547 4666 
L 4159 4666 
L 4159 0 
L 3309 0 
L 1241 3903 
L 1241 0 
L 628 0 
L 628 4666 
z
" transform="scale(0.015625)"/>
      <path id="DejaVuSans-2d" d="M 313 2009 
L 1997 2009 
L 1997 1497 
L 313 1497 
L 313 2009 
z
" transform="scale(0.015625)"/>
      <path id="DejaVuSans-73" d="M 2834 3397 
L 2834 2853 
Q 2591 2978 2328 3040 
Q 2066 3103 1784 3103 
Q 1356 3103 1142 2972 
Q 928 2841 928 2578 
Q 928 2378 1081 2264 
Q 1234 2150 1697 2047 
L 1894 2003 
Q 2506 1872 2764 1633 
Q 3022 1394 3022 966 
Q 3022 478 2636 193 
Q 2250 -91 1575 -91 
Q 1294 -91 989 -36 
Q 684 19 347 128 
L 347 722 
Q 666 556 975 473 
Q 1284 391 1588 391 
Q 1994 391 2212 530 
Q 2431 669 2431 922 
Q 2431 1156 2273 1281 
Q 2116 1406 1581 1522 
L 1381 1569 
Q 847 1681 609 1914 
Q 372 2147 372 2553 
Q 372 3047 722 3315 
Q 1072 3584 1716 3584 
Q 2034 3584 2315 3537 
Q 2597 3491 2834 3397 
z
" transform="scale(0.015625)"/>
      <path id="DejaVuSans-67" d="M 2906 1791 
Q 2906 2416 2648 2759 
Q 2391 3103 1925 3103 
Q 1463 3103 1205 2759 
Q 947 2416 947 1791 
Q 947 1169 1205 825 
Q 1463 481 1925 481 
Q 2391 481 2648 825 
Q 2906 1169 2906 1791 
z
M 3481 434 
Q 3481 -459 3084 -895 
Q 2688 -1331 1869 -1331 
Q 1566 -1331 1297 -1286 
Q 1028 -1241 775 -1147 
L 775 -588 
Q 1028 -725 1275 -790 
Q 1522 -856 1778 -856 
Q 2344 -856 2625 -561 
Q 2906 -266 2906 331 
L 2906 616 
Q 2728 306 2450 153 
Q 2172 0 1784 0 
Q 1141 0 747 490 
Q 353 981 353 1791 
Q 353 2603 747 3093 
Q 1141 3584 1784 3584 
Q 2172 3584 2450 3431 
Q 2728 3278 2906 2969 
L 2906 3500 
L 3481 3500 
L 3481 434 
z
" transform="scale(0.015625)"/>
      <path id="DejaVuSans-79" d="M 2059 -325 
Q 1816 -950 1584 -1140 
Q 1353 -1331 966 -1331 
L 506 -1331 
L 506 -850 
L 844 -850 
Q 1081 -850 1212 -737 
Q 1344 -625 1503 -206 
L 1606 56 
L 191 3500 
L 800 3500 
L 1894 763 
L 2988 3500 
L 3597 3500 
L 2059 -325 
z
" transform="scale(0.015625)"/>
      <path id="DejaVuSans-38" d="M 2034 2216 
Q 1584 2216 1326 1975 
Q 1069 1734 1069 1313 
Q 1069 891 1326 650 
Q 1584 409 2034 409 
Q 2484 409 2743 651 
Q 3003 894 3003 1313 
Q 3003 1734 2745 1975 
Q 2488 2216 2034 2216 
z
M 1403 2484 
Q 997 2584 770 2862 
Q 544 3141 544 3541 
Q 544 4100 942 4425 
Q 1341 4750 2034 4750 
Q 2731 4750 3128 4425 
Q 3525 4100 3525 3541 
Q 3525 3141 3298 2862 
Q 3072 2584 2669 2484 
Q 3125 2378 3379 2068 
Q 3634 1759 3634 1313 
Q 3634 634 3220 271 
Q 2806 -91 2034 -91 
Q 1263 -91 848 271 
Q 434 634 434 1313 
Q 434 1759 690 2068 
Q 947 2378 1403 2484 
z
M 1172 3481 
Q 1172 3119 1398 2916 
Q 1625 2713 2034 2713 
Q 2441 2713 2670 2916 
Q 2900 3119 2900 3481 
Q 2900 3844 2670 4047 
Q 2441 4250 2034 4250 
Q 1625 4250 1398 4047 
Q 1172 3844 1172 3481 
z
" transform="scale(0.015625)"/>
     </defs>
     <use xlink:href="#DejaVuSans-50"/>
     <use xlink:href="#DejaVuSans-65" x="56.677734"/>
     <use xlink:href="#DejaVuSans-72" x="118.201172"/>
     <use xlink:href="#DejaVuSans-66" x="159.314453"/>
     <use xlink:href="#DejaVuSans-6f" x="194.519531"/>
     <use xlink:href="#DejaVuSans-72" x="255.701172"/>
     <use xlink:href="#DejaVuSans-6d" x="295.064453"/>
     <use xlink:href="#DejaVuSans-61" x="392.476562"/>
     <use xlink:href="#DejaVuSans-6e" x="453.755859"/>
     <use xlink:href="#DejaVuSans-63" x="517.134766"/>
     <use xlink:href="#DejaVuSans-65" x="572.115234"/>
     <use xlink:href="#DejaVuSans-20" x="633.638672"/>
     <use xlink:href="#DejaVuSans-6f" x="665.425781"/>
     <use xlink:href="#DejaVuSans-66" x="726.607422"/>
     <use xlink:href="#DejaVuSans-20" x="761.8125"/>
     <use xlink:href="#DejaVuSans-41" x="793.599609"/>
     <use xlink:href="#DejaVuSans-56" x="855.632812"/>
     <use xlink:href="#DejaVuSans-41" x="917.666016"/>
     <use xlink:href="#DejaVuSans-4e" x="986.074219"/>
     <use xlink:href="#DejaVuSans-2d" x="1060.878906"/>
     <use xlink:href="#DejaVuSans-73" x="1096.962891"/>
     <use xlink:href="#DejaVuSans-74" x="1149.0625"/>
     <use xlink:href="#DejaVuSans-72" x="1188.271484"/>
     <use xlink:href="#DejaVuSans-61" x="1229.384766"/>
     <use xlink:href="#DejaVuSans-74" x="1290.664062"/>
     <use xlink:href="#DejaVuSans-65" x="1329.873047"/>
     <use xlink:href="#DejaVuSans-67" x="1391.396484"/>
     <use xlink:href="#DejaVuSans-79" x="1454.873047"/>
     <use xlink:href="#DejaVuSans-20" x="1514.052734"/>
     <use xlink:href="#DejaVuSans-79" x="1545.839844"/>
     <use xlink:href="#DejaVuSans-65" x="1605.019531"/>
     <use xlink:href="#DejaVuSans-61" x="1666.542969"/>
     <use xlink:href="#DejaVuSans-72" x="1727.822266"/>
     <use xlink:href="#DejaVuSans-20" x="1768.935547"/>
     <use xlink:href="#DejaVuSans-32" x="1800.722656"/>
     <use xlink:href="#DejaVuSans-30" x="1864.345703"/>
     <use xlink:href="#DejaVuSans-30" x="1927.96875"/>
     <use xlink:href="#DejaVuSans-38" x="1991.591797"/>
    </g>
   </g>
   <g id="legend_1">
    <g id="patch_7">
     <path d="M 59.94 282.65685 
L 186.019688 282.65685 
Q 188.019688 282.65685 188.019688 280.65685 
L 188.019688 237.622475 
Q 188.019688 235.622475 186.019688 235.622475 
L 59.94 235.622475 
Q 57.94 235.622475 57.94 237.622475 
L 57.94 280.65685 
Q 57.94 282.65685 59.94 282.65685 
z
" style="fill: #ffffff; opacity: 0.8; stroke: #cccccc; stroke-linejoin: miter"/>
    </g>
    <g id="line2d_18">
     <path d="M 61.94 243.720912 
L 71.94 243.720912 
L 81.94 243.720912 
" style="fill: none; stroke: #008000; stroke-width: 1.5; stroke-linecap: square"/>
    </g>
    <g id="text_10">
     <!-- -39.0% return omx -->
     <g transform="translate(89.94 247.220912)scale(0.1 -0.1)">
      <defs>
       <path id="DejaVuSans-39" d="M 703 97 
L 703 672 
Q 941 559 1184 500 
Q 1428 441 1663 441 
Q 2288 441 2617 861 
Q 2947 1281 2994 2138 
Q 2813 1869 2534 1725 
Q 2256 1581 1919 1581 
Q 1219 1581 811 2004 
Q 403 2428 403 3163 
Q 403 3881 828 4315 
Q 1253 4750 1959 4750 
Q 2769 4750 3195 4129 
Q 3622 3509 3622 2328 
Q 3622 1225 3098 567 
Q 2575 -91 1691 -91 
Q 1453 -91 1209 -44 
Q 966 3 703 97 
z
M 1959 2075 
Q 2384 2075 2632 2365 
Q 2881 2656 2881 3163 
Q 2881 3666 2632 3958 
Q 2384 4250 1959 4250 
Q 1534 4250 1286 3958 
Q 1038 3666 1038 3163 
Q 1038 2656 1286 2365 
Q 1534 2075 1959 2075 
z
" transform="scale(0.015625)"/>
       <path id="DejaVuSans-2e" d="M 684 794 
L 1344 794 
L 1344 0 
L 684 0 
L 684 794 
z
" transform="scale(0.015625)"/>
       <path id="DejaVuSans-78" d="M 3513 3500 
L 2247 1797 
L 3578 0 
L 2900 0 
L 1881 1375 
L 863 0 
L 184 0 
L 1544 1831 
L 300 3500 
L 978 3500 
L 1906 2253 
L 2834 3500 
L 3513 3500 
z
" transform="scale(0.015625)"/>
      </defs>
      <use xlink:href="#DejaVuSans-2d"/>
      <use xlink:href="#DejaVuSans-33" x="36.083984"/>
      <use xlink:href="#DejaVuSans-39" x="99.707031"/>
      <use xlink:href="#DejaVuSans-2e" x="163.330078"/>
      <use xlink:href="#DejaVuSans-30" x="195.117188"/>
      <use xlink:href="#DejaVuSans-25" x="258.740234"/>
      <use xlink:href="#DejaVuSans-20" x="353.759766"/>
      <use xlink:href="#DejaVuSans-72" x="385.546875"/>
      <use xlink:href="#DejaVuSans-65" x="424.410156"/>
      <use xlink:href="#DejaVuSans-74" x="485.933594"/>
      <use xlink:href="#DejaVuSans-75" x="525.142578"/>
      <use xlink:href="#DejaVuSans-72" x="588.521484"/>
      <use xlink:href="#DejaVuSans-6e" x="627.884766"/>
      <use xlink:href="#DejaVuSans-20" x="691.263672"/>
      <use xlink:href="#DejaVuSans-6f" x="723.050781"/>
      <use xlink:href="#DejaVuSans-6d" x="784.232422"/>
      <use xlink:href="#DejaVuSans-78" x="881.644531"/>
     </g>
    </g>
    <g id="line2d_19">
     <path d="M 61.94 258.399037 
L 71.94 258.399037 
L 81.94 258.399037 
" style="fill: none; stroke: #0000ff; stroke-width: 1.5; stroke-linecap: square"/>
    </g>
    <g id="text_11">
     <!-- -0.4% return AVAN -->
     <g transform="translate(89.94 261.899037)scale(0.1 -0.1)">
      <use xlink:href="#DejaVuSans-2d"/>
      <use xlink:href="#DejaVuSans-30" x="36.083984"/>
      <use xlink:href="#DejaVuSans-2e" x="99.707031"/>
      <use xlink:href="#DejaVuSans-34" x="131.494141"/>
      <use xlink:href="#DejaVuSans-25" x="195.117188"/>
      <use xlink:href="#DejaVuSans-20" x="290.136719"/>
      <use xlink:href="#DejaVuSans-72" x="321.923828"/>
      <use xlink:href="#DejaVuSans-65" x="360.787109"/>
      <use xlink:href="#DejaVuSans-74" x="422.310547"/>
      <use xlink:href="#DejaVuSans-75" x="461.519531"/>
      <use xlink:href="#DejaVuSans-72" x="524.898438"/>
      <use xlink:href="#DejaVuSans-6e" x="564.261719"/>
      <use xlink:href="#DejaVuSans-20" x="627.640625"/>
      <use xlink:href="#DejaVuSans-41" x="659.427734"/>
      <use xlink:href="#DejaVuSans-56" x="721.460938"/>
      <use xlink:href="#DejaVuSans-41" x="783.494141"/>
      <use xlink:href="#DejaVuSans-4e" x="851.902344"/>
     </g>
    </g>
    <g id="line2d_20">
     <path d="M 61.94 273.077162 
L 71.94 273.077162 
L 81.94 273.077162 
" style="fill: none; stroke: #ff0000; stroke-width: 1.5; stroke-linecap: square"/>
    </g>
    <g id="text_12">
     <!-- cummax -->
     <g transform="translate(89.94 276.577162)scale(0.1 -0.1)">
      <use xlink:href="#DejaVuSans-63"/>
      <use xlink:href="#DejaVuSans-75" x="54.980469"/>
      <use xlink:href="#DejaVuSans-6d" x="118.359375"/>
      <use xlink:href="#DejaVuSans-6d" x="215.771484"/>
      <use xlink:href="#DejaVuSans-61" x="313.183594"/>
      <use xlink:href="#DejaVuSans-78" x="374.462891"/>
     </g>
    </g>
   </g>
  </g>
  <g id="axes_2">
   <g id="patch_8">
    <path d="M 52.94 390.04 
L 554.486461 390.04 
L 554.486461 303.114383 
L 52.94 303.114383 
z
" style="fill: #ffffff"/>
   </g>
   <g id="matplotlib.axis_3">
    <g id="xtick_8">
     <g id="line2d_21">
      <g>
       <use xlink:href="#mfc5f29722c" x="74.456804" y="390.04" style="stroke: #000000; stroke-width: 0.8"/>
      </g>
     </g>
     <g id="text_13">
      <!-- 2008-01 -->
      <g transform="translate(53.565398 404.638438)scale(0.1 -0.1)">
       <use xlink:href="#DejaVuSans-32"/>
       <use xlink:href="#DejaVuSans-30" x="63.623047"/>
       <use xlink:href="#DejaVuSans-30" x="127.246094"/>
       <use xlink:href="#DejaVuSans-38" x="190.869141"/>
       <use xlink:href="#DejaVuSans-2d" x="254.492188"/>
       <use xlink:href="#DejaVuSans-30" x="290.576172"/>
       <use xlink:href="#DejaVuSans-31" x="354.199219"/>
      </g>
     </g>
    </g>
    <g id="xtick_9">
     <g id="line2d_22">
      <g>
       <use xlink:href="#mfc5f29722c" x="151.302534" y="390.04" style="stroke: #000000; stroke-width: 0.8"/>
      </g>
     </g>
     <g id="text_14">
      <!-- 2008-03 -->
      <g transform="translate(130.411127 404.638438)scale(0.1 -0.1)">
       <use xlink:href="#DejaVuSans-32"/>
       <use xlink:href="#DejaVuSans-30" x="63.623047"/>
       <use xlink:href="#DejaVuSans-30" x="127.246094"/>
       <use xlink:href="#DejaVuSans-38" x="190.869141"/>
       <use xlink:href="#DejaVuSans-2d" x="254.492188"/>
       <use xlink:href="#DejaVuSans-30" x="290.576172"/>
       <use xlink:href="#DejaVuSans-33" x="354.199219"/>
      </g>
     </g>
    </g>
    <g id="xtick_10">
     <g id="line2d_23">
      <g>
       <use xlink:href="#mfc5f29722c" x="229.429025" y="390.04" style="stroke: #000000; stroke-width: 0.8"/>
      </g>
     </g>
     <g id="text_15">
      <!-- 2008-05 -->
      <g transform="translate(208.537619 404.638438)scale(0.1 -0.1)">
       <use xlink:href="#DejaVuSans-32"/>
       <use xlink:href="#DejaVuSans-30" x="63.623047"/>
       <use xlink:href="#DejaVuSans-30" x="127.246094"/>
       <use xlink:href="#DejaVuSans-38" x="190.869141"/>
       <use xlink:href="#DejaVuSans-2d" x="254.492188"/>
       <use xlink:href="#DejaVuSans-30" x="290.576172"/>
       <use xlink:href="#DejaVuSans-35" x="354.199219"/>
      </g>
     </g>
    </g>
    <g id="xtick_11">
     <g id="line2d_24">
      <g>
       <use xlink:href="#mfc5f29722c" x="307.555517" y="390.04" style="stroke: #000000; stroke-width: 0.8"/>
      </g>
     </g>
     <g id="text_16">
      <!-- 2008-07 -->
      <g transform="translate(286.664111 404.638438)scale(0.1 -0.1)">
       <defs>
        <path id="DejaVuSans-37" d="M 525 4666 
L 3525 4666 
L 3525 4397 
L 1831 0 
L 1172 0 
L 2766 4134 
L 525 4134 
L 525 4666 
z
" transform="scale(0.015625)"/>
       </defs>
       <use xlink:href="#DejaVuSans-32"/>
       <use xlink:href="#DejaVuSans-30" x="63.623047"/>
       <use xlink:href="#DejaVuSans-30" x="127.246094"/>
       <use xlink:href="#DejaVuSans-38" x="190.869141"/>
       <use xlink:href="#DejaVuSans-2d" x="254.492188"/>
       <use xlink:href="#DejaVuSans-30" x="290.576172"/>
       <use xlink:href="#DejaVuSans-37" x="354.199219"/>
      </g>
     </g>
    </g>
    <g id="xtick_12">
     <g id="line2d_25">
      <g>
       <use xlink:href="#mfc5f29722c" x="386.962771" y="390.04" style="stroke: #000000; stroke-width: 0.8"/>
      </g>
     </g>
     <g id="text_17">
      <!-- 2008-09 -->
      <g transform="translate(366.071364 404.638438)scale(0.1 -0.1)">
       <use xlink:href="#DejaVuSans-32"/>
       <use xlink:href="#DejaVuSans-30" x="63.623047"/>
       <use xlink:href="#DejaVuSans-30" x="127.246094"/>
       <use xlink:href="#DejaVuSans-38" x="190.869141"/>
       <use xlink:href="#DejaVuSans-2d" x="254.492188"/>
       <use xlink:href="#DejaVuSans-30" x="290.576172"/>
       <use xlink:href="#DejaVuSans-39" x="354.199219"/>
      </g>
     </g>
    </g>
    <g id="xtick_13">
     <g id="line2d_26">
      <g>
       <use xlink:href="#mfc5f29722c" x="465.089262" y="390.04" style="stroke: #000000; stroke-width: 0.8"/>
      </g>
     </g>
     <g id="text_18">
      <!-- 2008-11 -->
      <g transform="translate(444.197856 404.638438)scale(0.1 -0.1)">
       <use xlink:href="#DejaVuSans-32"/>
       <use xlink:href="#DejaVuSans-30" x="63.623047"/>
       <use xlink:href="#DejaVuSans-30" x="127.246094"/>
       <use xlink:href="#DejaVuSans-38" x="190.869141"/>
       <use xlink:href="#DejaVuSans-2d" x="254.492188"/>
       <use xlink:href="#DejaVuSans-31" x="290.576172"/>
       <use xlink:href="#DejaVuSans-31" x="354.199219"/>
      </g>
     </g>
    </g>
    <g id="xtick_14">
     <g id="line2d_27">
      <g>
       <use xlink:href="#mfc5f29722c" x="543.215754" y="390.04" style="stroke: #000000; stroke-width: 0.8"/>
      </g>
     </g>
     <g id="text_19">
      <!-- 2009-01 -->
      <g transform="translate(522.324347 404.638438)scale(0.1 -0.1)">
       <use xlink:href="#DejaVuSans-32"/>
       <use xlink:href="#DejaVuSans-30" x="63.623047"/>
       <use xlink:href="#DejaVuSans-30" x="127.246094"/>
       <use xlink:href="#DejaVuSans-39" x="190.869141"/>
       <use xlink:href="#DejaVuSans-2d" x="254.492188"/>
       <use xlink:href="#DejaVuSans-30" x="290.576172"/>
       <use xlink:href="#DejaVuSans-31" x="354.199219"/>
      </g>
     </g>
    </g>
    <g id="text_20">
     <!-- Time -->
     <g transform="translate(291.479637 418.316562)scale(0.1 -0.1)">
      <defs>
       <path id="DejaVuSans-54" d="M -19 4666 
L 3928 4666 
L 3928 4134 
L 2272 4134 
L 2272 0 
L 1638 0 
L 1638 4134 
L -19 4134 
L -19 4666 
z
" transform="scale(0.015625)"/>
       <path id="DejaVuSans-69" d="M 603 3500 
L 1178 3500 
L 1178 0 
L 603 0 
L 603 3500 
z
M 603 4863 
L 1178 4863 
L 1178 4134 
L 603 4134 
L 603 4863 
z
" transform="scale(0.015625)"/>
      </defs>
      <use xlink:href="#DejaVuSans-54"/>
      <use xlink:href="#DejaVuSans-69" x="57.958984"/>
      <use xlink:href="#DejaVuSans-6d" x="85.742188"/>
      <use xlink:href="#DejaVuSans-65" x="183.154297"/>
     </g>
    </g>
   </g>
   <g id="matplotlib.axis_4">
    <g id="ytick_8">
     <g id="line2d_28">
      <g>
       <use xlink:href="#maa499ec1d4" x="52.94" y="369.246307" style="stroke: #000000; stroke-width: 0.8"/>
      </g>
     </g>
     <g id="text_21">
      <!-- −10 -->
      <g transform="translate(24.835313 373.045526)scale(0.1 -0.1)">
       <use xlink:href="#DejaVuSans-2212"/>
       <use xlink:href="#DejaVuSans-31" x="83.789062"/>
       <use xlink:href="#DejaVuSans-30" x="147.412109"/>
      </g>
     </g>
    </g>
    <g id="ytick_9">
     <g id="line2d_29">
      <g>
       <use xlink:href="#maa499ec1d4" x="52.94" y="338.155927" style="stroke: #000000; stroke-width: 0.8"/>
      </g>
     </g>
     <g id="text_22">
      <!-- −5 -->
      <g transform="translate(31.197813 341.955146)scale(0.1 -0.1)">
       <use xlink:href="#DejaVuSans-2212"/>
       <use xlink:href="#DejaVuSans-35" x="83.789062"/>
      </g>
     </g>
    </g>
    <g id="ytick_10">
     <g id="line2d_30">
      <g>
       <use xlink:href="#maa499ec1d4" x="52.94" y="307.065548" style="stroke: #000000; stroke-width: 0.8"/>
      </g>
     </g>
     <g id="text_23">
      <!-- 0 -->
      <g transform="translate(39.5775 310.864767)scale(0.1 -0.1)">
       <use xlink:href="#DejaVuSans-30"/>
      </g>
     </g>
    </g>
    <g id="text_24">
     <!-- DD % -->
     <g transform="translate(18.755625 360.617035)rotate(-90)scale(0.1 -0.1)">
      <defs>
       <path id="DejaVuSans-44" d="M 1259 4147 
L 1259 519 
L 2022 519 
Q 2988 519 3436 956 
Q 3884 1394 3884 2338 
Q 3884 3275 3436 3711 
Q 2988 4147 2022 4147 
L 1259 4147 
z
M 628 4666 
L 1925 4666 
Q 3281 4666 3915 4102 
Q 4550 3538 4550 2338 
Q 4550 1131 3912 565 
Q 3275 0 1925 0 
L 628 0 
L 628 4666 
z
" transform="scale(0.015625)"/>
      </defs>
      <use xlink:href="#DejaVuSans-44"/>
      <use xlink:href="#DejaVuSans-44" x="77.001953"/>
      <use xlink:href="#DejaVuSans-20" x="154.003906"/>
      <use xlink:href="#DejaVuSans-25" x="185.791016"/>
     </g>
    </g>
   </g>
   <g id="line2d_31">
    <path d="M 75.737566 307.065548 
L 119.28348 307.065548 
L 120.564242 318.298697 
L 121.845004 312.374355 
L 123.125766 319.642397 
L 126.968053 317.53274 
L 128.248815 314.04049 
L 129.529577 307.065548 
L 132.091101 307.065548 
L 135.933388 308.397748 
L 137.21415 309.630959 
L 138.494912 314.87166 
L 139.775674 307.065548 
L 148.741009 307.065548 
L 150.021771 308.386726 
L 153.864058 312.616231 
L 155.14482 317.877717 
L 156.425582 327.159874 
L 157.706344 319.713071 
L 158.987107 328.713858 
L 162.829393 333.338927 
L 182.040825 333.338927 
L 183.321588 324.374153 
L 185.883112 324.374153 
L 189.725398 320.907075 
L 192.286923 307.065548 
L 193.567685 307.065548 
L 194.848447 311.698329 
L 198.690733 314.295781 
L 199.971496 313.987182 
L 201.252258 319.617211 
L 202.53302 319.74294 
L 203.813782 317.40237 
L 207.656069 325.665919 
L 208.936831 328.981289 
L 210.217593 327.054438 
L 211.498355 321.835539 
L 212.779117 328.403 
L 225.586739 328.403 
L 226.867501 323.049088 
L 228.148263 324.980675 
L 230.709787 319.06359 
L 234.552074 313.918279 
L 235.832836 312.531499 
L 238.39436 318.722771 
L 239.675122 316.266801 
L 243.517409 316.153048 
L 244.798171 311.998808 
L 246.078933 308.379041 
L 247.359695 311.800046 
L 248.640458 307.065548 
L 252.482744 307.065548 
L 253.763506 308.571116 
L 255.044268 313.007677 
L 256.325031 316.44337 
L 257.605793 309.77672 
L 261.448079 316.180899 
L 262.728841 309.230439 
L 264.009603 312.208981 
L 266.571128 312.208981 
L 270.413414 313.685475 
L 329.328473 313.685475 
L 333.17076 307.065548 
L 334.451522 307.065548 
L 335.732284 310.204641 
L 337.013046 310.657368 
L 338.293809 322.670479 
L 342.136095 320.839871 
L 343.416857 323.321934 
L 344.697619 316.35244 
L 345.978382 313.365856 
L 347.259144 317.802467 
L 351.10143 322.890074 
L 352.382192 323.596185 
L 353.662954 317.316264 
L 354.943717 316.640691 
L 356.224479 316.221456 
L 360.066765 307.065548 
L 361.347527 307.065548 
L 362.62829 311.808306 
L 363.909052 309.346748 
L 365.189814 308.663187 
L 369.0321 311.747865 
L 370.312863 317.605136 
L 371.593625 328.757465 
L 372.874387 333.962528 
L 374.155149 333.962528 
L 377.997435 328.875506 
L 427.94716 328.875506 
L 431.789446 343.211065 
L 472.773835 343.211065 
L 476.616122 316.219545 
L 477.896884 332.544906 
L 479.177646 340.204729 
L 480.458408 358.35449 
L 481.73917 346.431132 
L 485.581457 359.253496 
L 486.862219 375.255462 
L 488.142981 386.088836 
L 531.688894 386.088836 
L 531.688894 386.088836 
" clip-path="url(#p4436b5b533)" style="fill: none; stroke: #0000ff; stroke-width: 1.5; stroke-linecap: square"/>
   </g>
   <g id="patch_9">
    <path d="M 52.94 390.04 
L 52.94 303.114383 
" style="fill: none; stroke: #000000; stroke-width: 0.8; stroke-linejoin: miter; stroke-linecap: square"/>
   </g>
   <g id="patch_10">
    <path d="M 554.486461 390.04 
L 554.486461 303.114383 
" style="fill: none; stroke: #000000; stroke-width: 0.8; stroke-linejoin: miter; stroke-linecap: square"/>
   </g>
   <g id="patch_11">
    <path d="M 52.94 390.04 
L 554.486461 390.04 
" style="fill: none; stroke: #000000; stroke-width: 0.8; stroke-linejoin: miter; stroke-linecap: square"/>
   </g>
   <g id="patch_12">
    <path d="M 52.94 303.114383 
L 554.486461 303.114383 
" style="fill: none; stroke: #000000; stroke-width: 0.8; stroke-linejoin: miter; stroke-linecap: square"/>
   </g>
  </g>
 </g>
 <defs>
  <clipPath id="pcc4e73d6e3">
   <rect x="52.94" y="26.88" width="501.546461" height="260.77685"/>
  </clipPath>
  <clipPath id="p4436b5b533">
   <rect x="52.94" y="303.114383" width="501.546461" height="86.925617"/>
  </clipPath>
 </defs>
</svg>
