<?xml version="1.0" encoding="utf-8" standalone="no"?>
<!DOCTYPE svg PUBLIC "-//W3C//DTD SVG 1.1//EN"
  "http://www.w3.org/Graphics/SVG/1.1/DTD/svg11.dtd">
<svg xmlns:xlink="http://www.w3.org/1999/xlink" width="720pt" height="504pt" viewBox="0 0 720 504" xmlns="http://www.w3.org/2000/svg" version="1.1">
 <metadata>
  <rdf:RDF xmlns:dc="http://purl.org/dc/elements/1.1/" xmlns:cc="http://creativecommons.org/ns#" xmlns:rdf="http://www.w3.org/1999/02/22-rdf-syntax-ns#">
   <cc:Work>
    <dc:type rdf:resource="http://purl.org/dc/dcmitype/StillImage"/>
    <dc:date>2023-01-01T22:56:34.329349</dc:date>
    <dc:format>image/svg+xml</dc:format>
    <dc:creator>
     <cc:Agent>
      <dc:title>Matplotlib v3.5.0, https://matplotlib.org/</dc:title>
     </cc:Agent>
    </dc:creator>
   </cc:Work>
  </rdf:RDF>
 </metadata>
 <defs>
  <style type="text/css">*{stroke-linejoin: round; stroke-linecap: butt}</style>
 </defs>
 <g id="figure_1">
  <g id="patch_1">
   <path d="M 0 504 
L 720 504 
L 720 0 
L 0 0 
z
" style="fill: #ffffff"/>
  </g>
  <g id="axes_1">
   <g id="patch_2">
    <path d="M 90 448.56 
L 648 448.56 
L 648 60.48 
L 90 60.48 
z
" style="fill: #ffffff"/>
   </g>
   <g id="matplotlib.axis_1">
    <g id="xtick_1">
     <g id="line2d_1">
      <defs>
       <path id="m6ceadf0e9a" d="M 0 0 
L 0 3.5 
" style="stroke: #000000; stroke-width: 0.8"/>
      </defs>
      <g>
       <use xlink:href="#m6ceadf0e9a" x="121.17765" y="448.56" style="stroke: #000000; stroke-width: 0.8"/>
      </g>
     </g>
     <g id="text_1">
      <!-- 2017-01 -->
      <g transform="translate(100.286244 463.158437)scale(0.1 -0.1)">
       <defs>
        <path id="DejaVuSans-32" d="M 1228 531 
L 3431 531 
L 3431 0 
L 469 0 
L 469 531 
Q 828 903 1448 1529 
Q 2069 2156 2228 2338 
Q 2531 2678 2651 2914 
Q 2772 3150 2772 3378 
Q 2772 3750 2511 3984 
Q 2250 4219 1831 4219 
Q 1534 4219 1204 4116 
Q 875 4013 500 3803 
L 500 4441 
Q 881 4594 1212 4672 
Q 1544 4750 1819 4750 
Q 2544 4750 2975 4387 
Q 3406 4025 3406 3419 
Q 3406 3131 3298 2873 
Q 3191 2616 2906 2266 
Q 2828 2175 2409 1742 
Q 1991 1309 1228 531 
z
" transform="scale(0.015625)"/>
        <path id="DejaVuSans-30" d="M 2034 4250 
Q 1547 4250 1301 3770 
Q 1056 3291 1056 2328 
Q 1056 1369 1301 889 
Q 1547 409 2034 409 
Q 2525 409 2770 889 
Q 3016 1369 3016 2328 
Q 3016 3291 2770 3770 
Q 2525 4250 2034 4250 
z
M 2034 4750 
Q 2819 4750 3233 4129 
Q 3647 3509 3647 2328 
Q 3647 1150 3233 529 
Q 2819 -91 2034 -91 
Q 1250 -91 836 529 
Q 422 1150 422 2328 
Q 422 3509 836 4129 
Q 1250 4750 2034 4750 
z
" transform="scale(0.015625)"/>
        <path id="DejaVuSans-31" d="M 794 531 
L 1825 531 
L 1825 4091 
L 703 3866 
L 703 4441 
L 1819 4666 
L 2450 4666 
L 2450 531 
L 3481 531 
L 3481 0 
L 794 0 
L 794 531 
z
" transform="scale(0.015625)"/>
        <path id="DejaVuSans-37" d="M 525 4666 
L 3525 4666 
L 3525 4397 
L 1831 0 
L 1172 0 
L 2766 4134 
L 525 4134 
L 525 4666 
z
" transform="scale(0.015625)"/>
        <path id="DejaVuSans-2d" d="M 313 2009 
L 1997 2009 
L 1997 1497 
L 313 1497 
L 313 2009 
z
" transform="scale(0.015625)"/>
       </defs>
       <use xlink:href="#DejaVuSans-32"/>
       <use xlink:href="#DejaVuSans-30" x="63.623047"/>
       <use xlink:href="#DejaVuSans-31" x="127.246094"/>
       <use xlink:href="#DejaVuSans-37" x="190.869141"/>
       <use xlink:href="#DejaVuSans-2d" x="254.492188"/>
       <use xlink:href="#DejaVuSans-30" x="290.576172"/>
       <use xlink:href="#DejaVuSans-31" x="354.199219"/>
      </g>
     </g>
    </g>
    <g id="xtick_2">
     <g id="line2d_2">
      <g>
       <use xlink:href="#m6ceadf0e9a" x="206.934358" y="448.56" style="stroke: #000000; stroke-width: 0.8"/>
      </g>
     </g>
     <g id="text_2">
      <!-- 2017-03 -->
      <g transform="translate(186.042952 463.158437)scale(0.1 -0.1)">
       <defs>
        <path id="DejaVuSans-33" d="M 2597 2516 
Q 3050 2419 3304 2112 
Q 3559 1806 3559 1356 
Q 3559 666 3084 287 
Q 2609 -91 1734 -91 
Q 1441 -91 1130 -33 
Q 819 25 488 141 
L 488 750 
Q 750 597 1062 519 
Q 1375 441 1716 441 
Q 2309 441 2620 675 
Q 2931 909 2931 1356 
Q 2931 1769 2642 2001 
Q 2353 2234 1838 2234 
L 1294 2234 
L 1294 2753 
L 1863 2753 
Q 2328 2753 2575 2939 
Q 2822 3125 2822 3475 
Q 2822 3834 2567 4026 
Q 2313 4219 1838 4219 
Q 1578 4219 1281 4162 
Q 984 4106 628 3988 
L 628 4550 
Q 988 4650 1302 4700 
Q 1616 4750 1894 4750 
Q 2613 4750 3031 4423 
Q 3450 4097 3450 3541 
Q 3450 3153 3228 2886 
Q 3006 2619 2597 2516 
z
" transform="scale(0.015625)"/>
       </defs>
       <use xlink:href="#DejaVuSans-32"/>
       <use xlink:href="#DejaVuSans-30" x="63.623047"/>
       <use xlink:href="#DejaVuSans-31" x="127.246094"/>
       <use xlink:href="#DejaVuSans-37" x="190.869141"/>
       <use xlink:href="#DejaVuSans-2d" x="254.492188"/>
       <use xlink:href="#DejaVuSans-30" x="290.576172"/>
       <use xlink:href="#DejaVuSans-33" x="354.199219"/>
      </g>
     </g>
    </g>
    <g id="xtick_3">
     <g id="line2d_3">
      <g>
       <use xlink:href="#m6ceadf0e9a" x="295.598072" y="448.56" style="stroke: #000000; stroke-width: 0.8"/>
      </g>
     </g>
     <g id="text_3">
      <!-- 2017-05 -->
      <g transform="translate(274.706666 463.158437)scale(0.1 -0.1)">
       <defs>
        <path id="DejaVuSans-35" d="M 691 4666 
L 3169 4666 
L 3169 4134 
L 1269 4134 
L 1269 2991 
Q 1406 3038 1543 3061 
Q 1681 3084 1819 3084 
Q 2600 3084 3056 2656 
Q 3513 2228 3513 1497 
Q 3513 744 3044 326 
Q 2575 -91 1722 -91 
Q 1428 -91 1123 -41 
Q 819 9 494 109 
L 494 744 
Q 775 591 1075 516 
Q 1375 441 1709 441 
Q 2250 441 2565 725 
Q 2881 1009 2881 1497 
Q 2881 1984 2565 2268 
Q 2250 2553 1709 2553 
Q 1456 2553 1204 2497 
Q 953 2441 691 2322 
L 691 4666 
z
" transform="scale(0.015625)"/>
       </defs>
       <use xlink:href="#DejaVuSans-32"/>
       <use xlink:href="#DejaVuSans-30" x="63.623047"/>
       <use xlink:href="#DejaVuSans-31" x="127.246094"/>
       <use xlink:href="#DejaVuSans-37" x="190.869141"/>
       <use xlink:href="#DejaVuSans-2d" x="254.492188"/>
       <use xlink:href="#DejaVuSans-30" x="290.576172"/>
       <use xlink:href="#DejaVuSans-35" x="354.199219"/>
      </g>
     </g>
    </g>
    <g id="xtick_4">
     <g id="line2d_4">
      <g>
       <use xlink:href="#m6ceadf0e9a" x="384.261787" y="448.56" style="stroke: #000000; stroke-width: 0.8"/>
      </g>
     </g>
     <g id="text_4">
      <!-- 2017-07 -->
      <g transform="translate(363.370381 463.158437)scale(0.1 -0.1)">
       <use xlink:href="#DejaVuSans-32"/>
       <use xlink:href="#DejaVuSans-30" x="63.623047"/>
       <use xlink:href="#DejaVuSans-31" x="127.246094"/>
       <use xlink:href="#DejaVuSans-37" x="190.869141"/>
       <use xlink:href="#DejaVuSans-2d" x="254.492188"/>
       <use xlink:href="#DejaVuSans-30" x="290.576172"/>
       <use xlink:href="#DejaVuSans-37" x="354.199219"/>
      </g>
     </g>
    </g>
    <g id="xtick_5">
     <g id="line2d_5">
      <g>
       <use xlink:href="#m6ceadf0e9a" x="474.379005" y="448.56" style="stroke: #000000; stroke-width: 0.8"/>
      </g>
     </g>
     <g id="text_5">
      <!-- 2017-09 -->
      <g transform="translate(453.487599 463.158437)scale(0.1 -0.1)">
       <defs>
        <path id="DejaVuSans-39" d="M 703 97 
L 703 672 
Q 941 559 1184 500 
Q 1428 441 1663 441 
Q 2288 441 2617 861 
Q 2947 1281 2994 2138 
Q 2813 1869 2534 1725 
Q 2256 1581 1919 1581 
Q 1219 1581 811 2004 
Q 403 2428 403 3163 
Q 403 3881 828 4315 
Q 1253 4750 1959 4750 
Q 2769 4750 3195 4129 
Q 3622 3509 3622 2328 
Q 3622 1225 3098 567 
Q 2575 -91 1691 -91 
Q 1453 -91 1209 -44 
Q 966 3 703 97 
z
M 1959 2075 
Q 2384 2075 2632 2365 
Q 2881 2656 2881 3163 
Q 2881 3666 2632 3958 
Q 2384 4250 1959 4250 
Q 1534 4250 1286 3958 
Q 1038 3666 1038 3163 
Q 1038 2656 1286 2365 
Q 1534 2075 1959 2075 
z
" transform="scale(0.015625)"/>
       </defs>
       <use xlink:href="#DejaVuSans-32"/>
       <use xlink:href="#DejaVuSans-30" x="63.623047"/>
       <use xlink:href="#DejaVuSans-31" x="127.246094"/>
       <use xlink:href="#DejaVuSans-37" x="190.869141"/>
       <use xlink:href="#DejaVuSans-2d" x="254.492188"/>
       <use xlink:href="#DejaVuSans-30" x="290.576172"/>
       <use xlink:href="#DejaVuSans-39" x="354.199219"/>
      </g>
     </g>
    </g>
    <g id="xtick_6">
     <g id="line2d_6">
      <g>
       <use xlink:href="#m6ceadf0e9a" x="563.042719" y="448.56" style="stroke: #000000; stroke-width: 0.8"/>
      </g>
     </g>
     <g id="text_6">
      <!-- 2017-11 -->
      <g transform="translate(542.151313 463.158437)scale(0.1 -0.1)">
       <use xlink:href="#DejaVuSans-32"/>
       <use xlink:href="#DejaVuSans-30" x="63.623047"/>
       <use xlink:href="#DejaVuSans-31" x="127.246094"/>
       <use xlink:href="#DejaVuSans-37" x="190.869141"/>
       <use xlink:href="#DejaVuSans-2d" x="254.492188"/>
       <use xlink:href="#DejaVuSans-31" x="290.576172"/>
       <use xlink:href="#DejaVuSans-31" x="354.199219"/>
      </g>
     </g>
    </g>
    <g id="text_7">
     <!-- Time -->
     <g transform="translate(356.766406 476.836563)scale(0.1 -0.1)">
      <defs>
       <path id="DejaVuSans-54" d="M -19 4666 
L 3928 4666 
L 3928 4134 
L 2272 4134 
L 2272 0 
L 1638 0 
L 1638 4134 
L -19 4134 
L -19 4666 
z
" transform="scale(0.015625)"/>
       <path id="DejaVuSans-69" d="M 603 3500 
L 1178 3500 
L 1178 0 
L 603 0 
L 603 3500 
z
M 603 4863 
L 1178 4863 
L 1178 4134 
L 603 4134 
L 603 4863 
z
" transform="scale(0.015625)"/>
       <path id="DejaVuSans-6d" d="M 3328 2828 
Q 3544 3216 3844 3400 
Q 4144 3584 4550 3584 
Q 5097 3584 5394 3201 
Q 5691 2819 5691 2113 
L 5691 0 
L 5113 0 
L 5113 2094 
Q 5113 2597 4934 2840 
Q 4756 3084 4391 3084 
Q 3944 3084 3684 2787 
Q 3425 2491 3425 1978 
L 3425 0 
L 2847 0 
L 2847 2094 
Q 2847 2600 2669 2842 
Q 2491 3084 2119 3084 
Q 1678 3084 1418 2786 
Q 1159 2488 1159 1978 
L 1159 0 
L 581 0 
L 581 3500 
L 1159 3500 
L 1159 2956 
Q 1356 3278 1631 3431 
Q 1906 3584 2284 3584 
Q 2666 3584 2933 3390 
Q 3200 3197 3328 2828 
z
" transform="scale(0.015625)"/>
       <path id="DejaVuSans-65" d="M 3597 1894 
L 3597 1613 
L 953 1613 
Q 991 1019 1311 708 
Q 1631 397 2203 397 
Q 2534 397 2845 478 
Q 3156 559 3463 722 
L 3463 178 
Q 3153 47 2828 -22 
Q 2503 -91 2169 -91 
Q 1331 -91 842 396 
Q 353 884 353 1716 
Q 353 2575 817 3079 
Q 1281 3584 2069 3584 
Q 2775 3584 3186 3129 
Q 3597 2675 3597 1894 
z
M 3022 2063 
Q 3016 2534 2758 2815 
Q 2500 3097 2075 3097 
Q 1594 3097 1305 2825 
Q 1016 2553 972 2059 
L 3022 2063 
z
" transform="scale(0.015625)"/>
      </defs>
      <use xlink:href="#DejaVuSans-54"/>
      <use xlink:href="#DejaVuSans-69" x="57.958984"/>
      <use xlink:href="#DejaVuSans-6d" x="85.742188"/>
      <use xlink:href="#DejaVuSans-65" x="183.154297"/>
     </g>
    </g>
   </g>
   <g id="matplotlib.axis_2">
    <g id="ytick_1">
     <g id="line2d_7">
      <defs>
       <path id="mfde89b7c8e" d="M 0 0 
L -3.5 0 
" style="stroke: #000000; stroke-width: 0.8"/>
      </defs>
      <g>
       <use xlink:href="#mfde89b7c8e" x="90" y="404.274436" style="stroke: #000000; stroke-width: 0.8"/>
      </g>
     </g>
     <g id="text_8">
      <!-- 0 -->
      <g transform="translate(76.6375 408.073655)scale(0.1 -0.1)">
       <use xlink:href="#DejaVuSans-30"/>
      </g>
     </g>
    </g>
    <g id="ytick_2">
     <g id="line2d_8">
      <g>
       <use xlink:href="#mfde89b7c8e" x="90" y="319.477227" style="stroke: #000000; stroke-width: 0.8"/>
      </g>
     </g>
     <g id="text_9">
      <!-- 5 -->
      <g transform="translate(76.6375 323.276446)scale(0.1 -0.1)">
       <use xlink:href="#DejaVuSans-35"/>
      </g>
     </g>
    </g>
    <g id="ytick_3">
     <g id="line2d_9">
      <g>
       <use xlink:href="#mfde89b7c8e" x="90" y="234.680018" style="stroke: #000000; stroke-width: 0.8"/>
      </g>
     </g>
     <g id="text_10">
      <!-- 10 -->
      <g transform="translate(70.275 238.479237)scale(0.1 -0.1)">
       <use xlink:href="#DejaVuSans-31"/>
       <use xlink:href="#DejaVuSans-30" x="63.623047"/>
      </g>
     </g>
    </g>
    <g id="ytick_4">
     <g id="line2d_10">
      <g>
       <use xlink:href="#mfde89b7c8e" x="90" y="149.882809" style="stroke: #000000; stroke-width: 0.8"/>
      </g>
     </g>
     <g id="text_11">
      <!-- 15 -->
      <g transform="translate(70.275 153.682028)scale(0.1 -0.1)">
       <use xlink:href="#DejaVuSans-31"/>
       <use xlink:href="#DejaVuSans-35" x="63.623047"/>
      </g>
     </g>
    </g>
    <g id="ytick_5">
     <g id="line2d_11">
      <g>
       <use xlink:href="#mfde89b7c8e" x="90" y="65.0856" style="stroke: #000000; stroke-width: 0.8"/>
      </g>
     </g>
     <g id="text_12">
      <!-- 20 -->
      <g transform="translate(70.275 68.884818)scale(0.1 -0.1)">
       <use xlink:href="#DejaVuSans-32"/>
       <use xlink:href="#DejaVuSans-30" x="63.623047"/>
      </g>
     </g>
    </g>
    <g id="text_13">
     <!-- Return [%] -->
     <g transform="translate(64.195312 281.352813)rotate(-90)scale(0.1 -0.1)">
      <defs>
       <path id="DejaVuSans-52" d="M 2841 2188 
Q 3044 2119 3236 1894 
Q 3428 1669 3622 1275 
L 4263 0 
L 3584 0 
L 2988 1197 
Q 2756 1666 2539 1819 
Q 2322 1972 1947 1972 
L 1259 1972 
L 1259 0 
L 628 0 
L 628 4666 
L 2053 4666 
Q 2853 4666 3247 4331 
Q 3641 3997 3641 3322 
Q 3641 2881 3436 2590 
Q 3231 2300 2841 2188 
z
M 1259 4147 
L 1259 2491 
L 2053 2491 
Q 2509 2491 2742 2702 
Q 2975 2913 2975 3322 
Q 2975 3731 2742 3939 
Q 2509 4147 2053 4147 
L 1259 4147 
z
" transform="scale(0.015625)"/>
       <path id="DejaVuSans-74" d="M 1172 4494 
L 1172 3500 
L 2356 3500 
L 2356 3053 
L 1172 3053 
L 1172 1153 
Q 1172 725 1289 603 
Q 1406 481 1766 481 
L 2356 481 
L 2356 0 
L 1766 0 
Q 1100 0 847 248 
Q 594 497 594 1153 
L 594 3053 
L 172 3053 
L 172 3500 
L 594 3500 
L 594 4494 
L 1172 4494 
z
" transform="scale(0.015625)"/>
       <path id="DejaVuSans-75" d="M 544 1381 
L 544 3500 
L 1119 3500 
L 1119 1403 
Q 1119 906 1312 657 
Q 1506 409 1894 409 
Q 2359 409 2629 706 
Q 2900 1003 2900 1516 
L 2900 3500 
L 3475 3500 
L 3475 0 
L 2900 0 
L 2900 538 
Q 2691 219 2414 64 
Q 2138 -91 1772 -91 
Q 1169 -91 856 284 
Q 544 659 544 1381 
z
M 1991 3584 
L 1991 3584 
z
" transform="scale(0.015625)"/>
       <path id="DejaVuSans-72" d="M 2631 2963 
Q 2534 3019 2420 3045 
Q 2306 3072 2169 3072 
Q 1681 3072 1420 2755 
Q 1159 2438 1159 1844 
L 1159 0 
L 581 0 
L 581 3500 
L 1159 3500 
L 1159 2956 
Q 1341 3275 1631 3429 
Q 1922 3584 2338 3584 
Q 2397 3584 2469 3576 
Q 2541 3569 2628 3553 
L 2631 2963 
z
" transform="scale(0.015625)"/>
       <path id="DejaVuSans-6e" d="M 3513 2113 
L 3513 0 
L 2938 0 
L 2938 2094 
Q 2938 2591 2744 2837 
Q 2550 3084 2163 3084 
Q 1697 3084 1428 2787 
Q 1159 2491 1159 1978 
L 1159 0 
L 581 0 
L 581 3500 
L 1159 3500 
L 1159 2956 
Q 1366 3272 1645 3428 
Q 1925 3584 2291 3584 
Q 2894 3584 3203 3211 
Q 3513 2838 3513 2113 
z
" transform="scale(0.015625)"/>
       <path id="DejaVuSans-20" transform="scale(0.015625)"/>
       <path id="DejaVuSans-5b" d="M 550 4863 
L 1875 4863 
L 1875 4416 
L 1125 4416 
L 1125 -397 
L 1875 -397 
L 1875 -844 
L 550 -844 
L 550 4863 
z
" transform="scale(0.015625)"/>
       <path id="DejaVuSans-25" d="M 4653 2053 
Q 4381 2053 4226 1822 
Q 4072 1591 4072 1178 
Q 4072 772 4226 539 
Q 4381 306 4653 306 
Q 4919 306 5073 539 
Q 5228 772 5228 1178 
Q 5228 1588 5073 1820 
Q 4919 2053 4653 2053 
z
M 4653 2450 
Q 5147 2450 5437 2106 
Q 5728 1763 5728 1178 
Q 5728 594 5436 251 
Q 5144 -91 4653 -91 
Q 4153 -91 3862 251 
Q 3572 594 3572 1178 
Q 3572 1766 3864 2108 
Q 4156 2450 4653 2450 
z
M 1428 4353 
Q 1159 4353 1004 4120 
Q 850 3888 850 3481 
Q 850 3069 1003 2837 
Q 1156 2606 1428 2606 
Q 1700 2606 1854 2837 
Q 2009 3069 2009 3481 
Q 2009 3884 1853 4118 
Q 1697 4353 1428 4353 
z
M 4250 4750 
L 4750 4750 
L 1831 -91 
L 1331 -91 
L 4250 4750 
z
M 1428 4750 
Q 1922 4750 2215 4408 
Q 2509 4066 2509 3481 
Q 2509 2891 2217 2550 
Q 1925 2209 1428 2209 
Q 931 2209 642 2551 
Q 353 2894 353 3481 
Q 353 4063 643 4406 
Q 934 4750 1428 4750 
z
" transform="scale(0.015625)"/>
       <path id="DejaVuSans-5d" d="M 1947 4863 
L 1947 -844 
L 622 -844 
L 622 -397 
L 1369 -397 
L 1369 4416 
L 622 4416 
L 622 4863 
L 1947 4863 
z
" transform="scale(0.015625)"/>
      </defs>
      <use xlink:href="#DejaVuSans-52"/>
      <use xlink:href="#DejaVuSans-65" x="64.982422"/>
      <use xlink:href="#DejaVuSans-74" x="126.505859"/>
      <use xlink:href="#DejaVuSans-75" x="165.714844"/>
      <use xlink:href="#DejaVuSans-72" x="229.09375"/>
      <use xlink:href="#DejaVuSans-6e" x="268.457031"/>
      <use xlink:href="#DejaVuSans-20" x="331.835938"/>
      <use xlink:href="#DejaVuSans-5b" x="363.623047"/>
      <use xlink:href="#DejaVuSans-25" x="402.636719"/>
      <use xlink:href="#DejaVuSans-5d" x="497.65625"/>
     </g>
    </g>
   </g>
   <g id="line2d_12">
    <path d="M 115.363636 404.274436 
L 116.81714 414.200453 
L 118.270643 415.49742 
L 122.631154 404.804105 
L 124.084657 396.065124 
L 125.538161 400.252506 
L 126.991664 410.049714 
L 132.805679 423.687855 
L 134.259182 423.386932 
L 135.712686 421.405948 
L 137.166189 430.92 
L 138.619693 409.619983 
L 142.980203 420.192262 
L 144.433707 426.465007 
L 145.88721 416.835472 
L 147.340714 419.139587 
L 148.794217 406.289843 
L 153.154728 429.387625 
L 154.608231 409.216902 
L 156.061735 383.528517 
L 157.515238 374.752892 
L 158.968742 391.552389 
L 163.329252 402.513315 
L 164.782756 393.784327 
L 166.236259 382.059435 
L 167.689763 377.018143 
L 169.143266 370.951935 
L 173.503777 380.294983 
L 174.957281 378.026401 
L 176.410784 379.917441 
L 177.864288 370.747618 
L 179.317791 364.940138 
L 183.678302 354.442256 
L 185.131805 357.136128 
L 186.585309 352.396869 
L 188.038812 349.838468 
L 189.492316 356.211151 
L 193.852826 349.837358 
L 195.30633 334.560242 
L 196.759833 343.392498 
L 198.213337 336.539005 
L 199.66684 357.020645 
L 204.027351 362.824794 
L 205.480854 356.673084 
L 206.934358 333.131135 
L 208.387861 345.168054 
L 209.841365 344.298598 
L 214.201875 350.731243 
L 215.655379 350.459191 
L 217.108883 347.726455 
L 218.562386 341.618052 
L 220.01589 336.956521 
L 224.3764 329.425674 
L 225.829904 339.097405 
L 227.283407 335.889411 
L 228.736911 331.042441 
L 230.190414 340.241135 
L 234.550925 342.14661 
L 236.004428 355.89024 
L 237.457932 364.6803 
L 238.911435 344.333021 
L 240.364939 346.094142 
L 244.725449 351.854985 
L 246.178953 345.66108 
L 247.632456 340.84076 
L 249.08596 341.449268 
L 250.539463 337.291867 
L 254.899974 355.299498 
L 256.353477 359.85776 
L 257.806981 369.571687 
L 260.713988 357.229403 
L 265.074499 354.123567 
L 266.528002 355.850265 
L 267.981506 351.292004 
L 269.435009 353.741583 
L 276.702527 371.068529 
L 278.15603 361.604446 
L 279.609534 358.264311 
L 281.063037 353.260773 
L 285.423548 313.260225 
L 286.877051 304.621181 
L 288.330555 301.032314 
L 289.784058 305.140856 
L 291.237562 293.576975 
L 297.051576 283.012468 
L 298.505079 285.811829 
L 299.958583 280.988178 
L 301.412086 276.870752 
L 305.772597 279.696763 
L 307.226101 264.579548 
L 308.679604 268.4227 
L 310.133108 276.892961 
L 311.586611 271.969372 
L 315.947122 268.203948 
L 317.400625 264.637289 
L 318.854129 292.053483 
L 320.307632 306.596613 
L 321.761136 291.120732 
L 326.121646 291.11407 
L 327.57515 277.241632 
L 329.028653 280.367455 
L 331.93566 283.828625 
L 336.296171 288.112613 
L 337.749674 279.428042 
L 339.203178 280.124274 
L 340.656681 277.666921 
L 342.110185 271.733964 
L 346.470695 281.470099 
L 349.377703 278.533046 
L 350.831206 274.949731 
L 352.28471 262.701833 
L 356.64522 280.469613 
L 358.098724 269.575313 
L 359.552227 279.584611 
L 361.005731 295.822238 
L 362.459234 283.648737 
L 366.819745 264.260858 
L 369.726752 277.2383 
L 371.180255 273.185279 
L 376.994269 275.222894 
L 378.447773 291.855828 
L 379.901276 289.145301 
L 381.35478 308.874078 
L 382.808283 320.741103 
L 387.168794 293.115041 
L 388.622297 299.486613 
L 390.075801 293.340456 
L 391.529305 300.241697 
L 392.982808 304.675592 
L 397.343319 296.006567 
L 398.796822 299.599876 
L 400.250326 267.372246 
L 401.703829 276.375506 
L 403.157333 271.554076 
L 407.517843 279.883313 
L 408.971347 315.383342 
L 410.42485 312.487375 
L 411.878354 325.955621 
L 413.331857 344.236415 
L 417.692368 360.329687 
L 419.145871 358.075541 
L 420.599375 345.515615 
L 422.052878 356.335517 
L 423.506382 370.676552 
L 427.866892 381.082268 
L 429.320396 360.958183 
L 430.773899 364.409359 
L 432.227403 368.350228 
L 433.680906 353.01426 
L 438.041417 350.787874 
L 439.494921 344.295267 
L 440.948424 355.530465 
L 443.855431 391.335858 
L 448.215942 373.988925 
L 449.669445 386.428926 
L 451.122949 376.670582 
L 452.576452 390.082197 
L 454.029956 398.929999 
L 458.390466 407.665649 
L 459.84397 386.001415 
L 461.297473 387.804732 
L 462.750977 392.409631 
L 464.20448 389.266041 
L 468.564991 393.638863 
L 470.018494 411.381104 
L 471.471998 394.658226 
L 472.925501 382.559123 
L 474.379005 369.310739 
L 478.739515 376.972615 
L 480.193019 382.415879 
L 481.646523 388.765243 
L 483.100026 375.713403 
L 484.55353 376.499578 
L 488.91404 354.462244 
L 490.367544 345.614442 
L 491.821047 345.7166 
L 493.274551 337.404019 
L 494.728054 347.016899 
L 499.088565 342.668506 
L 500.542068 340.845201 
L 501.995572 339.785864 
L 503.449075 327.646786 
L 504.902579 322.693216 
L 509.263089 318.99997 
L 510.716593 311.607924 
L 512.170096 297.153628 
L 513.6236 295.814465 
L 515.077103 281.557822 
L 519.437614 278.412011 
L 520.891117 268.944596 
L 523.798125 264.530689 
L 525.251628 272.163695 
L 529.612139 270.335949 
L 531.065642 274.314573 
L 532.519146 277.241632 
L 533.972649 273.973675 
L 535.426153 276.368844 
L 541.240167 282.528326 
L 542.69367 273.8804 
L 544.147174 271.410832 
L 545.600677 248.592875 
L 549.961188 255.215402 
L 551.414691 267.514379 
L 552.868195 268.321653 
L 554.321698 258.27349 
L 555.775202 251.354482 
L 560.135712 254.349277 
L 561.589216 244.013516 
L 563.042719 243.572681 
L 564.496223 242.739868 
L 565.949726 237.323254 
L 570.310237 239.003315 
L 571.763741 245.560327 
L 573.217244 253.608629 
L 574.670748 275.520485 
L 576.124251 285.0412 
L 580.484762 289.670528 
L 581.938265 291.921343 
L 583.391769 293.570312 
L 584.845272 286.177156 
L 586.298776 303.8983 
L 590.659286 297.410134 
L 592.11279 282.859231 
L 593.566293 304.100396 
L 595.019797 309.590297 
L 596.4733 307.315053 
L 600.833811 313.842083 
L 602.287314 300.444903 
L 603.740818 302.801208 
L 605.194321 312.329695 
L 606.647825 332.213931 
L 611.008336 304.898785 
L 612.461839 308.715288 
L 613.915343 328.61507 
L 615.368846 324.343296 
L 616.82235 311.532416 
L 621.18286 301.92842 
L 622.636364 297.176946 
L 622.636364 297.176946 
" clip-path="url(#pbf5b3da6ce)" style="fill: none; stroke: #1f77b4; stroke-width: 1.5; stroke-linecap: square"/>
   </g>
   <g id="line2d_13">
    <path d="M 115.363636 404.274436 
L 116.81714 417.920928 
L 118.270643 408.650429 
L 122.631154 413.270455 
L 124.084657 401.318047 
L 125.538161 383.05069 
L 126.991664 385.700202 
L 132.805679 374.408311 
L 134.259182 386.357967 
L 135.712686 400.406075 
L 137.166189 405.539499 
L 138.619693 399.099274 
L 142.980203 378.256979 
L 144.433707 379.992963 
L 145.88721 364.858967 
L 147.340714 367.170224 
L 148.794217 341.784782 
L 153.154728 330.935929 
L 154.608231 344.439581 
L 156.061735 336.225758 
L 157.515238 325.505901 
L 158.968742 322.135418 
L 163.329252 327.399894 
L 164.782756 346.93129 
L 166.236259 344.387514 
L 167.689763 337.404621 
L 169.143266 329.83599 
L 173.503777 329.980379 
L 174.957281 326.935877 
L 176.410784 312.398532 
L 177.864288 299.749181 
L 179.317791 312.384155 
L 183.678302 296.552908 
L 185.131805 299.695365 
L 186.585309 293.280593 
L 188.038812 278.307206 
L 189.492316 268.704387 
L 193.852826 264.615767 
L 195.30633 250.540076 
L 196.759833 257.496236 
L 198.213337 262.129548 
L 199.66684 268.917457 
L 205.480854 281.754173 
L 206.934358 267.511308 
L 208.387861 266.109332 
L 209.841365 273.960328 
L 214.201875 275.102856 
L 215.655379 275.878977 
L 217.108883 285.597309 
L 218.562386 296.776381 
L 220.01589 296.776381 
L 224.3764 287.606716 
L 225.829904 300.84659 
L 227.283407 290.898632 
L 247.632456 290.898632 
L 249.08596 281.980909 
L 250.539463 277.777326 
L 254.899974 267.141457 
L 256.353477 269.186233 
L 257.806981 269.186233 
L 259.260485 273.527512 
L 260.713988 266.735822 
L 265.074499 249.673464 
L 266.528002 248.872255 
L 267.981506 248.58113 
L 269.435009 243.653337 
L 276.702527 240.255665 
L 278.15603 250.783925 
L 279.609534 250.844539 
L 281.063037 247.979637 
L 285.423548 235.252663 
L 286.877051 227.128691 
L 288.330555 227.103832 
L 289.784058 224.974475 
L 291.237562 202.97457 
L 297.051576 215.964091 
L 299.958583 207.943785 
L 301.412086 192.72371 
L 305.772597 192.866276 
L 307.226101 187.788898 
L 308.679604 172.503005 
L 310.133108 173.429191 
L 311.586611 160.444448 
L 315.947122 170.106723 
L 317.400625 168.852461 
L 318.854129 178.636866 
L 321.761136 178.636866 
L 326.121646 172.889088 
L 327.57515 164.952007 
L 329.028653 151.546036 
L 331.93566 140.041284 
L 336.296171 134.565136 
L 337.749674 144.761051 
L 339.203178 125.435339 
L 340.656681 124.419782 
L 342.110185 118.955104 
L 346.470695 101.753803 
L 349.377703 84.891736 
L 350.831206 78.12 
L 352.28471 81.019594 
L 356.64522 97.184135 
L 358.098724 112.152075 
L 359.552227 99.642882 
L 361.005731 94.942219 
L 362.459234 115.361163 
L 366.819745 87.647001 
L 368.273248 92.057774 
L 369.726752 91.136051 
L 371.180255 109.15807 
L 376.994269 97.688562 
L 378.447773 106.099913 
L 379.901276 122.925884 
L 382.808283 153.766572 
L 387.168794 144.786759 
L 388.622297 145.870171 
L 390.075801 174.751387 
L 391.529305 177.68124 
L 392.982808 185.225642 
L 397.343319 180.202974 
L 398.796822 182.586564 
L 400.250326 205.864954 
L 401.703829 173.132282 
L 403.157333 181.182256 
L 407.517843 168.889955 
L 408.971347 157.636153 
L 410.42485 161.000555 
L 411.878354 176.614983 
L 413.331857 202.993162 
L 417.692368 222.525052 
L 419.145871 231.758681 
L 420.599375 229.592698 
L 422.052878 216.097661 
L 423.506382 229.471818 
L 427.866892 245.064794 
L 429.320396 234.807693 
L 430.773899 216.497662 
L 432.227403 205.812726 
L 433.680906 214.380864 
L 438.041417 179.356557 
L 439.494921 183.366543 
L 440.948424 188.429487 
L 442.401928 209.839106 
L 443.855431 247.39029 
L 448.215942 254.176598 
L 449.669445 229.427584 
L 451.122949 229.504428 
L 452.576452 237.052806 
L 454.029956 248.840568 
L 474.379005 248.840568 
L 478.739515 254.081406 
L 480.193019 254.081406 
L 481.646523 248.873397 
L 483.100026 248.231848 
L 484.55353 253.17942 
L 488.91404 250.666185 
L 490.367544 237.641888 
L 491.821047 248.52278 
L 493.274551 250.752006 
L 494.728054 251.400442 
L 499.088565 254.168955 
L 500.542068 260.06042 
L 501.995572 234.191947 
L 503.449075 263.739647 
L 504.902579 266.826975 
L 509.263089 277.430658 
L 510.716593 269.947441 
L 512.170096 283.478069 
L 513.6236 289.08168 
L 515.077103 274.991609 
L 519.437614 267.006002 
L 520.891117 265.431953 
L 522.344621 299.190287 
L 523.798125 318.280339 
L 525.251628 298.464021 
L 531.065642 283.854819 
L 532.519146 279.339145 
L 533.972649 296.67557 
L 535.426153 293.247439 
L 539.786663 292.897537 
L 541.240167 286.921646 
L 542.69367 297.520539 
L 544.147174 299.81145 
L 545.600677 299.81145 
L 549.961188 295.756743 
L 551.414691 295.975405 
L 563.042719 295.975405 
L 564.496223 283.113827 
L 565.949726 284.092929 
L 570.310237 272.929613 
L 571.763741 296.019374 
L 573.217244 310.071361 
L 574.670748 336.62681 
L 576.124251 359.400056 
L 580.484762 352.176546 
L 606.647825 352.176546 
L 611.008336 359.747376 
L 622.636364 359.747376 
L 622.636364 359.747376 
" clip-path="url(#pbf5b3da6ce)" style="fill: none; stroke: #ff7f0e; stroke-width: 1.5; stroke-linecap: square"/>
   </g>
   <g id="patch_3">
    <path d="M 90 448.56 
L 90 60.48 
" style="fill: none; stroke: #000000; stroke-width: 0.8; stroke-linejoin: miter; stroke-linecap: square"/>
   </g>
   <g id="patch_4">
    <path d="M 648 448.56 
L 648 60.48 
" style="fill: none; stroke: #000000; stroke-width: 0.8; stroke-linejoin: miter; stroke-linecap: square"/>
   </g>
   <g id="patch_5">
    <path d="M 90 448.56 
L 648 448.56 
" style="fill: none; stroke: #000000; stroke-width: 0.8; stroke-linejoin: miter; stroke-linecap: square"/>
   </g>
   <g id="patch_6">
    <path d="M 90 60.48 
L 648 60.48 
" style="fill: none; stroke: #000000; stroke-width: 0.8; stroke-linejoin: miter; stroke-linecap: square"/>
   </g>
   <g id="text_14">
    <!-- Performance of AVAN-strategy year 2017 -->
    <g transform="translate(245.686875 54.48)scale(0.12 -0.12)">
     <defs>
      <path id="DejaVuSans-50" d="M 1259 4147 
L 1259 2394 
L 2053 2394 
Q 2494 2394 2734 2622 
Q 2975 2850 2975 3272 
Q 2975 3691 2734 3919 
Q 2494 4147 2053 4147 
L 1259 4147 
z
M 628 4666 
L 2053 4666 
Q 2838 4666 3239 4311 
Q 3641 3956 3641 3272 
Q 3641 2581 3239 2228 
Q 2838 1875 2053 1875 
L 1259 1875 
L 1259 0 
L 628 0 
L 628 4666 
z
" transform="scale(0.015625)"/>
      <path id="DejaVuSans-66" d="M 2375 4863 
L 2375 4384 
L 1825 4384 
Q 1516 4384 1395 4259 
Q 1275 4134 1275 3809 
L 1275 3500 
L 2222 3500 
L 2222 3053 
L 1275 3053 
L 1275 0 
L 697 0 
L 697 3053 
L 147 3053 
L 147 3500 
L 697 3500 
L 697 3744 
Q 697 4328 969 4595 
Q 1241 4863 1831 4863 
L 2375 4863 
z
" transform="scale(0.015625)"/>
      <path id="DejaVuSans-6f" d="M 1959 3097 
Q 1497 3097 1228 2736 
Q 959 2375 959 1747 
Q 959 1119 1226 758 
Q 1494 397 1959 397 
Q 2419 397 2687 759 
Q 2956 1122 2956 1747 
Q 2956 2369 2687 2733 
Q 2419 3097 1959 3097 
z
M 1959 3584 
Q 2709 3584 3137 3096 
Q 3566 2609 3566 1747 
Q 3566 888 3137 398 
Q 2709 -91 1959 -91 
Q 1206 -91 779 398 
Q 353 888 353 1747 
Q 353 2609 779 3096 
Q 1206 3584 1959 3584 
z
" transform="scale(0.015625)"/>
      <path id="DejaVuSans-61" d="M 2194 1759 
Q 1497 1759 1228 1600 
Q 959 1441 959 1056 
Q 959 750 1161 570 
Q 1363 391 1709 391 
Q 2188 391 2477 730 
Q 2766 1069 2766 1631 
L 2766 1759 
L 2194 1759 
z
M 3341 1997 
L 3341 0 
L 2766 0 
L 2766 531 
Q 2569 213 2275 61 
Q 1981 -91 1556 -91 
Q 1019 -91 701 211 
Q 384 513 384 1019 
Q 384 1609 779 1909 
Q 1175 2209 1959 2209 
L 2766 2209 
L 2766 2266 
Q 2766 2663 2505 2880 
Q 2244 3097 1772 3097 
Q 1472 3097 1187 3025 
Q 903 2953 641 2809 
L 641 3341 
Q 956 3463 1253 3523 
Q 1550 3584 1831 3584 
Q 2591 3584 2966 3190 
Q 3341 2797 3341 1997 
z
" transform="scale(0.015625)"/>
      <path id="DejaVuSans-63" d="M 3122 3366 
L 3122 2828 
Q 2878 2963 2633 3030 
Q 2388 3097 2138 3097 
Q 1578 3097 1268 2742 
Q 959 2388 959 1747 
Q 959 1106 1268 751 
Q 1578 397 2138 397 
Q 2388 397 2633 464 
Q 2878 531 3122 666 
L 3122 134 
Q 2881 22 2623 -34 
Q 2366 -91 2075 -91 
Q 1284 -91 818 406 
Q 353 903 353 1747 
Q 353 2603 823 3093 
Q 1294 3584 2113 3584 
Q 2378 3584 2631 3529 
Q 2884 3475 3122 3366 
z
" transform="scale(0.015625)"/>
      <path id="DejaVuSans-41" d="M 2188 4044 
L 1331 1722 
L 3047 1722 
L 2188 4044 
z
M 1831 4666 
L 2547 4666 
L 4325 0 
L 3669 0 
L 3244 1197 
L 1141 1197 
L 716 0 
L 50 0 
L 1831 4666 
z
" transform="scale(0.015625)"/>
      <path id="DejaVuSans-56" d="M 1831 0 
L 50 4666 
L 709 4666 
L 2188 738 
L 3669 4666 
L 4325 4666 
L 2547 0 
L 1831 0 
z
" transform="scale(0.015625)"/>
      <path id="DejaVuSans-4e" d="M 628 4666 
L 1478 4666 
L 3547 763 
L 3547 4666 
L 4159 4666 
L 4159 0 
L 3309 0 
L 1241 3903 
L 1241 0 
L 628 0 
L 628 4666 
z
" transform="scale(0.015625)"/>
      <path id="DejaVuSans-73" d="M 2834 3397 
L 2834 2853 
Q 2591 2978 2328 3040 
Q 2066 3103 1784 3103 
Q 1356 3103 1142 2972 
Q 928 2841 928 2578 
Q 928 2378 1081 2264 
Q 1234 2150 1697 2047 
L 1894 2003 
Q 2506 1872 2764 1633 
Q 3022 1394 3022 966 
Q 3022 478 2636 193 
Q 2250 -91 1575 -91 
Q 1294 -91 989 -36 
Q 684 19 347 128 
L 347 722 
Q 666 556 975 473 
Q 1284 391 1588 391 
Q 1994 391 2212 530 
Q 2431 669 2431 922 
Q 2431 1156 2273 1281 
Q 2116 1406 1581 1522 
L 1381 1569 
Q 847 1681 609 1914 
Q 372 2147 372 2553 
Q 372 3047 722 3315 
Q 1072 3584 1716 3584 
Q 2034 3584 2315 3537 
Q 2597 3491 2834 3397 
z
" transform="scale(0.015625)"/>
      <path id="DejaVuSans-67" d="M 2906 1791 
Q 2906 2416 2648 2759 
Q 2391 3103 1925 3103 
Q 1463 3103 1205 2759 
Q 947 2416 947 1791 
Q 947 1169 1205 825 
Q 1463 481 1925 481 
Q 2391 481 2648 825 
Q 2906 1169 2906 1791 
z
M 3481 434 
Q 3481 -459 3084 -895 
Q 2688 -1331 1869 -1331 
Q 1566 -1331 1297 -1286 
Q 1028 -1241 775 -1147 
L 775 -588 
Q 1028 -725 1275 -790 
Q 1522 -856 1778 -856 
Q 2344 -856 2625 -561 
Q 2906 -266 2906 331 
L 2906 616 
Q 2728 306 2450 153 
Q 2172 0 1784 0 
Q 1141 0 747 490 
Q 353 981 353 1791 
Q 353 2603 747 3093 
Q 1141 3584 1784 3584 
Q 2172 3584 2450 3431 
Q 2728 3278 2906 2969 
L 2906 3500 
L 3481 3500 
L 3481 434 
z
" transform="scale(0.015625)"/>
      <path id="DejaVuSans-79" d="M 2059 -325 
Q 1816 -950 1584 -1140 
Q 1353 -1331 966 -1331 
L 506 -1331 
L 506 -850 
L 844 -850 
Q 1081 -850 1212 -737 
Q 1344 -625 1503 -206 
L 1606 56 
L 191 3500 
L 800 3500 
L 1894 763 
L 2988 3500 
L 3597 3500 
L 2059 -325 
z
" transform="scale(0.015625)"/>
     </defs>
     <use xlink:href="#DejaVuSans-50"/>
     <use xlink:href="#DejaVuSans-65" x="56.677734"/>
     <use xlink:href="#DejaVuSans-72" x="118.201172"/>
     <use xlink:href="#DejaVuSans-66" x="159.314453"/>
     <use xlink:href="#DejaVuSans-6f" x="194.519531"/>
     <use xlink:href="#DejaVuSans-72" x="255.701172"/>
     <use xlink:href="#DejaVuSans-6d" x="295.064453"/>
     <use xlink:href="#DejaVuSans-61" x="392.476562"/>
     <use xlink:href="#DejaVuSans-6e" x="453.755859"/>
     <use xlink:href="#DejaVuSans-63" x="517.134766"/>
     <use xlink:href="#DejaVuSans-65" x="572.115234"/>
     <use xlink:href="#DejaVuSans-20" x="633.638672"/>
     <use xlink:href="#DejaVuSans-6f" x="665.425781"/>
     <use xlink:href="#DejaVuSans-66" x="726.607422"/>
     <use xlink:href="#DejaVuSans-20" x="761.8125"/>
     <use xlink:href="#DejaVuSans-41" x="793.599609"/>
     <use xlink:href="#DejaVuSans-56" x="855.632812"/>
     <use xlink:href="#DejaVuSans-41" x="917.666016"/>
     <use xlink:href="#DejaVuSans-4e" x="986.074219"/>
     <use xlink:href="#DejaVuSans-2d" x="1060.878906"/>
     <use xlink:href="#DejaVuSans-73" x="1096.962891"/>
     <use xlink:href="#DejaVuSans-74" x="1149.0625"/>
     <use xlink:href="#DejaVuSans-72" x="1188.271484"/>
     <use xlink:href="#DejaVuSans-61" x="1229.384766"/>
     <use xlink:href="#DejaVuSans-74" x="1290.664062"/>
     <use xlink:href="#DejaVuSans-65" x="1329.873047"/>
     <use xlink:href="#DejaVuSans-67" x="1391.396484"/>
     <use xlink:href="#DejaVuSans-79" x="1454.873047"/>
     <use xlink:href="#DejaVuSans-20" x="1514.052734"/>
     <use xlink:href="#DejaVuSans-79" x="1545.839844"/>
     <use xlink:href="#DejaVuSans-65" x="1605.019531"/>
     <use xlink:href="#DejaVuSans-61" x="1666.542969"/>
     <use xlink:href="#DejaVuSans-72" x="1727.822266"/>
     <use xlink:href="#DejaVuSans-20" x="1768.935547"/>
     <use xlink:href="#DejaVuSans-32" x="1800.722656"/>
     <use xlink:href="#DejaVuSans-30" x="1864.345703"/>
     <use xlink:href="#DejaVuSans-31" x="1927.96875"/>
     <use xlink:href="#DejaVuSans-37" x="1991.591797"/>
    </g>
   </g>
   <g id="legend_1">
    <g id="patch_7">
     <path d="M 500.853125 97.83625 
L 641 97.83625 
Q 643 97.83625 643 95.83625 
L 643 67.48 
Q 643 65.48 641 65.48 
L 500.853125 65.48 
Q 498.853125 65.48 498.853125 67.48 
L 498.853125 95.83625 
Q 498.853125 97.83625 500.853125 97.83625 
z
" style="fill: #ffffff; opacity: 0.8; stroke: #cccccc; stroke-linejoin: miter"/>
    </g>
    <g id="line2d_14">
     <path d="M 502.853125 73.578438 
L 512.853125 73.578438 
L 522.853125 73.578438 
" style="fill: none; stroke: #1f77b4; stroke-width: 1.5; stroke-linecap: square"/>
    </g>
    <g id="text_15">
     <!-- 6.3149% return omx -->
     <g transform="translate(530.853125 77.078438)scale(0.1 -0.1)">
      <defs>
       <path id="DejaVuSans-36" d="M 2113 2584 
Q 1688 2584 1439 2293 
Q 1191 2003 1191 1497 
Q 1191 994 1439 701 
Q 1688 409 2113 409 
Q 2538 409 2786 701 
Q 3034 994 3034 1497 
Q 3034 2003 2786 2293 
Q 2538 2584 2113 2584 
z
M 3366 4563 
L 3366 3988 
Q 3128 4100 2886 4159 
Q 2644 4219 2406 4219 
Q 1781 4219 1451 3797 
Q 1122 3375 1075 2522 
Q 1259 2794 1537 2939 
Q 1816 3084 2150 3084 
Q 2853 3084 3261 2657 
Q 3669 2231 3669 1497 
Q 3669 778 3244 343 
Q 2819 -91 2113 -91 
Q 1303 -91 875 529 
Q 447 1150 447 2328 
Q 447 3434 972 4092 
Q 1497 4750 2381 4750 
Q 2619 4750 2861 4703 
Q 3103 4656 3366 4563 
z
" transform="scale(0.015625)"/>
       <path id="DejaVuSans-2e" d="M 684 794 
L 1344 794 
L 1344 0 
L 684 0 
L 684 794 
z
" transform="scale(0.015625)"/>
       <path id="DejaVuSans-34" d="M 2419 4116 
L 825 1625 
L 2419 1625 
L 2419 4116 
z
M 2253 4666 
L 3047 4666 
L 3047 1625 
L 3713 1625 
L 3713 1100 
L 3047 1100 
L 3047 0 
L 2419 0 
L 2419 1100 
L 313 1100 
L 313 1709 
L 2253 4666 
z
" transform="scale(0.015625)"/>
       <path id="DejaVuSans-78" d="M 3513 3500 
L 2247 1797 
L 3578 0 
L 2900 0 
L 1881 1375 
L 863 0 
L 184 0 
L 1544 1831 
L 300 3500 
L 978 3500 
L 1906 2253 
L 2834 3500 
L 3513 3500 
z
" transform="scale(0.015625)"/>
      </defs>
      <use xlink:href="#DejaVuSans-36"/>
      <use xlink:href="#DejaVuSans-2e" x="63.623047"/>
      <use xlink:href="#DejaVuSans-33" x="95.410156"/>
      <use xlink:href="#DejaVuSans-31" x="159.033203"/>
      <use xlink:href="#DejaVuSans-34" x="222.65625"/>
      <use xlink:href="#DejaVuSans-39" x="286.279297"/>
      <use xlink:href="#DejaVuSans-25" x="349.902344"/>
      <use xlink:href="#DejaVuSans-20" x="444.921875"/>
      <use xlink:href="#DejaVuSans-72" x="476.708984"/>
      <use xlink:href="#DejaVuSans-65" x="515.572266"/>
      <use xlink:href="#DejaVuSans-74" x="577.095703"/>
      <use xlink:href="#DejaVuSans-75" x="616.304688"/>
      <use xlink:href="#DejaVuSans-72" x="679.683594"/>
      <use xlink:href="#DejaVuSans-6e" x="719.046875"/>
      <use xlink:href="#DejaVuSans-20" x="782.425781"/>
      <use xlink:href="#DejaVuSans-6f" x="814.212891"/>
      <use xlink:href="#DejaVuSans-6d" x="875.394531"/>
      <use xlink:href="#DejaVuSans-78" x="972.806641"/>
     </g>
    </g>
    <g id="line2d_15">
     <path d="M 502.853125 88.256563 
L 512.853125 88.256563 
L 522.853125 88.256563 
" style="fill: none; stroke: #ff7f0e; stroke-width: 1.5; stroke-linecap: square"/>
    </g>
    <g id="text_16">
     <!-- 2.6255% return AVAN -->
     <g transform="translate(530.853125 91.756563)scale(0.1 -0.1)">
      <use xlink:href="#DejaVuSans-32"/>
      <use xlink:href="#DejaVuSans-2e" x="63.623047"/>
      <use xlink:href="#DejaVuSans-36" x="95.410156"/>
      <use xlink:href="#DejaVuSans-32" x="159.033203"/>
      <use xlink:href="#DejaVuSans-35" x="222.65625"/>
      <use xlink:href="#DejaVuSans-35" x="286.279297"/>
      <use xlink:href="#DejaVuSans-25" x="349.902344"/>
      <use xlink:href="#DejaVuSans-20" x="444.921875"/>
      <use xlink:href="#DejaVuSans-72" x="476.708984"/>
      <use xlink:href="#DejaVuSans-65" x="515.572266"/>
      <use xlink:href="#DejaVuSans-74" x="577.095703"/>
      <use xlink:href="#DejaVuSans-75" x="616.304688"/>
      <use xlink:href="#DejaVuSans-72" x="679.683594"/>
      <use xlink:href="#DejaVuSans-6e" x="719.046875"/>
      <use xlink:href="#DejaVuSans-20" x="782.425781"/>
      <use xlink:href="#DejaVuSans-41" x="814.212891"/>
      <use xlink:href="#DejaVuSans-56" x="876.246094"/>
      <use xlink:href="#DejaVuSans-41" x="938.279297"/>
      <use xlink:href="#DejaVuSans-4e" x="1006.6875"/>
     </g>
    </g>
   </g>
  </g>
 </g>
 <defs>
  <clipPath id="pbf5b3da6ce">
   <rect x="90" y="60.48" width="558" height="388.08"/>
  </clipPath>
 </defs>
</svg>
