<?xml version="1.0" encoding="utf-8" standalone="no"?>
<!DOCTYPE svg PUBLIC "-//W3C//DTD SVG 1.1//EN"
  "http://www.w3.org/Graphics/SVG/1.1/DTD/svg11.dtd">
<svg xmlns:xlink="http://www.w3.org/1999/xlink" width="576pt" height="432pt" viewBox="0 0 576 432" xmlns="http://www.w3.org/2000/svg" version="1.1">
 <metadata>
  <rdf:RDF xmlns:dc="http://purl.org/dc/elements/1.1/" xmlns:cc="http://creativecommons.org/ns#" xmlns:rdf="http://www.w3.org/1999/02/22-rdf-syntax-ns#">
   <cc:Work>
    <dc:type rdf:resource="http://purl.org/dc/dcmitype/StillImage"/>
    <dc:date>2023-01-15T23:56:29.402446</dc:date>
    <dc:format>image/svg+xml</dc:format>
    <dc:creator>
     <cc:Agent>
      <dc:title>Matplotlib v3.5.0, https://matplotlib.org/</dc:title>
     </cc:Agent>
    </dc:creator>
   </cc:Work>
  </rdf:RDF>
 </metadata>
 <defs>
  <style type="text/css">*{stroke-linejoin: round; stroke-linecap: butt}</style>
 </defs>
 <g id="figure_1">
  <g id="patch_1">
   <path d="M 0 432 
L 576 432 
L 576 0 
L 0 0 
z
" style="fill: #ffffff"/>
  </g>
  <g id="axes_1">
   <g id="patch_2">
    <path d="M 52.94 288.132273 
L 561.418459 288.132273 
L 561.418459 26.88 
L 52.94 26.88 
z
" style="fill: #ffffff"/>
   </g>
   <g id="matplotlib.axis_1">
    <g id="xtick_1">
     <g id="line2d_1">
      <defs>
       <path id="m9c26172d94" d="M 0 0 
L 0 3.5 
" style="stroke: #000000; stroke-width: 0.8"/>
      </defs>
      <g>
       <use xlink:href="#m9c26172d94" x="74.772178" y="288.132273" style="stroke: #000000; stroke-width: 0.8"/>
      </g>
     </g>
    </g>
    <g id="xtick_2">
     <g id="line2d_2">
      <g>
       <use xlink:href="#m9c26172d94" x="150.320475" y="288.132273" style="stroke: #000000; stroke-width: 0.8"/>
      </g>
     </g>
    </g>
    <g id="xtick_3">
     <g id="line2d_3">
      <g>
       <use xlink:href="#m9c26172d94" x="228.429733" y="288.132273" style="stroke: #000000; stroke-width: 0.8"/>
      </g>
     </g>
    </g>
    <g id="xtick_4">
     <g id="line2d_4">
      <g>
       <use xlink:href="#m9c26172d94" x="306.53899" y="288.132273" style="stroke: #000000; stroke-width: 0.8"/>
      </g>
     </g>
    </g>
    <g id="xtick_5">
     <g id="line2d_5">
      <g>
       <use xlink:href="#m9c26172d94" x="385.928726" y="288.132273" style="stroke: #000000; stroke-width: 0.8"/>
      </g>
     </g>
    </g>
    <g id="xtick_6">
     <g id="line2d_6">
      <g>
       <use xlink:href="#m9c26172d94" x="464.037983" y="288.132273" style="stroke: #000000; stroke-width: 0.8"/>
      </g>
     </g>
    </g>
    <g id="xtick_7">
     <g id="line2d_7">
      <g>
       <use xlink:href="#m9c26172d94" x="542.14724" y="288.132273" style="stroke: #000000; stroke-width: 0.8"/>
      </g>
     </g>
    </g>
   </g>
   <g id="matplotlib.axis_2">
    <g id="ytick_1">
     <g id="line2d_8">
      <defs>
       <path id="me962b676bc" d="M 0 0 
L -3.5 0 
" style="stroke: #000000; stroke-width: 0.8"/>
      </defs>
      <g>
       <use xlink:href="#me962b676bc" x="52.94" y="246.7106" style="stroke: #000000; stroke-width: 0.8"/>
      </g>
     </g>
     <g id="text_1">
      <!-- −5 -->
      <g transform="translate(31.197813 250.509818)scale(0.1 -0.1)">
       <defs>
        <path id="DejaVuSans-2212" d="M 678 2272 
L 4684 2272 
L 4684 1741 
L 678 1741 
L 678 2272 
z
" transform="scale(0.015625)"/>
        <path id="DejaVuSans-35" d="M 691 4666 
L 3169 4666 
L 3169 4134 
L 1269 4134 
L 1269 2991 
Q 1406 3038 1543 3061 
Q 1681 3084 1819 3084 
Q 2600 3084 3056 2656 
Q 3513 2228 3513 1497 
Q 3513 744 3044 326 
Q 2575 -91 1722 -91 
Q 1428 -91 1123 -41 
Q 819 9 494 109 
L 494 744 
Q 775 591 1075 516 
Q 1375 441 1709 441 
Q 2250 441 2565 725 
Q 2881 1009 2881 1497 
Q 2881 1984 2565 2268 
Q 2250 2553 1709 2553 
Q 1456 2553 1204 2497 
Q 953 2441 691 2322 
L 691 4666 
z
" transform="scale(0.015625)"/>
       </defs>
       <use xlink:href="#DejaVuSans-2212"/>
       <use xlink:href="#DejaVuSans-35" x="83.789062"/>
      </g>
     </g>
    </g>
    <g id="ytick_2">
     <g id="line2d_9">
      <g>
       <use xlink:href="#me962b676bc" x="52.94" y="204.811897" style="stroke: #000000; stroke-width: 0.8"/>
      </g>
     </g>
     <g id="text_2">
      <!-- 0 -->
      <g transform="translate(39.5775 208.611116)scale(0.1 -0.1)">
       <defs>
        <path id="DejaVuSans-30" d="M 2034 4250 
Q 1547 4250 1301 3770 
Q 1056 3291 1056 2328 
Q 1056 1369 1301 889 
Q 1547 409 2034 409 
Q 2525 409 2770 889 
Q 3016 1369 3016 2328 
Q 3016 3291 2770 3770 
Q 2525 4250 2034 4250 
z
M 2034 4750 
Q 2819 4750 3233 4129 
Q 3647 3509 3647 2328 
Q 3647 1150 3233 529 
Q 2819 -91 2034 -91 
Q 1250 -91 836 529 
Q 422 1150 422 2328 
Q 422 3509 836 4129 
Q 1250 4750 2034 4750 
z
" transform="scale(0.015625)"/>
       </defs>
       <use xlink:href="#DejaVuSans-30"/>
      </g>
     </g>
    </g>
    <g id="ytick_3">
     <g id="line2d_10">
      <g>
       <use xlink:href="#me962b676bc" x="52.94" y="162.913195" style="stroke: #000000; stroke-width: 0.8"/>
      </g>
     </g>
     <g id="text_3">
      <!-- 5 -->
      <g transform="translate(39.5775 166.712414)scale(0.1 -0.1)">
       <use xlink:href="#DejaVuSans-35"/>
      </g>
     </g>
    </g>
    <g id="ytick_4">
     <g id="line2d_11">
      <g>
       <use xlink:href="#me962b676bc" x="52.94" y="121.014493" style="stroke: #000000; stroke-width: 0.8"/>
      </g>
     </g>
     <g id="text_4">
      <!-- 10 -->
      <g transform="translate(33.215 124.813711)scale(0.1 -0.1)">
       <defs>
        <path id="DejaVuSans-31" d="M 794 531 
L 1825 531 
L 1825 4091 
L 703 3866 
L 703 4441 
L 1819 4666 
L 2450 4666 
L 2450 531 
L 3481 531 
L 3481 0 
L 794 0 
L 794 531 
z
" transform="scale(0.015625)"/>
       </defs>
       <use xlink:href="#DejaVuSans-31"/>
       <use xlink:href="#DejaVuSans-30" x="63.623047"/>
      </g>
     </g>
    </g>
    <g id="ytick_5">
     <g id="line2d_12">
      <g>
       <use xlink:href="#me962b676bc" x="52.94" y="79.11579" style="stroke: #000000; stroke-width: 0.8"/>
      </g>
     </g>
     <g id="text_5">
      <!-- 15 -->
      <g transform="translate(33.215 82.915009)scale(0.1 -0.1)">
       <use xlink:href="#DejaVuSans-31"/>
       <use xlink:href="#DejaVuSans-35" x="63.623047"/>
      </g>
     </g>
    </g>
    <g id="ytick_6">
     <g id="line2d_13">
      <g>
       <use xlink:href="#me962b676bc" x="52.94" y="37.217088" style="stroke: #000000; stroke-width: 0.8"/>
      </g>
     </g>
     <g id="text_6">
      <!-- 20 -->
      <g transform="translate(33.215 41.016307)scale(0.1 -0.1)">
       <defs>
        <path id="DejaVuSans-32" d="M 1228 531 
L 3431 531 
L 3431 0 
L 469 0 
L 469 531 
Q 828 903 1448 1529 
Q 2069 2156 2228 2338 
Q 2531 2678 2651 2914 
Q 2772 3150 2772 3378 
Q 2772 3750 2511 3984 
Q 2250 4219 1831 4219 
Q 1534 4219 1204 4116 
Q 875 4013 500 3803 
L 500 4441 
Q 881 4594 1212 4672 
Q 1544 4750 1819 4750 
Q 2544 4750 2975 4387 
Q 3406 4025 3406 3419 
Q 3406 3131 3298 2873 
Q 3191 2616 2906 2266 
Q 2828 2175 2409 1742 
Q 1991 1309 1228 531 
z
" transform="scale(0.015625)"/>
       </defs>
       <use xlink:href="#DejaVuSans-32"/>
       <use xlink:href="#DejaVuSans-30" x="63.623047"/>
      </g>
     </g>
    </g>
    <g id="text_7">
     <!-- Return [%] -->
     <g transform="translate(25.118125 184.338949)rotate(-90)scale(0.1 -0.1)">
      <defs>
       <path id="DejaVuSans-52" d="M 2841 2188 
Q 3044 2119 3236 1894 
Q 3428 1669 3622 1275 
L 4263 0 
L 3584 0 
L 2988 1197 
Q 2756 1666 2539 1819 
Q 2322 1972 1947 1972 
L 1259 1972 
L 1259 0 
L 628 0 
L 628 4666 
L 2053 4666 
Q 2853 4666 3247 4331 
Q 3641 3997 3641 3322 
Q 3641 2881 3436 2590 
Q 3231 2300 2841 2188 
z
M 1259 4147 
L 1259 2491 
L 2053 2491 
Q 2509 2491 2742 2702 
Q 2975 2913 2975 3322 
Q 2975 3731 2742 3939 
Q 2509 4147 2053 4147 
L 1259 4147 
z
" transform="scale(0.015625)"/>
       <path id="DejaVuSans-65" d="M 3597 1894 
L 3597 1613 
L 953 1613 
Q 991 1019 1311 708 
Q 1631 397 2203 397 
Q 2534 397 2845 478 
Q 3156 559 3463 722 
L 3463 178 
Q 3153 47 2828 -22 
Q 2503 -91 2169 -91 
Q 1331 -91 842 396 
Q 353 884 353 1716 
Q 353 2575 817 3079 
Q 1281 3584 2069 3584 
Q 2775 3584 3186 3129 
Q 3597 2675 3597 1894 
z
M 3022 2063 
Q 3016 2534 2758 2815 
Q 2500 3097 2075 3097 
Q 1594 3097 1305 2825 
Q 1016 2553 972 2059 
L 3022 2063 
z
" transform="scale(0.015625)"/>
       <path id="DejaVuSans-74" d="M 1172 4494 
L 1172 3500 
L 2356 3500 
L 2356 3053 
L 1172 3053 
L 1172 1153 
Q 1172 725 1289 603 
Q 1406 481 1766 481 
L 2356 481 
L 2356 0 
L 1766 0 
Q 1100 0 847 248 
Q 594 497 594 1153 
L 594 3053 
L 172 3053 
L 172 3500 
L 594 3500 
L 594 4494 
L 1172 4494 
z
" transform="scale(0.015625)"/>
       <path id="DejaVuSans-75" d="M 544 1381 
L 544 3500 
L 1119 3500 
L 1119 1403 
Q 1119 906 1312 657 
Q 1506 409 1894 409 
Q 2359 409 2629 706 
Q 2900 1003 2900 1516 
L 2900 3500 
L 3475 3500 
L 3475 0 
L 2900 0 
L 2900 538 
Q 2691 219 2414 64 
Q 2138 -91 1772 -91 
Q 1169 -91 856 284 
Q 544 659 544 1381 
z
M 1991 3584 
L 1991 3584 
z
" transform="scale(0.015625)"/>
       <path id="DejaVuSans-72" d="M 2631 2963 
Q 2534 3019 2420 3045 
Q 2306 3072 2169 3072 
Q 1681 3072 1420 2755 
Q 1159 2438 1159 1844 
L 1159 0 
L 581 0 
L 581 3500 
L 1159 3500 
L 1159 2956 
Q 1341 3275 1631 3429 
Q 1922 3584 2338 3584 
Q 2397 3584 2469 3576 
Q 2541 3569 2628 3553 
L 2631 2963 
z
" transform="scale(0.015625)"/>
       <path id="DejaVuSans-6e" d="M 3513 2113 
L 3513 0 
L 2938 0 
L 2938 2094 
Q 2938 2591 2744 2837 
Q 2550 3084 2163 3084 
Q 1697 3084 1428 2787 
Q 1159 2491 1159 1978 
L 1159 0 
L 581 0 
L 581 3500 
L 1159 3500 
L 1159 2956 
Q 1366 3272 1645 3428 
Q 1925 3584 2291 3584 
Q 2894 3584 3203 3211 
Q 3513 2838 3513 2113 
z
" transform="scale(0.015625)"/>
       <path id="DejaVuSans-20" transform="scale(0.015625)"/>
       <path id="DejaVuSans-5b" d="M 550 4863 
L 1875 4863 
L 1875 4416 
L 1125 4416 
L 1125 -397 
L 1875 -397 
L 1875 -844 
L 550 -844 
L 550 4863 
z
" transform="scale(0.015625)"/>
       <path id="DejaVuSans-25" d="M 4653 2053 
Q 4381 2053 4226 1822 
Q 4072 1591 4072 1178 
Q 4072 772 4226 539 
Q 4381 306 4653 306 
Q 4919 306 5073 539 
Q 5228 772 5228 1178 
Q 5228 1588 5073 1820 
Q 4919 2053 4653 2053 
z
M 4653 2450 
Q 5147 2450 5437 2106 
Q 5728 1763 5728 1178 
Q 5728 594 5436 251 
Q 5144 -91 4653 -91 
Q 4153 -91 3862 251 
Q 3572 594 3572 1178 
Q 3572 1766 3864 2108 
Q 4156 2450 4653 2450 
z
M 1428 4353 
Q 1159 4353 1004 4120 
Q 850 3888 850 3481 
Q 850 3069 1003 2837 
Q 1156 2606 1428 2606 
Q 1700 2606 1854 2837 
Q 2009 3069 2009 3481 
Q 2009 3884 1853 4118 
Q 1697 4353 1428 4353 
z
M 4250 4750 
L 4750 4750 
L 1831 -91 
L 1331 -91 
L 4250 4750 
z
M 1428 4750 
Q 1922 4750 2215 4408 
Q 2509 4066 2509 3481 
Q 2509 2891 2217 2550 
Q 1925 2209 1428 2209 
Q 931 2209 642 2551 
Q 353 2894 353 3481 
Q 353 4063 643 4406 
Q 934 4750 1428 4750 
z
" transform="scale(0.015625)"/>
       <path id="DejaVuSans-5d" d="M 1947 4863 
L 1947 -844 
L 622 -844 
L 622 -397 
L 1369 -397 
L 1369 4416 
L 622 4416 
L 622 4863 
L 1947 4863 
z
" transform="scale(0.015625)"/>
      </defs>
      <use xlink:href="#DejaVuSans-52"/>
      <use xlink:href="#DejaVuSans-65" x="64.982422"/>
      <use xlink:href="#DejaVuSans-74" x="126.505859"/>
      <use xlink:href="#DejaVuSans-75" x="165.714844"/>
      <use xlink:href="#DejaVuSans-72" x="229.09375"/>
      <use xlink:href="#DejaVuSans-6e" x="268.457031"/>
      <use xlink:href="#DejaVuSans-20" x="331.835938"/>
      <use xlink:href="#DejaVuSans-5b" x="363.623047"/>
      <use xlink:href="#DejaVuSans-25" x="402.636719"/>
      <use xlink:href="#DejaVuSans-5d" x="497.65625"/>
     </g>
    </g>
   </g>
   <g id="line2d_14">
    <path d="M 76.052657 201.861561 
L 77.333137 198.186734 
L 78.613616 192.940722 
L 79.894096 193.569196 
L 85.016015 185.067339 
L 86.296494 191.360808 
L 87.576974 187.555049 
L 88.857453 190.83708 
L 90.137933 198.483513 
L 93.979372 194.660297 
L 95.259852 204.148508 
L 96.540331 220.872899 
L 97.820811 219.275528 
L 99.10129 225.883233 
L 102.942729 226.520436 
L 104.223209 231.687889 
L 105.503689 223.255863 
L 106.784168 216.901293 
L 108.064648 205.387998 
L 111.906087 205.702235 
L 113.186566 203.092323 
L 114.467046 197.051989 
L 115.747526 196.371142 
L 117.028005 202.079781 
L 120.869444 197.444785 
L 122.149924 203.328 
L 123.430403 199.74919 
L 124.710883 189.632505 
L 125.991363 197.34004 
L 129.832801 193.150213 
L 131.113281 189.257166 
L 132.393761 190.749792 
L 133.67424 184.238103 
L 134.95472 184.84039 
L 138.796159 182.326495 
L 141.357118 168.980151 
L 142.637598 168.456423 
L 143.918077 160.530667 
L 147.759516 156.192451 
L 149.039996 174.261078 
L 150.320475 164.668121 
L 151.600955 164.82524 
L 152.881435 161.132955 
L 156.722874 157.00423 
L 159.283833 172.139979 
L 160.564312 163.131851 
L 161.844792 161.674141 
L 165.686231 153.879318 
L 166.966711 154.44669 
L 168.24719 148.572204 
L 169.52767 143.544412 
L 170.808149 140.175093 
L 174.649588 133.794336 
L 175.930068 130.521034 
L 177.210548 128.775273 
L 178.491027 122.2985 
L 179.771507 120.945535 
L 183.612946 120.221044 
L 184.893425 123.930786 
L 186.173905 117.593674 
L 187.454385 109.379868 
L 188.734864 117.584945 
L 192.576303 103.130043 
L 193.856783 112.173086 
L 195.137262 107.555547 
L 196.417742 116.947742 
L 197.698222 121.27723 
L 201.53966 118.283249 
L 202.82014 129.569595 
L 204.10062 126.654174 
L 205.381099 124.48943 
L 211.783497 126.540699 
L 213.063977 116.30181 
L 214.344457 113.255457 
L 215.624936 115.097235 
L 219.466375 122.342144 
L 220.746855 123.651465 
L 222.027334 122.717482 
L 223.307814 126.235191 
L 224.588294 137.722299 
L 229.710212 129.82273 
L 230.990692 134.030014 
L 232.271171 130.049679 
L 233.551651 121.504178 
L 237.39309 122.979347 
L 238.67357 122.66511 
L 239.954049 128.670528 
L 241.234529 132.022389 
L 242.515008 157.95567 
L 246.356447 172.218538 
L 247.636927 168.482609 
L 248.917407 206.40054 
L 250.197886 213.479601 
L 251.478366 212.161551 
L 255.319805 251.737955 
L 256.600284 208.268504 
L 257.880764 228.152723 
L 260.441723 193.656484 
L 264.283162 195.07055 
L 265.563642 224.486625 
L 266.844121 215.251548 
L 268.124601 202.82173 
L 269.40508 209.455622 
L 273.246519 212.423416 
L 275.807479 228.571706 
L 277.087958 263.888452 
L 278.368438 241.918049 
L 282.209877 255.308036 
L 283.490356 276.257169 
L 284.770836 257.437865 
L 286.051316 235.546021 
L 287.331795 248.647958 
L 291.173234 238.98517 
L 292.453714 240.503983 
L 293.734193 235.170682 
L 295.014673 232.124329 
L 300.136591 232.26399 
L 301.417071 243.244827 
L 302.697551 242.2061 
L 303.97803 220.078578 
L 305.25851 207.884437 
L 309.099949 203.738254 
L 310.380428 200.089614 
L 311.660908 211.419603 
L 312.941388 204.323084 
L 314.221867 213.881126 
L 318.063306 209.970621 
L 319.343786 222.828152 
L 320.624265 224.137472 
L 323.185225 251.912531 
L 327.026664 257.760831 
L 328.307143 262.80608 
L 329.587623 231.408567 
L 330.868102 232.272719 
L 332.148582 244.449403 
L 335.990021 229.296196 
L 337.270501 232.150516 
L 338.55098 218.245529 
L 339.83146 211.821128 
L 341.111939 209.141385 
L 344.953378 216.814005 
L 346.233858 229.226366 
L 347.514338 220.349171 
L 348.794817 223.692303 
L 350.075297 222.566287 
L 353.916736 229.173993 
L 355.197215 228.606621 
L 356.477695 221.352983 
L 357.758175 228.440773 
L 359.038654 224.783404 
L 362.880093 217.590868 
L 364.160573 205.405456 
L 365.441052 197.846311 
L 366.721532 187.493947 
L 368.002012 188.977844 
L 371.84345 189.379369 
L 373.12393 184.814204 
L 374.40441 194.180212 
L 375.684889 194.538093 
L 376.965369 193.83106 
L 380.806808 188.846912 
L 382.087287 182.597087 
L 383.367767 175.229976 
L 384.648247 175.003027 
L 385.928726 172.026504 
L 389.770165 159.797448 
L 391.050645 162.70414 
L 392.331124 168.212016 
L 393.611604 179.044464 
L 394.892084 170.708455 
L 398.733523 175.919551 
L 400.014002 159.701431 
L 401.294482 150.579829 
L 402.574961 145.578224 
L 403.855441 147.673137 
L 407.69688 141.87721 
L 408.97736 143.806276 
L 410.257839 135.016369 
L 411.538319 134.047472 
L 412.818798 144.862462 
L 416.660237 154.760927 
L 417.940717 147.908815 
L 419.221197 134.42281 
L 420.501676 136.124928 
L 421.782156 135.566284 
L 425.623595 132.057304 
L 426.904074 140.096534 
L 428.184554 128.993494 
L 429.465034 120.61384 
L 430.745513 117.689691 
L 434.586952 111.48351 
L 435.867432 107.669022 
L 437.147911 99.926572 
L 438.428391 94.846407 
L 439.708871 85.375653 
L 443.550309 88.46565 
L 444.830789 102.257163 
L 446.111269 90.228869 
L 447.391748 91.442173 
L 448.672228 87.6626 
L 452.513667 83.35057 
L 453.794146 84.546416 
L 455.074626 82.425317 
L 456.355106 87.313448 
L 457.635585 92.830053 
L 461.477024 97.569794 
L 462.757504 95.221745 
L 464.037983 87.060312 
L 465.318463 95.745474 
L 466.598943 95.832762 
L 471.720861 75.014561 
L 473.001341 76.000916 
L 474.28182 76.358797 
L 475.5623 83.167265 
L 479.403739 76.865068 
L 480.684219 79.763031 
L 481.964698 66.949145 
L 483.245178 71.933293 
L 484.525657 83.647349 
L 488.367096 76.908712 
L 489.647576 74.281341 
L 490.928056 76.04456 
L 492.208535 75.066934 
L 493.489015 91.564376 
L 497.330454 119.217231 
L 498.610933 115.900285 
L 499.891413 95.588355 
L 501.171893 110.488426 
L 502.452372 117.672233 
L 506.293811 104.727415 
L 507.574291 91.67785 
L 508.85477 94.418695 
L 510.13525 85.943025 
L 511.415729 86.169974 
L 515.257168 72.500665 
L 516.537648 56.404748 
L 517.818128 57.574408 
L 519.098607 57.364916 
L 520.379087 48.531365 
L 524.220526 48.732128 
L 525.501005 59.442372 
L 526.781485 50.800855 
L 528.061965 49.055094 
L 529.342444 46.401537 
L 535.744842 38.755103 
L 537.025322 38.912222 
L 538.305802 41.356287 
L 538.305802 41.356287 
" clip-path="url(#p0819c3f088)" style="fill: none; stroke: #008000; stroke-width: 1.5; stroke-linecap: square"/>
   </g>
   <g id="line2d_15">
    <path d="M 76.052657 213.586464 
L 77.333137 212.552738 
L 78.613616 209.062429 
L 79.894096 207.748398 
L 85.016015 205.441966 
L 86.296494 205.556976 
L 87.576974 206.315143 
L 88.857453 207.595768 
L 90.137933 210.815191 
L 95.259852 217.702511 
L 96.540331 233.985488 
L 97.820811 224.890794 
L 99.10129 213.078504 
L 102.942729 234.366329 
L 104.223209 232.57814 
L 105.503689 230.230364 
L 106.784168 222.322102 
L 108.064648 209.74313 
L 111.906087 212.058364 
L 113.186566 210.190213 
L 114.467046 206.493631 
L 115.747526 204.247507 
L 117.028005 208.386879 
L 120.869444 209.424459 
L 122.149924 215.962221 
L 123.430403 218.458443 
L 124.710883 209.679459 
L 125.991363 208.882962 
L 129.832801 204.863558 
L 131.113281 210.592705 
L 132.393761 203.956594 
L 133.67424 199.934668 
L 134.95472 208.78276 
L 138.796159 197.047942 
L 140.076638 196.760292 
L 141.357118 198.271259 
L 142.637598 195.634781 
L 143.918077 199.669976 
L 147.759516 190.018836 
L 149.039996 186.010261 
L 150.320475 193.60651 
L 151.600955 183.549349 
L 152.881435 179.0884 
L 156.722874 170.733732 
L 158.003353 175.790546 
L 159.283833 179.064953 
L 160.564312 181.457934 
L 161.844792 180.117416 
L 165.686231 175.117429 
L 166.966711 173.214266 
L 168.24719 166.104427 
L 169.52767 167.639661 
L 170.808149 158.180339 
L 174.649588 155.71213 
L 175.930068 157.991288 
L 177.210548 158.403346 
L 178.491027 150.109203 
L 179.771507 149.541677 
L 183.612946 147.179857 
L 184.893425 148.694603 
L 186.173905 148.16568 
L 187.454385 136.016086 
L 188.734864 132.722755 
L 192.576303 131.269378 
L 193.856783 127.665825 
L 195.137262 128.028725 
L 196.417742 128.086765 
L 197.698222 130.152382 
L 201.53966 135.224903 
L 202.82014 134.398283 
L 204.10062 144.960981 
L 205.381099 149.228827 
L 211.783497 143.739889 
L 213.063977 139.348422 
L 214.344457 123.420906 
L 215.624936 120.753627 
L 219.466375 123.495198 
L 220.746855 117.15875 
L 222.027334 121.679684 
L 223.307814 129.823308 
L 224.588294 142.398232 
L 229.710212 147.422967 
L 230.990692 140.967124 
L 232.271171 147.942455 
L 233.551651 147.942455 
L 237.39309 130.162915 
L 273.246519 130.162915 
L 275.807479 141.071913 
L 277.087958 155.383242 
L 278.368438 155.383242 
L 282.209877 154.947126 
L 283.490356 189.371321 
L 300.136591 189.371321 
L 301.417071 186.780198 
L 302.697551 204.796027 
L 303.97803 193.581459 
L 305.25851 186.072234 
L 309.099949 179.930244 
L 310.380428 177.146784 
L 311.660908 178.684851 
L 312.941388 180.593312 
L 314.221867 179.550055 
L 318.063306 179.501195 
L 319.343786 185.516865 
L 320.624265 186.24279 
L 321.904745 195.459093 
L 323.185225 200.849037 
L 346.233858 200.849037 
L 347.514338 204.842985 
L 348.794817 200.876816 
L 350.075297 203.835334 
L 355.197215 210.5183 
L 356.477695 208.860201 
L 357.758175 210.352455 
L 359.038654 214.227756 
L 362.880093 206.019102 
L 364.160573 209.980132 
L 365.441052 209.559978 
L 366.721532 208.676915 
L 368.002012 206.265444 
L 371.84345 204.434811 
L 373.12393 197.290853 
L 374.40441 195.128476 
L 375.684889 201.206998 
L 376.965369 202.601811 
L 380.806808 200.759365 
L 382.087287 211.808731 
L 383.367767 211.537074 
L 384.648247 213.050446 
L 385.928726 215.468788 
L 389.770165 209.063573 
L 391.050645 198.939882 
L 392.331124 195.790363 
L 393.611604 207.029487 
L 394.892084 207.144634 
L 398.733523 204.83881 
L 400.014002 207.356515 
L 401.294482 202.908041 
L 402.574961 199.95835 
L 403.855441 198.945506 
L 408.97736 197.508762 
L 410.257839 198.425059 
L 411.538319 193.199733 
L 412.818798 197.474401 
L 416.660237 205.373491 
L 417.940717 204.030701 
L 419.221197 194.15512 
L 420.501676 200.323122 
L 421.782156 201.431384 
L 425.623595 202.565946 
L 426.904074 202.569658 
L 428.184554 200.222235 
L 429.465034 186.762191 
L 430.745513 185.696406 
L 434.586952 185.920858 
L 435.867432 183.461904 
L 437.147911 175.894686 
L 438.428391 170.936269 
L 439.708871 169.829351 
L 443.550309 167.040244 
L 444.830789 163.767776 
L 446.111269 165.757942 
L 447.391748 157.506902 
L 453.794146 145.713665 
L 455.074626 137.035096 
L 456.355106 129.179341 
L 457.635585 134.674333 
L 461.477024 134.055702 
L 462.757504 127.265665 
L 464.037983 118.796574 
L 465.318463 121.090326 
L 466.598943 128.923177 
L 470.440382 126.869998 
L 471.720861 121.405718 
L 473.001341 116.711827 
L 474.28182 116.711827 
L 475.5623 115.786487 
L 479.403739 114.949476 
L 480.684219 110.260827 
L 481.964698 101.293506 
L 483.245178 98.127206 
L 484.525657 99.461751 
L 488.367096 105.243544 
L 489.647576 102.602259 
L 490.928056 96.731164 
L 492.208535 97.492459 
L 493.489015 102.081938 
L 497.330454 111.565715 
L 498.610933 129.031752 
L 499.891413 129.031752 
L 501.171893 122.28695 
L 502.452372 129.144275 
L 506.293811 129.497373 
L 507.574291 129.497373 
L 508.85477 119.685096 
L 510.13525 117.775004 
L 511.415729 114.841826 
L 515.257168 108.384007 
L 516.537648 94.386206 
L 517.818128 89.491151 
L 519.098607 86.83013 
L 520.379087 80.931826 
L 524.220526 74.663618 
L 525.501005 74.117281 
L 526.781485 72.310305 
L 528.061965 69.007833 
L 529.342444 64.477943 
L 535.744842 61.594898 
L 537.025322 55.795067 
L 538.305802 47.670772 
L 538.305802 47.670772 
" clip-path="url(#p0819c3f088)" style="fill: none; stroke: #0000ff; stroke-width: 1.5; stroke-linecap: square"/>
   </g>
   <g id="line2d_16">
    <path d="M 76.052657 213.586464 
L 77.333137 212.552738 
L 78.613616 209.062429 
L 79.894096 207.748398 
L 85.016015 205.441966 
L 114.467046 205.441966 
L 115.747526 204.247507 
L 131.113281 204.247507 
L 132.393761 203.956594 
L 133.67424 199.934668 
L 134.95472 199.934668 
L 138.796159 197.047942 
L 140.076638 196.760292 
L 141.357118 196.760292 
L 142.637598 195.634781 
L 143.918077 195.634781 
L 147.759516 190.018836 
L 149.039996 186.010261 
L 150.320475 186.010261 
L 151.600955 183.549349 
L 152.881435 179.0884 
L 156.722874 170.733732 
L 166.966711 170.733732 
L 168.24719 166.104427 
L 169.52767 166.104427 
L 170.808149 158.180339 
L 174.649588 155.71213 
L 177.210548 155.71213 
L 178.491027 150.109203 
L 179.771507 149.541677 
L 183.612946 147.179857 
L 186.173905 147.179857 
L 187.454385 136.016086 
L 188.734864 132.722755 
L 192.576303 131.269378 
L 193.856783 127.665825 
L 213.063977 127.665825 
L 214.344457 123.420906 
L 215.624936 120.753627 
L 219.466375 120.753627 
L 220.746855 117.15875 
L 471.720861 117.15875 
L 473.001341 116.711827 
L 474.28182 116.711827 
L 475.5623 115.786487 
L 479.403739 114.949476 
L 480.684219 110.260827 
L 481.964698 101.293506 
L 483.245178 98.127206 
L 489.647576 98.127206 
L 490.928056 96.731164 
L 515.257168 96.731164 
L 516.537648 94.386206 
L 517.818128 89.491151 
L 519.098607 86.83013 
L 520.379087 80.931826 
L 524.220526 74.663618 
L 525.501005 74.117281 
L 526.781485 72.310305 
L 528.061965 69.007833 
L 529.342444 64.477943 
L 535.744842 61.594898 
L 537.025322 55.795067 
L 538.305802 47.670772 
L 538.305802 47.670772 
" clip-path="url(#p0819c3f088)" style="fill: none; stroke: #ff0000; stroke-width: 1.5; stroke-linecap: square"/>
   </g>
   <g id="patch_3">
    <path d="M 52.94 288.132273 
L 52.94 26.88 
" style="fill: none; stroke: #000000; stroke-width: 0.8; stroke-linejoin: miter; stroke-linecap: square"/>
   </g>
   <g id="patch_4">
    <path d="M 561.418459 288.132273 
L 561.418459 26.88 
" style="fill: none; stroke: #000000; stroke-width: 0.8; stroke-linejoin: miter; stroke-linecap: square"/>
   </g>
   <g id="patch_5">
    <path d="M 52.94 288.132273 
L 561.418459 288.132273 
" style="fill: none; stroke: #000000; stroke-width: 0.8; stroke-linejoin: miter; stroke-linecap: square"/>
   </g>
   <g id="patch_6">
    <path d="M 52.94 26.88 
L 561.418459 26.88 
" style="fill: none; stroke: #000000; stroke-width: 0.8; stroke-linejoin: miter; stroke-linecap: square"/>
   </g>
   <g id="text_8">
    <!-- Performance of AVAN-strategy year 2006 -->
    <g transform="translate(183.866104 20.88)scale(0.12 -0.12)">
     <defs>
      <path id="DejaVuSans-50" d="M 1259 4147 
L 1259 2394 
L 2053 2394 
Q 2494 2394 2734 2622 
Q 2975 2850 2975 3272 
Q 2975 3691 2734 3919 
Q 2494 4147 2053 4147 
L 1259 4147 
z
M 628 4666 
L 2053 4666 
Q 2838 4666 3239 4311 
Q 3641 3956 3641 3272 
Q 3641 2581 3239 2228 
Q 2838 1875 2053 1875 
L 1259 1875 
L 1259 0 
L 628 0 
L 628 4666 
z
" transform="scale(0.015625)"/>
      <path id="DejaVuSans-66" d="M 2375 4863 
L 2375 4384 
L 1825 4384 
Q 1516 4384 1395 4259 
Q 1275 4134 1275 3809 
L 1275 3500 
L 2222 3500 
L 2222 3053 
L 1275 3053 
L 1275 0 
L 697 0 
L 697 3053 
L 147 3053 
L 147 3500 
L 697 3500 
L 697 3744 
Q 697 4328 969 4595 
Q 1241 4863 1831 4863 
L 2375 4863 
z
" transform="scale(0.015625)"/>
      <path id="DejaVuSans-6f" d="M 1959 3097 
Q 1497 3097 1228 2736 
Q 959 2375 959 1747 
Q 959 1119 1226 758 
Q 1494 397 1959 397 
Q 2419 397 2687 759 
Q 2956 1122 2956 1747 
Q 2956 2369 2687 2733 
Q 2419 3097 1959 3097 
z
M 1959 3584 
Q 2709 3584 3137 3096 
Q 3566 2609 3566 1747 
Q 3566 888 3137 398 
Q 2709 -91 1959 -91 
Q 1206 -91 779 398 
Q 353 888 353 1747 
Q 353 2609 779 3096 
Q 1206 3584 1959 3584 
z
" transform="scale(0.015625)"/>
      <path id="DejaVuSans-6d" d="M 3328 2828 
Q 3544 3216 3844 3400 
Q 4144 3584 4550 3584 
Q 5097 3584 5394 3201 
Q 5691 2819 5691 2113 
L 5691 0 
L 5113 0 
L 5113 2094 
Q 5113 2597 4934 2840 
Q 4756 3084 4391 3084 
Q 3944 3084 3684 2787 
Q 3425 2491 3425 1978 
L 3425 0 
L 2847 0 
L 2847 2094 
Q 2847 2600 2669 2842 
Q 2491 3084 2119 3084 
Q 1678 3084 1418 2786 
Q 1159 2488 1159 1978 
L 1159 0 
L 581 0 
L 581 3500 
L 1159 3500 
L 1159 2956 
Q 1356 3278 1631 3431 
Q 1906 3584 2284 3584 
Q 2666 3584 2933 3390 
Q 3200 3197 3328 2828 
z
" transform="scale(0.015625)"/>
      <path id="DejaVuSans-61" d="M 2194 1759 
Q 1497 1759 1228 1600 
Q 959 1441 959 1056 
Q 959 750 1161 570 
Q 1363 391 1709 391 
Q 2188 391 2477 730 
Q 2766 1069 2766 1631 
L 2766 1759 
L 2194 1759 
z
M 3341 1997 
L 3341 0 
L 2766 0 
L 2766 531 
Q 2569 213 2275 61 
Q 1981 -91 1556 -91 
Q 1019 -91 701 211 
Q 384 513 384 1019 
Q 384 1609 779 1909 
Q 1175 2209 1959 2209 
L 2766 2209 
L 2766 2266 
Q 2766 2663 2505 2880 
Q 2244 3097 1772 3097 
Q 1472 3097 1187 3025 
Q 903 2953 641 2809 
L 641 3341 
Q 956 3463 1253 3523 
Q 1550 3584 1831 3584 
Q 2591 3584 2966 3190 
Q 3341 2797 3341 1997 
z
" transform="scale(0.015625)"/>
      <path id="DejaVuSans-63" d="M 3122 3366 
L 3122 2828 
Q 2878 2963 2633 3030 
Q 2388 3097 2138 3097 
Q 1578 3097 1268 2742 
Q 959 2388 959 1747 
Q 959 1106 1268 751 
Q 1578 397 2138 397 
Q 2388 397 2633 464 
Q 2878 531 3122 666 
L 3122 134 
Q 2881 22 2623 -34 
Q 2366 -91 2075 -91 
Q 1284 -91 818 406 
Q 353 903 353 1747 
Q 353 2603 823 3093 
Q 1294 3584 2113 3584 
Q 2378 3584 2631 3529 
Q 2884 3475 3122 3366 
z
" transform="scale(0.015625)"/>
      <path id="DejaVuSans-41" d="M 2188 4044 
L 1331 1722 
L 3047 1722 
L 2188 4044 
z
M 1831 4666 
L 2547 4666 
L 4325 0 
L 3669 0 
L 3244 1197 
L 1141 1197 
L 716 0 
L 50 0 
L 1831 4666 
z
" transform="scale(0.015625)"/>
      <path id="DejaVuSans-56" d="M 1831 0 
L 50 4666 
L 709 4666 
L 2188 738 
L 3669 4666 
L 4325 4666 
L 2547 0 
L 1831 0 
z
" transform="scale(0.015625)"/>
      <path id="DejaVuSans-4e" d="M 628 4666 
L 1478 4666 
L 3547 763 
L 3547 4666 
L 4159 4666 
L 4159 0 
L 3309 0 
L 1241 3903 
L 1241 0 
L 628 0 
L 628 4666 
z
" transform="scale(0.015625)"/>
      <path id="DejaVuSans-2d" d="M 313 2009 
L 1997 2009 
L 1997 1497 
L 313 1497 
L 313 2009 
z
" transform="scale(0.015625)"/>
      <path id="DejaVuSans-73" d="M 2834 3397 
L 2834 2853 
Q 2591 2978 2328 3040 
Q 2066 3103 1784 3103 
Q 1356 3103 1142 2972 
Q 928 2841 928 2578 
Q 928 2378 1081 2264 
Q 1234 2150 1697 2047 
L 1894 2003 
Q 2506 1872 2764 1633 
Q 3022 1394 3022 966 
Q 3022 478 2636 193 
Q 2250 -91 1575 -91 
Q 1294 -91 989 -36 
Q 684 19 347 128 
L 347 722 
Q 666 556 975 473 
Q 1284 391 1588 391 
Q 1994 391 2212 530 
Q 2431 669 2431 922 
Q 2431 1156 2273 1281 
Q 2116 1406 1581 1522 
L 1381 1569 
Q 847 1681 609 1914 
Q 372 2147 372 2553 
Q 372 3047 722 3315 
Q 1072 3584 1716 3584 
Q 2034 3584 2315 3537 
Q 2597 3491 2834 3397 
z
" transform="scale(0.015625)"/>
      <path id="DejaVuSans-67" d="M 2906 1791 
Q 2906 2416 2648 2759 
Q 2391 3103 1925 3103 
Q 1463 3103 1205 2759 
Q 947 2416 947 1791 
Q 947 1169 1205 825 
Q 1463 481 1925 481 
Q 2391 481 2648 825 
Q 2906 1169 2906 1791 
z
M 3481 434 
Q 3481 -459 3084 -895 
Q 2688 -1331 1869 -1331 
Q 1566 -1331 1297 -1286 
Q 1028 -1241 775 -1147 
L 775 -588 
Q 1028 -725 1275 -790 
Q 1522 -856 1778 -856 
Q 2344 -856 2625 -561 
Q 2906 -266 2906 331 
L 2906 616 
Q 2728 306 2450 153 
Q 2172 0 1784 0 
Q 1141 0 747 490 
Q 353 981 353 1791 
Q 353 2603 747 3093 
Q 1141 3584 1784 3584 
Q 2172 3584 2450 3431 
Q 2728 3278 2906 2969 
L 2906 3500 
L 3481 3500 
L 3481 434 
z
" transform="scale(0.015625)"/>
      <path id="DejaVuSans-79" d="M 2059 -325 
Q 1816 -950 1584 -1140 
Q 1353 -1331 966 -1331 
L 506 -1331 
L 506 -850 
L 844 -850 
Q 1081 -850 1212 -737 
Q 1344 -625 1503 -206 
L 1606 56 
L 191 3500 
L 800 3500 
L 1894 763 
L 2988 3500 
L 3597 3500 
L 2059 -325 
z
" transform="scale(0.015625)"/>
      <path id="DejaVuSans-36" d="M 2113 2584 
Q 1688 2584 1439 2293 
Q 1191 2003 1191 1497 
Q 1191 994 1439 701 
Q 1688 409 2113 409 
Q 2538 409 2786 701 
Q 3034 994 3034 1497 
Q 3034 2003 2786 2293 
Q 2538 2584 2113 2584 
z
M 3366 4563 
L 3366 3988 
Q 3128 4100 2886 4159 
Q 2644 4219 2406 4219 
Q 1781 4219 1451 3797 
Q 1122 3375 1075 2522 
Q 1259 2794 1537 2939 
Q 1816 3084 2150 3084 
Q 2853 3084 3261 2657 
Q 3669 2231 3669 1497 
Q 3669 778 3244 343 
Q 2819 -91 2113 -91 
Q 1303 -91 875 529 
Q 447 1150 447 2328 
Q 447 3434 972 4092 
Q 1497 4750 2381 4750 
Q 2619 4750 2861 4703 
Q 3103 4656 3366 4563 
z
" transform="scale(0.015625)"/>
     </defs>
     <use xlink:href="#DejaVuSans-50"/>
     <use xlink:href="#DejaVuSans-65" x="56.677734"/>
     <use xlink:href="#DejaVuSans-72" x="118.201172"/>
     <use xlink:href="#DejaVuSans-66" x="159.314453"/>
     <use xlink:href="#DejaVuSans-6f" x="194.519531"/>
     <use xlink:href="#DejaVuSans-72" x="255.701172"/>
     <use xlink:href="#DejaVuSans-6d" x="295.064453"/>
     <use xlink:href="#DejaVuSans-61" x="392.476562"/>
     <use xlink:href="#DejaVuSans-6e" x="453.755859"/>
     <use xlink:href="#DejaVuSans-63" x="517.134766"/>
     <use xlink:href="#DejaVuSans-65" x="572.115234"/>
     <use xlink:href="#DejaVuSans-20" x="633.638672"/>
     <use xlink:href="#DejaVuSans-6f" x="665.425781"/>
     <use xlink:href="#DejaVuSans-66" x="726.607422"/>
     <use xlink:href="#DejaVuSans-20" x="761.8125"/>
     <use xlink:href="#DejaVuSans-41" x="793.599609"/>
     <use xlink:href="#DejaVuSans-56" x="855.632812"/>
     <use xlink:href="#DejaVuSans-41" x="917.666016"/>
     <use xlink:href="#DejaVuSans-4e" x="986.074219"/>
     <use xlink:href="#DejaVuSans-2d" x="1060.878906"/>
     <use xlink:href="#DejaVuSans-73" x="1096.962891"/>
     <use xlink:href="#DejaVuSans-74" x="1149.0625"/>
     <use xlink:href="#DejaVuSans-72" x="1188.271484"/>
     <use xlink:href="#DejaVuSans-61" x="1229.384766"/>
     <use xlink:href="#DejaVuSans-74" x="1290.664062"/>
     <use xlink:href="#DejaVuSans-65" x="1329.873047"/>
     <use xlink:href="#DejaVuSans-67" x="1391.396484"/>
     <use xlink:href="#DejaVuSans-79" x="1454.873047"/>
     <use xlink:href="#DejaVuSans-20" x="1514.052734"/>
     <use xlink:href="#DejaVuSans-79" x="1545.839844"/>
     <use xlink:href="#DejaVuSans-65" x="1605.019531"/>
     <use xlink:href="#DejaVuSans-61" x="1666.542969"/>
     <use xlink:href="#DejaVuSans-72" x="1727.822266"/>
     <use xlink:href="#DejaVuSans-20" x="1768.935547"/>
     <use xlink:href="#DejaVuSans-32" x="1800.722656"/>
     <use xlink:href="#DejaVuSans-30" x="1864.345703"/>
     <use xlink:href="#DejaVuSans-30" x="1927.96875"/>
     <use xlink:href="#DejaVuSans-36" x="1991.591797"/>
    </g>
   </g>
   <g id="legend_1">
    <g id="patch_7">
     <path d="M 59.94 78.914375 
L 187.361875 78.914375 
Q 189.361875 78.914375 189.361875 76.914375 
L 189.361875 33.88 
Q 189.361875 31.88 187.361875 31.88 
L 59.94 31.88 
Q 57.94 31.88 57.94 33.88 
L 57.94 76.914375 
Q 57.94 78.914375 59.94 78.914375 
z
" style="fill: #ffffff; opacity: 0.8; stroke: #cccccc; stroke-linejoin: miter"/>
    </g>
    <g id="line2d_17">
     <path d="M 61.94 39.978438 
L 71.94 39.978438 
L 81.94 39.978438 
" style="fill: none; stroke: #008000; stroke-width: 1.5; stroke-linecap: square"/>
    </g>
    <g id="text_9">
     <!-- 19.5% return omx -->
     <g transform="translate(89.94 43.478438)scale(0.1 -0.1)">
      <defs>
       <path id="DejaVuSans-39" d="M 703 97 
L 703 672 
Q 941 559 1184 500 
Q 1428 441 1663 441 
Q 2288 441 2617 861 
Q 2947 1281 2994 2138 
Q 2813 1869 2534 1725 
Q 2256 1581 1919 1581 
Q 1219 1581 811 2004 
Q 403 2428 403 3163 
Q 403 3881 828 4315 
Q 1253 4750 1959 4750 
Q 2769 4750 3195 4129 
Q 3622 3509 3622 2328 
Q 3622 1225 3098 567 
Q 2575 -91 1691 -91 
Q 1453 -91 1209 -44 
Q 966 3 703 97 
z
M 1959 2075 
Q 2384 2075 2632 2365 
Q 2881 2656 2881 3163 
Q 2881 3666 2632 3958 
Q 2384 4250 1959 4250 
Q 1534 4250 1286 3958 
Q 1038 3666 1038 3163 
Q 1038 2656 1286 2365 
Q 1534 2075 1959 2075 
z
" transform="scale(0.015625)"/>
       <path id="DejaVuSans-2e" d="M 684 794 
L 1344 794 
L 1344 0 
L 684 0 
L 684 794 
z
" transform="scale(0.015625)"/>
       <path id="DejaVuSans-78" d="M 3513 3500 
L 2247 1797 
L 3578 0 
L 2900 0 
L 1881 1375 
L 863 0 
L 184 0 
L 1544 1831 
L 300 3500 
L 978 3500 
L 1906 2253 
L 2834 3500 
L 3513 3500 
z
" transform="scale(0.015625)"/>
      </defs>
      <use xlink:href="#DejaVuSans-31"/>
      <use xlink:href="#DejaVuSans-39" x="63.623047"/>
      <use xlink:href="#DejaVuSans-2e" x="127.246094"/>
      <use xlink:href="#DejaVuSans-35" x="159.033203"/>
      <use xlink:href="#DejaVuSans-25" x="222.65625"/>
      <use xlink:href="#DejaVuSans-20" x="317.675781"/>
      <use xlink:href="#DejaVuSans-72" x="349.462891"/>
      <use xlink:href="#DejaVuSans-65" x="388.326172"/>
      <use xlink:href="#DejaVuSans-74" x="449.849609"/>
      <use xlink:href="#DejaVuSans-75" x="489.058594"/>
      <use xlink:href="#DejaVuSans-72" x="552.4375"/>
      <use xlink:href="#DejaVuSans-6e" x="591.800781"/>
      <use xlink:href="#DejaVuSans-20" x="655.179688"/>
      <use xlink:href="#DejaVuSans-6f" x="686.966797"/>
      <use xlink:href="#DejaVuSans-6d" x="748.148438"/>
      <use xlink:href="#DejaVuSans-78" x="845.560547"/>
     </g>
    </g>
    <g id="line2d_18">
     <path d="M 61.94 54.656563 
L 71.94 54.656563 
L 81.94 54.656563 
" style="fill: none; stroke: #0000ff; stroke-width: 1.5; stroke-linecap: square"/>
    </g>
    <g id="text_10">
     <!-- 18.8% return AVAN -->
     <g transform="translate(89.94 58.156563)scale(0.1 -0.1)">
      <defs>
       <path id="DejaVuSans-38" d="M 2034 2216 
Q 1584 2216 1326 1975 
Q 1069 1734 1069 1313 
Q 1069 891 1326 650 
Q 1584 409 2034 409 
Q 2484 409 2743 651 
Q 3003 894 3003 1313 
Q 3003 1734 2745 1975 
Q 2488 2216 2034 2216 
z
M 1403 2484 
Q 997 2584 770 2862 
Q 544 3141 544 3541 
Q 544 4100 942 4425 
Q 1341 4750 2034 4750 
Q 2731 4750 3128 4425 
Q 3525 4100 3525 3541 
Q 3525 3141 3298 2862 
Q 3072 2584 2669 2484 
Q 3125 2378 3379 2068 
Q 3634 1759 3634 1313 
Q 3634 634 3220 271 
Q 2806 -91 2034 -91 
Q 1263 -91 848 271 
Q 434 634 434 1313 
Q 434 1759 690 2068 
Q 947 2378 1403 2484 
z
M 1172 3481 
Q 1172 3119 1398 2916 
Q 1625 2713 2034 2713 
Q 2441 2713 2670 2916 
Q 2900 3119 2900 3481 
Q 2900 3844 2670 4047 
Q 2441 4250 2034 4250 
Q 1625 4250 1398 4047 
Q 1172 3844 1172 3481 
z
" transform="scale(0.015625)"/>
      </defs>
      <use xlink:href="#DejaVuSans-31"/>
      <use xlink:href="#DejaVuSans-38" x="63.623047"/>
      <use xlink:href="#DejaVuSans-2e" x="127.246094"/>
      <use xlink:href="#DejaVuSans-38" x="159.033203"/>
      <use xlink:href="#DejaVuSans-25" x="222.65625"/>
      <use xlink:href="#DejaVuSans-20" x="317.675781"/>
      <use xlink:href="#DejaVuSans-72" x="349.462891"/>
      <use xlink:href="#DejaVuSans-65" x="388.326172"/>
      <use xlink:href="#DejaVuSans-74" x="449.849609"/>
      <use xlink:href="#DejaVuSans-75" x="489.058594"/>
      <use xlink:href="#DejaVuSans-72" x="552.4375"/>
      <use xlink:href="#DejaVuSans-6e" x="591.800781"/>
      <use xlink:href="#DejaVuSans-20" x="655.179688"/>
      <use xlink:href="#DejaVuSans-41" x="686.966797"/>
      <use xlink:href="#DejaVuSans-56" x="749"/>
      <use xlink:href="#DejaVuSans-41" x="811.033203"/>
      <use xlink:href="#DejaVuSans-4e" x="879.441406"/>
     </g>
    </g>
    <g id="line2d_19">
     <path d="M 61.94 69.334688 
L 71.94 69.334688 
L 81.94 69.334688 
" style="fill: none; stroke: #ff0000; stroke-width: 1.5; stroke-linecap: square"/>
    </g>
    <g id="text_11">
     <!-- cummax -->
     <g transform="translate(89.94 72.834688)scale(0.1 -0.1)">
      <use xlink:href="#DejaVuSans-63"/>
      <use xlink:href="#DejaVuSans-75" x="54.980469"/>
      <use xlink:href="#DejaVuSans-6d" x="118.359375"/>
      <use xlink:href="#DejaVuSans-6d" x="215.771484"/>
      <use xlink:href="#DejaVuSans-61" x="313.183594"/>
      <use xlink:href="#DejaVuSans-78" x="374.462891"/>
     </g>
    </g>
   </g>
  </g>
  <g id="axes_2">
   <g id="patch_8">
    <path d="M 52.94 390.04 
L 561.418459 390.04 
L 561.418459 302.955909 
L 52.94 302.955909 
z
" style="fill: #ffffff"/>
   </g>
   <g id="matplotlib.axis_3">
    <g id="xtick_8">
     <g id="line2d_20">
      <g>
       <use xlink:href="#m9c26172d94" x="74.772178" y="390.04" style="stroke: #000000; stroke-width: 0.8"/>
      </g>
     </g>
     <g id="text_12">
      <!-- 2006-01 -->
      <g transform="translate(53.880771 404.638438)scale(0.1 -0.1)">
       <use xlink:href="#DejaVuSans-32"/>
       <use xlink:href="#DejaVuSans-30" x="63.623047"/>
       <use xlink:href="#DejaVuSans-30" x="127.246094"/>
       <use xlink:href="#DejaVuSans-36" x="190.869141"/>
       <use xlink:href="#DejaVuSans-2d" x="254.492188"/>
       <use xlink:href="#DejaVuSans-30" x="290.576172"/>
       <use xlink:href="#DejaVuSans-31" x="354.199219"/>
      </g>
     </g>
    </g>
    <g id="xtick_9">
     <g id="line2d_21">
      <g>
       <use xlink:href="#m9c26172d94" x="150.320475" y="390.04" style="stroke: #000000; stroke-width: 0.8"/>
      </g>
     </g>
     <g id="text_13">
      <!-- 2006-03 -->
      <g transform="translate(129.429069 404.638438)scale(0.1 -0.1)">
       <defs>
        <path id="DejaVuSans-33" d="M 2597 2516 
Q 3050 2419 3304 2112 
Q 3559 1806 3559 1356 
Q 3559 666 3084 287 
Q 2609 -91 1734 -91 
Q 1441 -91 1130 -33 
Q 819 25 488 141 
L 488 750 
Q 750 597 1062 519 
Q 1375 441 1716 441 
Q 2309 441 2620 675 
Q 2931 909 2931 1356 
Q 2931 1769 2642 2001 
Q 2353 2234 1838 2234 
L 1294 2234 
L 1294 2753 
L 1863 2753 
Q 2328 2753 2575 2939 
Q 2822 3125 2822 3475 
Q 2822 3834 2567 4026 
Q 2313 4219 1838 4219 
Q 1578 4219 1281 4162 
Q 984 4106 628 3988 
L 628 4550 
Q 988 4650 1302 4700 
Q 1616 4750 1894 4750 
Q 2613 4750 3031 4423 
Q 3450 4097 3450 3541 
Q 3450 3153 3228 2886 
Q 3006 2619 2597 2516 
z
" transform="scale(0.015625)"/>
       </defs>
       <use xlink:href="#DejaVuSans-32"/>
       <use xlink:href="#DejaVuSans-30" x="63.623047"/>
       <use xlink:href="#DejaVuSans-30" x="127.246094"/>
       <use xlink:href="#DejaVuSans-36" x="190.869141"/>
       <use xlink:href="#DejaVuSans-2d" x="254.492188"/>
       <use xlink:href="#DejaVuSans-30" x="290.576172"/>
       <use xlink:href="#DejaVuSans-33" x="354.199219"/>
      </g>
     </g>
    </g>
    <g id="xtick_10">
     <g id="line2d_22">
      <g>
       <use xlink:href="#m9c26172d94" x="228.429733" y="390.04" style="stroke: #000000; stroke-width: 0.8"/>
      </g>
     </g>
     <g id="text_14">
      <!-- 2006-05 -->
      <g transform="translate(207.538326 404.638438)scale(0.1 -0.1)">
       <use xlink:href="#DejaVuSans-32"/>
       <use xlink:href="#DejaVuSans-30" x="63.623047"/>
       <use xlink:href="#DejaVuSans-30" x="127.246094"/>
       <use xlink:href="#DejaVuSans-36" x="190.869141"/>
       <use xlink:href="#DejaVuSans-2d" x="254.492188"/>
       <use xlink:href="#DejaVuSans-30" x="290.576172"/>
       <use xlink:href="#DejaVuSans-35" x="354.199219"/>
      </g>
     </g>
    </g>
    <g id="xtick_11">
     <g id="line2d_23">
      <g>
       <use xlink:href="#m9c26172d94" x="306.53899" y="390.04" style="stroke: #000000; stroke-width: 0.8"/>
      </g>
     </g>
     <g id="text_15">
      <!-- 2006-07 -->
      <g transform="translate(285.647583 404.638438)scale(0.1 -0.1)">
       <defs>
        <path id="DejaVuSans-37" d="M 525 4666 
L 3525 4666 
L 3525 4397 
L 1831 0 
L 1172 0 
L 2766 4134 
L 525 4134 
L 525 4666 
z
" transform="scale(0.015625)"/>
       </defs>
       <use xlink:href="#DejaVuSans-32"/>
       <use xlink:href="#DejaVuSans-30" x="63.623047"/>
       <use xlink:href="#DejaVuSans-30" x="127.246094"/>
       <use xlink:href="#DejaVuSans-36" x="190.869141"/>
       <use xlink:href="#DejaVuSans-2d" x="254.492188"/>
       <use xlink:href="#DejaVuSans-30" x="290.576172"/>
       <use xlink:href="#DejaVuSans-37" x="354.199219"/>
      </g>
     </g>
    </g>
    <g id="xtick_12">
     <g id="line2d_24">
      <g>
       <use xlink:href="#m9c26172d94" x="385.928726" y="390.04" style="stroke: #000000; stroke-width: 0.8"/>
      </g>
     </g>
     <g id="text_16">
      <!-- 2006-09 -->
      <g transform="translate(365.03732 404.638438)scale(0.1 -0.1)">
       <use xlink:href="#DejaVuSans-32"/>
       <use xlink:href="#DejaVuSans-30" x="63.623047"/>
       <use xlink:href="#DejaVuSans-30" x="127.246094"/>
       <use xlink:href="#DejaVuSans-36" x="190.869141"/>
       <use xlink:href="#DejaVuSans-2d" x="254.492188"/>
       <use xlink:href="#DejaVuSans-30" x="290.576172"/>
       <use xlink:href="#DejaVuSans-39" x="354.199219"/>
      </g>
     </g>
    </g>
    <g id="xtick_13">
     <g id="line2d_25">
      <g>
       <use xlink:href="#m9c26172d94" x="464.037983" y="390.04" style="stroke: #000000; stroke-width: 0.8"/>
      </g>
     </g>
     <g id="text_17">
      <!-- 2006-11 -->
      <g transform="translate(443.146577 404.638438)scale(0.1 -0.1)">
       <use xlink:href="#DejaVuSans-32"/>
       <use xlink:href="#DejaVuSans-30" x="63.623047"/>
       <use xlink:href="#DejaVuSans-30" x="127.246094"/>
       <use xlink:href="#DejaVuSans-36" x="190.869141"/>
       <use xlink:href="#DejaVuSans-2d" x="254.492188"/>
       <use xlink:href="#DejaVuSans-31" x="290.576172"/>
       <use xlink:href="#DejaVuSans-31" x="354.199219"/>
      </g>
     </g>
    </g>
    <g id="xtick_14">
     <g id="line2d_26">
      <g>
       <use xlink:href="#m9c26172d94" x="542.14724" y="390.04" style="stroke: #000000; stroke-width: 0.8"/>
      </g>
     </g>
     <g id="text_18">
      <!-- 2007-01 -->
      <g transform="translate(521.255834 404.638438)scale(0.1 -0.1)">
       <use xlink:href="#DejaVuSans-32"/>
       <use xlink:href="#DejaVuSans-30" x="63.623047"/>
       <use xlink:href="#DejaVuSans-30" x="127.246094"/>
       <use xlink:href="#DejaVuSans-37" x="190.869141"/>
       <use xlink:href="#DejaVuSans-2d" x="254.492188"/>
       <use xlink:href="#DejaVuSans-30" x="290.576172"/>
       <use xlink:href="#DejaVuSans-31" x="354.199219"/>
      </g>
     </g>
    </g>
    <g id="text_19">
     <!-- Time -->
     <g transform="translate(294.945636 418.316562)scale(0.1 -0.1)">
      <defs>
       <path id="DejaVuSans-54" d="M -19 4666 
L 3928 4666 
L 3928 4134 
L 2272 4134 
L 2272 0 
L 1638 0 
L 1638 4134 
L -19 4134 
L -19 4666 
z
" transform="scale(0.015625)"/>
       <path id="DejaVuSans-69" d="M 603 3500 
L 1178 3500 
L 1178 0 
L 603 0 
L 603 3500 
z
M 603 4863 
L 1178 4863 
L 1178 4134 
L 603 4134 
L 603 4863 
z
" transform="scale(0.015625)"/>
      </defs>
      <use xlink:href="#DejaVuSans-54"/>
      <use xlink:href="#DejaVuSans-69" x="57.958984"/>
      <use xlink:href="#DejaVuSans-6d" x="85.742188"/>
      <use xlink:href="#DejaVuSans-65" x="183.154297"/>
     </g>
    </g>
   </g>
   <g id="matplotlib.axis_4">
    <g id="ytick_7">
     <g id="line2d_27">
      <g>
       <use xlink:href="#me962b676bc" x="52.94" y="381.453417" style="stroke: #000000; stroke-width: 0.8"/>
      </g>
     </g>
     <g id="text_20">
      <!-- −10 -->
      <g transform="translate(24.835313 385.252636)scale(0.1 -0.1)">
       <use xlink:href="#DejaVuSans-2212"/>
       <use xlink:href="#DejaVuSans-31" x="83.789062"/>
       <use xlink:href="#DejaVuSans-30" x="147.412109"/>
      </g>
     </g>
    </g>
    <g id="ytick_8">
     <g id="line2d_28">
      <g>
       <use xlink:href="#me962b676bc" x="52.94" y="344.183847" style="stroke: #000000; stroke-width: 0.8"/>
      </g>
     </g>
     <g id="text_21">
      <!-- −5 -->
      <g transform="translate(31.197813 347.983066)scale(0.1 -0.1)">
       <use xlink:href="#DejaVuSans-2212"/>
       <use xlink:href="#DejaVuSans-35" x="83.789062"/>
      </g>
     </g>
    </g>
    <g id="ytick_9">
     <g id="line2d_29">
      <g>
       <use xlink:href="#me962b676bc" x="52.94" y="306.914277" style="stroke: #000000; stroke-width: 0.8"/>
      </g>
     </g>
     <g id="text_22">
      <!-- 0 -->
      <g transform="translate(39.5775 310.713496)scale(0.1 -0.1)">
       <use xlink:href="#DejaVuSans-30"/>
      </g>
     </g>
    </g>
    <g id="text_23">
     <!-- DD % -->
     <g transform="translate(18.755625 360.537798)rotate(-90)scale(0.1 -0.1)">
      <defs>
       <path id="DejaVuSans-44" d="M 1259 4147 
L 1259 519 
L 2022 519 
Q 2988 519 3436 956 
Q 3884 1394 3884 2338 
Q 3884 3275 3436 3711 
Q 2988 4147 2022 4147 
L 1259 4147 
z
M 628 4666 
L 1925 4666 
Q 3281 4666 3915 4102 
Q 4550 3538 4550 2338 
Q 4550 1131 3912 565 
Q 3275 0 1925 0 
L 628 0 
L 628 4666 
z
" transform="scale(0.015625)"/>
      </defs>
      <use xlink:href="#DejaVuSans-44"/>
      <use xlink:href="#DejaVuSans-44" x="77.001953"/>
      <use xlink:href="#DejaVuSans-20" x="154.003906"/>
      <use xlink:href="#DejaVuSans-25" x="185.791016"/>
     </g>
    </g>
   </g>
   <g id="line2d_30">
    <path d="M 76.052657 306.914277 
L 86.296494 307.016658 
L 87.576974 307.691567 
L 88.857453 308.83156 
L 90.137933 311.697444 
L 95.259852 317.828435 
L 96.540331 332.323304 
L 97.820811 324.22734 
L 99.10129 313.712212 
L 102.942729 332.662323 
L 104.223209 331.070503 
L 105.503689 328.980548 
L 106.784168 321.940728 
L 108.064648 310.743111 
L 111.906087 312.804098 
L 113.186566 311.141098 
L 114.467046 307.850454 
L 115.747526 306.914277 
L 117.028005 310.593837 
L 120.869444 311.51616 
L 122.149924 317.32769 
L 123.430403 319.546625 
L 124.710883 311.742834 
L 125.991363 311.034813 
L 129.832801 307.461896 
L 131.113281 312.554634 
L 132.393761 306.914277 
L 133.67424 306.914277 
L 134.95472 314.739254 
L 138.796159 306.914277 
L 140.076638 306.914277 
L 141.357118 308.245516 
L 142.637598 306.914277 
L 143.918077 310.464764 
L 147.759516 306.914277 
L 149.039996 306.914277 
L 150.320475 313.522983 
L 151.600955 306.914277 
L 156.722874 306.914277 
L 158.003353 311.236617 
L 159.283833 314.035434 
L 160.564312 316.080847 
L 161.844792 314.935032 
L 165.686231 310.661266 
L 166.966711 309.034527 
L 168.24719 306.914277 
L 169.52767 308.219597 
L 170.808149 306.914277 
L 174.649588 306.914277 
L 175.930068 308.82941 
L 177.210548 309.175656 
L 178.491027 306.914277 
L 183.612946 306.914277 
L 184.893425 308.174964 
L 186.173905 307.734754 
L 187.454385 306.914277 
L 193.856783 306.914277 
L 195.137262 307.20987 
L 196.417742 307.257145 
L 197.698222 308.939648 
L 201.53966 313.071361 
L 202.82014 312.398056 
L 204.10062 321.001674 
L 205.381099 324.477957 
L 211.783497 320.00706 
L 213.063977 316.430085 
L 214.344457 306.914277 
L 215.624936 306.914277 
L 219.466375 309.130624 
L 220.746855 306.914277 
L 222.027334 310.554906 
L 223.307814 317.112824 
L 224.588294 327.239191 
L 229.710212 331.285521 
L 230.990692 326.086744 
L 232.271171 331.703856 
L 233.551651 331.703856 
L 237.39309 317.386304 
L 273.246519 317.386304 
L 275.807479 326.171129 
L 277.087958 337.695792 
L 278.368438 337.695792 
L 282.209877 337.344595 
L 283.490356 365.065798 
L 300.136591 365.065798 
L 301.417071 362.979212 
L 302.697551 377.487044 
L 303.97803 368.456149 
L 305.25851 362.409101 
L 309.099949 357.463064 
L 310.380428 355.221592 
L 311.660908 356.46017 
L 312.941388 357.997021 
L 314.221867 357.156904 
L 318.063306 357.117558 
L 319.343786 361.961872 
L 320.624265 362.546447 
L 321.904745 369.968174 
L 323.185225 374.308602 
L 346.233858 374.308602 
L 347.514338 377.524859 
L 348.794817 374.330972 
L 350.075297 376.713415 
L 355.197215 382.09509 
L 356.477695 380.759853 
L 357.758175 381.961538 
L 359.038654 385.082251 
L 362.880093 378.471965 
L 364.160573 381.661713 
L 365.441052 381.323371 
L 366.721532 380.612255 
L 368.002012 378.67034 
L 371.84345 377.196163 
L 373.12393 371.443259 
L 374.40441 369.701934 
L 375.684889 374.596862 
L 376.965369 375.72008 
L 380.806808 374.236391 
L 382.087287 383.134252 
L 383.367767 382.915492 
L 384.648247 384.134183 
L 385.928726 386.081632 
L 389.770165 380.923624 
L 391.050645 372.771193 
L 392.331124 370.234941 
L 393.611604 379.28561 
L 394.892084 379.378337 
L 398.733523 377.521497 
L 400.014002 379.548961 
L 401.294482 375.966682 
L 402.574961 373.591348 
L 403.855441 372.775722 
L 408.97736 371.618737 
L 410.257839 372.356615 
L 411.538319 368.148751 
L 412.818798 371.591066 
L 416.660237 377.952066 
L 417.940717 376.87074 
L 419.221197 368.918108 
L 420.501676 373.885092 
L 421.782156 374.777556 
L 425.623595 375.691199 
L 426.904074 375.694188 
L 428.184554 373.803849 
L 429.465034 362.964711 
L 430.745513 362.106453 
L 434.586952 362.2872 
L 435.867432 360.307048 
L 437.147911 354.213299 
L 438.428391 350.220373 
L 439.708871 349.328991 
L 443.550309 347.082972 
L 444.830789 344.447711 
L 446.111269 346.050357 
L 447.391748 339.405938 
L 453.794146 329.90905 
L 455.074626 322.920351 
L 456.355106 316.594249 
L 457.635585 321.01927 
L 461.477024 320.521097 
L 462.757504 315.053199 
L 464.037983 308.233187 
L 465.318463 310.080306 
L 466.598943 316.387964 
L 470.440382 314.734575 
L 471.720861 310.334285 
L 473.001341 306.914277 
L 483.245178 306.914277 
L 484.525657 307.967311 
L 488.367096 312.529486 
L 489.647576 310.445357 
L 490.928056 306.914277 
L 492.208535 307.514097 
L 493.489015 311.130123 
L 497.330454 318.602339 
L 498.610933 332.363734 
L 499.891413 332.363734 
L 501.171893 327.049541 
L 502.452372 332.45239 
L 507.574291 332.730595 
L 508.85477 324.999555 
L 510.13525 323.494604 
L 511.415729 321.183569 
L 515.257168 316.095488 
L 516.537648 306.914277 
L 538.305802 306.914277 
L 538.305802 306.914277 
" clip-path="url(#p74315969c9)" style="fill: none; stroke: #0000ff; stroke-width: 1.5; stroke-linecap: square"/>
   </g>
   <g id="patch_9">
    <path d="M 52.94 390.04 
L 52.94 302.955909 
" style="fill: none; stroke: #000000; stroke-width: 0.8; stroke-linejoin: miter; stroke-linecap: square"/>
   </g>
   <g id="patch_10">
    <path d="M 561.418459 390.04 
L 561.418459 302.955909 
" style="fill: none; stroke: #000000; stroke-width: 0.8; stroke-linejoin: miter; stroke-linecap: square"/>
   </g>
   <g id="patch_11">
    <path d="M 52.94 390.04 
L 561.418459 390.04 
" style="fill: none; stroke: #000000; stroke-width: 0.8; stroke-linejoin: miter; stroke-linecap: square"/>
   </g>
   <g id="patch_12">
    <path d="M 52.94 302.955909 
L 561.418459 302.955909 
" style="fill: none; stroke: #000000; stroke-width: 0.8; stroke-linejoin: miter; stroke-linecap: square"/>
   </g>
  </g>
 </g>
 <defs>
  <clipPath id="p0819c3f088">
   <rect x="52.94" y="26.88" width="508.478459" height="261.252273"/>
  </clipPath>
  <clipPath id="p74315969c9">
   <rect x="52.94" y="302.955909" width="508.478459" height="87.084091"/>
  </clipPath>
 </defs>
</svg>
