<?xml version="1.0" encoding="utf-8" standalone="no"?>
<!DOCTYPE svg PUBLIC "-//W3C//DTD SVG 1.1//EN"
  "http://www.w3.org/Graphics/SVG/1.1/DTD/svg11.dtd">
<svg xmlns:xlink="http://www.w3.org/1999/xlink" width="576pt" height="432pt" viewBox="0 0 576 432" xmlns="http://www.w3.org/2000/svg" version="1.1">
 <metadata>
  <rdf:RDF xmlns:dc="http://purl.org/dc/elements/1.1/" xmlns:cc="http://creativecommons.org/ns#" xmlns:rdf="http://www.w3.org/1999/02/22-rdf-syntax-ns#">
   <cc:Work>
    <dc:type rdf:resource="http://purl.org/dc/dcmitype/StillImage"/>
    <dc:date>2023-01-15T23:56:31.865209</dc:date>
    <dc:format>image/svg+xml</dc:format>
    <dc:creator>
     <cc:Agent>
      <dc:title>Matplotlib v3.5.0, https://matplotlib.org/</dc:title>
     </cc:Agent>
    </dc:creator>
   </cc:Work>
  </rdf:RDF>
 </metadata>
 <defs>
  <style type="text/css">*{stroke-linejoin: round; stroke-linecap: butt}</style>
 </defs>
 <g id="figure_1">
  <g id="patch_1">
   <path d="M 0 432 
L 576 432 
L 576 0 
L 0 0 
z
" style="fill: #ffffff"/>
  </g>
  <g id="axes_1">
   <g id="patch_2">
    <path d="M 52.94 288.132273 
L 554.673558 288.132273 
L 554.673558 26.88 
L 52.94 26.88 
z
" style="fill: #ffffff"/>
   </g>
   <g id="matplotlib.axis_1">
    <g id="xtick_1">
     <g id="line2d_1">
      <defs>
       <path id="m3d6a1f16d2" d="M 0 0 
L 0 3.5 
" style="stroke: #000000; stroke-width: 0.8"/>
      </defs>
      <g>
       <use xlink:href="#m3d6a1f16d2" x="82.063542" y="288.132273" style="stroke: #000000; stroke-width: 0.8"/>
      </g>
     </g>
    </g>
    <g id="xtick_2">
     <g id="line2d_2">
      <g>
       <use xlink:href="#m3d6a1f16d2" x="156.609701" y="288.132273" style="stroke: #000000; stroke-width: 0.8"/>
      </g>
     </g>
    </g>
    <g id="xtick_3">
     <g id="line2d_3">
      <g>
       <use xlink:href="#m3d6a1f16d2" x="233.682849" y="288.132273" style="stroke: #000000; stroke-width: 0.8"/>
      </g>
     </g>
    </g>
    <g id="xtick_4">
     <g id="line2d_4">
      <g>
       <use xlink:href="#m3d6a1f16d2" x="310.755997" y="288.132273" style="stroke: #000000; stroke-width: 0.8"/>
      </g>
     </g>
    </g>
    <g id="xtick_5">
     <g id="line2d_5">
      <g>
       <use xlink:href="#m3d6a1f16d2" x="389.09264" y="288.132273" style="stroke: #000000; stroke-width: 0.8"/>
      </g>
     </g>
    </g>
    <g id="xtick_6">
     <g id="line2d_6">
      <g>
       <use xlink:href="#m3d6a1f16d2" x="466.165788" y="288.132273" style="stroke: #000000; stroke-width: 0.8"/>
      </g>
     </g>
    </g>
    <g id="xtick_7">
     <g id="line2d_7">
      <g>
       <use xlink:href="#m3d6a1f16d2" x="543.238936" y="288.132273" style="stroke: #000000; stroke-width: 0.8"/>
      </g>
     </g>
    </g>
   </g>
   <g id="matplotlib.axis_2">
    <g id="ytick_1">
     <g id="line2d_8">
      <defs>
       <path id="m6ff20748db" d="M 0 0 
L -3.5 0 
" style="stroke: #000000; stroke-width: 0.8"/>
      </defs>
      <g>
       <use xlink:href="#m6ff20748db" x="52.94" y="256.446394" style="stroke: #000000; stroke-width: 0.8"/>
      </g>
     </g>
     <g id="text_1">
      <!-- −20 -->
      <g transform="translate(24.835313 260.245613)scale(0.1 -0.1)">
       <defs>
        <path id="DejaVuSans-2212" d="M 678 2272 
L 4684 2272 
L 4684 1741 
L 678 1741 
L 678 2272 
z
" transform="scale(0.015625)"/>
        <path id="DejaVuSans-32" d="M 1228 531 
L 3431 531 
L 3431 0 
L 469 0 
L 469 531 
Q 828 903 1448 1529 
Q 2069 2156 2228 2338 
Q 2531 2678 2651 2914 
Q 2772 3150 2772 3378 
Q 2772 3750 2511 3984 
Q 2250 4219 1831 4219 
Q 1534 4219 1204 4116 
Q 875 4013 500 3803 
L 500 4441 
Q 881 4594 1212 4672 
Q 1544 4750 1819 4750 
Q 2544 4750 2975 4387 
Q 3406 4025 3406 3419 
Q 3406 3131 3298 2873 
Q 3191 2616 2906 2266 
Q 2828 2175 2409 1742 
Q 1991 1309 1228 531 
z
" transform="scale(0.015625)"/>
        <path id="DejaVuSans-30" d="M 2034 4250 
Q 1547 4250 1301 3770 
Q 1056 3291 1056 2328 
Q 1056 1369 1301 889 
Q 1547 409 2034 409 
Q 2525 409 2770 889 
Q 3016 1369 3016 2328 
Q 3016 3291 2770 3770 
Q 2525 4250 2034 4250 
z
M 2034 4750 
Q 2819 4750 3233 4129 
Q 3647 3509 3647 2328 
Q 3647 1150 3233 529 
Q 2819 -91 2034 -91 
Q 1250 -91 836 529 
Q 422 1150 422 2328 
Q 422 3509 836 4129 
Q 1250 4750 2034 4750 
z
" transform="scale(0.015625)"/>
       </defs>
       <use xlink:href="#DejaVuSans-2212"/>
       <use xlink:href="#DejaVuSans-32" x="83.789062"/>
       <use xlink:href="#DejaVuSans-30" x="147.412109"/>
      </g>
     </g>
    </g>
    <g id="ytick_2">
     <g id="line2d_9">
      <g>
       <use xlink:href="#m6ff20748db" x="52.94" y="215.029878" style="stroke: #000000; stroke-width: 0.8"/>
      </g>
     </g>
     <g id="text_2">
      <!-- −10 -->
      <g transform="translate(24.835313 218.829097)scale(0.1 -0.1)">
       <defs>
        <path id="DejaVuSans-31" d="M 794 531 
L 1825 531 
L 1825 4091 
L 703 3866 
L 703 4441 
L 1819 4666 
L 2450 4666 
L 2450 531 
L 3481 531 
L 3481 0 
L 794 0 
L 794 531 
z
" transform="scale(0.015625)"/>
       </defs>
       <use xlink:href="#DejaVuSans-2212"/>
       <use xlink:href="#DejaVuSans-31" x="83.789062"/>
       <use xlink:href="#DejaVuSans-30" x="147.412109"/>
      </g>
     </g>
    </g>
    <g id="ytick_3">
     <g id="line2d_10">
      <g>
       <use xlink:href="#m6ff20748db" x="52.94" y="173.613363" style="stroke: #000000; stroke-width: 0.8"/>
      </g>
     </g>
     <g id="text_3">
      <!-- 0 -->
      <g transform="translate(39.5775 177.412581)scale(0.1 -0.1)">
       <use xlink:href="#DejaVuSans-30"/>
      </g>
     </g>
    </g>
    <g id="ytick_4">
     <g id="line2d_11">
      <g>
       <use xlink:href="#m6ff20748db" x="52.94" y="132.196847" style="stroke: #000000; stroke-width: 0.8"/>
      </g>
     </g>
     <g id="text_4">
      <!-- 10 -->
      <g transform="translate(33.215 135.996066)scale(0.1 -0.1)">
       <use xlink:href="#DejaVuSans-31"/>
       <use xlink:href="#DejaVuSans-30" x="63.623047"/>
      </g>
     </g>
    </g>
    <g id="ytick_5">
     <g id="line2d_12">
      <g>
       <use xlink:href="#m6ff20748db" x="52.94" y="90.780332" style="stroke: #000000; stroke-width: 0.8"/>
      </g>
     </g>
     <g id="text_5">
      <!-- 20 -->
      <g transform="translate(33.215 94.57955)scale(0.1 -0.1)">
       <use xlink:href="#DejaVuSans-32"/>
       <use xlink:href="#DejaVuSans-30" x="63.623047"/>
      </g>
     </g>
    </g>
    <g id="ytick_6">
     <g id="line2d_13">
      <g>
       <use xlink:href="#m6ff20748db" x="52.94" y="49.363816" style="stroke: #000000; stroke-width: 0.8"/>
      </g>
     </g>
     <g id="text_6">
      <!-- 30 -->
      <g transform="translate(33.215 53.163035)scale(0.1 -0.1)">
       <defs>
        <path id="DejaVuSans-33" d="M 2597 2516 
Q 3050 2419 3304 2112 
Q 3559 1806 3559 1356 
Q 3559 666 3084 287 
Q 2609 -91 1734 -91 
Q 1441 -91 1130 -33 
Q 819 25 488 141 
L 488 750 
Q 750 597 1062 519 
Q 1375 441 1716 441 
Q 2309 441 2620 675 
Q 2931 909 2931 1356 
Q 2931 1769 2642 2001 
Q 2353 2234 1838 2234 
L 1294 2234 
L 1294 2753 
L 1863 2753 
Q 2328 2753 2575 2939 
Q 2822 3125 2822 3475 
Q 2822 3834 2567 4026 
Q 2313 4219 1838 4219 
Q 1578 4219 1281 4162 
Q 984 4106 628 3988 
L 628 4550 
Q 988 4650 1302 4700 
Q 1616 4750 1894 4750 
Q 2613 4750 3031 4423 
Q 3450 4097 3450 3541 
Q 3450 3153 3228 2886 
Q 3006 2619 2597 2516 
z
" transform="scale(0.015625)"/>
       </defs>
       <use xlink:href="#DejaVuSans-33"/>
       <use xlink:href="#DejaVuSans-30" x="63.623047"/>
      </g>
     </g>
    </g>
    <g id="text_7">
     <!-- Return [%] -->
     <g transform="translate(18.755625 184.338949)rotate(-90)scale(0.1 -0.1)">
      <defs>
       <path id="DejaVuSans-52" d="M 2841 2188 
Q 3044 2119 3236 1894 
Q 3428 1669 3622 1275 
L 4263 0 
L 3584 0 
L 2988 1197 
Q 2756 1666 2539 1819 
Q 2322 1972 1947 1972 
L 1259 1972 
L 1259 0 
L 628 0 
L 628 4666 
L 2053 4666 
Q 2853 4666 3247 4331 
Q 3641 3997 3641 3322 
Q 3641 2881 3436 2590 
Q 3231 2300 2841 2188 
z
M 1259 4147 
L 1259 2491 
L 2053 2491 
Q 2509 2491 2742 2702 
Q 2975 2913 2975 3322 
Q 2975 3731 2742 3939 
Q 2509 4147 2053 4147 
L 1259 4147 
z
" transform="scale(0.015625)"/>
       <path id="DejaVuSans-65" d="M 3597 1894 
L 3597 1613 
L 953 1613 
Q 991 1019 1311 708 
Q 1631 397 2203 397 
Q 2534 397 2845 478 
Q 3156 559 3463 722 
L 3463 178 
Q 3153 47 2828 -22 
Q 2503 -91 2169 -91 
Q 1331 -91 842 396 
Q 353 884 353 1716 
Q 353 2575 817 3079 
Q 1281 3584 2069 3584 
Q 2775 3584 3186 3129 
Q 3597 2675 3597 1894 
z
M 3022 2063 
Q 3016 2534 2758 2815 
Q 2500 3097 2075 3097 
Q 1594 3097 1305 2825 
Q 1016 2553 972 2059 
L 3022 2063 
z
" transform="scale(0.015625)"/>
       <path id="DejaVuSans-74" d="M 1172 4494 
L 1172 3500 
L 2356 3500 
L 2356 3053 
L 1172 3053 
L 1172 1153 
Q 1172 725 1289 603 
Q 1406 481 1766 481 
L 2356 481 
L 2356 0 
L 1766 0 
Q 1100 0 847 248 
Q 594 497 594 1153 
L 594 3053 
L 172 3053 
L 172 3500 
L 594 3500 
L 594 4494 
L 1172 4494 
z
" transform="scale(0.015625)"/>
       <path id="DejaVuSans-75" d="M 544 1381 
L 544 3500 
L 1119 3500 
L 1119 1403 
Q 1119 906 1312 657 
Q 1506 409 1894 409 
Q 2359 409 2629 706 
Q 2900 1003 2900 1516 
L 2900 3500 
L 3475 3500 
L 3475 0 
L 2900 0 
L 2900 538 
Q 2691 219 2414 64 
Q 2138 -91 1772 -91 
Q 1169 -91 856 284 
Q 544 659 544 1381 
z
M 1991 3584 
L 1991 3584 
z
" transform="scale(0.015625)"/>
       <path id="DejaVuSans-72" d="M 2631 2963 
Q 2534 3019 2420 3045 
Q 2306 3072 2169 3072 
Q 1681 3072 1420 2755 
Q 1159 2438 1159 1844 
L 1159 0 
L 581 0 
L 581 3500 
L 1159 3500 
L 1159 2956 
Q 1341 3275 1631 3429 
Q 1922 3584 2338 3584 
Q 2397 3584 2469 3576 
Q 2541 3569 2628 3553 
L 2631 2963 
z
" transform="scale(0.015625)"/>
       <path id="DejaVuSans-6e" d="M 3513 2113 
L 3513 0 
L 2938 0 
L 2938 2094 
Q 2938 2591 2744 2837 
Q 2550 3084 2163 3084 
Q 1697 3084 1428 2787 
Q 1159 2491 1159 1978 
L 1159 0 
L 581 0 
L 581 3500 
L 1159 3500 
L 1159 2956 
Q 1366 3272 1645 3428 
Q 1925 3584 2291 3584 
Q 2894 3584 3203 3211 
Q 3513 2838 3513 2113 
z
" transform="scale(0.015625)"/>
       <path id="DejaVuSans-20" transform="scale(0.015625)"/>
       <path id="DejaVuSans-5b" d="M 550 4863 
L 1875 4863 
L 1875 4416 
L 1125 4416 
L 1125 -397 
L 1875 -397 
L 1875 -844 
L 550 -844 
L 550 4863 
z
" transform="scale(0.015625)"/>
       <path id="DejaVuSans-25" d="M 4653 2053 
Q 4381 2053 4226 1822 
Q 4072 1591 4072 1178 
Q 4072 772 4226 539 
Q 4381 306 4653 306 
Q 4919 306 5073 539 
Q 5228 772 5228 1178 
Q 5228 1588 5073 1820 
Q 4919 2053 4653 2053 
z
M 4653 2450 
Q 5147 2450 5437 2106 
Q 5728 1763 5728 1178 
Q 5728 594 5436 251 
Q 5144 -91 4653 -91 
Q 4153 -91 3862 251 
Q 3572 594 3572 1178 
Q 3572 1766 3864 2108 
Q 4156 2450 4653 2450 
z
M 1428 4353 
Q 1159 4353 1004 4120 
Q 850 3888 850 3481 
Q 850 3069 1003 2837 
Q 1156 2606 1428 2606 
Q 1700 2606 1854 2837 
Q 2009 3069 2009 3481 
Q 2009 3884 1853 4118 
Q 1697 4353 1428 4353 
z
M 4250 4750 
L 4750 4750 
L 1831 -91 
L 1331 -91 
L 4250 4750 
z
M 1428 4750 
Q 1922 4750 2215 4408 
Q 2509 4066 2509 3481 
Q 2509 2891 2217 2550 
Q 1925 2209 1428 2209 
Q 931 2209 642 2551 
Q 353 2894 353 3481 
Q 353 4063 643 4406 
Q 934 4750 1428 4750 
z
" transform="scale(0.015625)"/>
       <path id="DejaVuSans-5d" d="M 1947 4863 
L 1947 -844 
L 622 -844 
L 622 -397 
L 1369 -397 
L 1369 4416 
L 622 4416 
L 622 4863 
L 1947 4863 
z
" transform="scale(0.015625)"/>
      </defs>
      <use xlink:href="#DejaVuSans-52"/>
      <use xlink:href="#DejaVuSans-65" x="64.982422"/>
      <use xlink:href="#DejaVuSans-74" x="126.505859"/>
      <use xlink:href="#DejaVuSans-75" x="165.714844"/>
      <use xlink:href="#DejaVuSans-72" x="229.09375"/>
      <use xlink:href="#DejaVuSans-6e" x="268.457031"/>
      <use xlink:href="#DejaVuSans-20" x="331.835938"/>
      <use xlink:href="#DejaVuSans-5b" x="363.623047"/>
      <use xlink:href="#DejaVuSans-25" x="402.636719"/>
      <use xlink:href="#DejaVuSans-5d" x="497.65625"/>
     </g>
    </g>
   </g>
   <g id="line2d_14">
    <path d="M 75.746071 169.96991 
L 77.009565 167.563558 
L 78.273059 167.836175 
L 79.536554 167.692045 
L 84.59053 163.446588 
L 85.854025 161.366237 
L 87.117519 163.685751 
L 89.644507 170.952812 
L 93.43499 179.324041 
L 94.698484 174.731072 
L 95.961978 171.26121 
L 97.225473 171.472232 
L 98.488967 178.359194 
L 102.27945 177.520752 
L 103.542944 184.521324 
L 104.806438 182.757201 
L 106.069932 179.015782 
L 107.333427 186.037603 
L 111.123909 201.67565 
L 112.387403 198.943451 
L 113.650898 190.890343 
L 114.914392 193.665544 
L 116.177886 194.239268 
L 119.968369 190.187402 
L 121.231863 186.187011 
L 122.495357 184.229488 
L 123.758852 192.355842 
L 125.022346 196.4125 
L 128.812828 192.186383 
L 130.076323 192.923733 
L 131.339817 186.197531 
L 132.603311 186.003229 
L 133.866805 189.560155 
L 137.657288 198.727882 
L 138.920782 191.593075 
L 140.184277 194.832124 
L 142.711265 206.236206 
L 146.501748 212.90569 
L 147.765242 213.145981 
L 149.028736 215.904117 
L 150.29223 227.009176 
L 151.555725 215.991685 
L 155.346207 217.285329 
L 156.609701 225.816485 
L 157.873196 223.802453 
L 159.13669 232.139585 
L 160.400184 243.071626 
L 164.190667 243.972775 
L 165.454161 245.415098 
L 166.717655 233.336772 
L 167.98115 233.804178 
L 169.244644 228.270494 
L 173.035126 223.818686 
L 174.298621 225.790357 
L 175.562115 211.542151 
L 176.825609 212.957599 
L 178.089103 209.515949 
L 181.879586 209.130173 
L 183.14308 208.8299 
L 184.406575 213.540767 
L 185.670069 217.269392 
L 186.933563 222.068729 
L 190.724046 218.872371 
L 191.98754 213.760573 
L 193.251034 217.940267 
L 194.514528 224.038717 
L 195.778023 219.795239 
L 199.568505 216.873963 
L 200.831999 217.55437 
L 202.095494 222.990573 
L 203.358988 221.805643 
L 204.622482 217.669108 
L 208.412965 223.598689 
L 209.676459 222.818024 
L 210.939953 223.447632 
L 212.203448 224.440794 
L 218.520919 223.566589 
L 219.784413 221.620403 
L 221.047907 218.609944 
L 222.311401 224.078803 
L 226.101884 231.770354 
L 227.365378 237.379749 
L 228.628873 232.109013 
L 229.892367 233.866608 
L 231.155861 230.336366 
L 234.946344 237.018817 
L 236.209838 234.578246 
L 237.473332 238.630824 
L 238.736826 243.143343 
L 240.000321 247.159203 
L 243.790803 255.348612 
L 245.054298 250.438026 
L 246.317792 244.473219 
L 247.581286 245.166143 
L 248.84478 238.593811 
L 252.635263 239.781571 
L 253.898757 235.815155 
L 255.162251 240.120437 
L 256.425746 241.880758 
L 257.68924 241.587603 
L 261.479722 237.285115 
L 264.006711 243.717814 
L 266.533699 230.475235 
L 270.324182 227.492832 
L 271.587676 233.159431 
L 272.851171 233.39882 
L 274.114665 227.422937 
L 275.378159 228.510629 
L 280.432136 227.677951 
L 281.69563 228.420457 
L 282.959124 232.912646 
L 284.222619 242.159556 
L 288.013101 248.112609 
L 289.276596 252.4727 
L 290.54009 249.786542 
L 291.803584 259.600596 
L 293.067078 260.653862 
L 296.857561 258.747953 
L 298.121055 257.33471 
L 299.384549 258.644864 
L 300.648044 263.905011 
L 305.70202 253.609714 
L 306.965515 255.641472 
L 308.229009 256.479723 
L 309.492503 262.665064 
L 310.755997 262.099569 
L 314.54648 259.0409 
L 315.809974 263.797356 
L 317.073469 254.680653 
L 318.336963 248.446927 
L 319.600457 245.589262 
L 323.39094 251.413775 
L 324.654434 245.977172 
L 325.917928 252.494071 
L 327.181422 257.313339 
L 328.444917 257.259069 
L 332.235399 252.62676 
L 333.498894 247.311788 
L 334.762388 247.278212 
L 336.025882 244.733493 
L 337.289376 244.086298 
L 341.079859 245.615806 
L 342.343353 246.991098 
L 343.606847 245.530651 
L 344.870342 241.251827 
L 346.133836 234.914613 
L 349.924319 238.632595 
L 351.187813 241.616509 
L 352.451307 239.59298 
L 353.714801 236.945589 
L 354.978295 240.809455 
L 358.768778 237.583739 
L 360.032272 242.700173 
L 361.295767 236.137494 
L 362.559261 236.311068 
L 363.822755 234.917147 
L 367.613238 234.196065 
L 368.876732 230.329525 
L 370.140226 234.526268 
L 371.40372 231.302914 
L 372.667215 233.969106 
L 376.457697 241.257313 
L 377.721192 243.055636 
L 378.984686 243.412819 
L 380.24818 242.762776 
L 381.511674 248.171081 
L 385.302157 250.956195 
L 386.565651 250.556409 
L 387.829145 254.409546 
L 389.09264 262.17778 
L 390.356134 253.575218 
L 394.146617 258.129681 
L 395.410111 257.357852 
L 396.673605 258.310859 
L 397.937099 256.65413 
L 399.200593 252.009877 
L 402.991076 244.981319 
L 404.25457 251.285582 
L 405.518065 255.081515 
L 406.781559 255.876191 
L 408.045053 261.133195 
L 411.835536 261.755963 
L 413.09903 265.4453 
L 414.362524 261.607667 
L 415.626018 268.701623 
L 416.889513 272.16487 
L 420.679995 273.237284 
L 421.94349 270.184309 
L 423.206984 268.553084 
L 424.470478 276.257169 
L 425.733972 270.252624 
L 429.524455 268.424075 
L 430.787949 256.248095 
L 432.051443 260.887365 
L 433.314938 260.867036 
L 434.578432 268.031928 
L 438.368915 268.875874 
L 439.632409 269.363471 
L 440.895903 269.317968 
L 442.159397 265.411603 
L 443.422891 263.299951 
L 447.213374 256.468178 
L 448.476868 251.228604 
L 449.740363 253.332739 
L 451.003857 256.8822 
L 452.267351 257.660834 
L 456.057834 251.19765 
L 457.321328 246.587806 
L 458.584822 245.758547 
L 459.848316 246.077171 
L 461.111811 245.027187 
L 464.902293 246.025818 
L 466.165788 244.903196 
L 467.429282 243.942793 
L 468.692776 247.495709 
L 469.95627 240.73298 
L 473.746753 239.064516 
L 475.010247 234.313927 
L 476.273741 234.811003 
L 477.537236 222.139353 
L 478.80073 221.694776 
L 482.591213 221.814289 
L 483.854707 223.546954 
L 485.118201 227.538074 
L 486.381695 228.915623 
L 487.645189 225.393679 
L 491.435672 226.226149 
L 493.962661 221.492991 
L 495.226155 222.028296 
L 496.489649 220.29412 
L 500.280132 223.829571 
L 501.543626 224.547286 
L 502.80712 222.780073 
L 504.070614 218.844107 
L 505.334109 218.085161 
L 509.124591 216.309961 
L 510.388086 221.24171 
L 511.65158 225.209741 
L 512.915074 224.61041 
L 514.178568 220.345318 
L 517.969051 221.651426 
L 519.232545 216.135554 
L 520.496039 216.42489 
L 521.759534 226.755846 
L 523.023028 232.559162 
L 526.813511 232.231545 
L 528.077005 234.238876 
L 529.340499 229.254715 
L 530.603993 233.044762 
L 531.867487 231.129618 
L 531.867487 231.129618 
" clip-path="url(#p423955ce91)" style="fill: none; stroke: #008000; stroke-width: 1.5; stroke-linecap: square"/>
   </g>
   <g id="line2d_15">
    <path d="M 75.746071 166.873488 
L 77.009565 161.046288 
L 78.273059 163.349085 
L 79.536554 161.451652 
L 84.59053 158.942121 
L 85.854025 159.887826 
L 87.117519 164.106111 
L 93.43499 167.695513 
L 94.698484 179.505598 
L 95.961978 175.233204 
L 97.225473 175.348637 
L 98.488967 179.020783 
L 122.495357 179.020783 
L 123.758852 178.400349 
L 125.022346 184.290474 
L 128.812828 189.053327 
L 130.076323 188.119136 
L 131.339817 195.143251 
L 132.603311 190.095311 
L 133.866805 191.398581 
L 137.657288 199.466613 
L 138.920782 199.466613 
L 140.184277 191.269895 
L 166.717655 191.269895 
L 167.98115 184.758294 
L 169.244644 184.758294 
L 173.035126 176.587785 
L 174.298621 177.119813 
L 175.562115 177.119813 
L 176.825609 167.093308 
L 178.089103 163.757422 
L 181.879586 160.27884 
L 183.14308 160.197973 
L 184.406575 159.349659 
L 185.670069 165.560169 
L 186.933563 170.790214 
L 190.724046 168.500374 
L 191.98754 160.318693 
L 193.251034 157.117649 
L 194.514528 156.121303 
L 195.778023 155.472446 
L 199.568505 149.286688 
L 202.095494 142.348088 
L 203.358988 148.93917 
L 204.622482 142.114872 
L 208.412965 144.365312 
L 209.676459 152.205577 
L 212.203448 148.516657 
L 218.520919 146.011947 
L 219.784413 149.532624 
L 221.047907 152.162892 
L 264.006711 152.162892 
L 266.533699 147.091467 
L 270.324182 136.31199 
L 271.587676 135.533321 
L 272.851171 138.254031 
L 274.114665 145.298647 
L 275.378159 141.576268 
L 280.432136 140.415659 
L 281.69563 137.766404 
L 282.959124 140.289738 
L 284.222619 152.018954 
L 315.809974 152.018954 
L 317.073469 154.976408 
L 318.336963 145.999812 
L 319.600457 135.344197 
L 323.39094 136.179609 
L 324.654434 137.564928 
L 325.917928 129.949677 
L 327.181422 137.253231 
L 328.444917 141.237431 
L 332.235399 137.898146 
L 333.498894 132.061933 
L 334.762388 125.380438 
L 336.025882 123.384886 
L 337.289376 111.837038 
L 341.079859 100.855222 
L 342.343353 108.740945 
L 343.606847 110.920955 
L 344.870342 107.184461 
L 346.133836 93.118543 
L 349.924319 78.278897 
L 351.187813 86.650748 
L 352.451307 96.838131 
L 353.714801 83.143882 
L 354.978295 84.460937 
L 358.768778 100.351702 
L 360.032272 92.759653 
L 361.295767 113.494935 
L 362.559261 84.196117 
L 363.822755 81.167414 
L 367.613238 72.681087 
L 368.876732 76.06118 
L 370.140226 85.363855 
L 371.40372 97.266113 
L 372.667215 92.673294 
L 438.368915 92.673294 
L 439.632409 84.182816 
L 440.895903 81.287463 
L 442.159397 85.236904 
L 443.422891 70.61734 
L 447.213374 74.163766 
L 448.476868 62.270363 
L 449.740363 62.077412 
L 451.003857 75.270536 
L 452.267351 76.107242 
L 456.057834 73.505257 
L 457.321328 73.027444 
L 458.584822 70.217344 
L 459.848316 69.642789 
L 461.111811 72.942154 
L 464.902293 68.880792 
L 466.165788 63.34746 
L 467.429282 66.552582 
L 468.692776 71.524686 
L 469.95627 72.371215 
L 473.746753 66.563342 
L 475.010247 68.876911 
L 476.273741 63.331704 
L 477.537236 64.972128 
L 478.80073 45.049286 
L 482.591213 38.755103 
L 483.854707 43.77462 
L 486.381695 59.542706 
L 487.645189 64.277313 
L 491.435672 66.1431 
L 492.699166 69.340572 
L 493.962661 56.999846 
L 495.226155 57.449547 
L 496.489649 63.168511 
L 500.280132 64.591916 
L 501.543626 69.953197 
L 504.070614 69.953197 
L 505.334109 70.401579 
L 509.124591 74.547389 
L 510.388086 73.831629 
L 511.65158 83.700324 
L 512.915074 87.342701 
L 514.178568 73.375619 
L 517.969051 68.968354 
L 520.496039 68.968354 
L 521.759534 73.830778 
L 531.867487 73.830778 
L 531.867487 73.830778 
" clip-path="url(#p423955ce91)" style="fill: none; stroke: #0000ff; stroke-width: 1.5; stroke-linecap: square"/>
   </g>
   <g id="line2d_16">
    <path d="M 75.746071 166.873488 
L 77.009565 161.046288 
L 79.536554 161.046288 
L 84.59053 158.942121 
L 191.98754 158.942121 
L 193.251034 157.117649 
L 194.514528 156.121303 
L 195.778023 155.472446 
L 199.568505 149.286688 
L 202.095494 142.348088 
L 203.358988 142.348088 
L 204.622482 142.114872 
L 266.533699 142.114872 
L 270.324182 136.31199 
L 271.587676 135.533321 
L 318.336963 135.533321 
L 319.600457 135.344197 
L 324.654434 135.344197 
L 325.917928 129.949677 
L 333.498894 129.949677 
L 334.762388 125.380438 
L 336.025882 123.384886 
L 337.289376 111.837038 
L 341.079859 100.855222 
L 344.870342 100.855222 
L 346.133836 93.118543 
L 349.924319 78.278897 
L 363.822755 78.278897 
L 367.613238 72.681087 
L 442.159397 72.681087 
L 443.422891 70.61734 
L 447.213374 70.61734 
L 448.476868 62.270363 
L 449.740363 62.077412 
L 477.537236 62.077412 
L 478.80073 45.049286 
L 482.591213 38.755103 
L 531.867487 38.755103 
L 531.867487 38.755103 
" clip-path="url(#p423955ce91)" style="fill: none; stroke: #ff0000; stroke-width: 1.5; stroke-linecap: square"/>
   </g>
   <g id="patch_3">
    <path d="M 52.94 288.132273 
L 52.94 26.88 
" style="fill: none; stroke: #000000; stroke-width: 0.8; stroke-linejoin: miter; stroke-linecap: square"/>
   </g>
   <g id="patch_4">
    <path d="M 554.673558 288.132273 
L 554.673558 26.88 
" style="fill: none; stroke: #000000; stroke-width: 0.8; stroke-linejoin: miter; stroke-linecap: square"/>
   </g>
   <g id="patch_5">
    <path d="M 52.94 288.132273 
L 554.673558 288.132273 
" style="fill: none; stroke: #000000; stroke-width: 0.8; stroke-linejoin: miter; stroke-linecap: square"/>
   </g>
   <g id="patch_6">
    <path d="M 52.94 26.88 
L 554.673558 26.88 
" style="fill: none; stroke: #000000; stroke-width: 0.8; stroke-linejoin: miter; stroke-linecap: square"/>
   </g>
   <g id="text_8">
    <!-- Performance of AVAN-strategy year 2022 -->
    <g transform="translate(180.493654 20.88)scale(0.12 -0.12)">
     <defs>
      <path id="DejaVuSans-50" d="M 1259 4147 
L 1259 2394 
L 2053 2394 
Q 2494 2394 2734 2622 
Q 2975 2850 2975 3272 
Q 2975 3691 2734 3919 
Q 2494 4147 2053 4147 
L 1259 4147 
z
M 628 4666 
L 2053 4666 
Q 2838 4666 3239 4311 
Q 3641 3956 3641 3272 
Q 3641 2581 3239 2228 
Q 2838 1875 2053 1875 
L 1259 1875 
L 1259 0 
L 628 0 
L 628 4666 
z
" transform="scale(0.015625)"/>
      <path id="DejaVuSans-66" d="M 2375 4863 
L 2375 4384 
L 1825 4384 
Q 1516 4384 1395 4259 
Q 1275 4134 1275 3809 
L 1275 3500 
L 2222 3500 
L 2222 3053 
L 1275 3053 
L 1275 0 
L 697 0 
L 697 3053 
L 147 3053 
L 147 3500 
L 697 3500 
L 697 3744 
Q 697 4328 969 4595 
Q 1241 4863 1831 4863 
L 2375 4863 
z
" transform="scale(0.015625)"/>
      <path id="DejaVuSans-6f" d="M 1959 3097 
Q 1497 3097 1228 2736 
Q 959 2375 959 1747 
Q 959 1119 1226 758 
Q 1494 397 1959 397 
Q 2419 397 2687 759 
Q 2956 1122 2956 1747 
Q 2956 2369 2687 2733 
Q 2419 3097 1959 3097 
z
M 1959 3584 
Q 2709 3584 3137 3096 
Q 3566 2609 3566 1747 
Q 3566 888 3137 398 
Q 2709 -91 1959 -91 
Q 1206 -91 779 398 
Q 353 888 353 1747 
Q 353 2609 779 3096 
Q 1206 3584 1959 3584 
z
" transform="scale(0.015625)"/>
      <path id="DejaVuSans-6d" d="M 3328 2828 
Q 3544 3216 3844 3400 
Q 4144 3584 4550 3584 
Q 5097 3584 5394 3201 
Q 5691 2819 5691 2113 
L 5691 0 
L 5113 0 
L 5113 2094 
Q 5113 2597 4934 2840 
Q 4756 3084 4391 3084 
Q 3944 3084 3684 2787 
Q 3425 2491 3425 1978 
L 3425 0 
L 2847 0 
L 2847 2094 
Q 2847 2600 2669 2842 
Q 2491 3084 2119 3084 
Q 1678 3084 1418 2786 
Q 1159 2488 1159 1978 
L 1159 0 
L 581 0 
L 581 3500 
L 1159 3500 
L 1159 2956 
Q 1356 3278 1631 3431 
Q 1906 3584 2284 3584 
Q 2666 3584 2933 3390 
Q 3200 3197 3328 2828 
z
" transform="scale(0.015625)"/>
      <path id="DejaVuSans-61" d="M 2194 1759 
Q 1497 1759 1228 1600 
Q 959 1441 959 1056 
Q 959 750 1161 570 
Q 1363 391 1709 391 
Q 2188 391 2477 730 
Q 2766 1069 2766 1631 
L 2766 1759 
L 2194 1759 
z
M 3341 1997 
L 3341 0 
L 2766 0 
L 2766 531 
Q 2569 213 2275 61 
Q 1981 -91 1556 -91 
Q 1019 -91 701 211 
Q 384 513 384 1019 
Q 384 1609 779 1909 
Q 1175 2209 1959 2209 
L 2766 2209 
L 2766 2266 
Q 2766 2663 2505 2880 
Q 2244 3097 1772 3097 
Q 1472 3097 1187 3025 
Q 903 2953 641 2809 
L 641 3341 
Q 956 3463 1253 3523 
Q 1550 3584 1831 3584 
Q 2591 3584 2966 3190 
Q 3341 2797 3341 1997 
z
" transform="scale(0.015625)"/>
      <path id="DejaVuSans-63" d="M 3122 3366 
L 3122 2828 
Q 2878 2963 2633 3030 
Q 2388 3097 2138 3097 
Q 1578 3097 1268 2742 
Q 959 2388 959 1747 
Q 959 1106 1268 751 
Q 1578 397 2138 397 
Q 2388 397 2633 464 
Q 2878 531 3122 666 
L 3122 134 
Q 2881 22 2623 -34 
Q 2366 -91 2075 -91 
Q 1284 -91 818 406 
Q 353 903 353 1747 
Q 353 2603 823 3093 
Q 1294 3584 2113 3584 
Q 2378 3584 2631 3529 
Q 2884 3475 3122 3366 
z
" transform="scale(0.015625)"/>
      <path id="DejaVuSans-41" d="M 2188 4044 
L 1331 1722 
L 3047 1722 
L 2188 4044 
z
M 1831 4666 
L 2547 4666 
L 4325 0 
L 3669 0 
L 3244 1197 
L 1141 1197 
L 716 0 
L 50 0 
L 1831 4666 
z
" transform="scale(0.015625)"/>
      <path id="DejaVuSans-56" d="M 1831 0 
L 50 4666 
L 709 4666 
L 2188 738 
L 3669 4666 
L 4325 4666 
L 2547 0 
L 1831 0 
z
" transform="scale(0.015625)"/>
      <path id="DejaVuSans-4e" d="M 628 4666 
L 1478 4666 
L 3547 763 
L 3547 4666 
L 4159 4666 
L 4159 0 
L 3309 0 
L 1241 3903 
L 1241 0 
L 628 0 
L 628 4666 
z
" transform="scale(0.015625)"/>
      <path id="DejaVuSans-2d" d="M 313 2009 
L 1997 2009 
L 1997 1497 
L 313 1497 
L 313 2009 
z
" transform="scale(0.015625)"/>
      <path id="DejaVuSans-73" d="M 2834 3397 
L 2834 2853 
Q 2591 2978 2328 3040 
Q 2066 3103 1784 3103 
Q 1356 3103 1142 2972 
Q 928 2841 928 2578 
Q 928 2378 1081 2264 
Q 1234 2150 1697 2047 
L 1894 2003 
Q 2506 1872 2764 1633 
Q 3022 1394 3022 966 
Q 3022 478 2636 193 
Q 2250 -91 1575 -91 
Q 1294 -91 989 -36 
Q 684 19 347 128 
L 347 722 
Q 666 556 975 473 
Q 1284 391 1588 391 
Q 1994 391 2212 530 
Q 2431 669 2431 922 
Q 2431 1156 2273 1281 
Q 2116 1406 1581 1522 
L 1381 1569 
Q 847 1681 609 1914 
Q 372 2147 372 2553 
Q 372 3047 722 3315 
Q 1072 3584 1716 3584 
Q 2034 3584 2315 3537 
Q 2597 3491 2834 3397 
z
" transform="scale(0.015625)"/>
      <path id="DejaVuSans-67" d="M 2906 1791 
Q 2906 2416 2648 2759 
Q 2391 3103 1925 3103 
Q 1463 3103 1205 2759 
Q 947 2416 947 1791 
Q 947 1169 1205 825 
Q 1463 481 1925 481 
Q 2391 481 2648 825 
Q 2906 1169 2906 1791 
z
M 3481 434 
Q 3481 -459 3084 -895 
Q 2688 -1331 1869 -1331 
Q 1566 -1331 1297 -1286 
Q 1028 -1241 775 -1147 
L 775 -588 
Q 1028 -725 1275 -790 
Q 1522 -856 1778 -856 
Q 2344 -856 2625 -561 
Q 2906 -266 2906 331 
L 2906 616 
Q 2728 306 2450 153 
Q 2172 0 1784 0 
Q 1141 0 747 490 
Q 353 981 353 1791 
Q 353 2603 747 3093 
Q 1141 3584 1784 3584 
Q 2172 3584 2450 3431 
Q 2728 3278 2906 2969 
L 2906 3500 
L 3481 3500 
L 3481 434 
z
" transform="scale(0.015625)"/>
      <path id="DejaVuSans-79" d="M 2059 -325 
Q 1816 -950 1584 -1140 
Q 1353 -1331 966 -1331 
L 506 -1331 
L 506 -850 
L 844 -850 
Q 1081 -850 1212 -737 
Q 1344 -625 1503 -206 
L 1606 56 
L 191 3500 
L 800 3500 
L 1894 763 
L 2988 3500 
L 3597 3500 
L 2059 -325 
z
" transform="scale(0.015625)"/>
     </defs>
     <use xlink:href="#DejaVuSans-50"/>
     <use xlink:href="#DejaVuSans-65" x="56.677734"/>
     <use xlink:href="#DejaVuSans-72" x="118.201172"/>
     <use xlink:href="#DejaVuSans-66" x="159.314453"/>
     <use xlink:href="#DejaVuSans-6f" x="194.519531"/>
     <use xlink:href="#DejaVuSans-72" x="255.701172"/>
     <use xlink:href="#DejaVuSans-6d" x="295.064453"/>
     <use xlink:href="#DejaVuSans-61" x="392.476562"/>
     <use xlink:href="#DejaVuSans-6e" x="453.755859"/>
     <use xlink:href="#DejaVuSans-63" x="517.134766"/>
     <use xlink:href="#DejaVuSans-65" x="572.115234"/>
     <use xlink:href="#DejaVuSans-20" x="633.638672"/>
     <use xlink:href="#DejaVuSans-6f" x="665.425781"/>
     <use xlink:href="#DejaVuSans-66" x="726.607422"/>
     <use xlink:href="#DejaVuSans-20" x="761.8125"/>
     <use xlink:href="#DejaVuSans-41" x="793.599609"/>
     <use xlink:href="#DejaVuSans-56" x="855.632812"/>
     <use xlink:href="#DejaVuSans-41" x="917.666016"/>
     <use xlink:href="#DejaVuSans-4e" x="986.074219"/>
     <use xlink:href="#DejaVuSans-2d" x="1060.878906"/>
     <use xlink:href="#DejaVuSans-73" x="1096.962891"/>
     <use xlink:href="#DejaVuSans-74" x="1149.0625"/>
     <use xlink:href="#DejaVuSans-72" x="1188.271484"/>
     <use xlink:href="#DejaVuSans-61" x="1229.384766"/>
     <use xlink:href="#DejaVuSans-74" x="1290.664062"/>
     <use xlink:href="#DejaVuSans-65" x="1329.873047"/>
     <use xlink:href="#DejaVuSans-67" x="1391.396484"/>
     <use xlink:href="#DejaVuSans-79" x="1454.873047"/>
     <use xlink:href="#DejaVuSans-20" x="1514.052734"/>
     <use xlink:href="#DejaVuSans-79" x="1545.839844"/>
     <use xlink:href="#DejaVuSans-65" x="1605.019531"/>
     <use xlink:href="#DejaVuSans-61" x="1666.542969"/>
     <use xlink:href="#DejaVuSans-72" x="1727.822266"/>
     <use xlink:href="#DejaVuSans-20" x="1768.935547"/>
     <use xlink:href="#DejaVuSans-32" x="1800.722656"/>
     <use xlink:href="#DejaVuSans-30" x="1864.345703"/>
     <use xlink:href="#DejaVuSans-32" x="1927.96875"/>
     <use xlink:href="#DejaVuSans-32" x="1991.591797"/>
    </g>
   </g>
   <g id="legend_1">
    <g id="patch_7">
     <path d="M 59.94 78.914375 
L 187.361875 78.914375 
Q 189.361875 78.914375 189.361875 76.914375 
L 189.361875 33.88 
Q 189.361875 31.88 187.361875 31.88 
L 59.94 31.88 
Q 57.94 31.88 57.94 33.88 
L 57.94 76.914375 
Q 57.94 78.914375 59.94 78.914375 
z
" style="fill: #ffffff; opacity: 0.8; stroke: #cccccc; stroke-linejoin: miter"/>
    </g>
    <g id="line2d_17">
     <path d="M 61.94 39.978438 
L 71.94 39.978438 
L 81.94 39.978438 
" style="fill: none; stroke: #008000; stroke-width: 1.5; stroke-linecap: square"/>
    </g>
    <g id="text_9">
     <!-- -13.9% return omx -->
     <g transform="translate(89.94 43.478438)scale(0.1 -0.1)">
      <defs>
       <path id="DejaVuSans-2e" d="M 684 794 
L 1344 794 
L 1344 0 
L 684 0 
L 684 794 
z
" transform="scale(0.015625)"/>
       <path id="DejaVuSans-39" d="M 703 97 
L 703 672 
Q 941 559 1184 500 
Q 1428 441 1663 441 
Q 2288 441 2617 861 
Q 2947 1281 2994 2138 
Q 2813 1869 2534 1725 
Q 2256 1581 1919 1581 
Q 1219 1581 811 2004 
Q 403 2428 403 3163 
Q 403 3881 828 4315 
Q 1253 4750 1959 4750 
Q 2769 4750 3195 4129 
Q 3622 3509 3622 2328 
Q 3622 1225 3098 567 
Q 2575 -91 1691 -91 
Q 1453 -91 1209 -44 
Q 966 3 703 97 
z
M 1959 2075 
Q 2384 2075 2632 2365 
Q 2881 2656 2881 3163 
Q 2881 3666 2632 3958 
Q 2384 4250 1959 4250 
Q 1534 4250 1286 3958 
Q 1038 3666 1038 3163 
Q 1038 2656 1286 2365 
Q 1534 2075 1959 2075 
z
" transform="scale(0.015625)"/>
       <path id="DejaVuSans-78" d="M 3513 3500 
L 2247 1797 
L 3578 0 
L 2900 0 
L 1881 1375 
L 863 0 
L 184 0 
L 1544 1831 
L 300 3500 
L 978 3500 
L 1906 2253 
L 2834 3500 
L 3513 3500 
z
" transform="scale(0.015625)"/>
      </defs>
      <use xlink:href="#DejaVuSans-2d"/>
      <use xlink:href="#DejaVuSans-31" x="36.083984"/>
      <use xlink:href="#DejaVuSans-33" x="99.707031"/>
      <use xlink:href="#DejaVuSans-2e" x="163.330078"/>
      <use xlink:href="#DejaVuSans-39" x="195.117188"/>
      <use xlink:href="#DejaVuSans-25" x="258.740234"/>
      <use xlink:href="#DejaVuSans-20" x="353.759766"/>
      <use xlink:href="#DejaVuSans-72" x="385.546875"/>
      <use xlink:href="#DejaVuSans-65" x="424.410156"/>
      <use xlink:href="#DejaVuSans-74" x="485.933594"/>
      <use xlink:href="#DejaVuSans-75" x="525.142578"/>
      <use xlink:href="#DejaVuSans-72" x="588.521484"/>
      <use xlink:href="#DejaVuSans-6e" x="627.884766"/>
      <use xlink:href="#DejaVuSans-20" x="691.263672"/>
      <use xlink:href="#DejaVuSans-6f" x="723.050781"/>
      <use xlink:href="#DejaVuSans-6d" x="784.232422"/>
      <use xlink:href="#DejaVuSans-78" x="881.644531"/>
     </g>
    </g>
    <g id="line2d_18">
     <path d="M 61.94 54.656563 
L 71.94 54.656563 
L 81.94 54.656563 
" style="fill: none; stroke: #0000ff; stroke-width: 1.5; stroke-linecap: square"/>
    </g>
    <g id="text_10">
     <!-- 24.1% return AVAN -->
     <g transform="translate(89.94 58.156563)scale(0.1 -0.1)">
      <defs>
       <path id="DejaVuSans-34" d="M 2419 4116 
L 825 1625 
L 2419 1625 
L 2419 4116 
z
M 2253 4666 
L 3047 4666 
L 3047 1625 
L 3713 1625 
L 3713 1100 
L 3047 1100 
L 3047 0 
L 2419 0 
L 2419 1100 
L 313 1100 
L 313 1709 
L 2253 4666 
z
" transform="scale(0.015625)"/>
      </defs>
      <use xlink:href="#DejaVuSans-32"/>
      <use xlink:href="#DejaVuSans-34" x="63.623047"/>
      <use xlink:href="#DejaVuSans-2e" x="127.246094"/>
      <use xlink:href="#DejaVuSans-31" x="159.033203"/>
      <use xlink:href="#DejaVuSans-25" x="222.65625"/>
      <use xlink:href="#DejaVuSans-20" x="317.675781"/>
      <use xlink:href="#DejaVuSans-72" x="349.462891"/>
      <use xlink:href="#DejaVuSans-65" x="388.326172"/>
      <use xlink:href="#DejaVuSans-74" x="449.849609"/>
      <use xlink:href="#DejaVuSans-75" x="489.058594"/>
      <use xlink:href="#DejaVuSans-72" x="552.4375"/>
      <use xlink:href="#DejaVuSans-6e" x="591.800781"/>
      <use xlink:href="#DejaVuSans-20" x="655.179688"/>
      <use xlink:href="#DejaVuSans-41" x="686.966797"/>
      <use xlink:href="#DejaVuSans-56" x="749"/>
      <use xlink:href="#DejaVuSans-41" x="811.033203"/>
      <use xlink:href="#DejaVuSans-4e" x="879.441406"/>
     </g>
    </g>
    <g id="line2d_19">
     <path d="M 61.94 69.334688 
L 71.94 69.334688 
L 81.94 69.334688 
" style="fill: none; stroke: #ff0000; stroke-width: 1.5; stroke-linecap: square"/>
    </g>
    <g id="text_11">
     <!-- cummax -->
     <g transform="translate(89.94 72.834688)scale(0.1 -0.1)">
      <use xlink:href="#DejaVuSans-63"/>
      <use xlink:href="#DejaVuSans-75" x="54.980469"/>
      <use xlink:href="#DejaVuSans-6d" x="118.359375"/>
      <use xlink:href="#DejaVuSans-6d" x="215.771484"/>
      <use xlink:href="#DejaVuSans-61" x="313.183594"/>
      <use xlink:href="#DejaVuSans-78" x="374.462891"/>
     </g>
    </g>
   </g>
  </g>
  <g id="axes_2">
   <g id="patch_8">
    <path d="M 52.94 390.04 
L 554.673558 390.04 
L 554.673558 302.955909 
L 52.94 302.955909 
z
" style="fill: #ffffff"/>
   </g>
   <g id="matplotlib.axis_3">
    <g id="xtick_8">
     <g id="line2d_20">
      <g>
       <use xlink:href="#m3d6a1f16d2" x="82.063542" y="390.04" style="stroke: #000000; stroke-width: 0.8"/>
      </g>
     </g>
     <g id="text_12">
      <!-- 2022-01 -->
      <g transform="translate(61.172136 404.638438)scale(0.1 -0.1)">
       <use xlink:href="#DejaVuSans-32"/>
       <use xlink:href="#DejaVuSans-30" x="63.623047"/>
       <use xlink:href="#DejaVuSans-32" x="127.246094"/>
       <use xlink:href="#DejaVuSans-32" x="190.869141"/>
       <use xlink:href="#DejaVuSans-2d" x="254.492188"/>
       <use xlink:href="#DejaVuSans-30" x="290.576172"/>
       <use xlink:href="#DejaVuSans-31" x="354.199219"/>
      </g>
     </g>
    </g>
    <g id="xtick_9">
     <g id="line2d_21">
      <g>
       <use xlink:href="#m3d6a1f16d2" x="156.609701" y="390.04" style="stroke: #000000; stroke-width: 0.8"/>
      </g>
     </g>
     <g id="text_13">
      <!-- 2022-03 -->
      <g transform="translate(135.718295 404.638438)scale(0.1 -0.1)">
       <use xlink:href="#DejaVuSans-32"/>
       <use xlink:href="#DejaVuSans-30" x="63.623047"/>
       <use xlink:href="#DejaVuSans-32" x="127.246094"/>
       <use xlink:href="#DejaVuSans-32" x="190.869141"/>
       <use xlink:href="#DejaVuSans-2d" x="254.492188"/>
       <use xlink:href="#DejaVuSans-30" x="290.576172"/>
       <use xlink:href="#DejaVuSans-33" x="354.199219"/>
      </g>
     </g>
    </g>
    <g id="xtick_10">
     <g id="line2d_22">
      <g>
       <use xlink:href="#m3d6a1f16d2" x="233.682849" y="390.04" style="stroke: #000000; stroke-width: 0.8"/>
      </g>
     </g>
     <g id="text_14">
      <!-- 2022-05 -->
      <g transform="translate(212.791443 404.638438)scale(0.1 -0.1)">
       <defs>
        <path id="DejaVuSans-35" d="M 691 4666 
L 3169 4666 
L 3169 4134 
L 1269 4134 
L 1269 2991 
Q 1406 3038 1543 3061 
Q 1681 3084 1819 3084 
Q 2600 3084 3056 2656 
Q 3513 2228 3513 1497 
Q 3513 744 3044 326 
Q 2575 -91 1722 -91 
Q 1428 -91 1123 -41 
Q 819 9 494 109 
L 494 744 
Q 775 591 1075 516 
Q 1375 441 1709 441 
Q 2250 441 2565 725 
Q 2881 1009 2881 1497 
Q 2881 1984 2565 2268 
Q 2250 2553 1709 2553 
Q 1456 2553 1204 2497 
Q 953 2441 691 2322 
L 691 4666 
z
" transform="scale(0.015625)"/>
       </defs>
       <use xlink:href="#DejaVuSans-32"/>
       <use xlink:href="#DejaVuSans-30" x="63.623047"/>
       <use xlink:href="#DejaVuSans-32" x="127.246094"/>
       <use xlink:href="#DejaVuSans-32" x="190.869141"/>
       <use xlink:href="#DejaVuSans-2d" x="254.492188"/>
       <use xlink:href="#DejaVuSans-30" x="290.576172"/>
       <use xlink:href="#DejaVuSans-35" x="354.199219"/>
      </g>
     </g>
    </g>
    <g id="xtick_11">
     <g id="line2d_23">
      <g>
       <use xlink:href="#m3d6a1f16d2" x="310.755997" y="390.04" style="stroke: #000000; stroke-width: 0.8"/>
      </g>
     </g>
     <g id="text_15">
      <!-- 2022-07 -->
      <g transform="translate(289.864591 404.638438)scale(0.1 -0.1)">
       <defs>
        <path id="DejaVuSans-37" d="M 525 4666 
L 3525 4666 
L 3525 4397 
L 1831 0 
L 1172 0 
L 2766 4134 
L 525 4134 
L 525 4666 
z
" transform="scale(0.015625)"/>
       </defs>
       <use xlink:href="#DejaVuSans-32"/>
       <use xlink:href="#DejaVuSans-30" x="63.623047"/>
       <use xlink:href="#DejaVuSans-32" x="127.246094"/>
       <use xlink:href="#DejaVuSans-32" x="190.869141"/>
       <use xlink:href="#DejaVuSans-2d" x="254.492188"/>
       <use xlink:href="#DejaVuSans-30" x="290.576172"/>
       <use xlink:href="#DejaVuSans-37" x="354.199219"/>
      </g>
     </g>
    </g>
    <g id="xtick_12">
     <g id="line2d_24">
      <g>
       <use xlink:href="#m3d6a1f16d2" x="389.09264" y="390.04" style="stroke: #000000; stroke-width: 0.8"/>
      </g>
     </g>
     <g id="text_16">
      <!-- 2022-09 -->
      <g transform="translate(368.201233 404.638438)scale(0.1 -0.1)">
       <use xlink:href="#DejaVuSans-32"/>
       <use xlink:href="#DejaVuSans-30" x="63.623047"/>
       <use xlink:href="#DejaVuSans-32" x="127.246094"/>
       <use xlink:href="#DejaVuSans-32" x="190.869141"/>
       <use xlink:href="#DejaVuSans-2d" x="254.492188"/>
       <use xlink:href="#DejaVuSans-30" x="290.576172"/>
       <use xlink:href="#DejaVuSans-39" x="354.199219"/>
      </g>
     </g>
    </g>
    <g id="xtick_13">
     <g id="line2d_25">
      <g>
       <use xlink:href="#m3d6a1f16d2" x="466.165788" y="390.04" style="stroke: #000000; stroke-width: 0.8"/>
      </g>
     </g>
     <g id="text_17">
      <!-- 2022-11 -->
      <g transform="translate(445.274381 404.638438)scale(0.1 -0.1)">
       <use xlink:href="#DejaVuSans-32"/>
       <use xlink:href="#DejaVuSans-30" x="63.623047"/>
       <use xlink:href="#DejaVuSans-32" x="127.246094"/>
       <use xlink:href="#DejaVuSans-32" x="190.869141"/>
       <use xlink:href="#DejaVuSans-2d" x="254.492188"/>
       <use xlink:href="#DejaVuSans-31" x="290.576172"/>
       <use xlink:href="#DejaVuSans-31" x="354.199219"/>
      </g>
     </g>
    </g>
    <g id="xtick_14">
     <g id="line2d_26">
      <g>
       <use xlink:href="#m3d6a1f16d2" x="543.238936" y="390.04" style="stroke: #000000; stroke-width: 0.8"/>
      </g>
     </g>
     <g id="text_18">
      <!-- 2023-01 -->
      <g transform="translate(522.347529 404.638438)scale(0.1 -0.1)">
       <use xlink:href="#DejaVuSans-32"/>
       <use xlink:href="#DejaVuSans-30" x="63.623047"/>
       <use xlink:href="#DejaVuSans-32" x="127.246094"/>
       <use xlink:href="#DejaVuSans-33" x="190.869141"/>
       <use xlink:href="#DejaVuSans-2d" x="254.492188"/>
       <use xlink:href="#DejaVuSans-30" x="290.576172"/>
       <use xlink:href="#DejaVuSans-31" x="354.199219"/>
      </g>
     </g>
    </g>
    <g id="text_19">
     <!-- Time -->
     <g transform="translate(291.573185 418.316562)scale(0.1 -0.1)">
      <defs>
       <path id="DejaVuSans-54" d="M -19 4666 
L 3928 4666 
L 3928 4134 
L 2272 4134 
L 2272 0 
L 1638 0 
L 1638 4134 
L -19 4134 
L -19 4666 
z
" transform="scale(0.015625)"/>
       <path id="DejaVuSans-69" d="M 603 3500 
L 1178 3500 
L 1178 0 
L 603 0 
L 603 3500 
z
M 603 4863 
L 1178 4863 
L 1178 4134 
L 603 4134 
L 603 4863 
z
" transform="scale(0.015625)"/>
      </defs>
      <use xlink:href="#DejaVuSans-54"/>
      <use xlink:href="#DejaVuSans-69" x="57.958984"/>
      <use xlink:href="#DejaVuSans-6d" x="85.742188"/>
      <use xlink:href="#DejaVuSans-65" x="183.154297"/>
     </g>
    </g>
   </g>
   <g id="matplotlib.axis_4">
    <g id="ytick_7">
     <g id="line2d_27">
      <g>
       <use xlink:href="#m6ff20748db" x="52.94" y="348.802333" style="stroke: #000000; stroke-width: 0.8"/>
      </g>
     </g>
     <g id="text_20">
      <!-- −5 -->
      <g transform="translate(31.197813 352.601551)scale(0.1 -0.1)">
       <use xlink:href="#DejaVuSans-2212"/>
       <use xlink:href="#DejaVuSans-35" x="83.789062"/>
      </g>
     </g>
    </g>
    <g id="ytick_8">
     <g id="line2d_28">
      <g>
       <use xlink:href="#m6ff20748db" x="52.94" y="306.914277" style="stroke: #000000; stroke-width: 0.8"/>
      </g>
     </g>
     <g id="text_21">
      <!-- 0 -->
      <g transform="translate(39.5775 310.713496)scale(0.1 -0.1)">
       <use xlink:href="#DejaVuSans-30"/>
      </g>
     </g>
    </g>
    <g id="text_22">
     <!-- DD % -->
     <g transform="translate(25.118125 360.537798)rotate(-90)scale(0.1 -0.1)">
      <defs>
       <path id="DejaVuSans-44" d="M 1259 4147 
L 1259 519 
L 2022 519 
Q 2988 519 3436 956 
Q 3884 1394 3884 2338 
Q 3884 3275 3436 3711 
Q 2988 4147 2022 4147 
L 1259 4147 
z
M 628 4666 
L 1925 4666 
Q 3281 4666 3915 4102 
Q 4550 3538 4550 2338 
Q 4550 1131 3912 565 
Q 3275 0 1925 0 
L 628 0 
L 628 4666 
z
" transform="scale(0.015625)"/>
      </defs>
      <use xlink:href="#DejaVuSans-44"/>
      <use xlink:href="#DejaVuSans-44" x="77.001953"/>
      <use xlink:href="#DejaVuSans-20" x="154.003906"/>
      <use xlink:href="#DejaVuSans-25" x="185.791016"/>
     </g>
    </g>
   </g>
   <g id="line2d_29">
    <path d="M 75.746071 306.914277 
L 77.009565 306.914277 
L 78.273059 311.435129 
L 79.536554 307.710087 
L 84.59053 306.914277 
L 85.854025 308.761776 
L 87.117519 317.002483 
L 93.43499 324.014625 
L 94.698484 347.086429 
L 95.961978 338.740017 
L 97.225473 338.965522 
L 98.488967 346.139311 
L 122.495357 346.139311 
L 123.758852 344.92725 
L 125.022346 356.43401 
L 128.812828 365.738569 
L 130.076323 363.913563 
L 131.339817 377.63565 
L 132.603311 367.774155 
L 133.866805 370.320182 
L 137.657288 386.081632 
L 138.920782 386.081632 
L 140.184277 370.068786 
L 166.717655 370.068786 
L 167.98115 357.347929 
L 169.244644 357.347929 
L 173.035126 341.386283 
L 174.298621 342.425637 
L 175.562115 342.425637 
L 176.825609 322.838175 
L 178.089103 316.321295 
L 181.879586 309.525649 
L 183.14308 309.367669 
L 184.406575 307.71043 
L 185.670069 319.843085 
L 186.933563 330.060333 
L 190.724046 325.586974 
L 191.98754 309.603504 
L 193.251034 306.914277 
L 202.095494 306.914277 
L 203.358988 319.310719 
L 204.622482 306.914277 
L 208.412965 311.144667 
L 209.676459 325.882842 
L 212.203448 318.948389 
L 218.520919 314.24002 
L 219.784413 320.85821 
L 221.047907 325.802602 
L 264.006711 325.802602 
L 266.533699 316.269308 
L 270.324182 306.914277 
L 271.587676 306.914277 
L 272.851171 311.954254 
L 274.114665 325.004044 
L 275.378159 318.108528 
L 280.432136 315.958559 
L 281.69563 311.050949 
L 282.959124 315.725296 
L 284.222619 337.45307 
L 315.809974 337.45307 
L 317.073469 342.931603 
L 318.336963 326.302918 
L 319.600457 306.914277 
L 323.39094 308.461187 
L 324.654434 311.026346 
L 325.917928 306.914277 
L 327.181422 320.278732 
L 328.444917 327.569246 
L 332.235399 321.458834 
L 333.498894 310.779401 
L 334.762388 306.914277 
L 341.079859 306.914277 
L 342.343353 320.481819 
L 343.606847 324.23257 
L 344.870342 317.803857 
L 346.133836 306.914277 
L 349.924319 306.914277 
L 351.187813 320.679962 
L 352.451307 337.430895 
L 353.714801 314.913685 
L 354.978295 317.079295 
L 358.768778 343.208195 
L 360.032272 330.724725 
L 361.295767 364.81938 
L 362.559261 316.643857 
L 363.822755 311.663815 
L 367.613238 306.914277 
L 368.876732 312.411703 
L 370.140226 327.541693 
L 371.40372 346.89968 
L 372.667215 339.42986 
L 438.368915 339.42986 
L 439.632409 325.620837 
L 440.895903 320.911797 
L 442.159397 327.335219 
L 443.422891 306.914277 
L 447.213374 312.659212 
L 448.476868 306.914277 
L 449.740363 306.914277 
L 451.003857 327.938936 
L 452.267351 329.272317 
L 456.057834 325.125773 
L 457.321328 324.364328 
L 458.584822 319.886131 
L 459.848316 318.970517 
L 461.111811 324.228409 
L 464.902293 317.756192 
L 466.165788 308.938235 
L 467.429282 314.04594 
L 468.692776 321.969521 
L 469.95627 323.318556 
L 473.746753 314.063087 
L 475.010247 317.750008 
L 476.273741 308.913125 
L 477.537236 311.527317 
L 478.80073 306.914277 
L 482.591213 306.914277 
L 483.854707 314.573615 
L 486.381695 338.634318 
L 487.645189 345.858909 
L 491.435672 348.705935 
L 492.699166 353.584993 
L 493.962661 334.754139 
L 495.226155 335.440342 
L 496.489649 344.166975 
L 500.280132 346.338965 
L 501.543626 354.519804 
L 504.070614 354.519804 
L 505.334109 355.203997 
L 509.124591 361.530136 
L 510.388086 360.437949 
L 511.65158 375.496704 
L 512.915074 381.054649 
L 514.178568 359.742117 
L 517.969051 353.017023 
L 520.496039 353.017023 
L 521.759534 360.43665 
L 531.867487 360.43665 
L 531.867487 360.43665 
" clip-path="url(#pe97a30e7c4)" style="fill: none; stroke: #0000ff; stroke-width: 1.5; stroke-linecap: square"/>
   </g>
   <g id="patch_9">
    <path d="M 52.94 390.04 
L 52.94 302.955909 
" style="fill: none; stroke: #000000; stroke-width: 0.8; stroke-linejoin: miter; stroke-linecap: square"/>
   </g>
   <g id="patch_10">
    <path d="M 554.673558 390.04 
L 554.673558 302.955909 
" style="fill: none; stroke: #000000; stroke-width: 0.8; stroke-linejoin: miter; stroke-linecap: square"/>
   </g>
   <g id="patch_11">
    <path d="M 52.94 390.04 
L 554.673558 390.04 
" style="fill: none; stroke: #000000; stroke-width: 0.8; stroke-linejoin: miter; stroke-linecap: square"/>
   </g>
   <g id="patch_12">
    <path d="M 52.94 302.955909 
L 554.673558 302.955909 
" style="fill: none; stroke: #000000; stroke-width: 0.8; stroke-linejoin: miter; stroke-linecap: square"/>
   </g>
  </g>
 </g>
 <defs>
  <clipPath id="p423955ce91">
   <rect x="52.94" y="26.88" width="501.733558" height="261.252273"/>
  </clipPath>
  <clipPath id="pe97a30e7c4">
   <rect x="52.94" y="302.955909" width="501.733558" height="87.084091"/>
  </clipPath>
 </defs>
</svg>
