<?xml version="1.0" encoding="utf-8" standalone="no"?>
<!DOCTYPE svg PUBLIC "-//W3C//DTD SVG 1.1//EN"
  "http://www.w3.org/Graphics/SVG/1.1/DTD/svg11.dtd">
<svg xmlns:xlink="http://www.w3.org/1999/xlink" width="576pt" height="432pt" viewBox="0 0 576 432" xmlns="http://www.w3.org/2000/svg" version="1.1">
 <metadata>
  <rdf:RDF xmlns:dc="http://purl.org/dc/elements/1.1/" xmlns:cc="http://creativecommons.org/ns#" xmlns:rdf="http://www.w3.org/1999/02/22-rdf-syntax-ns#">
   <cc:Work>
    <dc:type rdf:resource="http://purl.org/dc/dcmitype/StillImage"/>
    <dc:date>2023-01-15T23:56:29.528444</dc:date>
    <dc:format>image/svg+xml</dc:format>
    <dc:creator>
     <cc:Agent>
      <dc:title>Matplotlib v3.5.0, https://matplotlib.org/</dc:title>
     </cc:Agent>
    </dc:creator>
   </cc:Work>
  </rdf:RDF>
 </metadata>
 <defs>
  <style type="text/css">*{stroke-linejoin: round; stroke-linecap: butt}</style>
 </defs>
 <g id="figure_1">
  <g id="patch_1">
   <path d="M 0 432 
L 576 432 
L 576 0 
L 0 0 
z
" style="fill: #ffffff"/>
  </g>
  <g id="axes_1">
   <g id="patch_2">
    <path d="M 56 288.132273 
L 560.236818 288.132273 
L 560.236818 26.88 
L 56 26.88 
z
" style="fill: #ffffff"/>
   </g>
   <g id="matplotlib.axis_1">
    <g id="xtick_1">
     <g id="line2d_1">
      <defs>
       <path id="md9ec6cfc35" d="M 0 0 
L 0 3.5 
" style="stroke: #000000; stroke-width: 0.8"/>
      </defs>
      <g>
       <use xlink:href="#md9ec6cfc35" x="77.64653" y="288.132273" style="stroke: #000000; stroke-width: 0.8"/>
      </g>
     </g>
    </g>
    <g id="xtick_2">
     <g id="line2d_2">
      <g>
       <use xlink:href="#md9ec6cfc35" x="152.772723" y="288.132273" style="stroke: #000000; stroke-width: 0.8"/>
      </g>
     </g>
    </g>
    <g id="xtick_3">
     <g id="line2d_3">
      <g>
       <use xlink:href="#md9ec6cfc35" x="230.445566" y="288.132273" style="stroke: #000000; stroke-width: 0.8"/>
      </g>
     </g>
    </g>
    <g id="xtick_4">
     <g id="line2d_4">
      <g>
       <use xlink:href="#md9ec6cfc35" x="308.118409" y="288.132273" style="stroke: #000000; stroke-width: 0.8"/>
      </g>
     </g>
    </g>
    <g id="xtick_5">
     <g id="line2d_5">
      <g>
       <use xlink:href="#md9ec6cfc35" x="387.064578" y="288.132273" style="stroke: #000000; stroke-width: 0.8"/>
      </g>
     </g>
    </g>
    <g id="xtick_6">
     <g id="line2d_6">
      <g>
       <use xlink:href="#md9ec6cfc35" x="464.737421" y="288.132273" style="stroke: #000000; stroke-width: 0.8"/>
      </g>
     </g>
    </g>
    <g id="xtick_7">
     <g id="line2d_7">
      <g>
       <use xlink:href="#md9ec6cfc35" x="542.410264" y="288.132273" style="stroke: #000000; stroke-width: 0.8"/>
      </g>
     </g>
    </g>
   </g>
   <g id="matplotlib.axis_2">
    <g id="ytick_1">
     <g id="line2d_8">
      <defs>
       <path id="ma1aafa72b9" d="M 0 0 
L -3.5 0 
" style="stroke: #000000; stroke-width: 0.8"/>
      </defs>
      <g>
       <use xlink:href="#ma1aafa72b9" x="56" y="251.372132" style="stroke: #000000; stroke-width: 0.8"/>
      </g>
     </g>
     <g id="text_1">
      <!-- −5 -->
      <g transform="translate(34.257812 255.171351)scale(0.1 -0.1)">
       <defs>
        <path id="DejaVuSans-2212" d="M 678 2272 
L 4684 2272 
L 4684 1741 
L 678 1741 
L 678 2272 
z
" transform="scale(0.015625)"/>
        <path id="DejaVuSans-35" d="M 691 4666 
L 3169 4666 
L 3169 4134 
L 1269 4134 
L 1269 2991 
Q 1406 3038 1543 3061 
Q 1681 3084 1819 3084 
Q 2600 3084 3056 2656 
Q 3513 2228 3513 1497 
Q 3513 744 3044 326 
Q 2575 -91 1722 -91 
Q 1428 -91 1123 -41 
Q 819 9 494 109 
L 494 744 
Q 775 591 1075 516 
Q 1375 441 1709 441 
Q 2250 441 2565 725 
Q 2881 1009 2881 1497 
Q 2881 1984 2565 2268 
Q 2250 2553 1709 2553 
Q 1456 2553 1204 2497 
Q 953 2441 691 2322 
L 691 4666 
z
" transform="scale(0.015625)"/>
       </defs>
       <use xlink:href="#DejaVuSans-2212"/>
       <use xlink:href="#DejaVuSans-35" x="83.789062"/>
      </g>
     </g>
    </g>
    <g id="ytick_2">
     <g id="line2d_9">
      <g>
       <use xlink:href="#ma1aafa72b9" x="56" y="212.010936" style="stroke: #000000; stroke-width: 0.8"/>
      </g>
     </g>
     <g id="text_2">
      <!-- 0 -->
      <g transform="translate(42.6375 215.810155)scale(0.1 -0.1)">
       <defs>
        <path id="DejaVuSans-30" d="M 2034 4250 
Q 1547 4250 1301 3770 
Q 1056 3291 1056 2328 
Q 1056 1369 1301 889 
Q 1547 409 2034 409 
Q 2525 409 2770 889 
Q 3016 1369 3016 2328 
Q 3016 3291 2770 3770 
Q 2525 4250 2034 4250 
z
M 2034 4750 
Q 2819 4750 3233 4129 
Q 3647 3509 3647 2328 
Q 3647 1150 3233 529 
Q 2819 -91 2034 -91 
Q 1250 -91 836 529 
Q 422 1150 422 2328 
Q 422 3509 836 4129 
Q 1250 4750 2034 4750 
z
" transform="scale(0.015625)"/>
       </defs>
       <use xlink:href="#DejaVuSans-30"/>
      </g>
     </g>
    </g>
    <g id="ytick_3">
     <g id="line2d_10">
      <g>
       <use xlink:href="#ma1aafa72b9" x="56" y="172.649739" style="stroke: #000000; stroke-width: 0.8"/>
      </g>
     </g>
     <g id="text_3">
      <!-- 5 -->
      <g transform="translate(42.6375 176.448958)scale(0.1 -0.1)">
       <use xlink:href="#DejaVuSans-35"/>
      </g>
     </g>
    </g>
    <g id="ytick_4">
     <g id="line2d_11">
      <g>
       <use xlink:href="#ma1aafa72b9" x="56" y="133.288543" style="stroke: #000000; stroke-width: 0.8"/>
      </g>
     </g>
     <g id="text_4">
      <!-- 10 -->
      <g transform="translate(36.275 137.087762)scale(0.1 -0.1)">
       <defs>
        <path id="DejaVuSans-31" d="M 794 531 
L 1825 531 
L 1825 4091 
L 703 3866 
L 703 4441 
L 1819 4666 
L 2450 4666 
L 2450 531 
L 3481 531 
L 3481 0 
L 794 0 
L 794 531 
z
" transform="scale(0.015625)"/>
       </defs>
       <use xlink:href="#DejaVuSans-31"/>
       <use xlink:href="#DejaVuSans-30" x="63.623047"/>
      </g>
     </g>
    </g>
    <g id="ytick_5">
     <g id="line2d_12">
      <g>
       <use xlink:href="#ma1aafa72b9" x="56" y="93.927347" style="stroke: #000000; stroke-width: 0.8"/>
      </g>
     </g>
     <g id="text_5">
      <!-- 15 -->
      <g transform="translate(36.275 97.726565)scale(0.1 -0.1)">
       <use xlink:href="#DejaVuSans-31"/>
       <use xlink:href="#DejaVuSans-35" x="63.623047"/>
      </g>
     </g>
    </g>
    <g id="ytick_6">
     <g id="line2d_13">
      <g>
       <use xlink:href="#ma1aafa72b9" x="56" y="54.56615" style="stroke: #000000; stroke-width: 0.8"/>
      </g>
     </g>
     <g id="text_6">
      <!-- 20 -->
      <g transform="translate(36.275 58.365369)scale(0.1 -0.1)">
       <defs>
        <path id="DejaVuSans-32" d="M 1228 531 
L 3431 531 
L 3431 0 
L 469 0 
L 469 531 
Q 828 903 1448 1529 
Q 2069 2156 2228 2338 
Q 2531 2678 2651 2914 
Q 2772 3150 2772 3378 
Q 2772 3750 2511 3984 
Q 2250 4219 1831 4219 
Q 1534 4219 1204 4116 
Q 875 4013 500 3803 
L 500 4441 
Q 881 4594 1212 4672 
Q 1544 4750 1819 4750 
Q 2544 4750 2975 4387 
Q 3406 4025 3406 3419 
Q 3406 3131 3298 2873 
Q 3191 2616 2906 2266 
Q 2828 2175 2409 1742 
Q 1991 1309 1228 531 
z
" transform="scale(0.015625)"/>
       </defs>
       <use xlink:href="#DejaVuSans-32"/>
       <use xlink:href="#DejaVuSans-30" x="63.623047"/>
      </g>
     </g>
    </g>
    <g id="text_7">
     <!-- Return [%] -->
     <g transform="translate(28.178125 184.338949)rotate(-90)scale(0.1 -0.1)">
      <defs>
       <path id="DejaVuSans-52" d="M 2841 2188 
Q 3044 2119 3236 1894 
Q 3428 1669 3622 1275 
L 4263 0 
L 3584 0 
L 2988 1197 
Q 2756 1666 2539 1819 
Q 2322 1972 1947 1972 
L 1259 1972 
L 1259 0 
L 628 0 
L 628 4666 
L 2053 4666 
Q 2853 4666 3247 4331 
Q 3641 3997 3641 3322 
Q 3641 2881 3436 2590 
Q 3231 2300 2841 2188 
z
M 1259 4147 
L 1259 2491 
L 2053 2491 
Q 2509 2491 2742 2702 
Q 2975 2913 2975 3322 
Q 2975 3731 2742 3939 
Q 2509 4147 2053 4147 
L 1259 4147 
z
" transform="scale(0.015625)"/>
       <path id="DejaVuSans-65" d="M 3597 1894 
L 3597 1613 
L 953 1613 
Q 991 1019 1311 708 
Q 1631 397 2203 397 
Q 2534 397 2845 478 
Q 3156 559 3463 722 
L 3463 178 
Q 3153 47 2828 -22 
Q 2503 -91 2169 -91 
Q 1331 -91 842 396 
Q 353 884 353 1716 
Q 353 2575 817 3079 
Q 1281 3584 2069 3584 
Q 2775 3584 3186 3129 
Q 3597 2675 3597 1894 
z
M 3022 2063 
Q 3016 2534 2758 2815 
Q 2500 3097 2075 3097 
Q 1594 3097 1305 2825 
Q 1016 2553 972 2059 
L 3022 2063 
z
" transform="scale(0.015625)"/>
       <path id="DejaVuSans-74" d="M 1172 4494 
L 1172 3500 
L 2356 3500 
L 2356 3053 
L 1172 3053 
L 1172 1153 
Q 1172 725 1289 603 
Q 1406 481 1766 481 
L 2356 481 
L 2356 0 
L 1766 0 
Q 1100 0 847 248 
Q 594 497 594 1153 
L 594 3053 
L 172 3053 
L 172 3500 
L 594 3500 
L 594 4494 
L 1172 4494 
z
" transform="scale(0.015625)"/>
       <path id="DejaVuSans-75" d="M 544 1381 
L 544 3500 
L 1119 3500 
L 1119 1403 
Q 1119 906 1312 657 
Q 1506 409 1894 409 
Q 2359 409 2629 706 
Q 2900 1003 2900 1516 
L 2900 3500 
L 3475 3500 
L 3475 0 
L 2900 0 
L 2900 538 
Q 2691 219 2414 64 
Q 2138 -91 1772 -91 
Q 1169 -91 856 284 
Q 544 659 544 1381 
z
M 1991 3584 
L 1991 3584 
z
" transform="scale(0.015625)"/>
       <path id="DejaVuSans-72" d="M 2631 2963 
Q 2534 3019 2420 3045 
Q 2306 3072 2169 3072 
Q 1681 3072 1420 2755 
Q 1159 2438 1159 1844 
L 1159 0 
L 581 0 
L 581 3500 
L 1159 3500 
L 1159 2956 
Q 1341 3275 1631 3429 
Q 1922 3584 2338 3584 
Q 2397 3584 2469 3576 
Q 2541 3569 2628 3553 
L 2631 2963 
z
" transform="scale(0.015625)"/>
       <path id="DejaVuSans-6e" d="M 3513 2113 
L 3513 0 
L 2938 0 
L 2938 2094 
Q 2938 2591 2744 2837 
Q 2550 3084 2163 3084 
Q 1697 3084 1428 2787 
Q 1159 2491 1159 1978 
L 1159 0 
L 581 0 
L 581 3500 
L 1159 3500 
L 1159 2956 
Q 1366 3272 1645 3428 
Q 1925 3584 2291 3584 
Q 2894 3584 3203 3211 
Q 3513 2838 3513 2113 
z
" transform="scale(0.015625)"/>
       <path id="DejaVuSans-20" transform="scale(0.015625)"/>
       <path id="DejaVuSans-5b" d="M 550 4863 
L 1875 4863 
L 1875 4416 
L 1125 4416 
L 1125 -397 
L 1875 -397 
L 1875 -844 
L 550 -844 
L 550 4863 
z
" transform="scale(0.015625)"/>
       <path id="DejaVuSans-25" d="M 4653 2053 
Q 4381 2053 4226 1822 
Q 4072 1591 4072 1178 
Q 4072 772 4226 539 
Q 4381 306 4653 306 
Q 4919 306 5073 539 
Q 5228 772 5228 1178 
Q 5228 1588 5073 1820 
Q 4919 2053 4653 2053 
z
M 4653 2450 
Q 5147 2450 5437 2106 
Q 5728 1763 5728 1178 
Q 5728 594 5436 251 
Q 5144 -91 4653 -91 
Q 4153 -91 3862 251 
Q 3572 594 3572 1178 
Q 3572 1766 3864 2108 
Q 4156 2450 4653 2450 
z
M 1428 4353 
Q 1159 4353 1004 4120 
Q 850 3888 850 3481 
Q 850 3069 1003 2837 
Q 1156 2606 1428 2606 
Q 1700 2606 1854 2837 
Q 2009 3069 2009 3481 
Q 2009 3884 1853 4118 
Q 1697 4353 1428 4353 
z
M 4250 4750 
L 4750 4750 
L 1831 -91 
L 1331 -91 
L 4250 4750 
z
M 1428 4750 
Q 1922 4750 2215 4408 
Q 2509 4066 2509 3481 
Q 2509 2891 2217 2550 
Q 1925 2209 1428 2209 
Q 931 2209 642 2551 
Q 353 2894 353 3481 
Q 353 4063 643 4406 
Q 934 4750 1428 4750 
z
" transform="scale(0.015625)"/>
       <path id="DejaVuSans-5d" d="M 1947 4863 
L 1947 -844 
L 622 -844 
L 622 -397 
L 1369 -397 
L 1369 4416 
L 622 4416 
L 622 4863 
L 1947 4863 
z
" transform="scale(0.015625)"/>
      </defs>
      <use xlink:href="#DejaVuSans-52"/>
      <use xlink:href="#DejaVuSans-65" x="64.982422"/>
      <use xlink:href="#DejaVuSans-74" x="126.505859"/>
      <use xlink:href="#DejaVuSans-75" x="165.714844"/>
      <use xlink:href="#DejaVuSans-72" x="229.09375"/>
      <use xlink:href="#DejaVuSans-6e" x="268.457031"/>
      <use xlink:href="#DejaVuSans-20" x="331.835938"/>
      <use xlink:href="#DejaVuSans-5b" x="363.623047"/>
      <use xlink:href="#DejaVuSans-25" x="402.636719"/>
      <use xlink:href="#DejaVuSans-5d" x="497.65625"/>
     </g>
    </g>
   </g>
   <g id="line2d_14">
    <path d="M 78.919855 200.448947 
L 80.193181 204.387571 
L 81.466506 210.42588 
L 82.739831 212.045244 
L 86.559807 213.925354 
L 87.833132 214.879133 
L 89.106458 221.768294 
L 90.379783 203.248526 
L 91.653108 203.646506 
L 95.473084 193.758775 
L 96.74641 195.981971 
L 98.019735 192.365847 
L 99.29306 193.950903 
L 100.566385 189.161426 
L 104.386361 188.626213 
L 105.659687 192.894199 
L 106.933012 191.000366 
L 108.206337 185.559026 
L 109.479663 191.370898 
L 113.299638 190.321056 
L 114.572964 182.512425 
L 115.846289 185.449239 
L 117.119614 181.517476 
L 118.39294 184.687588 
L 122.212916 180.879337 
L 123.486241 175.122358 
L 124.759566 171.698363 
L 126.032891 180.206889 
L 127.306217 175.040018 
L 131.126193 184.667003 
L 132.399518 182.622212 
L 133.672843 167.430376 
L 134.946169 161.851802 
L 136.219494 165.509096 
L 140.03947 161.110737 
L 141.312795 167.958728 
L 142.58612 170.84751 
L 143.859446 170.52501 
L 145.132771 163.258454 
L 148.952747 155.484131 
L 150.226072 187.445998 
L 151.499397 204.758104 
L 152.772723 209.328005 
L 154.046048 203.58475 
L 157.866024 211.558063 
L 159.139349 211.118913 
L 160.412674 200.229372 
L 161.686 184.584663 
L 162.959325 183.459341 
L 166.779301 181.640987 
L 168.052626 192.468773 
L 169.325952 219.174566 
L 170.599277 198.658039 
L 171.872602 198.486496 
L 176.965903 178.395396 
L 178.239229 172.624694 
L 179.512554 159.656054 
L 180.785879 160.836269 
L 184.605855 171.533682 
L 185.87918 165.790426 
L 187.152506 175.046879 
L 188.425831 166.030586 
L 189.699156 165.941384 
L 193.519132 158.00238 
L 194.792458 144.560282 
L 196.065783 147.401031 
L 197.339108 146.886403 
L 203.705735 137.58878 
L 204.97906 142.076341 
L 206.252385 139.317932 
L 207.525711 132.236642 
L 211.345686 122.554763 
L 212.619012 122.122475 
L 213.892337 126.596313 
L 215.165662 129.594882 
L 216.438988 119.439544 
L 220.258963 122.012687 
L 221.532289 133.979518 
L 222.805614 131.413236 
L 224.078939 124.50349 
L 225.352265 131.495577 
L 229.172241 125.169076 
L 231.718891 129.313552 
L 232.992216 136.888885 
L 234.265542 131.783769 
L 238.085518 125.999344 
L 239.358843 147.977415 
L 240.632168 148.588108 
L 241.905494 160.946056 
L 243.178819 148.11465 
L 246.998795 138.467079 
L 248.27212 136.305639 
L 249.545445 135.159733 
L 252.092096 128.167645 
L 255.912072 132.394462 
L 257.185397 137.753461 
L 258.458722 121.504921 
L 259.732048 125.676843 
L 261.005373 128.455837 
L 264.825349 124.3045 
L 266.098674 127.10408 
L 267.372 133.78739 
L 269.91865 112.687617 
L 273.738626 117.628052 
L 275.011951 120.22178 
L 277.558602 153.322691 
L 278.831927 149.130183 
L 282.651903 141.726393 
L 283.925228 150.166302 
L 285.198554 145.342517 
L 286.471879 129.354722 
L 287.745204 123.659499 
L 291.56518 115.384271 
L 292.838506 123.26152 
L 294.111831 121.950932 
L 295.385156 139.544368 
L 300.478457 141.410755 
L 301.751783 145.31507 
L 303.025108 147.545127 
L 304.298433 136.072341 
L 305.571758 138.185749 
L 309.391734 138.439632 
L 310.66506 124.716203 
L 311.938385 121.285346 
L 313.21171 125.004395 
L 314.485036 122.046996 
L 318.305011 111.843626 
L 319.578337 117.518264 
L 320.851662 117.792733 
L 322.124987 102.202917 
L 323.398313 101.201107 
L 327.218289 99.067114 
L 328.491614 107.019841 
L 329.764939 112.872884 
L 331.038264 105.180902 
L 332.31159 118.760235 
L 336.131566 111.89852 
L 338.678216 137.918142 
L 339.951542 167.361759 
L 341.224867 165.220904 
L 345.044843 156.348707 
L 346.318168 145.726773 
L 347.591493 161.364621 
L 348.864819 151.223006 
L 350.138144 161.584195 
L 353.95812 173.194216 
L 355.231445 164.459254 
L 356.50477 145.987518 
L 357.778096 169.015432 
L 359.051421 196.359365 
L 362.871397 172.08948 
L 364.144722 180.103963 
L 365.418048 187.185253 
L 366.691373 213.273491 
L 367.964698 201.073363 
L 371.784674 192.146272 
L 373.057999 196.242716 
L 374.331325 181.325348 
L 375.60465 177.324969 
L 376.877975 169.097773 
L 380.697951 175.314486 
L 381.971276 195.803566 
L 383.244602 184.564078 
L 384.517927 175.074326 
L 385.791252 166.744205 
L 389.611228 160.52063 
L 390.884553 157.933763 
L 392.157879 177.44848 
L 393.431204 182.231095 
L 394.704529 203.310282 
L 398.524505 212.058968 
L 399.797831 194.753724 
L 401.071156 189.140841 
L 402.344481 178.141513 
L 403.617806 189.717225 
L 407.437782 202.761345 
L 408.711108 190.259301 
L 409.984433 160.891162 
L 411.257758 170.120168 
L 412.531084 167.224525 
L 416.351059 176.858372 
L 417.624385 186.471634 
L 418.89771 178.120928 
L 420.171035 163.999519 
L 421.444361 161.048982 
L 425.264337 155.724291 
L 426.537662 151.216145 
L 427.810987 147.167733 
L 429.084312 145.884592 
L 430.357638 136.237022 
L 434.177614 140.292295 
L 435.450939 135.626329 
L 436.724264 134.384359 
L 437.99759 129.375307 
L 439.270915 134.452976 
L 443.090891 141.760702 
L 444.364216 173.118738 
L 445.637541 171.121979 
L 446.910867 184.502322 
L 448.184192 196.626972 
L 452.004168 212.971576 
L 453.277493 192.715794 
L 454.550818 204.078794 
L 455.824144 194.712553 
L 457.097469 194.143031 
L 460.917445 191.871804 
L 462.19077 196.174099 
L 463.464096 187.356795 
L 466.010746 207.928216 
L 469.830722 204.957093 
L 471.104047 201.073363 
L 472.377373 209.876943 
L 473.650698 213.232321 
L 474.924023 234.091933 
L 478.743999 226.605803 
L 480.017324 230.523842 
L 481.29065 229.645542 
L 482.563975 242.669077 
L 483.8373 246.717488 
L 487.657276 267.954495 
L 488.930601 260.262513 
L 490.203927 272.524397 
L 491.477252 276.257169 
L 496.570553 270.074765 
L 497.843879 272.833174 
L 499.117204 248.316268 
L 500.390529 245.056953 
L 501.663854 239.84205 
L 505.48383 242.806311 
L 506.757156 257.332561 
L 508.030481 243.16312 
L 509.303806 240.857584 
L 510.577132 230.928683 
L 514.397107 223.243563 
L 515.670433 222.776966 
L 516.943758 223.943457 
L 518.217083 242.991577 
L 519.490409 246.031317 
L 523.310385 266.506673 
L 524.58371 268.723007 
L 525.857035 268.825933 
L 527.13036 271.899981 
L 528.403686 258.903893 
L 536.043638 262.520017 
L 537.316963 257.181603 
L 537.316963 257.181603 
" clip-path="url(#p97541fec3f)" style="fill: none; stroke: #008000; stroke-width: 1.5; stroke-linecap: square"/>
   </g>
   <g id="line2d_15">
    <path d="M 78.919855 213.225125 
L 80.193181 210.490288 
L 81.466506 208.40244 
L 82.739831 208.729908 
L 86.559807 209.914918 
L 87.833132 204.983116 
L 89.106458 202.631719 
L 91.653108 194.658677 
L 95.473084 194.058824 
L 96.74641 177.379342 
L 98.019735 169.221072 
L 100.566385 172.973682 
L 104.386361 168.108484 
L 105.659687 166.929923 
L 106.933012 169.66339 
L 108.206337 170.200654 
L 109.479663 173.002838 
L 113.299638 169.787829 
L 114.572964 169.969664 
L 115.846289 168.288057 
L 117.119614 165.809087 
L 118.39294 159.334114 
L 122.212916 156.739958 
L 123.486241 157.03044 
L 124.759566 149.588329 
L 126.032891 150.523652 
L 127.306217 158.003171 
L 131.126193 153.957428 
L 132.399518 158.357573 
L 133.672843 151.426498 
L 134.946169 143.412638 
L 136.219494 141.833441 
L 140.03947 135.163188 
L 141.312795 134.840473 
L 142.58612 138.479125 
L 143.859446 139.069745 
L 145.132771 149.944425 
L 148.952747 149.944425 
L 150.226072 166.953679 
L 175.692578 166.953679 
L 176.965903 159.025775 
L 178.239229 149.116691 
L 179.512554 135.552256 
L 180.785879 135.07063 
L 184.605855 133.480754 
L 185.87918 136.53639 
L 187.152506 141.217672 
L 188.425831 133.078801 
L 189.699156 130.93145 
L 193.519132 137.285574 
L 194.792458 118.509372 
L 196.065783 120.451052 
L 197.339108 122.662229 
L 203.705735 114.327866 
L 204.97906 113.024971 
L 206.252385 112.354585 
L 207.525711 106.016808 
L 211.345686 107.789818 
L 212.619012 101.066336 
L 213.892337 96.112095 
L 215.165662 109.965408 
L 216.438988 109.050475 
L 220.258963 97.670454 
L 221.532289 102.035231 
L 222.805614 111.881313 
L 224.078939 117.322839 
L 225.352265 121.360497 
L 229.172241 125.795938 
L 231.718891 124.627674 
L 232.992216 119.014698 
L 234.265542 122.875222 
L 238.085518 114.727581 
L 239.358843 107.244418 
L 240.632168 112.759142 
L 241.905494 111.236879 
L 257.185397 111.236879 
L 258.458722 116.868909 
L 259.732048 117.488802 
L 261.005373 124.54523 
L 264.825349 115.477015 
L 266.098674 116.589493 
L 267.372 120.278822 
L 268.645325 114.651464 
L 269.91865 105.352295 
L 273.738626 105.148423 
L 275.011951 103.094823 
L 277.558602 119.791261 
L 278.831927 146.161976 
L 282.651903 129.336853 
L 283.925228 128.155325 
L 285.198554 136.971211 
L 286.471879 129.962004 
L 287.745204 120.911116 
L 291.56518 124.92379 
L 292.838506 130.947953 
L 294.111831 131.810219 
L 301.751783 131.810219 
L 303.025108 126.768415 
L 304.298433 127.48703 
L 305.571758 122.135772 
L 309.391734 123.209515 
L 310.66506 114.568589 
L 311.938385 114.048208 
L 313.21171 110.191198 
L 314.485036 110.191198 
L 318.305011 104.073424 
L 319.578337 101.153908 
L 320.851662 112.660344 
L 322.124987 104.733533 
L 323.398313 81.676232 
L 327.218289 82.457402 
L 328.491614 90.794592 
L 329.764939 85.500761 
L 331.038264 88.97941 
L 332.31159 93.57189 
L 336.131566 99.805536 
L 337.404891 95.092766 
L 374.331325 95.092766 
L 375.60465 83.059284 
L 376.877975 76.673601 
L 380.697951 62.610261 
L 381.971276 69.691367 
L 383.244602 83.016025 
L 384.517927 58.231324 
L 385.791252 46.270362 
L 389.611228 38.755103 
L 390.884553 40.863106 
L 392.157879 39.065572 
L 393.431204 45.738352 
L 398.524505 82.311874 
L 399.797831 82.400159 
L 401.071156 78.211056 
L 402.344481 79.345053 
L 403.617806 68.665481 
L 407.437782 79.600511 
L 408.711108 89.130099 
L 409.984433 89.130099 
L 411.257758 93.786649 
L 412.531084 93.786649 
L 416.351059 88.969507 
L 417.624385 93.74593 
L 418.89771 94.840446 
L 420.171035 81.978293 
L 421.444361 81.158118 
L 425.264337 79.556316 
L 426.537662 66.573887 
L 429.084312 74.285989 
L 430.357638 71.874631 
L 434.177614 60.103955 
L 435.450939 66.680872 
L 437.99759 59.662991 
L 439.270915 59.363158 
L 443.090891 51.886067 
L 444.364216 77.840416 
L 445.637541 78.1796 
L 446.910867 74.765661 
L 448.184192 75.920092 
L 508.030481 75.920092 
L 509.303806 62.957296 
L 510.577132 63.195087 
L 514.397107 57.606877 
L 515.670433 54.107542 
L 516.943758 67.381883 
L 518.217083 69.086842 
L 519.490409 78.513839 
L 537.316963 78.513839 
L 537.316963 78.513839 
" clip-path="url(#p97541fec3f)" style="fill: none; stroke: #0000ff; stroke-width: 1.5; stroke-linecap: square"/>
   </g>
   <g id="line2d_16">
    <path d="M 78.919855 213.225125 
L 80.193181 210.490288 
L 81.466506 208.40244 
L 86.559807 208.40244 
L 87.833132 204.983116 
L 89.106458 202.631719 
L 91.653108 194.658677 
L 95.473084 194.058824 
L 96.74641 177.379342 
L 98.019735 169.221072 
L 100.566385 169.221072 
L 104.386361 168.108484 
L 105.659687 166.929923 
L 115.846289 166.929923 
L 117.119614 165.809087 
L 118.39294 159.334114 
L 122.212916 156.739958 
L 123.486241 156.739958 
L 124.759566 149.588329 
L 133.672843 149.588329 
L 134.946169 143.412638 
L 136.219494 141.833441 
L 140.03947 135.163188 
L 141.312795 134.840473 
L 180.785879 134.840473 
L 184.605855 133.480754 
L 187.152506 133.480754 
L 188.425831 133.078801 
L 189.699156 130.93145 
L 193.519132 130.93145 
L 194.792458 118.509372 
L 197.339108 118.509372 
L 203.705735 114.327866 
L 204.97906 113.024971 
L 206.252385 112.354585 
L 207.525711 106.016808 
L 211.345686 106.016808 
L 213.892337 96.112095 
L 322.124987 96.112095 
L 323.398313 81.676232 
L 375.60465 81.676232 
L 376.877975 76.673601 
L 380.697951 62.610261 
L 383.244602 62.610261 
L 384.517927 58.231324 
L 385.791252 46.270362 
L 389.611228 38.755103 
L 537.316963 38.755103 
L 537.316963 38.755103 
" clip-path="url(#p97541fec3f)" style="fill: none; stroke: #ff0000; stroke-width: 1.5; stroke-linecap: square"/>
   </g>
   <g id="patch_3">
    <path d="M 56 288.132273 
L 56 26.88 
" style="fill: none; stroke: #000000; stroke-width: 0.8; stroke-linejoin: miter; stroke-linecap: square"/>
   </g>
   <g id="patch_4">
    <path d="M 560.236818 288.132273 
L 560.236818 26.88 
" style="fill: none; stroke: #000000; stroke-width: 0.8; stroke-linejoin: miter; stroke-linecap: square"/>
   </g>
   <g id="patch_5">
    <path d="M 56 288.132273 
L 560.236818 288.132273 
" style="fill: none; stroke: #000000; stroke-width: 0.8; stroke-linejoin: miter; stroke-linecap: square"/>
   </g>
   <g id="patch_6">
    <path d="M 56 26.88 
L 560.236818 26.88 
" style="fill: none; stroke: #000000; stroke-width: 0.8; stroke-linejoin: miter; stroke-linecap: square"/>
   </g>
   <g id="text_8">
    <!-- Performance of AVAN-strategy year 2007 -->
    <g transform="translate(184.805284 20.88)scale(0.12 -0.12)">
     <defs>
      <path id="DejaVuSans-50" d="M 1259 4147 
L 1259 2394 
L 2053 2394 
Q 2494 2394 2734 2622 
Q 2975 2850 2975 3272 
Q 2975 3691 2734 3919 
Q 2494 4147 2053 4147 
L 1259 4147 
z
M 628 4666 
L 2053 4666 
Q 2838 4666 3239 4311 
Q 3641 3956 3641 3272 
Q 3641 2581 3239 2228 
Q 2838 1875 2053 1875 
L 1259 1875 
L 1259 0 
L 628 0 
L 628 4666 
z
" transform="scale(0.015625)"/>
      <path id="DejaVuSans-66" d="M 2375 4863 
L 2375 4384 
L 1825 4384 
Q 1516 4384 1395 4259 
Q 1275 4134 1275 3809 
L 1275 3500 
L 2222 3500 
L 2222 3053 
L 1275 3053 
L 1275 0 
L 697 0 
L 697 3053 
L 147 3053 
L 147 3500 
L 697 3500 
L 697 3744 
Q 697 4328 969 4595 
Q 1241 4863 1831 4863 
L 2375 4863 
z
" transform="scale(0.015625)"/>
      <path id="DejaVuSans-6f" d="M 1959 3097 
Q 1497 3097 1228 2736 
Q 959 2375 959 1747 
Q 959 1119 1226 758 
Q 1494 397 1959 397 
Q 2419 397 2687 759 
Q 2956 1122 2956 1747 
Q 2956 2369 2687 2733 
Q 2419 3097 1959 3097 
z
M 1959 3584 
Q 2709 3584 3137 3096 
Q 3566 2609 3566 1747 
Q 3566 888 3137 398 
Q 2709 -91 1959 -91 
Q 1206 -91 779 398 
Q 353 888 353 1747 
Q 353 2609 779 3096 
Q 1206 3584 1959 3584 
z
" transform="scale(0.015625)"/>
      <path id="DejaVuSans-6d" d="M 3328 2828 
Q 3544 3216 3844 3400 
Q 4144 3584 4550 3584 
Q 5097 3584 5394 3201 
Q 5691 2819 5691 2113 
L 5691 0 
L 5113 0 
L 5113 2094 
Q 5113 2597 4934 2840 
Q 4756 3084 4391 3084 
Q 3944 3084 3684 2787 
Q 3425 2491 3425 1978 
L 3425 0 
L 2847 0 
L 2847 2094 
Q 2847 2600 2669 2842 
Q 2491 3084 2119 3084 
Q 1678 3084 1418 2786 
Q 1159 2488 1159 1978 
L 1159 0 
L 581 0 
L 581 3500 
L 1159 3500 
L 1159 2956 
Q 1356 3278 1631 3431 
Q 1906 3584 2284 3584 
Q 2666 3584 2933 3390 
Q 3200 3197 3328 2828 
z
" transform="scale(0.015625)"/>
      <path id="DejaVuSans-61" d="M 2194 1759 
Q 1497 1759 1228 1600 
Q 959 1441 959 1056 
Q 959 750 1161 570 
Q 1363 391 1709 391 
Q 2188 391 2477 730 
Q 2766 1069 2766 1631 
L 2766 1759 
L 2194 1759 
z
M 3341 1997 
L 3341 0 
L 2766 0 
L 2766 531 
Q 2569 213 2275 61 
Q 1981 -91 1556 -91 
Q 1019 -91 701 211 
Q 384 513 384 1019 
Q 384 1609 779 1909 
Q 1175 2209 1959 2209 
L 2766 2209 
L 2766 2266 
Q 2766 2663 2505 2880 
Q 2244 3097 1772 3097 
Q 1472 3097 1187 3025 
Q 903 2953 641 2809 
L 641 3341 
Q 956 3463 1253 3523 
Q 1550 3584 1831 3584 
Q 2591 3584 2966 3190 
Q 3341 2797 3341 1997 
z
" transform="scale(0.015625)"/>
      <path id="DejaVuSans-63" d="M 3122 3366 
L 3122 2828 
Q 2878 2963 2633 3030 
Q 2388 3097 2138 3097 
Q 1578 3097 1268 2742 
Q 959 2388 959 1747 
Q 959 1106 1268 751 
Q 1578 397 2138 397 
Q 2388 397 2633 464 
Q 2878 531 3122 666 
L 3122 134 
Q 2881 22 2623 -34 
Q 2366 -91 2075 -91 
Q 1284 -91 818 406 
Q 353 903 353 1747 
Q 353 2603 823 3093 
Q 1294 3584 2113 3584 
Q 2378 3584 2631 3529 
Q 2884 3475 3122 3366 
z
" transform="scale(0.015625)"/>
      <path id="DejaVuSans-41" d="M 2188 4044 
L 1331 1722 
L 3047 1722 
L 2188 4044 
z
M 1831 4666 
L 2547 4666 
L 4325 0 
L 3669 0 
L 3244 1197 
L 1141 1197 
L 716 0 
L 50 0 
L 1831 4666 
z
" transform="scale(0.015625)"/>
      <path id="DejaVuSans-56" d="M 1831 0 
L 50 4666 
L 709 4666 
L 2188 738 
L 3669 4666 
L 4325 4666 
L 2547 0 
L 1831 0 
z
" transform="scale(0.015625)"/>
      <path id="DejaVuSans-4e" d="M 628 4666 
L 1478 4666 
L 3547 763 
L 3547 4666 
L 4159 4666 
L 4159 0 
L 3309 0 
L 1241 3903 
L 1241 0 
L 628 0 
L 628 4666 
z
" transform="scale(0.015625)"/>
      <path id="DejaVuSans-2d" d="M 313 2009 
L 1997 2009 
L 1997 1497 
L 313 1497 
L 313 2009 
z
" transform="scale(0.015625)"/>
      <path id="DejaVuSans-73" d="M 2834 3397 
L 2834 2853 
Q 2591 2978 2328 3040 
Q 2066 3103 1784 3103 
Q 1356 3103 1142 2972 
Q 928 2841 928 2578 
Q 928 2378 1081 2264 
Q 1234 2150 1697 2047 
L 1894 2003 
Q 2506 1872 2764 1633 
Q 3022 1394 3022 966 
Q 3022 478 2636 193 
Q 2250 -91 1575 -91 
Q 1294 -91 989 -36 
Q 684 19 347 128 
L 347 722 
Q 666 556 975 473 
Q 1284 391 1588 391 
Q 1994 391 2212 530 
Q 2431 669 2431 922 
Q 2431 1156 2273 1281 
Q 2116 1406 1581 1522 
L 1381 1569 
Q 847 1681 609 1914 
Q 372 2147 372 2553 
Q 372 3047 722 3315 
Q 1072 3584 1716 3584 
Q 2034 3584 2315 3537 
Q 2597 3491 2834 3397 
z
" transform="scale(0.015625)"/>
      <path id="DejaVuSans-67" d="M 2906 1791 
Q 2906 2416 2648 2759 
Q 2391 3103 1925 3103 
Q 1463 3103 1205 2759 
Q 947 2416 947 1791 
Q 947 1169 1205 825 
Q 1463 481 1925 481 
Q 2391 481 2648 825 
Q 2906 1169 2906 1791 
z
M 3481 434 
Q 3481 -459 3084 -895 
Q 2688 -1331 1869 -1331 
Q 1566 -1331 1297 -1286 
Q 1028 -1241 775 -1147 
L 775 -588 
Q 1028 -725 1275 -790 
Q 1522 -856 1778 -856 
Q 2344 -856 2625 -561 
Q 2906 -266 2906 331 
L 2906 616 
Q 2728 306 2450 153 
Q 2172 0 1784 0 
Q 1141 0 747 490 
Q 353 981 353 1791 
Q 353 2603 747 3093 
Q 1141 3584 1784 3584 
Q 2172 3584 2450 3431 
Q 2728 3278 2906 2969 
L 2906 3500 
L 3481 3500 
L 3481 434 
z
" transform="scale(0.015625)"/>
      <path id="DejaVuSans-79" d="M 2059 -325 
Q 1816 -950 1584 -1140 
Q 1353 -1331 966 -1331 
L 506 -1331 
L 506 -850 
L 844 -850 
Q 1081 -850 1212 -737 
Q 1344 -625 1503 -206 
L 1606 56 
L 191 3500 
L 800 3500 
L 1894 763 
L 2988 3500 
L 3597 3500 
L 2059 -325 
z
" transform="scale(0.015625)"/>
      <path id="DejaVuSans-37" d="M 525 4666 
L 3525 4666 
L 3525 4397 
L 1831 0 
L 1172 0 
L 2766 4134 
L 525 4134 
L 525 4666 
z
" transform="scale(0.015625)"/>
     </defs>
     <use xlink:href="#DejaVuSans-50"/>
     <use xlink:href="#DejaVuSans-65" x="56.677734"/>
     <use xlink:href="#DejaVuSans-72" x="118.201172"/>
     <use xlink:href="#DejaVuSans-66" x="159.314453"/>
     <use xlink:href="#DejaVuSans-6f" x="194.519531"/>
     <use xlink:href="#DejaVuSans-72" x="255.701172"/>
     <use xlink:href="#DejaVuSans-6d" x="295.064453"/>
     <use xlink:href="#DejaVuSans-61" x="392.476562"/>
     <use xlink:href="#DejaVuSans-6e" x="453.755859"/>
     <use xlink:href="#DejaVuSans-63" x="517.134766"/>
     <use xlink:href="#DejaVuSans-65" x="572.115234"/>
     <use xlink:href="#DejaVuSans-20" x="633.638672"/>
     <use xlink:href="#DejaVuSans-6f" x="665.425781"/>
     <use xlink:href="#DejaVuSans-66" x="726.607422"/>
     <use xlink:href="#DejaVuSans-20" x="761.8125"/>
     <use xlink:href="#DejaVuSans-41" x="793.599609"/>
     <use xlink:href="#DejaVuSans-56" x="855.632812"/>
     <use xlink:href="#DejaVuSans-41" x="917.666016"/>
     <use xlink:href="#DejaVuSans-4e" x="986.074219"/>
     <use xlink:href="#DejaVuSans-2d" x="1060.878906"/>
     <use xlink:href="#DejaVuSans-73" x="1096.962891"/>
     <use xlink:href="#DejaVuSans-74" x="1149.0625"/>
     <use xlink:href="#DejaVuSans-72" x="1188.271484"/>
     <use xlink:href="#DejaVuSans-61" x="1229.384766"/>
     <use xlink:href="#DejaVuSans-74" x="1290.664062"/>
     <use xlink:href="#DejaVuSans-65" x="1329.873047"/>
     <use xlink:href="#DejaVuSans-67" x="1391.396484"/>
     <use xlink:href="#DejaVuSans-79" x="1454.873047"/>
     <use xlink:href="#DejaVuSans-20" x="1514.052734"/>
     <use xlink:href="#DejaVuSans-79" x="1545.839844"/>
     <use xlink:href="#DejaVuSans-65" x="1605.019531"/>
     <use xlink:href="#DejaVuSans-61" x="1666.542969"/>
     <use xlink:href="#DejaVuSans-72" x="1727.822266"/>
     <use xlink:href="#DejaVuSans-20" x="1768.935547"/>
     <use xlink:href="#DejaVuSans-32" x="1800.722656"/>
     <use xlink:href="#DejaVuSans-30" x="1864.345703"/>
     <use xlink:href="#DejaVuSans-30" x="1927.96875"/>
     <use xlink:href="#DejaVuSans-37" x="1991.591797"/>
    </g>
   </g>
   <g id="legend_1">
    <g id="patch_7">
     <path d="M 63 78.914375 
L 190.421875 78.914375 
Q 192.421875 78.914375 192.421875 76.914375 
L 192.421875 33.88 
Q 192.421875 31.88 190.421875 31.88 
L 63 31.88 
Q 61 31.88 61 33.88 
L 61 76.914375 
Q 61 78.914375 63 78.914375 
z
" style="fill: #ffffff; opacity: 0.8; stroke: #cccccc; stroke-linejoin: miter"/>
    </g>
    <g id="line2d_17">
     <path d="M 65 39.978438 
L 75 39.978438 
L 85 39.978438 
" style="fill: none; stroke: #008000; stroke-width: 1.5; stroke-linecap: square"/>
    </g>
    <g id="text_9">
     <!-- -5.7% return omx -->
     <g transform="translate(93 43.478438)scale(0.1 -0.1)">
      <defs>
       <path id="DejaVuSans-2e" d="M 684 794 
L 1344 794 
L 1344 0 
L 684 0 
L 684 794 
z
" transform="scale(0.015625)"/>
       <path id="DejaVuSans-78" d="M 3513 3500 
L 2247 1797 
L 3578 0 
L 2900 0 
L 1881 1375 
L 863 0 
L 184 0 
L 1544 1831 
L 300 3500 
L 978 3500 
L 1906 2253 
L 2834 3500 
L 3513 3500 
z
" transform="scale(0.015625)"/>
      </defs>
      <use xlink:href="#DejaVuSans-2d"/>
      <use xlink:href="#DejaVuSans-35" x="36.083984"/>
      <use xlink:href="#DejaVuSans-2e" x="99.707031"/>
      <use xlink:href="#DejaVuSans-37" x="131.494141"/>
      <use xlink:href="#DejaVuSans-25" x="195.117188"/>
      <use xlink:href="#DejaVuSans-20" x="290.136719"/>
      <use xlink:href="#DejaVuSans-72" x="321.923828"/>
      <use xlink:href="#DejaVuSans-65" x="360.787109"/>
      <use xlink:href="#DejaVuSans-74" x="422.310547"/>
      <use xlink:href="#DejaVuSans-75" x="461.519531"/>
      <use xlink:href="#DejaVuSans-72" x="524.898438"/>
      <use xlink:href="#DejaVuSans-6e" x="564.261719"/>
      <use xlink:href="#DejaVuSans-20" x="627.640625"/>
      <use xlink:href="#DejaVuSans-6f" x="659.427734"/>
      <use xlink:href="#DejaVuSans-6d" x="720.609375"/>
      <use xlink:href="#DejaVuSans-78" x="818.021484"/>
     </g>
    </g>
    <g id="line2d_18">
     <path d="M 65 54.656563 
L 75 54.656563 
L 85 54.656563 
" style="fill: none; stroke: #0000ff; stroke-width: 1.5; stroke-linecap: square"/>
    </g>
    <g id="text_10">
     <!-- 17.0% return AVAN -->
     <g transform="translate(93 58.156563)scale(0.1 -0.1)">
      <use xlink:href="#DejaVuSans-31"/>
      <use xlink:href="#DejaVuSans-37" x="63.623047"/>
      <use xlink:href="#DejaVuSans-2e" x="127.246094"/>
      <use xlink:href="#DejaVuSans-30" x="159.033203"/>
      <use xlink:href="#DejaVuSans-25" x="222.65625"/>
      <use xlink:href="#DejaVuSans-20" x="317.675781"/>
      <use xlink:href="#DejaVuSans-72" x="349.462891"/>
      <use xlink:href="#DejaVuSans-65" x="388.326172"/>
      <use xlink:href="#DejaVuSans-74" x="449.849609"/>
      <use xlink:href="#DejaVuSans-75" x="489.058594"/>
      <use xlink:href="#DejaVuSans-72" x="552.4375"/>
      <use xlink:href="#DejaVuSans-6e" x="591.800781"/>
      <use xlink:href="#DejaVuSans-20" x="655.179688"/>
      <use xlink:href="#DejaVuSans-41" x="686.966797"/>
      <use xlink:href="#DejaVuSans-56" x="749"/>
      <use xlink:href="#DejaVuSans-41" x="811.033203"/>
      <use xlink:href="#DejaVuSans-4e" x="879.441406"/>
     </g>
    </g>
    <g id="line2d_19">
     <path d="M 65 69.334688 
L 75 69.334688 
L 85 69.334688 
" style="fill: none; stroke: #ff0000; stroke-width: 1.5; stroke-linecap: square"/>
    </g>
    <g id="text_11">
     <!-- cummax -->
     <g transform="translate(93 72.834688)scale(0.1 -0.1)">
      <use xlink:href="#DejaVuSans-63"/>
      <use xlink:href="#DejaVuSans-75" x="54.980469"/>
      <use xlink:href="#DejaVuSans-6d" x="118.359375"/>
      <use xlink:href="#DejaVuSans-6d" x="215.771484"/>
      <use xlink:href="#DejaVuSans-61" x="313.183594"/>
      <use xlink:href="#DejaVuSans-78" x="374.462891"/>
     </g>
    </g>
   </g>
  </g>
  <g id="axes_2">
   <g id="patch_8">
    <path d="M 56 390.04 
L 560.236818 390.04 
L 560.236818 302.955909 
L 56 302.955909 
z
" style="fill: #ffffff"/>
   </g>
   <g id="matplotlib.axis_3">
    <g id="xtick_8">
     <g id="line2d_20">
      <g>
       <use xlink:href="#md9ec6cfc35" x="77.64653" y="390.04" style="stroke: #000000; stroke-width: 0.8"/>
      </g>
     </g>
     <g id="text_12">
      <!-- 2007-01 -->
      <g transform="translate(56.755124 404.638438)scale(0.1 -0.1)">
       <use xlink:href="#DejaVuSans-32"/>
       <use xlink:href="#DejaVuSans-30" x="63.623047"/>
       <use xlink:href="#DejaVuSans-30" x="127.246094"/>
       <use xlink:href="#DejaVuSans-37" x="190.869141"/>
       <use xlink:href="#DejaVuSans-2d" x="254.492188"/>
       <use xlink:href="#DejaVuSans-30" x="290.576172"/>
       <use xlink:href="#DejaVuSans-31" x="354.199219"/>
      </g>
     </g>
    </g>
    <g id="xtick_9">
     <g id="line2d_21">
      <g>
       <use xlink:href="#md9ec6cfc35" x="152.772723" y="390.04" style="stroke: #000000; stroke-width: 0.8"/>
      </g>
     </g>
     <g id="text_13">
      <!-- 2007-03 -->
      <g transform="translate(131.881316 404.638438)scale(0.1 -0.1)">
       <defs>
        <path id="DejaVuSans-33" d="M 2597 2516 
Q 3050 2419 3304 2112 
Q 3559 1806 3559 1356 
Q 3559 666 3084 287 
Q 2609 -91 1734 -91 
Q 1441 -91 1130 -33 
Q 819 25 488 141 
L 488 750 
Q 750 597 1062 519 
Q 1375 441 1716 441 
Q 2309 441 2620 675 
Q 2931 909 2931 1356 
Q 2931 1769 2642 2001 
Q 2353 2234 1838 2234 
L 1294 2234 
L 1294 2753 
L 1863 2753 
Q 2328 2753 2575 2939 
Q 2822 3125 2822 3475 
Q 2822 3834 2567 4026 
Q 2313 4219 1838 4219 
Q 1578 4219 1281 4162 
Q 984 4106 628 3988 
L 628 4550 
Q 988 4650 1302 4700 
Q 1616 4750 1894 4750 
Q 2613 4750 3031 4423 
Q 3450 4097 3450 3541 
Q 3450 3153 3228 2886 
Q 3006 2619 2597 2516 
z
" transform="scale(0.015625)"/>
       </defs>
       <use xlink:href="#DejaVuSans-32"/>
       <use xlink:href="#DejaVuSans-30" x="63.623047"/>
       <use xlink:href="#DejaVuSans-30" x="127.246094"/>
       <use xlink:href="#DejaVuSans-37" x="190.869141"/>
       <use xlink:href="#DejaVuSans-2d" x="254.492188"/>
       <use xlink:href="#DejaVuSans-30" x="290.576172"/>
       <use xlink:href="#DejaVuSans-33" x="354.199219"/>
      </g>
     </g>
    </g>
    <g id="xtick_10">
     <g id="line2d_22">
      <g>
       <use xlink:href="#md9ec6cfc35" x="230.445566" y="390.04" style="stroke: #000000; stroke-width: 0.8"/>
      </g>
     </g>
     <g id="text_14">
      <!-- 2007-05 -->
      <g transform="translate(209.55416 404.638438)scale(0.1 -0.1)">
       <use xlink:href="#DejaVuSans-32"/>
       <use xlink:href="#DejaVuSans-30" x="63.623047"/>
       <use xlink:href="#DejaVuSans-30" x="127.246094"/>
       <use xlink:href="#DejaVuSans-37" x="190.869141"/>
       <use xlink:href="#DejaVuSans-2d" x="254.492188"/>
       <use xlink:href="#DejaVuSans-30" x="290.576172"/>
       <use xlink:href="#DejaVuSans-35" x="354.199219"/>
      </g>
     </g>
    </g>
    <g id="xtick_11">
     <g id="line2d_23">
      <g>
       <use xlink:href="#md9ec6cfc35" x="308.118409" y="390.04" style="stroke: #000000; stroke-width: 0.8"/>
      </g>
     </g>
     <g id="text_15">
      <!-- 2007-07 -->
      <g transform="translate(287.227003 404.638438)scale(0.1 -0.1)">
       <use xlink:href="#DejaVuSans-32"/>
       <use xlink:href="#DejaVuSans-30" x="63.623047"/>
       <use xlink:href="#DejaVuSans-30" x="127.246094"/>
       <use xlink:href="#DejaVuSans-37" x="190.869141"/>
       <use xlink:href="#DejaVuSans-2d" x="254.492188"/>
       <use xlink:href="#DejaVuSans-30" x="290.576172"/>
       <use xlink:href="#DejaVuSans-37" x="354.199219"/>
      </g>
     </g>
    </g>
    <g id="xtick_12">
     <g id="line2d_24">
      <g>
       <use xlink:href="#md9ec6cfc35" x="387.064578" y="390.04" style="stroke: #000000; stroke-width: 0.8"/>
      </g>
     </g>
     <g id="text_16">
      <!-- 2007-09 -->
      <g transform="translate(366.173171 404.638438)scale(0.1 -0.1)">
       <defs>
        <path id="DejaVuSans-39" d="M 703 97 
L 703 672 
Q 941 559 1184 500 
Q 1428 441 1663 441 
Q 2288 441 2617 861 
Q 2947 1281 2994 2138 
Q 2813 1869 2534 1725 
Q 2256 1581 1919 1581 
Q 1219 1581 811 2004 
Q 403 2428 403 3163 
Q 403 3881 828 4315 
Q 1253 4750 1959 4750 
Q 2769 4750 3195 4129 
Q 3622 3509 3622 2328 
Q 3622 1225 3098 567 
Q 2575 -91 1691 -91 
Q 1453 -91 1209 -44 
Q 966 3 703 97 
z
M 1959 2075 
Q 2384 2075 2632 2365 
Q 2881 2656 2881 3163 
Q 2881 3666 2632 3958 
Q 2384 4250 1959 4250 
Q 1534 4250 1286 3958 
Q 1038 3666 1038 3163 
Q 1038 2656 1286 2365 
Q 1534 2075 1959 2075 
z
" transform="scale(0.015625)"/>
       </defs>
       <use xlink:href="#DejaVuSans-32"/>
       <use xlink:href="#DejaVuSans-30" x="63.623047"/>
       <use xlink:href="#DejaVuSans-30" x="127.246094"/>
       <use xlink:href="#DejaVuSans-37" x="190.869141"/>
       <use xlink:href="#DejaVuSans-2d" x="254.492188"/>
       <use xlink:href="#DejaVuSans-30" x="290.576172"/>
       <use xlink:href="#DejaVuSans-39" x="354.199219"/>
      </g>
     </g>
    </g>
    <g id="xtick_13">
     <g id="line2d_25">
      <g>
       <use xlink:href="#md9ec6cfc35" x="464.737421" y="390.04" style="stroke: #000000; stroke-width: 0.8"/>
      </g>
     </g>
     <g id="text_17">
      <!-- 2007-11 -->
      <g transform="translate(443.846015 404.638438)scale(0.1 -0.1)">
       <use xlink:href="#DejaVuSans-32"/>
       <use xlink:href="#DejaVuSans-30" x="63.623047"/>
       <use xlink:href="#DejaVuSans-30" x="127.246094"/>
       <use xlink:href="#DejaVuSans-37" x="190.869141"/>
       <use xlink:href="#DejaVuSans-2d" x="254.492188"/>
       <use xlink:href="#DejaVuSans-31" x="290.576172"/>
       <use xlink:href="#DejaVuSans-31" x="354.199219"/>
      </g>
     </g>
    </g>
    <g id="xtick_14">
     <g id="line2d_26">
      <g>
       <use xlink:href="#md9ec6cfc35" x="542.410264" y="390.04" style="stroke: #000000; stroke-width: 0.8"/>
      </g>
     </g>
     <g id="text_18">
      <!-- 2008-01 -->
      <g transform="translate(521.518858 404.638438)scale(0.1 -0.1)">
       <defs>
        <path id="DejaVuSans-38" d="M 2034 2216 
Q 1584 2216 1326 1975 
Q 1069 1734 1069 1313 
Q 1069 891 1326 650 
Q 1584 409 2034 409 
Q 2484 409 2743 651 
Q 3003 894 3003 1313 
Q 3003 1734 2745 1975 
Q 2488 2216 2034 2216 
z
M 1403 2484 
Q 997 2584 770 2862 
Q 544 3141 544 3541 
Q 544 4100 942 4425 
Q 1341 4750 2034 4750 
Q 2731 4750 3128 4425 
Q 3525 4100 3525 3541 
Q 3525 3141 3298 2862 
Q 3072 2584 2669 2484 
Q 3125 2378 3379 2068 
Q 3634 1759 3634 1313 
Q 3634 634 3220 271 
Q 2806 -91 2034 -91 
Q 1263 -91 848 271 
Q 434 634 434 1313 
Q 434 1759 690 2068 
Q 947 2378 1403 2484 
z
M 1172 3481 
Q 1172 3119 1398 2916 
Q 1625 2713 2034 2713 
Q 2441 2713 2670 2916 
Q 2900 3119 2900 3481 
Q 2900 3844 2670 4047 
Q 2441 4250 2034 4250 
Q 1625 4250 1398 4047 
Q 1172 3844 1172 3481 
z
" transform="scale(0.015625)"/>
       </defs>
       <use xlink:href="#DejaVuSans-32"/>
       <use xlink:href="#DejaVuSans-30" x="63.623047"/>
       <use xlink:href="#DejaVuSans-30" x="127.246094"/>
       <use xlink:href="#DejaVuSans-38" x="190.869141"/>
       <use xlink:href="#DejaVuSans-2d" x="254.492188"/>
       <use xlink:href="#DejaVuSans-30" x="290.576172"/>
       <use xlink:href="#DejaVuSans-31" x="354.199219"/>
      </g>
     </g>
    </g>
    <g id="text_19">
     <!-- Time -->
     <g transform="translate(295.884815 418.316562)scale(0.1 -0.1)">
      <defs>
       <path id="DejaVuSans-54" d="M -19 4666 
L 3928 4666 
L 3928 4134 
L 2272 4134 
L 2272 0 
L 1638 0 
L 1638 4134 
L -19 4134 
L -19 4666 
z
" transform="scale(0.015625)"/>
       <path id="DejaVuSans-69" d="M 603 3500 
L 1178 3500 
L 1178 0 
L 603 0 
L 603 3500 
z
M 603 4863 
L 1178 4863 
L 1178 4134 
L 603 4134 
L 603 4863 
z
" transform="scale(0.015625)"/>
      </defs>
      <use xlink:href="#DejaVuSans-54"/>
      <use xlink:href="#DejaVuSans-69" x="57.958984"/>
      <use xlink:href="#DejaVuSans-6d" x="85.742188"/>
      <use xlink:href="#DejaVuSans-65" x="183.154297"/>
     </g>
    </g>
   </g>
   <g id="matplotlib.axis_4">
    <g id="ytick_7">
     <g id="line2d_27">
      <g>
       <use xlink:href="#ma1aafa72b9" x="56" y="388.260282" style="stroke: #000000; stroke-width: 0.8"/>
      </g>
     </g>
     <g id="text_20">
      <!-- −6 -->
      <g transform="translate(34.257812 392.059501)scale(0.1 -0.1)">
       <defs>
        <path id="DejaVuSans-36" d="M 2113 2584 
Q 1688 2584 1439 2293 
Q 1191 2003 1191 1497 
Q 1191 994 1439 701 
Q 1688 409 2113 409 
Q 2538 409 2786 701 
Q 3034 994 3034 1497 
Q 3034 2003 2786 2293 
Q 2538 2584 2113 2584 
z
M 3366 4563 
L 3366 3988 
Q 3128 4100 2886 4159 
Q 2644 4219 2406 4219 
Q 1781 4219 1451 3797 
Q 1122 3375 1075 2522 
Q 1259 2794 1537 2939 
Q 1816 3084 2150 3084 
Q 2853 3084 3261 2657 
Q 3669 2231 3669 1497 
Q 3669 778 3244 343 
Q 2819 -91 2113 -91 
Q 1303 -91 875 529 
Q 447 1150 447 2328 
Q 447 3434 972 4092 
Q 1497 4750 2381 4750 
Q 2619 4750 2861 4703 
Q 3103 4656 3366 4563 
z
" transform="scale(0.015625)"/>
       </defs>
       <use xlink:href="#DejaVuSans-2212"/>
       <use xlink:href="#DejaVuSans-36" x="83.789062"/>
      </g>
     </g>
    </g>
    <g id="ytick_8">
     <g id="line2d_28">
      <g>
       <use xlink:href="#ma1aafa72b9" x="56" y="361.144947" style="stroke: #000000; stroke-width: 0.8"/>
      </g>
     </g>
     <g id="text_21">
      <!-- −4 -->
      <g transform="translate(34.257812 364.944166)scale(0.1 -0.1)">
       <defs>
        <path id="DejaVuSans-34" d="M 2419 4116 
L 825 1625 
L 2419 1625 
L 2419 4116 
z
M 2253 4666 
L 3047 4666 
L 3047 1625 
L 3713 1625 
L 3713 1100 
L 3047 1100 
L 3047 0 
L 2419 0 
L 2419 1100 
L 313 1100 
L 313 1709 
L 2253 4666 
z
" transform="scale(0.015625)"/>
       </defs>
       <use xlink:href="#DejaVuSans-2212"/>
       <use xlink:href="#DejaVuSans-34" x="83.789062"/>
      </g>
     </g>
    </g>
    <g id="ytick_9">
     <g id="line2d_29">
      <g>
       <use xlink:href="#ma1aafa72b9" x="56" y="334.029612" style="stroke: #000000; stroke-width: 0.8"/>
      </g>
     </g>
     <g id="text_22">
      <!-- −2 -->
      <g transform="translate(34.257812 337.828831)scale(0.1 -0.1)">
       <use xlink:href="#DejaVuSans-2212"/>
       <use xlink:href="#DejaVuSans-32" x="83.789062"/>
      </g>
     </g>
    </g>
    <g id="ytick_10">
     <g id="line2d_30">
      <g>
       <use xlink:href="#ma1aafa72b9" x="56" y="306.914277" style="stroke: #000000; stroke-width: 0.8"/>
      </g>
     </g>
     <g id="text_23">
      <!-- 0 -->
      <g transform="translate(42.6375 310.713496)scale(0.1 -0.1)">
       <use xlink:href="#DejaVuSans-30"/>
      </g>
     </g>
    </g>
    <g id="text_24">
     <!-- DD % -->
     <g transform="translate(28.178125 360.537798)rotate(-90)scale(0.1 -0.1)">
      <defs>
       <path id="DejaVuSans-44" d="M 1259 4147 
L 1259 519 
L 2022 519 
Q 2988 519 3436 956 
Q 3884 1394 3884 2338 
Q 3884 3275 3436 3711 
Q 2988 4147 2022 4147 
L 1259 4147 
z
M 628 4666 
L 1925 4666 
Q 3281 4666 3915 4102 
Q 4550 3538 4550 2338 
Q 4550 1131 3912 565 
Q 3275 0 1925 0 
L 628 0 
L 628 4666 
z
" transform="scale(0.015625)"/>
      </defs>
      <use xlink:href="#DejaVuSans-44"/>
      <use xlink:href="#DejaVuSans-44" x="77.001953"/>
      <use xlink:href="#DejaVuSans-20" x="154.003906"/>
      <use xlink:href="#DejaVuSans-25" x="185.791016"/>
     </g>
    </g>
   </g>
   <g id="line2d_31">
    <path d="M 78.919855 306.914277 
L 81.466506 306.914277 
L 82.739831 307.475672 
L 86.559807 309.507199 
L 87.833132 306.914277 
L 98.019735 306.914277 
L 100.566385 313.04389 
L 104.386361 306.914277 
L 105.659687 306.914277 
L 106.933012 311.366904 
L 108.206337 312.24207 
L 109.479663 316.806633 
L 113.299638 311.569607 
L 114.572964 311.865804 
L 115.846289 309.126583 
L 117.119614 306.914277 
L 122.212916 306.914277 
L 123.486241 307.381729 
L 124.759566 306.914277 
L 126.032891 308.406756 
L 127.306217 320.3417 
L 131.126193 313.885975 
L 132.399518 320.907213 
L 133.672843 309.847412 
L 134.946169 306.914277 
L 141.312795 306.914277 
L 142.58612 312.621351 
L 143.859446 313.547714 
L 145.132771 330.604199 
L 148.952747 330.604199 
L 150.226072 357.282509 
L 175.692578 357.282509 
L 176.965903 344.847921 
L 178.239229 329.305934 
L 179.512554 308.03068 
L 180.785879 307.275269 
L 184.605855 306.914277 
L 185.87918 311.699388 
L 187.152506 319.030253 
L 188.425831 306.914277 
L 189.699156 306.914277 
L 193.519132 316.83559 
L 194.792458 306.914277 
L 196.065783 309.903252 
L 197.339108 313.307081 
L 203.705735 306.914277 
L 207.525711 306.914277 
L 211.345686 309.605433 
L 212.619012 306.914277 
L 213.892337 306.914277 
L 215.165662 327.710853 
L 216.438988 326.337356 
L 220.258963 309.253684 
L 221.532289 315.806082 
L 222.805614 330.587006 
L 224.078939 338.755818 
L 225.352265 344.817146 
L 229.172241 351.475625 
L 231.718891 349.721828 
L 232.992216 341.295636 
L 234.265542 347.091049 
L 238.085518 334.85982 
L 239.358843 323.626106 
L 240.632168 331.904803 
L 241.905494 329.619584 
L 257.185397 329.619584 
L 258.458722 338.07438 
L 259.732048 339.004963 
L 261.005373 349.598064 
L 264.825349 335.984869 
L 266.098674 337.65492 
L 267.372 343.193337 
L 268.645325 334.745554 
L 269.91865 320.785653 
L 273.738626 320.479602 
L 275.011951 317.396739 
L 277.558602 342.46141 
L 278.831927 382.049094 
L 282.651903 356.791242 
L 283.925228 355.017533 
L 285.198554 368.251931 
L 286.471879 357.729717 
L 287.745204 344.142536 
L 291.56518 350.166356 
L 292.838506 359.209822 
L 294.111831 360.504256 
L 301.751783 360.504256 
L 303.025108 352.935505 
L 304.298433 354.01429 
L 305.571758 345.980987 
L 309.391734 347.59289 
L 310.66506 334.621143 
L 311.938385 333.839946 
L 313.21171 328.049808 
L 314.485036 328.049808 
L 318.305011 318.865814 
L 319.578337 314.483041 
L 320.851662 331.756488 
L 323.398313 306.914277 
L 327.218289 308.068518 
L 328.491614 320.387388 
L 329.764939 312.565327 
L 331.038264 317.70531 
L 332.31159 324.491069 
L 336.131566 333.701784 
L 337.404891 326.738286 
L 374.331325 326.738286 
L 375.60465 308.957847 
L 376.877975 306.914277 
L 380.697951 306.914277 
L 381.971276 317.164198 
L 383.244602 336.451679 
L 384.517927 306.914277 
L 389.611228 306.914277 
L 390.884553 309.889831 
L 392.157879 307.352519 
L 393.431204 316.771493 
L 398.524505 368.396907 
L 399.797831 368.521526 
L 401.071156 362.60839 
L 402.344481 364.209085 
L 403.617806 349.134319 
L 407.437782 364.569679 
L 408.711108 378.021184 
L 409.984433 378.021184 
L 411.257758 384.594144 
L 412.531084 384.594144 
L 416.351059 377.7945 
L 417.624385 384.536666 
L 418.89771 386.081632 
L 420.171035 367.926041 
L 421.444361 366.768321 
L 425.264337 364.507295 
L 426.537662 346.181926 
L 429.084312 357.067956 
L 430.357638 353.664199 
L 434.177614 337.049284 
L 435.450939 346.332941 
L 437.99759 336.42684 
L 439.270915 336.00361 
L 443.090891 325.449309 
L 444.364216 362.085214 
L 445.637541 362.563989 
L 446.910867 357.745038 
L 448.184192 359.374577 
L 508.030481 359.374577 
L 509.303806 341.076921 
L 510.577132 341.412575 
L 514.397107 333.524528 
L 515.670433 328.585036 
L 516.943758 347.322454 
L 518.217083 349.729091 
L 519.490409 363.035785 
L 537.316963 363.035785 
L 537.316963 363.035785 
" clip-path="url(#pa009ab0c9e)" style="fill: none; stroke: #0000ff; stroke-width: 1.5; stroke-linecap: square"/>
   </g>
   <g id="patch_9">
    <path d="M 56 390.04 
L 56 302.955909 
" style="fill: none; stroke: #000000; stroke-width: 0.8; stroke-linejoin: miter; stroke-linecap: square"/>
   </g>
   <g id="patch_10">
    <path d="M 560.236818 390.04 
L 560.236818 302.955909 
" style="fill: none; stroke: #000000; stroke-width: 0.8; stroke-linejoin: miter; stroke-linecap: square"/>
   </g>
   <g id="patch_11">
    <path d="M 56 390.04 
L 560.236818 390.04 
" style="fill: none; stroke: #000000; stroke-width: 0.8; stroke-linejoin: miter; stroke-linecap: square"/>
   </g>
   <g id="patch_12">
    <path d="M 56 302.955909 
L 560.236818 302.955909 
" style="fill: none; stroke: #000000; stroke-width: 0.8; stroke-linejoin: miter; stroke-linecap: square"/>
   </g>
  </g>
 </g>
 <defs>
  <clipPath id="p97541fec3f">
   <rect x="56" y="26.88" width="504.236818" height="261.252273"/>
  </clipPath>
  <clipPath id="pa009ab0c9e">
   <rect x="56" y="302.955909" width="504.236818" height="87.084091"/>
  </clipPath>
 </defs>
</svg>
